<svg xmlns="http://www.w3.org/2000/svg"
    xmlns:xlink="http://www.w3.org/1999/xlink" viewBox="0 0 454.952 600">
    <defs>
        <style>.cls-1{fill:#0a0b0b;}.cls-2{fill:#585858;}.cls-3{fill:#363636;}.cls-4{fill:#584a44;}.cls-5{fill:#090909;}.cls-6{fill:#362d2a;}.cls-7{fill:#eb5d55;}.cls-8{fill:#8b1d14;}.cls-9{fill:#c94130;}.cls-10{fill:#82cddf;}.cls-11{fill:url(#Degradado_sin_nombre_211);}.cls-12{fill:url(#Degradado_sin_nombre_3);}</style>
        <linearGradient id="Degradado_sin_nombre_211" x1="227.476" y1="151.546" x2="227.476" y2="21.546" gradientUnits="userSpaceOnUse">
            <stop offset="0" stop-color="#c57115"/>
            <stop offset="0.997" stop-color="#f1881c"/>
        </linearGradient>
        <linearGradient id="Degradado_sin_nombre_3" x1="-46.013" y1="68.467" x2="-46.013" y2="-61.533" gradientUnits="userSpaceOnUse">
            <stop offset="0" stop-color="#a11a16"/>
            <stop offset="0.997" stop-color="#e52521"/>
        </linearGradient>
    </defs>
    <g id="Capa_1" data-name="Capa 1">
        <polygon class="cls-1" points="454.229 467.447 230.178 596.872 225.775 589.31 226.61 566.628 230.178 552.339 454.229 422.914 454.229 467.447"/>
        <polygon class="cls-2" points="454.229 422.914 230.178 552.339 213.675 549.772 32.776 446.283 17.829 429.742 241.889 300.314 454.229 422.914"/>
        <path class="cls-1" d="M17.829,429.737v44.541L230.178,596.872V552.339Z"/>
        <path class="cls-2" d="M3.8,428.918.722,430.7l12.009,42.008,3.08-36.853Z"/>
        <path class="cls-1" d="M5.43,440.452l7.3,32.255,3.08-1.778V435.854l-3.08,1.777Z"/>
        <path class="cls-3" d="M.722,430.7v35.075l12.009,6.933V437.631Z"/>
        <path class="cls-2" d="M17.829,429.737l-7.194,4.156L222.981,601.029l7.2-48.69-58.37-52.292Z"/>
        <path class="cls-1" d="M199.1,563.3l23.882,37.729,7.2-4.157V552.339l-7.2,4.156Z"/>
        <path class="cls-3" d="M10.635,433.893v44.538l212.346,122.6V556.5Z"/>
        <polygon class="cls-4" points="205.555 566.518 190.941 558.079 189.942 558.66 204.552 574.297 205.555 566.518"/>
        <polygon class="cls-5" points="203.334 568.327 204.552 574.297 205.548 573.722 205.555 566.518 204.554 567.095 203.334 568.327"/>
        <polygon class="cls-6" points="189.942 558.66 189.934 565.859 204.552 574.297 204.554 567.095 189.942 558.66"/>
        <polygon class="cls-7" points="203.103 567.14 191.474 560.43 189.204 561.742 200.829 573.746 203.103 567.14"/>
        <polygon class="cls-8" points="199.935 569.359 200.829 573.746 203.101 572.434 203.103 567.14 200.829 568.455 199.935 569.359"/>
        <polygon class="cls-9" points="189.204 561.742 189.197 567.033 200.829 573.746 200.829 568.455 189.204 561.742"/>
        <path class="cls-4" d="M93.284,492.351l-1.684.96,51.265,52.281,1.683-23.642Z"/>
        <path class="cls-5" d="M130.7,526.374l12.166,19.218,1.683-.957V521.95l-1.683.957Z"/>
        <path class="cls-6" d="M91.6,493.311V515.99l51.265,29.6V522.907Z"/>
        <polygon class="cls-1" points="135.692 533.941 135.692 537.266 97.79 515.379 97.79 502.029 100.653 503.678 108.704 512.804 135.692 533.941"/>
        <polygon class="cls-10" points="135.692 523.919 135.692 533.941 100.653 513.721 100.653 503.678 135.692 523.919"/>
        <path class="cls-2" d="M228.233,558.5l-3.077,1.777,12.009,42.006,3.074-36.845Z"/>
        <path class="cls-1" d="M226.952,570.12l10.213,32.161,3.074-1.773V565.436l-3.074,1.772Z"/>
        <path class="cls-3" d="M225.156,560.275v35.074l12.009,6.932V567.208Z"/>
    </g>
    <g id="arrow_event_critycal">
        <animateTransform attributeName="transform" attributeType="XML" type="translate" from="0 0" to="0 75" dur="1.5s" repeatCount="indefinite" />
        <path class="cls-11" d="M247.832,89.919V101.78l29.418.008-49.776,49.758L177.7,101.788l29.153-.008V89.919Zm0-10.65V60.614H206.854V79.269Zm0-29.3V38.638H206.854V49.967Zm0-21.978V21.546H206.854v6.443Z"/>
        <path class="cls-12" d="M-25.657,6.839V18.7l29.419.009L-46.015,68.467-95.787,18.709l29.153-.009V6.839Zm0-10.649V-22.465H-66.634V-3.81Zm0-29.3V-44.441H-66.634v11.328Zm0-21.978v-6.442H-66.634v6.442Z"/>
    </g>
</svg>