<svg xmlns="http://www.w3.org/2000/svg"
    xmlns:xlink="http://www.w3.org/1999/xlink" viewBox="0 0 180.04 600">
    <defs>
        <style>.cls-1{fill:#a49d96;}.cls-2{fill:#e6e1dd;}.cls-3{fill:#dedede;}.cls-4{fill:#d7d1c7;}.cls-5{fill:#584a44;}.cls-6{fill:#090909;}.cls-7{fill:#362d2a;}.cls-8{fill:#0a0b0b;}.cls-9{fill:#82cddf;}.cls-10{fill:#c94130;}.cls-11{fill:url(#Degradado_sin_nombre_211);}</style>
        <linearGradient id="Degradado_sin_nombre_211" x1="90.02" y1="151.546" x2="90.02" y2="21.546" gradientUnits="userSpaceOnUse">
            <stop offset="0" stop-color="#c57115"/>
            <stop offset="0.997" stop-color="#f1881c"/>
        </linearGradient>
    </defs>
    <g id="Capa_1" data-name="Capa 1">
        <polygon class="cls-1" points="179.609 564.26 117.735 600 115.639 595.053 116.75 447.455 117.735 443.51 179.609 407.765 179.609 564.26"/>
        <polygon class="cls-2" points="179.609 407.765 117.735 443.51 113.177 442.8 4.562 380.351 0.431 375.78 62.31 340.044 179.609 407.765"/>
        <path class="cls-3" d="M.431,375.78V532.271L117.735,600V443.51Z"/>
        <polygon class="cls-1" points="144.122 387.282 119.627 401.425 118.803 399.465 119.238 314.822 119.627 313.259 144.122 299.112 144.122 387.282"/>
        <polygon class="cls-2" points="144.122 299.112 119.627 313.259 117.823 312.98 74.826 288.261 73.191 286.453 97.691 272.302 144.122 299.112"/>
        <polygon class="cls-1" points="138.369 298.082 117.848 309.939 78.949 287.484 99.47 275.627 138.369 298.082"/>
        <path class="cls-4" d="M73.191,286.453v88.161l46.436,26.811V313.259Z"/>
        <path class="cls-2" d="M97.7,474.747l2.281-1.315L59.07,428.362,56.789,451.13Z"/>
        <path class="cls-1" d="M63.666,440.437l-4.6-12.075-2.281,1.316V451.13l2.281-1.32Z"/>
        <path class="cls-4" d="M99.976,473.432V451.981L59.07,428.362V449.81Z"/>
        <path class="cls-2" d="M97.7,496.919l2.281-1.315L59.07,450.535,56.789,473.3Z"/>
        <path class="cls-1" d="M63.666,462.607l-4.6-12.072-2.281,1.315V473.3l2.281-1.318Z"/>
        <path class="cls-4" d="M99.976,495.6V474.153L59.07,450.535v21.447Z"/>
        <path class="cls-5" d="M93.332,488.913l1.14-.653L66.914,456.892,65.761,473Z"/>
        <path class="cls-6" d="M75.206,469.987l-8.292-13.1-1.153.652V473l1.153-.652Z"/>
        <path class="cls-7" d="M94.472,488.26V472.8L66.914,456.892v15.456Z"/>
        <polygon class="cls-8" points="68.743 462.907 68.743 460.102 93.382 474.335 93.382 485.603 90.966 484.211 84.165 476.509 68.743 462.907"/>
        <polygon class="cls-9" points="68.743 471.374 68.743 462.907 90.966 475.731 90.966 484.211 68.743 471.374"/>
        <path class="cls-2" d="M97.7,519.092l2.281-1.318L59.07,472.707l-2.281,22.766Z"/>
        <path class="cls-1" d="M63.666,484.779l-4.6-12.072-2.281,1.316v21.45l2.281-1.318Z"/>
        <path class="cls-4" d="M99.976,517.774v-21.45L59.07,472.707v21.448Z"/>
        <path class="cls-2" d="M97.7,549.474l2.281-1.318L59.07,494.875l-2.281,30.977Z"/>
        <path class="cls-1" d="M63.666,506.952l-4.6-12.077-2.281,1.318v29.659l2.281-1.315Z"/>
        <path class="cls-4" d="M99.976,548.156V518.5L59.07,494.875v29.662Z"/>
        <polygon class="cls-10" points="85.103 529.468 77.994 525.365 77.994 529.371 85.103 533.477 85.103 529.468"/>
        <polygon class="cls-10" points="77.035 528.818 77.035 524.811 73.943 523.024 73.943 527.031 77.035 528.818"/>
    </g>
    <g id="arrow_event_critycal">
        <animateTransform attributeName="transform" attributeType="XML" type="translate" from="0 0" to="0 75" dur="1.5s" repeatCount="indefinite" />
        <path class="cls-11" d="M110.376,89.919V101.78l29.418.008L90.018,151.546,40.246,101.788,69.4,101.78V89.919Zm0-10.65V60.614H69.4V79.269Zm0-29.3V38.638H69.4V49.967Zm0-21.978V21.546H69.4v6.443Z"/>
    </g>
</svg>