<svg xmlns="http://www.w3.org/2000/svg"
    xmlns:xlink="http://www.w3.org/1999/xlink" viewBox="0 0 186.431 600">
    <defs>
        <style>.cls-1{isolation:isolate;}.cls-2{fill:#1b2e31;}.cls-3{fill:#a4aeb0;}.cls-4{fill:#355a60;}.cls-5{fill:#5f7174;}.cls-6{fill:#96aaad;}.cls-7{fill:#e6ebec;}.cls-8{fill:#3b7882;}.cls-9{fill:#a6dbf6;}.cls-10{fill:#63b22f;}.cls-11{fill:#2b3235;}.cls-12{fill:#fbbb26;}.cls-13{fill:url(#Degradado_sin_nombre_211);}</style>
        <linearGradient id="Degradado_sin_nombre_211" x1="93.216" y1="151.546" x2="93.216" y2="21.546" gradientUnits="userSpaceOnUse">
            <stop offset="0" stop-color="#c57115"/>
            <stop offset="0.997" stop-color="#f1881c"/>
        </linearGradient>
    </defs>
    <g id="Capa_1" data-name="Capa 1">
        <g class="cls-1">
            <polygon class="cls-2" points="64.135 600 0.898 563.108 0.898 554.121 64.135 591.013 64.135 600"/>
            <polygon class="cls-3" points="64.135 591.013 0.898 554.121 119.009 485.748 182.247 522.641 64.135 591.013"/>
            <polygon class="cls-4" points="182.247 522.641 182.247 531.627 64.135 600 64.135 591.013 182.247 522.641"/>
        </g>
        <g class="cls-1">
            <polygon class="cls-5" points="58.573 594.186 4.7 561.859 4.253 314.409 58.124 346.734 58.573 594.186"/>
            <polygon class="cls-6" points="58.124 346.734 4.253 314.409 131.215 241.093 185.087 273.419 58.124 346.734"/>
            <polygon class="cls-7" points="185.087 273.419 185.534 520.87 58.573 594.186 58.124 346.734 185.087 273.419"/>
        </g>
        <polygon class="cls-7" points="55.323 344.69 182.149 271.296 184.793 272.835 184.793 276.272 57.835 349.478 57.835 346.148 55.323 344.69"/>
        <polygon class="cls-8" points="155.49 363.16 155.393 328.532 152.492 330.203 152.581 360.777 85.636 399.429 85.649 403.484 155.49 363.16"/>
        <polygon class="cls-9" points="152.492 330.203 85.548 368.85 85.636 399.429 152.581 360.777 152.492 330.203"/>
        <polygon class="cls-8" points="155.49 412.795 155.393 378.167 152.492 379.838 152.581 410.412 85.636 449.064 85.649 453.119 155.49 412.795"/>
        <polygon class="cls-9" points="152.492 379.838 85.548 418.486 85.636 449.064 152.581 410.412 152.492 379.838"/>
        <path class="cls-4" d="M155.189,446.23a5.723,5.723,0,0,0-.926-.046,4.946,4.946,0,0,0-.625-.026,6.859,6.859,0,0,0-1.147.25c-.194.049-.373.06-.57.124a10.485,10.485,0,0,0-1.844.851l-7.79-4.649c2.53-1.46,4.828-1.6,6.481-.635l7.792,4.649-.02-.012a4.612,4.612,0,0,0-.764-.287A5.157,5.157,0,0,0,155.189,446.23Z"/>
        <path class="cls-4" d="M142.287,442.734l7.79,4.649c-5.01,2.894-9.069,9.922-9.05,15.679a10.037,10.037,0,0,0,.189,1.99c.04.2.123.355.176.548a7.462,7.462,0,0,0,.356,1.1,4.769,4.769,0,0,0,.331.511,5.067,5.067,0,0,0,.507.776,4.7,4.7,0,0,0,.471.389,4.306,4.306,0,0,0,.62.511l-7.794-4.645c-1.63-.95-2.642-2.962-2.65-5.822C133.216,452.656,137.275,445.632,142.287,442.734Z"/>
        <path class="cls-10" d="M142.079,467.208a4.62,4.62,0,0,1-.331-.511,7.462,7.462,0,0,1-.356-1.1c-.053-.193-.136-.348-.176-.548a10.037,10.037,0,0,1-.189-1.99c-.019-5.757,4.04-12.785,9.05-15.679a10.783,10.783,0,0,1,1.844-.851c.2-.064.376-.075.57-.124a6.859,6.859,0,0,1,1.147-.25,4.3,4.3,0,0,1,.625.026,5.723,5.723,0,0,1,.926.046,5.157,5.157,0,0,1,.587.219,4.612,4.612,0,0,1,.764.287c1.641.942,2.661,2.962,2.67,5.829.015,5.754-4.04,12.786-9.072,15.691-2.873,1.656-5.413,1.551-7.081.117a4.7,4.7,0,0,1-.471-.389A4.994,4.994,0,0,1,142.079,467.208Z"/>
        <path class="cls-5" d="M150.077,447.383a10.485,10.485,0,0,1,1.844-.851A10.783,10.783,0,0,0,150.077,447.383Z"/>
        <path class="cls-5" d="M154.263,446.184a5.723,5.723,0,0,1,.926.046A5.723,5.723,0,0,0,154.263,446.184Z"/>
        <path class="cls-5" d="M153.638,446.158a6.859,6.859,0,0,0-1.147.25A6.859,6.859,0,0,1,153.638,446.158Z"/>
        <path class="cls-5" d="M156.54,446.736a4.612,4.612,0,0,0-.764-.287A4.612,4.612,0,0,1,156.54,446.736Z"/>
        <path class="cls-5" d="M141.748,466.7a4.62,4.62,0,0,0,.331.511A4.769,4.769,0,0,1,141.748,466.7Z"/>
        <path class="cls-5" d="M142.586,467.984a4.7,4.7,0,0,0,.471.389A4.7,4.7,0,0,1,142.586,467.984Z"/>
        <path class="cls-5" d="M141.216,465.052c.04.2.123.355.176.548C141.339,465.407,141.256,465.252,141.216,465.052Z"/>
        <path class="cls-4" d="M116.856,463.709a6.737,6.737,0,0,0-1.083-.053,5.666,5.666,0,0,0-.73-.031,8.076,8.076,0,0,0-1.342.292c-.226.058-.435.071-.665.146a12.236,12.236,0,0,0-2.156,1l-9.106-5.434c2.958-1.707,5.644-1.871,7.576-.743l9.108,5.434-.024-.014a5.376,5.376,0,0,0-.893-.336A6.172,6.172,0,0,0,116.856,463.709Z"/>
        <path class="cls-4" d="M101.774,459.624l9.106,5.434c-5.856,3.382-10.6,11.6-10.578,18.327a11.716,11.716,0,0,0,.221,2.325c.047.234.144.415.206.641a8.6,8.6,0,0,0,.415,1.282,5.668,5.668,0,0,0,.387.6,5.964,5.964,0,0,0,.593.907,5.4,5.4,0,0,0,.55.455,5.133,5.133,0,0,0,.725.6l-9.11-5.429c-1.906-1.11-3.089-3.463-3.1-6.805C91.172,471.221,95.916,463.011,101.774,459.624Z"/>
        <path class="cls-10" d="M101.531,488.23a5.513,5.513,0,0,1-.387-.6,8.6,8.6,0,0,1-.415-1.282c-.062-.226-.159-.407-.206-.641a11.716,11.716,0,0,1-.221-2.325c-.022-6.73,4.722-14.945,10.578-18.327a12.532,12.532,0,0,1,2.156-1c.23-.075.439-.088.665-.146a8.076,8.076,0,0,1,1.342-.292,4.891,4.891,0,0,1,.73.031,6.737,6.737,0,0,1,1.083.053,6.172,6.172,0,0,1,.685.256,5.376,5.376,0,0,1,.893.336c1.919,1.1,3.111,3.463,3.122,6.814.017,6.725-4.723,14.944-10.605,18.34-3.358,1.936-6.327,1.813-8.277.137a5.4,5.4,0,0,1-.55-.455A5.817,5.817,0,0,1,101.531,488.23Z"/>
        <path class="cls-5" d="M110.88,465.058a12.236,12.236,0,0,1,2.156-1A12.532,12.532,0,0,0,110.88,465.058Z"/>
        <path class="cls-5" d="M115.773,463.656a6.737,6.737,0,0,1,1.083.053A6.737,6.737,0,0,0,115.773,463.656Z"/>
        <path class="cls-5" d="M115.043,463.625a8.076,8.076,0,0,0-1.342.292A8.076,8.076,0,0,1,115.043,463.625Z"/>
        <path class="cls-5" d="M118.434,464.3a5.376,5.376,0,0,0-.893-.336A5.376,5.376,0,0,1,118.434,464.3Z"/>
        <path class="cls-5" d="M101.144,487.633a5.513,5.513,0,0,0,.387.6A5.668,5.668,0,0,1,101.144,487.633Z"/>
        <path class="cls-5" d="M102.124,489.137a5.4,5.4,0,0,0,.55.455A5.4,5.4,0,0,1,102.124,489.137Z"/>
        <path class="cls-5" d="M100.523,485.71c.047.234.144.415.206.641C100.667,486.125,100.57,485.944,100.523,485.71Z"/>
        <path class="cls-11" d="M103.758,549.57l23.813-60.358c2.077-5.273,7.687-7.833,10.379-4.167l24.069,32.708c2.5,3.377-.106,9.43-3.848,11.591L110.287,556.99C105.77,559.6,101.362,555.651,103.758,549.57Z"/>
        <path class="cls-12" d="M136.059,486.432l24.071,32.711c1.457,1.972-.3,6.533-3.132,8.17l-47.884,27.646c-2.836,1.637-4.609-.888-3.174-4.53l23.813-60.356C130.977,486.966,134.462,484.258,136.059,486.432Z"/>
        <polygon class="cls-11" points="138.737 505.433 131.508 520.257 137.982 516.519 127.748 535.711 132.447 522.039 127.345 524.985 131.003 509.898 138.737 505.433"/>
    </g>
    <g id="arrow_event_critycal">
        <animateTransform attributeName="transform" attributeType="XML" type="translate" from="0 0" to="0 75" dur="1.5s" repeatCount="indefinite" />
        <path class="cls-13" d="M113.571,89.919V101.78l29.419.008L93.214,151.546,43.441,101.788l29.153-.008V89.919Zm0-10.65V60.614H72.594V79.269Zm0-29.3V38.638H72.594V49.967Zm0-21.978V21.546H72.594v6.443Z"/>
    </g>
</svg>