<svg xmlns="http://www.w3.org/2000/svg"
    xmlns:xlink="http://www.w3.org/1999/xlink" viewBox="0 0 255.156 600">
    <defs>
        <style>.cls-1{fill:#79af2b;}.cls-2{fill:#9ec41a;}.cls-3{fill:#234156;}.cls-4{fill:#d1c5bb;}.cls-5{fill:#c5b5a9;}.cls-6,.cls-8{fill:#efe8e1;}.cls-6{opacity:0.3;}.cls-7{fill:#375b71;}.cls-9{fill:#e1d8cf;}.cls-10{fill:#2fbce7;}.cls-11{fill:#5cc4e6;opacity:0.5;}.cls-12{fill:url(#Degradado_sin_nombre_211);}</style>
        <linearGradient id="Degradado_sin_nombre_211" x1="127.578" y1="151.546" x2="127.578" y2="21.546" gradientUnits="userSpaceOnUse">
            <stop offset="0" stop-color="#c57115"/>
            <stop offset="0.997" stop-color="#f1881c"/>
        </linearGradient>
    </defs>
    <g id="Capa_1" data-name="Capa 1">
        <rect class="cls-1" x="0.49" y="506.907" width="254.152" height="19.468"/>
        <ellipse class="cls-1" cx="127.578" cy="525.15" rx="127.088" ry="74.85"/>
        <ellipse class="cls-2" cx="127.578" cy="509.488" rx="127.088" ry="74.85"/>
        <path class="cls-3" d="M12.636,496.038H7.611V387.9c0-7.4,2.566-13.125,7.04-15.708,3.846-2.222,8.627-1.909,13.461.882L56.99,389.742,54.477,394.1,25.6,377.422c-2.273-1.314-5.587-2.529-8.435-.884-2.878,1.661-4.528,5.8-4.528,11.357Z"/>
        <ellipse class="cls-3" cx="10.109" cy="495.888" rx="2.498" ry="1.682"/>
        <path class="cls-4" d="M20.487,300.051V501.11c0,34.921,48.067,63.23,107.359,63.23S235.2,536.031,235.2,501.11V300.051Z"/>
        <path class="cls-5" d="M63.356,300.051H20.487V501.11c0,20.665,16.838,39.012,42.869,50.55Z"/>
        <path class="cls-6" d="M170.407,300.051V559.165c38.115-9.707,64.795-32.042,64.795-58.055V300.051Z"/>
        <path class="cls-7" d="M127.846,556.707c-59.292,0-107.359-28.309-107.359-63.23v7.633c0,34.921,48.067,63.23,107.359,63.23S235.2,536.031,235.2,501.11v-7.633C235.2,528.4,187.136,556.707,127.846,556.707Z"/>
        <path class="cls-7" d="M127.846,378.88c-59.292,0-107.359-28.31-107.359-63.23v7.633c0,34.92,48.067,63.23,107.359,63.23S235.2,358.2,235.2,323.283V315.65C235.2,350.57,187.136,378.88,127.846,378.88Z"/>
        <ellipse class="cls-8" cx="127.845" cy="304.33" rx="107.358" ry="63.23"/>
        <ellipse class="cls-4" cx="127.845" cy="302.954" rx="91.309" ry="53.778"/>
        <path class="cls-9" d="M127.846,254.3c48.969,0,88.927,22.706,91.2,51.217.068-.85.11-1.7.11-2.562,0-29.7-40.881-53.777-91.308-53.777s-91.31,24.077-91.31,53.777c0,.859.042,1.712.11,2.562C38.917,277.005,78.875,254.3,127.846,254.3Z"/>
        <ellipse class="cls-10" cx="127.845" cy="305.516" rx="91.199" ry="51.217"/>
        <path class="cls-4" d="M127.846,262.916c46.387,0,84.675,20.361,90.572,46.734a32.525,32.525,0,0,0,.626-4.134c-2.271-28.511-42.229-51.217-91.2-51.217s-88.929,22.706-91.2,51.217a32.525,32.525,0,0,0,.626,4.134C43.169,283.277,81.457,262.916,127.846,262.916Z"/>
        <path class="cls-10" d="M127.846,356.732c46.574,0,84.971-20.544,90.572-47.082-5.9-26.373-44.185-46.734-90.572-46.734S43.169,283.277,37.272,309.65C42.873,336.188,81.27,356.732,127.846,356.732Z"/>
        <path class="cls-11" d="M156.088,353.827c-3.085-5.556-6.365-10.992-11.077-15.34-10.225-9.435-24.516-12.31-37.054-17.377-5.088-2.057-11.441-4.41-14.818-9.008-2.209-3.008-1.452-6.273.284-9.293,2.06-3.584,4.662-6.838,5.642-10.941a13,13,0,0,0-.853-8.166c-.954-2.394-2.09-4.776-2.025-7.417.135-5.518,4.129-8.961,8.917-11.612-4.369.663-8.655,1.449-12.747,2.467-2.581,2.1-5.366,3.974-7.842,6.184a20.621,20.621,0,0,0-4.455,5.822c-.523,1-1.313,2.538-.294,3.467.941.857,2.579,1.091,3.755,1.431a19.246,19.246,0,0,1,4.875,1.949c3.087,1.919,5.293,5.808,4.246,9.48-.989,3.466-4.489,5.449-7.689,6.508-6.887,2.278-16.7,2.148-21.216-4.355A80.158,80.158,0,0,1,56.5,284.584a9.663,9.663,0,0,1-.422-1.145c-9.92,7.411-16.61,16.393-18.8,26.211a35.793,35.793,0,0,0,3.592,9.647c2.749-3.05,5.508-6.139,9.065-8.178,5.156-2.955,11.6-5.477,17.475-3.218,5.206,2,8.787,6.4,13.291,9.477,7.89,5.391,17.3,8.407,26.121,11.869,9.075,3.56,18.723,7.294,26.235,13.688a29.1,29.1,0,0,1,9.017,13.135c4.856-.447,9.582-1.125,14.152-2C156.176,353.986,156.131,353.907,156.088,353.827Z"/>
        <path class="cls-11" d="M183.564,335.621c-3.507-4.675-5.95-10.08-9.676-14.6-1.556-1.888-3.448-4.073-5.7-5.132a23.547,23.547,0,0,0-6.366-1.583c-4.485-.707-9.715-.993-13.475-3.831-2.883-2.177-4.553-6.577-2.023-9.643,2.377-2.882,6.819-3.649,10.3-4.147,9.4-1.347,19.3.248,28.083-3.95,5.282-2.526,9.721-6.491,14.819-9.3-11.287-8.415-26.708-14.816-44.507-18.08-.978,6.355-6.7,10.615-11.12,14.733-2.444,2.277-4.556,4.775-7.329,6.68a81.529,81.529,0,0,1-8.731,4.914c-5.842,3.031-12.062,6.484-13.664,13.409-.536,2.318-.008,4.214,2.244,5.219,2.4,1.068,5.235,1.207,7.8,1.49a180.07,180.07,0,0,1,19.609,3.462c6.906,1.552,14.106,3.653,19.9,7.877a21.6,21.6,0,0,1,5.761,5.89c1.069,1.717,1.983,3.532,2.893,5.336,2.2,4.363,4.337,8.76,6.634,13.074a100.387,100.387,0,0,0,11.354-5.362A27.072,27.072,0,0,1,183.564,335.621Z"/>
        <path class="cls-7" d="M49.041,529.545c-1.268,2.2-3.362,3.279-4.767,2.468s-1.515-3.167-.247-5.363,3.362-3.281,4.768-2.469S50.309,527.349,49.041,529.545ZM45,527.214c-1,1.731-.89,3.4-.166,3.821s2.226-.324,3.226-2.055.89-3.4.167-3.822S46,525.482,45,527.214Z"/>
        <polygon class="cls-7" points="49.324 526.581 43.939 529.736 43.654 529.249 49.039 526.093 49.324 526.581"/>
        <polygon class="cls-7" points="46.751 531.037 46.792 524.795 46.227 524.793 46.187 531.034 46.751 531.037"/>
        <rect class="cls-7" x="48.361" y="526.226" width="1.128" height="6.191" transform="translate(-433.945 307.035) rotate(-60)"/>
        <path class="cls-7" d="M51.884,530.382c-.159-.092-.414.052-.569.322s-.154.563.005.655.414-.053.57-.323S52.043,530.474,51.884,530.382Z"/>
        <path class="cls-7" d="M71.357,540.33c-1.268,2.2-3.362,3.279-4.768,2.468s-1.514-3.167-.246-5.363,3.362-3.281,4.768-2.469S72.624,538.134,71.357,540.33ZM67.32,538c-1,1.731-.89,3.4-.166,3.822s2.226-.324,3.225-2.055.891-3.4.168-3.823S68.32,536.267,67.32,538Z"/>
        <polygon class="cls-7" points="71.64 537.366 66.255 540.522 65.97 540.034 71.355 536.878 71.64 537.366"/>
        <polygon class="cls-7" points="69.067 541.822 69.107 535.581 68.543 535.578 68.502 541.819 69.067 541.822"/>
        <rect class="cls-7" x="70.677" y="537.011" width="1.128" height="6.191" transform="translate(-432.127 331.754) rotate(-60)"/>
        <path class="cls-7" d="M74.2,541.167c-.159-.092-.414.053-.57.322s-.153.563.006.655.414-.053.57-.322S74.359,541.259,74.2,541.167Z"/>
        <path class="cls-3" d="M217.3,549.38a1.255,1.255,0,0,1-1.256-1.256V340.217a1.257,1.257,0,0,1,2.513,0V548.124A1.255,1.255,0,0,1,217.3,549.38Z"/>
        <path class="cls-3" d="M217.3,341.474a1.253,1.253,0,0,1-.627-.168l-15.832-9.141a1.257,1.257,0,0,1,1.257-2.177l15.832,9.141a1.257,1.257,0,0,1-.63,2.345Z"/>
        <path class="cls-3" d="M194.859,562.372a1.256,1.256,0,0,1-1.256-1.256V353.209a1.256,1.256,0,1,1,2.512,0V561.116A1.256,1.256,0,0,1,194.859,562.372Z"/>
        <path class="cls-3" d="M194.858,354.465a1.248,1.248,0,0,1-.627-.168L178.4,345.156a1.256,1.256,0,1,1,1.256-2.176l15.832,9.141a1.256,1.256,0,0,1-.629,2.344Z"/>
        <rect class="cls-3" x="193.103" y="544.488" width="26.21" height="2.513" transform="translate(-245.213 176.18) rotate(-29.995)"/>
        <rect class="cls-3" x="193.103" y="529.985" width="26.21" height="2.513" transform="translate(-237.963 174.238) rotate(-29.995)"/>
        <rect class="cls-3" x="193.103" y="515.093" width="26.21" height="2.513" transform="translate(-230.518 172.244) rotate(-29.995)"/>
        <rect class="cls-3" x="193.103" y="500.591" width="26.21" height="2.513" transform="translate(-223.268 170.301) rotate(-29.995)"/>
        <rect class="cls-3" x="193.103" y="485.699" width="26.21" height="2.513" transform="translate(-215.823 168.307) rotate(-29.995)"/>
        <rect class="cls-3" x="193.103" y="470.798" width="26.21" height="2.513" transform="translate(-208.374 166.311) rotate(-29.995)"/>
        <rect class="cls-3" x="193.103" y="455.906" width="26.21" height="2.513" transform="translate(-200.929 164.316) rotate(-29.995)"/>
        <rect class="cls-3" x="193.103" y="441.403" width="26.21" height="2.513" transform="translate(-193.679 162.374) rotate(-29.995)"/>
        <rect class="cls-3" x="193.103" y="426.511" width="26.21" height="2.513" transform="translate(-186.234 160.38) rotate(-29.995)"/>
        <rect class="cls-3" x="193.103" y="411.62" width="26.21" height="2.513" transform="translate(-178.789 158.385) rotate(-29.995)"/>
        <rect class="cls-3" x="193.103" y="396.718" width="26.21" height="2.513" transform="translate(-171.34 156.389) rotate(-29.995)"/>
        <rect class="cls-3" x="193.103" y="381.827" width="26.21" height="2.513" transform="translate(-163.895 154.395) rotate(-29.995)"/>
        <rect class="cls-3" x="193.103" y="367.324" width="26.21" height="2.513" transform="matrix(0.866, -0.5, 0.5, 0.866, -156.645, 152.453)"/>
        <rect class="cls-3" x="193.103" y="352.432" width="26.21" height="2.513" transform="translate(-149.2 150.458) rotate(-29.995)"/>
        <path class="cls-3" d="M55.763,560.909H50.738V356.473c0-9.339,5.561-19.864,12.659-23.964,3.552-2.05,7.1-2.262,9.974-.6,3.3,1.907,5.2,6.062,5.2,11.4v4.929l-5.025-2.05v-2.879c0-3.442-1-6.076-2.685-7.047-1.617-.935-3.583-.187-4.949.6-5.5,3.175-10.147,12.157-10.147,19.611Z"/>
        <path class="cls-3" d="M55.734,560.909c0,.929-1.119,1.682-2.5,1.682s-2.5-.753-2.5-1.682,1.118-1.681,2.5-1.681S55.734,559.981,55.734,560.909Z"/>
        <path class="cls-3" d="M77.9,569.07H72.873V364.633c0-9.338,5.561-19.863,12.66-23.963,3.551-2.05,7.1-2.262,9.974-.6,3.3,1.906,5.2,6.062,5.2,11.4v2.9L95.68,353.3v-1.833c0-3.441-1-6.075-2.686-7.047-1.617-.934-3.582-.186-4.949.6-5.5,3.175-10.147,12.156-10.147,19.61Z"/>
        <ellipse class="cls-3" cx="75.371" cy="569.07" rx="2.498" ry="1.682"/>
        <ellipse class="cls-4" cx="128.421" cy="315.58" rx="107.373" ry="63.239"/>
        <rect class="cls-4" x="21.048" y="305.368" width="214.734" height="10.211"/>
        <ellipse class="cls-8" cx="128.421" cy="304.665" rx="107.373" ry="63.239"/>
        <ellipse class="cls-4" cx="128.421" cy="303.597" rx="100.011" ry="58.473"/>
        <path class="cls-4" d="M128.421,252c53.259,0,96.778,24.343,99.825,55.034.113-1.139.186-2.283.186-3.438,0-32.294-44.776-58.473-100.011-58.473S28.41,271.3,28.41,303.6c0,1.155.073,2.3.186,3.438C31.642,276.344,75.162,252,128.421,252Z"/>
        <ellipse class="cls-9" cx="128.421" cy="307.035" rx="99.825" ry="55.034"/>
    </g>
    <g id="arrow_event_critycal">
        <animateTransform attributeName="transform" attributeType="XML" type="translate" from="0 0" to="0 75" dur="1.5s" repeatCount="indefinite" />
        <path class="cls-12" d="M147.934,89.919V101.78l29.419.008-49.777,49.758L77.8,101.788l29.153-.008V89.919Zm0-10.65V60.614H106.957V79.269Zm0-29.3V38.638H106.957V49.967Zm0-21.978V21.546H106.957v6.443Z"/>
    </g>
</svg>