<svg xmlns="http://www.w3.org/2000/svg"
    xmlns:xlink="http://www.w3.org/1999/xlink" viewBox="0 0 186.431 600">
    <defs>
        <style>.cls-1{isolation:isolate;}.cls-2{fill:#28306b;}.cls-3{fill:#1e2144;}.cls-4{fill:#8bcac3;}.cls-5{fill:#010101;mix-blend-mode:multiply;}.cls-6{fill:#282929;}.cls-7{fill:#6c4449;}.cls-8{fill:#83575f;}.cls-9{fill:#57343a;}.cls-10{fill:#6088a0;}.cls-11,.cls-12{fill:#83a4bf;}.cls-12{mix-blend-mode:overlay;}.cls-13{fill:#fed86d;}.cls-14{fill:#bdbec0;}.cls-15{fill:#d1d1d1;}.cls-16{fill:#9d9d9e;}.cls-17{fill:url(#Degradado_sin_nombre_211);}</style>
        <linearGradient id="Degradado_sin_nombre_211" x1="93.216" y1="151.546" x2="93.216" y2="21.546" gradientUnits="userSpaceOnUse">
            <stop offset="0" stop-color="#c57115"/>
            <stop offset="0.997" stop-color="#f1881c"/>
        </linearGradient>
    </defs>
    <g class="cls-1">
        <g id="Capa_1" data-name="Capa 1">
            <polygon class="cls-2" points="53.264 239.111 159.768 299.042 185.636 313.735 131.679 344.889 66.958 307.518 66.88 307.565 0.796 269.407 53.264 239.111"/>
            <polygon class="cls-2" points="131.676 515.885 131.72 515.858 131.676 430.374 131.72 430.357 131.676 344.928 185.636 313.758 185.636 399.215 185.636 399.459 185.636 484.724 185.636 484.907 185.636 570.18 185.636 570.268 131.72 599.997 131.676 515.885"/>
            <polygon class="cls-3" points="65.639 306.824 65.639 306.742 131.72 344.889 131.72 430.342 131.72 430.628 131.72 515.855 131.72 516.078 131.72 599.997 131.703 600 0.833 524.79 0.833 440.591 0.833 440.372 0.833 355.144 0.833 354.86 0.833 269.412 65.639 306.824"/>
            <path class="cls-4" d="M64.921,422.065a10.783,10.783,0,0,0,4.895,8.44c2.7,1.561,4.9.313,4.9-2.789a10.791,10.791,0,0,0-4.894-8.443C67.114,417.71,64.921,418.96,64.921,422.065Zm1.25.72c0-2.311,1.633-3.239,3.645-2.079a8.032,8.032,0,0,1,3.645,6.286c0,2.311-1.63,3.243-3.645,2.081A8.036,8.036,0,0,1,66.171,422.785Z"/>
            <rect class="cls-5" x="60.001" y="307.856" width="2.42" height="246.216"/>
            <polygon class="cls-6" points="128.178 372.44 128.205 345.441 96.459 328.654 96.459 355.654 96.459 362.674 96.459 382.679 96.459 389.676 96.459 416.623 96.459 409.758 96.459 436.762 128.178 453.554 128.205 426.469 128.178 426.464 128.205 399.468 128.178 399.459 128.205 372.446 128.178 372.44"/>
            <polygon class="cls-7" points="125.113 352.139 102.186 338.903 102.186 338.908 100.984 339.599 100.984 375.922 100.996 375.915 123.917 389.151 125.113 388.461 106.682 377.819 125.113 388.461 125.113 352.139"/>
            <polygon class="cls-8" points="102.19 338.903 100.996 339.589 123.921 352.825 125.113 352.139 102.19 338.903"/>
            <polygon class="cls-9" points="125.113 352.134 123.911 352.83 123.911 389.151 125.113 388.461 125.113 352.134"/>
            <polygon class="cls-10" points="122.109 353.313 100.342 340.748 101.086 340.318 122.848 352.883 122.109 353.313"/>
            <polygon class="cls-11" points="122.104 388.26 100.342 375.693 100.342 340.748 122.104 353.308 122.104 388.26"/>
            <polygon class="cls-10" points="122.104 388.26 122.104 353.313 122.852 352.878 122.852 387.827 122.104 388.26"/>
            <polygon class="cls-8" points="124.936 359.426 124.123 359.894 124.123 356.136 124.936 355.668 124.936 359.426"/>
            <polygon class="cls-8" points="124.936 363.53 124.123 363.992 124.123 360.234 124.936 359.767 124.936 363.53"/>
            <path class="cls-8" d="M124.862,387.322a.606.606,0,0,1-.281.49h0c-.154.095-.282.021-.282-.159v-7.2a.627.627,0,0,1,.282-.489h0c.159-.09.281-.015.281.159Z"/>
            <polygon class="cls-12" points="114.322 368.511 114.322 352.559 108.214 349.03 108.214 349.03 103.17 346.111 103.17 365.954 103.17 365.954 103.17 365.964 114.322 372.408 114.322 372.398 114.322 368.511 114.322 368.511"/>
            <path class="cls-12" d="M119.754,378.951V354.059l-9.536-5.509a.022.022,0,0,0,.011,0L102.351,344V374.97h0v.01l17.4,10.047v-6.076Z"/>
            <polygon class="cls-12" points="102.924 372.243 109.479 354.398 121.965 354.616 122.124 355.106 122.124 353.308 100.363 340.748 100.363 375.693 104.923 378.329 102.924 372.243"/>
            <path class="cls-13" d="M101.447,385.76a4.38,4.38,0,0,0,1.982,3.423h0c1.1.634,1.984.129,1.984-1.137h0a4.341,4.341,0,0,0-1.989-3.412h0c-1.089-.639-1.977-.129-1.977,1.126Z"/>
            <path class="cls-13" d="M108.813,388.28a2.7,2.7,0,0,0,1.234,2.111h0c.671.388,1.223.08,1.218-.7h0a2.69,2.69,0,0,0-1.223-2.115h0c-.674-.389-1.229-.075-1.229.7Z"/>
            <path class="cls-13" d="M114.715,406.422a5.809,5.809,0,0,0,2.636,4.55h0c1.457.84,2.637.165,2.637-1.5h0a5.8,5.8,0,0,0-2.637-4.546h0c-1.455-.841-2.636-.17-2.636,1.5Z"/>
            <polygon class="cls-14" points="120.987 392.851 122.47 391.995 118.09 389.471 116.607 390.321 120.987 392.851"/>
            <polygon class="cls-15" points="120.987 394.776 120.987 392.851 116.607 390.321 116.607 392.244 120.987 394.776"/>
            <polygon class="cls-16" points="120.987 394.776 122.47 393.92 122.47 391.995 120.987 392.851 120.987 394.776"/>
            <polygon class="cls-14" points="120.987 397.131 122.47 396.275 118.09 393.744 116.607 394.6 120.987 397.131"/>
            <polygon class="cls-15" points="120.987 399.056 120.987 397.131 116.607 394.6 116.607 396.519 120.987 399.056"/>
            <polygon class="cls-16" points="120.987 399.056 122.47 398.198 122.47 396.275 120.987 397.131 120.987 399.056"/>
        </g>
        <g id="arrow_event_critycal">
            <animateTransform attributeName="transform" attributeType="XML" type="translate" from="0 0" to="0 75" dur="1.5s" repeatCount="indefinite" />
            <path class="cls-17" d="M113.571,89.919V101.78l29.419.008L93.214,151.546,43.441,101.788l29.153-.008V89.919Zm0-10.65V60.614H72.594V79.269Zm0-29.3V38.638H72.594V49.967Zm0-21.978V21.546H72.594v6.443Z"/>
        </g>
    </g>
</svg>