<svg xmlns="http://www.w3.org/2000/svg"
    xmlns:xlink="http://www.w3.org/1999/xlink" viewBox="0 0 438.502 600">
    <defs>
        <style>.cls-1{isolation:isolate;}.cls-2{fill:#40363f;}.cls-3{fill:#1d191d;}.cls-4{fill:#f49622;}.cls-5{fill:#fab83d;}.cls-6,.cls-9{fill:#010101;}.cls-6{mix-blend-mode:overlay;opacity:0.3;}.cls-7{fill:#d8dde0;}.cls-8{fill:#4d4f50;}.cls-10{fill:url(#Degradado_sin_nombre_211);}</style>
        <linearGradient id="Degradado_sin_nombre_211" x1="219.251" y1="151.546" x2="219.251" y2="21.546" gradientUnits="userSpaceOnUse">
            <stop offset="0" stop-color="#c57115"/>
            <stop offset="0.997" stop-color="#f1881c"/>
        </linearGradient>
    </defs>
    <g class="cls-1">
        <g id="Capa_1" data-name="Capa 1">
            <path class="cls-2" d="M248.758,329.06c41.447-23.931,108.643-23.931,150.09,0,20.722,11.964,31.083,27.647,31.084,43.33s-10.362,31.365-31.084,43.33c-41.447,23.931-108.643,23.931-150.09,0S207.313,352.99,248.758,329.06Z"/>
            <path class="cls-3" d="M429.932,372.39c0,12.011-10.362,24.023-31.084,33.187-41.447,18.329-108.643,18.329-150.09,0-20.688-9.149-31.049-21.136-31.083-33.127,0,3.034,0,94.744,0,106.557,0,12.011,10.361,24.023,31.084,33.187,41.447,18.329,108.643,18.329,150.09,0,20.722-9.164,31.084-21.176,31.084-33.187Z"/>
            <path class="cls-4" d="M248.758,329.06l-.007-27.512c-26.819,15.489-36.279,37.2-28.382,57.084C224.674,347.794,234.137,337.5,248.758,329.06Z"/>
            <path class="cls-5" d="M52.62,500.8h0c68.134,39.341,178.6,39.341,246.737,0l130.825-75.538c4.528-2.615,6.795-6.041,6.8-9.467s-2.261-6.874-6.8-9.5l-31.335-18.093c-41.446,23.931-108.642,23.931-150.089,0s-41.445-62.73,0-86.661L216.287,282.8c-9.069-5.237-23.773-5.237-32.842,0L52.62,358.333C-15.515,397.674-15.515,461.458,52.62,500.8Z"/>
            <path class="cls-4" d="M430.182,421.831,299.357,470c-68.135,25.087-178.6,25.087-246.737,0h0c-34.068-12.544-51.1-28.984-51.1-45.424,0,0,0,89.873,0,106.313s17.034,32.88,51.1,45.423h0c38.83,14.3,91.411,20.446,142.068,18.447,6.235-.246,11.672-2.779,13.9-6.5,13.9-23.274,24.627-31.282,38.968-33.913,10.8-1.981,24.8,5.895,36.419,19.283,3,3.463,9.907,4.7,15.284,2.722l.1-.037,130.825-48.17c4.535-1.669,6.8-3.857,6.8-6.046v-106.3C436.977,417.979,434.71,420.163,430.182,421.831Z"/>
            <path class="cls-6" d="M3.152,443.357c5,21.013,21.49,41.288,49.468,57.442h0c28.492,16.452,64.387,26.024,101.493,28.716l244.734-141.31c-41.446,23.931-108.642,23.931-150.089,0s-41.445-62.725-.007-86.657Z"/>
            <path class="cls-6" d="M52.62,581.9c25.844,9.7,57.779,15.719,91.184,18.061,5.512.386,10.309-2.448,10.309-6.051V499.358h0c-37.106-1.75-73-7.971-101.493-18.665h0c-27.978-10.5-44.467-23.678-49.468-37.336h0v93.9c0,7.907,3.512,15.674,10.332,22.222C21.992,567.648,35.037,575.3,52.62,581.9Z"/>
            <path class="cls-7" d="M248.758,388.205a112.639,112.639,0,0,0,12.564,6.214l21.556-12.472a7.328,7.328,0,0,0,3.195-5.7V361.52a12.658,12.658,0,0,0-18.987-10.962l-38.033,21.958A77.38,77.38,0,0,0,248.758,388.205Z"/>
            <path class="cls-5" d="M286.073,361.52a12.658,12.658,0,0,0-18.987-10.962l-38.033,21.958a73.452,73.452,0,0,0,15.383,13.043l41.637-24.039Z"/>
            <path class="cls-4" d="M244.436,385.559q2.081,1.35,4.322,2.646a112.639,112.639,0,0,0,12.564,6.214l21.556-12.472a7.328,7.328,0,0,0,3.195-5.7V361.52Z"/>
            <path class="cls-8" d="M138.417,543.69a407.241,407.241,0,0,1-42.688-5.9c-1.579-.308-2.65-1.245-2.65-2.3V532.3c0-1.013,1.533-1.745,3.053-1.45a407.373,407.373,0,0,0,41.767,5.774c1.866.163,3.25,1.187,3.25,2.388v3.147C141.149,543.093,139.863,543.816,138.417,543.69Z"/>
            <path class="cls-8" d="M5.663,495.326c3.385,5.059,8.417,10,15.1,14.7.672.474,1.911.169,1.911-.47v-3.1a4.628,4.628,0,0,0-2.219-3.662A58.274,58.274,0,0,1,5.879,488.626c-.289-.423-1.278-.288-1.278.173v3.137A6.051,6.051,0,0,0,5.663,495.326Z"/>
            <path class="cls-8" d="M35.612,516.987a3.385,3.385,0,0,0,2.242,2.85q6.9,3.276,15.065,6.291c5.584,2.056,11.445,3.948,17.539,5.675,1.176.334,2.5-.21,2.5-1.031v-3.2c0-1.258-1.156-2.4-2.956-2.915-5.931-1.693-11.64-3.542-17.085-5.547q-7.956-2.928-14.7-6.12c-1.079-.509-2.6-.021-2.6.835Z"/>
            <path class="cls-8" d="M138.417,561.236a406.974,406.974,0,0,1-42.688-5.9c-1.579-.308-2.65-1.244-2.65-2.3v-3.192c0-1.014,1.533-1.745,3.053-1.451a407.093,407.093,0,0,0,41.767,5.775c1.866.163,3.25,1.187,3.25,2.388v3.146C141.149,560.638,139.863,561.361,138.417,561.236Z"/>
            <path class="cls-8" d="M5.663,512.872c3.385,5.059,8.417,10,15.1,14.705.672.473,1.911.169,1.911-.47V524a4.627,4.627,0,0,0-2.219-3.662A58.291,58.291,0,0,1,5.879,506.172c-.289-.423-1.278-.288-1.278.173v3.137A6.051,6.051,0,0,0,5.663,512.872Z"/>
            <path class="cls-8" d="M35.612,534.533a3.385,3.385,0,0,0,2.242,2.85q6.9,3.274,15.065,6.291c5.584,2.056,11.445,3.948,17.539,5.676,1.176.333,2.5-.211,2.5-1.032v-3.2c0-1.257-1.156-2.4-2.956-2.914-5.931-1.693-11.64-3.542-17.085-5.547q-7.956-2.929-14.7-6.12c-1.079-.509-2.6-.021-2.6.834Z"/>
            <path class="cls-8" d="M138.417,578.782a407.238,407.238,0,0,1-42.688-5.9c-1.579-.308-2.65-1.244-2.65-2.3V567.4c0-1.013,1.533-1.745,3.053-1.45a407.1,407.1,0,0,0,41.767,5.773c1.866.164,3.25,1.188,3.25,2.389v3.146C141.149,578.184,139.863,578.907,138.417,578.782Z"/>
            <path class="cls-8" d="M5.663,530.418c3.385,5.059,8.417,10,15.1,14.705.672.473,1.911.169,1.911-.47v-3.1a4.627,4.627,0,0,0-2.219-3.662A58.291,58.291,0,0,1,5.879,523.718c-.289-.423-1.278-.288-1.278.173v3.137A6.053,6.053,0,0,0,5.663,530.418Z"/>
            <path class="cls-8" d="M35.612,552.079a3.382,3.382,0,0,0,2.242,2.849q6.9,3.276,15.065,6.292c5.584,2.056,11.445,3.947,17.539,5.675,1.176.334,2.5-.21,2.5-1.031v-3.2c0-1.258-1.156-2.4-2.956-2.914-5.931-1.693-11.64-3.542-17.085-5.547q-7.956-2.929-14.7-6.12c-1.079-.51-2.6-.021-2.6.834Z"/>
            <path class="cls-9" d="M141.149,539.015c0-1.2-1.384-2.225-3.25-2.388a407.373,407.373,0,0,1-41.767-5.774,3.588,3.588,0,0,0-.455-.059,1.074,1.074,0,0,0-.214.632v3.192c0,1.053,1.07,1.989,2.648,2.3a406.956,406.956,0,0,0,42.689,5.9l.118.008a1.1,1.1,0,0,0,.231-.659Z"/>
            <path class="cls-9" d="M22.671,506.457a4.628,4.628,0,0,0-2.219-3.662A60.8,60.8,0,0,1,6.983,490.163v.9a6.043,6.043,0,0,0,1.064,3.39c3.3,4.939,8.179,9.765,14.624,14.37Z"/>
            <path class="cls-9" d="M70,524.656c-5.931-1.693-11.64-3.542-17.085-5.547q-7.956-2.928-14.7-6.12A2.158,2.158,0,0,0,38,512.9v3.209a3.382,3.382,0,0,0,2.242,2.849q6.9,3.276,15.065,6.291c5.584,2.057,11.445,3.948,17.539,5.676l.1.026a.762.762,0,0,0,.021-.179v-3.2C72.96,526.313,71.8,525.17,70,524.656Z"/>
            <path class="cls-9" d="M141.149,556.561c0-1.2-1.384-2.225-3.25-2.388A407.093,407.093,0,0,1,96.132,548.4a3.775,3.775,0,0,0-.455-.058,1.074,1.074,0,0,0-.214.632v3.192c0,1.052,1.07,1.989,2.648,2.3a407.221,407.221,0,0,0,42.689,5.9l.118.008a1.1,1.1,0,0,0,.231-.66Z"/>
            <path class="cls-9" d="M22.671,524a4.627,4.627,0,0,0-2.219-3.662A60.781,60.781,0,0,1,6.983,507.709v.9A6.043,6.043,0,0,0,8.047,512c3.3,4.939,8.179,9.765,14.624,14.37Z"/>
            <path class="cls-9" d="M70,542.2c-5.931-1.693-11.64-3.542-17.085-5.547q-7.956-2.929-14.7-6.12a1.947,1.947,0,0,0-.218-.088v3.209a3.382,3.382,0,0,0,2.242,2.849q6.9,3.276,15.065,6.292c5.584,2.055,11.445,3.947,17.539,5.675l.1.026a.764.764,0,0,0,.021-.18v-3.2C72.96,543.859,71.8,542.716,70,542.2Z"/>
            <path class="cls-9" d="M141.149,574.107c0-1.2-1.384-2.225-3.25-2.389a407.1,407.1,0,0,1-41.767-5.773,3.588,3.588,0,0,0-.455-.059,1.074,1.074,0,0,0-.214.631v3.192c0,1.053,1.07,1.99,2.648,2.3a407.486,407.486,0,0,0,42.689,5.9l.118.008a1.1,1.1,0,0,0,.231-.66Z"/>
            <path class="cls-9" d="M22.671,541.549a4.627,4.627,0,0,0-2.219-3.662A60.8,60.8,0,0,1,6.983,525.255v.895a6.043,6.043,0,0,0,1.064,3.391c3.3,4.939,8.179,9.764,14.624,14.37Z"/>
            <path class="cls-9" d="M70,559.748c-5.931-1.693-11.64-3.542-17.085-5.547q-7.956-2.929-14.7-6.12a1.947,1.947,0,0,0-.218-.088V551.2a3.384,3.384,0,0,0,2.242,2.849q6.9,3.276,15.065,6.291c5.584,2.056,11.445,3.948,17.539,5.676l.1.025a.762.762,0,0,0,.021-.179v-3.2C72.96,561.4,71.8,560.261,70,559.748Z"/>
        </g>
        <g id="arrow_event_critycal">
            <animateTransform attributeName="transform" attributeType="XML" type="translate" from="0 0" to="0 75" dur="1.5s" repeatCount="indefinite" />
            <path class="cls-10" d="M239.607,89.919V101.78l29.418.008-49.776,49.758-49.772-49.758,29.153-.008V89.919Zm0-10.65V60.614H198.63V79.269Zm0-29.3V38.638H198.63V49.967Zm0-21.978V21.546H198.63v6.443Z"/>
        </g>
    </g>
</svg>