<svg xmlns="http://www.w3.org/2000/svg" xmlns:xlink="http://www.w3.org/1999/xlink" viewBox="0 0 179.171 600"><defs><style>.cls-1,.cls-6{fill:#010101;}.cls-1{opacity:0.3;}.cls-2{fill:#0a0b0b;}.cls-3{fill:#585858;}.cls-4{fill:#363636;}.cls-5{fill:#a49d96;}.cls-7{fill:#e6e1dd;}.cls-8{fill:#b5afa7;}.cls-9{fill:#82cddf;}.cls-10{fill:#d7d1c7;}.cls-11{fill:#584a44;}.cls-12{fill:#090909;}.cls-13{fill:#362d2a;}.cls-14{fill:#c94130;}.cls-15{fill:url(#Degradado_sin_nombre_211);}</style><linearGradient id="Degradado_sin_nombre_211" x1="89.586" y1="151.546" x2="89.586" y2="21.546" gradientUnits="userSpaceOnUse"><stop offset="0" stop-color="#c57115"/><stop offset="0.997" stop-color="#f1881c"/></linearGradient></defs><g id="Capa_1" data-name="Capa 1"><polygon class="cls-1" points="121.307 600 0.366 530.173 57.864 496.963 178.805 566.786 121.307 600"/><polygon class="cls-2" points="78.589 507.614 21.091 540.826 19.145 510.799 20.177 297.592 21.091 293.924 78.589 260.711 78.589 507.614"/><polygon class="cls-3" points="78.589 260.711 21.091 293.924 16.859 293.265 4.199 286.203 0.366 281.958 57.864 248.743 78.589 260.711"/><path class="cls-4" d="M.366,281.956V528.862l20.725,11.964v-246.9Z"/><polygon class="cls-2" points="178.805 565.473 121.307 598.687 119.357 568.656 120.394 355.45 121.307 351.783 178.805 318.568 178.805 565.473"/><polygon class="cls-3" points="178.805 318.568 121.307 351.783 117.071 351.124 25.915 298.739 22.079 294.494 79.58 261.281 178.805 318.568"/><path class="cls-4" d="M22.079,294.494V541.4l99.228,57.291v-246.9Z"/><polygon class="cls-2" points="114.219 578.82 114.219 579.916 29.167 530.808 29.167 453.429 30.11 453.973 114.219 578.82"/><path class="cls-5" d="M30.11,453.973v76.289l84.109,48.558V502.532Z"/><polygon class="cls-4" points="112.206 506.232 112.206 506.509 111.603 506.852 32.785 461.346 32.16 460.304 32.16 459.287 32.785 458.973 32.992 459.091 112.206 506.232"/><polygon class="cls-6" points="112.206 505.526 112.206 506.232 33.617 460.869 32.992 459.82 32.992 459.091 111.603 504.462 112.206 505.526"/><polygon class="cls-4" points="112.206 513.426 112.206 513.702 111.603 514.044 32.785 468.538 32.16 467.496 32.16 466.477 32.785 466.164 32.992 466.283 112.206 513.426"/><polygon class="cls-6" points="112.206 512.717 112.206 513.426 33.617 468.058 32.992 467.013 32.992 466.283 111.603 511.652 112.206 512.717"/><polygon class="cls-4" points="112.206 520.617 112.206 520.895 111.603 521.235 32.785 475.727 32.16 474.686 32.16 473.667 32.785 473.356 32.992 473.475 112.206 520.617"/><polygon class="cls-6" points="112.206 519.907 112.206 520.617 33.617 475.251 32.992 474.205 32.992 473.475 111.603 518.846 112.206 519.907"/><polygon class="cls-4" points="112.206 527.81 112.206 528.085 111.603 528.427 32.785 482.92 32.16 481.878 32.16 480.861 32.785 480.548 32.992 480.666 112.206 527.81"/><polygon class="cls-6" points="112.206 527.099 112.206 527.81 33.617 482.444 32.992 481.397 32.992 480.666 111.603 526.035 112.206 527.099"/><polygon class="cls-4" points="112.206 534.999 112.206 535.277 111.603 535.621 32.785 490.113 32.16 489.07 32.16 488.053 32.785 487.738 32.992 487.857 112.206 534.999"/><polygon class="cls-6" points="112.206 534.293 112.206 534.999 33.617 489.634 32.992 488.589 32.992 487.857 111.603 533.228 112.206 534.293"/><polygon class="cls-4" points="112.206 542.193 112.206 542.471 111.603 542.811 32.785 497.303 32.16 496.262 32.16 495.244 32.785 494.932 32.992 495.05 112.206 542.193"/><polygon class="cls-6" points="112.206 541.485 112.206 542.193 33.617 496.828 32.992 495.781 32.992 495.05 111.603 540.421 112.206 541.485"/><polygon class="cls-4" points="112.206 549.383 112.206 549.661 111.603 550.001 32.785 504.497 32.16 503.456 32.16 502.436 32.785 502.124 32.992 502.242 112.206 549.383"/><polygon class="cls-6" points="112.206 548.677 112.206 549.383 33.617 504.02 32.992 502.971 32.992 502.242 111.603 547.613 112.206 548.677"/><polygon class="cls-4" points="112.206 556.577 112.206 556.853 111.603 557.195 32.785 511.689 32.16 510.647 32.16 509.63 32.785 509.315 32.992 509.434 112.206 556.577"/><polygon class="cls-6" points="112.206 555.868 112.206 556.577 33.617 511.21 32.992 510.165 32.992 509.434 111.603 554.803 112.206 555.868"/><polygon class="cls-4" points="112.206 563.769 112.206 564.044 111.603 564.387 32.785 518.879 32.16 517.836 32.16 516.818 32.785 516.508 32.992 516.626 112.206 563.769"/><polygon class="cls-6" points="112.206 563.059 112.206 563.769 33.617 518.402 32.992 517.356 32.992 516.626 111.603 561.995 112.206 563.059"/><polygon class="cls-4" points="112.206 570.961 112.206 571.238 111.603 571.579 32.785 526.073 32.16 525.027 32.16 524.012 32.785 523.701 32.992 523.82 112.206 570.961"/><polygon class="cls-6" points="112.206 570.25 112.206 570.961 33.617 525.593 32.992 524.547 32.992 523.82 111.603 569.187 112.206 570.25"/><path class="cls-7" d="M83.65,451.81l-.466.267L94.46,464.908l.47-6.59Z"/><path class="cls-5" d="M91.067,459.551l3.393,5.357.47-.266v-6.324l-.47.268Z"/><path class="cls-8" d="M83.184,452.077v6.32l11.276,6.511v-6.322Z"/><polygon class="cls-7" points="93.709 462.446 93.709 463.595 83.628 457.774 83.628 453.162 84.619 453.73 87.401 456.884 93.709 462.446"/><polygon class="cls-9" points="93.709 458.984 93.709 462.446 84.619 457.202 84.619 453.73 93.709 458.984"/><path class="cls-7" d="M70.85,393.692l-2,1.153,35.826,39.472,2-19.94Z"/><path class="cls-5" d="M100.653,423.742l4.025,10.575,2-1.152V414.377l-2,1.156Z"/><path class="cls-10" d="M68.852,394.845v18.786l35.826,20.686V415.533Z"/><path class="cls-7" d="M70.85,374.274l-2,1.152L104.678,414.9l2-19.938Z"/><path class="cls-5" d="M100.653,404.325l4.025,10.573,2-1.152V394.96l-2,1.154Z"/><path class="cls-10" d="M68.852,375.426v18.786L104.678,414.9V396.114Z"/><path class="cls-11" d="M74.671,381.286l-1,.572L97.808,409.33l1.01-14.108Z"/><path class="cls-12" d="M90.546,397.862l7.262,11.468,1.01-.571V395.222l-1.01.572Z"/><path class="cls-13" d="M73.672,381.858v13.536L97.808,409.33V395.794Z"/><polygon class="cls-2" points="96.206 404.062 96.206 406.519 74.627 394.053 74.627 384.185 76.743 385.404 82.699 392.15 96.206 404.062"/><polygon class="cls-9" points="96.206 396.646 96.206 404.062 76.743 392.831 76.743 385.404 96.206 396.646"/><path class="cls-7" d="M70.85,354.855l-2,1.154,35.826,39.47,2-19.938Z"/><path class="cls-5" d="M100.653,384.906l4.025,10.573,2-1.152V375.541l-2,1.154Z"/><path class="cls-10" d="M68.852,356.009V374.8l35.826,20.684V376.7Z"/><path class="cls-7" d="M70.85,328.246l-2,1.155,35.826,46.663,2-27.13Z"/><path class="cls-5" d="M100.653,365.487l4.025,10.577,2-1.154V348.934l-2,1.152Z"/><path class="cls-10" d="M68.852,329.4v25.976l35.826,20.687V350.086Z"/><polygon class="cls-14" points="81.878 345.767 88.104 349.361 88.104 345.852 81.878 342.256 81.878 345.767"/><polygon class="cls-14" points="88.944 346.337 88.944 349.846 91.652 351.411 91.652 347.902 88.944 346.337"/></g><g id="arrow_event_critycal"><path class="cls-15" d="M109.942,89.919V101.78l29.418.008L89.584,151.546,39.811,101.788l29.153-.008V89.919Zm0-10.65V60.614H68.964V79.269Zm0-29.3V38.638H68.964V49.967Zm0-21.978V21.546H68.964v6.443Z"/></g></svg>