<svg xmlns="http://www.w3.org/2000/svg"
    xmlns:xlink="http://www.w3.org/1999/xlink" viewBox="0 0 202.507 600">
    <defs>
        <style>.cls-1{isolation:isolate;}.cls-2{fill:#623942;}.cls-3{fill:#81505a;}.cls-4{fill:#71454e;}.cls-5{fill:#bbceec;}.cls-6{fill:#ebf1fb;}.cls-7{fill:#ccdaf1;}.cls-8{fill:#2b3235;}.cls-9{fill:#505860;}.cls-10{fill:#fff;}.cls-11{fill:#fbbb26;}.cls-12{fill:#b0b8cf;}.cls-13{fill:#9ea9c8;}.cls-14{fill:#e3e7f0;}.cls-15{fill:#c9cee2;}.cls-16{fill:#ea526f;}.cls-17{fill:#f7ce6d;}.cls-18{fill:#68acdf;}.cls-19{fill:#6089c7;}.cls-20{fill:#87bf54;}.cls-21{fill:#67b765;}.cls-22{opacity:0.3;}.cls-23{fill:#4c71b6;}.cls-24{fill:#dbe5f6;}.cls-25{fill:url(#Degradado_sin_nombre_211);}</style>
        <linearGradient id="Degradado_sin_nombre_211" x1="101.254" y1="151.546" x2="101.254" y2="21.546" gradientUnits="userSpaceOnUse">
            <stop offset="0" stop-color="#c57115"/>
            <stop offset="0.997" stop-color="#f1881c"/>
        </linearGradient>
    </defs>
    <g id="Capa_1" data-name="Capa 1">
        <g id="_76" data-name="76">
            <g class="cls-1">
                <polygon class="cls-2" points="67.928 600 0.944 561.073 0.944 553.027 67.928 591.954 67.928 600"/>
                <polygon class="cls-3" points="67.928 591.954 0.944 553.027 123.982 481.994 201.564 514.799 67.928 591.954"/>
                <polygon class="cls-4" points="201.564 514.799 201.564 522.845 67.928 600 67.928 591.954 201.564 514.799"/>
            </g>
            <g class="cls-1">
                <polygon class="cls-5" points="67.395 587.54 8.731 553.449 8.176 315.518 66.84 349.609 67.395 587.54"/>
                <polygon class="cls-6" points="66.84 349.609 8.176 315.518 133.357 243.245 192.021 277.336 66.84 349.609"/>
                <polygon class="cls-7" points="192.589 515.269 67.364 587.549 66.845 349.622 192.005 277.342 192.589 515.269"/>
            </g>
            <g class="cls-1">
                <path class="cls-8" d="M188.06,462.9,188,484.933a1.994,1.994,0,0,1-1.17,1.627,6.284,6.284,0,0,1-5.705-.017,1.97,1.97,0,0,1-1.156-1.631l.063-22.032a1.966,1.966,0,0,0,1.156,1.631,6.281,6.281,0,0,0,5.7.016A1.988,1.988,0,0,0,188.06,462.9Z"/>
                <path class="cls-9" d="M186.843,461.223c1.611.93,1.619,2.391.048,3.3a6.281,6.281,0,0,1-5.7-.016c-1.553-.9-1.533-2.375.01-3.272A6.212,6.212,0,0,1,186.843,461.223Z"/>
            </g>
            <g class="cls-1">
                <path class="cls-8" d="M188.06,397.656,188,419.688a1.994,1.994,0,0,1-1.17,1.627,6.284,6.284,0,0,1-5.705-.017,1.97,1.97,0,0,1-1.156-1.631l.063-22.032a1.966,1.966,0,0,0,1.156,1.631,6.281,6.281,0,0,0,5.7.016A1.988,1.988,0,0,0,188.06,397.656Z"/>
                <path class="cls-9" d="M186.843,395.978c1.611.93,1.619,2.391.048,3.3a6.281,6.281,0,0,1-5.7-.016c-1.553-.9-1.533-2.375.01-3.272A6.212,6.212,0,0,1,186.843,395.978Z"/>
            </g>
            <g class="cls-1">
                <path class="cls-8" d="M188.06,332.411,188,354.443a1.994,1.994,0,0,1-1.17,1.627,6.284,6.284,0,0,1-5.705-.017,1.97,1.97,0,0,1-1.156-1.631l.063-22.032a1.966,1.966,0,0,0,1.156,1.631,6.281,6.281,0,0,0,5.7.016A1.988,1.988,0,0,0,188.06,332.411Z"/>
                <path class="cls-9" d="M186.843,330.733c1.611.93,1.619,2.391.048,3.3a6.281,6.281,0,0,1-5.7-.016c-1.553-.9-1.533-2.375.01-3.272A6.212,6.212,0,0,1,186.843,330.733Z"/>
            </g>
            <g class="cls-1">
                <polygon class="cls-5" points="132.718 522.159 129.659 520.381 129.212 341.37 132.271 343.148 132.718 522.159"/>
                <polygon class="cls-10" points="132.271 343.148 129.212 341.37 179.209 312.502 182.269 314.28 132.271 343.148"/>
                <polygon class="cls-6" points="182.726 493.292 132.693 522.166 132.275 343.158 182.256 314.284 182.726 493.292"/>
            </g>
            <g class="cls-1">
                <polygon class="cls-5" points="80.407 552.381 77.348 550.603 76.901 371.593 79.96 373.37 80.407 552.381"/>
                <polygon class="cls-10" points="79.96 373.37 76.901 371.593 126.878 342.736 129.938 344.514 79.96 373.37"/>
                <polygon class="cls-6" points="130.395 523.526 80.382 552.388 79.964 373.38 129.925 344.518 130.395 523.526"/>
            </g>
            <g class="cls-1">
                <path class="cls-8" d="M79.467,525.637,79.4,547.669a1.989,1.989,0,0,1-1.169,1.627,6.281,6.281,0,0,1-5.7-.017,1.965,1.965,0,0,1-1.156-1.63l.062-22.033a1.968,1.968,0,0,0,1.156,1.631,6.284,6.284,0,0,0,5.7.017A1.994,1.994,0,0,0,79.467,525.637Z"/>
                <path class="cls-9" d="M78.25,523.959c1.61.93,1.619,2.391.047,3.305a6.284,6.284,0,0,1-5.7-.017c-1.553-.9-1.533-2.374.01-3.271A6.217,6.217,0,0,1,78.25,523.959Z"/>
            </g>
            <g class="cls-1">
                <path class="cls-8" d="M79.467,460.392,79.4,482.424a1.989,1.989,0,0,1-1.169,1.627,6.281,6.281,0,0,1-5.7-.017,1.965,1.965,0,0,1-1.156-1.63l.062-22.033A1.968,1.968,0,0,0,72.592,462a6.284,6.284,0,0,0,5.7.017A1.994,1.994,0,0,0,79.467,460.392Z"/>
                <path class="cls-9" d="M78.25,458.714c1.61.93,1.619,2.391.047,3.305a6.284,6.284,0,0,1-5.7-.017c-1.553-.9-1.533-2.374.01-3.271A6.217,6.217,0,0,1,78.25,458.714Z"/>
            </g>
            <g class="cls-1">
                <path class="cls-8" d="M79.467,395.147,79.4,417.18a1.989,1.989,0,0,1-1.169,1.626,6.281,6.281,0,0,1-5.7-.017,1.965,1.965,0,0,1-1.156-1.63l.062-22.033a1.968,1.968,0,0,0,1.156,1.631,6.284,6.284,0,0,0,5.7.017A1.994,1.994,0,0,0,79.467,395.147Z"/>
                <path class="cls-9" d="M78.25,393.469c1.61.93,1.619,2.392.047,3.305a6.284,6.284,0,0,1-5.7-.017c-1.553-.9-1.533-2.374.01-3.271A6.217,6.217,0,0,1,78.25,393.469Z"/>
            </g>
            <path class="cls-5" d="M118.94,449.259c1.853-1.069,3.438-.229,3.444,1.962a7.7,7.7,0,0,1-3.421,5.926c-1.907,1.1-3.438.166-3.444-1.962A7.5,7.5,0,0,1,118.94,449.259Z"/>
            <path class="cls-5" d="M142.967,435.387c1.853-1.069,3.437-.229,3.444,1.962a7.7,7.7,0,0,1-3.421,5.926c-1.907,1.1-3.438.166-3.444-1.962A7.5,7.5,0,0,1,142.967,435.387Z"/>
            <path class="cls-8" d="M139.014,396.16l15.669-39.713c1.367-3.47,5.058-5.154,6.829-2.742l15.837,21.521c1.643,2.222-.07,6.2-2.532,7.626L143.31,401.043C140.339,402.76,137.438,400.162,139.014,396.16Z"/>
            <path class="cls-11" d="M160.268,354.618l15.838,21.522c.958,1.3-.195,4.3-2.061,5.376l-31.506,18.19c-1.866,1.077-3.033-.584-2.088-2.98l15.668-39.713C156.924,354.969,159.217,353.187,160.268,354.618Z"/>
            <polygon class="cls-8" points="162.03 367.119 157.273 376.873 161.533 374.414 154.799 387.041 157.891 378.046 154.535 379.984 156.941 370.057 162.03 367.119"/>
            <path class="cls-8" d="M115.5,402.351l-.108-30.365.666-.384c2.937-1.7,5.336-.329,5.346,3.05l.11,31.171a11.725,11.725,0,0,1-5.311,9.2L96.042,426.582c-2.941,1.7-5.34.331-5.349-3.045l0-.809,19.494-11.177A11.725,11.725,0,0,0,115.5,402.351Z"/>
            <g class="cls-1">
                <path class="cls-12" d="M116.155,405.345,105.7,399.27a1.061,1.061,0,0,0,.482-.832l10.454,6.075A1.061,1.061,0,0,1,116.155,405.345Z"/>
                <path class="cls-13" d="M88.582,409.161l.015,5.4v2.1l3.478,2.024v.015l.485.271,23.6-13.631-.756-.442-3.123-1.81-.37-.214-4.834-2.809-.356-.214-1.012-.584-12.989,7.5-.67.385Z"/>
                <path class="cls-13" d="M88.6,416.661v.228c.372.219,3.993,2.329,3.621,2.11.109.081.228.01.342-.028l-.485-.271v-.015Z"/>
                <path class="cls-14" d="M92.075,416.575l-3.478-2.01v.456l3.478,2.025.956.556a.564.564,0,0,1-.243-.342.94.94,0,0,1-.043-.285Z"/>
                <path class="cls-13" d="M106.105,376.264c0,.395.058,14.111.057,13.693,0,.371.03,9.035.029,8.483l1.482.855,3.551,2.068,1.539.9.371.214,2.737,1.6.77.442-.114-29.732-.47-.271h-.015l-3.436-2.01-1.425.827-.414.228Z"/>
                <path class="cls-13" d="M112.606,372.5l3.436,2.01h.015l.47.271a.407.407,0,0,0-.043-.2.162.162,0,0,0-.085-.086c-.014-.014-.014-.028-.029-.028l-3.564-2.082Z"/>
                <path class="cls-14" d="M111.181,373.327l-.414.228,3.45,2.01.67.385a.923.923,0,0,1,.443-.128.447.447,0,0,1,.2.043l-.9-.542Z"/>
                <path class="cls-14" d="M88.5,390.564l.085,18.6.015,5.4,3.478,2.01.67.4-.028-10.209-.071-16.857-.67-.385-2.852-1.654A6.687,6.687,0,0,0,88.5,390.564Z"/>
                <path class="cls-14" d="M90.108,386.187l2.837,1.654.67.385,21.272-12.276-.67-.385-3.45-2.01-4.662,2.709L92.09,384.348A6.526,6.526,0,0,0,90.108,386.187Z"/>
                <path class="cls-14" d="M89.124,387.87l2.852,1.654.67.385a2.148,2.148,0,0,1,.969-1.683l-.67-.385-2.837-1.654A7.687,7.687,0,0,0,89.124,387.87Z"/>
                <path class="cls-15" d="M88.5,390.564l.085,18.6.015,5.4v2.324l.014,4.22c0,2.281,1.611,3.194,3.607,2.053l24.3-14.029a7.891,7.891,0,0,0,3.593-6.216l-.1-30.545c-.014-2.281-1.625-3.208-3.621-2.053l-3.579,2.067-.2.114-1.425.827-.414.228-4.662,2.709L92.09,384.348a6.526,6.526,0,0,0-1.982,1.839,7.687,7.687,0,0,0-.984,1.683A6.687,6.687,0,0,0,88.5,390.564Zm3.55,16.587-.071-17.627v-.557a1.089,1.089,0,0,1,.47-.841l.5-.285,21.272-12.276.414-.242,1.411-.813h.015a.325.325,0,0,1,.313-.042c.015,0,.015.014.029.028a.239.239,0,0,1,.085.086.407.407,0,0,1,.043.2l.114,29.732a1.037,1.037,0,0,1-.484.827l-23.6,13.631c-.114.038-.233.109-.342.028-.028,0-.043-.028-.071-.043a.49.49,0,0,1-.072-.256v-2.125Z"/>
                <path class="cls-15" d="M114.89,375.947c.536-.309.971-.059.973.554l.1,27.069a2.128,2.128,0,0,1-.966,1.673L93.716,417.529c-.534.308-.97.059-.972-.554l-.1-27.069a2.137,2.137,0,0,1,.966-1.674Z"/>
            </g>
            <polygon class="cls-8" points="95.079 406.57 103.182 401.892 103.182 408.331 95.097 412.998 95.079 406.57"/>
            <polygon class="cls-10" points="102.817 402.523 95.444 406.78 95.46 412.368 102.817 408.12 102.817 402.523"/>
            <path class="cls-16" d="M99.622,408.542c.276.3-.031,1.076-.488,1.338-.7.405-.827-.7-.119-1.275l1.218-3.1Z"/>
            <path class="cls-17" d="M101.068,405.144l-.681,1.1a.878.878,0,0,0-.281-.113l.126-.628-.24.611c-.864-.076-1.76.875-2.189,1.7l-.684-.317C97.873,406.068,99.72,404.27,101.068,405.144Z"/>
            <path class="cls-18" d="M101.068,405.144a1.894,1.894,0,0,1,.722,1.666l-.921.532a1.225,1.225,0,0,0-.482-1.094Z"/>
            <path class="cls-15" d="M97.119,407.5l.684.317a3.425,3.425,0,0,0-.41,1.528l-.922.532A5.273,5.273,0,0,1,97.119,407.5Z"/>
            <polygon class="cls-8" points="105.03 400.825 113.133 396.146 113.133 402.585 105.048 407.253 105.03 400.825"/>
            <polygon class="cls-10" points="112.768 396.777 105.395 401.035 105.411 406.623 112.768 402.375 112.768 396.777"/>
            <path class="cls-16" d="M109.573,402.8c.276.305-.031,1.076-.488,1.339-.7.405-.827-.7-.119-1.276l1.218-3.1Z"/>
            <path class="cls-17" d="M111.019,399.4l-.681,1.1a.834.834,0,0,0-.281-.113l.126-.628-.24.611c-.864-.076-1.76.875-2.189,1.7l-.684-.317C107.824,400.323,109.671,398.525,111.019,399.4Z"/>
            <path class="cls-18" d="M111.019,399.4a1.9,1.9,0,0,1,.722,1.667l-.921.532a1.225,1.225,0,0,0-.482-1.094Z"/>
            <path class="cls-15" d="M107.07,401.759l.684.317a3.425,3.425,0,0,0-.41,1.528l-.922.532A5.27,5.27,0,0,1,107.07,401.759Z"/>
            <path class="cls-8" d="M99.121,393.132c1.417-.818,2.572-.171,2.576,1.468a5.619,5.619,0,0,1-2.559,4.411c-1.408.813-2.562.166-2.567-1.452A5.623,5.623,0,0,1,99.121,393.132Z"/>
            <path class="cls-8" d="M109.6,387.08c1.408-.813,2.572-.171,2.576,1.468a5.637,5.637,0,0,1-2.559,4.412c-1.408.813-2.562.165-2.567-1.453A5.625,5.625,0,0,1,109.6,387.08Z"/>
            <g class="cls-1">
                <path class="cls-9" d="M98.105,392.541c-2.168,1.252-3.457,5.1-1.806,6.058l1.016.59a1.777,1.777,0,0,1-.744-1.63c-.007-2.563,2.733-5.565,4.379-4.608C100.213,392.666,99.626,391.663,98.105,392.541Z"/>
                <path class="cls-9" d="M110.415,386.312a1.813,1.813,0,0,0-1.828.178c-2.168,1.252-3.457,5.1-1.806,6.057l1.016.59c-1.691-.982-.334-4.822,1.806-6.057a1.815,1.815,0,0,1,1.828-.178Z"/>
            </g>
            <g class="cls-1">
                <path class="cls-19" d="M100.622,393.615c-1.386-.806-3.586,1.72-3.58,3.769a1.46,1.46,0,0,0,.612,1.338l1.154.671c-1.387-.806-.271-3.954,1.473-4.961a1.482,1.482,0,0,1,1.5-.146Z"/>
                <path class="cls-18" d="M100.281,394.432c1.161-.67,2.1-.132,2.109,1.2a4.617,4.617,0,0,1-2.095,3.617c-1.151.664-2.095.126-2.1-1.2A4.615,4.615,0,0,1,100.281,394.432Z"/>
            </g>
            <g class="cls-1">
                <path class="cls-20" d="M111.284,387.617a1.484,1.484,0,0,0-1.5.146,4.614,4.614,0,0,0-2.084,3.623,1.457,1.457,0,0,0,.611,1.338l1.155.671a1.46,1.46,0,0,1-.612-1.338c-.006-2.106,2.243-4.546,3.58-3.769Z"/>
                <path class="cls-21" d="M110.943,388.434c1.16-.67,2.105-.132,2.108,1.2a4.613,4.613,0,0,1-2.095,3.617c-1.15.664-2.094.126-2.1-1.2A4.612,4.612,0,0,1,110.943,388.434Z"/>
            </g>
            <g class="cls-1">
                <path class="cls-8" d="M94.446,425.655,114.463,414.1a11.725,11.725,0,0,0,5.311-9.2l-.11-31.171a3.733,3.733,0,0,0-1.557-3.418c.836.709,3.143.893,3.153,4.345l.11,31.172a11.726,11.726,0,0,1-5.311,9.2L96.042,426.582a3.758,3.758,0,0,1-3.793.369l-1.6-.927A3.758,3.758,0,0,0,94.446,425.655Z"/>
                <path class="cls-8" d="M94.3,380.39l20.017-11.557c1.925-1.111,3.672-1.213,4.934-.479l1.6.927c-1.262-.733-3.009-.632-4.934.48L95.891,381.317a15.257,15.257,0,0,0-6.913,11.976l.11,31.171c.006,2.182.779,3.718,2.025,4.442-.821-.724-3.608-1-3.621-5.369l-.11-31.172A15.257,15.257,0,0,1,94.3,380.39Z"/>
            </g>
            <path class="cls-9" d="M115.908,369.761c3.825-2.209,6.947-.43,6.959,3.965l.111,31.172a15.26,15.26,0,0,1-6.914,11.972L96.047,428.426c-3.825,2.209-6.947.43-6.959-3.962l-.11-31.171a15.257,15.257,0,0,1,6.913-11.976ZM90.693,423.537c.009,3.376,2.408,4.743,5.349,3.045l20.017-11.556a11.726,11.726,0,0,0,5.311-9.2l-.11-31.172c-.01-3.378-2.409-4.745-5.347-3.049L95.9,383.161a11.729,11.729,0,0,0-5.315,9.2l.111,31.171"/>
            <g class="cls-22">
                <path class="cls-23" d="M90.581,392.367l.112,31.17c.012,3.376,2.406,4.745,5.348,3.043l20.02-11.557a11.715,11.715,0,0,0,5.308-9.2l-.107-31.17c-.012-3.381-2.412-4.75-5.348-3.054L95.894,383.16A11.753,11.753,0,0,0,90.581,392.367Z"/>
            </g>
            <g class="cls-1">
                <path class="cls-9" d="M59.161,563.12,15.33,537.648A1.8,1.8,0,0,1,14.581,536a5.639,5.639,0,0,1,2.561-4.447l43.832,25.472a5.639,5.639,0,0,0-2.561,4.447A1.8,1.8,0,0,0,59.161,563.12Z"/>
                <path class="cls-8" d="M60.974,557.024l.016,5.916c-1.421.821-2.573.164-2.577-1.469A5.639,5.639,0,0,1,60.974,557.024Z"/>
            </g>
            <g class="cls-1">
                <path class="cls-9" d="M59.161,547.441,15.33,521.969a1.8,1.8,0,0,1-.749-1.649,5.642,5.642,0,0,1,2.561-4.448l43.832,25.473a5.639,5.639,0,0,0-2.561,4.447A1.8,1.8,0,0,0,59.161,547.441Z"/>
                <path class="cls-8" d="M60.974,541.345l.016,5.916c-1.421.82-2.573.164-2.577-1.469A5.639,5.639,0,0,1,60.974,541.345Z"/>
            </g>
            <g class="cls-1">
                <path class="cls-9" d="M59.161,531.762,15.33,506.29a1.8,1.8,0,0,1-.749-1.649,5.642,5.642,0,0,1,2.561-4.448l43.832,25.473a5.639,5.639,0,0,0-2.561,4.447A1.8,1.8,0,0,0,59.161,531.762Z"/>
                <path class="cls-8" d="M60.974,525.665l.016,5.917c-1.421.82-2.573.164-2.577-1.469A5.642,5.642,0,0,1,60.974,525.665Z"/>
            </g>
            <g class="cls-1">
                <path class="cls-9" d="M59.161,516.083,15.33,490.611a1.8,1.8,0,0,1-.749-1.65,5.64,5.64,0,0,1,2.561-4.447l43.832,25.472a5.642,5.642,0,0,0-2.561,4.448A1.8,1.8,0,0,0,59.161,516.083Z"/>
                <path class="cls-8" d="M60.974,509.986l.016,5.917c-1.421.82-2.573.164-2.577-1.469A5.642,5.642,0,0,1,60.974,509.986Z"/>
            </g>
            <g class="cls-1">
                <polygon class="cls-7" points="164.71 275.759 164.696 283.137 77.343 333.901 77.357 326.523 164.71 275.759"/>
                <polygon class="cls-5" points="77.357 326.523 77.343 333.901 40.029 312.358 40.043 304.98 77.357 326.523"/>
                <polygon class="cls-24" points="164.71 275.759 77.357 326.523 40.043 304.98 127.396 254.216 164.71 275.759"/>
            </g>
        </g>
    </g>
    <g id="arrow_event_critycal">
        <animateTransform attributeName="transform" attributeType="XML" type="translate" from="0 0" to="0 75" dur="1.5s" repeatCount="indefinite" />
        <path class="cls-25" d="M121.609,89.919V101.78l29.419.008-49.776,49.758L51.479,101.788l29.153-.008V89.919Zm0-10.65V60.614H80.632V79.269Zm0-29.3V38.638H80.632V49.967Zm0-21.978V21.546H80.632v6.443Z"/>
    </g>
</svg>
