<svg xmlns="http://www.w3.org/2000/svg"
    xmlns:xlink="http://www.w3.org/1999/xlink" viewBox="0 0 328.817 600">
    <defs>
        <style>.cls-1{isolation:isolate;}.cls-11,.cls-2,.cls-22{fill:#29548b;}.cls-3{fill:url(#Áåçûìÿííûé_ãðàäèåíò_163);}.cls-4{fill:#3c67b0;}.cls-5{fill:url(#Áåçûìÿííûé_ãðàäèåíò_163-2);}.cls-6{fill:#cec4b7;}.cls-7{fill:#dfd4ca;}.cls-16,.cls-8{fill:#f2e8df;}.cls-9{fill:#325e9d;}.cls-10{fill:url(#Áåçûìÿííûé_ãðàäèåíò_25);}.cls-11,.cls-16{opacity:0.6;}.cls-12,.cls-22{opacity:0.5;}.cls-13{fill:#1d416b;}.cls-14{fill:#919292;}.cls-15{fill:url(#Áåçûìÿííûé_ãðàäèåíò_179);}.cls-16,.cls-23{mix-blend-mode:screen;}.cls-17{fill:#2c5186;}.cls-18{fill:#ce4a4a;}.cls-19{fill:url(#Áåçûìÿííûé_ãðàäèåíò_25-2);}.cls-20{fill:url(#Áåçûìÿííûé_ãðàäèåíò_25-3);}.cls-21{fill:url(#Áåçûìÿííûé_ãðàäèåíò_19);}.cls-23{opacity:0.4;fill:url(#Áåçûìÿííûé_ãðàäèåíò_31);}.cls-24{fill:url(#Áåçûìÿííûé_ãðàäèåíò_153);}.cls-25{fill:url(#Áåçûìÿííûé_ãðàäèåíò_153-2);}.cls-26{fill:url(#Áåçûìÿííûé_ãðàäèåíò_163-3);}.cls-27{fill:url(#Áåçûìÿííûé_ãðàäèåíò_163-4);}.cls-28{fill:#363633;}.cls-29{fill:#d6a828;}.cls-30{fill:url(#Degradado_sin_nombre_211);}</style>
        <linearGradient id="Áåçûìÿííûé_ãðàäèåíò_163" x1="82.006" y1="474.745" x2="129.708" y2="474.745" gradientTransform="matrix(-0.5, 0.866, -0.866, -0.5, 640.242, 470.602)" gradientUnits="userSpaceOnUse">
            <stop offset="0" stop-color="#3b66af"/>
            <stop offset="0.857" stop-color="#285792"/>
            <stop offset="1" stop-color="#295894"/>
        </linearGradient>
        <linearGradient id="Áåçûìÿííûé_ãðàäèåíò_163-2" x1="83.784" y1="456.539" x2="127.831" y2="456.539" xlink:href="#Áåçûìÿííûé_ãðàäèåíò_163"/>
        <linearGradient id="Áåçûìÿííûé_ãðàäèåíò_25" x1="144.975" y1="313.093" x2="102.078" y2="387.393" gradientTransform="matrix(-1, 0, 0, 1, 368.223, 0)" gradientUnits="userSpaceOnUse">
            <stop offset="0" stop-color="#3c67b0"/>
            <stop offset="1" stop-color="#325e9d"/>
        </linearGradient>
        <linearGradient id="Áåçûìÿííûé_ãðàäèåíò_179" x1="204.343" y1="376.195" x2="186.629" y2="406.877" gradientTransform="matrix(-1, 0, 0, 1, 368.223, 0)" gradientUnits="userSpaceOnUse">
            <stop offset="0" stop-color="#f2e8df"/>
            <stop offset="0.632" stop-color="#d8cec2"/>
            <stop offset="1" stop-color="#cec4b7"/>
        </linearGradient>
        <linearGradient id="Áåçûìÿííûé_ãðàäèåíò_25-2" x1="257.261" y1="394.249" x2="224.62" y2="450.783" xlink:href="#Áåçûìÿííûé_ãðàäèåíò_25"/>
        <linearGradient id="Áåçûìÿííûé_ãðàäèåíò_25-3" x1="296.227" y1="411.235" x2="264.305" y2="466.525" xlink:href="#Áåçûìÿííûé_ãðàäèåíò_25"/>
        <radialGradient id="Áåçûìÿííûé_ãðàäèåíò_19" cx="312.12" cy="427.473" r="70.067" gradientTransform="matrix(-1, 0, 0, 1, 368.223, 0)" gradientUnits="userSpaceOnUse">
            <stop offset="0" stop-color="#3c67b0"/>
            <stop offset="0.719" stop-color="#325e9d"/>
            <stop offset="1" stop-color="#29548b"/>
        </radialGradient>
        <linearGradient id="Áåçûìÿííûé_ãðàäèåíò_31" x1="304.172" y1="420.709" x2="286.01" y2="441.929" gradientTransform="matrix(-1, 0, 0, 1, 368.223, 0)" gradientUnits="userSpaceOnUse">
            <stop offset="0" stop-color="#3c67b0"/>
            <stop offset="0.268" stop-color="#315590"/>
            <stop offset="0.854" stop-color="#14263e"/>
            <stop offset="1" stop-color="#0d1a29"/>
        </linearGradient>
        <linearGradient id="Áåçûìÿííûé_ãðàäèåíò_153" x1="110.134" y1="313.404" x2="154.18" y2="313.404" gradientTransform="matrix(-1, 0, 0, 1, 368.223, 0)" gradientUnits="userSpaceOnUse">
            <stop offset="0" stop-color="#29548b"/>
            <stop offset="1" stop-color="#325e9d"/>
        </linearGradient>
        <linearGradient id="Áåçûìÿííûé_ãðàäèåíò_153-2" x1="108.356" y1="299.222" x2="156.056" y2="299.222" xlink:href="#Áåçûìÿííûé_ãðàäèåíò_153"/>
        <linearGradient id="Áåçûìÿííûé_ãðàäèåíò_163-3" x1="83.783" y1="365.814" x2="127.83" y2="365.814" xlink:href="#Áåçûìÿííûé_ãðàäèåíò_163"/>
        <linearGradient id="Áåçûìÿííûé_ãðàäèåíò_163-4" x1="82.005" y1="351.632" x2="129.706" y2="351.632" xlink:href="#Áåçûìÿííûé_ãðàäèåíò_163"/>
        <linearGradient id="Degradado_sin_nombre_211" x1="164.409" y1="151.546" x2="164.409" y2="21.546" gradientUnits="userSpaceOnUse">
            <stop offset="0" stop-color="#c57115"/>
            <stop offset="0.997" stop-color="#f1881c"/>
        </linearGradient>
    </defs>
    <g class="cls-1">
        <g id="Capa_1" data-name="Capa 1">
            <g id="_5" data-name="5">
                <g id="Axonometric_Cylinder" data-name="Axonometric Cylinder">
                    <path id="Cylinder_face" data-name="Cylinder face" class="cls-2" d="M167.215,337.353c0-10.143,7.121-22.476,15.905-27.547s15.9-.96,15.9,9.182-7.12,22.476-15.9,27.548S167.215,347.5,167.215,337.353Z"/>
                    <path id="Cylinder_body" data-name="Cylinder body" class="cls-3" d="M171.977,347.709l-2.091-1.208c-2.939-1.635-4.763-5.224-4.763-10.356,0-10.142,7.121-22.475,15.905-27.547,4.339-2.5,8.272-2.769,11.141-1.173l2.093,1.208c-2.87-1.6-6.8-1.332-11.142,1.173-8.784,5.071-15.9,17.4-15.9,27.547C167.215,342.486,169.039,346.073,171.977,347.709Z"/>
                </g>
                <g id="Axonometric_Cylinder-2" data-name="Axonometric Cylinder">
                    <path id="Cylinder_face-2" data-name="Cylinder face" class="cls-4" d="M195.341,352.184c0-9.365,6.575-20.754,14.685-25.437s14.686-.886,14.686,8.479-6.575,20.754-14.686,25.437S195.341,361.55,195.341,352.184Z"/>
                    <path id="Cylinder_body-2" data-name="Cylinder body" class="cls-5" d="M199.738,361.746l-25.226-14.564c-2.714-1.51-4.4-4.823-4.4-9.562,0-9.366,6.575-20.754,14.686-25.436,4.007-2.314,7.638-2.558,10.288-1.084l25.226,14.564c-2.65-1.474-6.282-1.23-10.289,1.083-8.11,4.683-14.685,16.072-14.685,25.437C195.341,356.923,197.024,360.236,199.738,361.746Z"/>
                </g>
                <g id="Axonometric_Cube" data-name="Axonometric Cube">
                    <polygon id="Cube_face_-_left" data-name="Cube face - left" class="cls-6" points="90.195 600 327.971 462.72 327.971 423.865 90.195 561.145 90.195 600"/>
                    <polygon id="Cube_face_-_right" data-name="Cube face - right" class="cls-7" points="0.847 548.414 90.195 600 90.195 561.145 0.847 509.559 0.847 548.414"/>
                    <polygon id="Cube_face_-_top" data-name="Cube face - top" class="cls-8" points="90.195 561.145 327.971 423.865 238.622 372.28 0.847 509.559 90.195 561.145"/>
                </g>
                <g id="Axonometric_Cube-2" data-name="Axonometric Cube">
                    <polygon id="Cube_face_-_left-2" data-name="Cube face - left" class="cls-2" points="90.3 551.575 312.851 423.085 312.851 413.596 90.3 542.086 90.3 551.575"/>
                    <polygon id="Cube_face_-_right-2" data-name="Cube face - right" class="cls-9" points="17.527 509.559 90.3 551.575 90.3 542.086 17.527 500.07 17.527 509.559"/>
                    <polygon id="Cube_face_-_top-2" data-name="Cube face - top" class="cls-4" points="90.3 542.086 312.851 413.596 240.078 371.58 17.527 500.07 90.3 542.086"/>
                </g>
                <g class="cls-1">
                    <polygon class="cls-2" points="227.37 409.78 285.365 376.077 285.271 412.093 227.276 445.796 227.37 409.78"/>
                    <path class="cls-10" d="M241.5,302.556c5.524-3.21,13.172-2.759,21.614,2.115,16.786,9.691,30.359,33.2,30.3,52.488-.026,9.081-3.086,15.564-8.051,18.918l-57.995,33.7c4.965-3.354,8.025-9.837,8.051-18.918.055-19.287-13.519-42.8-30.3-52.488-8.442-4.874-16.09-5.325-21.614-2.115Z"/>
                    <path class="cls-11" d="M235.421,390.862l58-33.7c-.026,9.081-3.086,15.564-8.051,18.918l-57.995,33.7C232.335,406.426,235.4,399.943,235.421,390.862Z"/>
                    <path class="cls-9" d="M205.117,338.374c-16.785-9.691-30.431-1.9-30.485,17.392-.026,9.08,2.988,19.071,7.9,28.128l-.093,36.016L227.276,445.8l.094-36.016c4.965-3.354,8.025-9.837,8.051-18.918C235.475,371.575,221.9,348.065,205.117,338.374Z"/>
                </g>
                <g class="cls-12">
                    <path class="cls-13" d="M176.911,355.686a2.684,2.684,0,0,0,.581,2.846,2.865,2.865,0,0,0,.792.707c.55.318,1.09.3,1.391-.123.436-.617.188-1.887-.58-2.846a2.943,2.943,0,0,0-.789-.7C177.752,355.255,177.215,355.274,176.911,355.686Z"/>
                    <path class="cls-13" d="M184.826,380.682c-.855-.235-1.361.486-1.14,1.6a3.565,3.565,0,0,0,1.544,2.256,1.749,1.749,0,0,0,.41.176c.855.219,1.361-.486,1.126-1.6a3.537,3.537,0,0,0-1.531-2.249A1.721,1.721,0,0,0,184.826,380.682Z"/>
                    <path class="cls-13" d="M186.474,343.223a1.682,1.682,0,0,0,.405.172c.853.235,1.374-.478,1.139-1.6a3.524,3.524,0,0,0-1.526-2.236,1.714,1.714,0,0,0-.429-.18c-.854-.235-1.36.47-1.125,1.588A3.562,3.562,0,0,0,186.474,343.223Z"/>
                    <path class="cls-13" d="M203.237,400.6c-.557-.321-1.1-.3-1.392.113-.45.625-.187,1.9.581,2.846a2.849,2.849,0,0,0,.792.707c.55.318,1.09.3,1.391-.122.436-.618.174-1.9-.58-2.846A2.947,2.947,0,0,0,203.237,400.6Z"/>
                    <path class="cls-13" d="M203.608,342.3a2.685,2.685,0,0,0,.58,2.846,2.875,2.875,0,0,0,.8.71c.548.317,1.087.3,1.388-.109a2.685,2.685,0,0,0-.58-2.846,2.931,2.931,0,0,0-.8-.714C204.441,341.871,203.909,341.893,203.608,342.3Z"/>
                    <path class="cls-13" d="M221.325,403.059c-.854-.236-1.36.486-1.126,1.6a3.542,3.542,0,0,0,1.52,2.231,1.727,1.727,0,0,0,.421.177c.854.235,1.36-.487,1.14-1.6a3.565,3.565,0,0,0-1.533-2.239A1.658,1.658,0,0,0,221.325,403.059Z"/>
                    <path class="cls-13" d="M222.982,365.605a1.813,1.813,0,0,0,.41.175c.853.219,1.36-.486,1.139-1.6a3.6,3.6,0,0,0-1.545-2.257,1.721,1.721,0,0,0-.409-.175c-.854-.22-1.36.486-1.139,1.6A3.6,3.6,0,0,0,222.982,365.605Z"/>
                    <path class="cls-13" d="M229.921,387.214c-.552-.318-1.087-.3-1.379.115-.45.626-.188,1.9.58,2.847a2.9,2.9,0,0,0,.795.71c.549.316,1.087.3,1.389-.11.436-.633.173-1.911-.58-2.846A2.942,2.942,0,0,0,229.921,387.214Z"/>
                </g>
                <g id="Axonometric_Cylinder-3" data-name="Axonometric Cylinder">
                    <path id="Cylinder_face-3" data-name="Cylinder face" class="cls-14" d="M147.083,420.81c0,7.988-5.607,11.226-12.525,7.233s-12.526-13.708-12.526-21.7,5.608-11.226,12.526-7.232S147.083,412.823,147.083,420.81Z"/>
                    <path id="Cylinder_body-3" data-name="Cylinder body" class="cls-15" d="M125.619,398.285,193.2,359.267c2.272-1.361,5.438-1.191,8.938.829,6.918,4,12.526,13.708,12.526,21.7,0,3.946-1.369,6.733-3.588,8.061L143.5,428.872c2.219-1.328,3.587-4.115,3.587-8.062,0-7.987-5.607-17.7-12.525-21.695C131.057,397.094,127.892,396.925,125.619,398.285Z"/>
                </g>
                <path class="cls-16" d="M201.707,359.872c.145.078.286.14.433.224a22.728,22.728,0,0,1,5.98,5.2L140.537,404.32a22.74,22.74,0,0,0-5.979-5.2c-.147-.084-.288-.147-.434-.225Z"/>
                <g class="cls-1">
                    <polygon class="cls-2" points="130.181 499.712 145.497 490.811 136.588 451.748 121.272 460.649 130.181 499.712"/>
                    <polygon class="cls-17" points="121.272 460.649 136.588 451.748 112.529 437.858 97.213 446.759 121.272 460.649"/>
                    <polygon class="cls-9" points="97.213 446.759 88.112 475.424 130.181 499.712 121.272 460.649 97.213 446.759"/>
                </g>
                <g class="cls-1">
                    <polygon class="cls-2" points="87.345 524.443 102.661 515.543 93.752 476.48 78.436 485.381 87.345 524.443"/>
                    <polygon class="cls-17" points="78.436 485.381 93.752 476.48 69.693 462.59 54.376 471.491 78.436 485.381"/>
                    <polygon class="cls-9" points="54.376 471.491 45.275 500.155 87.345 524.443 78.436 485.381 54.376 471.491"/>
                </g>
                <g class="cls-1">
                    <path class="cls-18" d="M159.573,424.394c-.077,4.036-.311,16.32-13.054,24.108,4.218-2.452,6.792-7.725,6.7-15.2,4.277-2.485,6.393-5.711,6.354-8.91Z"/>
                    <path class="cls-2" d="M122.94,450.9l30.279-17.6c4.277-2.485,6.393-5.711,6.354-8.91-.012.6-.027,1.4-.038,2-.067.8-.15,1.864-.252,2.659l-.34,1.952c-.222.905-.528,2.109-.8,3l-.68,1.852c-.452,1-1.091,2.314-1.61,3.279l-1.055,1.671a24.733,24.733,0,0,1-2.651,3.266l-1.439,1.39a26.971,26.971,0,0,1-4.188,3.038l-30.28,17.6C120.458,463.646,123.031,458.373,122.94,450.9Z"/>
                    <path class="cls-19" d="M113.981,392.506c.271-.157.549-.3.834-.435a25.478,25.478,0,0,1,14.061-2.966,29.839,29.839,0,0,1,15.235,5.779c5.617,3.928,15.194,14.564,15.462,29.51.039,3.2-2.077,6.425-6.354,8.91L122.94,450.9a43.642,43.642,0,0,0-3.973-16.775,55.3,55.3,0,0,0-8.887-13.975,40.354,40.354,0,0,0-10.435-8.673C93.406,408,87.784,407.73,83.7,410.1Z"/>
                    <path class="cls-9" d="M122.94,450.9c.18,14.7-9.957,20.893-22.643,13.823S77.181,440,77,425.3s9.958-20.893,22.644-13.823S122.76,436.2,122.94,450.9Z"/>
                    <path class="cls-13" d="M152.81,438.456c.033-.183.058-.377.088-.564-.036.223-.067.452-.108.67l-30.279,17.6a24.122,24.122,0,0,0,.341-2.565c10.092-5.865,20.184-11.73,30.288-17.714,5.577-3.33,6.093-6.925,6.341-8.653C159.155,430.239,159.019,434.848,152.81,438.456Zm-1.611,4.928c4.025-2.34,5.351-5.158,6.79-8.923a13.338,13.338,0,0,1-5.969,6.981l-30.275,17.595a16.325,16.325,0,0,1-.865,2.022l30.279-17.6c.088-.171.166-.352.248-.529C151.337,443.083,151.273,443.238,151.2,443.384Zm-2.687,3.636a18.936,18.936,0,0,0,5.4-4.989,14.814,14.814,0,0,1-4.136,3.608L119.5,463.23a11.894,11.894,0,0,1-1.324,1.438C153.738,444,148.512,447.02,148.512,447.02Zm7.642-37.233c.37.81-2.128,2.93-7.272,5.938l-30.278,17.6q.681,1.473,1.266,2.973l30.278-17.6c-.19-.487-.193-.5,0-.013C158.882,413.45,157.3,412.318,156.154,409.787Zm1.925,5.063c.574,1.951-1.66,4.721-6.628,7.621l-30.278,17.6q.453,1.51.8,3.021l30.279-17.6c-.059-.261-.128-.522-.193-.783.064.258.133.516.191.774C160.423,420.465,158.9,417.782,158.079,414.85Zm-12.706-5.571-30.278,17.6q.871,1.378,1.664,2.808l30.279-17.6c-.252-.455-.259-.466-.01-.019,5.22-3.046,7.553-4.51,7.8-4.9-.674-1.179-.4-.719-1.194-2.013-.2-.3-3.093,1.1-8.268,4.107Zm13.922,11.231c.369,2.872-1.757,6.055-6.37,8.743l-30.279,17.6q.194,1.489.262,2.954l30.279-17.6c-.031-.677-.036-.787,0,0C159.975,427.944,159.793,424.746,159.295,420.51Zm-28.538-26.148-30.278,17.6q1.239.742,2.445,1.613l30.279-17.6c-.21-.151-.228-.163-.027-.019,4.548-2.643,8.383-2.9,10.8-1.168-2.473-1.67-5.964-4.677-13.249-.442Zm-10.525-3.4L89.955,408.554a15.748,15.748,0,0,1,2.168.188l30.279-17.6c-.19-.029-.376-.046-.564-.068.177.021.353.036.532.064a13.071,13.071,0,0,1,8.551-1.807c-3.1-.353-6.481-.839-10.718,1.623ZM141.079,403.4l-30.278,17.6q1.029,1.222,1.993,2.525l30.279-17.6c-.321-.434-.331-.447-.015-.02,5.236-2.976,8.233-4.044,8.906-3.177-.439-.564-1.021-1.319-1.477-1.869-1.019-1.2-4.356-.426-9.424,2.519Zm-15.812-11.563-30.278,17.6a23.584,23.584,0,0,1,2.392.915l30.279-17.6c-.207-.093-.228-.1-.031-.014,3.855-2.24,7.541-2.566,10.512-1.29-2.959-1.183-6.961-3.075-12.9.379Zm10.888,6.5-30.278,17.6q1.152,1.012,2.254,2.127l30.279-17.6c-.352-.355-.366-.369-.021-.021,4.934-2.868,8.5-3.381,10.033-1.849-2.085-2.03-4.309-4.916-12.289-.278Zm-15.222-8.566c.459-.115.911-.224,1.311-.313C121.8,389.536,121.367,389.645,120.933,389.769Zm-35.4,19.483a11.752,11.752,0,0,1,1.876-.5l30.279-17.6c-.166.03-.326.072-.489.108.153-.034.3-.074.459-.1a14.33,14.33,0,0,1,3.272-1.394,17.5,17.5,0,0,0-5.123,1.889Z"/>
                </g>
                <g class="cls-1">
                    <path class="cls-20" d="M81.993,405.463c4.948-2.876,11.838-2.391,19.4,2.126,14.691,8.777,26.355,29.459,26.051,46.194-.148,8.123-3.087,13.822-7.754,16.534L80.85,492.888l-37.7-64.854Z"/>
                    <path class="cls-2" d="M72.078,477.573l54.654-31.761a40.956,40.956,0,0,1,.711,7.971c-.148,8.123-3.087,13.822-7.754,16.534L80.85,492.888Z"/>
                    <path class="cls-21" d="M31.052,450.635c-.18,15.7,9.256,32.514,22.945,40.885a30.681,30.681,0,0,0,13.054,4.4,23.409,23.409,0,0,0,13.8-3.027c4.666-2.712,7.606-8.411,7.754-16.534.3-16.735-11.359-37.417-26.051-46.194-7.561-4.518-14.451-5-19.4-2.126C31.828,434.927,31.264,446.339,31.052,450.635Z"/>
                    <path class="cls-22" d="M87.919,468.37a40.813,40.813,0,0,1,.72,8.016c-.148,8.122-3.087,13.822-7.754,16.534a23.412,23.412,0,0,1-13.8,3.027,30.666,30.666,0,0,1-13.055-4.395,49.118,49.118,0,0,1-17.939-20.17C47.242,487.508,76.221,477.624,87.919,468.37Z"/>
                    <path class="cls-23" d="M41.915,455.105c1.647-14.7,2.033-21.639,14.905-29.382,4.834-2.907,36.764-21.448,36.764-21.448a28.77,28.77,0,0,1,7.808,3.314,49.546,49.546,0,0,1,13.047,11.8c-2.42,1.435-33.868,16.436-40.7,22.643C68.477,446.817,59.011,457.952,56.5,463.8,50.853,463.413,46.148,459.146,41.915,455.105Z"/>
                    <path class="cls-9" d="M51.79,448.373c8.831,5.276,15.843,17.709,15.66,27.769S59.959,490.08,51.127,484.8s-15.843-17.71-15.66-27.77S42.958,443.1,51.79,448.373Z"/>
                    <path class="cls-13" d="M50.231,482.811a25.468,25.468,0,0,1-4.041-3.4L56.731,485.5a13.174,13.174,0,0,1-4.048-1.271Zm-1.074-15.372a6.092,6.092,0,0,1-.46-1.331l-11.781-6.8c.012.368.038.744.078,1.111ZM59.815,485.4a6.45,6.45,0,0,0,1.2-.388L41.922,473.984c.38.612.787,1.207,1.2,1.772ZM48.7,464.23a1.745,1.745,0,0,1,.466-.8l-12.162-7.022c-.042.321-.07.665-.085,1.017Zm13.94,19.852a8.573,8.573,0,0,0,.725-.663L39.587,469.69c.231.509.475,1.01.719,1.5Zm1.752-1.936c.164-.265.3-.547.452-.82L38.124,465.9c.149.447.285.886.447,1.34Zm1.07-2.328c.1-.305.166-.626.249-.939L37.275,462.46c.081.407.148.807.242,1.222Zm-11.156-10.47a1.736,1.736,0,0,1-.466.8L66,477.166c.042-.32.07-.664.085-1.017Zm-.455-3.21a6.163,6.163,0,0,1,.46,1.331l11.781,6.8c-.013-.368-.039-.743-.078-1.111ZM37.545,453.76c-.1.305-.165.625-.248.938l28.437,16.419c-.08-.407-.147-.807-.241-1.222Zm1.071-2.329c-.164.265-.3.547-.453.82l26.722,15.428c-.149-.446-.284-.885-.447-1.339Zm1.751-1.936a8.267,8.267,0,0,0-.724.664l23.78,13.729c-.231-.509-.475-1.011-.719-1.5Zm2.828-1.314a6.386,6.386,0,0,0-1.2.388l19.1,11.024c-.38-.612-.788-1.207-1.2-1.772Zm7.131,1.17a13.212,13.212,0,0,0-4.048-1.271l10.542,6.087a25.438,25.438,0,0,0-4.042-3.4Z"/>
                </g>
                <g id="Axonometric_Cylinder-4" data-name="Axonometric Cylinder">
                    <path id="Cylinder_face-4" data-name="Cylinder face" class="cls-4" d="M221.967,301.378c8.111,4.683,21.261,4.683,29.372,0s8.111-12.275,0-16.958-21.261-4.682-29.372,0S213.857,296.7,221.967,301.378Z"/>
                    <path id="Cylinder_body-4" data-name="Cylinder body" class="cls-24" d="M215.885,292.789v29.128c-.049,3.106,1.978,6.22,6.082,8.589,8.111,4.683,21.261,4.683,29.372,0,4.007-2.313,6.034-5.336,6.082-8.368V293.01c-.048,3.032-2.075,6.055-6.082,8.368-8.111,4.683-21.261,4.683-29.372,0C217.863,299.009,215.836,295.894,215.885,292.789Z"/>
                </g>
                <g id="Axonometric_Cylinder-5" data-name="Axonometric Cylinder">
                    <path id="Cylinder_face-5" data-name="Cylinder face" class="cls-4" d="M220.749,300.763c8.784,5.072,23.025,5.072,31.809,0s8.783-13.293,0-18.364-23.025-5.071-31.809,0S211.965,295.693,220.749,300.763Z"/>
                    <ellipse id="Cylinder_face-6" data-name="Cylinder face" class="cls-13" cx="236.653" cy="291.581" rx="18.486" ry="10.673"/>
                    <path id="Cylinder_body-5" data-name="Cylinder body" class="cls-25" d="M214.162,291.462v2.415c-.053,3.363,2.142,6.736,6.587,9.3,8.784,5.072,23.025,5.072,31.809,0,4.339-2.5,6.534-5.779,6.586-9.062V291.7c-.052,3.283-2.247,6.558-6.586,9.062-8.784,5.072-23.025,5.072-31.809,0C216.3,298.2,214.109,294.825,214.162,291.462Z"/>
                </g>
                <g id="Axonometric_Cylinder-6" data-name="Axonometric Cylinder">
                    <path id="Cylinder_face-7" data-name="Cylinder face" class="cls-4" d="M273.909,397.546c0-9.366,6.575-20.754,14.686-25.437s14.686-.886,14.686,8.479-6.575,20.754-14.686,25.437S273.909,406.912,273.909,397.546Z"/>
                    <path id="Cylinder_body-6" data-name="Cylinder body" class="cls-26" d="M278.307,407.108l-25.226-14.564c-2.714-1.51-4.4-4.823-4.4-9.562,0-9.366,6.575-20.754,14.686-25.437,4.007-2.313,7.639-2.557,10.289-1.083l25.226,14.564c-2.65-1.474-6.282-1.23-10.289,1.083-8.111,4.683-14.686,16.071-14.686,25.437C273.909,402.285,275.593,405.6,278.307,407.108Z"/>
                </g>
                <g id="Axonometric_Cylinder-7" data-name="Axonometric Cylinder">
                    <path id="Cylinder_face-8" data-name="Cylinder face" class="cls-2" d="M273.832,398.908c0-10.142,7.121-22.475,15.905-27.547s15.9-.96,15.9,9.183-7.12,22.476-15.9,27.547S273.832,409.051,273.832,398.908Z"/>
                    <path id="Cylinder_face-9" data-name="Cylinder face" class="cls-13" d="M276.665,397.273c0-8.336,5.853-18.472,13.072-22.64s13.071-.79,13.071,7.547-5.852,18.471-13.071,22.64S276.665,405.609,276.665,397.273Z"/>
                    <path id="Cylinder_body-7" data-name="Cylinder body" class="cls-27" d="M278.6,409.264l-2.092-1.208c-2.94-1.635-4.763-5.223-4.763-10.355,0-10.143,7.121-22.476,15.9-27.547,4.339-2.506,8.272-2.77,11.142-1.173l2.092,1.207c-2.87-1.6-6.8-1.332-11.142,1.173-8.784,5.072-15.905,17.405-15.905,27.547C273.832,404.041,275.656,407.629,278.6,409.264Z"/>
                </g>
                <path class="cls-28" d="M254.49,420.853A3.825,3.825,0,0,0,256,419.106a1.7,1.7,0,0,0,0-1.751l-9.071-10.474c-.315-.365-.881-.366-1.514,0a3.82,3.82,0,0,0-1.515,1.748l-9.07,20.949a1.7,1.7,0,0,0,0,1.751c.316.363.881.363,1.514,0Z"/>
                <path class="cls-29" d="M255.214,418.436l-9.072-10.474c-.192-.222-.671.055-.863.5l-9.071,20.948c-.192.444.048.721.432.5l18.142-10.474C255.166,419.211,255.405,418.657,255.214,418.436Z"/>
                <path class="cls-28" d="M245.443,419.948c-.216.124-.394.062-.412-.142l-.5-5.8c-.172-1.82,3.064-3.908,2.871-1.658l-.5,6.37a.877.877,0,0,1-.412.617Zm-.683,2.959c0,.668.542.9,1.21.511a2.507,2.507,0,0,0,1.21-1.909c0-.668-.541-.9-1.21-.511A2.51,2.51,0,0,0,244.76,422.907Z"/>
            </g>
        </g>
        <g id="arrow_event_critycal">
            <animateTransform attributeName="transform" attributeType="XML" type="translate" from="0 0" to="0 75" dur="1.5s" repeatCount="indefinite" />
            <path class="cls-30" d="M184.765,89.919V101.78l29.418.008-49.776,49.758-49.773-49.758,29.153-.008V89.919Zm0-10.65V60.614H143.787V79.269Zm0-29.3V38.638H143.787V49.967Zm0-21.978V21.546H143.787v6.443Z"/>
        </g>
    </g>
</svg>