<svg xmlns="http://www.w3.org/2000/svg"
    xmlns:xlink="http://www.w3.org/1999/xlink" viewBox="0 0 208.612 600">
    <defs>
        <style>.cls-1{fill:#e1d8d0;}.cls-2{fill:#234156;}.cls-3{fill:#436d81;isolation:isolate;opacity:0.3;}.cls-4{fill:#1a3546;}.cls-5{fill:#efe8e1;}.cls-6{fill:#385c72;}.cls-7{fill:#d1c5bb;}.cls-8{fill:url(#Degradado_sin_nombre_211);}</style>
        <linearGradient id="Degradado_sin_nombre_211" x1="104.306" y1="151.546" x2="104.306" y2="21.546" gradientUnits="userSpaceOnUse">
            <stop offset="0" stop-color="#c57115"/>
            <stop offset="0.997" stop-color="#f1881c"/>
        </linearGradient>
    </defs>
    <g id="Capa_1" data-name="Capa 1">
        <path class="cls-1" d="M1,393.314V524.33c0,29.156,40.132,52.792,89.637,52.792s89.636-23.636,89.636-52.792V393.314Z"/>
        <path class="cls-2" d="M90.632,460.026C41.127,460.026,1,436.39,1,407.234V514.985c0,29.156,40.132,52.792,89.637,52.792s89.636-23.636,89.636-52.792V407.233C180.268,436.389,140.136,460.026,90.632,460.026Z"/>
        <path class="cls-3" d="M19.247,439.139V546.89c10.669,8.26,25.366,14.619,42.38,18.045V457.184C44.614,453.758,29.916,447.4,19.247,439.139Z"/>
        <path class="cls-4" d="M154.354,444.353V552.1c16.017-9.537,25.914-22.646,25.914-37.12V407.233C180.268,421.707,170.37,434.816,154.354,444.353Z"/>
        <ellipse class="cls-5" cx="90.632" cy="397.732" rx="89.636" ry="52.792"/>
        <path class="cls-5" d="M180.268,398.064v-6.639a89.636,89.636,0,0,0-89.636-89.636h0A89.636,89.636,0,0,0,1,391.425v6.639Z"/>
        <path class="cls-6" d="M97.736,319c-.28.21-28.127,21.268-39.576,42.9-9.392,17.75-14.288,32.727-16.759,47.89.242.053.489.085.731.163.439.14.8.892,1.224,1.068,2.426-15.072,7.332-30.515,16.658-48.139,11.227-21.217,38.7-42,38.982-42.207Z"/>
        <path class="cls-6" d="M77.178,311.406c-.252.189-25.383,19.2-36.832,40.834-9.357,17.684-14.236,32.615-16.716,47.72l.036.014c.05.019.1.037.153.055.124.043.25.081.377.117.258.074.519.137.778.211.226.064.454.124.681.184,2.438-14.99,7.269-29.788,16.545-47.32,11.226-21.215,35.989-39.951,36.238-40.137Z"/>
        <path class="cls-6" d="M10.05,568.151A1.048,1.048,0,0,0,11.1,567.1V407.61a1.049,1.049,0,0,0-2.1,0V567.1A1.048,1.048,0,0,0,10.05,568.151Z"/>
        <path class="cls-6" d="M10.051,408.659a1.042,1.042,0,0,0,.523-.14l13.219-7.632a1.049,1.049,0,1,0-1.049-1.817L9.525,406.7a1.049,1.049,0,0,0,.526,1.957Z"/>
        <path class="cls-6" d="M28.783,579a1.048,1.048,0,0,0,1.049-1.049V418.457a1.049,1.049,0,0,0-2.1,0V577.949A1.049,1.049,0,0,0,28.783,579Z"/>
        <path class="cls-6" d="M28.784,419.506a1.042,1.042,0,0,0,.523-.14l13.219-7.632a1.049,1.049,0,1,0-1.049-1.817l-13.219,7.632a1.049,1.049,0,0,0,.526,1.957Z"/>
        <rect class="cls-6" x="18.268" y="556.152" width="2.098" height="21.883" transform="translate(-481.492 300.338) rotate(-60.007)"/>
        <rect class="cls-6" x="18.267" y="543.718" width="2.098" height="21.883" transform="translate(-470.724 294.119) rotate(-60.007)"/>
        <rect class="cls-6" x="18.26" y="531.624" width="2.098" height="21.883" transform="translate(-460.252 288.064) rotate(-60.007)"/>
        <rect class="cls-6" x="18.267" y="519.177" width="2.098" height="21.883" transform="translate(-449.469 281.845) rotate(-60.007)"/>
        <rect class="cls-6" x="18.266" y="506.735" width="2.098" height="21.883" transform="translate(-438.694 275.623) rotate(-60.007)"/>
        <rect class="cls-6" x="18.266" y="494.302" width="2.098" height="21.883" transform="translate(-427.926 269.405) rotate(-60.007)"/>
        <rect class="cls-6" x="18.26" y="482.205" width="2.098" height="21.883" transform="translate(-417.452 263.35) rotate(-60.007)"/>
        <rect class="cls-6" x="18.26" y="469.771" width="2.098" height="21.883" transform="translate(-406.683 257.131) rotate(-60.007)"/>
        <rect class="cls-6" x="18.265" y="457.327" width="2.098" height="21.883" transform="translate(-395.903 250.912) rotate(-60.007)"/>
        <rect class="cls-6" x="18.264" y="444.886" width="2.098" height="21.883" transform="translate(-385.128 244.69) rotate(-60.007)"/>
        <rect class="cls-6" x="18.263" y="432.452" width="2.098" height="21.883" transform="translate(-374.36 238.471) rotate(-60.007)"/>
        <rect class="cls-6" x="18.26" y="420.353" width="2.098" height="21.883" transform="translate(-363.882 232.417) rotate(-60.007)"/>
        <rect class="cls-6" x="18.263" y="407.911" width="2.098" height="21.883" transform="translate(-353.105 226.197) rotate(-60.007)"/>
        <path class="cls-2" d="M103.122,314.306c0,5.043-6.942,9.132-15.5,9.132s-15.505-4.089-15.505-9.132,6.942-9.132,15.505-9.132S103.122,309.263,103.122,314.306Z"/>
        <rect class="cls-2" x="72.112" y="305.175" width="31.009" height="9.132"/>
        <path class="cls-6" d="M103.122,305.175c0,5.043-6.942,9.132-15.5,9.132s-15.505-4.088-15.505-9.132,6.942-9.132,15.505-9.132S103.122,300.131,103.122,305.175Z"/>
        <path class="cls-2" d="M90.663,305.158c0,1.045-1.438,1.892-3.212,1.892s-3.212-.847-3.212-1.892,1.438-1.892,3.212-1.892S90.663,304.113,90.663,305.158Z"/>
        <path class="cls-2" d="M148.981,322.942l-6.293-4.744V262.122c0-4.51-1.324-7.967-3.544-9.248-2.143-1.238-4.741-.256-6.541.781l-28.774,16.6C96.658,274.4,90.6,286.105,90.6,295.82v9.357H84.305V295.82c0-12.089,7.195-25.711,16.379-31.013l28.772-16.6c4.574-2.64,9.132-2.918,12.834-.78,4.252,2.455,6.691,7.812,6.691,14.7v60.819Z"/>
        <path class="cls-6" d="M42.32,411.912a1.042,1.042,0,0,1-.523-.14l-18.741-10.82a1.049,1.049,0,0,1,1.049-1.817l18.741,10.82a1.049,1.049,0,0,1-.526,1.957Z"/>
        <path class="cls-6" d="M45.575,394.426q.3-.743.614-1.477L29.307,383.2a1.049,1.049,0,0,0-1.049,1.817l17.125,9.887C45.448,394.747,45.51,394.586,45.575,394.426Z"/>
        <path class="cls-6" d="M51.665,379.211q.3-.743.614-1.477L35.4,367.988a1.049,1.049,0,0,0-1.049,1.817l17.125,9.887C51.538,379.531,51.6,379.371,51.665,379.211Z"/>
        <path class="cls-6" d="M57.878,363.517q.3-.743.614-1.477L41.61,352.294a1.049,1.049,0,0,0-1.049,1.817L57.686,364C57.751,363.838,57.814,363.677,57.878,363.517Z"/>
        <path class="cls-6" d="M67.7,349.9q.3-.743.614-1.477l-16.882-9.746a1.049,1.049,0,0,0-1.049,1.817L67.5,350.376C67.569,350.216,67.631,350.055,67.7,349.9Z"/>
        <path class="cls-6" d="M77.824,338.05q.3-.743.614-1.477l-16.882-9.746a1.049,1.049,0,0,0-1.049,1.817l17.125,9.887C77.7,338.371,77.759,338.21,77.824,338.05Z"/>
        <ellipse class="cls-7" cx="174.64" cy="580.577" rx="32.978" ry="19.423"/>
        <rect class="cls-7" x="141.661" y="467.606" width="65.957" height="112.971"/>
        <ellipse class="cls-5" cx="174.64" cy="467.606" rx="32.978" ry="19.423"/>
        <ellipse class="cls-1" cx="174.64" cy="467.056" rx="29.334" ry="17.277"/>
        <ellipse class="cls-7" cx="174.64" cy="469.749" rx="28.942" ry="14.584"/>
        <path class="cls-2" d="M164.581,469.879c0,3.426,4.716,6.2,10.533,6.2s10.533-2.777,10.533-6.2-4.716-6.2-10.533-6.2S164.581,466.453,164.581,469.879Z"/>
        <rect class="cls-2" x="164.581" y="463.676" width="21.066" height="6.203"/>
        <path class="cls-6" d="M164.581,463.676c0,3.426,4.716,6.2,10.533,6.2s10.533-2.777,10.533-6.2-4.716-6.2-10.533-6.2S164.581,460.25,164.581,463.676Z"/>
        <ellipse class="cls-2" cx="175.227" cy="463.664" rx="2.182" ry="1.285"/>
        <path class="cls-6" d="M154.544,428.044a8.168,8.168,0,0,1-3.411,6.517c-1.884,1.088-3.411-.067-3.411-2.579a8.17,8.17,0,0,1,3.411-6.517C153.017,424.378,154.544,425.532,154.544,428.044Z"/>
        <path class="cls-2" d="M152.916,429.434a3.353,3.353,0,0,1-1.4,2.675c-.773.446-1.4-.027-1.4-1.059a3.353,3.353,0,0,1,1.4-2.675C152.289,427.929,152.916,428.4,152.916,429.434Z"/>
        <path class="cls-2" d="M166.238,436.252l-13.816-7.972c-.445.545-.994,1.034-1.44,1.578-.469.572-.019,1.674-.487,2.246l13.607,7.852c4.871,2.812,8.988,10.764,8.988,17.365v6.356h4.275v-6.356C177.364,449.108,172.477,439.854,166.238,436.252Z"/>
    </g>
    <g id="arrow_event_critycal">
        <animateTransform attributeName="transform" attributeType="XML" type="translate" from="0 0" to="0 75" dur="1.5s" repeatCount="indefinite" />
        <path class="cls-8" d="M124.662,89.919V101.78l29.418.008L104.3,151.546,54.532,101.788l29.153-.008V89.919Zm0-10.65V60.614H83.685V79.269Zm0-29.3V38.638H83.685V49.967Zm0-21.978V21.546H83.685v6.443Z"/>
    </g>
</svg>