<svg id="Capa_1" data-name="Capa 1" xmlns="http://www.w3.org/2000/svg" viewBox="0 0 459.364 600"><defs><style>.cls-1{fill:#0a0b0b;}.cls-2{fill:#585858;}.cls-3{fill:#363636;}.cls-4{fill:#584a44;}.cls-5{fill:#090909;}.cls-6{fill:#362d2a;}.cls-7{fill:#eb5d55;}.cls-8{fill:#8b1d14;}.cls-9{fill:#c94130;}.cls-10{fill:#82cddf;}</style></defs><polygon class="cls-1" points="456.436 465.166 232.384 594.591 227.982 587.029 228.816 564.346 232.384 550.058 456.436 420.633 456.436 465.166"/><polygon class="cls-2" points="456.436 420.633 232.384 550.058 215.881 547.491 34.982 444.002 20.035 427.461 244.095 298.033 456.436 420.633"/><path class="cls-1" d="M20.035,427.455V472L232.384,594.591V550.058Z"/><path class="cls-2" d="M6.008,426.637l-3.08,1.781,12.01,42.008,3.079-36.853Z"/><path class="cls-1" d="M7.636,438.171l7.3,32.255,3.079-1.778V433.573l-3.079,1.777Z"/><path class="cls-3" d="M2.928,428.418v35.075l12.01,6.933V435.35Z"/><path class="cls-2" d="M20.035,427.455l-7.194,4.157L225.187,598.748l7.2-48.69-58.37-52.292Z"/><path class="cls-1" d="M201.305,561.019l23.882,37.729,7.2-4.157V550.058l-7.2,4.156Z"/><path class="cls-3" d="M12.841,431.612V476.15l212.346,122.6V554.214Z"/><polygon class="cls-4" points="207.762 564.237 193.147 555.798 192.148 556.379 206.758 572.016 207.762 564.237"/><polygon class="cls-5" points="205.54 566.046 206.758 572.016 207.754 571.441 207.762 564.237 206.761 564.814 205.54 566.046"/><polygon class="cls-6" points="192.148 556.379 192.14 563.578 206.758 572.016 206.761 564.814 192.148 556.379"/><polygon class="cls-7" points="205.31 564.859 193.68 558.149 191.411 559.461 203.036 571.465 205.31 564.859"/><polygon class="cls-8" points="202.141 567.078 203.036 571.465 205.307 570.152 205.31 564.859 203.036 566.174 202.141 567.078"/><polygon class="cls-9" points="191.411 559.461 191.403 564.752 203.036 571.465 203.036 566.174 191.411 559.461"/><path class="cls-4" d="M95.49,490.07l-1.683.96,51.264,52.281,1.684-23.642Z"/><path class="cls-5" d="M132.905,524.093l12.166,19.218,1.684-.957V519.669l-1.684.957Z"/><path class="cls-6" d="M93.807,491.03v22.679l51.264,29.6V520.626Z"/><polygon class="cls-1" points="137.898 531.66 137.898 534.985 99.997 513.098 99.997 499.748 102.859 501.397 110.91 510.523 137.898 531.66"/><polygon class="cls-10" points="137.898 521.638 137.898 531.66 102.859 511.44 102.859 501.397 137.898 521.638"/><path class="cls-2" d="M230.439,556.217l-3.077,1.777L239.371,600l3.075-36.845Z"/><path class="cls-1" d="M229.158,567.839,239.371,600l3.075-1.773V563.155l-3.075,1.772Z"/><path class="cls-3" d="M227.362,557.994v35.074L239.371,600V564.927Z"/></svg>