<svg id="Capa_1" data-name="Capa 1" xmlns="http://www.w3.org/2000/svg" viewBox="0 0 203.876 600"><defs><style>.cls-1{isolation:isolate;}.cls-2{fill:#623942;}.cls-3{fill:#81505a;}.cls-4{fill:#71454e;}.cls-5{fill:#bbceec;}.cls-6{fill:#ebf1fb;}.cls-7{fill:#ccdaf1;}.cls-8{fill:#2b3235;}.cls-9{fill:#505860;}.cls-10{fill:#fff;}.cls-11{fill:#fbbb26;}.cls-12{fill:#b0b8cf;}.cls-13{fill:#9ea9c8;}.cls-14{fill:#e3e7f0;}.cls-15{fill:#c9cee2;}.cls-16{fill:#ea526f;}.cls-17{fill:#f7ce6d;}.cls-18{fill:#68acdf;}.cls-19{fill:#6089c7;}.cls-20{fill:#87bf54;}.cls-21{fill:#67b765;}.cls-22{opacity:0.3;}.cls-23{fill:#4c71b6;}.cls-24{fill:#dbe5f6;}</style></defs><g id="_76" data-name="76"><g class="cls-1"><polygon class="cls-2" points="68.612 600 1.628 561.073 1.628 553.027 68.612 591.954 68.612 600"/><polygon class="cls-3" points="68.612 591.954 1.628 553.027 124.666 481.994 202.248 514.799 68.612 591.954"/><polygon class="cls-4" points="202.248 514.799 202.248 522.845 68.612 600 68.612 591.954 202.248 514.799"/></g><g class="cls-1"><polygon class="cls-5" points="68.079 587.54 9.416 553.449 8.86 315.518 67.524 349.609 68.079 587.54"/><polygon class="cls-6" points="67.524 349.609 8.86 315.518 134.041 243.245 192.705 277.336 67.524 349.609"/><polygon class="cls-7" points="193.273 515.269 68.048 587.549 67.529 349.622 192.689 277.342 193.273 515.269"/></g><g class="cls-1"><path class="cls-8" d="M188.745,462.9l-.063,22.032a1.992,1.992,0,0,1-1.17,1.627,6.284,6.284,0,0,1-5.705-.017,1.97,1.97,0,0,1-1.156-1.631l.063-22.032a1.966,1.966,0,0,0,1.156,1.631,6.281,6.281,0,0,0,5.7.016A1.991,1.991,0,0,0,188.745,462.9Z"/><path class="cls-9" d="M187.527,461.223c1.611.93,1.619,2.391.048,3.3a6.281,6.281,0,0,1-5.7-.016c-1.553-.9-1.533-2.375.01-3.272A6.212,6.212,0,0,1,187.527,461.223Z"/></g><g class="cls-1"><path class="cls-8" d="M188.745,397.656l-.063,22.032a1.992,1.992,0,0,1-1.17,1.627,6.284,6.284,0,0,1-5.705-.017,1.97,1.97,0,0,1-1.156-1.631l.063-22.032a1.966,1.966,0,0,0,1.156,1.631,6.281,6.281,0,0,0,5.7.016A1.991,1.991,0,0,0,188.745,397.656Z"/><path class="cls-9" d="M187.527,395.978c1.611.93,1.619,2.391.048,3.3a6.281,6.281,0,0,1-5.7-.016c-1.553-.9-1.533-2.375.01-3.272A6.212,6.212,0,0,1,187.527,395.978Z"/></g><g class="cls-1"><path class="cls-8" d="M188.745,332.411l-.063,22.032a1.992,1.992,0,0,1-1.17,1.627,6.284,6.284,0,0,1-5.705-.017,1.97,1.97,0,0,1-1.156-1.631l.063-22.032a1.966,1.966,0,0,0,1.156,1.631,6.281,6.281,0,0,0,5.7.016A1.991,1.991,0,0,0,188.745,332.411Z"/><path class="cls-9" d="M187.527,330.733c1.611.93,1.619,2.391.048,3.3a6.281,6.281,0,0,1-5.7-.016c-1.553-.9-1.533-2.375.01-3.272A6.212,6.212,0,0,1,187.527,330.733Z"/></g><g class="cls-1"><polygon class="cls-5" points="133.402 522.159 130.343 520.381 129.896 341.37 132.955 343.148 133.402 522.159"/><polygon class="cls-10" points="132.955 343.148 129.896 341.37 179.894 312.502 182.953 314.28 132.955 343.148"/><polygon class="cls-6" points="183.411 493.292 133.377 522.166 132.959 343.158 182.94 314.284 183.411 493.292"/></g><g class="cls-1"><polygon class="cls-5" points="81.091 552.381 78.032 550.603 77.585 371.593 80.644 373.37 81.091 552.381"/><polygon class="cls-10" points="80.644 373.37 77.585 371.593 127.563 342.736 130.622 344.514 80.644 373.37"/><polygon class="cls-6" points="131.08 523.526 81.066 552.388 80.648 373.38 130.609 344.518 131.08 523.526"/></g><g class="cls-1"><path class="cls-8" d="M80.151,525.637l-.062,22.032a1.993,1.993,0,0,1-1.17,1.627,6.281,6.281,0,0,1-5.7-.017,1.965,1.965,0,0,1-1.156-1.63l.062-22.033a1.97,1.97,0,0,0,1.156,1.631,6.284,6.284,0,0,0,5.7.017A1.992,1.992,0,0,0,80.151,525.637Z"/><path class="cls-9" d="M78.934,523.959c1.611.93,1.619,2.391.047,3.305a6.284,6.284,0,0,1-5.7-.017c-1.553-.9-1.532-2.374.01-3.271A6.217,6.217,0,0,1,78.934,523.959Z"/></g><g class="cls-1"><path class="cls-8" d="M80.151,460.392l-.062,22.032a1.993,1.993,0,0,1-1.17,1.627,6.281,6.281,0,0,1-5.7-.017,1.965,1.965,0,0,1-1.156-1.63l.062-22.033A1.97,1.97,0,0,0,73.276,462a6.284,6.284,0,0,0,5.7.017A1.992,1.992,0,0,0,80.151,460.392Z"/><path class="cls-9" d="M78.934,458.714c1.611.93,1.619,2.391.047,3.305a6.284,6.284,0,0,1-5.7-.017c-1.553-.9-1.532-2.374.01-3.271A6.217,6.217,0,0,1,78.934,458.714Z"/></g><g class="cls-1"><path class="cls-8" d="M80.151,395.147l-.062,22.033a1.993,1.993,0,0,1-1.17,1.626,6.281,6.281,0,0,1-5.7-.017,1.965,1.965,0,0,1-1.156-1.63l.062-22.033a1.97,1.97,0,0,0,1.156,1.631,6.284,6.284,0,0,0,5.7.017A1.992,1.992,0,0,0,80.151,395.147Z"/><path class="cls-9" d="M78.934,393.469c1.611.93,1.619,2.392.047,3.305a6.284,6.284,0,0,1-5.7-.017c-1.553-.9-1.532-2.374.01-3.271A6.217,6.217,0,0,1,78.934,393.469Z"/></g><path class="cls-5" d="M119.624,449.259c1.853-1.069,3.438-.229,3.444,1.962a7.7,7.7,0,0,1-3.421,5.926c-1.907,1.1-3.438.166-3.444-1.962A7.5,7.5,0,0,1,119.624,449.259Z"/><path class="cls-5" d="M143.652,435.387c1.852-1.069,3.437-.229,3.443,1.962a7.7,7.7,0,0,1-3.421,5.926c-1.907,1.1-3.438.166-3.444-1.962A7.5,7.5,0,0,1,143.652,435.387Z"/><path class="cls-8" d="M139.7,396.16l15.668-39.713c1.367-3.47,5.058-5.154,6.829-2.742l15.837,21.521c1.643,2.222-.07,6.2-2.532,7.626l-31.507,18.191C141.023,402.76,138.122,400.162,139.7,396.16Z"/><path class="cls-11" d="M160.952,354.618,176.79,376.14c.959,1.3-.195,4.3-2.061,5.376l-31.506,18.19c-1.866,1.077-3.033-.584-2.088-2.98L156.8,357.013C157.608,354.969,159.9,353.187,160.952,354.618Z"/><polygon class="cls-8" points="162.714 367.119 157.958 376.873 162.217 374.414 155.483 387.041 158.575 378.046 155.219 379.984 157.625 370.057 162.714 367.119"/><path class="cls-8" d="M116.179,402.351l-.108-30.365.666-.384c2.937-1.7,5.336-.329,5.346,3.05l.11,31.171a11.722,11.722,0,0,1-5.311,9.2L96.726,426.582c-2.941,1.7-5.339.331-5.349-3.045l0-.809,19.493-11.177A11.722,11.722,0,0,0,116.179,402.351Z"/><g class="cls-1"><path class="cls-12" d="M116.839,405.345l-10.453-6.075a1.061,1.061,0,0,0,.482-.832l10.453,6.075A1.061,1.061,0,0,1,116.839,405.345Z"/><path class="cls-13" d="M89.267,409.161l.014,5.4v2.1l3.479,2.024v.015l.485.271,23.6-13.631-.756-.442-3.123-1.81-.37-.214c-1.1-.64-5.21-3.027-4.833-2.809l-.357-.214-1.012-.584-12.988,7.5-.671.385Z"/><path class="cls-13" d="M89.281,416.661v.228c.372.219,3.993,2.329,3.621,2.11.109.081.229.01.343-.028l-.485-.271v-.015Z"/><path class="cls-14" d="M92.76,416.575l-3.479-2.01v.456l3.479,2.025.955.556a.559.559,0,0,1-.242-.342.91.91,0,0,1-.043-.285Z"/><path class="cls-13" d="M106.789,376.264c0,.395.058,14.111.057,13.693,0,.371.031,9.035.029,8.483l1.482.855,3.551,2.068,1.539.9.371.214,2.737,1.6.77.442-.113-29.732-.471-.271h-.014l-3.436-2.01-1.426.827-.414.228Z"/><path class="cls-13" d="M113.291,372.5l3.436,2.01h.014l.471.271a.419.419,0,0,0-.043-.2.167.167,0,0,0-.086-.086c-.014-.014-.014-.028-.028-.028l-3.565-2.082Z"/><path class="cls-14" d="M111.865,373.327l-.414.228,3.451,2.01.67.385a.919.919,0,0,1,.442-.128.454.454,0,0,1,.2.043l-.9-.542Z"/><path class="cls-14" d="M89.181,390.564l.086,18.6.014,5.4,3.479,2.01.67.4L93.4,406.766l-.072-16.857-.67-.385-2.851-1.654A6.673,6.673,0,0,0,89.181,390.564Z"/><path class="cls-14" d="M90.792,386.187l2.838,1.654.67.385,21.272-12.276-.67-.385-3.451-2.01-4.662,2.709-14.015,8.084A6.537,6.537,0,0,0,90.792,386.187Z"/><path class="cls-14" d="M89.809,387.87l2.851,1.654.67.385a2.147,2.147,0,0,1,.97-1.683l-.67-.385-2.838-1.654A7.643,7.643,0,0,0,89.809,387.87Z"/><path class="cls-15" d="M89.181,390.564l.086,18.6.014,5.4v2.324l.014,4.22c0,2.281,1.611,3.194,3.607,2.053l24.3-14.029a7.891,7.891,0,0,0,3.593-6.216l-.1-30.545c-.014-2.281-1.625-3.208-3.621-2.053l-3.579,2.067-.2.114-1.426.827-.414.228-4.662,2.709-14.015,8.084a6.537,6.537,0,0,0-1.982,1.839,7.643,7.643,0,0,0-.983,1.683A6.673,6.673,0,0,0,89.181,390.564Zm3.55,16.587-.071-17.627v-.557a1.089,1.089,0,0,1,.47-.841l.5-.285L114.9,375.565l.413-.242,1.412-.813h.014a.327.327,0,0,1,.314-.042c.014,0,.014.014.028.028a.241.241,0,0,1,.086.086.419.419,0,0,1,.043.2l.113,29.732a1.034,1.034,0,0,1-.484.827l-23.6,13.631c-.114.038-.234.109-.343.028-.028,0-.042-.028-.071-.043a.489.489,0,0,1-.071-.256v-2.125Z"/><path class="cls-15" d="M115.574,375.947c.536-.309.971-.059.973.554l.1,27.069a2.13,2.13,0,0,1-.966,1.673L94.4,417.529c-.534.308-.971.059-.973-.554l-.1-27.069a2.135,2.135,0,0,1,.966-1.674Z"/></g><polygon class="cls-8" points="95.763 406.57 103.866 401.892 103.866 408.331 95.781 412.998 95.763 406.57"/><polygon class="cls-10" points="103.502 402.523 96.128 406.78 96.144 412.368 103.502 408.12 103.502 402.523"/><path class="cls-16" d="M100.306,408.542c.277.3-.031,1.076-.487,1.338-.7.405-.828-.7-.119-1.275.15-.384,1.368-3.482,1.217-3.1Z"/><path class="cls-17" d="M101.752,405.144l-.681,1.1a.878.878,0,0,0-.281-.113l.126-.628-.24.611c-.864-.076-1.76.875-2.188,1.7L97.8,407.5C98.557,406.068,100.4,404.27,101.752,405.144Z"/><path class="cls-18" d="M101.752,405.144a1.894,1.894,0,0,1,.722,1.666l-.921.532a1.225,1.225,0,0,0-.482-1.094Z"/><path class="cls-15" d="M97.8,407.5l.684.317a3.4,3.4,0,0,0-.41,1.528l-.923.532A5.262,5.262,0,0,1,97.8,407.5Z"/><polygon class="cls-8" points="105.714 400.825 113.817 396.146 113.817 402.585 105.732 407.253 105.714 400.825"/><polygon class="cls-10" points="113.453 396.777 106.079 401.035 106.095 406.623 113.453 402.375 113.453 396.777"/><path class="cls-16" d="M110.257,402.8c.277.305-.031,1.076-.487,1.339-.7.405-.828-.7-.119-1.276.15-.384,1.368-3.481,1.217-3.1Z"/><path class="cls-17" d="M111.7,399.4l-.681,1.1a.834.834,0,0,0-.281-.113l.126-.628-.24.611c-.864-.076-1.76.875-2.188,1.7l-.684-.317C108.508,400.323,110.355,398.525,111.7,399.4Z"/><path class="cls-18" d="M111.7,399.4a1.9,1.9,0,0,1,.722,1.667l-.921.532a1.225,1.225,0,0,0-.482-1.094Z"/><path class="cls-15" d="M107.755,401.759l.684.317a3.4,3.4,0,0,0-.41,1.528l-.923.532A5.259,5.259,0,0,1,107.755,401.759Z"/><path class="cls-8" d="M99.805,393.132c1.418-.818,2.572-.171,2.576,1.468a5.619,5.619,0,0,1-2.559,4.411c-1.408.813-2.562.166-2.567-1.452A5.625,5.625,0,0,1,99.805,393.132Z"/><path class="cls-8" d="M110.288,387.08c1.408-.813,2.571-.171,2.576,1.468a5.641,5.641,0,0,1-2.56,4.412c-1.408.813-2.562.165-2.566-1.453A5.623,5.623,0,0,1,110.288,387.08Z"/><g class="cls-1"><path class="cls-9" d="M98.79,392.541c-2.169,1.252-3.458,5.1-1.807,6.058l1.016.59a1.781,1.781,0,0,1-.744-1.63c-.007-2.563,2.734-5.565,4.379-4.608C100.9,392.666,100.31,391.663,98.79,392.541Z"/><path class="cls-9" d="M111.1,386.312a1.811,1.811,0,0,0-1.827.178c-2.169,1.252-3.457,5.1-1.807,6.057l1.016.59c-1.691-.982-.334-4.822,1.807-6.057a1.814,1.814,0,0,1,1.827-.178Z"/></g><g class="cls-1"><path class="cls-19" d="M101.306,393.615c-1.386-.806-3.586,1.72-3.58,3.769a1.46,1.46,0,0,0,.612,1.338l1.154.671c-1.387-.806-.271-3.954,1.473-4.961a1.482,1.482,0,0,1,1.5-.146Z"/><path class="cls-18" d="M100.965,394.432c1.161-.67,2.1-.132,2.109,1.2a4.615,4.615,0,0,1-2.095,3.617c-1.15.664-2.095.126-2.1-1.2A4.614,4.614,0,0,1,100.965,394.432Z"/></g><g class="cls-1"><path class="cls-20" d="M111.968,387.617a1.482,1.482,0,0,0-1.5.146,4.612,4.612,0,0,0-2.085,3.623,1.46,1.46,0,0,0,.612,1.338l1.154.671a1.46,1.46,0,0,1-.612-1.338c-.006-2.106,2.244-4.546,3.58-3.769Z"/><path class="cls-21" d="M111.627,388.434c1.161-.67,2.105-.132,2.109,1.2a4.618,4.618,0,0,1-2.095,3.617c-1.151.664-2.095.126-2.1-1.2A4.615,4.615,0,0,1,111.627,388.434Z"/></g><g class="cls-1"><path class="cls-8" d="M95.13,425.655,115.147,414.1a11.722,11.722,0,0,0,5.311-9.2l-.11-31.171a3.733,3.733,0,0,0-1.557-3.418c.836.709,3.143.893,3.153,4.345l.11,31.172a11.726,11.726,0,0,1-5.311,9.2L96.726,426.582a3.758,3.758,0,0,1-3.793.369l-1.6-.927A3.758,3.758,0,0,0,95.13,425.655Z"/><path class="cls-8" d="M94.98,380.39,115,368.833c1.925-1.111,3.671-1.213,4.933-.479l1.6.927c-1.262-.733-3.009-.632-4.933.48L96.576,381.317a15.256,15.256,0,0,0-6.914,11.976l.11,31.171c.006,2.182.78,3.718,2.025,4.442-.821-.724-3.608-1-3.621-5.369l-.11-31.172A15.255,15.255,0,0,1,94.98,380.39Z"/></g><path class="cls-9" d="M116.592,369.761c3.826-2.209,6.947-.43,6.959,3.965l.111,31.172a15.26,15.26,0,0,1-6.914,11.972L96.731,428.426c-3.825,2.209-6.946.43-6.959-3.962l-.11-31.171a15.256,15.256,0,0,1,6.914-11.976ZM91.377,423.537c.01,3.376,2.408,4.743,5.349,3.045l20.017-11.556a11.724,11.724,0,0,0,5.311-9.2l-.11-31.172c-.01-3.378-2.409-4.745-5.346-3.049L96.581,383.161a11.725,11.725,0,0,0-5.314,9.2l.11,31.171"/><g class="cls-22"><path class="cls-23" d="M91.265,392.367l.112,31.17c.012,3.376,2.407,4.745,5.348,3.043l20.02-11.557a11.715,11.715,0,0,0,5.308-9.2l-.107-31.17c-.011-3.381-2.412-4.75-5.347-3.054L96.578,383.16A11.756,11.756,0,0,0,91.265,392.367Z"/></g><g class="cls-1"><path class="cls-9" d="M59.846,563.12,16.014,537.648A1.8,1.8,0,0,1,15.265,536a5.639,5.639,0,0,1,2.561-4.447l43.832,25.472a5.639,5.639,0,0,0-2.561,4.447A1.8,1.8,0,0,0,59.846,563.12Z"/><path class="cls-8" d="M61.658,557.024l.017,5.916c-1.421.821-2.574.164-2.578-1.469A5.639,5.639,0,0,1,61.658,557.024Z"/></g><g class="cls-1"><path class="cls-9" d="M59.846,547.441,16.014,521.969a1.8,1.8,0,0,1-.749-1.649,5.642,5.642,0,0,1,2.561-4.448l43.832,25.473a5.639,5.639,0,0,0-2.561,4.447A1.8,1.8,0,0,0,59.846,547.441Z"/><path class="cls-8" d="M61.658,541.345l.017,5.916c-1.421.82-2.574.164-2.578-1.469A5.639,5.639,0,0,1,61.658,541.345Z"/></g><g class="cls-1"><path class="cls-9" d="M59.846,531.762,16.014,506.29a1.8,1.8,0,0,1-.749-1.649,5.642,5.642,0,0,1,2.561-4.448l43.832,25.473a5.639,5.639,0,0,0-2.561,4.447A1.8,1.8,0,0,0,59.846,531.762Z"/><path class="cls-8" d="M61.658,525.665l.017,5.917c-1.421.82-2.574.164-2.578-1.469A5.642,5.642,0,0,1,61.658,525.665Z"/></g><g class="cls-1"><path class="cls-9" d="M59.846,516.083,16.014,490.611a1.8,1.8,0,0,1-.749-1.65,5.64,5.64,0,0,1,2.561-4.447l43.832,25.472a5.642,5.642,0,0,0-2.561,4.448A1.8,1.8,0,0,0,59.846,516.083Z"/><path class="cls-8" d="M61.658,509.986l.017,5.917c-1.421.82-2.574.164-2.578-1.469A5.642,5.642,0,0,1,61.658,509.986Z"/></g><g class="cls-1"><polygon class="cls-7" points="165.394 275.759 165.38 283.137 78.027 333.901 78.041 326.523 165.394 275.759"/><polygon class="cls-5" points="78.041 326.523 78.027 333.901 40.713 312.358 40.728 304.98 78.041 326.523"/><polygon class="cls-24" points="165.394 275.759 78.041 326.523 40.728 304.98 128.08 254.216 165.394 275.759"/></g></g></svg>