<svg xmlns="http://www.w3.org/2000/svg" viewBox="0 0 290.077 600"><defs><style>.cls-1{fill:#878787;}.cls-2{fill:#dadada;}.cls-3{fill:#9e9d9c;}.cls-4{fill:#3d3d3b;}.cls-5{isolation:isolate;}.cls-6{fill:#a8a8a8;}.cls-7{fill:#bcbcbb;}.cls-8{fill:#767676;}.cls-9{fill:#fff;}.cls-10{fill:#df5c11;}.cls-11{fill:#f1842c;}</style></defs><g id="arrow_event_critycal"><polygon class="cls-1" points="207.345 383.253 161.634 356.922 161.635 481.761 207.346 508.092 207.345 383.253"/><polygon class="cls-2" points="288.693 336.277 207.345 383.253 207.346 508.092 288.694 461.115 288.693 336.277"/><polygon class="cls-3" points="207.345 383.253 161.634 356.922 243.479 310.232 289.19 336.563 207.345 383.253"/><polygon class="cls-1" points="127.462 428.777 81.751 402.447 81.752 527.285 127.463 553.617 127.462 428.777"/><polygon class="cls-2" points="208.811 381.801 127.462 428.777 127.463 553.617 208.812 506.64 208.811 381.801"/><polygon class="cls-3" points="127.462 428.777 81.751 402.447 163.596 355.756 209.308 382.088 127.462 428.777"/><polygon class="cls-1" points="46.599 475.161 0.887 448.83 0.888 573.669 46.599 600 46.599 475.161"/><polygon class="cls-2" points="127.947 428.185 46.599 475.161 46.599 600 127.948 553.023 127.947 428.185"/><polygon class="cls-3" points="46.599 475.161 0.887 448.83 82.732 402.14 128.444 428.471 46.599 475.161"/><path class="cls-4" d="M10.951,529.752c-1-.578-1.813-.109-1.813,1.047a4.008,4.008,0,0,0,1.813,3.139L31.3,545.687c1,.579,1.813.11,1.813-1.046A4,4,0,0,0,31.3,541.5Z"/><path class="cls-4" d="M10.951,522.863c-1-.578-1.813-.11-1.813,1.047a4.008,4.008,0,0,0,1.813,3.139L31.3,538.8c1,.578,1.813.11,1.813-1.046a4,4,0,0,0-1.813-3.139Z"/><path class="cls-4" d="M10.951,515.974c-1-.578-1.812-.11-1.812,1.046a4,4,0,0,0,1.812,3.139L31.3,531.909c1,.578,1.814.109,1.814-1.046a4.008,4.008,0,0,0-1.813-3.14Z"/><path class="cls-4" d="M10.951,509.085c-1-.579-1.812-.11-1.812,1.046a4.006,4.006,0,0,0,1.812,3.139L31.3,525.02c1,.578,1.813.109,1.813-1.046a4.008,4.008,0,0,0-1.813-3.14Z"/><path class="cls-4" d="M10.951,502.2c-1-.578-1.812-.109-1.812,1.047a4.008,4.008,0,0,0,1.812,3.139L31.3,518.131c1,.578,1.813.109,1.813-1.046a4.006,4.006,0,0,0-1.813-3.14Z"/><path class="cls-4" d="M10.951,495.306c-1-.578-1.812-.109-1.812,1.046a4.008,4.008,0,0,0,1.812,3.14L31.3,511.242c1,.578,1.813.109,1.813-1.047a4.006,4.006,0,0,0-1.813-3.139Z"/><path class="cls-4" d="M10.951,488.417c-1-.578-1.812-.109-1.812,1.046a4.01,4.01,0,0,0,1.812,3.14L31.3,504.352c1,.578,1.813.11,1.813-1.046a4.006,4.006,0,0,0-1.813-3.139Z"/><g class="cls-5"><polygon class="cls-6" points="252.047 383.658 271.544 372.328 271.291 461.341 251.795 472.671 252.047 383.658"/><polygon class="cls-4" points="257.573 408.159 265.985 403.269 265.766 434.159 257.354 439.049 257.573 408.159"/><polygon class="cls-7" points="235.039 373.839 254.536 362.509 271.544 372.328 252.047 383.658 235.039 373.839"/><polygon class="cls-8" points="252.047 383.658 251.795 472.671 234.787 462.852 235.039 373.839 252.047 383.658"/></g><path class="cls-9" d="M265.586,386.024a8.658,8.658,0,0,1-3.916,6.784c-2.164,1.249-3.917.236-3.917-2.262a8.658,8.658,0,0,1,3.916-6.784C263.833,382.513,265.586,383.526,265.586,386.024Z"/><path class="cls-9" d="M265.586,454.72a8.657,8.657,0,0,1-3.916,6.784c-2.164,1.249-3.917.236-3.917-2.261a8.655,8.655,0,0,1,3.916-6.784C263.833,451.209,265.586,452.222,265.586,454.72Z"/><g class="cls-5"><path class="cls-10" d="M264.083,415.01c-.155-.09-.31-.165-.47-.257l-6.2,3.605c.161.092.316.167.47.257a2.708,2.708,0,0,1,.355.24l6.2-3.605A2.635,2.635,0,0,0,264.083,415.01Z"/><path class="cls-10" d="M271.109,410.91a3.218,3.218,0,0,0-.934-.86,1.259,1.259,0,0,0-1.257-.123l-6.2,3.6a1.257,1.257,0,0,1,1.257.124,3.231,3.231,0,0,1,.936.859c.822,1.1,1.062,2.467.535,3.112l-4.274,5.1c.895,2.112.945,4.232,0,5.37a2.13,2.13,0,0,1-.559.475l6.2-3.605a2.114,2.114,0,0,0,.559-.475c.941-1.138.891-3.258,0-5.371l4.273-5.1C272.173,413.377,271.932,412.01,271.109,410.91Z"/><path class="cls-11" d="M263.971,413.656a3.231,3.231,0,0,1,.936.859c.822,1.1,1.062,2.467.535,3.112l-4.274,5.1c.895,2.112.945,4.232,0,5.37-.833.991-2.2.976-3.62.156-.17-.1-.143-9.895-.143-9.895.161.092.316.167.471.257a2.769,2.769,0,0,1,.354.24l4.255-5.132A1.119,1.119,0,0,1,263.971,413.656Z"/></g><g class="cls-5"><polygon class="cls-6" points="228.877 396.471 248.374 385.141 248.122 474.154 228.625 485.484 228.877 396.471"/><polygon class="cls-4" points="234.403 420.971 242.815 416.081 242.596 446.972 234.184 451.861 234.403 420.971"/><polygon class="cls-7" points="211.869 386.651 231.366 375.321 248.374 385.141 228.877 396.471 211.869 386.651"/><polygon class="cls-8" points="228.877 396.471 228.625 485.484 211.616 475.664 211.869 386.651 228.877 396.471"/></g><path class="cls-9" d="M242.416,398.836a8.658,8.658,0,0,1-3.917,6.784c-2.163,1.249-3.917.236-3.917-2.261a8.66,8.66,0,0,1,3.917-6.785C240.662,395.325,242.416,396.338,242.416,398.836Z"/><path class="cls-9" d="M242.416,467.532a8.658,8.658,0,0,1-3.917,6.784c-2.163,1.249-3.917.237-3.917-2.261a8.66,8.66,0,0,1,3.917-6.785C240.662,464.022,242.416,465.034,242.416,467.532Z"/><g class="cls-5"><path class="cls-10" d="M249.207,446.488l-5.076-9.765c.7-1.3.517-3.5-.6-5.673a9.252,9.252,0,0,0-3.085-3.485l-6.2,3.6a9.264,9.264,0,0,1,3.086,3.486c1.12,2.176,1.3,4.373.6,5.673L243,450.093c.605,1.151.545,2.311-.082,2.675l6.2-3.6C249.752,448.8,249.813,447.639,249.207,446.488Z"/><path class="cls-11" d="M234.239,431.17a9.253,9.253,0,0,1,3.086,3.485c1.12,2.176,1.3,4.373.6,5.673L243,450.093c.635,1.207.537,2.423-.177,2.722a1.34,1.34,0,0,1-1.164-.162,3.682,3.682,0,0,1-1.327-1.47l-5.075-9.765a5.484,5.484,0,0,1-1.05-.433Z"/></g><g class="cls-5"><polygon class="cls-6" points="206.151 411.524 225.648 400.194 225.396 489.206 205.899 500.537 206.151 411.524"/><polygon class="cls-4" points="211.677 436.023 220.089 431.134 219.87 462.024 211.458 466.914 211.677 436.023"/><polygon class="cls-7" points="189.143 401.704 208.64 390.373 225.648 400.194 206.151 411.524 189.143 401.704"/><polygon class="cls-8" points="206.151 411.524 205.899 500.537 188.89 490.717 189.143 401.704 206.151 411.524"/></g><path class="cls-9" d="M219.69,413.888a8.657,8.657,0,0,1-3.917,6.785c-2.163,1.249-3.917.236-3.917-2.262a8.658,8.658,0,0,1,3.917-6.784C217.936,410.378,219.69,411.391,219.69,413.888Z"/><path class="cls-9" d="M219.69,482.585a8.657,8.657,0,0,1-3.917,6.784c-2.163,1.249-3.917.236-3.917-2.262a8.659,8.659,0,0,1,3.917-6.784C217.936,479.074,219.69,480.087,219.69,482.585Z"/><g class="cls-5"><path class="cls-10" d="M218.187,442.875c-.155-.09-.31-.165-.47-.258l-6.2,3.6c.161.093.316.168.471.258a2.605,2.605,0,0,1,.354.24l6.2-3.605A2.7,2.7,0,0,0,218.187,442.875Z"/><path class="cls-10" d="M225.214,438.775a3.223,3.223,0,0,0-.936-.86,1.261,1.261,0,0,0-1.257-.123l-6.2,3.605a1.259,1.259,0,0,1,1.257.123,3.22,3.22,0,0,1,.935.86c.823,1.1,1.063,2.467.536,3.112l-4.274,5.1c.9,2.112.945,4.233,0,5.371a2.134,2.134,0,0,1-.56.475l6.2-3.605a2.114,2.114,0,0,0,.559-.475c.942-1.138.891-3.259,0-5.37l4.274-5.1C226.276,441.242,226.036,439.875,225.214,438.775Z"/><path class="cls-11" d="M218.075,441.52a3.22,3.22,0,0,1,.935.86c.823,1.1,1.063,2.467.536,3.112l-4.274,5.1c.9,2.113.945,4.233,0,5.371-.833.991-2.2.976-3.62.156-.171-.1-.143-9.9-.143-9.9.161.093.316.168.471.258a2.668,2.668,0,0,1,.354.24l4.254-5.133A1.122,1.122,0,0,1,218.075,441.52Z"/></g><g class="cls-5"><polygon class="cls-6" points="182.981 424.336 202.478 413.005 202.226 502.018 182.729 513.348 182.981 424.336"/><polygon class="cls-4" points="188.506 448.836 196.919 443.946 196.7 474.836 188.288 479.726 188.506 448.836"/><polygon class="cls-7" points="165.973 414.516 185.469 403.186 202.478 413.005 182.981 424.336 165.973 414.516"/><polygon class="cls-8" points="182.981 424.336 182.729 513.348 165.721 503.529 165.973 414.516 182.981 424.336"/></g><path class="cls-9" d="M196.521,426.7a8.659,8.659,0,0,1-3.917,6.784c-2.164,1.249-3.918.236-3.918-2.262a8.658,8.658,0,0,1,3.918-6.784C194.767,423.191,196.52,424.2,196.521,426.7Z"/><path class="cls-9" d="M196.521,495.4a8.658,8.658,0,0,1-3.917,6.784c-2.164,1.249-3.918.236-3.918-2.261a8.656,8.656,0,0,1,3.918-6.784C194.767,491.886,196.52,492.9,196.521,495.4Z"/><g class="cls-5"><path class="cls-10" d="M203.311,474.352l-5.075-9.764c.7-1.3.516-3.5-.6-5.674a9.267,9.267,0,0,0-3.087-3.484l-6.2,3.605a9.25,9.25,0,0,1,3.086,3.484c1.119,2.178,1.3,4.374.6,5.674l5.076,9.765c.6,1.151.544,2.311-.082,2.675l6.2-3.6C203.856,476.664,203.916,475.505,203.311,474.352Z"/><path class="cls-11" d="M188.343,459.035a9.245,9.245,0,0,1,3.086,3.485c1.12,2.177,1.3,4.373.6,5.673l5.076,9.765c.635,1.207.537,2.423-.176,2.722a1.341,1.341,0,0,1-1.165-.162,3.68,3.68,0,0,1-1.326-1.47l-5.076-9.765a5.331,5.331,0,0,1-1.049-.434Z"/></g><g class="cls-5"><polygon class="cls-6" points="159.807 437.07 179.304 425.74 179.052 514.753 159.555 526.083 159.807 437.07"/><polygon class="cls-4" points="165.333 461.57 173.745 456.68 173.527 487.571 165.114 492.46 165.333 461.57"/><polygon class="cls-7" points="142.799 427.25 162.296 415.92 179.304 425.74 159.807 437.07 142.799 427.25"/><polygon class="cls-8" points="159.807 437.07 159.555 526.083 142.547 516.263 142.799 427.25 159.807 437.07"/></g><path class="cls-9" d="M173.347,439.435a8.658,8.658,0,0,1-3.917,6.784c-2.164,1.249-3.917.237-3.917-2.261a8.659,8.659,0,0,1,3.916-6.785C171.593,435.924,173.347,436.937,173.347,439.435Z"/><path class="cls-9" d="M173.347,508.131a8.658,8.658,0,0,1-3.917,6.784c-2.164,1.249-3.917.237-3.917-2.261a8.655,8.655,0,0,1,3.916-6.784C171.593,504.621,173.347,505.633,173.347,508.131Z"/><g class="cls-5"><path class="cls-10" d="M171.843,468.421c-.155-.089-.31-.164-.47-.257l-6.2,3.605c.161.093.315.167.47.257a2.8,2.8,0,0,1,.354.24l6.2-3.605A2.635,2.635,0,0,0,171.843,468.421Z"/><path class="cls-10" d="M178.87,464.321a3.216,3.216,0,0,0-.935-.859,1.26,1.26,0,0,0-1.257-.124l-6.2,3.6a1.262,1.262,0,0,1,1.257.124,3.206,3.206,0,0,1,.936.859c.822,1.1,1.062,2.468.535,3.112l-4.273,5.1c.894,2.112.944,4.232,0,5.37a2.13,2.13,0,0,1-.559.475l6.2-3.6a2.117,2.117,0,0,0,.559-.475c.942-1.139.892-3.259,0-5.371l4.273-5.1C179.933,466.789,179.692,465.421,178.87,464.321Z"/><path class="cls-11" d="M171.731,467.067a3.206,3.206,0,0,1,.936.859c.822,1.1,1.062,2.468.535,3.112l-4.273,5.1c.894,2.112.944,4.232,0,5.37-.832.992-2.2.976-3.619.156-.171-.1-.143-9.895-.143-9.895.161.093.315.167.47.257a2.8,2.8,0,0,1,.354.24l4.255-5.132A1.119,1.119,0,0,1,171.731,467.067Z"/></g><g class="cls-5"><polygon class="cls-6" points="136.637 449.882 156.134 438.552 155.882 527.565 136.385 538.895 136.637 449.882"/><polygon class="cls-4" points="142.163 474.382 150.575 469.493 150.356 500.383 141.944 505.272 142.163 474.382"/><polygon class="cls-7" points="119.629 440.063 139.126 428.732 156.134 438.552 136.637 449.882 119.629 440.063"/><polygon class="cls-8" points="136.637 449.882 136.385 538.895 119.377 529.076 119.629 440.063 136.637 449.882"/></g><path class="cls-9" d="M150.177,452.247a8.658,8.658,0,0,1-3.917,6.784c-2.164,1.249-3.918.237-3.918-2.261a8.656,8.656,0,0,1,3.918-6.784C148.423,448.737,150.177,449.749,150.177,452.247Z"/><path class="cls-9" d="M150.177,520.944a8.659,8.659,0,0,1-3.917,6.784c-2.164,1.248-3.918.236-3.918-2.262a8.656,8.656,0,0,1,3.918-6.784C148.423,517.433,150.177,518.445,150.177,520.944Z"/><g class="cls-5"><path class="cls-10" d="M156.968,499.9l-5.076-9.764c.7-1.3.517-3.5-.6-5.674a9.27,9.27,0,0,0-3.086-3.485l-6.2,3.605a9.251,9.251,0,0,1,3.085,3.485c1.12,2.177,1.3,4.373.6,5.673l5.076,9.765c.6,1.151.545,2.311-.082,2.675l6.2-3.6C157.512,502.21,157.573,501.051,156.968,499.9Z"/><path class="cls-11" d="M142,484.581a9.251,9.251,0,0,1,3.085,3.485c1.12,2.177,1.3,4.373.6,5.673l5.075,9.765c.635,1.207.537,2.423-.176,2.722a1.342,1.342,0,0,1-1.165-.162,3.68,3.68,0,0,1-1.326-1.47l-5.076-9.765a5.351,5.351,0,0,1-1.049-.433Z"/></g><g class="cls-5"><polygon class="cls-6" points="113.911 464.935 133.408 453.605 133.156 542.618 113.659 553.948 113.911 464.935"/><polygon class="cls-4" points="119.437 489.435 127.849 484.545 127.631 515.436 119.218 520.325 119.437 489.435"/><polygon class="cls-7" points="96.903 455.115 116.4 443.785 133.408 453.605 113.911 464.935 96.903 455.115"/><polygon class="cls-8" points="113.911 464.935 113.659 553.948 96.651 544.128 96.903 455.115 113.911 464.935"/></g><path class="cls-9" d="M127.451,467.3a8.658,8.658,0,0,1-3.917,6.784c-2.164,1.249-3.917.236-3.917-2.261a8.659,8.659,0,0,1,3.917-6.785C125.7,463.789,127.451,464.8,127.451,467.3Z"/><path class="cls-9" d="M127.451,536a8.661,8.661,0,0,1-3.917,6.785c-2.164,1.248-3.917.236-3.917-2.262a8.657,8.657,0,0,1,3.917-6.785C125.7,532.485,127.451,533.5,127.451,536Z"/><g class="cls-5"><path class="cls-10" d="M125.947,496.287c-.155-.09-.31-.166-.47-.258l-6.2,3.6c.16.093.315.169.47.258a2.635,2.635,0,0,1,.354.24l6.2-3.6A2.624,2.624,0,0,0,125.947,496.287Z"/><path class="cls-10" d="M132.974,492.186a3.22,3.22,0,0,0-.936-.859,1.256,1.256,0,0,0-1.257-.123l-6.2,3.6a1.261,1.261,0,0,1,1.258.124,3.241,3.241,0,0,1,.935.859c.822,1.1,1.062,2.468.535,3.112l-4.274,5.1c.9,2.111.945,4.232,0,5.371a2.133,2.133,0,0,1-.559.475l6.2-3.6a2.137,2.137,0,0,0,.559-.476c.942-1.138.892-3.258,0-5.37l4.273-5.1C134.036,494.653,133.8,493.286,132.974,492.186Z"/><path class="cls-11" d="M125.836,494.932a3.241,3.241,0,0,1,.935.859c.822,1.1,1.062,2.468.535,3.112l-4.274,5.1c.9,2.112.945,4.232,0,5.371-.833.99-2.2.975-3.619.156-.171-.1-.143-9.9-.143-9.9.16.093.315.169.47.258a2.7,2.7,0,0,1,.354.24L124.353,495A1.121,1.121,0,0,1,125.836,494.932Z"/></g><g class="cls-5"><polygon class="cls-6" points="90.742 477.747 110.238 466.417 109.986 555.43 90.489 566.76 90.742 477.747"/><polygon class="cls-4" points="96.267 502.247 104.679 497.357 104.46 528.248 96.048 533.137 96.267 502.247"/><polygon class="cls-7" points="73.733 467.927 93.23 456.597 110.238 466.417 90.742 477.747 73.733 467.927"/><polygon class="cls-8" points="90.742 477.747 90.489 566.76 73.481 556.94 73.733 467.927 90.742 477.747"/></g><path class="cls-9" d="M104.281,480.112a8.658,8.658,0,0,1-3.917,6.784c-2.163,1.249-3.917.237-3.917-2.261a8.657,8.657,0,0,1,3.917-6.785C102.527,476.6,104.28,477.614,104.281,480.112Z"/><path class="cls-9" d="M104.281,548.808a8.658,8.658,0,0,1-3.917,6.784c-2.163,1.249-3.917.237-3.917-2.261a8.655,8.655,0,0,1,3.917-6.784C102.527,545.3,104.28,546.311,104.281,548.808Z"/><g class="cls-5"><path class="cls-10" d="M111.072,527.764,106,518c.7-1.3.516-3.5-.6-5.673a9.269,9.269,0,0,0-3.086-3.485l-6.2,3.605a9.253,9.253,0,0,1,3.086,3.485c1.12,2.177,1.3,4.373.6,5.673l5.076,9.765c.606,1.152.545,2.311-.082,2.675l6.2-3.605C111.616,530.075,111.676,528.916,111.072,527.764Z"/><path class="cls-11" d="M96.1,512.446a9.253,9.253,0,0,1,3.086,3.485c1.12,2.177,1.3,4.373.6,5.674l5.076,9.764c.635,1.207.537,2.423-.176,2.722a1.341,1.341,0,0,1-1.165-.162,3.687,3.687,0,0,1-1.326-1.47l-5.076-9.765a5.413,5.413,0,0,1-1.049-.433Z"/></g></g></svg>