<svg id="Capa_1" data-name="Capa 1" xmlns="http://www.w3.org/2000/svg" xmlns:xlink="http://www.w3.org/1999/xlink" viewBox="0 0 392.182 600"><defs><style>.cls-1{fill:#a0a3a2;}.cls-2{fill:#c1c6c7;}.cls-3{fill:#e9eced;}.cls-10,.cls-11,.cls-12,.cls-13,.cls-14,.cls-15,.cls-16,.cls-17,.cls-18,.cls-19,.cls-4,.cls-5,.cls-6,.cls-7,.cls-8,.cls-9{opacity:0.4;}.cls-4{fill:url(#linear-gradient);}.cls-5{fill:url(#linear-gradient-2);}.cls-6{fill:url(#linear-gradient-3);}.cls-7{fill:url(#linear-gradient-4);}.cls-8{fill:url(#linear-gradient-5);}.cls-9{fill:url(#linear-gradient-6);}.cls-10{fill:url(#linear-gradient-7);}.cls-11{fill:url(#linear-gradient-8);}.cls-12{fill:url(#linear-gradient-9);}.cls-13{fill:url(#linear-gradient-10);}.cls-14{fill:url(#linear-gradient-11);}.cls-15{fill:url(#linear-gradient-12);}.cls-16{fill:url(#linear-gradient-13);}.cls-17{fill:url(#linear-gradient-14);}.cls-18{fill:url(#linear-gradient-15);}.cls-19{fill:url(#linear-gradient-16);}.cls-20{fill:#3c3c3f;}.cls-21{fill:#606065;}.cls-22{fill:#49494e;}.cls-23{fill:#e4e0dc;}.cls-24{fill:#a39c94;}.cls-25{fill:#d6cfc5;}.cls-26{fill:#584a44;}.cls-27{fill:#090909;}.cls-28{fill:#362d2a;}.cls-29{fill:#0a0b0b;}.cls-30{fill:#82cdde;}.cls-31{fill:#c8432f;}</style><linearGradient id="linear-gradient" x1="144.325" y1="406.084" x2="142.958" y2="408.451" gradientUnits="userSpaceOnUse"><stop offset="0" stop-color="#505557"/><stop offset="1" stop-color="#6b6f70"/></linearGradient><linearGradient id="linear-gradient-2" x1="144.325" y1="411.198" x2="142.958" y2="413.565" xlink:href="#linear-gradient"/><linearGradient id="linear-gradient-3" x1="144.325" y1="416.312" x2="142.958" y2="418.68" xlink:href="#linear-gradient"/><linearGradient id="linear-gradient-4" x1="144.325" y1="421.426" x2="142.958" y2="423.794" xlink:href="#linear-gradient"/><linearGradient id="linear-gradient-5" x1="144.325" y1="426.54" x2="142.958" y2="428.907" xlink:href="#linear-gradient"/><linearGradient id="linear-gradient-6" x1="144.325" y1="431.654" x2="142.958" y2="434.021" xlink:href="#linear-gradient"/><linearGradient id="linear-gradient-7" x1="144.325" y1="436.768" x2="142.958" y2="439.135" xlink:href="#linear-gradient"/><linearGradient id="linear-gradient-8" x1="144.325" y1="441.882" x2="142.958" y2="444.249" xlink:href="#linear-gradient"/><linearGradient id="linear-gradient-9" x1="197.673" y1="436.884" x2="196.306" y2="439.252" xlink:href="#linear-gradient"/><linearGradient id="linear-gradient-10" x1="197.673" y1="441.998" x2="196.306" y2="444.366" xlink:href="#linear-gradient"/><linearGradient id="linear-gradient-11" x1="197.673" y1="447.112" x2="196.306" y2="449.48" xlink:href="#linear-gradient"/><linearGradient id="linear-gradient-12" x1="197.672" y1="452.226" x2="196.306" y2="454.594" xlink:href="#linear-gradient"/><linearGradient id="linear-gradient-13" x1="197.672" y1="457.34" x2="196.306" y2="459.708" xlink:href="#linear-gradient"/><linearGradient id="linear-gradient-14" x1="197.672" y1="462.454" x2="196.305" y2="464.822" xlink:href="#linear-gradient"/><linearGradient id="linear-gradient-15" x1="197.673" y1="467.568" x2="196.306" y2="469.936" xlink:href="#linear-gradient"/><linearGradient id="linear-gradient-16" x1="197.673" y1="472.682" x2="196.306" y2="475.05" xlink:href="#linear-gradient"/></defs><g id="_5" data-name="5"><g id="_5-2" data-name="5"><g id="Axonometric_Cube" data-name="Axonometric Cube"><polygon id="Cube_face_-_left" data-name="Cube face - left" class="cls-1" points="227.223 544.16 113.804 478.678 113.804 367.674 227.223 433.157 227.223 544.16"/><polygon id="Cube_face_-_right" data-name="Cube face - right" class="cls-2" points="390.121 450.111 227.223 544.16 227.223 433.157 390.121 339.107 390.121 450.111"/><polygon id="Cube_face_-_top" data-name="Cube face - top" class="cls-3" points="227.223 433.157 113.804 367.674 276.702 273.625 390.121 339.107 227.223 433.157"/></g><polygon class="cls-4" points="163.774 420.469 123.51 397.223 123.51 394.066 163.774 417.313 163.774 420.469"/><polygon class="cls-5" points="163.774 425.583 123.51 402.337 123.51 399.18 163.774 422.427 163.774 425.583"/><polygon class="cls-6" points="163.774 430.697 123.51 407.451 123.51 404.294 163.774 427.541 163.774 430.697"/><polygon class="cls-7" points="163.774 435.811 123.51 412.565 123.51 409.408 163.774 432.654 163.774 435.811"/><polygon class="cls-8" points="163.774 440.925 123.51 417.679 123.51 414.522 163.774 437.768 163.774 440.925"/><polygon class="cls-9" points="163.774 446.039 123.51 422.793 123.51 419.636 163.774 442.882 163.774 446.039"/><polygon class="cls-10" points="163.774 451.153 123.51 427.907 123.51 424.75 163.774 447.996 163.774 451.153"/><polygon class="cls-11" points="163.774 456.267 123.51 433.02 123.51 429.864 163.774 453.111 163.774 456.267"/><polygon class="cls-12" points="217.121 451.27 176.857 428.023 176.857 424.866 217.121 448.113 217.121 451.27"/><polygon class="cls-13" points="217.121 456.384 176.857 433.137 176.857 429.98 217.121 453.227 217.121 456.384"/><polygon class="cls-14" points="217.121 461.497 176.857 438.251 176.857 435.095 217.121 458.341 217.121 461.497"/><polygon class="cls-15" points="217.121 466.611 176.857 443.365 176.857 440.208 217.121 463.455 217.121 466.611"/><polygon class="cls-16" points="217.121 471.725 176.857 448.479 176.857 445.322 217.121 468.569 217.121 471.725"/><polygon class="cls-17" points="217.121 476.839 176.857 453.593 176.857 450.436 217.121 473.683 217.121 476.839"/><polygon class="cls-18" points="217.121 481.954 176.857 458.707 176.857 455.55 217.121 478.797 217.121 481.954"/><polygon class="cls-19" points="217.121 487.067 176.857 463.821 176.857 460.664 217.121 483.911 217.121 487.067"/></g><polygon class="cls-20" points="83.899 600 2.062 552.558 2.242 515.97 84.079 563.412 83.899 600"/><polygon class="cls-21" points="84.139 563.707 2.242 515.97 128.033 444.425 209.87 491.867 84.139 563.707"/><polygon class="cls-22" points="209.87 491.867 209.689 528.455 83.899 600 84.079 563.412 209.87 491.867"/></g><path class="cls-23" d="M376.66,385.71l-1.866-18.619-33.452,36.857,1.866,1.076Z"/><path class="cls-24" d="M374.794,384.631l1.866,1.079V368.167l-1.866-1.076-3.758,9.874Z"/><path class="cls-25" d="M374.794,384.631v-17.54l-33.452,19.315v17.542Z"/><path class="cls-23" d="M376.66,403.841l-1.866-18.618L341.342,422.08l1.866,1.076Z"/><path class="cls-24" d="M374.794,402.763l1.866,1.078V386.3l-1.866-1.076-3.758,9.873Z"/><path class="cls-25" d="M374.794,402.763v-17.54l-33.452,19.315V422.08Z"/><path class="cls-26" d="M369.323,403.6l-.943-13.173-22.537,25.652.933.534Z"/><path class="cls-27" d="M368.38,403.062l.943.533V390.956l-.943-.534L361.6,401.131Z"/><path class="cls-28" d="M368.38,403.062v-12.64l-22.537,13.013v12.639Z"/><polygon class="cls-29" points="366.884 395.341 366.884 393.047 346.734 404.687 346.734 413.901 348.71 412.763 354.272 406.464 366.884 395.341"/><polygon class="cls-30" points="366.884 402.265 366.884 395.341 348.71 405.829 348.71 412.763 366.884 402.265"/><path class="cls-23" d="M376.66,421.973l-1.866-18.618L341.342,440.21l1.866,1.078Z"/><path class="cls-24" d="M374.794,420.9l1.866,1.078V404.431l-1.866-1.076-3.758,9.873Z"/><path class="cls-25" d="M374.794,420.9v-17.54l-33.452,19.314V440.21Z"/><path class="cls-23" d="M376.66,446.816l-1.866-25.332-33.452,43.571,1.866,1.078Z"/><path class="cls-24" d="M374.794,445.74l1.866,1.076V422.562l-1.866-1.078-3.758,9.876Z"/><path class="cls-25" d="M374.794,445.74V421.484L341.342,440.8v24.254Z"/><polygon class="cls-31" points="353.505 449.773 359.319 446.417 359.319 449.694 353.505 453.052 353.505 449.773"/><polygon class="cls-31" points="360.103 449.241 360.103 445.965 362.632 444.504 362.632 447.78 360.103 449.241"/></svg>