<svg id="Capa_1" data-name="Capa 1" xmlns="http://www.w3.org/2000/svg" viewBox="0 0 182.476 600"><defs><style>.cls-1{fill:#a49d96;}.cls-2{fill:#e6e1dd;}.cls-3{fill:#dedede;}.cls-4{fill:#d7d1c7;}.cls-5{fill:#584a44;}.cls-6{fill:#090909;}.cls-7{fill:#362d2a;}.cls-8{fill:#0a0b0b;}.cls-9{fill:#82cddf;}.cls-10{fill:#c94130;}</style></defs><polygon class="cls-1" points="180.827 564.26 118.953 600 116.858 595.053 117.968 447.455 118.953 443.51 180.827 407.765 180.827 564.26"/><polygon class="cls-2" points="180.827 407.765 118.953 443.51 114.395 442.8 5.78 380.351 1.649 375.78 63.528 340.044 180.827 407.765"/><path class="cls-3" d="M1.649,375.78V532.271L118.953,600V443.51Z"/><polygon class="cls-1" points="145.341 387.282 120.845 401.425 120.021 399.465 120.456 314.822 120.845 313.259 145.341 299.112 145.341 387.282"/><polygon class="cls-2" points="145.341 299.112 120.845 313.259 119.042 312.98 76.044 288.261 74.41 286.453 98.909 272.302 145.341 299.112"/><polygon class="cls-1" points="139.588 298.082 119.067 309.939 80.167 287.484 100.688 275.627 139.588 298.082"/><path class="cls-4" d="M74.41,286.453v88.161l46.435,26.811V313.259Z"/><path class="cls-2" d="M98.913,474.747l2.281-1.315-40.906-45.07L58.007,451.13Z"/><path class="cls-1" d="M64.884,440.437l-4.6-12.075-2.281,1.316V451.13l2.281-1.32Z"/><path class="cls-4" d="M101.194,473.432V451.981L60.288,428.362V449.81Z"/><path class="cls-2" d="M98.913,496.919l2.281-1.315L60.288,450.535,58.007,473.3Z"/><path class="cls-1" d="M64.884,462.607l-4.6-12.072-2.281,1.315V473.3l2.281-1.318Z"/><path class="cls-4" d="M101.194,495.6V474.153L60.288,450.535v21.447Z"/><path class="cls-5" d="M94.55,488.913l1.14-.653L68.132,456.892,66.979,473Z"/><path class="cls-6" d="M76.424,469.987l-8.292-13.1-1.153.652V473l1.153-.652Z"/><path class="cls-7" d="M95.69,488.26V472.8L68.132,456.892v15.456Z"/><polygon class="cls-8" points="69.961 462.907 69.961 460.102 94.601 474.335 94.601 485.603 92.184 484.211 85.383 476.509 69.961 462.907"/><polygon class="cls-9" points="69.961 471.374 69.961 462.907 92.184 475.731 92.184 484.211 69.961 471.374"/><path class="cls-2" d="M98.913,519.092l2.281-1.318L60.288,472.707l-2.281,22.766Z"/><path class="cls-1" d="M64.884,484.779l-4.6-12.072-2.281,1.316v21.45l2.281-1.318Z"/><path class="cls-4" d="M101.194,517.774v-21.45L60.288,472.707v21.448Z"/><path class="cls-2" d="M98.913,549.474l2.281-1.318L60.288,494.875l-2.281,30.977Z"/><path class="cls-1" d="M64.884,506.952l-4.6-12.077-2.281,1.318v29.659l2.281-1.315Z"/><path class="cls-4" d="M101.194,548.156V518.5L60.288,494.875v29.662Z"/><polygon class="cls-10" points="86.321 529.468 79.212 525.365 79.212 529.371 86.321 533.477 86.321 529.468"/><polygon class="cls-10" points="78.253 528.818 78.253 524.811 75.161 523.024 75.161 527.031 78.253 528.818"/></svg>