<svg id="Capa_1" data-name="Capa 1" xmlns="http://www.w3.org/2000/svg" viewBox="0 0 369.244 600"><defs><style>.cls-1{fill:#53545a;}.cls-2{fill:#808386;}.cls-3{fill:#e7e8e9;}.cls-4{fill:#a7a9ab;}.cls-5{fill:#bdbec0;}.cls-6{fill:#e31f26;}.cls-7{fill:#e9444f;}.cls-8{fill:#9d2620;}.cls-9{fill:#313134;}.cls-10{fill:#939599;}.cls-11{fill:#f1f2f2;}.cls-12{fill:#3677ac;}</style></defs><rect class="cls-1" x="338.864" y="335.877" width="24.393" height="67.196"/><polygon class="cls-2" points="354.098 383.999 354.098 348.346 343.379 354.322 343.379 389.961 354.098 383.999"/><polygon class="cls-3" points="337.152 358.072 342.593 354.904 323.718 344.001 323.718 344.001 318.244 347.151 337.152 358.072"/><path class="cls-4" d="M318.244,347.151v35.181l18.908,10.909V358.072Z"/><polygon class="cls-5" points="337.152 393.241 342.593 390.093 342.593 390.093 342.593 354.904 342.593 354.904 337.152 358.072 337.152 393.241 337.152 393.241"/><polygon class="cls-1" points="338.864 387.09 340.916 385.904 340.916 369.582 338.864 370.748 338.864 387.09"/><polygon class="cls-6" points="339.749 376.27 339.749 377.813 336.901 376.164 336.901 376.164 336.901 374.639 339.749 376.27"/><path class="cls-7" d="M339.749,376.27l5.829-3.375-2.823-1.655-5.854,3.4Z"/><polygon class="cls-8" points="345.578 372.895 345.578 374.423 345.578 374.423 339.749 377.813 339.749 377.813 339.749 376.27 345.578 372.895 345.578 372.895"/><polygon class="cls-3" points="329.131 362.694 334.572 359.517 315.69 348.62 315.69 348.62 310.221 351.774 329.131 362.694"/><path class="cls-4" d="M310.221,351.774v35.181l18.91,10.908V362.694Z"/><polygon class="cls-5" points="329.131 397.863 334.572 394.713 334.572 394.713 334.572 359.517 334.572 359.517 329.131 362.694 329.131 397.863 329.131 397.863"/><polygon class="cls-1" points="330.852 391.716 332.892 390.527 332.892 374.196 330.852 375.376 330.852 391.716"/><polygon class="cls-6" points="331.727 380.895 331.727 382.438 328.883 380.786 328.883 380.786 328.883 379.252 331.727 380.895"/><path class="cls-7" d="M331.727,380.9l5.833-3.371-2.824-1.661-5.853,3.389Z"/><polygon class="cls-8" points="337.56 377.524 337.56 379.052 337.56 379.052 331.727 382.438 331.727 382.438 331.727 380.895 337.56 377.524 337.56 377.524"/><polygon class="cls-3" points="321.564 367.069 327.004 363.889 308.116 352.989 308.116 352.989 302.651 356.143 321.564 367.069"/><path class="cls-4" d="M302.651,356.143v35.166l18.913,10.915V367.069Z"/><polygon class="cls-5" points="321.564 402.224 327.004 399.079 327.004 399.079 327.004 363.889 327.004 363.889 321.564 367.069 321.564 402.224 321.564 402.224"/><polygon class="cls-1" points="323.277 396.091 325.325 394.896 325.325 378.577 323.277 379.748 323.277 396.091"/><polygon class="cls-6" points="324.156 385.27 324.156 386.804 321.311 385.152 321.311 385.152 321.311 383.621 324.156 385.27"/><path class="cls-7" d="M324.156,385.27,330,381.886l-2.832-1.654-5.857,3.389Z"/><polygon class="cls-8" points="330 381.886 330 383.42 330 383.42 324.156 386.804 324.156 386.804 324.156 385.27 330 381.886 330 381.886"/><polygon class="cls-3" points="313.544 371.689 318.982 368.506 300.101 357.612 300.101 357.612 294.627 360.765 313.544 371.689"/><path class="cls-4" d="M294.627,360.765v35.178l18.917,10.912V371.689Z"/><polygon class="cls-5" points="313.544 406.855 318.982 403.701 318.982 403.701 318.982 368.506 318.982 368.506 313.544 371.689 313.544 406.855 313.544 406.855"/><polygon class="cls-1" points="315.259 400.71 317.296 399.515 317.296 383.194 315.259 384.37 315.259 400.71"/><polygon class="cls-6" points="316.134 389.884 316.134 391.427 313.288 389.766 313.288 389.766 313.288 388.244 316.134 389.884"/><path class="cls-7" d="M316.134,389.884l5.842-3.378-2.829-1.649-5.859,3.387Z"/><polygon class="cls-8" points="321.976 386.506 321.976 388.037 321.976 388.037 316.134 391.427 316.134 391.427 316.134 389.884 321.976 386.506 321.976 386.506"/><polygon class="cls-3" points="272.672 394.937 311.427 372.886 292.537 361.989 292.537 361.989 253.726 384.046 272.672 394.937"/><path class="cls-4" d="M253.726,384.046V419.2l18.946,10.924V394.937Z"/><polygon class="cls-5" points="272.672 430.124 311.427 408.044 311.427 408.044 311.427 372.886 311.427 372.886 272.672 394.937 272.672 430.124 272.672 430.124"/><polygon class="cls-1" points="274.581 424.02 309.732 403.875 309.732 387.565 274.581 407.693 274.581 424.02"/><polygon class="cls-3" points="277.721 415.811 306.207 399.368 306.207 393.394 277.721 409.864 277.721 415.811"/><polygon class="cls-9" points="284.944 398.586 308.082 385.494 308.082 383.503 284.944 396.61 284.944 398.586"/><polygon class="cls-6" points="298.049 387.244 308.243 381.474 308.243 378.884 298.049 384.615 298.049 387.244"/><polygon class="cls-2" points="270.898 430.826 270.898 395.583 263.009 400.153 263.009 435.401 270.898 430.826"/><path class="cls-10" d="M248.268,387.86v73.987L357.784,398.4V324.422Zm102.992-5.711-96.47,55.889v-30.11l96.47-55.895Z"/><path class="cls-1" d="M355.9,366.211a4.034,4.034,0,0,1-1.805,3.13c-1.006.56-1.816.094-1.816-1.048a2.387,2.387,0,0,1,.024-.4,4.171,4.171,0,0,0,1.54-2.56,1.734,1.734,0,0,1,.252-.169C355.084,364.591,355.9,365.037,355.9,366.211Z"/><path class="cls-9" d="M353.84,365.332a4.171,4.171,0,0,1-1.54,2.56A4.155,4.155,0,0,1,353.84,365.332Z"/><path class="cls-11" d="M362.4,333.422l-105.283,61v61L362.4,394.412ZM263.634,443.867V393.205L360.1,337.3v50.676Z"/><polygon class="cls-3" points="257.962 471.824 222.323 451.251 222.323 366.497 288.005 373.751 261.688 389.604 262.196 451.682 257.962 471.824"/><polygon class="cls-11" points="331.833 303.047 222.323 366.497 257.962 387.07 282.028 380.595 367.473 323.617 331.833 303.047"/><path class="cls-5" d="M257.962,387.07v84.754L367.473,408.38V323.617Zm102.991,1.368-96.468,55.89V393.66l96.468-55.89Z"/><polygon class="cls-12" points="289.427 445.136 264.485 459.541 264.485 452.605 289.427 438.209 289.427 445.136"/><polygon class="cls-6" points="299.792 432.227 293.48 435.876 293.48 442.794 299.792 439.151 299.792 432.227"/><rect class="cls-1" x="338.864" y="249.115" width="24.393" height="67.196"/><polygon class="cls-2" points="354.098 297.237 354.098 261.584 343.379 267.561 343.379 303.199 354.098 297.237"/><polygon class="cls-3" points="337.152 271.31 342.593 268.142 323.718 257.239 323.718 257.239 318.244 260.39 337.152 271.31"/><path class="cls-4" d="M318.244,260.39v35.18l18.908,10.909V271.31Z"/><polygon class="cls-5" points="337.152 306.479 342.593 303.332 342.593 303.332 342.593 268.142 342.593 268.142 337.152 271.31 337.152 306.479 337.152 306.479"/><polygon class="cls-1" points="338.864 300.329 340.916 299.143 340.916 282.821 338.864 283.986 338.864 300.329"/><polygon class="cls-6" points="339.749 289.508 339.749 291.051 336.901 289.402 336.901 289.402 336.901 287.877 339.749 289.508"/><path class="cls-7" d="M339.749,289.508l5.829-3.374-2.823-1.655-5.854,3.4Z"/><polygon class="cls-8" points="345.578 286.134 345.578 287.662 345.578 287.662 339.749 291.051 339.749 291.051 339.749 289.508 345.578 286.134 345.578 286.134"/><polygon class="cls-3" points="329.131 275.933 334.572 272.756 315.69 261.859 315.69 261.859 310.221 265.012 329.131 275.933"/><path class="cls-4" d="M310.221,265.012v35.181l18.91,10.909V275.933Z"/><polygon class="cls-5" points="329.131 311.102 334.572 307.951 334.572 307.951 334.572 272.756 334.572 272.756 329.131 275.933 329.131 311.102 329.131 311.102"/><polygon class="cls-1" points="330.852 304.954 332.892 303.765 332.892 287.434 330.852 288.615 330.852 304.954"/><polygon class="cls-6" points="331.727 294.134 331.727 295.677 328.883 294.025 328.883 294.025 328.883 292.491 331.727 294.134"/><path class="cls-7" d="M331.727,294.134l5.833-3.372-2.824-1.661-5.853,3.39Z"/><polygon class="cls-8" points="337.56 290.762 337.56 292.29 337.56 292.29 331.727 295.677 331.727 295.677 331.727 294.134 337.56 290.762 337.56 290.762"/><polygon class="cls-3" points="321.564 280.308 327.004 277.127 308.116 266.227 308.116 266.227 302.651 269.381 321.564 280.308"/><path class="cls-4" d="M302.651,269.381v35.166l18.913,10.915V280.308Z"/><polygon class="cls-5" points="321.564 315.462 327.004 312.317 327.004 312.317 327.004 277.127 327.004 277.127 321.564 280.308 321.564 315.462 321.564 315.462"/><polygon class="cls-1" points="323.277 309.329 325.325 308.134 325.325 291.815 323.277 292.986 323.277 309.329"/><polygon class="cls-6" points="324.156 298.509 324.156 300.043 321.311 298.391 321.311 298.391 321.311 296.86 324.156 298.509"/><path class="cls-7" d="M324.156,298.509,330,295.125l-2.832-1.655-5.857,3.39Z"/><polygon class="cls-8" points="330 295.125 330 296.659 330 296.659 324.156 300.043 324.156 300.043 324.156 298.509 330 295.125 330 295.125"/><polygon class="cls-3" points="313.544 284.927 318.982 281.744 300.101 270.85 300.101 270.85 294.627 274.003 313.544 284.927"/><path class="cls-4" d="M294.627,274v35.179l18.917,10.911V284.927Z"/><polygon class="cls-5" points="313.544 320.093 318.982 316.94 318.982 316.94 318.982 281.744 318.982 281.744 313.544 284.927 313.544 320.093 313.544 320.093"/><polygon class="cls-1" points="315.259 313.949 317.296 312.754 317.296 296.432 315.259 297.609 315.259 313.949"/><polygon class="cls-6" points="316.134 303.122 316.134 304.665 313.288 303.004 313.288 303.004 313.288 301.482 316.134 303.122"/><path class="cls-7" d="M316.134,303.122l5.842-3.377-2.829-1.649-5.859,3.386Z"/><polygon class="cls-8" points="321.976 299.745 321.976 301.276 321.976 301.276 316.134 304.665 316.134 304.665 316.134 303.122 321.976 299.745 321.976 299.745"/><polygon class="cls-3" points="272.672 308.175 311.427 286.125 292.537 275.228 292.537 275.228 253.726 297.284 272.672 308.175"/><path class="cls-4" d="M253.726,297.284v35.155l18.946,10.923V308.175Z"/><polygon class="cls-5" points="272.672 343.362 311.427 321.282 311.427 321.282 311.427 286.125 311.427 286.125 272.672 308.175 272.672 343.362 272.672 343.362"/><polygon class="cls-1" points="274.581 337.259 309.732 317.114 309.732 300.804 274.581 320.931 274.581 337.259"/><polygon class="cls-3" points="277.721 329.049 306.207 312.606 306.207 306.633 277.721 323.102 277.721 329.049"/><polygon class="cls-9" points="284.944 311.825 308.082 298.733 308.082 296.742 284.944 309.848 284.944 311.825"/><polygon class="cls-6" points="298.049 300.482 308.243 294.712 308.243 292.122 298.049 297.854 298.049 300.482"/><polygon class="cls-2" points="270.898 344.064 270.898 308.821 263.009 313.391 263.009 348.64 270.898 344.064"/><path class="cls-10" d="M248.268,301.1v73.987l109.516-63.444V237.661Zm102.992-5.712-96.47,55.89v-30.11l96.47-55.895Z"/><path class="cls-1" d="M355.9,279.449a4.032,4.032,0,0,1-1.805,3.13c-1.006.561-1.816.095-1.816-1.047a2.381,2.381,0,0,1,.024-.4,4.173,4.173,0,0,0,1.54-2.561,1.648,1.648,0,0,1,.252-.168C355.084,277.829,355.9,278.275,355.9,279.449Z"/><path class="cls-9" d="M353.84,278.57a4.173,4.173,0,0,1-1.54,2.561A4.16,4.16,0,0,1,353.84,278.57Z"/><path class="cls-11" d="M362.4,246.661l-105.283,61v61L362.4,307.65ZM263.634,357.106V306.444l96.468-55.9v50.677Z"/><polygon class="cls-3" points="257.962 385.062 222.323 364.489 222.323 279.735 288.005 286.989 261.688 302.842 262.196 364.92 257.962 385.062"/><polygon class="cls-11" points="331.833 216.285 222.323 279.735 257.962 300.308 282.028 293.833 367.473 236.855 331.833 216.285"/><path class="cls-5" d="M257.962,300.308v84.754l109.511-63.444V236.855Zm102.991,1.369-96.468,55.889V306.9l96.468-55.889Z"/><polygon class="cls-12" points="289.427 358.374 264.485 372.779 264.485 365.844 289.427 351.448 289.427 358.374"/><polygon class="cls-6" points="299.792 345.466 293.48 349.115 293.48 356.032 299.792 352.389 299.792 345.466"/><rect class="cls-1" x="228.677" y="400.299" width="24.393" height="67.196"/><polygon class="cls-2" points="243.91 448.422 243.91 412.769 233.192 418.745 233.192 454.383 243.91 448.422"/><polygon class="cls-3" points="226.965 422.494 232.406 419.326 213.531 408.423 213.531 408.423 208.057 411.574 226.965 422.494"/><path class="cls-4" d="M208.057,411.574v35.181l18.908,10.909v-35.17Z"/><polygon class="cls-5" points="226.965 457.664 232.406 454.516 232.406 454.516 232.406 419.326 232.406 419.326 226.965 422.494 226.965 457.664 226.965 457.664"/><polygon class="cls-1" points="228.677 451.513 230.729 450.327 230.729 434.005 228.677 435.17 228.677 451.513"/><polygon class="cls-6" points="229.562 440.693 229.562 442.235 226.714 440.586 226.714 440.586 226.714 439.061 229.562 440.693"/><path class="cls-7" d="M229.562,440.693l5.829-3.375-2.823-1.655-5.854,3.4Z"/><polygon class="cls-8" points="235.391 437.318 235.391 438.846 235.391 438.846 229.562 442.235 229.562 442.235 229.562 440.693 235.391 437.318 235.391 437.318"/><polygon class="cls-3" points="218.944 427.117 224.385 423.94 205.503 413.043 205.503 413.043 200.034 416.197 218.944 427.117"/><path class="cls-4" d="M200.034,416.2v35.18l18.91,10.909V427.117Z"/><polygon class="cls-5" points="218.944 462.286 224.385 459.136 224.385 459.136 224.385 423.94 224.385 423.94 218.944 427.117 218.944 462.286 218.944 462.286"/><polygon class="cls-1" points="220.665 456.138 222.705 454.95 222.705 438.619 220.665 439.799 220.665 456.138"/><polygon class="cls-6" points="221.54 445.318 221.54 446.861 218.696 445.209 218.696 445.209 218.696 443.675 221.54 445.318"/><path class="cls-7" d="M221.54,445.318l5.833-3.372-2.824-1.66-5.853,3.389Z"/><polygon class="cls-8" points="227.373 441.946 227.373 443.475 227.373 443.475 221.54 446.861 221.54 446.861 221.54 445.318 227.373 441.946 227.373 441.946"/><polygon class="cls-3" points="211.377 431.492 216.817 428.312 197.929 417.412 197.929 417.412 192.464 420.565 211.377 431.492"/><path class="cls-4" d="M192.464,420.565v35.166l18.913,10.915V431.492Z"/><polygon class="cls-5" points="211.377 466.646 216.817 463.501 216.817 463.501 216.817 428.312 216.817 428.312 211.377 431.492 211.377 466.646 211.377 466.646"/><polygon class="cls-1" points="213.09 460.513 215.138 459.319 215.138 442.999 213.09 444.171 213.09 460.513"/><polygon class="cls-6" points="213.969 449.693 213.969 451.227 211.124 449.575 211.124 449.575 211.124 448.044 213.969 449.693"/><path class="cls-7" d="M213.969,449.693l5.844-3.384-2.832-1.655-5.857,3.39Z"/><polygon class="cls-8" points="219.813 446.309 219.813 447.843 219.813 447.843 213.969 451.227 213.969 451.227 213.969 449.693 219.813 446.309 219.813 446.309"/><polygon class="cls-3" points="203.357 436.112 208.795 432.928 189.914 422.034 189.914 422.034 184.44 425.188 203.357 436.112"/><path class="cls-4" d="M184.44,425.188v35.178l18.917,10.912V436.112Z"/><polygon class="cls-5" points="203.357 471.278 208.795 468.124 208.795 468.124 208.795 432.928 208.795 432.928 203.357 436.112 203.357 471.278 203.357 471.278"/><polygon class="cls-1" points="205.072 465.133 207.109 463.938 207.109 447.616 205.072 448.793 205.072 465.133"/><polygon class="cls-6" points="205.947 454.307 205.947 455.849 203.101 454.188 203.101 454.188 203.101 452.666 205.947 454.307"/><path class="cls-7" d="M205.947,454.307l5.842-3.378-2.829-1.649-5.859,3.386Z"/><polygon class="cls-8" points="211.789 450.929 211.789 452.46 211.789 452.46 205.947 455.849 205.947 455.849 205.947 454.307 211.789 450.929 211.789 450.929"/><polygon class="cls-3" points="162.485 459.36 201.24 437.309 182.35 426.412 182.35 426.412 143.539 448.469 162.485 459.36"/><path class="cls-4" d="M143.539,448.469v35.154l18.946,10.924V459.36Z"/><polygon class="cls-5" points="162.485 494.547 201.24 472.466 201.24 472.466 201.24 437.309 201.24 437.309 162.485 459.36 162.485 494.547 162.485 494.547"/><polygon class="cls-1" points="164.394 488.443 199.545 468.298 199.545 451.988 164.394 472.115 164.394 488.443"/><polygon class="cls-3" points="167.534 480.233 196.02 463.79 196.02 457.817 167.534 474.287 167.534 480.233"/><polygon class="cls-9" points="174.757 463.009 197.895 449.917 197.895 447.926 174.757 461.033 174.757 463.009"/><polygon class="cls-6" points="187.862 451.666 198.056 445.896 198.056 443.306 187.862 449.038 187.862 451.666"/><polygon class="cls-2" points="160.711 495.249 160.711 460.006 152.821 464.575 152.821 499.824 160.711 495.249"/><path class="cls-10" d="M138.081,452.283V526.27L247.6,462.826V388.845Zm102.992-5.711L144.6,502.461v-30.11l96.47-55.895Z"/><path class="cls-1" d="M245.71,430.633a4.032,4.032,0,0,1-1.805,3.13c-1.006.561-1.816.1-1.816-1.047a2.387,2.387,0,0,1,.024-.4,4.172,4.172,0,0,0,1.539-2.561,1.788,1.788,0,0,1,.253-.168C244.9,429.014,245.71,429.459,245.71,430.633Z"/><path class="cls-9" d="M243.652,429.754a4.172,4.172,0,0,1-1.539,2.561A4.163,4.163,0,0,1,243.652,429.754Z"/><path class="cls-11" d="M252.209,397.845l-105.283,61v61l105.283-61.007ZM153.447,508.29V457.628l96.468-55.9V452.4Z"/><polygon class="cls-3" points="147.775 536.247 112.136 515.674 112.136 430.92 177.818 438.174 151.501 454.026 152.009 516.105 147.775 536.247"/><polygon class="cls-11" points="221.646 367.47 112.136 430.92 147.775 451.492 171.841 445.017 257.286 388.039 221.646 367.47"/><path class="cls-5" d="M147.775,451.492v84.755L257.286,472.8V388.039Zm102.991,1.369L154.3,508.75V458.083l96.468-55.89Z"/><polygon class="cls-12" points="179.239 509.559 154.298 523.963 154.298 517.028 179.239 502.632 179.239 509.559"/><polygon class="cls-6" points="189.605 496.65 183.293 500.299 183.293 507.216 189.605 503.573 189.605 496.65"/><rect class="cls-1" x="228.677" y="312.876" width="24.393" height="67.196"/><polygon class="cls-2" points="243.91 360.998 243.91 325.345 233.192 331.321 233.192 366.96 243.91 360.998"/><polygon class="cls-3" points="226.965 335.071 232.406 331.903 213.531 321 213.531 321 208.057 324.15 226.965 335.071"/><path class="cls-4" d="M208.057,324.15v35.181l18.908,10.909V335.071Z"/><polygon class="cls-5" points="226.965 370.24 232.406 367.092 232.406 367.092 232.406 331.903 232.406 331.903 226.965 335.071 226.965 370.24 226.965 370.24"/><polygon class="cls-1" points="228.677 364.089 230.729 362.903 230.729 346.581 228.677 347.747 228.677 364.089"/><polygon class="cls-6" points="229.562 353.269 229.562 354.812 226.714 353.163 226.714 353.163 226.714 351.638 229.562 353.269"/><path class="cls-7" d="M229.562,353.269l5.829-3.375-2.823-1.655-5.854,3.4Z"/><polygon class="cls-8" points="235.391 349.894 235.391 351.422 235.391 351.422 229.562 354.812 229.562 354.812 229.562 353.269 235.391 349.894 235.391 349.894"/><polygon class="cls-3" points="218.944 339.693 224.385 336.516 205.503 325.619 205.503 325.619 200.034 328.773 218.944 339.693"/><path class="cls-4" d="M200.034,328.773v35.181l18.91,10.908V339.693Z"/><polygon class="cls-5" points="218.944 374.862 224.385 371.712 224.385 371.712 224.385 336.516 224.385 336.516 218.944 339.693 218.944 374.862 218.944 374.862"/><polygon class="cls-1" points="220.665 368.715 222.705 367.526 222.705 351.195 220.665 352.375 220.665 368.715"/><polygon class="cls-6" points="221.54 357.894 221.54 359.437 218.696 357.785 218.696 357.785 218.696 356.251 221.54 357.894"/><path class="cls-7" d="M221.54,357.894l5.833-3.371-2.824-1.661-5.853,3.389Z"/><polygon class="cls-8" points="227.373 354.523 227.373 356.051 227.373 356.051 221.54 359.437 221.54 359.437 221.54 357.894 227.373 354.523 227.373 354.523"/><polygon class="cls-3" points="211.377 344.068 216.817 340.888 197.929 329.988 197.929 329.988 192.464 333.142 211.377 344.068"/><path class="cls-4" d="M192.464,333.142v35.166l18.913,10.914V344.068Z"/><polygon class="cls-5" points="211.377 379.222 216.817 376.078 216.817 376.078 216.817 340.888 216.817 340.888 211.377 344.068 211.377 379.222 211.377 379.222"/><polygon class="cls-1" points="213.09 373.089 215.138 371.895 215.138 355.576 213.09 356.747 213.09 373.089"/><polygon class="cls-6" points="213.969 362.269 213.969 363.803 211.124 362.151 211.124 362.151 211.124 360.62 213.969 362.269"/><path class="cls-7" d="M213.969,362.269l5.844-3.384-2.832-1.654-5.857,3.389Z"/><polygon class="cls-8" points="219.813 358.885 219.813 360.419 219.813 360.419 213.969 363.803 213.969 363.803 213.969 362.269 219.813 358.885 219.813 358.885"/><polygon class="cls-3" points="203.357 348.688 208.795 345.505 189.914 334.611 189.914 334.611 184.44 337.764 203.357 348.688"/><path class="cls-4" d="M184.44,337.764v35.178l18.917,10.912V348.688Z"/><polygon class="cls-5" points="203.357 383.854 208.795 380.7 208.795 380.7 208.795 345.505 208.795 345.505 203.357 348.688 203.357 383.854 203.357 383.854"/><polygon class="cls-1" points="205.072 377.709 207.109 376.514 207.109 360.193 205.072 361.369 205.072 377.709"/><polygon class="cls-6" points="205.947 366.883 205.947 368.425 203.101 366.765 203.101 366.765 203.101 365.243 205.947 366.883"/><path class="cls-7" d="M205.947,366.883l5.842-3.378-2.829-1.649-5.859,3.387Z"/><polygon class="cls-8" points="211.789 363.505 211.789 365.036 211.789 365.036 205.947 368.425 205.947 368.425 205.947 366.883 211.789 363.505 211.789 363.505"/><polygon class="cls-3" points="162.485 371.936 201.24 349.885 182.35 338.988 182.35 338.988 143.539 361.045 162.485 371.936"/><path class="cls-4" d="M143.539,361.045V396.2l18.946,10.924V371.936Z"/><polygon class="cls-5" points="162.485 407.123 201.24 385.042 201.24 385.042 201.24 349.885 201.24 349.885 162.485 371.936 162.485 407.123 162.485 407.123"/><polygon class="cls-1" points="164.394 401.019 199.545 380.874 199.545 364.564 164.394 384.691 164.394 401.019"/><polygon class="cls-3" points="167.534 392.81 196.02 376.367 196.02 370.393 167.534 386.863 167.534 392.81"/><polygon class="cls-9" points="174.757 375.585 197.895 362.493 197.895 360.502 174.757 373.609 174.757 375.585"/><polygon class="cls-6" points="187.862 364.243 198.056 358.473 198.056 355.883 187.862 361.614 187.862 364.243"/><polygon class="cls-2" points="160.711 407.825 160.711 372.582 152.821 377.151 152.821 412.4 160.711 407.825"/><path class="cls-10" d="M138.081,364.859v73.987L247.6,375.4V301.421Zm102.992-5.711L144.6,415.037v-30.11l96.47-55.9Z"/><path class="cls-1" d="M245.71,343.21a4.032,4.032,0,0,1-1.805,3.129c-1.006.561-1.816.1-1.816-1.047a2.387,2.387,0,0,1,.024-.4,4.172,4.172,0,0,0,1.539-2.56,1.8,1.8,0,0,1,.253-.169C244.9,341.59,245.71,342.036,245.71,343.21Z"/><path class="cls-9" d="M243.652,342.331a4.172,4.172,0,0,1-1.539,2.56A4.158,4.158,0,0,1,243.652,342.331Z"/><path class="cls-11" d="M252.209,310.421l-105.283,61v61l105.283-61.007ZM153.447,420.866V370.2l96.468-55.9v50.677Z"/><polygon class="cls-3" points="147.775 448.823 112.136 428.25 112.136 343.496 177.818 350.75 151.501 366.602 152.009 428.681 147.775 448.823"/><polygon class="cls-11" points="221.646 280.046 112.136 343.496 147.775 364.069 171.841 357.593 257.286 300.616 221.646 280.046"/><path class="cls-5" d="M147.775,364.069v84.754l109.511-63.444V300.616Zm102.991,1.368L154.3,421.327V370.659l96.468-55.89Z"/><polygon class="cls-12" points="179.239 422.135 154.298 436.539 154.298 429.604 179.239 415.208 179.239 422.135"/><polygon class="cls-6" points="189.605 409.226 183.293 412.875 183.293 419.793 189.605 416.15 189.605 409.226"/><rect class="cls-1" x="118.313" y="464.053" width="24.393" height="67.196"/><polygon class="cls-2" points="133.546 512.175 133.546 476.522 122.828 482.498 122.828 518.137 133.546 512.175"/><polygon class="cls-3" points="116.601 486.248 122.042 483.08 103.167 472.177 103.167 472.177 97.693 475.327 116.601 486.248"/><path class="cls-4" d="M97.693,475.327v35.181L116.6,521.417V486.248Z"/><polygon class="cls-5" points="116.601 521.417 122.042 518.269 122.042 518.269 122.042 483.08 122.042 483.08 116.601 486.248 116.601 521.417 116.601 521.417"/><polygon class="cls-1" points="118.313 515.266 120.365 514.08 120.365 497.758 118.313 498.924 118.313 515.266"/><polygon class="cls-6" points="119.198 504.446 119.198 505.989 116.35 504.34 116.35 504.34 116.35 502.815 119.198 504.446"/><path class="cls-7" d="M119.2,504.446l5.829-3.375-2.823-1.655-5.854,3.4Z"/><polygon class="cls-8" points="125.027 501.071 125.027 502.599 125.027 502.599 119.198 505.989 119.198 505.989 119.198 504.446 125.027 501.071 125.027 501.071"/><polygon class="cls-3" points="108.58 490.87 114.021 487.693 95.138 476.796 95.138 476.796 89.669 479.95 108.58 490.87"/><path class="cls-4" d="M89.669,479.95v35.181l18.911,10.908V490.87Z"/><polygon class="cls-5" points="108.58 526.039 114.021 522.889 114.021 522.889 114.021 487.693 114.021 487.693 108.58 490.87 108.58 526.039 108.58 526.039"/><polygon class="cls-1" points="110.301 519.892 112.341 518.703 112.341 502.372 110.301 503.552 110.301 519.892"/><polygon class="cls-6" points="111.176 509.071 111.176 510.614 108.332 508.962 108.332 508.962 108.332 507.428 111.176 509.071"/><path class="cls-7" d="M111.176,509.071l5.833-3.371-2.824-1.661-5.853,3.389Z"/><polygon class="cls-8" points="117.009 505.7 117.009 507.228 117.009 507.228 111.176 510.614 111.176 510.614 111.176 509.071 117.009 505.7 117.009 505.7"/><polygon class="cls-3" points="101.013 495.245 106.453 492.065 87.565 481.165 87.565 481.165 82.1 484.319 101.013 495.245"/><path class="cls-4" d="M82.1,484.319v35.166L101.013,530.4V495.245Z"/><polygon class="cls-5" points="101.013 530.4 106.453 527.255 106.453 527.255 106.453 492.065 106.453 492.065 101.013 495.245 101.013 530.4 101.013 530.4"/><polygon class="cls-1" points="102.726 524.267 104.774 523.072 104.774 506.753 102.726 507.924 102.726 524.267"/><polygon class="cls-6" points="103.605 513.446 103.605 514.98 100.759 513.328 100.759 513.328 100.759 511.797 103.605 513.446"/><path class="cls-7" d="M103.605,513.446l5.843-3.383-2.831-1.655-5.858,3.389Z"/><polygon class="cls-8" points="109.448 510.063 109.448 511.596 109.448 511.596 103.605 514.98 103.605 514.98 103.605 513.446 109.448 510.063 109.448 510.063"/><polygon class="cls-3" points="92.992 499.865 98.43 496.682 79.55 485.788 79.55 485.788 74.076 488.941 92.992 499.865"/><path class="cls-4" d="M74.076,488.941v35.178l18.916,10.912V499.865Z"/><polygon class="cls-5" points="92.992 535.031 98.43 531.877 98.43 531.877 98.43 496.682 98.43 496.682 92.992 499.865 92.992 535.031 92.992 535.031"/><polygon class="cls-1" points="94.708 528.886 96.744 527.691 96.744 511.37 94.708 512.546 94.708 528.886"/><polygon class="cls-6" points="95.582 518.06 95.582 519.603 92.737 517.942 92.737 517.942 92.737 516.42 95.582 518.06"/><path class="cls-7" d="M95.582,518.06l5.843-3.378L98.6,513.033l-5.859,3.387Z"/><polygon class="cls-8" points="101.425 514.682 101.425 516.213 101.425 516.213 95.582 519.603 95.582 519.603 95.582 518.06 101.425 514.682 101.425 514.682"/><polygon class="cls-3" points="52.121 523.113 90.876 501.062 71.986 490.165 71.986 490.165 33.175 512.222 52.121 523.113"/><path class="cls-4" d="M33.175,512.222v35.154L52.121,558.3V523.113Z"/><polygon class="cls-5" points="52.121 558.3 90.876 536.22 90.876 536.22 90.876 501.062 90.876 501.062 52.121 523.113 52.121 558.3 52.121 558.3"/><polygon class="cls-1" points="54.03 552.196 89.181 532.051 89.181 515.741 54.03 535.869 54.03 552.196"/><polygon class="cls-3" points="57.17 543.987 85.656 527.544 85.656 521.57 57.17 538.04 57.17 543.987"/><polygon class="cls-9" points="64.393 526.762 87.53 513.67 87.53 511.679 64.393 524.786 64.393 526.762"/><polygon class="cls-6" points="77.498 515.42 87.691 509.65 87.691 507.06 77.498 512.791 77.498 515.42"/><polygon class="cls-2" points="50.347 559.002 50.347 523.759 42.457 528.329 42.457 563.577 50.347 559.002"/><path class="cls-10" d="M27.716,516.036v73.987l109.516-63.444V452.6Zm102.993-5.711-96.47,55.889V536.1l96.47-55.9Z"/><path class="cls-1" d="M135.346,494.387a4.034,4.034,0,0,1-1.805,3.13c-1.006.56-1.816.094-1.816-1.048a2.49,2.49,0,0,1,.023-.4,4.166,4.166,0,0,0,1.54-2.56,1.742,1.742,0,0,1,.253-.169C134.533,492.767,135.346,493.213,135.346,494.387Z"/><path class="cls-9" d="M133.288,493.508a4.166,4.166,0,0,1-1.54,2.56A4.164,4.164,0,0,1,133.288,493.508Z"/><path class="cls-11" d="M141.844,461.6l-105.282,61v61l105.282-61.007ZM43.083,572.044V521.381l96.468-55.9v50.676Z"/><polygon class="cls-3" points="37.411 600 1.772 579.427 1.772 494.673 67.453 501.927 41.137 517.78 41.644 579.858 37.411 600"/><polygon class="cls-11" points="111.282 431.223 1.772 494.673 37.411 515.246 61.477 508.771 146.921 451.793 111.282 431.223"/><path class="cls-5" d="M37.411,515.246V600l109.51-63.444V451.793ZM140.4,516.614,43.934,572.5V521.836l96.468-55.89Z"/><polygon class="cls-12" points="68.875 573.312 43.934 587.717 43.934 580.781 68.875 566.385 68.875 573.312"/><polygon class="cls-6" points="79.241 560.403 72.929 564.052 72.929 570.97 79.241 567.327 79.241 560.403"/><rect class="cls-1" x="118.313" y="377.06" width="24.393" height="67.196"/><polygon class="cls-2" points="133.546 425.182 133.546 389.529 122.828 395.505 122.828 431.144 133.546 425.182"/><polygon class="cls-3" points="116.601 399.255 122.042 396.087 103.167 385.184 103.167 385.184 97.693 388.334 116.601 399.255"/><path class="cls-4" d="M97.693,388.334v35.181L116.6,434.424V399.255Z"/><polygon class="cls-5" points="116.601 434.424 122.042 431.276 122.042 431.276 122.042 396.087 122.042 396.087 116.601 399.255 116.601 434.424 116.601 434.424"/><polygon class="cls-1" points="118.313 428.273 120.365 427.087 120.365 410.766 118.313 411.931 118.313 428.273"/><polygon class="cls-6" points="119.198 417.453 119.198 418.996 116.35 417.347 116.35 417.347 116.35 415.822 119.198 417.453"/><path class="cls-7" d="M119.2,417.453l5.829-3.375-2.823-1.655-5.854,3.4Z"/><polygon class="cls-8" points="125.027 414.078 125.027 415.606 125.027 415.606 119.198 418.996 119.198 418.996 119.198 417.453 125.027 414.078 125.027 414.078"/><polygon class="cls-3" points="108.58 403.877 114.021 400.7 95.138 389.803 95.138 389.803 89.669 392.957 108.58 403.877"/><path class="cls-4" d="M89.669,392.957v35.181l18.911,10.908V403.877Z"/><polygon class="cls-5" points="108.58 439.046 114.021 435.896 114.021 435.896 114.021 400.7 114.021 400.7 108.58 403.877 108.58 439.046 108.58 439.046"/><polygon class="cls-1" points="110.301 432.899 112.341 431.71 112.341 415.379 110.301 416.559 110.301 432.899"/><polygon class="cls-6" points="111.176 422.078 111.176 423.621 108.332 421.969 108.332 421.969 108.332 420.435 111.176 422.078"/><path class="cls-7" d="M111.176,422.078l5.833-3.371-2.824-1.661-5.853,3.389Z"/><polygon class="cls-8" points="117.009 418.707 117.009 420.235 117.009 420.235 111.176 423.621 111.176 423.621 111.176 422.078 117.009 418.707 117.009 418.707"/><polygon class="cls-3" points="101.013 408.252 106.453 405.072 87.565 394.172 87.565 394.172 82.1 397.326 101.013 408.252"/><path class="cls-4" d="M82.1,397.326v35.166l18.913,10.915V408.252Z"/><polygon class="cls-5" points="101.013 443.407 106.453 440.262 106.453 440.262 106.453 405.072 106.453 405.072 101.013 408.252 101.013 443.407 101.013 443.407"/><polygon class="cls-1" points="102.726 437.274 104.774 436.079 104.774 419.76 102.726 420.931 102.726 437.274"/><polygon class="cls-6" points="103.605 426.453 103.605 427.987 100.759 426.335 100.759 426.335 100.759 424.804 103.605 426.453"/><path class="cls-7" d="M103.605,426.453l5.843-3.383-2.831-1.655-5.858,3.389Z"/><polygon class="cls-8" points="109.448 423.07 109.448 424.603 109.448 424.603 103.605 427.987 103.605 427.987 103.605 426.453 109.448 423.07 109.448 423.07"/><polygon class="cls-3" points="92.992 412.872 98.43 409.689 79.55 398.795 79.55 398.795 74.076 401.948 92.992 412.872"/><path class="cls-4" d="M74.076,401.948v35.178l18.916,10.912V412.872Z"/><polygon class="cls-5" points="92.992 448.038 98.43 444.884 98.43 444.884 98.43 409.689 98.43 409.689 92.992 412.872 92.992 448.038 92.992 448.038"/><polygon class="cls-1" points="94.708 441.893 96.744 440.698 96.744 424.377 94.708 425.553 94.708 441.893"/><polygon class="cls-6" points="95.582 431.067 95.582 432.61 92.737 430.949 92.737 430.949 92.737 429.427 95.582 431.067"/><path class="cls-7" d="M95.582,431.067l5.843-3.378L98.6,426.04l-5.859,3.387Z"/><polygon class="cls-8" points="101.425 427.689 101.425 429.22 101.425 429.22 95.582 432.61 95.582 432.61 95.582 431.067 101.425 427.689 101.425 427.689"/><polygon class="cls-3" points="52.121 436.12 90.876 414.069 71.986 403.172 71.986 403.172 33.175 425.229 52.121 436.12"/><path class="cls-4" d="M33.175,425.229v35.154l18.946,10.924V436.12Z"/><polygon class="cls-5" points="52.121 471.307 90.876 449.227 90.876 449.227 90.876 414.069 90.876 414.069 52.121 436.12 52.121 471.307 52.121 471.307"/><polygon class="cls-1" points="54.03 465.203 89.181 445.058 89.181 428.748 54.03 448.876 54.03 465.203"/><polygon class="cls-3" points="57.17 456.994 85.656 440.551 85.656 434.577 57.17 451.047 57.17 456.994"/><polygon class="cls-9" points="64.393 439.769 87.53 426.677 87.53 424.686 64.393 437.793 64.393 439.769"/><polygon class="cls-6" points="77.498 428.427 87.691 422.657 87.691 420.067 77.498 425.798 77.498 428.427"/><polygon class="cls-2" points="50.347 472.009 50.347 436.766 42.457 441.336 42.457 476.584 50.347 472.009"/><path class="cls-10" d="M27.716,429.043V503.03l109.516-63.444V365.605Zm102.993-5.711-96.47,55.889v-30.11l96.47-55.895Z"/><path class="cls-1" d="M135.346,407.394a4.034,4.034,0,0,1-1.805,3.13c-1.006.56-1.816.094-1.816-1.048a2.49,2.49,0,0,1,.023-.4,4.166,4.166,0,0,0,1.54-2.56,1.742,1.742,0,0,1,.253-.169C134.533,405.774,135.346,406.22,135.346,407.394Z"/><path class="cls-9" d="M133.288,406.515a4.166,4.166,0,0,1-1.54,2.56A4.164,4.164,0,0,1,133.288,406.515Z"/><path class="cls-11" d="M141.844,374.605l-105.282,61v61L141.844,435.6ZM43.083,485.051V434.388l96.468-55.9v50.676Z"/><polygon class="cls-3" points="37.411 513.007 1.772 492.434 1.772 407.68 67.453 414.934 41.137 430.787 41.644 492.865 37.411 513.007"/><polygon class="cls-11" points="111.282 344.23 1.772 407.68 37.411 428.253 61.477 421.778 146.921 364.8 111.282 344.23"/><path class="cls-5" d="M37.411,428.253v84.754l109.51-63.444V364.8ZM140.4,429.621l-96.468,55.89V434.843l96.468-55.89Z"/><polygon class="cls-12" points="68.875 486.319 43.934 500.724 43.934 493.788 68.875 479.392 68.875 486.319"/><polygon class="cls-6" points="79.241 473.41 72.929 477.059 72.929 483.977 79.241 480.334 79.241 473.41"/></svg>