<?xml version="1.0" encoding="utf-8"?>
<!-- Generator: Adobe Illustrator 26.0.1, SVG Export Plug-In . SVG Version: 6.00 Build 0)  -->
<svg version="1.1" id="Capa_1" xmlns="http://www.w3.org/2000/svg" xmlns:xlink="http://www.w3.org/1999/xlink" x="0px" y="0px"
	 viewBox="0 0 380.532 600" style="enable-background:new 0 0 380.532 600;" xml:space="preserve">
<g>
	<polygon style="fill:#797306;" points="81.155,464.461 81.155,600 0.866,557.455 0.866,421.916 	"/>
	<defs>
		<filter id="Adobe_OpacityMaskFilter" filterUnits="userSpaceOnUse" x="81.153" y="293.847" width="298.489" height="306.141">
			
				<feColorMatrix  type="matrix" values="-1 0 0 0 1  0 -1 0 0 1  0 0 -1 0 1  0 0 0 1 0" color-interpolation-filters="sRGB" result="source"/>
			<feFlood  style="flood-color:white;flood-opacity:1" result="back"/>
			<feBlend  in="source" in2="back" mode="normal"/>
		</filter>
	</defs>
	<mask maskUnits="userSpaceOnUse" x="81.153" y="293.847" width="298.489" height="306.141" id="SVGID_1_">
		<g style="filter:url(#Adobe_OpacityMaskFilter);">
			<g style="opacity:0.6;">
				<polygon style="fill:#BDBEC0;" points="99.466,476.612 364.5,321.664 364.5,327.86 99.466,482.648 				"/>
				<polygon style="fill:#BDBEC0;" points="99.466,491.001 364.5,336.052 364.5,342.249 99.466,497.038 				"/>
				<polygon style="fill:#BDBEC0;" points="99.466,505.39 364.5,350.441 364.5,356.638 99.466,511.427 				"/>
				<polygon style="fill:#BDBEC0;" points="99.466,519.779 364.5,364.83 364.5,371.026 99.466,525.815 				"/>
			</g>
		</g>
	</mask>
	<polygon style="mask:url(#SVGID_1_);fill:#A59908;" points="81.153,464.476 81.153,599.988 379.643,429.36 379.643,293.847 	"/>
	<polygon style="fill:#4B4800;" points="379.666,293.832 299.377,251.3 0.866,421.916 81.155,464.461 	"/>
	<g>
		<g>
			<polygon style="fill:#3D3E3E;" points="81.153,552.66 81.153,599.988 379.643,429.36 379.643,378.941 			"/>
		</g>
	</g>
	<g>
		<g>
			<path style="fill:#5DC5F0;" d="M238.776,482.763v8.151c0,1.138,0.82,1.594,1.867,1.047l27.504-15.892
				c0.501-0.273,0.956-0.82,1.275-1.366c0.318-0.547,0.546-1.184,0.546-1.776l-0.045-8.151c0-1.184-0.82-1.64-1.822-1.047
				l-24.59,14.162l-2.914,1.685C239.596,480.167,238.776,481.579,238.776,482.763z"/>
		</g>
	</g>
	<polygon style="fill:#231F20;" points="81.153,552.66 72.116,547.436 72.116,595.211 81.153,599.988 	"/>
</g>
</svg>
