<svg xmlns="http://www.w3.org/2000/svg" xmlns:xlink="http://www.w3.org/1999/xlink" viewBox="0 0 280.117 360"><defs><style>.cls-1{fill:#272e31;}.cls-2{fill:#ddeff1;}.cls-3{fill:#3761ab;}.cls-10,.cls-11,.cls-12,.cls-13,.cls-14,.cls-24,.cls-25,.cls-26,.cls-27,.cls-28,.cls-31,.cls-32,.cls-33,.cls-34,.cls-35,.cls-36,.cls-37,.cls-38,.cls-39,.cls-4,.cls-40,.cls-41,.cls-42,.cls-43,.cls-44,.cls-45,.cls-46,.cls-47,.cls-48,.cls-49,.cls-5,.cls-50,.cls-51,.cls-52,.cls-53,.cls-54,.cls-55,.cls-56,.cls-57,.cls-58,.cls-59,.cls-6,.cls-60,.cls-61,.cls-62,.cls-63,.cls-64,.cls-66,.cls-67,.cls-68,.cls-69,.cls-7,.cls-70,.cls-71,.cls-72,.cls-73,.cls-74,.cls-75,.cls-76,.cls-77,.cls-78,.cls-79,.cls-8,.cls-80,.cls-81,.cls-82,.cls-83,.cls-84,.cls-85,.cls-86,.cls-87,.cls-88{mix-blend-mode:color-dodge;}.cls-4{fill:url(#radial-gradient);}.cls-5{fill:url(#radial-gradient-2);}.cls-6{fill:url(#radial-gradient-3);}.cls-7{fill:url(#radial-gradient-4);}.cls-8{fill:url(#radial-gradient-5);}.cls-9{fill:#e41f1c;}.cls-10{fill:url(#radial-gradient-6);}.cls-11{fill:url(#radial-gradient-7);}.cls-12{fill:url(#radial-gradient-8);}.cls-13{fill:url(#radial-gradient-9);}.cls-14{fill:url(#radial-gradient-10);}.cls-15{fill:#101315;}.cls-16{isolation:isolate;}.cls-17{fill:#232a2b;}.cls-18{fill:#1c2123;}.cls-19{fill:#121618;}.cls-20{fill:#181d1f;}.cls-21{fill:#353e42;}.cls-22{fill:#d6d7d7;}.cls-23{mask:url(#mask);}.cls-24{fill:url(#radial-gradient-11);}.cls-25{fill:url(#radial-gradient-12);}.cls-26{fill:url(#radial-gradient-13);}.cls-27{fill:url(#radial-gradient-14);}.cls-28{fill:url(#radial-gradient-15);}.cls-29{fill:#090914;}.cls-30{fill:#64b32e;}.cls-31{fill:url(#radial-gradient-16);}.cls-32{fill:url(#radial-gradient-17);}.cls-33{fill:url(#radial-gradient-18);}.cls-34{fill:url(#radial-gradient-19);}.cls-35{fill:url(#radial-gradient-20);}.cls-36{fill:url(#radial-gradient-21);}.cls-37{fill:url(#radial-gradient-22);}.cls-38{fill:url(#radial-gradient-23);}.cls-39{fill:url(#radial-gradient-24);}.cls-40{fill:url(#radial-gradient-25);}.cls-41{fill:url(#radial-gradient-26);}.cls-42{fill:url(#radial-gradient-27);}.cls-43{fill:url(#radial-gradient-28);}.cls-44{fill:url(#radial-gradient-29);}.cls-45{fill:url(#radial-gradient-30);}.cls-46{fill:url(#radial-gradient-31);}.cls-47{fill:url(#radial-gradient-32);}.cls-48{fill:url(#radial-gradient-33);}.cls-49{fill:url(#radial-gradient-34);}.cls-50{fill:url(#radial-gradient-35);}.cls-51{fill:url(#radial-gradient-36);}.cls-52{fill:url(#radial-gradient-37);}.cls-53{fill:url(#radial-gradient-38);}.cls-54{fill:url(#radial-gradient-39);}.cls-55{fill:url(#radial-gradient-40);}.cls-56{fill:url(#radial-gradient-41);}.cls-57{fill:url(#radial-gradient-42);}.cls-58{fill:url(#radial-gradient-43);}.cls-59{fill:url(#radial-gradient-44);}.cls-60{fill:url(#radial-gradient-45);}.cls-61{fill:url(#radial-gradient-46);}.cls-62{fill:url(#radial-gradient-47);}.cls-63{fill:url(#radial-gradient-48);}.cls-64{fill:url(#radial-gradient-49);}.cls-65{mask:url(#mask-2);}.cls-66{fill:url(#radial-gradient-50);}.cls-67{fill:url(#radial-gradient-51);}.cls-68{fill:url(#radial-gradient-52);}.cls-69{fill:url(#radial-gradient-53);}.cls-70{fill:url(#radial-gradient-54);}.cls-71{fill:url(#radial-gradient-55);}.cls-72{fill:url(#radial-gradient-56);}.cls-73{fill:url(#radial-gradient-57);}.cls-74{fill:url(#radial-gradient-58);}.cls-75{fill:url(#radial-gradient-59);}.cls-76{fill:url(#radial-gradient-60);}.cls-77{fill:url(#radial-gradient-61);}.cls-78{fill:url(#radial-gradient-62);}.cls-79{fill:url(#radial-gradient-63);}.cls-80{fill:url(#radial-gradient-64);}.cls-81{fill:url(#radial-gradient-65);}.cls-82{fill:url(#radial-gradient-66);}.cls-83{fill:url(#radial-gradient-67);}.cls-84{fill:url(#radial-gradient-68);}.cls-85{fill:url(#radial-gradient-69);}.cls-86{fill:url(#radial-gradient-70);}.cls-87{fill:url(#radial-gradient-71);}.cls-88{fill:url(#radial-gradient-72);}.cls-89{filter:url(#luminosity-invert-noclip-2);}.cls-90{filter:url(#luminosity-invert-noclip);}</style><radialGradient id="radial-gradient" cx="-157.342" cy="1377.785" r="13.507" gradientTransform="matrix(0.866, 0.5, 0, 1, 284.266, -1060.491)" gradientUnits="userSpaceOnUse"><stop offset="0.091" stop-color="#3258a4"/><stop offset="0.273" stop-color="#244077"/><stop offset="0.502" stop-color="#152544"/><stop offset="0.703" stop-color="#0a1120"/><stop offset="0.865" stop-color="#030509"/><stop offset="0.968" stop-color="#010101"/></radialGradient><radialGradient id="radial-gradient-2" cx="-1401.975" cy="1378.031" r="4.889" gradientTransform="matrix(0.119, 0.069, 0, 1, 314.844, -1043.089)" gradientUnits="userSpaceOnUse"><stop offset="0.237" stop-color="#3258a4"/><stop offset="0.388" stop-color="#244077"/><stop offset="0.579" stop-color="#152544"/><stop offset="0.747" stop-color="#0a1120"/><stop offset="0.882" stop-color="#030509"/><stop offset="0.968" stop-color="#010101"/></radialGradient><radialGradient id="radial-gradient-3" cx="-8706.319" cy="569.575" r="4.877" gradientTransform="matrix(0.06, -0.085, 0.75, 0.933, 238.851, -1029.342)" xlink:href="#radial-gradient-2"/><radialGradient id="radial-gradient-4" cx="-7263.24" cy="-703.804" r="4.892" gradientTransform="matrix(-0.06, -0.153, 0.75, -0.067, 243.696, -921.981)" xlink:href="#radial-gradient-2"/><radialGradient id="radial-gradient-5" cx="-157.34" cy="1377.785" r="1.55" gradientTransform="matrix(0.866, 0.5, 0, 1, 284.266, -1060.491)" gradientUnits="userSpaceOnUse"><stop offset="0.22" stop-color="#dbe5f6"/><stop offset="0.286" stop-color="#c2cbda"/><stop offset="0.477" stop-color="#7e848e"/><stop offset="0.647" stop-color="#494c51"/><stop offset="0.791" stop-color="#222326"/><stop offset="0.902" stop-color="#0a0a0b"/><stop offset="0.968" stop-color="#010101"/></radialGradient><radialGradient id="radial-gradient-6" cx="-157.343" cy="1386.935" r="13.507" gradientTransform="matrix(0.866, 0.5, 0, 1, 284.266, -1060.49)" gradientUnits="userSpaceOnUse"><stop offset="0.091" stop-color="#de0a14"/><stop offset="0.202" stop-color="#b80811"/><stop offset="0.407" stop-color="#77060b"/><stop offset="0.593" stop-color="#440407"/><stop offset="0.755" stop-color="#200204"/><stop offset="0.885" stop-color="#090102"/><stop offset="0.968" stop-color="#010101"/></radialGradient><radialGradient id="radial-gradient-7" cx="-1401.975" cy="1387.189" r="4.891" gradientTransform="matrix(0.119, 0.069, 0, 1, 314.844, -1043.089)" gradientUnits="userSpaceOnUse"><stop offset="0.237" stop-color="#e5192f"/><stop offset="0.343" stop-color="#b81426"/><stop offset="0.51" stop-color="#780d19"/><stop offset="0.662" stop-color="#44080f"/><stop offset="0.794" stop-color="#200407"/><stop offset="0.9" stop-color="#090203"/><stop offset="0.968" stop-color="#010101"/></radialGradient><radialGradient id="radial-gradient-8" cx="-8764.054" cy="574.153" r="4.888" gradientTransform="matrix(0.06, -0.085, 0.75, 0.933, 238.851, -1029.342)" xlink:href="#radial-gradient-7"/><radialGradient id="radial-gradient-9" cx="-7320.951" cy="-708.378" r="4.881" gradientTransform="matrix(-0.06, -0.153, 0.75, -0.067, 243.697, -921.981)" xlink:href="#radial-gradient-7"/><radialGradient id="radial-gradient-10" cx="-157.341" cy="1386.935" r="1.552" gradientTransform="matrix(0.866, 0.5, 0, 1, 284.266, -1060.49)" gradientUnits="userSpaceOnUse"><stop offset="0.22" stop-color="#ef8197"/><stop offset="0.271" stop-color="#da768a"/><stop offset="0.466" stop-color="#8e4d5a"/><stop offset="0.64" stop-color="#512c34"/><stop offset="0.787" stop-color="#261518"/><stop offset="0.901" stop-color="#0b0607"/><stop offset="0.968" stop-color="#010101"/></radialGradient><filter id="luminosity-invert-noclip" x="94.528" y="69.544" width="76.129" height="277.247" filterUnits="userSpaceOnUse" color-interpolation-filters="sRGB"><feColorMatrix values="-1 0 0 0 1 0 -1 0 0 1 0 0 -1 0 1 0 0 0 1 0" result="invert"/><feFlood flood-color="#fff" result="bg"/><feBlend in="invert" in2="bg"/></filter><mask id="mask" x="94.528" y="69.544" width="76.129" height="277.247" maskUnits="userSpaceOnUse"><g class="cls-90"><polygon class="cls-1" points="170.657 245.395 99.001 204.028 99.001 225.817 170.657 267.188 170.657 245.395"/><polygon class="cls-2" points="167.671 246.737 155.729 239.843 155.729 254.76 167.671 261.65 167.671 246.737"/><path class="cls-3" d="M148.992,239.2a2.2,2.2,0,0,0-.979-1.713c-.545-.311-.991-.058-.991.572a2.2,2.2,0,0,0,.991,1.713C148.55,240.084,148.992,239.826,148.992,239.2Z"/><path class="cls-4" d="M159.705,245.382c0-7.46-5.234-16.537-11.692-20.262s-11.7-.7-11.7,6.754,5.238,16.526,11.7,20.259S159.705,252.839,159.705,245.382Z"/><path class="cls-5" d="M148.593,238.97c0-2.692-.262-5.034-.58-5.214s-.588,1.839-.588,4.538.265,5.022.588,5.207S148.593,241.662,148.593,238.97Z"/><path class="cls-6" d="M148.3,238.214c-2.02-2.519-3.782-4.359-3.947-4.14s1.347,2.458,3.367,4.965,3.786,4.37,3.947,4.139S150.313,240.728,148.3,238.214Z"/><path class="cls-7" d="M147.717,237.875c-2.02.189-3.525.669-3.367,1.08s1.927.606,3.947.426,3.529-.672,3.367-1.075C151.5,237.879,149.741,237.7,147.717,237.875Z"/><path class="cls-8" d="M149.349,239.4a2.978,2.978,0,0,0-1.336-2.323c-.745-.422-1.344-.077-1.344.776a2.956,2.956,0,0,0,1.344,2.331C148.75,240.61,149.353,240.264,149.349,239.4Z"/><path class="cls-9" d="M148.992,248.347a2.188,2.188,0,0,0-.979-1.709c-.545-.315-.991-.058-.991.572a2.172,2.172,0,0,0,.991,1.709C148.55,249.23,148.992,248.973,148.992,248.347Z"/><path class="cls-10" d="M159.705,254.529c0-7.457-5.234-16.53-11.692-20.259s-11.7-.71-11.7,6.751,5.238,16.533,11.7,20.262S159.705,261.993,159.705,254.529Z"/><path class="cls-11" d="M148.593,248.113c0-2.692-.262-5.027-.58-5.2-.323-.2-.588,1.839-.588,4.534s.265,5.027.588,5.219C148.331,252.839,148.593,250.808,148.593,248.113Z"/><path class="cls-12" d="M148.3,247.368c-2.02-2.515-3.782-4.366-3.947-4.136s1.347,2.446,3.367,4.969c2.024,2.5,3.786,4.354,3.947,4.124S150.313,249.879,148.3,247.368Z"/><path class="cls-13" d="M147.717,247.033c-2.02.181-3.525.661-3.367,1.068.165.423,1.927.6,3.947.43s3.529-.661,3.367-1.083S149.741,246.841,147.717,247.033Z"/><path class="cls-14" d="M149.349,248.554a2.983,2.983,0,0,0-1.336-2.335c-.745-.422-1.344-.072-1.344.788a2.966,2.966,0,0,0,1.344,2.327C148.75,249.752,149.353,249.41,149.349,248.554Z"/><polygon class="cls-15" points="140.801 230.618 140.801 234.157 100.992 211.297 100.992 207.75 140.801 230.618"/><polygon class="cls-15" points="104.973 227.585 102.982 226.222 102.982 213.931 104.973 215.283 104.973 227.585"/><polygon class="cls-15" points="108.953 230.33 106.963 228.963 106.963 216.669 108.953 218.028 108.953 230.33"/><polygon class="cls-15" points="113.93 233.072 111.939 231.716 111.939 219.41 113.93 220.777 113.93 233.072"/><polygon class="cls-15" points="118.906 235.814 116.915 234.454 116.915 222.159 118.906 223.519 118.906 235.814"/><polygon class="cls-15" points="123.882 238.563 121.891 237.203 121.891 224.905 123.882 226.26 123.882 238.563"/><polygon class="cls-15" points="128.858 241.301 126.867 239.953 126.867 227.647 128.858 229.006 128.858 241.301"/><polygon class="cls-15" points="132.839 244.046 130.848 242.698 130.848 230.388 132.839 231.748 132.839 244.046"/><polygon class="cls-15" points="137.815 246.788 135.824 245.436 135.824 233.141 137.815 234.489 137.815 246.788"/></g></mask><radialGradient id="radial-gradient-11" cx="-205.59" cy="1247.939" r="13.506" xlink:href="#radial-gradient"/><radialGradient id="radial-gradient-12" cx="-1753.105" cy="1248.179" r="4.892" xlink:href="#radial-gradient-2"/><radialGradient id="radial-gradient-13" cx="-8063.301" cy="462.848" r="4.895" gradientTransform="matrix(0.06, -0.085, 0.75, 0.933, 238.851, -1029.342)" xlink:href="#radial-gradient-2"/><radialGradient id="radial-gradient-14" cx="-6268.973" cy="-680.638" r="4.886" gradientTransform="matrix(-0.06, -0.153, 0.75, -0.067, 243.696, -921.981)" xlink:href="#radial-gradient-2"/><radialGradient id="radial-gradient-15" cx="-205.59" cy="1247.941" r="1.549" xlink:href="#radial-gradient-5"/><radialGradient id="radial-gradient-16" cx="-4946.918" cy="-7070.917" r="10.124" gradientTransform="matrix(0, -1, 0.866, 0.5, 6272.448, -1300.659)" gradientUnits="userSpaceOnUse"><stop offset="0.237" stop-color="#325926"/><stop offset="0.366" stop-color="#26441d"/><stop offset="0.624" stop-color="#12200e"/><stop offset="0.834" stop-color="#060904"/><stop offset="0.968" stop-color="#010101"/></radialGradient><radialGradient id="radial-gradient-17" cx="-4946.912" cy="-7070.919" r="2.167" gradientTransform="matrix(0, -1, 0.866, 0.5, 6272.448, -1300.659)" gradientUnits="userSpaceOnUse"><stop offset="0.22" stop-color="#8ebf22"/><stop offset="0.375" stop-color="#698d19"/><stop offset="0.579" stop-color="#3d510f"/><stop offset="0.753" stop-color="#1c2607"/><stop offset="0.888" stop-color="#080b03"/><stop offset="0.968" stop-color="#010101"/></radialGradient><radialGradient id="radial-gradient-18" cx="-4946.922" cy="-7066.49" r="10.127" xlink:href="#radial-gradient-16"/><radialGradient id="radial-gradient-19" cx="-4946.911" cy="-7066.486" r="2.169" xlink:href="#radial-gradient-17"/><radialGradient id="radial-gradient-20" cx="-4946.919" cy="-7062.056" r="10.124" xlink:href="#radial-gradient-16"/><radialGradient id="radial-gradient-21" cx="-4946.917" cy="-7062.061" r="2.166" xlink:href="#radial-gradient-17"/><radialGradient id="radial-gradient-22" cx="-4946.916" cy="-7057.62" r="10.123" xlink:href="#radial-gradient-16"/><radialGradient id="radial-gradient-23" cx="-4946.912" cy="-7057.622" r="2.167" xlink:href="#radial-gradient-17"/><radialGradient id="radial-gradient-24" cx="-205.59" cy="1275.589" r="13.508" xlink:href="#radial-gradient"/><radialGradient id="radial-gradient-25" cx="-1753.105" cy="1275.839" r="4.891" xlink:href="#radial-gradient-2"/><radialGradient id="radial-gradient-26" cx="-8237.598" cy="476.68" r="4.883" gradientTransform="matrix(0.06, -0.085, 0.75, 0.933, 238.851, -1029.342)" xlink:href="#radial-gradient-2"/><radialGradient id="radial-gradient-27" cx="-6443.318" cy="-694.466" r="4.874" gradientTransform="matrix(-0.06, -0.153, 0.75, -0.067, 243.696, -921.981)" xlink:href="#radial-gradient-2"/><radialGradient id="radial-gradient-28" cx="-205.59" cy="1275.593" r="1.55" xlink:href="#radial-gradient-5"/><radialGradient id="radial-gradient-29" cx="-4974.574" cy="-7070.917" r="10.123" xlink:href="#radial-gradient-16"/><radialGradient id="radial-gradient-30" cx="-4974.561" cy="-7070.919" r="2.166" xlink:href="#radial-gradient-17"/><radialGradient id="radial-gradient-31" cx="-4974.573" cy="-7066.49" r="10.128" xlink:href="#radial-gradient-16"/><radialGradient id="radial-gradient-32" cx="-4974.563" cy="-7066.486" r="2.17" xlink:href="#radial-gradient-17"/><radialGradient id="radial-gradient-33" cx="-4974.577" cy="-7062.056" r="10.124" xlink:href="#radial-gradient-16"/><radialGradient id="radial-gradient-34" cx="-4974.568" cy="-7062.061" r="2.164" xlink:href="#radial-gradient-17"/><radialGradient id="radial-gradient-35" cx="-4974.57" cy="-7057.62" r="10.123" xlink:href="#radial-gradient-16"/><radialGradient id="radial-gradient-36" cx="-4974.56" cy="-7057.622" r="2.17" xlink:href="#radial-gradient-17"/><radialGradient id="radial-gradient-37" cx="-205.59" cy="1302.101" r="13.505" xlink:href="#radial-gradient"/><radialGradient id="radial-gradient-38" cx="-1753.105" cy="1302.347" r="4.89" xlink:href="#radial-gradient-2"/><radialGradient id="radial-gradient-39" cx="-8404.764" cy="489.937" r="4.902" gradientTransform="matrix(0.06, -0.085, 0.75, 0.933, 238.851, -1029.342)" xlink:href="#radial-gradient-2"/><radialGradient id="radial-gradient-40" cx="-6610.465" cy="-707.731" r="4.881" gradientTransform="matrix(-0.06, -0.153, 0.75, -0.067, 243.696, -921.981)" xlink:href="#radial-gradient-2"/><radialGradient id="radial-gradient-41" cx="-205.59" cy="1302.105" r="1.549" xlink:href="#radial-gradient-5"/><radialGradient id="radial-gradient-42" cx="-5001.09" cy="-7070.917" r="10.125" xlink:href="#radial-gradient-16"/><radialGradient id="radial-gradient-43" cx="-5001.082" cy="-7070.919" r="2.166" xlink:href="#radial-gradient-17"/><radialGradient id="radial-gradient-44" cx="-5001.084" cy="-7066.49" r="10.126" xlink:href="#radial-gradient-16"/><radialGradient id="radial-gradient-45" cx="-5001.079" cy="-7066.486" r="2.167" xlink:href="#radial-gradient-17"/><radialGradient id="radial-gradient-46" cx="-5001.089" cy="-7062.056" r="10.125" xlink:href="#radial-gradient-16"/><radialGradient id="radial-gradient-47" cx="-5001.078" cy="-7062.061" r="2.166" xlink:href="#radial-gradient-17"/><radialGradient id="radial-gradient-48" cx="-5001.084" cy="-7057.62" r="10.123" xlink:href="#radial-gradient-16"/><radialGradient id="radial-gradient-49" cx="-5001.074" cy="-7057.622" r="2.168" xlink:href="#radial-gradient-17"/><filter id="luminosity-invert-noclip-2" x="94.528" y="-8370.655" width="76.129" height="32766" filterUnits="userSpaceOnUse" color-interpolation-filters="sRGB"><feColorMatrix values="-1 0 0 0 1 0 -1 0 0 1 0 0 -1 0 1 0 0 0 1 0" result="invert"/><feFlood flood-color="#fff" result="bg"/><feBlend in="invert" in2="bg"/></filter><mask id="mask-2" x="94.528" y="-8370.655" width="76.129" height="32766" maskUnits="userSpaceOnUse"><g class="cls-89"/></mask><radialGradient id="radial-gradient-50" cx="-205.59" cy="1328.338" r="13.507" xlink:href="#radial-gradient"/><radialGradient id="radial-gradient-51" cx="-1753.105" cy="1328.586" r="4.891" xlink:href="#radial-gradient-2"/><radialGradient id="radial-gradient-52" cx="-8570.153" cy="503.061" r="4.878" gradientTransform="matrix(0.06, -0.085, 0.75, 0.933, 238.851, -1029.342)" xlink:href="#radial-gradient-2"/><radialGradient id="radial-gradient-53" cx="-6775.831" cy="-720.85" r="4.88" gradientTransform="matrix(-0.06, -0.153, 0.75, -0.067, 243.696, -921.981)" xlink:href="#radial-gradient-2"/><radialGradient id="radial-gradient-54" cx="-205.59" cy="1328.342" r="1.551" xlink:href="#radial-gradient-5"/><radialGradient id="radial-gradient-55" cx="-5027.312" cy="-7070.917" r="10.124" xlink:href="#radial-gradient-16"/><radialGradient id="radial-gradient-56" cx="-5027.316" cy="-7070.919" r="2.166" xlink:href="#radial-gradient-17"/><radialGradient id="radial-gradient-57" cx="-5027.312" cy="-7066.49" r="10.126" xlink:href="#radial-gradient-16"/><radialGradient id="radial-gradient-58" cx="-5027.312" cy="-7066.486" r="2.169" xlink:href="#radial-gradient-17"/><radialGradient id="radial-gradient-59" cx="-5027.321" cy="-7062.056" r="10.122" xlink:href="#radial-gradient-16"/><radialGradient id="radial-gradient-60" cx="-5027.313" cy="-7062.061" r="2.167" xlink:href="#radial-gradient-17"/><radialGradient id="radial-gradient-61" cx="-5027.313" cy="-7057.62" r="10.125" xlink:href="#radial-gradient-16"/><radialGradient id="radial-gradient-62" cx="-5027.307" cy="-7057.622" r="2.168" xlink:href="#radial-gradient-17"/><radialGradient id="radial-gradient-63" cx="-157.342" cy="1352.245" r="13.508" xlink:href="#radial-gradient"/><radialGradient id="radial-gradient-64" cx="-1401.975" cy="1352.489" r="4.893" xlink:href="#radial-gradient-2"/><radialGradient id="radial-gradient-65" cx="-8545.289" cy="556.8" r="4.864" gradientTransform="matrix(0.06, -0.085, 0.75, 0.933, 238.851, -1029.342)" xlink:href="#radial-gradient-2"/><radialGradient id="radial-gradient-66" cx="-7102.195" cy="-691.028" r="4.875" gradientTransform="matrix(-0.06, -0.153, 0.75, -0.067, 243.696, -921.981)" xlink:href="#radial-gradient-2"/><radialGradient id="radial-gradient-67" cx="-157.34" cy="1352.246" r="1.552" xlink:href="#radial-gradient-5"/><radialGradient id="radial-gradient-68" cx="-157.343" cy="1361.396" r="13.507" xlink:href="#radial-gradient-6"/><radialGradient id="radial-gradient-69" cx="-1401.975" cy="1361.641" r="4.892" xlink:href="#radial-gradient-7"/><radialGradient id="radial-gradient-70" cx="-8603.001" cy="561.378" r="4.89" gradientTransform="matrix(0.06, -0.085, 0.75, 0.933, 238.851, -1029.342)" xlink:href="#radial-gradient-7"/><radialGradient id="radial-gradient-71" cx="-7159.908" cy="-695.603" r="4.886" gradientTransform="matrix(-0.06, -0.153, 0.75, -0.067, 243.697, -921.981)" xlink:href="#radial-gradient-7"/><radialGradient id="radial-gradient-72" cx="-157.341" cy="1361.395" r="1.551" xlink:href="#radial-gradient-10"/></defs><g class="cls-16"><g id="Capa_1" data-name="Capa 1"><g class="cls-16"><polygon class="cls-17" points="175.191 110.609 278.141 50.783 277.58 295.243 174.638 355.065 175.191 110.609"/><polygon class="cls-18" points="184.056 122.398 269.184 72.926 268.727 283.45 183.595 332.926 184.056 122.398"/><polygon class="cls-1" points="88.596 60.546 191.502 0.734 278.293 50.847 175.386 110.648 88.596 60.546"/><polygon class="cls-19" points="175.633 110.39 175.079 355.392 88.054 305.15 88.612 60.155 175.633 110.39"/></g><g class="cls-16"><polygon class="cls-20" points="9.019 358.667 2.465 355.001 1.889 110.648 8.436 114.311 9.019 358.667"/><polygon class="cls-18" points="8.118 114.311 1.824 110.648 88.615 60.546 94.912 64.198 8.118 114.311"/><polygon class="cls-21" points="95.02 63.6 95.579 308.949 8.436 359.266 7.873 113.917 95.02 63.6"/><polygon class="cls-22" points="17.393 117.713 17.393 207.13 89.049 165.754 89.049 76.348 17.393 117.713"/><polygon class="cls-22" points="17.393 212.353 17.393 253.241 89.049 211.876 89.049 170.98 17.393 212.353"/><polygon class="cls-22" points="17.393 258.388 17.393 299.288 89.049 257.911 89.049 217.019 17.393 258.388"/><polygon class="cls-22" points="17.393 304.489 17.393 345.389 89.049 304.016 89.049 263.123 17.393 304.489"/></g><g class="cls-23"><polygon class="cls-1" points="170.657 271.736 99.001 230.365 99.001 252.155 170.657 293.526 170.657 271.736"/><path class="cls-19" d="M169.012,274.691a3.316,3.316,0,0,0-1.486-2.61c-.821-.473-1.485-.081-1.493.871a3.34,3.34,0,0,0,1.482,2.611C168.34,276.039,169.009,275.648,169.012,274.691Z"/><path class="cls-19" d="M103.963,237.142a3.358,3.358,0,0,0-1.483-2.615c-.825-.468-1.5-.08-1.5.884a3.306,3.306,0,0,0,1.486,2.6C103.291,238.486,103.955,238.1,103.963,237.142Z"/><path class="cls-19" d="M169.012,289.3a3.3,3.3,0,0,0-1.486-2.6c-.821-.476-1.485-.089-1.493.871a3.3,3.3,0,0,0,1.482,2.6C168.34,290.65,169.009,290.25,169.012,289.3Z"/><path class="cls-19" d="M103.963,251.745a3.316,3.316,0,0,0-1.483-2.6c-.825-.477-1.5-.085-1.5.871a3.325,3.325,0,0,0,1.486,2.611C103.291,253.1,103.955,252.7,103.963,251.745Z"/><path class="cls-2" d="M170.657,284.785l-16.722-9.643-2.794,1.408-32.773-18.917-2.587-4.523L99,243.429v-4.335l17.1,9.874,2.4-1.639.108.061,32.672,18.868,2.991,4.753,16.38,9.455Zm-16.264-10.13,16.264,9.394v-3.414l-16.222-9.367-2.978-4.731-32.391-18.7-2.4,1.631L100,239.838v3.41l16.624,9.6,2.588,4.505,32.391,18.7Z"/><polygon class="cls-1" points="170.657 298.373 99.001 257.006 99.001 278.783 170.657 320.162 170.657 298.373"/><path class="cls-19" d="M169.012,301.317a3.313,3.313,0,0,0-1.486-2.6c-.821-.476-1.485-.084-1.493.875a3.36,3.36,0,0,0,1.482,2.612C168.34,302.68,169.009,302.288,169.012,301.317Z"/><path class="cls-19" d="M103.963,263.779a3.338,3.338,0,0,0-1.483-2.6c-.825-.476-1.5-.088-1.5.872a3.31,3.31,0,0,0,1.486,2.6C103.291,265.13,103.955,264.743,103.963,263.779Z"/><path class="cls-19" d="M169.012,315.935a3.328,3.328,0,0,0-1.486-2.611c-.821-.469-1.485-.07-1.493.887a3.323,3.323,0,0,0,1.482,2.595C168.34,317.286,169.009,316.9,169.012,315.935Z"/><path class="cls-19" d="M103.963,278.389a3.31,3.31,0,0,0-1.483-2.6c-.825-.488-1.5-.092-1.5.867a3.333,3.333,0,0,0,1.486,2.612C103.291,279.737,103.955,279.349,103.963,278.389Z"/><path class="cls-2" d="M170.657,311.421l-16.722-9.647-2.794,1.409-.1-.05-32.677-18.868-2.587-4.518L99,270.065v-4.334l17.1,9.874,2.4-1.639.108.069,32.672,18.86,2.991,4.745,16.38,9.463Zm-16.264-10.129,16.264,9.393v-3.41l-16.222-9.367-2.978-4.738-32.391-18.695-2.4,1.627L100,266.475v3.41l16.624,9.6,2.588,4.5L151.6,302.7Z"/><polygon class="cls-1" points="170.657 325.013 99.001 283.642 99.001 305.428 170.657 346.791 170.657 325.013"/><path class="cls-19" d="M169.012,327.968a3.306,3.306,0,0,0-1.486-2.607c-.821-.48-1.485-.084-1.493.872a3.319,3.319,0,0,0,1.482,2.6C168.34,329.312,169.009,328.925,169.012,327.968Z"/><path class="cls-19" d="M103.963,290.419a3.323,3.323,0,0,0-1.483-2.6c-.825-.48-1.5-.088-1.5.875a3.317,3.317,0,0,0,1.486,2.6C103.291,291.767,103.955,291.371,103.963,290.419Z"/><path class="cls-19" d="M169.012,342.579a3.3,3.3,0,0,0-1.486-2.611c-.821-.476-1.485-.089-1.493.875a3.337,3.337,0,0,0,1.482,2.607C168.34,343.927,169.009,343.539,169.012,342.579Z"/><path class="cls-19" d="M103.963,305.029a3.325,3.325,0,0,0-1.483-2.6c-.825-.476-1.5-.092-1.5.868a3.294,3.294,0,0,0,1.486,2.6C103.291,306.377,103.955,305.982,103.963,305.029Z"/><path class="cls-2" d="M170.657,338.069l-16.722-9.65-2.794,1.4L118.368,310.9l-2.587-4.519L99,296.69v-4.319l17.1,9.87,2.4-1.631.108.057,32.672,18.86,2.991,4.761,16.38,9.451Zm-16.264-10.14,16.264,9.393v-3.41l-16.222-9.359-2.978-4.743-32.391-18.695-2.4,1.627L100,293.119v3.407l16.624,9.6,2.588,4.5L151.6,329.341Z"/><polygon class="cls-1" points="170.657 112.162 99.001 70.787 99.001 92.577 170.657 133.94 170.657 112.162"/><polygon class="cls-15" points="168.667 112.671 143.786 98.304 143.786 103.883 168.667 118.246 168.667 112.671"/><polygon class="cls-22" points="110.944 94.588 100.992 88.843 100.992 92.077 110.944 97.818 110.944 94.588"/><polygon class="cls-15" points="168.667 124.812 143.786 110.454 143.786 116.032 168.667 130.391 168.667 124.812"/><polygon class="cls-15" points="114.925 100.948 112.934 99.807 112.934 79.581 114.925 80.735 114.925 100.948"/><polygon class="cls-15" points="118.91 103.124 116.915 101.978 116.915 81.749 118.906 82.903 118.91 103.124"/><polygon class="cls-15" points="121.891 105.246 119.901 104.101 119.901 83.969 121.891 85.114 121.891 105.246"/><polygon class="cls-15" points="125.872 107.456 123.882 106.311 123.882 86.09 125.872 87.244 125.872 107.456"/><polygon class="cls-15" points="129.853 109.605 127.863 108.462 127.863 88.284 129.853 89.431 129.853 109.605"/><polygon class="cls-15" points="133.834 111.776 131.844 110.625 131.844 90.451 133.834 91.603 133.834 111.776"/><polygon class="cls-15" points="136.82 113.977 134.829 112.81 134.829 92.602 136.82 93.752 136.82 113.977"/><polygon class="cls-15" points="140.801 116.096 138.81 114.946 138.81 94.81 140.801 95.956 140.801 116.096"/><path class="cls-3" d="M107.2,85.225a2.171,2.171,0,0,0-.983-1.712c-.537-.315-.983-.062-.983.575a2.2,2.2,0,0,0,.983,1.705C106.766,86.108,107.2,85.855,107.2,85.225Z"/><path class="cls-24" d="M117.92,91.407c0-7.457-5.233-16.534-11.7-20.263S94.528,70.438,94.528,77.9s5.234,16.53,11.692,20.258S117.92,98.868,117.92,91.407Z"/><path class="cls-25" d="M106.808,84.994c0-2.695-.261-5.034-.588-5.225s-.579,1.854-.579,4.546.261,5.03.579,5.214S106.808,87.686,106.808,84.994Z"/><path class="cls-26" d="M106.516,84.238c-2.023-2.511-3.786-4.366-3.951-4.135s1.348,2.449,3.368,4.968,3.786,4.362,3.943,4.128S108.536,86.745,106.516,84.238Z"/><path class="cls-27" d="M105.933,83.9c-2.02.184-3.529.66-3.368,1.075s1.928.6,3.951.426,3.525-.664,3.36-1.082S107.956,83.716,105.933,83.9Z"/><path class="cls-28" d="M107.564,85.425A2.945,2.945,0,0,0,106.22,83.1c-.737-.427-1.336-.085-1.336.775A2.96,2.96,0,0,0,106.22,86.2C106.965,86.634,107.564,86.281,107.564,85.425Z"/><path class="cls-29" d="M149.03,109.243c-.737-.415-1.336-.066-1.336.779a2.939,2.939,0,0,0,1.336,2.312c.737.43,1.34.084,1.34-.764A2.994,2.994,0,0,0,149.03,109.243Z"/><path class="cls-30" d="M149.03,109.612c-.568-.331-1.025-.062-1.017.591a2.227,2.227,0,0,0,1.017,1.778c.565.337,1.026.057,1.026-.588A2.267,2.267,0,0,0,149.03,109.612Z"/><path class="cls-31" d="M149.03,100.676c-4.846-2.8-8.766-.534-8.766,5.057s3.92,12.395,8.766,15.186c4.85,2.807,8.774.53,8.774-5.064S153.88,103.479,149.03,100.676Z"/><path class="cls-32" d="M149.03,108.625c-1.033-.592-1.873-.1-1.873,1.086a4.127,4.127,0,0,0,1.873,3.249c1.037.6,1.878.126,1.878-1.075A4.164,4.164,0,0,0,149.03,108.625Z"/><path class="cls-29" d="M152.87,111.474c-.741-.434-1.332-.081-1.332.764a2.956,2.956,0,0,0,1.332,2.319c.737.419,1.34.077,1.34-.776A2.93,2.93,0,0,0,152.87,111.474Z"/><path class="cls-30" d="M152.87,111.831c-.565-.323-1.025-.065-1.025.587a2.268,2.268,0,0,0,1.025,1.778c.561.334,1.021.066,1.021-.591A2.26,2.26,0,0,0,152.87,111.831Z"/><path class="cls-33" d="M152.87,102.9c-4.846-2.8-8.774-.533-8.774,5.054s3.928,12.391,8.774,15.194,8.77.522,8.77-5.069S157.708,105.687,152.87,102.9Z"/><path class="cls-34" d="M152.87,110.84c-1.033-.595-1.878-.107-1.878,1.087a4.124,4.124,0,0,0,1.878,3.248c1.041.607,1.882.127,1.882-1.071A4.171,4.171,0,0,0,152.87,110.84Z"/><path class="cls-29" d="M156.706,113.678c-.734-.423-1.34-.073-1.34.775a2.975,2.975,0,0,0,1.34,2.319c.737.427,1.332.085,1.332-.775A2.973,2.973,0,0,0,156.706,113.678Z"/><path class="cls-30" d="M156.706,114.046c-.557-.326-1.025-.061-1.025.588a2.289,2.289,0,0,0,1.025,1.781c.568.335,1.025.066,1.025-.591A2.262,2.262,0,0,0,156.706,114.046Z"/><path class="cls-35" d="M156.706,105.107c-4.838-2.791-8.766-.533-8.766,5.061s3.928,12.387,8.766,15.187,8.77.529,8.77-5.065S161.552,107.91,156.706,105.107Z"/><path class="cls-36" d="M156.706,113.063c-1.033-.595-1.87-.115-1.878,1.079a4.147,4.147,0,0,0,1.878,3.252c1.041.592,1.874.12,1.874-1.082A4.134,4.134,0,0,0,156.706,113.063Z"/><path class="cls-29" d="M160.55,115.9c-.738-.422-1.336-.069-1.336.779a2.941,2.941,0,0,0,1.336,2.312c.737.422,1.332.073,1.332-.779A2.941,2.941,0,0,0,160.55,115.9Z"/><path class="cls-30" d="M160.55,116.266c-.569-.33-1.029-.069-1.029.591a2.267,2.267,0,0,0,1.029,1.778c.564.326,1.025.057,1.025-.595A2.262,2.262,0,0,0,160.55,116.266Z"/><path class="cls-37" d="M160.55,107.323c-4.846-2.795-8.767-.534-8.767,5.057s3.921,12.4,8.767,15.19c4.838,2.8,8.766.53,8.766-5.061S165.388,110.13,160.55,107.323Z"/><path class="cls-38" d="M160.55,115.279c-1.041-.6-1.882-.115-1.882,1.079a4.118,4.118,0,0,0,1.882,3.248c1.036.607,1.877.123,1.877-1.082A4.162,4.162,0,0,0,160.55,115.279Z"/><polygon class="cls-1" points="170.657 139.809 99.001 98.442 99.001 120.227 170.657 161.594 170.657 139.809"/><polygon class="cls-15" points="168.667 140.321 143.786 125.951 143.786 131.526 168.667 145.896 168.667 140.321"/><polygon class="cls-22" points="110.944 122.243 100.992 116.494 100.992 119.723 110.944 125.472 110.944 122.243"/><polygon class="cls-15" points="168.667 152.47 143.786 138.1 143.786 143.675 168.667 158.053 168.667 152.47"/><polygon class="cls-15" points="114.925 128.602 112.934 127.452 112.934 107.236 114.925 108.385 114.925 128.602"/><polygon class="cls-15" points="118.91 130.773 116.915 129.628 116.915 109.407 118.906 110.548 118.91 130.773"/><polygon class="cls-15" points="121.891 132.896 119.901 131.755 119.901 111.62 121.891 112.765 121.891 132.896"/><polygon class="cls-15" points="125.872 135.111 123.882 133.969 123.882 113.744 125.872 114.89 125.872 135.111"/><polygon class="cls-15" points="129.853 137.264 127.863 136.112 127.863 115.934 129.853 117.085 129.853 137.264"/><polygon class="cls-15" points="133.834 139.423 131.844 138.275 131.844 118.106 133.834 119.257 133.834 139.423"/><polygon class="cls-15" points="136.82 141.618 134.829 140.469 134.829 120.26 136.82 121.402 136.82 141.618"/><polygon class="cls-15" points="140.801 143.75 138.81 142.596 138.81 122.468 140.801 123.61 140.801 143.75"/><path class="cls-3" d="M107.2,112.872a2.148,2.148,0,0,0-.983-1.7c-.537-.315-.983-.066-.983.568a2.2,2.2,0,0,0,.983,1.709C106.766,113.755,107.2,113.5,107.2,112.872Z"/><path class="cls-39" d="M117.92,119.057c0-7.464-5.233-16.538-11.7-20.266s-11.692-.7-11.692,6.754,5.234,16.534,11.692,20.267S117.92,126.518,117.92,119.057Z"/><path class="cls-40" d="M106.808,112.641c0-2.7-.261-5.034-.588-5.21-.318-.193-.579,1.842-.579,4.526,0,2.7.261,5.038.579,5.23S106.808,115.333,106.808,112.641Z"/><path class="cls-41" d="M106.516,111.889c-2.023-2.512-3.786-4.363-3.951-4.132s1.348,2.446,3.368,4.957,3.786,4.366,3.943,4.143C110.041,116.619,108.536,114.4,106.516,111.889Z"/><path class="cls-42" d="M105.933,111.562c-2.02.177-3.529.656-3.368,1.064.165.426,1.928.607,3.951.43s3.525-.665,3.36-1.083S107.956,111.37,105.933,111.562Z"/><path class="cls-43" d="M107.564,113.071a2.956,2.956,0,0,0-1.344-2.319c-.737-.43-1.336-.085-1.336.772a2.975,2.975,0,0,0,1.336,2.334C106.965,114.281,107.564,113.939,107.564,113.071Z"/><path class="cls-29" d="M149.03,136.905c-.737-.43-1.336-.081-1.336.771a2.953,2.953,0,0,0,1.336,2.316c.737.422,1.34.08,1.34-.768A2.955,2.955,0,0,0,149.03,136.905Z"/><path class="cls-30" d="M149.03,137.266c-.568-.331-1.025-.066-1.017.595a2.251,2.251,0,0,0,1.017,1.778c.565.322,1.026.057,1.026-.6A2.266,2.266,0,0,0,149.03,137.266Z"/><path class="cls-44" d="M149.03,128.334c-4.846-2.811-8.766-.537-8.766,5.05s3.92,12.39,8.766,15.19,8.774.53,8.774-5.061S153.88,131.118,149.03,128.334Z"/><path class="cls-45" d="M149.03,136.275c-1.033-.591-1.873-.1-1.873,1.094a4.11,4.11,0,0,0,1.873,3.237c1.037.607,1.878.127,1.878-1.075A4.163,4.163,0,0,0,149.03,136.275Z"/><path class="cls-29" d="M152.87,139.12c-.741-.426-1.332-.081-1.332.776a2.935,2.935,0,0,0,1.332,2.311c.737.427,1.34.085,1.34-.775A2.961,2.961,0,0,0,152.87,139.12Z"/><path class="cls-30" d="M152.87,139.481c-.565-.322-1.025-.069-1.025.591a2.249,2.249,0,0,0,1.025,1.774c.561.327,1.021.07,1.021-.6A2.266,2.266,0,0,0,152.87,139.481Z"/><path class="cls-46" d="M152.87,130.542c-4.846-2.8-8.774-.533-8.774,5.057s3.928,12.4,8.774,15.2,8.77.526,8.77-5.069S157.708,133.334,152.87,130.542Z"/><path class="cls-47" d="M152.87,138.491c-1.033-.588-1.878-.1-1.878,1.094a4.128,4.128,0,0,0,1.878,3.244c1.041.6,1.882.131,1.882-1.082A4.16,4.16,0,0,0,152.87,138.491Z"/><path class="cls-29" d="M156.706,141.34c-.734-.434-1.34-.085-1.34.76a2.971,2.971,0,0,0,1.34,2.323c.737.43,1.332.088,1.332-.772A2.952,2.952,0,0,0,156.706,141.34Z"/><path class="cls-30" d="M156.706,141.7c-.557-.331-1.025-.07-1.025.591a2.276,2.276,0,0,0,1.025,1.774c.568.33,1.025.065,1.025-.595A2.244,2.244,0,0,0,156.706,141.7Z"/><path class="cls-48" d="M156.706,132.765c-4.838-2.795-8.766-.541-8.766,5.054s3.928,12.4,8.766,15.193,8.77.523,8.77-5.068S161.552,135.553,156.706,132.765Z"/><path class="cls-49" d="M156.706,140.718c-1.033-.6-1.87-.112-1.878,1.082a4.116,4.116,0,0,0,1.878,3.241c1.041.6,1.874.135,1.874-1.079A4.114,4.114,0,0,0,156.706,140.718Z"/><path class="cls-29" d="M160.55,143.551c-.738-.43-1.336-.076-1.336.78a2.928,2.928,0,0,0,1.336,2.3c.737.433,1.332.084,1.332-.772A2.948,2.948,0,0,0,160.55,143.551Z"/><path class="cls-30" d="M160.55,143.92c-.569-.334-1.029-.069-1.029.595a2.258,2.258,0,0,0,1.029,1.77c.564.327,1.025.058,1.025-.595A2.261,2.261,0,0,0,160.55,143.92Z"/><path class="cls-50" d="M160.55,134.977c-4.846-2.791-8.767-.538-8.767,5.057s3.921,12.4,8.767,15.19,8.766.53,8.766-5.064S165.388,137.773,160.55,134.977Z"/><path class="cls-51" d="M160.55,142.921c-1.041-.591-1.882-.1-1.882,1.091a4.112,4.112,0,0,0,1.882,3.248c1.036.6,1.877.131,1.877-1.079A4.193,4.193,0,0,0,160.55,142.921Z"/><polygon class="cls-1" points="170.657 166.322 99.001 124.955 99.001 146.737 170.657 188.112 170.657 166.322"/><polygon class="cls-15" points="168.667 166.835 143.786 152.465 143.786 158.044 168.667 172.413 168.667 166.835"/><polygon class="cls-22" points="110.944 148.749 100.992 143.007 100.992 146.237 110.944 151.986 110.944 148.749"/><polygon class="cls-15" points="168.667 178.984 143.786 164.618 143.786 170.192 168.667 184.555 168.667 178.984"/><polygon class="cls-15" points="114.925 155.115 112.934 153.966 112.934 133.753 114.925 134.899 114.925 155.115"/><polygon class="cls-15" points="118.91 157.284 116.915 156.138 116.915 135.913 118.906 137.067 118.91 157.284"/><polygon class="cls-15" points="121.891 159.41 119.901 158.26 119.901 138.137 121.891 139.278 121.891 159.41"/><polygon class="cls-15" points="125.872 161.628 123.882 160.478 123.882 140.257 125.872 141.407 125.872 161.628"/><polygon class="cls-15" points="129.853 163.777 127.863 162.626 127.863 142.447 129.853 143.591 129.853 163.777"/><polygon class="cls-15" points="133.834 165.94 131.844 164.789 131.844 144.619 133.834 145.771 133.834 165.94"/><polygon class="cls-15" points="136.82 168.137 134.829 166.979 134.829 146.758 136.82 147.916 136.82 168.137"/><polygon class="cls-15" points="140.801 170.256 138.81 169.119 138.81 148.979 140.801 150.123 140.801 170.256"/><path class="cls-3" d="M107.2,139.381a2.174,2.174,0,0,0-.983-1.705c-.537-.307-.983-.061-.983.573a2.2,2.2,0,0,0,.983,1.708C106.766,140.268,107.2,140.015,107.2,139.381Z"/><path class="cls-52" d="M117.92,145.571c0-7.457-5.233-16.527-11.7-20.263s-11.692-.71-11.692,6.759c0,7.453,5.234,16.526,11.692,20.251S117.92,153.032,117.92,145.571Z"/><path class="cls-53" d="M106.808,139.159c0-2.7-.261-5.035-.588-5.219s-.579,1.843-.579,4.551c0,2.683.261,5.022.579,5.2S106.808,141.846,106.808,139.159Z"/><path class="cls-54" d="M106.516,138.4c-2.023-2.5-3.786-4.354-3.951-4.139-.161.234,1.348,2.457,3.368,4.976,2.023,2.5,3.786,4.366,3.943,4.132S108.536,140.917,106.516,138.4Z"/><path class="cls-55" d="M105.933,138.072c-2.02.184-3.529.652-3.368,1.079.165.407,1.928.595,3.951.418s3.525-.664,3.36-1.078S107.956,137.891,105.933,138.072Z"/><path class="cls-56" d="M107.564,139.593a2.944,2.944,0,0,0-1.344-2.327c-.737-.427-1.336-.069-1.336.775a2.973,2.973,0,0,0,1.336,2.327C106.965,140.8,107.564,140.453,107.564,139.593Z"/><path class="cls-29" d="M149.03,163.414c-.737-.426-1.336-.08-1.336.776a2.959,2.959,0,0,0,1.336,2.316c.737.426,1.34.076,1.34-.768A2.976,2.976,0,0,0,149.03,163.414Z"/><path class="cls-30" d="M149.03,163.787c-.568-.334-1.025-.069-1.017.584a2.227,2.227,0,0,0,1.017,1.778c.565.333,1.026.065,1.026-.6A2.242,2.242,0,0,0,149.03,163.787Z"/><path class="cls-57" d="M149.03,154.848c-4.846-2.8-8.766-.538-8.766,5.053s3.92,12.387,8.766,15.19,8.774.526,8.774-5.064S153.88,157.636,149.03,154.848Z"/><path class="cls-58" d="M149.03,162.8c-1.033-.595-1.873-.107-1.873,1.083a4.139,4.139,0,0,0,1.873,3.249c1.037.6,1.878.126,1.878-1.083A4.151,4.151,0,0,0,149.03,162.8Z"/><path class="cls-29" d="M152.87,165.63c-.741-.426-1.332-.077-1.332.78a2.911,2.911,0,0,0,1.332,2.307c.737.438,1.34.081,1.34-.772A2.974,2.974,0,0,0,152.87,165.63Z"/><path class="cls-30" d="M152.87,166c-.565-.331-1.025-.073-1.025.583a2.277,2.277,0,0,0,1.025,1.786c.561.326,1.021.054,1.021-.592A2.261,2.261,0,0,0,152.87,166Z"/><path class="cls-59" d="M152.87,157.06c-4.846-2.807-8.774-.538-8.774,5.049s3.928,12.4,8.774,15.194,8.77.53,8.77-5.065S157.708,159.855,152.87,157.06Z"/><path class="cls-60" d="M152.87,165.012c-1.033-.595-1.878-.1-1.878,1.087a4.126,4.126,0,0,0,1.878,3.24c1.041.6,1.882.127,1.882-1.079A4.155,4.155,0,0,0,152.87,165.012Z"/><path class="cls-29" d="M156.706,167.853c-.734-.438-1.34-.077-1.34.776a2.979,2.979,0,0,0,1.34,2.311c.737.423,1.332.077,1.332-.779A2.934,2.934,0,0,0,156.706,167.853Z"/><path class="cls-30" d="M156.706,168.214c-.557-.33-1.025-.069-1.025.584a2.3,2.3,0,0,0,1.025,1.781c.568.327,1.025.062,1.025-.6A2.24,2.24,0,0,0,156.706,168.214Z"/><path class="cls-61" d="M156.706,159.275c-4.838-2.8-8.766-.53-8.766,5.05,0,5.6,3.928,12.4,8.766,15.2,4.846,2.788,8.77.518,8.77-5.068S161.552,162.07,156.706,159.275Z"/><path class="cls-62" d="M156.706,167.224c-1.033-.592-1.87-.1-1.878,1.086a4.135,4.135,0,0,0,1.878,3.245c1.041.6,1.874.134,1.874-1.079A4.163,4.163,0,0,0,156.706,167.224Z"/><path class="cls-29" d="M160.55,170.061c-.738-.418-1.336-.08-1.336.776a2.935,2.935,0,0,0,1.336,2.311c.737.434,1.332.089,1.332-.768A2.974,2.974,0,0,0,160.55,170.061Z"/><path class="cls-30" d="M160.55,170.426c-.569-.323-1.029-.073-1.029.591a2.26,2.26,0,0,0,1.029,1.778c.564.33,1.025.069,1.025-.591A2.259,2.259,0,0,0,160.55,170.426Z"/><path class="cls-63" d="M160.55,161.491c-4.846-2.8-8.767-.526-8.767,5.061s3.921,12.391,8.767,15.186,8.766.526,8.766-5.069S165.388,164.286,160.55,161.491Z"/><path class="cls-64" d="M160.55,169.439c-1.041-.591-1.882-.1-1.882,1.087a4.123,4.123,0,0,0,1.882,3.244c1.036.6,1.877.131,1.877-1.071A4.16,4.16,0,0,0,160.55,169.439Z"/><g class="cls-65"><polygon class="cls-1" points="170.657 192.552 99.001 151.189 99.001 172.974 170.657 214.333 170.657 192.552"/><polygon class="cls-15" points="168.667 193.064 143.786 178.698 143.786 184.277 168.667 198.639 168.667 193.064"/><polygon class="cls-22" points="110.944 174.982 100.992 169.237 100.992 172.466 110.944 178.219 110.944 174.982"/><polygon class="cls-15" points="168.667 205.213 143.786 190.851 143.786 196.43 168.667 210.792 168.667 205.213"/><polygon class="cls-15" points="114.925 181.357 112.934 180.203 112.934 159.982 114.925 161.136 114.925 181.357"/><polygon class="cls-15" points="118.91 183.521 116.915 182.367 116.915 162.142 118.906 163.296 118.91 183.521"/><polygon class="cls-15" points="121.891 185.647 119.901 184.494 119.901 164.363 121.891 165.507 121.891 185.647"/><polygon class="cls-15" points="125.872 187.854 123.882 186.704 123.882 166.487 125.872 167.649 125.872 187.854"/><polygon class="cls-15" points="129.853 190.007 127.863 188.855 127.863 168.681 129.853 169.828 129.853 190.007"/><polygon class="cls-15" points="133.834 192.174 131.844 191.031 131.844 170.849 133.834 172 133.834 192.174"/><polygon class="cls-15" points="136.82 194.362 134.829 193.225 134.829 173 136.82 174.15 136.82 194.362"/><polygon class="cls-15" points="140.801 196.493 138.81 195.348 138.81 175.204 140.801 176.357 140.801 196.493"/><path class="cls-3" d="M107.2,165.622a2.181,2.181,0,0,0-.983-1.712c-.537-.311-.983-.058-.983.564a2.18,2.18,0,0,0,.983,1.713C106.766,166.506,107.2,166.252,107.2,165.622Z"/><path class="cls-66" d="M117.92,171.808c0-7.464-5.233-16.538-11.7-20.266s-11.692-.707-11.692,6.758,5.234,16.522,11.692,20.259S117.92,179.265,117.92,171.808Z"/><path class="cls-67" d="M106.808,165.388c0-2.7-.261-5.034-.588-5.21s-.579,1.843-.579,4.538.261,5.03.579,5.218S106.808,168.08,106.808,165.388Z"/><path class="cls-68" d="M106.516,164.64c-2.023-2.52-3.786-4.367-3.951-4.14s1.348,2.454,3.368,4.961,3.786,4.366,3.943,4.143S108.536,167.15,106.516,164.64Z"/><path class="cls-69" d="M105.933,164.3c-2.02.177-3.529.661-3.368,1.076s1.928.6,3.951.422,3.525-.664,3.36-1.075S107.956,164.121,105.933,164.3Z"/><path class="cls-70" d="M107.564,165.826a2.955,2.955,0,0,0-1.344-2.327c-.737-.426-1.336-.081-1.336.772a2.987,2.987,0,0,0,1.336,2.338C106.965,167.028,107.564,166.682,107.564,165.826Z"/><path class="cls-29" d="M149.03,189.644c-.737-.415-1.336-.077-1.336.78a2.963,2.963,0,0,0,1.336,2.315c.737.426,1.34.077,1.34-.772A2.993,2.993,0,0,0,149.03,189.644Z"/><path class="cls-30" d="M149.03,190.009c-.568-.327-1.025-.065-1.017.591a2.232,2.232,0,0,0,1.017,1.782c.565.33,1.026.069,1.026-.595A2.268,2.268,0,0,0,149.03,190.009Z"/><path class="cls-71" d="M149.03,181.07c-4.846-2.792-8.766-.534-8.766,5.065s3.92,12.387,8.766,15.178,8.774.545,8.774-5.061C157.8,190.669,153.88,183.869,149.03,181.07Z"/><path class="cls-72" d="M149.03,189.03c-1.033-.6-1.873-.108-1.873,1.075a4.146,4.146,0,0,0,1.873,3.256c1.037.591,1.878.123,1.878-1.091A4.141,4.141,0,0,0,149.03,189.03Z"/><path class="cls-29" d="M152.87,191.871c-.741-.43-1.332-.081-1.332.768a2.924,2.924,0,0,0,1.332,2.315c.737.434,1.34.074,1.34-.779A2.954,2.954,0,0,0,152.87,191.871Z"/><path class="cls-30" d="M152.87,192.232c-.565-.33-1.025-.069-1.025.584a2.282,2.282,0,0,0,1.025,1.789c.561.323,1.021.05,1.021-.6A2.267,2.267,0,0,0,152.87,192.232Z"/><path class="cls-73" d="M152.87,183.286c-4.846-2.8-8.774-.527-8.774,5.064s3.928,12.387,8.774,15.183,8.77.526,8.77-5.054S157.708,186.085,152.87,183.286Z"/><path class="cls-74" d="M152.87,191.241c-1.033-.6-1.878-.1-1.878,1.079a4.129,4.129,0,0,0,1.878,3.256c1.041.6,1.882.131,1.882-1.082A4.181,4.181,0,0,0,152.87,191.241Z"/><path class="cls-29" d="M156.706,194.091c-.734-.438-1.34-.089-1.34.76a3,3,0,0,0,1.34,2.327c.737.418,1.332.077,1.332-.78A2.926,2.926,0,0,0,156.706,194.091Z"/><path class="cls-30" d="M156.706,194.444c-.557-.327-1.025-.069-1.025.584a2.3,2.3,0,0,0,1.025,1.792c.568.323,1.025.054,1.025-.6A2.271,2.271,0,0,0,156.706,194.444Z"/><path class="cls-75" d="M156.706,185.513c-4.838-2.8-8.766-.542-8.766,5.053s3.928,12.391,8.766,15.186,8.77.534,8.77-5.057S161.552,188.3,156.706,185.513Z"/><path class="cls-76" d="M156.706,193.457c-1.033-.6-1.87-.1-1.878,1.079a4.157,4.157,0,0,0,1.878,3.256c1.041.6,1.874.131,1.874-1.079A4.155,4.155,0,0,0,156.706,193.457Z"/><path class="cls-29" d="M160.55,196.3c-.738-.422-1.336-.076-1.336.768a2.958,2.958,0,0,0,1.336,2.324c.737.429,1.332.072,1.332-.776A2.938,2.938,0,0,0,160.55,196.3Z"/><path class="cls-30" d="M160.55,196.659c-.569-.33-1.029-.069-1.029.6a2.274,2.274,0,0,0,1.029,1.781c.564.323,1.025.05,1.025-.6A2.276,2.276,0,0,0,160.55,196.659Z"/><path class="cls-77" d="M160.55,187.716c-4.846-2.791-8.767-.526-8.767,5.065s3.921,12.391,8.767,15.19,8.766.527,8.766-5.06S165.388,190.527,160.55,187.716Z"/><path class="cls-78" d="M160.55,195.672c-1.041-.6-1.882-.1-1.882,1.091A4.1,4.1,0,0,0,160.55,200c1.036.6,1.877.134,1.877-1.079A4.184,4.184,0,0,0,160.55,195.672Z"/></g><polygon class="cls-1" points="170.657 219.857 99.001 178.482 99.001 200.275 170.657 241.638 170.657 219.857"/><polygon class="cls-2" points="167.671 221.191 155.729 214.297 155.729 229.221 167.671 236.111 167.671 221.191"/><path class="cls-3" d="M148.992,213.654a2.18,2.18,0,0,0-.979-1.7c-.545-.315-.991-.065-.991.561a2.166,2.166,0,0,0,.991,1.712C148.55,214.541,148.992,214.276,148.992,213.654Z"/><path class="cls-79" d="M159.705,219.84c0-7.457-5.234-16.534-11.692-20.262s-11.7-.707-11.7,6.754,5.238,16.53,11.7,20.262S159.705,227.3,159.705,219.84Z"/><path class="cls-80" d="M148.593,213.424c0-2.7-.262-5.026-.58-5.219-.323-.176-.588,1.855-.588,4.547s.265,5.026.588,5.214S148.593,216.112,148.593,213.424Z"/><path class="cls-81" d="M148.3,212.675c-2.02-2.526-3.782-4.373-3.947-4.135s1.347,2.446,3.367,4.953c2.024,2.523,3.786,4.374,3.947,4.135S150.313,215.183,148.3,212.675Z"/><path class="cls-82" d="M147.717,212.337c-2.02.188-3.525.665-3.367,1.079s1.927.595,3.947.415,3.529-.661,3.367-1.075S149.741,212.161,147.717,212.337Z"/><path class="cls-83" d="M149.349,213.858a2.985,2.985,0,0,0-1.336-2.327c-.745-.426-1.344-.077-1.344.775a2.992,2.992,0,0,0,1.344,2.339C148.75,215.064,149.353,214.718,149.349,213.858Z"/><path class="cls-9" d="M148.992,222.8a2.181,2.181,0,0,0-.979-1.7c-.545-.314-.991-.061-.991.573a2.206,2.206,0,0,0,.991,1.708C148.55,223.687,148.992,223.43,148.992,222.8Z"/><path class="cls-84" d="M159.705,228.987c0-7.457-5.234-16.527-11.692-20.255-6.466-3.744-11.7-.707-11.7,6.742s5.238,16.542,11.7,20.271S159.705,236.451,159.705,228.987Z"/><path class="cls-85" d="M148.593,222.574c0-2.7-.262-5.026-.58-5.214s-.588,1.843-.588,4.542.265,5.023.588,5.214S148.593,225.274,148.593,222.574Z"/><path class="cls-86" d="M148.3,221.821c-2.02-2.507-3.782-4.361-3.947-4.139-.158.238,1.347,2.454,3.367,4.973s3.786,4.358,3.947,4.135S150.313,224.333,148.3,221.821Z"/><path class="cls-87" d="M147.717,221.488c-2.02.184-3.525.66-3.367,1.071s1.927.6,3.947.43c2.02-.188,3.529-.664,3.367-1.083S149.741,221.3,147.717,221.488Z"/><path class="cls-88" d="M149.349,223.012a2.98,2.98,0,0,0-1.336-2.331c-.745-.43-1.344-.073-1.344.783a2.964,2.964,0,0,0,1.344,2.327C148.75,224.214,149.353,223.864,149.349,223.012Z"/><polygon class="cls-15" points="140.801 205.065 140.801 208.619 100.992 185.751 100.992 182.208 140.801 205.065"/><polygon class="cls-15" points="104.973 202.039 102.982 200.684 102.982 188.384 104.973 189.74 104.973 202.039"/><polygon class="cls-15" points="108.953 204.781 106.963 203.429 106.963 191.126 108.953 192.478 108.953 204.781"/><polygon class="cls-15" points="113.93 207.526 111.939 206.174 111.939 193.872 113.93 195.223 113.93 207.526"/><polygon class="cls-15" points="118.906 210.271 116.915 208.916 116.915 196.621 118.906 197.969 118.906 210.271"/><polygon class="cls-15" points="123.882 213.017 121.891 211.658 121.891 199.362 123.882 200.71 123.882 213.017"/><polygon class="cls-15" points="128.858 215.762 126.867 214.411 126.867 202.104 128.858 203.46 128.858 215.762"/><polygon class="cls-15" points="132.839 218.508 130.848 217.152 130.848 204.85 132.839 206.209 132.839 218.508"/><polygon class="cls-15" points="137.815 221.257 135.824 219.894 135.824 207.587 137.815 208.951 137.815 221.257"/></g><path class="cls-19" d="M258.714,180.367a6.25,6.25,0,0,1,2.826-4.895c1.562-.9,2.834-.169,2.834,1.635a6.263,6.263,0,0,1-2.834,4.9C259.977,182.905,258.714,182.168,258.714,180.367Z"/><path class="cls-19" d="M250.017,185.386a6.252,6.252,0,0,1,2.829-4.9c1.567-.9,2.831-.173,2.831,1.636a6.25,6.25,0,0,1-2.831,4.9C251.284,187.924,250.017,187.19,250.017,185.386Z"/><path class="cls-19" d="M241.327,190.416a6.23,6.23,0,0,1,2.822-4.9c1.563-.907,2.827-.166,2.827,1.635a6.24,6.24,0,0,1-2.823,4.892C242.59,192.946,241.327,192.217,241.327,190.416Z"/><path class="cls-19" d="M232.638,195.427a6.24,6.24,0,0,1,2.818-4.9c1.571-.9,2.834-.177,2.834,1.632a6.228,6.228,0,0,1-2.826,4.892C233.9,197.961,232.638,197.231,232.638,195.427Z"/><path class="cls-19" d="M223.944,200.441a6.255,6.255,0,0,1,2.823-4.9c1.563-.895,2.833-.169,2.833,1.632a6.242,6.242,0,0,1-2.833,4.9C225.2,202.976,223.944,202.25,223.944,200.441Z"/><path class="cls-19" d="M215.247,205.468a6.273,6.273,0,0,1,2.827-4.907c1.566-.9,2.829-.17,2.829,1.639a6.223,6.223,0,0,1-2.829,4.892C216.511,208,215.247,207.265,215.247,205.468Z"/><path class="cls-19" d="M206.55,210.482a6.257,6.257,0,0,1,2.834-4.9c1.559-.9,2.826-.169,2.826,1.636a6.264,6.264,0,0,1-2.826,4.9C207.821,213.021,206.55,212.287,206.55,210.482Z"/><path class="cls-19" d="M197.864,215.505a6.245,6.245,0,0,1,2.823-4.9c1.559-.906,2.826-.172,2.826,1.632a6.25,6.25,0,0,1-2.826,4.9C199.128,218.035,197.864,217.306,197.864,215.505Z"/><path class="cls-19" d="M189.171,220.516a6.263,6.263,0,0,1,2.826-4.9c1.563-.9,2.827-.169,2.827,1.636a6.236,6.236,0,0,1-2.827,4.9C190.435,223.05,189.171,222.325,189.171,220.516Z"/><path class="cls-19" d="M258.714,191.011a6.241,6.241,0,0,1,2.826-4.9c1.562-.9,2.834-.173,2.834,1.625a6.26,6.26,0,0,1-2.834,4.9C259.977,193.545,258.714,192.816,258.714,191.011Z"/><path class="cls-19" d="M250.017,196.03a6.271,6.271,0,0,1,2.829-4.9c1.567-.9,2.831-.165,2.831,1.64a6.226,6.226,0,0,1-2.831,4.895C251.284,198.56,250.017,197.827,250.017,196.03Z"/><path class="cls-19" d="M241.327,201.048a6.26,6.26,0,0,1,2.826-4.9c1.559-.9,2.823-.172,2.823,1.64a6.252,6.252,0,0,1-2.823,4.892C242.59,203.59,241.327,202.857,241.327,201.048Z"/><path class="cls-19" d="M232.638,206.071a6.249,6.249,0,0,1,2.826-4.9c1.563-.9,2.826-.169,2.826,1.636a6.246,6.246,0,0,1-2.826,4.892C233.9,208.609,232.638,207.872,232.638,206.071Z"/><path class="cls-19" d="M223.944,211.086a6.241,6.241,0,0,1,2.823-4.9c1.563-.9,2.833-.165,2.833,1.639a6.246,6.246,0,0,1-2.833,4.892C225.2,213.628,223.944,212.886,223.944,211.086Z"/><path class="cls-19" d="M215.247,216.108a6.251,6.251,0,0,1,2.827-4.9c1.566-.9,2.829-.168,2.829,1.636a6.235,6.235,0,0,1-2.829,4.9C216.511,218.638,215.247,217.913,215.247,216.108Z"/><path class="cls-19" d="M206.55,221.123a6.274,6.274,0,0,1,2.834-4.9c1.559-.9,2.826-.169,2.826,1.644a6.226,6.226,0,0,1-2.826,4.884C207.821,223.657,206.55,222.931,206.55,221.123Z"/><path class="cls-19" d="M197.864,226.149a6.286,6.286,0,0,1,2.823-4.907c1.559-.895,2.826-.161,2.826,1.632a6.245,6.245,0,0,1-2.826,4.9C199.128,228.675,197.864,227.954,197.864,226.149Z"/><path class="cls-19" d="M189.171,231.168a6.256,6.256,0,0,1,2.826-4.9c1.563-.906,2.827-.173,2.827,1.632A6.217,6.217,0,0,1,192,232.788C190.435,233.7,189.171,232.968,189.171,231.168Z"/><path class="cls-19" d="M258.714,201.659a6.24,6.24,0,0,1,2.826-4.9c1.562-.9,2.834-.173,2.834,1.628a6.259,6.259,0,0,1-2.834,4.9C259.977,204.193,258.714,203.456,258.714,201.659Z"/><path class="cls-19" d="M250.017,206.677a6.245,6.245,0,0,1,2.829-4.895c1.567-.907,2.831-.173,2.831,1.624a6.231,6.231,0,0,1-2.831,4.9C251.284,209.212,250.017,208.478,250.017,206.677Z"/><path class="cls-19" d="M241.327,211.692a6.24,6.24,0,0,1,2.826-4.892c1.559-.91,2.823-.18,2.823,1.64a6.25,6.25,0,0,1-2.823,4.884C242.59,214.222,241.327,213.493,241.327,211.692Z"/><path class="cls-19" d="M232.638,216.711a6.283,6.283,0,0,1,2.826-4.907c1.563-.888,2.826-.158,2.826,1.635a6.25,6.25,0,0,1-2.826,4.9C233.9,219.249,232.638,218.523,232.638,216.711Z"/><path class="cls-19" d="M223.944,221.733a6.218,6.218,0,0,1,2.823-4.9c1.563-.9,2.833-.181,2.833,1.627a6.259,6.259,0,0,1-2.833,4.9C225.2,224.271,223.944,223.534,223.944,221.733Z"/><path class="cls-19" d="M215.247,226.744a6.222,6.222,0,0,1,2.827-4.888c1.566-.906,2.829-.173,2.829,1.636a6.233,6.233,0,0,1-2.829,4.884C216.511,229.286,215.247,228.549,215.247,226.744Z"/><path class="cls-19" d="M206.55,231.77a6.249,6.249,0,0,1,2.834-4.9c1.559-.907,2.826-.165,2.826,1.635a6.263,6.263,0,0,1-2.826,4.9C207.821,234.3,206.55,233.567,206.55,231.77Z"/><path class="cls-19" d="M197.864,236.793a6.244,6.244,0,0,1,2.823-4.9c1.559-.9,2.826-.177,2.826,1.628a6.28,6.28,0,0,1-2.826,4.908C199.128,239.323,197.864,238.59,197.864,236.793Z"/><path class="cls-19" d="M189.171,241.8A6.237,6.237,0,0,1,192,236.908c1.563-.9,2.827-.169,2.827,1.632a6.248,6.248,0,0,1-2.827,4.9C190.435,244.342,189.171,243.616,189.171,241.8Z"/><path class="cls-19" d="M258.714,212.3a6.249,6.249,0,0,1,2.826-4.9c1.562-.9,2.834-.169,2.834,1.632a6.253,6.253,0,0,1-2.834,4.9C259.977,214.833,258.714,214.1,258.714,212.3Z"/><path class="cls-19" d="M250.017,217.314a6.256,6.256,0,0,1,2.829-4.9c1.567-.9,2.831-.173,2.831,1.636a6.232,6.232,0,0,1-2.831,4.9C251.284,219.852,250.017,219.118,250.017,217.314Z"/><path class="cls-19" d="M241.327,222.336a6.254,6.254,0,0,1,2.826-4.9c1.559-.9,2.823-.165,2.823,1.628a6.25,6.25,0,0,1-2.823,4.9C242.59,224.874,241.327,224.141,241.327,222.336Z"/><path class="cls-19" d="M232.638,227.358a6.26,6.26,0,0,1,2.826-4.9c1.563-.9,2.826-.169,2.826,1.636a6.237,6.237,0,0,1-2.826,4.9C233.9,229.889,232.638,229.159,232.638,227.358Z"/><path class="cls-19" d="M223.944,232.37a6.245,6.245,0,0,1,2.823-4.9c1.563-.894,2.833-.172,2.833,1.633a6.237,6.237,0,0,1-2.833,4.9C225.2,234.9,223.944,234.178,223.944,232.37Z"/><path class="cls-19" d="M215.247,237.392a6.269,6.269,0,0,1,2.827-4.9c1.566-.9,2.829-.165,2.829,1.636a6.263,6.263,0,0,1-2.829,4.9C216.511,239.922,215.247,239.2,215.247,237.392Z"/><path class="cls-19" d="M206.55,242.411a6.251,6.251,0,0,1,2.834-4.9c1.559-.9,2.826-.168,2.826,1.629a6.232,6.232,0,0,1-2.826,4.9C207.821,244.945,206.55,244.215,206.55,242.411Z"/><path class="cls-19" d="M197.864,247.425a6.254,6.254,0,0,1,2.823-4.892c1.559-.906,2.826-.169,2.826,1.632a6.238,6.238,0,0,1-2.826,4.9C199.128,249.963,197.864,249.23,197.864,247.425Z"/><path class="cls-19" d="M189.171,252.444a6.267,6.267,0,0,1,2.826-4.9c1.563-.9,2.827-.173,2.827,1.636a6.242,6.242,0,0,1-2.827,4.9C190.435,254.978,189.171,254.26,189.171,252.444Z"/><path class="cls-19" d="M258.714,222.943a6.239,6.239,0,0,1,2.826-4.892c1.562-.914,2.834-.177,2.834,1.636a6.224,6.224,0,0,1-2.834,4.884C259.977,225.473,258.714,224.751,258.714,222.943Z"/><path class="cls-19" d="M250.017,227.961a6.242,6.242,0,0,1,2.829-4.9c1.567-.906,2.831-.168,2.831,1.633a6.235,6.235,0,0,1-2.831,4.9C251.284,230.5,250.017,229.77,250.017,227.961Z"/><path class="cls-19" d="M241.327,232.976a6.24,6.24,0,0,1,2.826-4.892c1.559-.9,2.823-.172,2.823,1.632a6.253,6.253,0,0,1-2.823,4.9C242.59,235.518,241.327,234.785,241.327,232.976Z"/><path class="cls-19" d="M232.638,238a6.266,6.266,0,0,1,2.826-4.9c1.563-.891,2.826-.169,2.826,1.636a6.217,6.217,0,0,1-2.826,4.892C233.9,240.529,232.638,239.8,232.638,238Z"/><path class="cls-19" d="M223.944,243.017a6.257,6.257,0,0,1,2.823-4.9c1.563-.906,2.833-.168,2.833,1.636a6.24,6.24,0,0,1-2.833,4.892C225.2,245.551,223.944,244.826,223.944,243.017Z"/><path class="cls-19" d="M215.247,248.036a6.26,6.26,0,0,1,2.827-4.9c1.566-.9,2.829-.169,2.829,1.636a6.236,6.236,0,0,1-2.829,4.9C216.511,250.574,215.247,249.848,215.247,248.036Z"/><path class="cls-19" d="M206.55,253.054a6.234,6.234,0,0,1,2.834-4.891c1.559-.907,2.826-.181,2.826,1.631a6.269,6.269,0,0,1-2.826,4.9C207.821,255.588,206.55,254.859,206.55,253.054Z"/><path class="cls-19" d="M197.864,258.069a6.251,6.251,0,0,1,2.823-4.888c1.559-.906,2.826-.173,2.826,1.624a6.259,6.259,0,0,1-2.826,4.9C199.132,260.611,197.864,259.874,197.864,258.069Z"/><path class="cls-19" d="M189.171,263.091a6.262,6.262,0,0,1,2.826-4.9c1.563-.9,2.83-.165,2.83,1.639a6.234,6.234,0,0,1-2.83,4.893C190.435,265.622,189.171,264.9,189.171,263.091Z"/><path class="cls-19" d="M258.714,233.59a6.241,6.241,0,0,1,2.826-4.9c1.562-.906,2.834-.173,2.834,1.632a6.239,6.239,0,0,1-2.834,4.892C259.977,236.121,258.714,235.384,258.714,233.59Z"/><path class="cls-19" d="M250.017,238.605a6.244,6.244,0,0,1,2.829-4.895c1.567-.907,2.831-.173,2.831,1.624a6.235,6.235,0,0,1-2.831,4.9C251.284,241.132,250.017,240.406,250.017,238.605Z"/><path class="cls-19" d="M241.327,243.631a6.218,6.218,0,0,1,2.826-4.9c1.559-.914,2.823-.181,2.823,1.636a6.26,6.26,0,0,1-2.823,4.892C242.59,246.158,241.327,245.425,241.327,243.631Z"/><path class="cls-19" d="M232.638,248.642a6.216,6.216,0,0,1,2.826-4.895c1.563-.9,2.826-.173,2.826,1.635a6.251,6.251,0,0,1-2.826,4.9C233.9,251.177,232.638,250.451,232.638,248.642Z"/><path class="cls-19" d="M223.944,253.665a6.227,6.227,0,0,1,2.823-4.9c1.563-.9,2.833-.169,2.833,1.625a6.23,6.23,0,0,1-2.833,4.9C225.2,256.2,223.944,255.458,223.944,253.665Z"/><path class="cls-19" d="M215.247,258.68a6.26,6.26,0,0,1,2.827-4.9c1.566-.9,2.829-.177,2.829,1.643a6.2,6.2,0,0,1-2.829,4.881C216.511,261.21,215.247,260.481,215.247,258.68Z"/><path class="cls-19" d="M206.55,263.7a6.245,6.245,0,0,1,2.834-4.9c1.559-.9,2.826-.172,2.826,1.636a6.283,6.283,0,0,1-2.826,4.9C207.821,266.233,206.55,265.511,206.55,263.7Z"/><path class="cls-19" d="M197.864,268.721a6.254,6.254,0,0,1,2.823-4.9c1.566-.9,2.826-.173,2.826,1.632a6.239,6.239,0,0,1-2.826,4.9C199.132,271.251,197.864,270.518,197.864,268.721Z"/><path class="cls-19" d="M189.171,273.739a6.234,6.234,0,0,1,2.826-4.9c1.563-.9,2.83-.168,2.83,1.629a6.2,6.2,0,0,1-2.83,4.895C190.435,276.27,189.171,275.536,189.171,273.739Z"/><path class="cls-19" d="M258.714,244.231a6.243,6.243,0,0,1,2.826-4.9c1.562-.891,2.834-.165,2.834,1.632a6.268,6.268,0,0,1-2.834,4.9C259.977,246.761,258.714,246.031,258.714,244.231Z"/><path class="cls-19" d="M250.017,249.253a6.278,6.278,0,0,1,2.829-4.907c1.567-.9,2.831-.169,2.831,1.636a6.243,6.243,0,0,1-2.831,4.9C251.284,251.784,250.017,251.046,250.017,249.253Z"/><path class="cls-19" d="M241.327,254.26a6.29,6.29,0,0,1,2.826-4.9c1.559-.89,2.823-.157,2.823,1.64a6.228,6.228,0,0,1-2.823,4.9C242.59,256.8,241.327,256.072,241.327,254.26Z"/><path class="cls-19" d="M232.638,259.286a6.242,6.242,0,0,1,2.826-4.9c1.563-.9,2.826-.165,2.826,1.632a6.235,6.235,0,0,1-2.826,4.9C233.9,261.817,232.638,261.087,232.638,259.286Z"/><path class="cls-19" d="M223.944,264.3a6.224,6.224,0,0,1,2.823-4.888c1.563-.91,2.833-.169,2.833,1.632a6.252,6.252,0,0,1-2.833,4.892C225.2,266.835,223.944,266.1,223.944,264.3Z"/><path class="cls-19" d="M215.247,269.32a6.226,6.226,0,0,1,2.827-4.888c1.566-.907,2.829-.173,2.829,1.628a6.235,6.235,0,0,1-2.829,4.895C216.511,271.858,215.247,271.128,215.247,269.32Z"/><path class="cls-19" d="M206.554,274.342a6.256,6.256,0,0,1,2.83-4.9c1.559-.9,2.826-.173,2.826,1.631a6.227,6.227,0,0,1-2.826,4.9C207.821,276.872,206.554,276.147,206.554,274.342Z"/><path class="cls-19" d="M197.864,279.357a6.272,6.272,0,0,1,2.823-4.9c1.566-.894,2.826-.169,2.826,1.636a6.21,6.21,0,0,1-2.826,4.9C199.132,281.9,197.864,281.158,197.864,279.357Z"/><path class="cls-19" d="M189.171,284.375A6.24,6.24,0,0,1,192,279.488c1.567-.915,2.83-.181,2.83,1.631a6.258,6.258,0,0,1-2.83,4.9C190.435,286.917,189.171,286.184,189.171,284.375Z"/><path class="cls-19" d="M258.714,254.878a6.224,6.224,0,0,1,2.826-4.9c1.562-.91,2.834-.18,2.834,1.629a6.251,6.251,0,0,1-2.834,4.892C259.977,257.409,258.714,256.679,258.714,254.878Z"/><path class="cls-19" d="M250.017,259.889a6.256,6.256,0,0,1,2.829-4.9c1.567-.907,2.831-.173,2.831,1.635a6.247,6.247,0,0,1-2.831,4.9C251.291,262.427,250.017,261.7,250.017,259.889Z"/><path class="cls-19" d="M241.327,264.911a6.233,6.233,0,0,1,2.826-4.895c1.559-.9,2.83-.173,2.83,1.628a6.286,6.286,0,0,1-2.83,4.9C242.594,267.442,241.327,266.712,241.327,264.911Z"/><path class="cls-19" d="M232.638,269.926a6.264,6.264,0,0,1,2.826-4.9c1.563-.9,2.826-.165,2.826,1.639a6.225,6.225,0,0,1-2.826,4.888C233.9,272.464,232.638,271.731,232.638,269.926Z"/><path class="cls-19" d="M223.944,274.949a6.252,6.252,0,0,1,2.823-4.9c1.563-.9,2.833-.177,2.833,1.636a6.287,6.287,0,0,1-2.833,4.9C225.2,277.483,223.944,276.753,223.944,274.949Z"/><path class="cls-19" d="M215.247,279.963a6.227,6.227,0,0,1,2.827-4.891c1.566-.9,2.829-.177,2.829,1.628a6.233,6.233,0,0,1-2.829,4.9C216.511,282.5,215.247,281.768,215.247,279.963Z"/><path class="cls-19" d="M206.554,284.993a6.217,6.217,0,0,1,2.83-4.9c1.559-.914,2.826-.169,2.826,1.624a6.265,6.265,0,0,1-2.826,4.9C207.821,287.52,206.554,286.783,206.554,284.993Z"/><path class="cls-19" d="M197.864,290a6.263,6.263,0,0,1,2.823-4.892c1.566-.91,2.826-.177,2.826,1.636a6.242,6.242,0,0,1-2.826,4.895C199.132,292.535,197.864,291.809,197.864,290Z"/><path class="cls-19" d="M189.171,295.019a6.256,6.256,0,0,1,2.826-4.9c1.567-.891,2.83-.169,2.83,1.636a6.246,6.246,0,0,1-2.83,4.9C190.435,297.561,189.171,296.828,189.171,295.019Z"/></g></g></svg>