<svg xmlns="http://www.w3.org/2000/svg" xmlns:xlink="http://www.w3.org/1999/xlink" viewBox="0 0 264.072 600"><defs><style>.cls-1{fill:#272e31;}.cls-2{fill:#ddeff1;}.cls-3{fill:#3761ab;}.cls-10,.cls-11,.cls-12,.cls-13,.cls-14,.cls-24,.cls-25,.cls-26,.cls-27,.cls-28,.cls-31,.cls-32,.cls-33,.cls-34,.cls-35,.cls-36,.cls-37,.cls-38,.cls-39,.cls-4,.cls-40,.cls-41,.cls-42,.cls-43,.cls-44,.cls-45,.cls-46,.cls-47,.cls-48,.cls-49,.cls-5,.cls-50,.cls-51,.cls-52,.cls-53,.cls-54,.cls-55,.cls-56,.cls-57,.cls-58,.cls-59,.cls-6,.cls-60,.cls-61,.cls-62,.cls-63,.cls-64,.cls-66,.cls-67,.cls-68,.cls-69,.cls-7,.cls-70,.cls-71,.cls-72,.cls-73,.cls-74,.cls-75,.cls-76,.cls-77,.cls-78,.cls-79,.cls-8,.cls-80,.cls-81,.cls-82,.cls-83,.cls-84,.cls-85,.cls-86,.cls-87,.cls-88{mix-blend-mode:color-dodge;}.cls-4{fill:url(#radial-gradient);}.cls-5{fill:url(#radial-gradient-2);}.cls-6{fill:url(#radial-gradient-3);}.cls-7{fill:url(#radial-gradient-4);}.cls-8{fill:url(#radial-gradient-5);}.cls-9{fill:#e41f1c;}.cls-10{fill:url(#radial-gradient-6);}.cls-11{fill:url(#radial-gradient-7);}.cls-12{fill:url(#radial-gradient-8);}.cls-13{fill:url(#radial-gradient-9);}.cls-14{fill:url(#radial-gradient-10);}.cls-15{fill:#101315;}.cls-16{isolation:isolate;}.cls-17{fill:#232a2b;}.cls-18{fill:#1c2123;}.cls-19{fill:#121618;}.cls-20{fill:#181d1f;}.cls-21{fill:#353e42;}.cls-22{fill:#d6d7d7;}.cls-23{mask:url(#mask);}.cls-24{fill:url(#radial-gradient-11);}.cls-25{fill:url(#radial-gradient-12);}.cls-26{fill:url(#radial-gradient-13);}.cls-27{fill:url(#radial-gradient-14);}.cls-28{fill:url(#radial-gradient-15);}.cls-29{fill:#090914;}.cls-30{fill:#64b32e;}.cls-31{fill:url(#radial-gradient-16);}.cls-32{fill:url(#radial-gradient-17);}.cls-33{fill:url(#radial-gradient-18);}.cls-34{fill:url(#radial-gradient-19);}.cls-35{fill:url(#radial-gradient-20);}.cls-36{fill:url(#radial-gradient-21);}.cls-37{fill:url(#radial-gradient-22);}.cls-38{fill:url(#radial-gradient-23);}.cls-39{fill:url(#radial-gradient-24);}.cls-40{fill:url(#radial-gradient-25);}.cls-41{fill:url(#radial-gradient-26);}.cls-42{fill:url(#radial-gradient-27);}.cls-43{fill:url(#radial-gradient-28);}.cls-44{fill:url(#radial-gradient-29);}.cls-45{fill:url(#radial-gradient-30);}.cls-46{fill:url(#radial-gradient-31);}.cls-47{fill:url(#radial-gradient-32);}.cls-48{fill:url(#radial-gradient-33);}.cls-49{fill:url(#radial-gradient-34);}.cls-50{fill:url(#radial-gradient-35);}.cls-51{fill:url(#radial-gradient-36);}.cls-52{fill:url(#radial-gradient-37);}.cls-53{fill:url(#radial-gradient-38);}.cls-54{fill:url(#radial-gradient-39);}.cls-55{fill:url(#radial-gradient-40);}.cls-56{fill:url(#radial-gradient-41);}.cls-57{fill:url(#radial-gradient-42);}.cls-58{fill:url(#radial-gradient-43);}.cls-59{fill:url(#radial-gradient-44);}.cls-60{fill:url(#radial-gradient-45);}.cls-61{fill:url(#radial-gradient-46);}.cls-62{fill:url(#radial-gradient-47);}.cls-63{fill:url(#radial-gradient-48);}.cls-64{fill:url(#radial-gradient-49);}.cls-65{mask:url(#mask-2);}.cls-66{fill:url(#radial-gradient-50);}.cls-67{fill:url(#radial-gradient-51);}.cls-68{fill:url(#radial-gradient-52);}.cls-69{fill:url(#radial-gradient-53);}.cls-70{fill:url(#radial-gradient-54);}.cls-71{fill:url(#radial-gradient-55);}.cls-72{fill:url(#radial-gradient-56);}.cls-73{fill:url(#radial-gradient-57);}.cls-74{fill:url(#radial-gradient-58);}.cls-75{fill:url(#radial-gradient-59);}.cls-76{fill:url(#radial-gradient-60);}.cls-77{fill:url(#radial-gradient-61);}.cls-78{fill:url(#radial-gradient-62);}.cls-79{fill:url(#radial-gradient-63);}.cls-80{fill:url(#radial-gradient-64);}.cls-81{fill:url(#radial-gradient-65);}.cls-82{fill:url(#radial-gradient-66);}.cls-83{fill:url(#radial-gradient-67);}.cls-84{fill:url(#radial-gradient-68);}.cls-85{fill:url(#radial-gradient-69);}.cls-86{fill:url(#radial-gradient-70);}.cls-87{fill:url(#radial-gradient-71);}.cls-88{fill:url(#radial-gradient-72);}.cls-89{filter:url(#luminosity-invert-noclip-2);}.cls-90{filter:url(#luminosity-invert-noclip);}</style><radialGradient id="radial-gradient" cx="-142.391" cy="1539.045" r="12.579" gradientTransform="matrix(0.866, 0.5, 0, 1, 262.749, -980.206)" gradientUnits="userSpaceOnUse"><stop offset="0.091" stop-color="#3258a4"/><stop offset="0.273" stop-color="#244077"/><stop offset="0.502" stop-color="#152544"/><stop offset="0.703" stop-color="#0a1120"/><stop offset="0.865" stop-color="#030509"/><stop offset="0.968" stop-color="#010101"/></radialGradient><radialGradient id="radial-gradient-2" cx="-285.232" cy="1539.3" r="4.553" gradientTransform="matrix(0.119, 0.069, 0, 1, 173.383, -1032.058)" gradientUnits="userSpaceOnUse"><stop offset="0.237" stop-color="#3258a4"/><stop offset="0.388" stop-color="#244077"/><stop offset="0.579" stop-color="#152544"/><stop offset="0.747" stop-color="#0a1120"/><stop offset="0.882" stop-color="#030509"/><stop offset="0.968" stop-color="#010101"/></radialGradient><radialGradient id="radial-gradient-3" cx="-7738.648" cy="921.626" r="4.542" gradientTransform="matrix(0.06, -0.085, 0.75, 0.933, -91.332, -1026.92)" xlink:href="#radial-gradient-2"/><radialGradient id="radial-gradient-4" cx="-7573.275" cy="-274.103" r="4.556" gradientTransform="matrix(-0.06, -0.153, 0.75, -0.067, -105.595, -691.7)" xlink:href="#radial-gradient-2"/><radialGradient id="radial-gradient-5" cx="-142.389" cy="1539.045" r="1.444" gradientTransform="matrix(0.866, 0.5, 0, 1, 262.749, -980.206)" gradientUnits="userSpaceOnUse"><stop offset="0.22" stop-color="#dbe5f6"/><stop offset="0.286" stop-color="#c2cbda"/><stop offset="0.477" stop-color="#7e848e"/><stop offset="0.647" stop-color="#494c51"/><stop offset="0.791" stop-color="#222326"/><stop offset="0.902" stop-color="#0a0a0b"/><stop offset="0.968" stop-color="#010101"/></radialGradient><radialGradient id="radial-gradient-6" cx="-142.392" cy="1547.567" r="12.579" gradientTransform="matrix(0.866, 0.5, 0, 1, 262.75, -980.206)" gradientUnits="userSpaceOnUse"><stop offset="0.091" stop-color="#de0a14"/><stop offset="0.202" stop-color="#b80811"/><stop offset="0.407" stop-color="#77060b"/><stop offset="0.593" stop-color="#440407"/><stop offset="0.755" stop-color="#200204"/><stop offset="0.885" stop-color="#090102"/><stop offset="0.968" stop-color="#010101"/></radialGradient><radialGradient id="radial-gradient-7" cx="-285.232" cy="1547.829" r="4.555" gradientTransform="matrix(0.119, 0.069, 0, 1, 173.383, -1032.058)" gradientUnits="userSpaceOnUse"><stop offset="0.237" stop-color="#e5192f"/><stop offset="0.343" stop-color="#b81426"/><stop offset="0.51" stop-color="#780d19"/><stop offset="0.662" stop-color="#44080f"/><stop offset="0.794" stop-color="#200407"/><stop offset="0.9" stop-color="#090203"/><stop offset="0.968" stop-color="#010101"/></radialGradient><radialGradient id="radial-gradient-8" cx="-7792.418" cy="925.89" r="4.552" gradientTransform="matrix(0.06, -0.085, 0.75, 0.933, -91.332, -1026.92)" xlink:href="#radial-gradient-7"/><radialGradient id="radial-gradient-9" cx="-7627.022" cy="-278.364" r="4.545" gradientTransform="matrix(-0.06, -0.153, 0.75, -0.067, -105.594, -691.7)" xlink:href="#radial-gradient-7"/><radialGradient id="radial-gradient-10" cx="-142.39" cy="1547.567" r="1.446" gradientTransform="matrix(0.866, 0.5, 0, 1, 262.75, -980.206)" gradientUnits="userSpaceOnUse"><stop offset="0.22" stop-color="#ef8197"/><stop offset="0.271" stop-color="#da768a"/><stop offset="0.466" stop-color="#8e4d5a"/><stop offset="0.64" stop-color="#512c34"/><stop offset="0.787" stop-color="#261518"/><stop offset="0.901" stop-color="#0b0607"/><stop offset="0.968" stop-color="#010101"/></radialGradient><filter id="luminosity-invert-noclip" x="89.633" y="330.178" width="70.9" height="258.204" filterUnits="userSpaceOnUse" color-interpolation-filters="sRGB"><feColorMatrix values="-1 0 0 0 1 0 -1 0 0 1 0 0 -1 0 1 0 0 0 1 0" result="invert"/><feFlood flood-color="#fff" result="bg"/><feBlend in="invert" in2="bg"/></filter><mask id="mask" x="89.633" y="330.178" width="70.9" height="258.204" maskUnits="userSpaceOnUse"><g class="cls-90"><polygon class="cls-1" points="160.533 493.951 93.799 455.425 93.799 475.717 160.533 514.247 160.533 493.951"/><polygon class="cls-2" points="157.752 495.2 146.63 488.78 146.63 502.672 157.752 509.089 157.752 495.2"/><path class="cls-3" d="M140.356,488.178a2.049,2.049,0,0,0-.912-1.595c-.508-.29-.923-.054-.923.532a2.047,2.047,0,0,0,.923,1.6C139.944,489,140.356,488.764,140.356,488.178Z"/><path class="cls-4" d="M150.333,493.939c0-6.948-4.874-15.4-10.889-18.871s-10.9-.655-10.9,6.29,4.878,15.391,10.9,18.867S150.333,500.883,150.333,493.939Z"/><path class="cls-5" d="M139.984,487.967c0-2.507-.243-4.689-.54-4.857s-.547,1.713-.547,4.227.246,4.678.547,4.849S139.984,490.473,139.984,487.967Z"/><path class="cls-6" d="M139.708,487.262c-1.881-2.346-3.522-4.059-3.676-3.855s1.256,2.289,3.136,4.624,3.526,4.07,3.676,3.855S141.586,489.6,139.708,487.262Z"/><path class="cls-7" d="M139.168,486.947c-1.88.176-3.283.623-3.136,1s1.795.566,3.676.4,3.287-.625,3.136-1C142.694,486.951,141.053,486.779,139.168,486.947Z"/><path class="cls-8" d="M140.688,488.364a2.775,2.775,0,0,0-1.244-2.164c-.694-.393-1.252-.071-1.252.722a2.75,2.75,0,0,0,1.252,2.171C140.13,489.494,140.692,489.172,140.688,488.364Z"/><path class="cls-9" d="M140.356,496.7a2.037,2.037,0,0,0-.912-1.591c-.508-.293-.923-.054-.923.533a2.021,2.021,0,0,0,.923,1.591C139.944,497.522,140.356,497.282,140.356,496.7Z"/><path class="cls-10" d="M150.333,502.457c0-6.945-4.874-15.395-10.889-18.867s-10.9-.662-10.9,6.286,4.878,15.4,10.9,18.871S150.333,509.409,150.333,502.457Z"/><path class="cls-11" d="M139.984,496.481c0-2.507-.243-4.681-.54-4.845-.3-.183-.547,1.713-.547,4.223s.246,4.681.547,4.86S139.984,498.992,139.984,496.481Z"/><path class="cls-12" d="M139.708,495.787c-1.881-2.342-3.522-4.065-3.676-3.851s1.256,2.278,3.136,4.627c1.885,2.332,3.526,4.056,3.676,3.841S141.586,498.126,139.708,495.787Z"/><path class="cls-13" d="M139.168,495.476c-1.88.168-3.283.615-3.136.994s1.795.562,3.676.4,3.287-.615,3.136-1.008S141.053,495.3,139.168,495.476Z"/><path class="cls-14" d="M140.688,496.893a2.777,2.777,0,0,0-1.244-2.175c-.694-.393-1.252-.068-1.252.733a2.76,2.76,0,0,0,1.252,2.167C140.13,498.008,140.692,497.69,140.688,496.893Z"/><polygon class="cls-15" points="132.727 480.189 132.727 483.485 95.652 462.194 95.652 458.891 132.727 480.189"/><polygon class="cls-15" points="99.36 477.364 97.506 476.094 97.506 464.647 99.36 465.906 99.36 477.364"/><polygon class="cls-15" points="103.067 479.921 101.214 478.647 101.214 467.197 103.067 468.463 103.067 479.921"/><polygon class="cls-15" points="107.702 482.474 105.848 481.211 105.848 469.75 107.702 471.023 107.702 482.474"/><polygon class="cls-15" points="112.336 485.027 110.482 483.761 110.482 472.311 112.336 473.577 112.336 485.027"/><polygon class="cls-15" points="116.97 487.588 115.117 486.321 115.117 474.868 116.97 476.13 116.97 487.588"/><polygon class="cls-15" points="121.605 490.137 119.751 488.882 119.751 477.421 121.605 478.687 121.605 490.137"/><polygon class="cls-15" points="125.312 492.694 123.458 491.439 123.458 479.974 125.312 481.24 125.312 492.694"/><polygon class="cls-15" points="129.946 495.247 128.093 493.989 128.093 482.538 129.946 483.793 129.946 495.247"/></g></mask><radialGradient id="radial-gradient-11" cx="-187.325" cy="1418.118" r="12.578" xlink:href="#radial-gradient"/><radialGradient id="radial-gradient-12" cx="-612.245" cy="1418.367" r="4.556" xlink:href="#radial-gradient-2"/><radialGradient id="radial-gradient-13" cx="-7139.796" cy="822.229" r="4.558" gradientTransform="matrix(0.06, -0.085, 0.75, 0.933, -91.332, -1026.92)" xlink:href="#radial-gradient-2"/><radialGradient id="radial-gradient-14" cx="-6647.299" cy="-252.528" r="4.55" gradientTransform="matrix(-0.06, -0.153, 0.75, -0.067, -105.595, -691.7)" xlink:href="#radial-gradient-2"/><radialGradient id="radial-gradient-15" cx="-187.325" cy="1418.12" r="1.443" xlink:href="#radial-gradient-5"/><radialGradient id="radial-gradient-16" cx="-5038.676" cy="-6656.588" r="9.429" gradientTransform="matrix(0, -1, 0.866, 0.5, 5905, -1341.782)" gradientUnits="userSpaceOnUse"><stop offset="0.237" stop-color="#325926"/><stop offset="0.366" stop-color="#26441d"/><stop offset="0.624" stop-color="#12200e"/><stop offset="0.834" stop-color="#060904"/><stop offset="0.968" stop-color="#010101"/></radialGradient><radialGradient id="radial-gradient-17" cx="-5038.671" cy="-6656.59" r="2.018" gradientTransform="matrix(0, -1, 0.866, 0.5, 5905, -1341.782)" gradientUnits="userSpaceOnUse"><stop offset="0.22" stop-color="#8ebf22"/><stop offset="0.375" stop-color="#698d19"/><stop offset="0.579" stop-color="#3d510f"/><stop offset="0.753" stop-color="#1c2607"/><stop offset="0.888" stop-color="#080b03"/><stop offset="0.968" stop-color="#010101"/></radialGradient><radialGradient id="radial-gradient-18" cx="-5038.68" cy="-6652.465" r="9.431" xlink:href="#radial-gradient-16"/><radialGradient id="radial-gradient-19" cx="-5038.67" cy="-6652.46" r="2.02" xlink:href="#radial-gradient-17"/><radialGradient id="radial-gradient-20" cx="-5038.677" cy="-6648.335" r="9.429" xlink:href="#radial-gradient-16"/><radialGradient id="radial-gradient-21" cx="-5038.676" cy="-6648.339" r="2.017" xlink:href="#radial-gradient-17"/><radialGradient id="radial-gradient-22" cx="-5038.674" cy="-6644.204" r="9.428" xlink:href="#radial-gradient-16"/><radialGradient id="radial-gradient-23" cx="-5038.671" cy="-6644.206" r="2.018" xlink:href="#radial-gradient-17"/><radialGradient id="radial-gradient-24" cx="-187.325" cy="1443.869" r="12.58" xlink:href="#radial-gradient"/><radialGradient id="radial-gradient-25" cx="-612.245" cy="1444.127" r="4.555" xlink:href="#radial-gradient-2"/><radialGradient id="radial-gradient-26" cx="-7302.122" cy="835.112" r="4.547" gradientTransform="matrix(0.06, -0.085, 0.75, 0.933, -91.332, -1026.92)" xlink:href="#radial-gradient-2"/><radialGradient id="radial-gradient-27" cx="-6809.669" cy="-265.407" r="4.539" gradientTransform="matrix(-0.06, -0.153, 0.75, -0.067, -105.595, -691.7)" xlink:href="#radial-gradient-2"/><radialGradient id="radial-gradient-28" cx="-187.325" cy="1443.873" r="1.444" xlink:href="#radial-gradient-5"/><radialGradient id="radial-gradient-29" cx="-5064.433" cy="-6656.588" r="9.428" xlink:href="#radial-gradient-16"/><radialGradient id="radial-gradient-30" cx="-5064.42" cy="-6656.59" r="2.017" xlink:href="#radial-gradient-17"/><radialGradient id="radial-gradient-31" cx="-5064.432" cy="-6652.465" r="9.433" xlink:href="#radial-gradient-16"/><radialGradient id="radial-gradient-32" cx="-5064.423" cy="-6652.46" r="2.021" xlink:href="#radial-gradient-17"/><radialGradient id="radial-gradient-33" cx="-5064.436" cy="-6648.335" r="9.429" xlink:href="#radial-gradient-16"/><radialGradient id="radial-gradient-34" cx="-5064.427" cy="-6648.339" r="2.015" xlink:href="#radial-gradient-17"/><radialGradient id="radial-gradient-35" cx="-5064.429" cy="-6644.204" r="9.428" xlink:href="#radial-gradient-16"/><radialGradient id="radial-gradient-36" cx="-5064.42" cy="-6644.206" r="2.021" xlink:href="#radial-gradient-17"/><radialGradient id="radial-gradient-37" cx="-187.325" cy="1468.56" r="12.578" xlink:href="#radial-gradient"/><radialGradient id="radial-gradient-38" cx="-612.245" cy="1468.814" r="4.554" xlink:href="#radial-gradient-2"/><radialGradient id="radial-gradient-39" cx="-7457.805" cy="847.458" r="4.565" gradientTransform="matrix(0.06, -0.085, 0.75, 0.933, -91.332, -1026.92)" xlink:href="#radial-gradient-2"/><radialGradient id="radial-gradient-40" cx="-6965.336" cy="-277.761" r="4.545" gradientTransform="matrix(-0.06, -0.153, 0.75, -0.067, -105.595, -691.7)" xlink:href="#radial-gradient-2"/><radialGradient id="radial-gradient-41" cx="-187.325" cy="1468.564" r="1.443" xlink:href="#radial-gradient-5"/><radialGradient id="radial-gradient-42" cx="-5089.127" cy="-6656.588" r="9.429" xlink:href="#radial-gradient-16"/><radialGradient id="radial-gradient-43" cx="-5089.12" cy="-6656.59" r="2.017" xlink:href="#radial-gradient-17"/><radialGradient id="radial-gradient-44" cx="-5089.122" cy="-6652.465" r="9.43" xlink:href="#radial-gradient-16"/><radialGradient id="radial-gradient-45" cx="-5089.117" cy="-6652.46" r="2.018" xlink:href="#radial-gradient-17"/><radialGradient id="radial-gradient-46" cx="-5089.127" cy="-6648.335" r="9.43" xlink:href="#radial-gradient-16"/><radialGradient id="radial-gradient-47" cx="-5089.116" cy="-6648.339" r="2.017" xlink:href="#radial-gradient-17"/><radialGradient id="radial-gradient-48" cx="-5089.122" cy="-6644.204" r="9.428" xlink:href="#radial-gradient-16"/><radialGradient id="radial-gradient-49" cx="-5089.113" cy="-6644.206" r="2.019" xlink:href="#radial-gradient-17"/><filter id="luminosity-invert-noclip-2" x="89.633" y="-8609.546" width="70.9" height="32766" filterUnits="userSpaceOnUse" color-interpolation-filters="sRGB"><feColorMatrix values="-1 0 0 0 1 0 -1 0 0 1 0 0 -1 0 1 0 0 0 1 0" result="invert"/><feFlood flood-color="#fff" result="bg"/><feBlend in="invert" in2="bg"/></filter><mask id="mask-2" x="89.633" y="-8609.546" width="70.9" height="32766" maskUnits="userSpaceOnUse"><g class="cls-89"/></mask><radialGradient id="radial-gradient-50" cx="-187.325" cy="1492.995" r="12.579" xlink:href="#radial-gradient"/><radialGradient id="radial-gradient-51" cx="-612.245" cy="1493.251" r="4.555" xlink:href="#radial-gradient-2"/><radialGradient id="radial-gradient-52" cx="-7611.835" cy="859.68" r="4.543" gradientTransform="matrix(0.06, -0.085, 0.75, 0.933, -91.332, -1026.92)" xlink:href="#radial-gradient-2"/><radialGradient id="radial-gradient-53" cx="-7119.344" cy="-289.979" r="4.545" gradientTransform="matrix(-0.06, -0.153, 0.75, -0.067, -105.595, -691.7)" xlink:href="#radial-gradient-2"/><radialGradient id="radial-gradient-54" cx="-187.325" cy="1492.999" r="1.445" xlink:href="#radial-gradient-5"/><radialGradient id="radial-gradient-55" cx="-5113.548" cy="-6656.588" r="9.429" xlink:href="#radial-gradient-16"/><radialGradient id="radial-gradient-56" cx="-5113.552" cy="-6656.59" r="2.017" xlink:href="#radial-gradient-17"/><radialGradient id="radial-gradient-57" cx="-5113.549" cy="-6652.465" r="9.431" xlink:href="#radial-gradient-16"/><radialGradient id="radial-gradient-58" cx="-5113.548" cy="-6652.46" r="2.02" xlink:href="#radial-gradient-17"/><radialGradient id="radial-gradient-59" cx="-5113.556" cy="-6648.335" r="9.427" xlink:href="#radial-gradient-16"/><radialGradient id="radial-gradient-60" cx="-5113.549" cy="-6648.339" r="2.018" xlink:href="#radial-gradient-17"/><radialGradient id="radial-gradient-61" cx="-5113.55" cy="-6644.204" r="9.43" xlink:href="#radial-gradient-16"/><radialGradient id="radial-gradient-62" cx="-5113.544" cy="-6644.206" r="2.019" xlink:href="#radial-gradient-17"/><radialGradient id="radial-gradient-63" cx="-142.391" cy="1515.259" r="12.58" xlink:href="#radial-gradient"/><radialGradient id="radial-gradient-64" cx="-285.232" cy="1515.512" r="4.557" xlink:href="#radial-gradient-2"/><radialGradient id="radial-gradient-65" cx="-7588.678" cy="909.729" r="4.53" gradientTransform="matrix(0.06, -0.085, 0.75, 0.933, -91.332, -1026.92)" xlink:href="#radial-gradient-2"/><radialGradient id="radial-gradient-66" cx="-7423.292" cy="-262.205" r="4.54" gradientTransform="matrix(-0.06, -0.153, 0.75, -0.067, -105.595, -691.7)" xlink:href="#radial-gradient-2"/><radialGradient id="radial-gradient-67" cx="-142.389" cy="1515.261" r="1.446" xlink:href="#radial-gradient-5"/><radialGradient id="radial-gradient-68" cx="-142.392" cy="1523.783" r="12.58" xlink:href="#radial-gradient-6"/><radialGradient id="radial-gradient-69" cx="-285.232" cy="1524.036" r="4.556" xlink:href="#radial-gradient-7"/><radialGradient id="radial-gradient-70" cx="-7642.426" cy="913.992" r="4.554" gradientTransform="matrix(0.06, -0.085, 0.75, 0.933, -91.332, -1026.92)" xlink:href="#radial-gradient-7"/><radialGradient id="radial-gradient-71" cx="-7477.04" cy="-266.466" r="4.55" gradientTransform="matrix(-0.06, -0.153, 0.75, -0.067, -105.594, -691.7)" xlink:href="#radial-gradient-7"/><radialGradient id="radial-gradient-72" cx="-142.39" cy="1523.781" r="1.445" xlink:href="#radial-gradient-10"/></defs><g class="cls-16"><g id="Capa_1" data-name="Capa 1"><g class="cls-16"><polygon class="cls-17" points="164.755 368.422 260.634 312.705 260.112 540.374 164.24 596.088 164.755 368.422"/><polygon class="cls-18" points="173.011 379.402 252.293 333.327 251.867 529.391 172.582 575.469 173.011 379.402"/><polygon class="cls-1" points="84.108 321.798 179.946 266.094 260.776 312.765 164.937 368.459 84.108 321.798"/><polygon class="cls-19" points="165.167 368.218 164.651 596.392 83.603 549.601 84.123 321.434 165.167 368.218"/></g><g class="cls-16"><polygon class="cls-20" points="9.997 599.443 3.893 596.028 3.357 368.459 9.454 371.87 9.997 599.443"/><polygon class="cls-18" points="9.157 371.87 3.296 368.459 84.126 321.798 89.99 325.199 9.157 371.87"/><polygon class="cls-21" points="90.091 324.642 90.612 553.139 9.454 600 8.93 371.503 90.091 324.642"/><polygon class="cls-22" points="17.796 375.038 17.796 458.314 84.53 419.779 84.53 336.514 17.796 375.038"/><polygon class="cls-22" points="17.796 463.177 17.796 501.258 84.53 462.734 84.53 424.647 17.796 463.177"/><polygon class="cls-22" points="17.796 506.051 17.796 544.142 84.53 505.607 84.53 467.523 17.796 506.051"/><polygon class="cls-22" points="17.796 548.985 17.796 587.076 84.53 548.545 84.53 510.461 17.796 548.985"/></g><g class="cls-23"><polygon class="cls-1" points="160.533 518.482 93.799 479.953 93.799 500.246 160.533 538.775 160.533 518.482"/><path class="cls-19" d="M159,521.235a3.09,3.09,0,0,0-1.384-2.432c-.765-.44-1.384-.075-1.391.812a3.109,3.109,0,0,0,1.381,2.431C158.375,522.49,159,522.125,159,521.235Z"/><path class="cls-19" d="M98.419,486.264a3.13,3.13,0,0,0-1.38-2.435c-.769-.436-1.395-.075-1.4.823a3.076,3.076,0,0,0,1.384,2.424C97.794,487.516,98.412,487.159,98.419,486.264Z"/><path class="cls-19" d="M159,534.838a3.074,3.074,0,0,0-1.384-2.424c-.765-.444-1.384-.083-1.391.811a3.075,3.075,0,0,0,1.381,2.421C158.375,536.1,159,535.725,159,534.838Z"/><path class="cls-19" d="M98.419,499.864a3.091,3.091,0,0,0-1.38-2.421c-.769-.443-1.395-.078-1.4.812a3.1,3.1,0,0,0,1.384,2.432C97.794,501.123,98.412,500.755,98.419,499.864Z"/><path class="cls-2" d="M160.533,530.635l-15.574-8.981-2.6,1.312-30.521-17.619-2.41-4.211L93.8,492.119v-4.036l15.927,9.195,2.238-1.526.1.057,30.429,17.572,2.785,4.426,15.255,8.806ZM145.386,521.2l15.147,8.748v-3.18l-15.108-8.723-2.773-4.406-30.166-17.414-2.232,1.518-15.528-8.969v3.176l15.482,8.938,2.41,4.195L142.783,522.5Z"/><polygon class="cls-1" points="160.533 543.289 93.799 504.764 93.799 525.045 160.533 563.582 160.533 543.289"/><path class="cls-19" d="M159,546.031a3.083,3.083,0,0,0-1.384-2.417c-.765-.444-1.384-.079-1.391.815a3.13,3.13,0,0,0,1.381,2.432C158.375,547.3,159,546.936,159,546.031Z"/><path class="cls-19" d="M98.419,511.071a3.108,3.108,0,0,0-1.38-2.424c-.769-.444-1.395-.082-1.4.812a3.08,3.08,0,0,0,1.384,2.424C97.794,512.33,98.412,511.969,98.419,511.071Z"/><path class="cls-19" d="M159,559.645a3.1,3.1,0,0,0-1.384-2.432c-.765-.436-1.384-.064-1.391.826a3.1,3.1,0,0,0,1.381,2.418C158.375,560.9,159,560.543,159,559.645Z"/><path class="cls-19" d="M98.419,524.679a3.085,3.085,0,0,0-1.38-2.422c-.769-.454-1.395-.085-1.4.808a3.1,3.1,0,0,0,1.384,2.432C97.794,525.933,98.412,525.572,98.419,524.679Z"/><path class="cls-2" d="M160.533,555.442l-15.574-8.985-2.6,1.312-.089-.046-30.432-17.572-2.41-4.208L93.8,516.926V512.89l15.927,9.2,2.238-1.526.1.064,30.429,17.565,2.785,4.418,15.255,8.814Zm-15.147-9.434,15.147,8.748V551.58l-15.108-8.723-2.773-4.413-30.166-17.411-2.232,1.515-15.528-8.966v3.176l15.482,8.945,2.41,4.188,30.165,17.429Z"/><polygon class="cls-1" points="160.533 568.1 93.799 529.571 93.799 549.86 160.533 588.382 160.533 568.1"/><path class="cls-19" d="M159,570.852a3.079,3.079,0,0,0-1.384-2.428c-.765-.447-1.384-.078-1.391.812a3.09,3.09,0,0,0,1.381,2.424C158.375,572.1,159,571.743,159,570.852Z"/><path class="cls-19" d="M98.419,535.882a3.1,3.1,0,0,0-1.38-2.424c-.769-.448-1.395-.082-1.4.815a3.087,3.087,0,0,0,1.384,2.421C97.794,537.137,98.412,536.769,98.419,535.882Z"/><path class="cls-19" d="M159,584.459a3.072,3.072,0,0,0-1.384-2.431c-.765-.444-1.384-.083-1.391.815a3.11,3.11,0,0,0,1.381,2.428C158.375,585.714,159,585.353,159,584.459Z"/><path class="cls-19" d="M98.419,549.489a3.1,3.1,0,0,0-1.38-2.425c-.769-.443-1.395-.085-1.4.809a3.066,3.066,0,0,0,1.384,2.421C97.794,550.744,98.412,550.376,98.419,549.489Z"/><path class="cls-2" d="M160.533,580.259l-15.574-8.988-2.6,1.309-30.521-17.622-2.41-4.208L93.8,541.723V537.7l15.927,9.192,2.238-1.519.1.053,30.429,17.565,2.785,4.433,15.255,8.8Zm-15.147-9.444,15.147,8.748v-3.176l-15.108-8.716-2.773-4.417-30.166-17.411-2.232,1.516L94.726,538.4v3.173l15.482,8.941,2.41,4.192,30.165,17.429Z"/><polygon class="cls-1" points="160.533 369.869 93.799 331.336 93.799 351.629 160.533 390.151 160.533 369.869"/><polygon class="cls-15" points="158.679 370.342 135.508 356.963 135.508 362.158 158.679 375.534 158.679 370.342"/><polygon class="cls-22" points="104.921 353.502 95.652 348.152 95.652 351.163 104.921 356.509 104.921 353.502"/><polygon class="cls-15" points="158.679 381.65 135.508 368.278 135.508 373.473 158.679 386.845 158.679 381.65"/><polygon class="cls-15" points="108.629 359.425 106.775 358.362 106.775 339.526 108.629 340.6 108.629 359.425"/><polygon class="cls-15" points="112.34 361.451 110.482 360.384 110.482 341.544 112.336 342.619 112.34 361.451"/><polygon class="cls-15" points="115.117 363.427 113.263 362.361 113.263 343.612 115.117 344.679 115.117 363.427"/><polygon class="cls-15" points="118.824 365.486 116.97 364.419 116.97 345.587 118.824 346.662 118.824 365.486"/><polygon class="cls-15" points="122.531 367.487 120.678 366.422 120.678 347.63 122.531 348.699 122.531 367.487"/><polygon class="cls-15" points="126.239 369.509 124.385 368.437 124.385 349.649 126.239 350.721 126.239 369.509"/><polygon class="cls-15" points="129.02 371.559 127.166 370.472 127.166 351.652 129.02 352.723 129.02 371.559"/><polygon class="cls-15" points="132.727 373.532 130.873 372.461 130.873 353.709 132.727 354.775 132.727 373.532"/><path class="cls-3" d="M101.437,344.782a2.026,2.026,0,0,0-.915-1.595c-.5-.294-.915-.058-.915.536a2.043,2.043,0,0,0,.915,1.588C101.03,345.6,101.437,345.368,101.437,344.782Z"/><path class="cls-24" d="M111.418,350.539c0-6.945-4.874-15.4-10.9-18.871s-10.889-.658-10.889,6.29,4.874,15.395,10.889,18.868S111.418,357.487,111.418,350.539Z"/><path class="cls-25" d="M101.069,344.567c0-2.51-.243-4.688-.547-4.867s-.54,1.727-.54,4.234.243,4.685.54,4.856S101.069,347.074,101.069,344.567Z"/><path class="cls-26" d="M100.8,343.862c-1.884-2.338-3.526-4.065-3.679-3.851s1.255,2.282,3.136,4.627,3.526,4.063,3.672,3.845S102.678,346.2,100.8,343.862Z"/><path class="cls-27" d="M100.254,343.552c-1.881.171-3.287.614-3.136,1s1.8.561,3.679.4,3.283-.619,3.129-1.009S102.138,343.376,100.254,343.552Z"/><path class="cls-28" d="M101.774,344.968a2.744,2.744,0,0,0-1.252-2.164c-.687-.4-1.244-.079-1.244.722a2.753,2.753,0,0,0,1.244,2.167C101.216,346.094,101.774,345.765,101.774,344.968Z"/><path class="cls-29" d="M140.391,367.15c-.686-.387-1.244-.061-1.244.726a2.736,2.736,0,0,0,1.244,2.152c.687.4,1.248.079,1.248-.711A2.787,2.787,0,0,0,140.391,367.15Z"/><path class="cls-30" d="M140.391,367.493c-.529-.307-.954-.057-.947.551a2.075,2.075,0,0,0,.947,1.656c.526.314.955.053.955-.548A2.114,2.114,0,0,0,140.391,367.493Z"/><path class="cls-31" d="M140.391,359.172c-4.512-2.607-8.164-.5-8.164,4.709s3.652,11.544,8.164,14.143c4.517,2.615,8.172.494,8.172-4.716S144.908,361.782,140.391,359.172Z"/><path class="cls-32" d="M140.391,366.574c-.962-.551-1.744-.089-1.744,1.012a3.84,3.84,0,0,0,1.744,3.025c.966.558,1.749.118,1.749-1A3.877,3.877,0,0,0,140.391,366.574Z"/><path class="cls-29" d="M143.968,369.228c-.691-.405-1.241-.076-1.241.711a2.751,2.751,0,0,0,1.241,2.16c.686.39,1.248.072,1.248-.722A2.729,2.729,0,0,0,143.968,369.228Z"/><path class="cls-30" d="M143.968,369.56c-.526-.3-.955-.061-.955.547a2.114,2.114,0,0,0,.955,1.656c.522.311.951.061.951-.551A2.107,2.107,0,0,0,143.968,369.56Z"/><path class="cls-33" d="M143.968,361.238c-4.513-2.6-8.172-.5-8.172,4.707s3.659,11.54,8.172,14.15,8.167.487,8.167-4.72S148.473,363.838,143.968,361.238Z"/><path class="cls-34" d="M143.968,368.638c-.962-.555-1.749-.1-1.749,1.011a3.844,3.844,0,0,0,1.749,3.026c.969.565,1.752.118,1.752-1A3.882,3.882,0,0,0,143.968,368.638Z"/><path class="cls-29" d="M147.54,371.28c-.683-.393-1.248-.068-1.248.722a2.774,2.774,0,0,0,1.248,2.16c.687.4,1.241.079,1.241-.722A2.768,2.768,0,0,0,147.54,371.28Z"/><path class="cls-30" d="M147.54,371.623c-.518-.3-.955-.057-.955.548a2.137,2.137,0,0,0,.955,1.659c.529.311.955.061.955-.551A2.106,2.106,0,0,0,147.54,371.623Z"/><path class="cls-35" d="M147.54,363.3c-4.506-2.6-8.164-.5-8.164,4.714s3.658,11.536,8.164,14.143,8.168.493,8.168-4.717S152.053,365.909,147.54,363.3Z"/><path class="cls-36" d="M147.54,370.708c-.962-.554-1.741-.107-1.749,1a3.866,3.866,0,0,0,1.749,3.029c.969.55,1.745.111,1.745-1.009A3.851,3.851,0,0,0,147.54,370.708Z"/><path class="cls-29" d="M151.12,373.347c-.687-.393-1.245-.064-1.245.726a2.743,2.743,0,0,0,1.245,2.153c.686.393,1.241.068,1.241-.726A2.741,2.741,0,0,0,151.12,373.347Z"/><path class="cls-30" d="M151.12,373.69c-.53-.307-.959-.064-.959.551a2.112,2.112,0,0,0,.959,1.656c.525.3.954.053.954-.555A2.11,2.11,0,0,0,151.12,373.69Z"/><path class="cls-37" d="M151.12,365.362c-4.513-2.6-8.165-.5-8.165,4.71s3.652,11.55,8.165,14.146,8.164.494,8.164-4.713S155.626,367.976,151.12,365.362Z"/><path class="cls-38" d="M151.12,372.771c-.969-.561-1.753-.107-1.753,1a3.837,3.837,0,0,0,1.753,3.025c.965.565,1.748.115,1.748-1.008A3.877,3.877,0,0,0,151.12,372.771Z"/><polygon class="cls-1" points="160.533 395.616 93.799 357.09 93.799 377.38 160.533 415.906 160.533 395.616"/><polygon class="cls-15" points="158.679 396.093 135.508 382.71 135.508 387.903 158.679 401.285 158.679 396.093"/><polygon class="cls-22" points="104.921 379.257 95.652 373.903 95.652 376.91 104.921 382.264 104.921 379.257"/><polygon class="cls-15" points="158.679 407.408 135.508 394.025 135.508 399.217 158.679 412.607 158.679 407.408"/><polygon class="cls-15" points="108.629 385.179 106.775 384.108 106.775 365.28 108.629 366.351 108.629 385.179"/><polygon class="cls-15" points="112.34 387.202 110.482 386.135 110.482 367.302 112.336 368.366 112.34 387.202"/><polygon class="cls-15" points="115.117 389.178 113.263 388.116 113.263 369.363 115.117 370.43 115.117 389.178"/><polygon class="cls-15" points="118.824 391.241 116.97 390.177 116.97 371.342 118.824 372.409 118.824 391.241"/><polygon class="cls-15" points="122.531 393.246 120.678 392.174 120.678 373.381 122.531 374.454 122.531 393.246"/><polygon class="cls-15" points="126.239 395.257 124.385 394.188 124.385 375.404 126.239 376.476 126.239 395.257"/><polygon class="cls-15" points="129.02 397.302 127.166 396.231 127.166 377.411 129.02 378.474 129.02 397.302"/><polygon class="cls-15" points="132.727 399.287 130.873 398.213 130.873 379.467 132.727 380.53 132.727 399.287"/><path class="cls-3" d="M101.437,370.529a2,2,0,0,0-.915-1.587c-.5-.294-.915-.061-.915.529a2.043,2.043,0,0,0,.915,1.591C101.03,371.352,101.437,371.112,101.437,370.529Z"/><path class="cls-39" d="M111.418,376.29c0-6.952-4.874-15.4-10.9-18.874s-10.889-.651-10.889,6.29,4.874,15.4,10.889,18.875S111.418,383.239,111.418,376.29Z"/><path class="cls-40" d="M101.069,370.315c0-2.511-.243-4.689-.547-4.853s-.54,1.716-.54,4.216c0,2.517.243,4.692.54,4.871S101.069,372.821,101.069,370.315Z"/><path class="cls-41" d="M100.8,369.614c-1.884-2.339-3.526-4.063-3.679-3.848s1.255,2.278,3.136,4.616,3.526,4.067,3.672,3.859S102.678,371.956,100.8,369.614Z"/><path class="cls-42" d="M100.254,369.31c-1.881.164-3.287.611-3.136.99.153.4,1.8.565,3.679.4s3.283-.619,3.129-1.009S102.138,369.131,100.254,369.31Z"/><path class="cls-43" d="M101.774,370.715a2.755,2.755,0,0,0-1.252-2.16c-.687-.4-1.244-.079-1.244.719a2.767,2.767,0,0,0,1.244,2.174C101.216,371.842,101.774,371.523,101.774,370.715Z"/><path class="cls-29" d="M140.391,392.912c-.686-.4-1.244-.075-1.244.718a2.752,2.752,0,0,0,1.244,2.157c.687.393,1.248.075,1.248-.715A2.751,2.751,0,0,0,140.391,392.912Z"/><path class="cls-30" d="M140.391,393.248c-.529-.308-.954-.061-.947.554a2.1,2.1,0,0,0,.947,1.656c.526.3.955.053.955-.561A2.109,2.109,0,0,0,140.391,393.248Z"/><path class="cls-44" d="M140.391,384.93c-4.512-2.618-8.164-.5-8.164,4.7s3.652,11.539,8.164,14.146,8.172.494,8.172-4.713S144.908,387.523,140.391,384.93Z"/><path class="cls-45" d="M140.391,392.325c-.962-.551-1.744-.089-1.744,1.019a3.828,3.828,0,0,0,1.744,3.015c.966.565,1.749.118,1.749-1A3.878,3.878,0,0,0,140.391,392.325Z"/><path class="cls-29" d="M143.968,394.975c-.691-.4-1.241-.075-1.241.722a2.732,2.732,0,0,0,1.241,2.153c.686.4,1.248.079,1.248-.722A2.758,2.758,0,0,0,143.968,394.975Z"/><path class="cls-30" d="M143.968,395.311c-.526-.3-.955-.064-.955.551a2.1,2.1,0,0,0,.955,1.652c.522.3.951.064.951-.558A2.112,2.112,0,0,0,143.968,395.311Z"/><path class="cls-46" d="M143.968,386.986c-4.513-2.6-8.172-.5-8.172,4.71s3.659,11.547,8.172,14.154,8.167.49,8.167-4.721S148.473,389.586,143.968,386.986Z"/><path class="cls-47" d="M143.968,394.389c-.962-.547-1.749-.09-1.749,1.019a3.847,3.847,0,0,0,1.749,3.022c.969.557,1.752.121,1.752-1.009A3.876,3.876,0,0,0,143.968,394.389Z"/><path class="cls-29" d="M147.54,397.042c-.683-.4-1.248-.079-1.248.708a2.77,2.77,0,0,0,1.248,2.164c.687.4,1.241.082,1.241-.719A2.749,2.749,0,0,0,147.54,397.042Z"/><path class="cls-30" d="M147.54,397.378c-.518-.307-.955-.064-.955.551a2.122,2.122,0,0,0,.955,1.652c.529.307.955.061.955-.554A2.092,2.092,0,0,0,147.54,397.378Z"/><path class="cls-48" d="M147.54,389.057c-4.506-2.6-8.164-.5-8.164,4.706s3.658,11.547,8.164,14.15,8.168.487,8.168-4.72S152.053,391.653,147.54,389.057Z"/><path class="cls-49" d="M147.54,396.463c-.962-.562-1.741-.1-1.749,1.008a3.832,3.832,0,0,0,1.749,3.018c.969.562,1.745.126,1.745-1A3.832,3.832,0,0,0,147.54,396.463Z"/><path class="cls-29" d="M151.12,399.1c-.687-.4-1.245-.072-1.245.726a2.727,2.727,0,0,0,1.245,2.145c.686.4,1.241.079,1.241-.718A2.746,2.746,0,0,0,151.12,399.1Z"/><path class="cls-30" d="M151.12,399.445c-.53-.311-.959-.064-.959.554a2.1,2.1,0,0,0,.959,1.649c.525.3.954.053.954-.554A2.108,2.108,0,0,0,151.12,399.445Z"/><path class="cls-50" d="M151.12,391.116c-4.513-2.6-8.165-.5-8.165,4.71s3.652,11.544,8.165,14.147,8.164.493,8.164-4.717S155.626,393.72,151.12,391.116Z"/><path class="cls-51" d="M151.12,398.515c-.969-.551-1.753-.089-1.753,1.016a3.831,3.831,0,0,0,1.753,3.025c.965.562,1.748.122,1.748-1A3.9,3.9,0,0,0,151.12,398.515Z"/><polygon class="cls-1" points="160.533 420.309 93.799 381.783 93.799 402.069 160.533 440.602 160.533 420.309"/><polygon class="cls-15" points="158.679 420.786 135.508 407.403 135.508 412.599 158.679 425.982 158.679 420.786"/><polygon class="cls-22" points="104.921 403.943 95.652 398.595 95.652 401.603 104.921 406.957 104.921 403.943"/><polygon class="cls-15" points="158.679 432.101 135.508 418.721 135.508 423.913 158.679 437.289 158.679 432.101"/><polygon class="cls-15" points="108.629 409.872 106.775 408.801 106.775 389.977 108.629 391.044 108.629 409.872"/><polygon class="cls-15" points="112.34 411.891 110.482 410.824 110.482 391.988 112.336 393.063 112.34 411.891"/><polygon class="cls-15" points="115.117 413.871 113.263 412.801 113.263 394.06 115.117 395.122 115.117 413.871"/><polygon class="cls-15" points="118.824 415.937 116.97 414.866 116.97 396.034 118.824 397.105 118.824 415.937"/><polygon class="cls-15" points="122.531 417.939 120.678 416.866 120.678 398.074 122.531 399.139 122.531 417.939"/><polygon class="cls-15" points="126.239 419.953 124.385 418.881 124.385 400.097 126.239 401.169 126.239 419.953"/><polygon class="cls-15" points="129.02 421.999 127.166 420.92 127.166 402.088 129.02 403.167 129.02 421.999"/><polygon class="cls-15" points="132.727 423.972 130.873 422.913 130.873 404.156 132.727 405.222 132.727 423.972"/><path class="cls-3" d="M101.437,395.218a2.025,2.025,0,0,0-.915-1.588c-.5-.286-.915-.057-.915.533a2.05,2.05,0,0,0,.915,1.592C101.03,396.044,101.437,395.808,101.437,395.218Z"/><path class="cls-52" d="M111.418,400.983c0-6.945-4.874-15.392-10.9-18.871s-10.889-.662-10.889,6.294c0,6.941,4.874,15.391,10.889,18.86S111.418,407.931,111.418,400.983Z"/><path class="cls-53" d="M101.069,395.011c0-2.518-.243-4.689-.547-4.86s-.54,1.716-.54,4.238c0,2.5.243,4.677.54,4.845S101.069,397.514,101.069,395.011Z"/><path class="cls-54" d="M100.8,394.3c-1.884-2.332-3.526-4.056-3.679-3.855-.151.218,1.255,2.288,3.136,4.634s3.526,4.066,3.672,3.848S102.678,396.649,100.8,394.3Z"/><path class="cls-55" d="M100.254,394c-1.881.171-3.287.608-3.136,1,.153.38,1.8.555,3.679.39s3.283-.618,3.129-1S102.138,393.831,100.254,394Z"/><path class="cls-56" d="M101.774,395.415a2.744,2.744,0,0,0-1.252-2.167c-.687-.4-1.244-.064-1.244.722a2.765,2.765,0,0,0,1.244,2.167C101.216,396.538,101.774,396.216,101.774,395.415Z"/><path class="cls-29" d="M140.391,417.6c-.686-.4-1.244-.076-1.244.722a2.754,2.754,0,0,0,1.244,2.156c.687.4,1.248.072,1.248-.715A2.769,2.769,0,0,0,140.391,417.6Z"/><path class="cls-30" d="M140.391,417.948c-.529-.312-.954-.065-.947.543a2.074,2.074,0,0,0,.947,1.656c.526.311.955.061.955-.554A2.087,2.087,0,0,0,140.391,417.948Z"/><path class="cls-57" d="M140.391,409.622c-4.512-2.6-8.164-.5-8.164,4.707s3.652,11.536,8.164,14.147,8.172.49,8.172-4.717S144.908,412.219,140.391,409.622Z"/><path class="cls-58" d="M140.391,417.025c-.962-.554-1.744-.1-1.744,1.008a3.854,3.854,0,0,0,1.744,3.026c.966.558,1.749.118,1.749-1.009A3.864,3.864,0,0,0,140.391,417.025Z"/><path class="cls-29" d="M143.968,419.664c-.691-.4-1.241-.071-1.241.726a2.709,2.709,0,0,0,1.241,2.149c.686.408,1.248.075,1.248-.719A2.771,2.771,0,0,0,143.968,419.664Z"/><path class="cls-30" d="M143.968,420.007c-.526-.307-.955-.068-.955.544a2.121,2.121,0,0,0,.955,1.663c.522.3.951.05.951-.551A2.11,2.11,0,0,0,143.968,420.007Z"/><path class="cls-59" d="M143.968,411.682c-4.513-2.614-8.172-.5-8.172,4.7s3.659,11.547,8.172,14.15,8.167.494,8.167-4.716S148.473,414.286,143.968,411.682Z"/><path class="cls-60" d="M143.968,419.088c-.962-.554-1.749-.1-1.749,1.012a3.846,3.846,0,0,0,1.749,3.019c.969.561,1.752.118,1.752-1.005A3.871,3.871,0,0,0,143.968,419.088Z"/><path class="cls-29" d="M147.54,421.735c-.683-.408-1.248-.072-1.248.722a2.778,2.778,0,0,0,1.248,2.153c.687.393,1.241.071,1.241-.726A2.728,2.728,0,0,0,147.54,421.735Z"/><path class="cls-30" d="M147.54,422.071c-.518-.308-.955-.065-.955.543a2.148,2.148,0,0,0,.955,1.66c.529.3.955.057.955-.562A2.084,2.084,0,0,0,147.54,422.071Z"/><path class="cls-61" d="M147.54,413.746c-4.506-2.607-8.164-.494-8.164,4.7,0,5.214,3.658,11.547,8.164,14.158s8.168.482,8.168-4.721S152.053,416.349,147.54,413.746Z"/><path class="cls-62" d="M147.54,421.148c-.962-.551-1.741-.1-1.749,1.012a3.852,3.852,0,0,0,1.749,3.022c.969.561,1.745.125,1.745-1A3.882,3.882,0,0,0,147.54,421.148Z"/><path class="cls-29" d="M151.12,423.791c-.687-.39-1.245-.075-1.245.722a2.737,2.737,0,0,0,1.245,2.153c.686.4,1.241.082,1.241-.715A2.768,2.768,0,0,0,151.12,423.791Z"/><path class="cls-30" d="M151.12,424.13c-.53-.3-.959-.067-.959.551a2.108,2.108,0,0,0,.959,1.656c.525.308.954.064.954-.551A2.107,2.107,0,0,0,151.12,424.13Z"/><path class="cls-63" d="M151.12,415.809c-4.513-2.6-8.165-.49-8.165,4.713s3.652,11.54,8.165,14.144,8.164.49,8.164-4.721S155.626,418.412,151.12,415.809Z"/><path class="cls-64" d="M151.12,423.212c-.969-.551-1.753-.1-1.753,1.011a3.842,3.842,0,0,0,1.753,3.022c.965.562,1.748.122,1.748-1A3.871,3.871,0,0,0,151.12,423.212Z"/><g class="cls-65"><polygon class="cls-1" points="160.533 444.737 93.799 406.215 93.799 426.504 160.533 465.022 160.533 444.737"/><polygon class="cls-15" points="158.679 445.214 135.508 431.835 135.508 437.03 158.679 450.406 158.679 445.214"/><polygon class="cls-22" points="104.921 428.374 95.652 423.023 95.652 426.031 104.921 431.388 104.921 428.374"/><polygon class="cls-15" points="158.679 456.529 135.508 443.153 135.508 448.348 158.679 461.724 158.679 456.529"/><polygon class="cls-15" points="108.629 434.311 106.775 433.236 106.775 414.404 108.629 415.479 108.629 434.311"/><polygon class="cls-15" points="112.34 436.326 110.482 435.251 110.482 416.416 112.336 417.49 112.34 436.326"/><polygon class="cls-15" points="115.117 438.306 113.263 437.232 113.263 418.484 115.117 419.55 115.117 438.306"/><polygon class="cls-15" points="118.824 440.361 116.97 439.291 116.97 420.462 118.824 421.545 118.824 440.361"/><polygon class="cls-15" points="122.531 442.367 120.678 441.294 120.678 422.506 122.531 423.574 122.531 442.367"/><polygon class="cls-15" points="126.239 444.385 124.385 443.32 124.385 424.524 126.239 425.597 126.239 444.385"/><polygon class="cls-15" points="129.02 446.423 127.166 445.364 127.166 426.528 129.02 427.598 129.02 446.423"/><polygon class="cls-15" points="132.727 448.407 130.873 447.341 130.873 428.58 132.727 429.654 132.727 448.407"/><path class="cls-3" d="M101.437,419.657a2.03,2.03,0,0,0-.915-1.595c-.5-.29-.915-.054-.915.526a2.029,2.029,0,0,0,.915,1.595C101.03,420.479,101.437,420.243,101.437,419.657Z"/><path class="cls-66" d="M111.418,425.418c0-6.952-4.874-15.4-10.9-18.875s-10.889-.658-10.889,6.3,4.874,15.387,10.889,18.867S111.418,432.363,111.418,425.418Z"/><path class="cls-67" d="M101.069,419.439c0-2.514-.243-4.689-.547-4.853s-.54,1.717-.54,4.227.243,4.685.54,4.86S101.069,421.946,101.069,419.439Z"/><path class="cls-68" d="M100.8,418.742c-1.884-2.347-3.526-4.067-3.679-3.856s1.255,2.286,3.136,4.621,3.526,4.066,3.672,3.858S102.678,421.08,100.8,418.742Z"/><path class="cls-69" d="M100.254,418.427c-1.881.164-3.287.615-3.136,1s1.8.558,3.679.393,3.283-.618,3.129-1S102.138,418.259,100.254,418.427Z"/><path class="cls-70" d="M101.774,419.846a2.752,2.752,0,0,0-1.252-2.167c-.687-.4-1.244-.075-1.244.719a2.779,2.779,0,0,0,1.244,2.178C101.216,420.966,101.774,420.644,101.774,419.846Z"/><path class="cls-29" d="M140.391,442.029c-.686-.386-1.244-.072-1.244.726a2.759,2.759,0,0,0,1.244,2.156c.687.4,1.248.072,1.248-.719A2.786,2.786,0,0,0,140.391,442.029Z"/><path class="cls-30" d="M140.391,442.368c-.529-.3-.954-.06-.947.551a2.079,2.079,0,0,0,.947,1.659c.526.308.955.065.955-.554A2.114,2.114,0,0,0,140.391,442.368Z"/><path class="cls-71" d="M140.391,434.043c-4.512-2.6-8.164-.5-8.164,4.717s3.652,11.537,8.164,14.136,8.172.508,8.172-4.713C148.563,442.984,144.908,436.65,140.391,434.043Z"/><path class="cls-72" d="M140.391,441.457c-.962-.558-1.744-.1-1.744,1a3.859,3.859,0,0,0,1.744,3.032c.966.551,1.749.115,1.749-1.015A3.856,3.856,0,0,0,140.391,441.457Z"/><path class="cls-29" d="M143.968,444.1c-.691-.4-1.241-.075-1.241.715a2.721,2.721,0,0,0,1.241,2.156c.686.405,1.248.068,1.248-.726A2.751,2.751,0,0,0,143.968,444.1Z"/><path class="cls-30" d="M143.968,444.439c-.526-.307-.955-.064-.955.544a2.128,2.128,0,0,0,.955,1.666c.522.3.951.047.951-.562A2.111,2.111,0,0,0,143.968,444.439Z"/><path class="cls-73" d="M143.968,436.107c-4.513-2.6-8.172-.49-8.172,4.716s3.659,11.537,8.172,14.14,8.167.49,8.167-4.706S148.473,438.714,143.968,436.107Z"/><path class="cls-74" d="M143.968,443.516c-.962-.554-1.749-.1-1.749,1a3.849,3.849,0,0,0,1.749,3.033c.969.561,1.752.121,1.752-1.009A3.894,3.894,0,0,0,143.968,443.516Z"/><path class="cls-29" d="M147.54,446.17c-.683-.408-1.248-.083-1.248.708a2.793,2.793,0,0,0,1.248,2.167c.687.39,1.241.071,1.241-.726A2.724,2.724,0,0,0,147.54,446.17Z"/><path class="cls-30" d="M147.54,446.5c-.518-.3-.955-.064-.955.543a2.148,2.148,0,0,0,.955,1.67c.529.3.955.05.955-.558A2.115,2.115,0,0,0,147.54,446.5Z"/><path class="cls-75" d="M147.54,438.181c-4.506-2.611-8.164-.5-8.164,4.706s3.658,11.54,8.164,14.143,8.168.5,8.168-4.709S152.053,440.777,147.54,438.181Z"/><path class="cls-76" d="M147.54,445.58c-.962-.558-1.741-.093-1.749,1a3.87,3.87,0,0,0,1.749,3.032c.969.558,1.745.122,1.745-1A3.87,3.87,0,0,0,147.54,445.58Z"/><path class="cls-29" d="M151.12,448.226c-.687-.393-1.245-.072-1.245.715a2.756,2.756,0,0,0,1.245,2.164c.686.4,1.241.068,1.241-.723A2.734,2.734,0,0,0,151.12,448.226Z"/><path class="cls-30" d="M151.12,448.562c-.53-.308-.959-.064-.959.554a2.12,2.12,0,0,0,.959,1.66c.525.3.954.046.954-.562A2.12,2.12,0,0,0,151.12,448.562Z"/><path class="cls-77" d="M151.12,440.233c-4.513-2.6-8.165-.489-8.165,4.717s3.652,11.54,8.165,14.147,8.164.49,8.164-4.713S155.626,442.851,151.12,440.233Z"/><path class="cls-78" d="M151.12,447.643c-.969-.558-1.753-.093-1.753,1.016a3.821,3.821,0,0,0,1.753,3.018c.965.561,1.748.125,1.748-1A3.9,3.9,0,0,0,151.12,447.643Z"/></g><polygon class="cls-1" points="160.533 470.166 93.799 431.633 93.799 451.93 160.533 490.452 160.533 470.166"/><polygon class="cls-2" points="157.752 471.409 146.63 464.989 146.63 478.888 157.752 485.304 157.752 471.409"/><path class="cls-3" d="M140.356,464.39a2.031,2.031,0,0,0-.912-1.588c-.508-.293-.923-.061-.923.522a2.017,2.017,0,0,0,.923,1.595C139.944,465.216,140.356,464.969,140.356,464.39Z"/><path class="cls-79" d="M150.333,470.151c0-6.945-4.874-15.4-10.889-18.871s-10.9-.658-10.9,6.29,4.878,15.395,10.9,18.871S150.333,477.1,150.333,470.151Z"/><path class="cls-80" d="M139.984,464.175c0-2.514-.243-4.681-.54-4.86-.3-.164-.547,1.727-.547,4.234s.246,4.681.547,4.857S139.984,466.678,139.984,464.175Z"/><path class="cls-81" d="M139.708,463.478c-1.881-2.353-3.522-4.073-3.676-3.852s1.256,2.278,3.136,4.614,3.526,4.073,3.676,3.851S141.586,465.813,139.708,463.478Z"/><path class="cls-82" d="M139.168,463.163c-1.88.175-3.283.619-3.136,1s1.795.554,3.676.386,3.287-.615,3.136-1S141.053,463,139.168,463.163Z"/><path class="cls-83" d="M140.688,464.579a2.781,2.781,0,0,0-1.244-2.167c-.694-.4-1.252-.071-1.252.722a2.784,2.784,0,0,0,1.252,2.178C140.13,465.7,140.692,465.38,140.688,464.579Z"/><path class="cls-9" d="M140.356,472.908a2.029,2.029,0,0,0-.912-1.584c-.508-.293-.923-.058-.923.533a2.057,2.057,0,0,0,.923,1.591C139.944,473.734,140.356,473.494,140.356,472.908Z"/><path class="cls-84" d="M150.333,478.669c0-6.945-4.874-15.391-10.889-18.864s-10.9-.658-10.9,6.28,4.878,15.405,10.9,18.878S150.333,485.621,150.333,478.669Z"/><path class="cls-85" d="M139.984,472.7c0-2.51-.243-4.681-.54-4.856s-.547,1.716-.547,4.23.246,4.678.547,4.856S139.984,475.211,139.984,472.7Z"/><path class="cls-86" d="M139.708,472c-1.881-2.335-3.522-4.062-3.676-3.855s1.256,2.285,3.136,4.631,3.526,4.059,3.676,3.851S141.586,474.335,139.708,472Z"/><path class="cls-87" d="M139.168,471.685c-1.88.172-3.283.615-3.136,1s1.795.562,3.676.4,3.287-.618,3.136-1.008S141.053,471.513,139.168,471.685Z"/><path class="cls-88" d="M140.688,473.105a2.775,2.775,0,0,0-1.244-2.171c-.694-.4-1.252-.068-1.252.729a2.76,2.76,0,0,0,1.252,2.167C140.13,474.224,140.692,473.9,140.688,473.105Z"/><polygon class="cls-15" points="132.727 456.39 132.727 459.7 95.652 438.403 95.652 435.103 132.727 456.39"/><polygon class="cls-15" points="99.36 453.572 97.506 452.31 97.506 440.856 99.36 442.118 99.36 453.572"/><polygon class="cls-15" points="103.067 456.126 101.214 454.867 101.214 443.409 103.067 444.668 103.067 456.126"/><polygon class="cls-15" points="107.702 458.682 105.848 457.423 105.848 445.966 107.702 447.225 107.702 458.682"/><polygon class="cls-15" points="112.336 461.239 110.482 459.977 110.482 448.527 112.336 449.781 112.336 461.239"/><polygon class="cls-15" points="116.97 463.796 115.117 462.53 115.117 451.08 116.97 452.335 116.97 463.796"/><polygon class="cls-15" points="121.605 466.353 119.751 465.094 119.751 453.633 121.605 454.895 121.605 466.353"/><polygon class="cls-15" points="125.312 468.91 123.458 467.647 123.458 456.19 125.312 457.456 125.312 468.91"/><polygon class="cls-15" points="129.946 471.47 128.093 470.201 128.093 458.74 129.946 460.009 129.946 471.47"/></g><path class="cls-19" d="M242.541,433.389a5.822,5.822,0,0,1,2.632-4.559c1.456-.834,2.64-.158,2.64,1.523a5.83,5.83,0,0,1-2.64,4.559C243.718,435.753,242.541,435.066,242.541,433.389Z"/><path class="cls-19" d="M234.442,438.063a5.823,5.823,0,0,1,2.635-4.56c1.459-.84,2.636-.16,2.636,1.524a5.817,5.817,0,0,1-2.636,4.559C235.622,440.426,234.442,439.744,234.442,438.063Z"/><path class="cls-19" d="M226.349,442.747a5.8,5.8,0,0,1,2.628-4.566c1.456-.844,2.632-.154,2.632,1.523a5.81,5.81,0,0,1-2.628,4.556C227.525,445.1,226.349,444.425,226.349,442.747Z"/><path class="cls-19" d="M218.256,447.414a5.812,5.812,0,0,1,2.625-4.559c1.463-.837,2.639-.165,2.639,1.52a5.8,5.8,0,0,1-2.632,4.555C219.433,449.775,218.256,449.1,218.256,447.414Z"/><path class="cls-19" d="M210.16,452.084a5.824,5.824,0,0,1,2.629-4.559c1.455-.833,2.639-.157,2.639,1.52a5.815,5.815,0,0,1-2.639,4.563C211.333,454.445,210.16,453.769,210.16,452.084Z"/><path class="cls-19" d="M202.06,456.766a5.844,5.844,0,0,1,2.633-4.571c1.458-.836,2.635-.157,2.635,1.527a5.8,5.8,0,0,1-2.635,4.556C203.237,459.126,202.06,458.439,202.06,456.766Z"/><path class="cls-19" d="M193.961,461.436a5.825,5.825,0,0,1,2.639-4.563c1.452-.837,2.632-.157,2.632,1.523a5.833,5.833,0,0,1-2.632,4.563C195.144,463.8,193.961,463.117,193.961,461.436Z"/><path class="cls-19" d="M185.872,466.113a5.815,5.815,0,0,1,2.628-4.563c1.452-.844,2.632-.16,2.632,1.52a5.823,5.823,0,0,1-2.632,4.56C187.048,468.47,185.872,467.791,185.872,466.113Z"/><path class="cls-19" d="M177.775,470.78a5.829,5.829,0,0,1,2.632-4.559c1.456-.841,2.632-.158,2.632,1.523a5.8,5.8,0,0,1-2.632,4.559C178.952,473.14,177.775,472.465,177.775,470.78Z"/><path class="cls-19" d="M242.541,443.3a5.815,5.815,0,0,1,2.632-4.56c1.456-.84,2.64-.161,2.64,1.513a5.825,5.825,0,0,1-2.64,4.566C243.718,445.662,242.541,444.983,242.541,443.3Z"/><path class="cls-19" d="M234.442,447.976a5.839,5.839,0,0,1,2.635-4.563c1.459-.837,2.636-.154,2.636,1.527a5.8,5.8,0,0,1-2.636,4.559C235.622,450.332,234.442,449.649,234.442,447.976Z"/><path class="cls-19" d="M226.349,452.649a5.828,5.828,0,0,1,2.632-4.559c1.452-.84,2.628-.161,2.628,1.527a5.821,5.821,0,0,1-2.628,4.556C227.525,455.017,226.349,454.334,226.349,452.649Z"/><path class="cls-19" d="M218.256,457.327a5.819,5.819,0,0,1,2.632-4.563c1.456-.84,2.632-.157,2.632,1.523a5.814,5.814,0,0,1-2.632,4.556C219.433,459.691,218.256,459,218.256,457.327Z"/><path class="cls-19" d="M210.16,462a5.814,5.814,0,0,1,2.629-4.559c1.455-.84,2.639-.154,2.639,1.527a5.82,5.82,0,0,1-2.639,4.556C211.333,464.365,210.16,463.675,210.16,462Z"/><path class="cls-19" d="M202.06,466.675a5.819,5.819,0,0,1,2.633-4.563c1.458-.837,2.635-.157,2.635,1.523a5.81,5.81,0,0,1-2.635,4.56C203.237,469.032,202.06,468.356,202.06,466.675Z"/><path class="cls-19" d="M193.961,471.345a5.842,5.842,0,0,1,2.639-4.563c1.452-.837,2.632-.157,2.632,1.531a5.8,5.8,0,0,1-2.632,4.549C195.144,473.705,193.961,473.03,193.961,471.345Z"/><path class="cls-19" d="M185.872,476.026a5.853,5.853,0,0,1,2.628-4.57c1.452-.833,2.632-.15,2.632,1.52a5.816,5.816,0,0,1-2.632,4.563C187.048,478.379,185.872,477.707,185.872,476.026Z"/><path class="cls-19" d="M177.775,480.7a5.825,5.825,0,0,1,2.632-4.563c1.456-.844,2.632-.161,2.632,1.52a5.786,5.786,0,0,1-2.632,4.552C178.952,483.06,177.775,482.377,177.775,480.7Z"/><path class="cls-19" d="M242.541,453.218a5.812,5.812,0,0,1,2.632-4.559c1.456-.841,2.64-.161,2.64,1.516a5.825,5.825,0,0,1-2.64,4.56C243.718,455.578,242.541,454.892,242.541,453.218Z"/><path class="cls-19" d="M234.442,457.892a5.815,5.815,0,0,1,2.635-4.559c1.459-.844,2.636-.161,2.636,1.512a5.8,5.8,0,0,1-2.636,4.56C235.622,460.252,234.442,459.569,234.442,457.892Z"/><path class="cls-19" d="M226.349,462.563a5.812,5.812,0,0,1,2.632-4.557c1.452-.847,2.628-.168,2.628,1.527a5.819,5.819,0,0,1-2.628,4.549C227.525,464.919,226.349,464.24,226.349,462.563Z"/><path class="cls-19" d="M218.256,467.236a5.855,5.855,0,0,1,2.632-4.57c1.456-.826,2.632-.147,2.632,1.523a5.819,5.819,0,0,1-2.632,4.567C219.433,469.6,218.256,468.924,218.256,467.236Z"/><path class="cls-19" d="M210.16,471.914a5.792,5.792,0,0,1,2.629-4.56c1.455-.84,2.639-.168,2.639,1.516a5.832,5.832,0,0,1-2.639,4.56C211.333,474.278,210.16,473.591,210.16,471.914Z"/><path class="cls-19" d="M202.06,476.581a5.8,5.8,0,0,1,2.633-4.553c1.458-.844,2.635-.161,2.635,1.523a5.8,5.8,0,0,1-2.635,4.549C203.237,478.948,202.06,478.261,202.06,476.581Z"/><path class="cls-19" d="M193.961,481.262A5.821,5.821,0,0,1,196.6,476.7c1.452-.844,2.632-.153,2.632,1.524a5.835,5.835,0,0,1-2.632,4.56C195.144,483.622,193.961,482.935,193.961,481.262Z"/><path class="cls-19" d="M185.872,485.939a5.812,5.812,0,0,1,2.628-4.563c1.452-.84,2.632-.165,2.632,1.516a5.848,5.848,0,0,1-2.632,4.571C187.048,488.3,185.872,487.613,185.872,485.939Z"/><path class="cls-19" d="M177.775,490.6a5.808,5.808,0,0,1,2.632-4.556c1.456-.837,2.632-.157,2.632,1.52a5.818,5.818,0,0,1-2.632,4.56C178.952,492.97,177.775,492.294,177.775,490.6Z"/><path class="cls-19" d="M242.541,463.128a5.822,5.822,0,0,1,2.632-4.564c1.456-.836,2.64-.157,2.64,1.52a5.818,5.818,0,0,1-2.64,4.563C243.718,465.488,242.541,464.805,242.541,463.128Z"/><path class="cls-19" d="M234.442,467.8a5.829,5.829,0,0,1,2.635-4.56c1.459-.833,2.636-.161,2.636,1.524a5.807,5.807,0,0,1-2.636,4.559C235.622,470.162,234.442,469.478,234.442,467.8Z"/><path class="cls-19" d="M226.349,472.475a5.821,5.821,0,0,1,2.632-4.559c1.452-.837,2.628-.154,2.628,1.516A5.82,5.82,0,0,1,228.981,474C227.525,474.839,226.349,474.156,226.349,472.475Z"/><path class="cls-19" d="M218.256,477.153a5.832,5.832,0,0,1,2.632-4.567c1.456-.84,2.632-.157,2.632,1.524a5.8,5.8,0,0,1-2.632,4.559C219.433,479.509,218.256,478.83,218.256,477.153Z"/><path class="cls-19" d="M210.16,481.82a5.814,5.814,0,0,1,2.629-4.56c1.455-.833,2.639-.161,2.639,1.52a5.812,5.812,0,0,1-2.639,4.563C211.333,484.18,210.16,483.5,210.16,481.82Z"/><path class="cls-19" d="M202.06,486.5a5.837,5.837,0,0,1,2.633-4.567c1.458-.837,2.635-.154,2.635,1.524a5.832,5.832,0,0,1-2.635,4.566C203.237,488.854,202.06,488.181,202.06,486.5Z"/><path class="cls-19" d="M193.961,491.171a5.82,5.82,0,0,1,2.639-4.56c1.452-.837,2.632-.157,2.632,1.517a5.806,5.806,0,0,1-2.632,4.559C195.144,493.531,193.961,492.852,193.961,491.171Z"/><path class="cls-19" d="M185.872,495.841a5.822,5.822,0,0,1,2.628-4.556c1.452-.844,2.632-.157,2.632,1.52a5.812,5.812,0,0,1-2.632,4.56C187.048,498.205,185.872,497.522,185.872,495.841Z"/><path class="cls-19" d="M177.775,500.515a5.835,5.835,0,0,1,2.632-4.559c1.456-.841,2.632-.161,2.632,1.523a5.812,5.812,0,0,1-2.632,4.563C178.952,502.875,177.775,502.206,177.775,500.515Z"/><path class="cls-19" d="M242.541,473.04a5.814,5.814,0,0,1,2.632-4.556c1.456-.851,2.64-.164,2.64,1.524a5.8,5.8,0,0,1-2.64,4.549C243.718,475.4,242.541,474.725,242.541,473.04Z"/><path class="cls-19" d="M234.442,477.714a5.814,5.814,0,0,1,2.635-4.56c1.459-.843,2.636-.157,2.636,1.521a5.809,5.809,0,0,1-2.636,4.563C235.622,480.078,234.442,479.4,234.442,477.714Z"/><path class="cls-19" d="M226.349,482.385a5.808,5.808,0,0,1,2.632-4.556c1.452-.841,2.628-.161,2.628,1.52a5.822,5.822,0,0,1-2.628,4.559C227.525,484.752,226.349,484.069,226.349,482.385Z"/><path class="cls-19" d="M218.256,487.062a5.836,5.836,0,0,1,2.632-4.563c1.456-.83,2.632-.158,2.632,1.523a5.787,5.787,0,0,1-2.632,4.556C219.433,489.419,218.256,488.743,218.256,487.062Z"/><path class="cls-19" d="M210.16,491.736a5.825,5.825,0,0,1,2.629-4.56c1.455-.844,2.639-.157,2.639,1.524a5.815,5.815,0,0,1-2.639,4.556C211.333,494.1,210.16,493.42,210.16,491.736Z"/><path class="cls-19" d="M202.06,496.41a5.828,5.828,0,0,1,2.633-4.563c1.458-.837,2.635-.158,2.635,1.523a5.809,5.809,0,0,1-2.635,4.563C203.237,498.773,202.06,498.1,202.06,496.41Z"/><path class="cls-19" d="M193.961,501.084a5.806,5.806,0,0,1,2.639-4.556c1.452-.844,2.632-.168,2.632,1.52a5.838,5.838,0,0,1-2.632,4.559C195.144,503.444,193.961,502.764,193.961,501.084Z"/><path class="cls-19" d="M185.872,505.754A5.82,5.82,0,0,1,188.5,501.2c1.452-.844,2.632-.161,2.632,1.512a5.827,5.827,0,0,1-2.632,4.563C187.052,508.121,185.872,507.435,185.872,505.754Z"/><path class="cls-19" d="M177.775,510.431a5.831,5.831,0,0,1,2.632-4.563c1.456-.837,2.636-.154,2.636,1.527a5.8,5.8,0,0,1-2.636,4.556C178.952,512.788,177.775,512.112,177.775,510.431Z"/><path class="cls-19" d="M242.541,482.957a5.813,5.813,0,0,1,2.632-4.563c1.456-.845,2.64-.161,2.64,1.519a5.806,5.806,0,0,1-2.64,4.556C243.718,485.313,242.541,484.627,242.541,482.957Z"/><path class="cls-19" d="M234.442,487.627a5.815,5.815,0,0,1,2.635-4.559c1.459-.845,2.636-.162,2.636,1.512a5.808,5.808,0,0,1-2.636,4.563C235.622,489.98,234.442,489.3,234.442,487.627Z"/><path class="cls-19" d="M226.349,492.308a5.79,5.79,0,0,1,2.632-4.563c1.452-.851,2.628-.168,2.628,1.523a5.827,5.827,0,0,1-2.628,4.556C227.525,494.661,226.349,493.978,226.349,492.308Z"/><path class="cls-19" d="M218.256,496.975a5.793,5.793,0,0,1,2.632-4.56c1.456-.84,2.632-.161,2.632,1.524a5.821,5.821,0,0,1-2.632,4.559C219.433,499.335,218.256,498.659,218.256,496.975Z"/><path class="cls-19" d="M210.16,501.652a5.8,5.8,0,0,1,2.629-4.563c1.455-.836,2.639-.157,2.639,1.513a5.8,5.8,0,0,1-2.639,4.559C211.333,504.009,210.16,503.322,210.16,501.652Z"/><path class="cls-19" d="M202.06,506.323a5.828,5.828,0,0,1,2.633-4.563c1.458-.841,2.635-.165,2.635,1.53a5.771,5.771,0,0,1-2.635,4.545C203.237,508.679,202.06,508,202.06,506.323Z"/><path class="cls-19" d="M193.961,511a5.813,5.813,0,0,1,2.639-4.563c1.452-.84,2.632-.161,2.632,1.523a5.849,5.849,0,0,1-2.632,4.563C195.144,513.357,193.961,512.684,193.961,511Z"/><path class="cls-19" d="M185.872,515.674a5.824,5.824,0,0,1,2.628-4.563c1.459-.837,2.632-.161,2.632,1.52a5.807,5.807,0,0,1-2.632,4.559C187.052,518.03,185.872,517.347,185.872,515.674Z"/><path class="cls-19" d="M177.775,520.348a5.8,5.8,0,0,1,2.632-4.563c1.456-.84,2.636-.158,2.636,1.516a5.777,5.777,0,0,1-2.636,4.559C178.952,522.7,177.775,522.021,177.775,520.348Z"/><path class="cls-19" d="M242.541,492.866a5.817,5.817,0,0,1,2.632-4.567c1.456-.83,2.64-.154,2.64,1.52a5.84,5.84,0,0,1-2.64,4.567C243.718,495.222,242.541,494.543,242.541,492.866Z"/><path class="cls-19" d="M234.442,497.543a5.847,5.847,0,0,1,2.635-4.57c1.459-.833,2.636-.157,2.636,1.524a5.814,5.814,0,0,1-2.636,4.563C235.622,499.9,234.442,499.213,234.442,497.543Z"/><path class="cls-19" d="M226.349,502.206a5.858,5.858,0,0,1,2.632-4.563c1.452-.829,2.628-.146,2.628,1.527a5.8,5.8,0,0,1-2.628,4.563C227.525,504.57,226.349,503.894,226.349,502.206Z"/><path class="cls-19" d="M218.256,506.888a5.815,5.815,0,0,1,2.632-4.567c1.456-.833,2.632-.154,2.632,1.52a5.806,5.806,0,0,1-2.632,4.566C219.433,509.244,218.256,508.565,218.256,506.888Z"/><path class="cls-19" d="M210.16,511.554A5.8,5.8,0,0,1,212.789,507c1.455-.847,2.639-.158,2.639,1.52a5.826,5.826,0,0,1-2.639,4.556C211.333,513.918,210.16,513.235,210.16,511.554Z"/><path class="cls-19" d="M202.06,516.232a5.8,5.8,0,0,1,2.633-4.552c1.458-.844,2.635-.162,2.635,1.516a5.808,5.808,0,0,1-2.635,4.559C203.237,518.6,202.06,517.916,202.06,516.232Z"/><path class="cls-19" d="M193.964,520.909a5.828,5.828,0,0,1,2.636-4.563c1.452-.836,2.632-.161,2.632,1.52a5.8,5.8,0,0,1-2.632,4.559C195.144,523.266,193.964,522.59,193.964,520.909Z"/><path class="cls-19" d="M185.872,525.58a5.838,5.838,0,0,1,2.628-4.563c1.459-.834,2.632-.158,2.632,1.523A5.78,5.78,0,0,1,188.5,527.1C187.052,527.947,185.872,527.257,185.872,525.58Z"/><path class="cls-19" d="M177.775,530.253a5.811,5.811,0,0,1,2.632-4.552c1.46-.851,2.636-.168,2.636,1.52a5.826,5.826,0,0,1-2.636,4.559C178.952,532.621,177.775,531.938,177.775,530.253Z"/><path class="cls-19" d="M242.541,502.782a5.8,5.8,0,0,1,2.632-4.559c1.456-.848,2.64-.168,2.64,1.516a5.818,5.818,0,0,1-2.64,4.556C243.718,505.139,242.541,504.459,242.541,502.782Z"/><path class="cls-19" d="M234.442,507.449a5.826,5.826,0,0,1,2.635-4.559c1.459-.844,2.636-.161,2.636,1.523a5.817,5.817,0,0,1-2.636,4.559C235.629,509.813,234.442,509.133,234.442,507.449Z"/><path class="cls-19" d="M226.349,512.126a5.806,5.806,0,0,1,2.632-4.559c1.452-.84,2.635-.161,2.635,1.516a5.856,5.856,0,0,1-2.635,4.567C227.529,514.483,226.349,513.8,226.349,512.126Z"/><path class="cls-19" d="M218.256,516.8a5.836,5.836,0,0,1,2.632-4.563c1.456-.837,2.632-.154,2.632,1.527a5.8,5.8,0,0,1-2.632,4.552C219.433,519.16,218.256,518.478,218.256,516.8Z"/><path class="cls-19" d="M210.16,521.474a5.821,5.821,0,0,1,2.629-4.563c1.455-.84,2.639-.164,2.639,1.524A5.856,5.856,0,0,1,212.789,523C211.333,523.834,210.16,523.155,210.16,521.474Z"/><path class="cls-19" d="M202.06,526.144a5.8,5.8,0,0,1,2.633-4.555c1.458-.841,2.635-.165,2.635,1.516a5.807,5.807,0,0,1-2.635,4.559C203.237,528.509,202.06,527.825,202.06,526.144Z"/><path class="cls-19" d="M193.964,530.829a5.788,5.788,0,0,1,2.636-4.563c1.452-.851,2.632-.157,2.632,1.513a5.835,5.835,0,0,1-2.632,4.563C195.144,533.182,193.964,532.5,193.964,530.829Z"/><path class="cls-19" d="M185.872,535.492a5.835,5.835,0,0,1,2.628-4.556c1.459-.847,2.632-.164,2.632,1.524a5.813,5.813,0,0,1-2.632,4.559C187.052,537.853,185.872,537.177,185.872,535.492Z"/><path class="cls-19" d="M177.775,540.166a5.827,5.827,0,0,1,2.632-4.563c1.46-.829,2.636-.157,2.636,1.524a5.817,5.817,0,0,1-2.636,4.563C178.952,542.533,177.775,541.851,177.775,540.166Z"/></g></g></svg>