<svg id="Capa_1" data-name="Capa 1" xmlns="http://www.w3.org/2000/svg" xmlns:xlink="http://www.w3.org/1999/xlink" viewBox="0 0 396.128 600"><defs><style>.cls-1,.cls-10,.cls-106,.cls-11,.cls-12,.cls-13,.cls-14,.cls-15,.cls-16,.cls-17,.cls-18,.cls-19,.cls-2,.cls-20,.cls-21,.cls-22,.cls-23,.cls-24,.cls-25,.cls-26,.cls-27,.cls-28,.cls-29,.cls-3,.cls-30,.cls-31,.cls-32,.cls-33,.cls-34,.cls-4,.cls-5,.cls-6,.cls-7,.cls-8,.cls-9{fill:none;}.cls-1{clip-rule:evenodd;}.cls-10,.cls-100,.cls-101,.cls-102,.cls-103,.cls-104,.cls-105,.cls-107,.cls-108,.cls-11,.cls-110,.cls-12,.cls-124,.cls-125,.cls-126,.cls-127,.cls-128,.cls-13,.cls-138,.cls-139,.cls-14,.cls-143,.cls-144,.cls-145,.cls-147,.cls-148,.cls-149,.cls-15,.cls-151,.cls-16,.cls-17,.cls-18,.cls-19,.cls-198,.cls-2,.cls-20,.cls-200,.cls-201,.cls-202,.cls-204,.cls-21,.cls-22,.cls-23,.cls-24,.cls-25,.cls-26,.cls-27,.cls-28,.cls-29,.cls-3,.cls-30,.cls-31,.cls-32,.cls-33,.cls-34,.cls-35,.cls-37,.cls-38,.cls-39,.cls-4,.cls-40,.cls-41,.cls-42,.cls-44,.cls-45,.cls-46,.cls-47,.cls-48,.cls-49,.cls-5,.cls-50,.cls-51,.cls-52,.cls-53,.cls-54,.cls-55,.cls-56,.cls-57,.cls-58,.cls-59,.cls-6,.cls-60,.cls-61,.cls-62,.cls-64,.cls-66,.cls-68,.cls-7,.cls-71,.cls-72,.cls-73,.cls-74,.cls-75,.cls-76,.cls-77,.cls-78,.cls-8,.cls-80,.cls-81,.cls-82,.cls-83,.cls-84,.cls-85,.cls-86,.cls-87,.cls-89,.cls-9,.cls-91,.cls-92,.cls-93,.cls-99{fill-rule:evenodd;}.cls-2{clip-path:url(#clip-path);}.cls-4{clip-path:url(#clip-path-2);}.cls-5{clip-path:url(#clip-path-3);}.cls-6{clip-path:url(#clip-path-4);}.cls-7{clip-path:url(#clip-path-5);}.cls-8{clip-path:url(#clip-path-6);}.cls-9{clip-path:url(#clip-path-7);}.cls-10{clip-path:url(#clip-path-8);}.cls-11{clip-path:url(#clip-path-9);}.cls-12{clip-path:url(#clip-path-10);}.cls-13{clip-path:url(#clip-path-13);}.cls-14{clip-path:url(#clip-path-14);}.cls-15{clip-path:url(#clip-path-15);}.cls-16{clip-path:url(#clip-path-16);}.cls-17{clip-path:url(#clip-path-17);}.cls-18{clip-path:url(#clip-path-18);}.cls-19{clip-path:url(#clip-path-19);}.cls-20{clip-path:url(#clip-path-20);}.cls-21{clip-path:url(#clip-path-21);}.cls-22{clip-path:url(#clip-path-22);}.cls-23{clip-path:url(#clip-path-23);}.cls-24{clip-path:url(#clip-path-24);}.cls-25{clip-path:url(#clip-path-25);}.cls-26{clip-path:url(#clip-path-27);}.cls-27{clip-path:url(#clip-path-31);}.cls-28{clip-path:url(#clip-path-34);}.cls-29{clip-path:url(#clip-path-37);}.cls-30{clip-path:url(#clip-path-39);}.cls-31{clip-path:url(#clip-path-40);}.cls-32{clip-path:url(#clip-path-41);}.cls-33{clip-path:url(#clip-path-43);}.cls-34{clip-path:url(#clip-path-44);}.cls-35{fill:#73777b;}.cls-36{clip-path:url(#clip-path-45);}.cls-37{fill:#a9aeb2;}.cls-38{fill:#d8d9db;}.cls-39{fill:#b2b8bd;}.cls-40{fill:#cacbce;}.cls-41{fill:#4e4d4d;}.cls-42{fill:#f1f2f4;}.cls-43{clip-path:url(#clip-path-46);}.cls-44{fill:#f8f7f8;}.cls-45{fill:#7f8a92;}.cls-46{fill:#fbfbfb;}.cls-47{fill:#7f8084;}.cls-48{fill:#9ea2a6;}.cls-49{fill:#dbdde0;}.cls-50{fill:#f0f0f0;}.cls-51{fill:#e5e5e4;}.cls-52{fill:#dbdee0;}.cls-53{fill:#5ca2bc;}.cls-54{fill:#4c8ba3;}.cls-55{fill:#c7c6c6;}.cls-56{fill:#747679;}.cls-57{fill:#4e5459;}.cls-58{fill:#818282;}.cls-59{fill:#88949c;}.cls-60{fill:#d7d7d5;}.cls-61{fill:#a5abaf;}.cls-62{fill:#eaeaea;}.cls-63{clip-path:url(#clip-path-56);}.cls-64{fill:#f2f2f2;}.cls-65{clip-path:url(#clip-path-57);}.cls-66{fill:#5e5e5e;}.cls-67{clip-path:url(#clip-path-58);}.cls-68{fill:#e0e0e0;}.cls-69{clip-path:url(#clip-path-59);}.cls-70{clip-path:url(#clip-path-60);}.cls-71{fill:#f3b012;}.cls-72{fill:#807f7e;}.cls-73{fill:#dedede;}.cls-74{fill:#b6b5b4;}.cls-75{fill:#868686;}.cls-76{fill:#909090;}.cls-77{fill:#757575;}.cls-78{fill:#585858;}.cls-79{clip-path:url(#clip-path-61);}.cls-80{fill:#848484;}.cls-81{fill:#535353;}.cls-82{fill:#686868;}.cls-83{fill:#8e8e8e;}.cls-84{fill:#c77e69;}.cls-85{fill:#a76815;}.cls-86{fill:#b0b0af;}.cls-87{fill:#c5c5c4;}.cls-88{clip-path:url(#clip-path-64);}.cls-89{fill:#626365;}.cls-90{clip-path:url(#clip-path-65);}.cls-91{fill:#aeadad;}.cls-92{fill:#b5b4b4;}.cls-93{fill:#6b7279;}.cls-94{clip-path:url(#clip-path-69);}.cls-95{clip-path:url(#clip-path-73);}.cls-96{clip-path:url(#clip-path-74);}.cls-97{clip-path:url(#clip-path-78);}.cls-98{clip-path:url(#clip-path-82);}.cls-99{fill:#434649;}.cls-100{fill:#cacccf;}.cls-101{fill:#efefef;}.cls-102{fill:#cdd1d4;}.cls-103{fill:#555c61;}.cls-104{fill:#9d9d9d;}.cls-105{fill:#6d6d6d;}.cls-106{stroke:#b3b2b2;stroke-linecap:round;stroke-linejoin:round;stroke-width:2.264px;}.cls-107{fill:#fab81f;}.cls-108{fill:#f8f7f7;}.cls-109{clip-path:url(#clip-path-94);}.cls-110{fill:#666b6f;}.cls-111{clip-path:url(#clip-path-97);}.cls-112{clip-path:url(#clip-path-100);}.cls-113{clip-path:url(#clip-path-103);}.cls-114{clip-path:url(#clip-path-104);}.cls-115{clip-path:url(#clip-path-107);}.cls-116{clip-path:url(#clip-path-108);}.cls-117{clip-path:url(#clip-path-109);}.cls-118{clip-path:url(#clip-path-110);}.cls-119{clip-path:url(#clip-path-111);}.cls-120{clip-path:url(#clip-path-112);}.cls-121{clip-path:url(#clip-path-113);}.cls-122{clip-path:url(#clip-path-114);}.cls-123{clip-path:url(#clip-path-115);}.cls-124{fill:#727272;}.cls-125{fill:#60605f;}.cls-126{fill:#5b5b5b;}.cls-127{fill:#494949;}.cls-128{fill:#393939;}.cls-129{clip-path:url(#clip-path-123);}.cls-130{clip-path:url(#clip-path-124);}.cls-131{clip-path:url(#clip-path-125);}.cls-132{clip-path:url(#clip-path-126);}.cls-133{clip-path:url(#clip-path-127);}.cls-134{clip-path:url(#clip-path-128);}.cls-135{clip-path:url(#clip-path-129);}.cls-136{clip-path:url(#clip-path-130);}.cls-137{clip-path:url(#clip-path-131);}.cls-138{fill:#636363;}.cls-139{fill:#d1d1d1;}.cls-140{clip-path:url(#clip-path-139);}.cls-141{clip-path:url(#clip-path-140);}.cls-142{clip-path:url(#clip-path-141);}.cls-143{fill:#696b6c;}.cls-144{fill:#838a8f;}.cls-145{fill:#54585d;}.cls-146{clip-path:url(#clip-path-143);}.cls-147{fill:#8c929a;}.cls-148{fill:#5d6469;}.cls-149{fill:#494c4e;}.cls-150{clip-path:url(#clip-path-144);}.cls-151{fill:#ccced1;}.cls-152{clip-path:url(#clip-path-145);}.cls-153{clip-path:url(#clip-path-146);}.cls-154{clip-path:url(#clip-path-147);}.cls-155{clip-path:url(#clip-path-148);}.cls-156{clip-path:url(#clip-path-149);}.cls-157{clip-path:url(#clip-path-150);}.cls-158{clip-path:url(#clip-path-151);}.cls-159{clip-path:url(#clip-path-152);}.cls-160{clip-path:url(#clip-path-153);}.cls-161{clip-path:url(#clip-path-154);}.cls-162{clip-path:url(#clip-path-155);}.cls-163{clip-path:url(#clip-path-156);}.cls-164{clip-path:url(#clip-path-157);}.cls-165{clip-path:url(#clip-path-158);}.cls-166{clip-path:url(#clip-path-159);}.cls-167{clip-path:url(#clip-path-160);}.cls-168{clip-path:url(#clip-path-161);}.cls-169{clip-path:url(#clip-path-162);}.cls-170{clip-path:url(#clip-path-163);}.cls-171{clip-path:url(#clip-path-164);}.cls-172{clip-path:url(#clip-path-165);}.cls-173{clip-path:url(#clip-path-166);}.cls-174{clip-path:url(#clip-path-167);}.cls-175{clip-path:url(#clip-path-168);}.cls-176{clip-path:url(#clip-path-169);}.cls-177{clip-path:url(#clip-path-170);}.cls-178{clip-path:url(#clip-path-171);}.cls-179{clip-path:url(#clip-path-172);}.cls-180{clip-path:url(#clip-path-173);}.cls-181{clip-path:url(#clip-path-174);}.cls-182{clip-path:url(#clip-path-175);}.cls-183{clip-path:url(#clip-path-176);}.cls-184{clip-path:url(#clip-path-177);}.cls-185{clip-path:url(#clip-path-178);}.cls-186{clip-path:url(#clip-path-179);}.cls-187{clip-path:url(#clip-path-180);}.cls-188{clip-path:url(#clip-path-181);}.cls-189{clip-path:url(#clip-path-182);}.cls-190{clip-path:url(#clip-path-183);}.cls-191{clip-path:url(#clip-path-184);}.cls-192{clip-path:url(#clip-path-185);}.cls-193{clip-path:url(#clip-path-186);}.cls-194{clip-path:url(#clip-path-187);}.cls-195{clip-path:url(#clip-path-188);}.cls-196{clip-path:url(#clip-path-189);}.cls-197{clip-path:url(#clip-path-190);}.cls-198{fill:#515151;}.cls-199{clip-path:url(#clip-path-191);}.cls-200{fill:#458178;}.cls-201{fill:#4c9288;}.cls-202{fill:#9ea3a6;}.cls-203{clip-path:url(#clip-path-193);}.cls-204{fill:#6e6d6e;}</style><clipPath id="clip-path"><path class="cls-1" d="M42.86,502.246a.185.185,0,0,0,.072-.166.579.579,0,0,0-.261-.453.184.184,0,0,0-.184-.018h0l-.237.137.16.092.005,0a.6.6,0,0,0,.209.362l-.16.092.16.093.236-.137Z"/></clipPath><clipPath id="clip-path-2"><polygon class="cls-1" points="134.559 471.092 13.99 401.482 13.99 522.292 134.559 591.903 134.559 471.092 134.559 471.092"/></clipPath><clipPath id="clip-path-3"><path class="cls-1" d="M42.4,501.933c-.072-.041-.13-.008-.13.075a.287.287,0,0,0,.13.226c.072.042.131.008.131-.075a.29.29,0,0,0-.131-.226Z"/></clipPath><clipPath id="clip-path-4"><path class="cls-1" d="M42.86,503.459a.187.187,0,0,0,.072-.167.578.578,0,0,0-.261-.452.18.18,0,0,0-.184-.018h0l-.237.136.16.093.005,0a.6.6,0,0,0,.209.362l-.16.093.16.092.236-.136Z"/></clipPath><clipPath id="clip-path-5"><path class="cls-1" d="M42.4,503.146c-.072-.042-.13-.008-.13.075a.286.286,0,0,0,.13.225c.072.042.131.008.131-.075a.287.287,0,0,0-.131-.225Z"/></clipPath><clipPath id="clip-path-6"><path class="cls-1" d="M64.95,515a.187.187,0,0,0,.073-.167.578.578,0,0,0-.261-.452.186.186,0,0,0-.185-.018h0l-.237.137.16.092,0,0a.6.6,0,0,0,.209.363l-.16.092.16.093L64.95,515Z"/></clipPath><clipPath id="clip-path-7"><path class="cls-1" d="M114.509,465.976l-1.206-.7V566.785l1.206.7v-101.5Zm-34.287-19.8-1.207-.7V546.989l1.207.7V446.18Z"/></clipPath><clipPath id="clip-path-8"><path class="cls-1" d="M64.494,514.687c-.072-.042-.131-.008-.131.075a.29.29,0,0,0,.131.226c.071.041.13.008.13-.075a.29.29,0,0,0-.13-.226Z"/></clipPath><clipPath id="clip-path-9"><path class="cls-1" d="M64.95,516.212a.185.185,0,0,0,.073-.166.576.576,0,0,0-.261-.452.184.184,0,0,0-.185-.019h0l-.237.137.16.092,0,0a.6.6,0,0,0,.209.362l-.16.093.16.092.236-.137Z"/></clipPath><clipPath id="clip-path-10"><path class="cls-1" d="M64.494,515.9c-.072-.041-.131-.007-.131.076a.287.287,0,0,0,.131.225c.071.042.13.008.13-.075a.292.292,0,0,0-.13-.226Z"/></clipPath><clipPath id="clip-path-13"><polygon class="cls-1" points="275.342 264.413 21.65 410.882 26.537 413.703 280.229 267.234 275.342 264.413 275.342 264.413"/></clipPath><clipPath id="clip-path-14"><path class="cls-1" d="M103.105,490.313a4.834,4.834,0,0,0-2.018-3.855l-13.306-7.682c-1.113-.643-2.017.04-2.017,1.525v9.566a4.836,4.836,0,0,0,2.017,3.855l13.306,7.682c1.114.643,2.018-.041,2.018-1.525v-9.566Z"/></clipPath><clipPath id="clip-path-15"><path class="cls-1" d="M102.994,516.849c-.3-.175-.551-.033-.551.319a1.221,1.221,0,0,0,.551.955c.305.175.552.033.552-.319a1.219,1.219,0,0,0-.552-.955Z"/></clipPath><clipPath id="clip-path-16"><path class="cls-1" d="M42.3,403.963l-6.5,3.752L131.99,463.25l6.5-3.752L42.3,403.963Zm13.652-7.882-6.5,3.753,96.189,55.534,6.5-3.752L55.953,396.081ZM69.6,388.2l-6.5,3.752,96.188,55.534,6.5-3.752L69.6,388.2Zm13.652-7.882-6.5,3.752L172.945,439.6l6.5-3.752L83.256,380.318Zm13.652-7.882-6.5,3.752L186.6,431.723l6.5-3.753L96.908,372.436Zm13.651-7.882-6.5,3.752,96.188,55.535,6.5-3.752-96.189-55.535Zm13.652-7.882-6.5,3.753L213.9,415.959l6.5-3.752-96.188-55.535Zm13.652-7.881-6.5,3.752,96.188,55.534,6.5-3.752-96.188-55.534Zm13.651-7.882-6.5,3.752L241.2,400.2l6.5-3.752-96.189-55.534Zm13.652-7.882-6.5,3.752,96.188,55.535,6.5-3.753-96.188-55.534Zm13.652-7.882-6.5,3.752,96.188,55.535,6.5-3.752-96.188-55.535Zm13.651-7.882-6.5,3.753,96.189,55.534,6.5-3.752-96.189-55.535Zm13.652-7.881-6.5,3.752,96.188,55.534,6.5-3.752-96.188-55.534Zm13.652-7.882-6.5,3.752,96.188,55.534,6.5-3.752L219.773,301.5Zm13.651-7.882-6.5,3.752,96.189,55.535,6.5-3.753-96.189-55.534Zm13.652-7.882-6.5,3.752,96.188,55.535,6.5-3.752-96.188-55.535Zm13.652-7.882-6.5,3.753,96.188,55.534,6.5-3.752-96.188-55.535Zm13.651-7.881-6.5,3.752,96.189,55.534,6.5-3.752-96.189-55.534Z"/></clipPath><clipPath id="clip-path-17"><path class="cls-1" d="M129.21,458.72a3.61,3.61,0,0,1,3.267,0,1,1,0,0,1,0,1.886,3.61,3.61,0,0,1-3.267,0,1,1,0,0,1,0-1.886Z"/></clipPath><clipPath id="clip-path-18"><path class="cls-1" d="M30.075,401.484a3.616,3.616,0,0,1,3.267,0,1,1,0,0,1,0,1.887,3.616,3.616,0,0,1-3.267,0,1,1,0,0,1,0-1.887Z"/></clipPath><clipPath id="clip-path-19"><path class="cls-1" d="M127,462.538a3.229,3.229,0,0,1,1.459,2.528c0,.93-.654,1.308-1.459.843a3.228,3.228,0,0,1-1.46-2.529c0-.93.654-1.308,1.46-.842Z"/></clipPath><clipPath id="clip-path-20"><path class="cls-1" d="M28.649,405.755a3.227,3.227,0,0,1,1.46,2.528c0,.93-.654,1.308-1.46.843A3.229,3.229,0,0,1,27.19,406.6c0-.93.654-1.308,1.459-.842Z"/></clipPath><clipPath id="clip-path-21"><path class="cls-1" d="M373.288,317.8a3.61,3.61,0,0,1,3.267,0,1,1,0,0,1,0,1.886,3.616,3.616,0,0,1-3.267,0,1,1,0,0,1,0-1.886Z"/></clipPath><clipPath id="clip-path-22"><path class="cls-1" d="M274.153,260.566a3.61,3.61,0,0,1,3.267,0,1,1,0,0,1,0,1.886,3.61,3.61,0,0,1-3.267,0,1,1,0,0,1,0-1.886Z"/></clipPath><clipPath id="clip-path-23"><path class="cls-1" d="M371.079,321.619a3.229,3.229,0,0,1,1.459,2.529c0,.93-.654,1.308-1.459.842a3.227,3.227,0,0,1-1.46-2.528c0-.93.654-1.308,1.46-.843Z"/></clipPath><clipPath id="clip-path-24"><path class="cls-1" d="M272.727,264.836a3.228,3.228,0,0,1,1.46,2.529c0,.93-.654,1.308-1.46.842a3.229,3.229,0,0,1-1.459-2.528c0-.93.654-1.308,1.459-.843Z"/></clipPath><clipPath id="clip-path-25"><path class="cls-1" d="M132.362,579.23c58.775-43.189,165.212-112.3,195.34-181.6,14.6-33.594,33.281-40.338,58.281-77.671l3.978,118.024-257.6,141.25Z"/></clipPath><clipPath id="clip-path-27"><polygon class="cls-1" points="375.229 334.053 136.589 471.832 136.589 571.061 375.229 433.282 375.229 334.053 375.229 334.053"/></clipPath><clipPath id="clip-path-31"><path class="cls-1" d="M170.709,451.414l-1.569.905V553.831l1.569-.906V451.414Zm32.977-19.04-1.568.906V534.791l1.568-.905V432.374Zm32.568-18.8-1.569.906V515.988l1.569-.905V413.571Zm30.569-17.649-1.568.9V498.339l1.568-.906V395.922Zm29.61-17.1-1.568.905V481.244l1.568-.906V378.827Zm28.378-16.385-1.568.906V464.86l1.568-.906V362.442ZM351.9,346.805l-1.569.906V449.222l1.569-.9V346.805Z"/></clipPath><clipPath id="clip-path-34"><path class="cls-1" d="M220.858,515.747c.987-.569,1.788-.107,1.788,1.033a3.952,3.952,0,0,1-1.788,3.1c-.987.57-1.788.107-1.788-1.032a3.955,3.955,0,0,1,1.788-3.1Z"/></clipPath><clipPath id="clip-path-37"><path class="cls-1" d="M309.331,464.667c.987-.569,1.788-.107,1.788,1.032a3.954,3.954,0,0,1-1.788,3.1c-.987.57-1.788.107-1.788-1.032a3.954,3.954,0,0,1,1.788-3.1Z"/></clipPath><clipPath id="clip-path-39"><polygon class="cls-1" points="130.554 547.148 26.458 487.048 26.458 491.723 130.554 551.823 130.554 547.148 130.554 547.148"/></clipPath><clipPath id="clip-path-40"><polygon class="cls-1" points="72.326 528.274 32.084 505.04 32.084 513.223 72.326 536.456 72.326 528.274 72.326 528.274"/></clipPath><clipPath id="clip-path-41"><polygon class="cls-1" points="72.326 498.628 32.084 475.394 32.084 483.577 72.326 506.81 72.326 498.628 72.326 498.628"/></clipPath><clipPath id="clip-path-43"><polygon class="cls-1" points="72.326 483.569 32.084 460.336 32.084 468.519 72.326 491.752 72.326 483.569 72.326 483.569"/></clipPath><clipPath id="clip-path-44"><polygon class="cls-1" points="72.326 441.186 32.084 417.953 32.084 426.135 72.326 449.369 72.326 441.186 72.326 441.186"/></clipPath><clipPath id="clip-path-45"><polygon class="cls-1" points="274.216 374.833 3.063 526.071 3.063 531.383 121.912 600 393.064 443.45 393.064 438.138 274.216 374.833 274.216 374.833"/></clipPath><clipPath id="clip-path-46"><polygon class="cls-1" points="275.385 264.389 25.947 408.401 25.947 519.022 131.19 579.784 380.628 325.151 275.385 264.389 275.385 264.389"/></clipPath><clipPath id="clip-path-56"><path class="cls-1" d="M108.42,483.541a3.593,3.593,0,0,0-1.8-3.111L81.441,465.891a1.244,1.244,0,0,0-1.865,1.077V540.6a2.487,2.487,0,0,0,1.243,2.153l25.346,14.633a1.5,1.5,0,0,0,2.255-1.3V483.541Z"/></clipPath><clipPath id="clip-path-57"><path class="cls-1" d="M78.048,485.981h-.006v-3.5h2.222v3.5h-.006a.519.519,0,0,1-.319.52,1.741,1.741,0,0,1-1.572,0,.519.519,0,0,1-.319-.52Z"/></clipPath><clipPath id="clip-path-58"><path class="cls-1" d="M78.048,482.085h-.006v-3.5h2.222v3.5h-.006a.519.519,0,0,1-.319.519,1.741,1.741,0,0,1-1.572,0,.519.519,0,0,1-.319-.519Z"/></clipPath><clipPath id="clip-path-59"><path class="cls-1" d="M78.048,529.818h-.006v-3.5h2.222v3.5h-.006a.519.519,0,0,1-.319.519,1.735,1.735,0,0,1-1.572,0,.519.519,0,0,1-.319-.519Z"/></clipPath><clipPath id="clip-path-60"><path class="cls-1" d="M78.048,525.921h-.006v-3.5h2.222v3.5h-.006a.519.519,0,0,1-.319.519,1.735,1.735,0,0,1-1.572,0,.519.519,0,0,1-.319-.519Z"/></clipPath><clipPath id="clip-path-61"><path class="cls-1" d="M103.968,515.631c-1.284-.741-2.326-.139-2.326,1.343A5.143,5.143,0,0,0,103.968,521c1.283.741,2.326.139,2.326-1.343a5.147,5.147,0,0,0-2.326-4.029Z"/></clipPath><clipPath id="clip-path-64"><path class="cls-1" d="M134.494,462.88c.788-.455,1.429-.086,1.429.825a3.164,3.164,0,0,1-1.429,2.476c-.789.455-1.43.085-1.43-.825a3.163,3.163,0,0,1,1.43-2.476Z"/></clipPath><clipPath id="clip-path-65"><polygon class="cls-1" points="32.017 399.464 25.947 402.969 131.174 463.721 137.243 460.217 32.017 399.464 32.017 399.464"/></clipPath><clipPath id="clip-path-69"><polygon class="cls-1" points="131.19 463.731 25.947 402.969 25.947 408.401 131.19 469.163 131.19 463.731 131.19 463.731"/></clipPath><clipPath id="clip-path-73"><path class="cls-1" d="M378.572,321.962c.788-.456,1.429-.086,1.429.825a3.161,3.161,0,0,1-1.429,2.475c-.789.456-1.43.086-1.43-.825a3.159,3.159,0,0,1,1.43-2.475Z"/></clipPath><clipPath id="clip-path-74"><polygon class="cls-1" points="276.094 258.546 270.025 262.05 375.252 322.803 381.321 319.299 276.094 258.546 276.094 258.546"/></clipPath><clipPath id="clip-path-78"><polygon class="cls-1" points="375.268 322.812 270.025 262.05 270.025 267.483 375.268 328.245 375.268 322.812 375.268 322.812"/></clipPath><clipPath id="clip-path-82"><polygon class="cls-1" points="212.695 532.728 212.695 529.144 231.408 518.34 231.408 521.924 301.777 481.296 301.777 477.712 320.49 466.908 320.49 470.492 380.628 435.771 380.628 325.151 131.19 469.163 131.19 579.784 212.695 532.728 212.695 532.728"/></clipPath><clipPath id="clip-path-94"><polygon class="cls-1" points="70.356 530.416 30.115 507.182 30.115 515.365 70.356 538.599 70.356 530.416 70.356 530.416"/></clipPath><clipPath id="clip-path-97"><polygon class="cls-1" points="70.356 500.77 30.115 477.536 30.115 485.719 70.356 508.952 70.356 500.77 70.356 500.77"/></clipPath><clipPath id="clip-path-100"><polygon class="cls-1" points="70.356 485.711 30.115 462.478 30.115 470.661 70.356 493.894 70.356 485.711 70.356 485.711"/></clipPath><clipPath id="clip-path-103"><polygon class="cls-1" points="70.356 470.653 30.115 447.42 30.115 455.602 70.356 478.836 70.356 470.653 70.356 470.653"/></clipPath><clipPath id="clip-path-104"><polygon class="cls-1" points="70.356 443.328 30.115 420.095 30.115 428.278 70.356 451.511 70.356 443.328 70.356 443.328"/></clipPath><clipPath id="clip-path-107"><path class="cls-1" d="M40.229,497.758l-6.137-3.543a.4.4,0,0,0-.6.346v.523a.808.808,0,0,0,.4.7l7.609,4.393.622-.056,6.855,3.958V502.4l-8.013-4.626-.742-.014Z"/></clipPath><clipPath id="clip-path-108"><path class="cls-1" d="M48.02,530.189h-.006V522.8h2.221v7.387H50.23a.52.52,0,0,1-.32.52,1.739,1.739,0,0,1-1.571,0,.518.518,0,0,1-.319-.52Z"/></clipPath><clipPath id="clip-path-109"><path class="cls-1" d="M48.02,522.434h-.006v-7.387h2.221v7.387H50.23a.52.52,0,0,1-.32.52,1.739,1.739,0,0,1-1.571,0,.518.518,0,0,1-.319-.52Z"/></clipPath><clipPath id="clip-path-110"><path class="cls-1" d="M48.305,514.827H48.3V473.482h1.683v41.345h0a.393.393,0,0,1-.242.393,1.313,1.313,0,0,1-1.19,0,.393.393,0,0,1-.242-.393Z"/></clipPath><clipPath id="clip-path-111"><path class="cls-1" d="M48.02,487.727h-.006V480.34h2.221v7.387H50.23a.52.52,0,0,1-.32.52,1.739,1.739,0,0,1-1.571,0,.518.518,0,0,1-.319-.52Z"/></clipPath><clipPath id="clip-path-112"><path class="cls-1" d="M48.02,479.973h-.006v-7.388h2.221v7.388H50.23a.52.52,0,0,1-.32.519,1.739,1.739,0,0,1-1.571,0,.517.517,0,0,1-.319-.519Z"/></clipPath><clipPath id="clip-path-113"><path class="cls-1" d="M48.305,472.365H48.3V431.02h1.683v41.345h0a.393.393,0,0,1-.242.393,1.313,1.313,0,0,1-1.19,0,.393.393,0,0,1-.242-.393Z"/></clipPath><clipPath id="clip-path-114"><path class="cls-1" d="M48.02,438.891h-.006V431.5h2.221v7.387H50.23a.52.52,0,0,1-.32.52,1.739,1.739,0,0,1-1.571,0,.518.518,0,0,1-.319-.52Z"/></clipPath><clipPath id="clip-path-115"><path class="cls-1" d="M42.058,501.129v2.256a.27.27,0,0,0,.137.236l.894.517a.161.161,0,0,0,.159,0,.159.159,0,0,0,.08-.138v-3.113l-.209-.59a.8.8,0,0,1-.048-.275v-2.335a.645.645,0,0,0-.322-.559l-.515-.3a.288.288,0,0,0-.432.249V500.4a.677.677,0,0,0,.056.27l.2.455Z"/></clipPath><clipPath id="clip-path-123"><path class="cls-1" d="M62.319,510.512l-6.136-3.543a.4.4,0,0,0-.6.346v.522a.806.806,0,0,0,.4.7L63.6,512.93l.622-.056,6.855,3.958v-1.68l-8.012-4.626-.743-.014Z"/></clipPath><clipPath id="clip-path-124"><path class="cls-1" d="M70.11,542.943H70.1v-7.387h2.222v7.387H72.32a.517.517,0,0,1-.32.519,1.733,1.733,0,0,1-1.571,0,.516.516,0,0,1-.319-.519Z"/></clipPath><clipPath id="clip-path-125"><path class="cls-1" d="M70.11,535.188H70.1V527.8h2.222v7.387H72.32a.517.517,0,0,1-.32.519,1.733,1.733,0,0,1-1.571,0,.516.516,0,0,1-.319-.519Z"/></clipPath><clipPath id="clip-path-126"><path class="cls-1" d="M70.4,527.58h0V486.235h1.684V527.58h0a.393.393,0,0,1-.242.394,1.32,1.32,0,0,1-1.19,0,.393.393,0,0,1-.242-.394Z"/></clipPath><clipPath id="clip-path-127"><path class="cls-1" d="M70.11,500.481H70.1v-7.387h2.222v7.387H72.32A.517.517,0,0,1,72,501a1.733,1.733,0,0,1-1.571,0,.516.516,0,0,1-.319-.519Z"/></clipPath><clipPath id="clip-path-128"><path class="cls-1" d="M70.11,492.726H70.1v-7.387h2.222v7.387H72.32a.517.517,0,0,1-.32.519,1.733,1.733,0,0,1-1.571,0,.516.516,0,0,1-.319-.519Z"/></clipPath><clipPath id="clip-path-129"><path class="cls-1" d="M70.4,485.118h0V443.773h1.684v41.345h0a.393.393,0,0,1-.242.394,1.32,1.32,0,0,1-1.19,0,.393.393,0,0,1-.242-.394Z"/></clipPath><clipPath id="clip-path-130"><path class="cls-1" d="M70.11,451.645H70.1v-7.387h2.222v7.387H72.32a.518.518,0,0,1-.32.519,1.733,1.733,0,0,1-1.571,0,.517.517,0,0,1-.319-.519Z"/></clipPath><clipPath id="clip-path-131"><path class="cls-1" d="M64.148,513.882v2.257a.273.273,0,0,0,.137.236l.894.517a.16.16,0,0,0,.239-.138v-3.113l-.209-.59a.828.828,0,0,1-.047-.275v-2.335a.644.644,0,0,0-.323-.559l-.515-.3a.288.288,0,0,0-.432.25v3.324a.661.661,0,0,0,.057.27l.2.454Z"/></clipPath><clipPath id="clip-path-139"><path class="cls-1" d="M125.416,575.22a3.228,3.228,0,0,1,1.46,2.529c0,.93-.654,1.308-1.46.842a3.229,3.229,0,0,1-1.459-2.528c0-.93.654-1.308,1.459-.843Z"/></clipPath><clipPath id="clip-path-140"><path class="cls-1" d="M134.494,573.749c.788-.455,1.429-.086,1.429.825a3.164,3.164,0,0,1-1.429,2.476c-.789.455-1.43.085-1.43-.826a3.161,3.161,0,0,1,1.43-2.475Z"/></clipPath><clipPath id="clip-path-141"><path class="cls-1" d="M26.19,517.932a3.227,3.227,0,0,1,1.46,2.528c0,.931-.654,1.308-1.46.843a3.227,3.227,0,0,1-1.46-2.528c0-.931.654-1.308,1.46-.843Z"/></clipPath><clipPath id="clip-path-143"><polygon class="cls-1" points="183.166 450.492 158.9 464.502 158.9 549.09 159.854 549.641 183.166 535.08 184.12 451.042 183.166 450.492 183.166 450.492"/></clipPath><clipPath id="clip-path-144"><polygon class="cls-1" points="182.755 453.997 161.789 466.102 161.789 468.607 182.755 456.502 182.755 453.997 182.755 453.997"/></clipPath><clipPath id="clip-path-145"><polygon class="cls-1" points="182.755 457.507 161.789 469.612 161.789 472.118 182.755 460.013 182.755 457.507 182.755 457.507"/></clipPath><clipPath id="clip-path-146"><polygon class="cls-1" points="182.755 461.018 161.789 473.123 161.789 475.628 182.755 463.523 182.755 461.018 182.755 461.018"/></clipPath><clipPath id="clip-path-147"><polygon class="cls-1" points="182.755 464.528 161.789 476.633 161.789 479.139 182.755 467.034 182.755 464.528 182.755 464.528"/></clipPath><clipPath id="clip-path-148"><polygon class="cls-1" points="182.755 468.039 161.789 480.144 161.789 482.649 182.755 470.544 182.755 468.039 182.755 468.039"/></clipPath><clipPath id="clip-path-149"><polygon class="cls-1" points="182.755 471.549 161.789 483.654 161.789 486.159 182.755 474.055 182.755 471.549 182.755 471.549"/></clipPath><clipPath id="clip-path-150"><polygon class="cls-1" points="182.755 475.06 161.789 487.165 161.789 489.67 182.755 477.565 182.755 475.06 182.755 475.06"/></clipPath><clipPath id="clip-path-151"><polygon class="cls-1" points="182.755 478.57 161.789 490.675 161.789 493.18 182.755 481.075 182.755 478.57 182.755 478.57"/></clipPath><clipPath id="clip-path-152"><polygon class="cls-1" points="182.755 482.08 161.789 494.185 161.789 496.691 182.755 484.586 182.755 482.08 182.755 482.08"/></clipPath><clipPath id="clip-path-153"><polygon class="cls-1" points="182.755 485.591 161.789 497.696 161.789 500.201 182.755 488.096 182.755 485.591 182.755 485.591"/></clipPath><clipPath id="clip-path-154"><polygon class="cls-1" points="182.755 489.101 161.789 501.206 161.789 503.712 182.755 491.607 182.755 489.101 182.755 489.101"/></clipPath><clipPath id="clip-path-155"><polygon class="cls-1" points="182.755 492.612 161.789 504.717 161.789 507.222 182.755 495.117 182.755 492.612 182.755 492.612"/></clipPath><clipPath id="clip-path-156"><polygon class="cls-1" points="182.755 496.122 161.789 508.227 161.789 510.733 182.755 498.628 182.755 496.122 182.755 496.122"/></clipPath><clipPath id="clip-path-157"><polygon class="cls-1" points="182.755 499.633 161.789 511.738 161.789 514.243 182.755 502.138 182.755 499.633 182.755 499.633"/></clipPath><clipPath id="clip-path-158"><polygon class="cls-1" points="182.755 503.143 161.789 515.248 161.789 517.754 182.755 505.649 182.755 503.143 182.755 503.143"/></clipPath><clipPath id="clip-path-159"><polygon class="cls-1" points="182.755 506.654 161.789 518.759 161.789 521.264 182.755 509.159 182.755 506.654 182.755 506.654"/></clipPath><clipPath id="clip-path-160"><polygon class="cls-1" points="182.755 510.164 161.789 522.269 161.789 524.774 182.755 512.67 182.755 510.164 182.755 510.164"/></clipPath><clipPath id="clip-path-161"><polygon class="cls-1" points="182.755 513.675 161.789 525.779 161.789 528.285 182.755 516.18 182.755 513.675 182.755 513.675"/></clipPath><clipPath id="clip-path-162"><polygon class="cls-1" points="182.755 517.185 161.789 529.29 161.789 531.795 182.755 519.69 182.755 517.185 182.755 517.185"/></clipPath><clipPath id="clip-path-163"><polygon class="cls-1" points="182.755 520.695 161.789 532.8 161.789 535.306 182.755 523.201 182.755 520.695 182.755 520.695"/></clipPath><clipPath id="clip-path-164"><polygon class="cls-1" points="182.755 524.206 161.789 536.311 161.789 538.816 182.755 526.711 182.755 524.206 182.755 524.206"/></clipPath><clipPath id="clip-path-165"><polygon class="cls-1" points="182.755 527.716 161.789 539.821 161.789 542.327 182.755 530.222 182.755 527.716 182.755 527.716"/></clipPath><clipPath id="clip-path-166"><polygon class="cls-1" points="182.755 531.227 161.789 543.332 161.789 545.837 182.755 533.732 182.755 531.227 182.755 531.227"/></clipPath><clipPath id="clip-path-167"><polygon class="cls-1" points="364.152 345.999 339.886 360.009 339.886 444.598 340.84 445.148 364.152 430.587 365.106 346.55 364.152 345.999 364.152 345.999"/></clipPath><clipPath id="clip-path-168"><polygon class="cls-1" points="363.742 349.505 342.775 361.609 342.775 364.115 363.742 352.01 363.742 349.505 363.742 349.505"/></clipPath><clipPath id="clip-path-169"><polygon class="cls-1" points="363.742 353.015 342.775 365.12 342.775 367.625 363.742 355.52 363.742 353.015 363.742 353.015"/></clipPath><clipPath id="clip-path-170"><polygon class="cls-1" points="363.742 356.525 342.775 368.63 342.775 371.136 363.742 359.031 363.742 356.525 363.742 356.525"/></clipPath><clipPath id="clip-path-171"><polygon class="cls-1" points="363.742 360.036 342.775 372.141 342.775 374.646 363.742 362.541 363.742 360.036 363.742 360.036"/></clipPath><clipPath id="clip-path-172"><polygon class="cls-1" points="363.742 363.546 342.775 375.651 342.775 378.157 363.742 366.052 363.742 363.546 363.742 363.546"/></clipPath><clipPath id="clip-path-173"><polygon class="cls-1" points="363.742 367.057 342.775 379.162 342.775 381.667 363.742 369.562 363.742 367.057 363.742 367.057"/></clipPath><clipPath id="clip-path-174"><polygon class="cls-1" points="363.742 370.567 342.775 382.672 342.775 385.178 363.742 373.073 363.742 370.567 363.742 370.567"/></clipPath><clipPath id="clip-path-175"><polygon class="cls-1" points="363.742 374.078 342.775 386.183 342.775 388.688 363.742 376.583 363.742 374.078 363.742 374.078"/></clipPath><clipPath id="clip-path-176"><polygon class="cls-1" points="363.742 377.588 342.775 389.693 342.775 392.198 363.742 380.094 363.742 377.588 363.742 377.588"/></clipPath><clipPath id="clip-path-177"><polygon class="cls-1" points="363.742 381.099 342.775 393.203 342.775 395.709 363.742 383.604 363.742 381.099 363.742 381.099"/></clipPath><clipPath id="clip-path-178"><polygon class="cls-1" points="363.742 384.609 342.775 396.714 342.775 399.219 363.742 387.114 363.742 384.609 363.742 384.609"/></clipPath><clipPath id="clip-path-179"><polygon class="cls-1" points="363.742 388.119 342.775 400.224 342.775 402.73 363.742 390.625 363.742 388.119 363.742 388.119"/></clipPath><clipPath id="clip-path-180"><polygon class="cls-1" points="363.742 391.63 342.775 403.735 342.775 406.24 363.742 394.135 363.742 391.63 363.742 391.63"/></clipPath><clipPath id="clip-path-181"><polygon class="cls-1" points="363.742 395.14 342.775 407.245 342.775 409.751 363.742 397.646 363.742 395.14 363.742 395.14"/></clipPath><clipPath id="clip-path-182"><polygon class="cls-1" points="363.742 398.651 342.775 410.756 342.775 413.261 363.742 401.156 363.742 398.651 363.742 398.651"/></clipPath><clipPath id="clip-path-183"><polygon class="cls-1" points="363.742 402.161 342.775 414.266 342.775 416.772 363.742 404.667 363.742 402.161 363.742 402.161"/></clipPath><clipPath id="clip-path-184"><polygon class="cls-1" points="363.742 405.672 342.775 417.777 342.775 420.282 363.742 408.177 363.742 405.672 363.742 405.672"/></clipPath><clipPath id="clip-path-185"><polygon class="cls-1" points="363.742 409.182 342.775 421.287 342.775 423.793 363.742 411.688 363.742 409.182 363.742 409.182"/></clipPath><clipPath id="clip-path-186"><polygon class="cls-1" points="363.742 412.693 342.775 424.798 342.775 427.303 363.742 415.198 363.742 412.693 363.742 412.693"/></clipPath><clipPath id="clip-path-187"><polygon class="cls-1" points="363.742 416.203 342.775 428.308 342.775 430.813 363.742 418.709 363.742 416.203 363.742 416.203"/></clipPath><clipPath id="clip-path-188"><polygon class="cls-1" points="363.742 419.714 342.775 431.818 342.775 434.324 363.742 422.219 363.742 419.714 363.742 419.714"/></clipPath><clipPath id="clip-path-189"><polygon class="cls-1" points="363.742 423.224 342.775 435.329 342.775 437.834 363.742 425.729 363.742 423.224 363.742 423.224"/></clipPath><clipPath id="clip-path-190"><polygon class="cls-1" points="363.742 426.734 342.775 438.839 342.775 441.345 363.742 429.24 363.742 426.734 363.742 426.734"/></clipPath><clipPath id="clip-path-191"><path class="cls-1" d="M102.565,490.624a4.835,4.835,0,0,0-2.018-3.855l-13.3-7.682c-1.114-.642-2.018.041-2.018,1.526v9.565a4.834,4.834,0,0,0,2.018,3.855l13.3,7.682c1.114.643,2.018-.04,2.018-1.525v-9.566Z"/></clipPath><clipPath id="clip-path-193"><polygon class="cls-1" points="76.255 550.303 67.191 550.193 67.191 553.3 101.395 573.048 110.459 567.815 110.459 564.707 76.255 550.303 76.255 550.303"/></clipPath></defs><polygon class="cls-35" points="274.216 374.833 3.063 526.071 3.063 531.383 121.912 600 393.064 443.45 393.064 438.138 274.216 374.833 274.216 374.833"/><g class="cls-36"><polygon class="cls-37" points="121.763 590.106 -1.938 518.687 -1.938 538.528 121.763 609.947 121.763 590.106 121.763 590.106"/></g><polygon class="cls-38" points="274.216 369.521 3.063 526.071 121.912 594.688 393.064 438.138 274.216 369.521 274.216 369.521"/><polygon class="cls-39" points="276.866 373.982 22.056 521.096 130.03 583.436 384.841 436.321 276.866 373.982 276.866 373.982"/><polygon class="cls-40" points="75.368 546.089 63.402 552.997 103.02 575.871 114.986 568.962 75.368 546.089 75.368 546.089"/><polygon class="cls-41" points="231.408 518.33 226.609 515.559 226.609 519.143 231.408 521.914 231.408 518.33 231.408 518.33"/><polygon class="cls-41" points="320.491 466.898 315.692 464.127 315.692 467.71 320.491 470.481 320.491 466.898 320.491 466.898"/><polygon class="cls-42" points="275.385 264.389 25.947 408.401 25.947 519.022 131.19 579.784 380.628 325.151 275.385 264.389 275.385 264.389"/><g class="cls-43"><path class="cls-44" d="M41.977,422.24s141.91-16.447,220.853-48.4,97.27-29.6,97.27-29.6L135.957,474.869,41.977,422.24Z"/><polygon class="cls-45" points="375.864 322.449 122.172 468.918 127.059 471.739 380.751 325.27 375.864 322.449 375.864 322.449"/><path class="cls-46" d="M19.96,414.294s101.412-61.477,192.314-77.241,169.72-22.068,169.72-22.068l-54.647-49.918L186.527,303.95,20.282,396.257l-.322,18.037Z"/><path class="cls-47" d="M42.3,403.963l-6.5,3.752L131.99,463.25l6.5-3.752L42.3,403.963Zm13.652-7.882-6.5,3.753,96.189,55.534,6.5-3.752L55.953,396.081ZM69.6,388.2l-6.5,3.752,96.188,55.534,6.5-3.752L69.6,388.2Zm13.652-7.882-6.5,3.752L172.945,439.6l6.5-3.752L83.256,380.318Zm13.652-7.882-6.5,3.752L186.6,431.723l6.5-3.753L96.908,372.436Zm13.651-7.882-6.5,3.752,96.188,55.535,6.5-3.752-96.189-55.535Zm13.652-7.882-6.5,3.753L213.9,415.959l6.5-3.752-96.188-55.535Zm13.652-7.881-6.5,3.752,96.188,55.534,6.5-3.752-96.188-55.534Zm13.651-7.882-6.5,3.752L241.2,400.2l6.5-3.752-96.189-55.534Zm13.652-7.882-6.5,3.752,96.188,55.535,6.5-3.753-96.188-55.534Zm13.652-7.882-6.5,3.752,96.188,55.535,6.5-3.752-96.188-55.535Zm13.651-7.882-6.5,3.753,96.189,55.534,6.5-3.752-96.189-55.535Zm13.652-7.881-6.5,3.752,96.188,55.534,6.5-3.752-96.188-55.534Zm13.652-7.882-6.5,3.752,96.188,55.534,6.5-3.752L219.773,301.5Zm13.651-7.882-6.5,3.752,96.189,55.535,6.5-3.753-96.189-55.534Zm13.652-7.882-6.5,3.752,96.188,55.535,6.5-3.752-96.188-55.535Zm13.652-7.882-6.5,3.753,96.188,55.534,6.5-3.752-96.188-55.535Zm13.651-7.881-6.5,3.752,96.189,55.534,6.5-3.752-96.189-55.534Z"/></g><g class="cls-43"><path class="cls-48" d="M139.916,459.509,42.338,403.173v3.392L139.916,462.9v-3.392Zm13.627-7.867L55.965,395.305V398.7l97.578,56.337v-3.392Zm13.589-7.846L69.554,387.46v3.392l97.578,56.336V443.8Zm13.743-7.935L83.3,379.525v3.392l97.577,56.336v-3.392Zm13.574-7.836L96.871,371.688v3.392l97.578,56.337v-3.392Zm13.711-7.916-97.578-56.337v3.392L208.16,423.5v-3.392Zm13.674-7.895-97.578-56.337v3.392l97.578,56.337v-3.392Zm13.6-7.85-97.577-56.337v3.393l97.577,56.336v-3.392Zm13.688-7.9L151.54,340.125v3.392l97.578,56.337v-3.393Zm13.649-7.88-97.578-56.336v3.392l97.578,56.337v-3.393Zm13.635-7.872-97.577-56.337v3.393L276.4,384.1v-3.392Zm13.635-7.872L192.46,316.5v3.392l97.577,56.337v-3.392Zm13.632-7.871L206.091,308.63v3.392l97.578,56.337v-3.393Zm13.705-7.912L219.8,300.717v3.392l97.577,56.337v-3.392Zm13.616-7.861-97.578-56.337v3.392l97.578,56.337v-3.392Zm13.684-7.9L247.1,284.956v3.392l97.578,56.336v-3.392Zm13.64-7.875-97.578-56.336v3.392l97.578,56.336v-3.392Zm13.426-7.751-97.578-56.337v3.392l97.578,56.337v-3.392Z"/><path class="cls-49" d="M42.3,406.552,35.8,410.3l96.188,55.534,6.5-3.752L42.3,406.552Zm13.652-7.882-6.5,3.752,96.189,55.535,6.5-3.753L55.953,398.67ZM69.6,390.788l-6.5,3.752,96.188,55.535,6.5-3.753L69.6,390.788Zm13.652-7.882-6.5,3.753,96.188,55.534,6.5-3.752L83.256,382.906Zm13.652-7.882-6.5,3.753L186.6,434.311l6.5-3.752L96.908,375.024Zm13.651-7.881-6.5,3.752,96.188,55.534,6.5-3.752-96.189-55.534Zm13.652-7.882-6.5,3.752L213.9,418.548l6.5-3.753-96.188-55.534Zm13.652-7.882-6.5,3.752,96.188,55.535,6.5-3.753-96.188-55.534Zm13.651-7.882-6.5,3.753L241.2,402.784l6.5-3.752L151.514,343.5Zm13.652-7.881-6.5,3.752L254.855,394.9l6.5-3.752-96.188-55.534Zm13.652-7.882-6.5,3.752,96.188,55.534,6.5-3.752-96.188-55.534Zm13.651-7.882-6.5,3.752,96.189,55.535,6.5-3.753-96.189-55.534Zm13.652-7.882-6.5,3.752,96.188,55.535,6.5-3.753L206.121,311.97Zm13.652-7.882-6.5,3.753,96.188,55.534,6.5-3.752-96.188-55.535Zm13.651-7.882-6.5,3.753,96.189,55.534,6.5-3.752-96.189-55.535Zm13.652-7.881-6.5,3.752,96.188,55.534,6.5-3.752-96.188-55.534Zm13.652-7.882-6.5,3.752,96.188,55.535,6.5-3.753-96.188-55.534Zm13.651-7.882-6.5,3.752,96.189,55.535,6.5-3.752-96.189-55.535Z"/></g><g class="cls-43"><polygon class="cls-50" points="134.559 471.092 13.99 401.482 13.99 522.292 134.559 591.903 134.559 471.092 134.559 471.092"/></g><g class="cls-43"><polygon class="cls-51" points="51.297 428.434 48.67 426.918 48.67 529.579 51.297 531.096 51.297 428.434 51.297 428.434"/><polygon class="cls-51" points="74.275 441.701 71.647 440.184 71.647 542.845 74.275 544.362 74.275 441.701 74.275 441.701"/><path class="cls-52" d="M26.485,411.938c15.2,13.472,13.559,33.213,27.755,53.1,21.907,30.691,63.079,51.039,78.122,114.192l8.67-134.714L26.485,411.938Z"/><polygon class="cls-53" points="130.554 547.148 26.458 487.048 26.458 491.723 130.554 551.823 130.554 547.148 130.554 547.148"/></g><g class="cls-43"><polygon class="cls-54" points="51.297 428.434 48.67 426.918 48.67 529.579 51.297 531.096 51.297 428.434 51.297 428.434"/><path class="cls-54" d="M48.819,502.189a.806.806,0,0,0-.336-.643l-13.774-7.952c-.185-.107-.336.007-.336.254v.9a.807.807,0,0,0,.336.643l13.774,7.952c.186.108.336-.006.336-.254v-.9Z"/><path class="cls-54" d="M70.846,514.907a.808.808,0,0,0-.336-.644l-13.774-7.952c-.185-.107-.336.007-.336.255v.9a.811.811,0,0,0,.336.644l13.774,7.952c.186.107.336-.007.336-.255v-.9Z"/><polygon class="cls-54" points="74.275 441.701 71.647 440.184 71.647 542.845 74.275 544.362 74.275 441.701 74.275 441.701"/></g><g class="cls-43"><path class="cls-55" d="M114.509,465.976l-1.206-.7V566.785l1.206.7v-101.5Zm-34.287-19.8-1.207-.7V546.989l1.207.7V446.18Z"/></g><g class="cls-43"><path class="cls-45" d="M115.2,465.58l-1.206-.7V566.389l1.206.7V465.58Zm-34.287-19.8-1.206-.7v101.5l1.206.7v-101.5Z"/></g><g class="cls-43"><path class="cls-56" d="M133.824,575.132,25.687,512.7a.359.359,0,0,0-.359.622l108.137,62.433a.359.359,0,0,0,.359-.622Z"/><polygon class="cls-57" points="131.19 574.44 25.947 513.678 25.947 519.022 131.19 579.784 131.19 574.44 131.19 574.44"/><polygon class="cls-45" points="134.004 465.355 126.353 460.938 126.353 573.042 134.004 577.46 134.004 465.355 134.004 465.355"/><polygon class="cls-45" points="30.31 405.487 22.659 401.07 22.659 513.175 30.31 517.592 30.31 405.487 30.31 405.487"/></g><g class="cls-43"><path class="cls-58" d="M138.082,466.734,30.433,404.583a.311.311,0,0,0-.311.539l107.649,62.151a.311.311,0,1,0,.311-.539Z"/><path class="cls-58" d="M377.022,328.782,269.374,266.631a.311.311,0,1,0-.311.538L376.712,329.32a.31.31,0,1,0,.31-.538Z"/><path class="cls-56" d="M133.824,475.645,25.687,413.213a.359.359,0,0,0-.359.622l108.137,62.432a.359.359,0,0,0,.359-.622Z"/><polygon class="cls-45" points="275.342 264.413 21.65 410.882 26.537 413.703 280.229 267.234 275.342 264.413 275.342 264.413"/></g><g class="cls-43"><path class="cls-59" d="M19.96,414.294s101.412-61.477,192.314-77.241,169.72-22.068,169.72-22.068l-54.647-49.918L186.527,303.95,20.282,396.257l-.322,18.037Z"/></g><path class="cls-60" d="M109.6,482.915a3.639,3.639,0,0,0-1.8-3.165L82.619,465.211a1.219,1.219,0,0,0-1.244.018,1.307,1.307,0,0,0-.621,1.114v75.536A2.519,2.519,0,0,0,82,544.069L107.343,558.7a1.47,1.47,0,0,0,1.5-.023,1.576,1.576,0,0,0,.752-1.346V482.915Z"/><path class="cls-61" d="M109.01,483.2a3.594,3.594,0,0,0-1.8-3.112L82.031,465.55a1.244,1.244,0,0,0-1.865,1.077V540.26a2.487,2.487,0,0,0,1.243,2.153l25.346,14.634a1.5,1.5,0,0,0,2.255-1.3V483.2Z"/><path class="cls-62" d="M108.42,483.541a3.593,3.593,0,0,0-1.8-3.111L81.441,465.891a1.244,1.244,0,0,0-1.865,1.077V540.6a2.487,2.487,0,0,0,1.243,2.153l25.346,14.633a1.5,1.5,0,0,0,2.255-1.3V483.541Z"/><g class="cls-63"><path class="cls-64" d="M78.042,471.03A214.055,214.055,0,0,1,94,519.634C99.67,547.745,109.01,564.3,109.01,564.3l5.031-87.54L79.576,460.745,78.042,471.03Z"/></g><path class="cls-58" d="M78.048,485.981h-.006v-3.5h2.222v3.5h-.006a.519.519,0,0,1-.319.52,1.741,1.741,0,0,1-1.572,0,.519.519,0,0,1-.319-.52Z"/><g class="cls-65"><polygon class="cls-66" points="80.896 476.938 79.898 476.938 79.898 486.893 80.896 486.893 80.896 476.938 80.896 476.938"/></g><path class="cls-66" d="M78.367,481.976a1.735,1.735,0,0,1,1.572,0,.479.479,0,0,1,0,.907,1.741,1.741,0,0,1-1.572,0,.479.479,0,0,1,0-.907Z"/><path class="cls-58" d="M78.048,482.085h-.006v-3.5h2.222v3.5h-.006a.519.519,0,0,1-.319.519,1.741,1.741,0,0,1-1.572,0,.519.519,0,0,1-.319-.519Z"/><g class="cls-67"><polygon class="cls-66" points="80.896 476.938 79.898 476.938 79.898 486.893 80.896 486.893 80.896 476.938 80.896 476.938"/></g><path class="cls-68" d="M78.367,478.079a1.735,1.735,0,0,1,1.572,0,.479.479,0,0,1,0,.907,1.741,1.741,0,0,1-1.572,0,.479.479,0,0,1,0-.907Z"/><path class="cls-58" d="M78.048,529.818h-.006v-3.5h2.222v3.5h-.006a.519.519,0,0,1-.319.519,1.735,1.735,0,0,1-1.572,0,.519.519,0,0,1-.319-.519Z"/><g class="cls-69"><polygon class="cls-66" points="80.896 520.774 79.898 520.774 79.898 530.729 80.896 530.729 80.896 520.774 80.896 520.774"/></g><path class="cls-66" d="M78.367,525.812a1.741,1.741,0,0,1,1.572,0,.479.479,0,0,1,0,.907,1.735,1.735,0,0,1-1.572,0,.479.479,0,0,1,0-.907Z"/><path class="cls-58" d="M78.048,525.921h-.006v-3.5h2.222v3.5h-.006a.519.519,0,0,1-.319.519,1.735,1.735,0,0,1-1.572,0,.519.519,0,0,1-.319-.519Z"/><g class="cls-70"><polygon class="cls-66" points="80.896 520.774 79.898 520.774 79.898 530.729 80.896 530.729 80.896 520.774 80.896 520.774"/></g><path class="cls-68" d="M78.367,521.915a1.741,1.741,0,0,1,1.572,0,.479.479,0,0,1,0,.907,1.735,1.735,0,0,1-1.572,0,.479.479,0,0,1,0-.907Z"/><path class="cls-71" d="M96.336,502.1a.277.277,0,0,1,.108-.221.2.2,0,0,1,.217-.016l4.156,2.4a.426.426,0,0,1,.2.375v6.784a.231.231,0,0,1-.091.185.163.163,0,0,1-.18.013l-4.121-2.379a.617.617,0,0,1-.288-.543v-6.6Z"/><path class="cls-72" d="M98.937,504.157c.282.817.791,2.284,1.1,3.169a.429.429,0,0,1-.62.512l-1.876-1.083a.794.794,0,0,1-.291-1.084c.27-.467.65-1.126.917-1.587a.427.427,0,0,1,.773.073Zm-.263.091a.148.148,0,0,0-.127-.1.146.146,0,0,0-.142.074c-.267.461-.647,1.12-.917,1.587a.516.516,0,0,0,.189.7l1.876,1.083a.151.151,0,0,0,.218-.18c-.306-.885-.814-2.352-1.1-3.169Z"/><polygon class="cls-72" points="99.128 507.067 98.758 505.293 98.393 505.554 97.95 503.745 98.027 506.163 98.529 505.859 99.128 507.067 99.128 507.067"/><polygon class="cls-72" points="96.875 506.819 100.164 508.718 100.164 509.768 96.875 507.87 96.875 506.819 96.875 506.819"/><polygon class="cls-73" points="97.213 508.308 99.825 509.816 99.825 510.387 97.213 508.88 97.213 508.308 97.213 508.308"/><polygon class="cls-74" points="102.334 507.158 106.307 509.452 106.307 514.097 102.334 511.803 102.334 507.158 102.334 507.158"/><polygon class="cls-75" points="102.836 508.744 104.841 509.902 104.841 510.471 102.836 509.314 102.836 508.744 102.836 508.744"/><polygon class="cls-75" points="102.836 510.209 104.218 511.007 104.218 511.413 102.836 510.615 102.836 510.209 102.836 510.209"/><polygon class="cls-75" points="102.836 509.518 105.415 511.007 105.415 511.413 102.836 509.924 102.836 509.518 102.836 509.518"/><polygon class="cls-75" points="102.836 510.841 105.415 512.33 105.415 512.737 102.836 511.248 102.836 510.841 102.836 510.841"/><path class="cls-76" d="M101.505,514.756c0-.942.573-1.376,1.28-.968l2.9,1.672a3.069,3.069,0,0,1,1.281,2.447v3.416c0,.943-.574,1.377-1.281.968l-2.9-1.671a3.07,3.07,0,0,1-1.28-2.448v-3.416Z"/><path class="cls-77" d="M101.261,514.9c0-.943.574-1.377,1.281-.968l2.9,1.671a3.07,3.07,0,0,1,1.281,2.448v3.415c0,.943-.574,1.377-1.281.969l-2.9-1.672a3.069,3.069,0,0,1-1.281-2.447V514.9Z"/><path class="cls-78" d="M103.968,515.631c-1.284-.741-2.326-.139-2.326,1.343A5.143,5.143,0,0,0,103.968,521c1.283.741,2.326.139,2.326-1.343a5.147,5.147,0,0,0-2.326-4.029Z"/><g class="cls-79"><path class="cls-41" d="M104.508,515.319c-1.283-.741-2.326-.139-2.326,1.343a5.147,5.147,0,0,0,2.326,4.029c1.284.741,2.326.139,2.326-1.343a5.143,5.143,0,0,0-2.326-4.029Z"/><path class="cls-66" d="M103.085,516.624c-.367-.211-.665-.039-.665.384a1.468,1.468,0,0,0,.665,1.151c.366.212.664.04.664-.383a1.473,1.473,0,0,0-.664-1.152Z"/><path class="cls-80" d="M102.994,516.849c-.3-.175-.551-.033-.551.319a1.221,1.221,0,0,0,.551.955c.305.175.552.033.552-.319a1.219,1.219,0,0,0-.552-.955Z"/></g><g class="cls-79"><path class="cls-81" d="M102.855,517.075c0-.028.017-.041.037-.029l.076.044a.089.089,0,0,1,.037.072v.795c0,.028-.016.04-.037.028l-.076-.043a.092.092,0,0,1-.037-.072v-.795Z"/></g><g class="cls-79"><polygon class="cls-82" points="105.18 516.046 106.373 516.735 105.543 517.214 104.349 516.525 105.18 516.046 105.18 516.046"/><path class="cls-83" d="M104.167,516.984c0-.431.262-.629.585-.443l1.17.676a1.4,1.4,0,0,1,.585,1.117V521.1c0,.431-.262.629-.585.443l-1.17-.676a1.4,1.4,0,0,1-.585-1.117v-2.769Z"/></g><path class="cls-84" d="M117.309,492.726a2.388,2.388,0,0,1,1.081,1.872c0,.688-.484.968-1.081.624a2.392,2.392,0,0,1-1.08-1.872c0-.689.484-.968,1.08-.624Z"/><polygon class="cls-72" points="122.54 495.91 118.66 493.67 118.66 494.548 122.54 496.789 122.54 495.91 122.54 495.91"/><polygon class="cls-72" points="121.19 496.254 118.66 494.793 118.66 495.672 121.19 497.133 121.19 496.254 121.19 496.254"/><path class="cls-71" d="M121.429,498.866a.561.561,0,0,0-.281-.487l-4.536-2.619a.255.255,0,0,0-.383.221v9.885a.591.591,0,0,0,.3.512l4.435,2.56a.314.314,0,0,0,.47-.271v-9.8Z"/><polygon class="cls-85" points="119.461 498.109 117.961 497.243 117.961 497.84 119.461 498.706 119.461 498.109 119.461 498.109"/><polygon class="cls-85" points="119.571 498.894 117.851 497.901 117.851 498.101 119.571 499.094 119.571 498.894 119.571 498.894"/><polygon class="cls-85" points="119.208 498.988 118.214 498.414 118.214 498.615 119.208 499.189 119.208 498.988 119.208 498.988"/><polygon class="cls-85" points="117.851 499.107 116.577 498.372 116.577 498.572 117.851 499.308 117.851 499.107 117.851 499.107"/><polygon class="cls-85" points="118.129 499.554 116.577 498.659 116.577 498.859 118.129 499.755 118.129 499.554 118.129 499.554"/><polygon class="cls-85" points="117.666 499.6 116.577 498.971 116.577 499.171 117.666 499.8 117.666 499.6 117.666 499.6"/><polygon class="cls-85" points="119.303 500.545 118.214 499.916 118.214 500.116 119.303 500.745 119.303 500.545 119.303 500.545"/><polygon class="cls-85" points="118.786 499.934 118.214 499.604 118.214 499.804 118.786 500.135 118.786 499.934 118.786 499.934"/><polygon class="cls-85" points="118.129 499.866 117.727 499.634 117.727 499.835 118.129 500.067 118.129 499.866 118.129 499.866"/><polygon class="cls-85" points="117.851 500.562 116.577 499.826 116.577 500.026 117.851 500.762 117.851 500.562 117.851 500.562"/><polygon class="cls-85" points="118.129 501.008 116.577 500.113 116.577 500.313 118.129 501.209 118.129 501.008 118.129 501.008"/><polygon class="cls-85" points="117.666 501.054 116.577 500.425 116.577 500.625 117.666 501.254 117.666 501.054 117.666 501.054"/><polygon class="cls-85" points="119.87 502.326 118.214 501.37 118.214 501.57 119.87 502.526 119.87 502.326 119.87 502.326"/><polygon class="cls-85" points="118.786 501.388 118.214 501.058 118.214 501.258 118.786 501.589 118.786 501.388 118.786 501.388"/><polygon class="cls-85" points="118.129 501.321 117.727 501.088 117.727 501.289 118.129 501.521 118.129 501.321 118.129 501.321"/><polygon class="cls-85" points="117.851 502.016 116.577 501.28 116.577 501.481 117.851 502.216 117.851 502.016 117.851 502.016"/><polygon class="cls-85" points="119.291 503.134 116.577 501.567 116.577 501.767 119.291 503.334 119.291 503.134 119.291 503.134"/><polygon class="cls-85" points="117.666 502.508 116.577 501.879 116.577 502.08 117.666 502.708 117.666 502.508 117.666 502.508"/><polygon class="cls-85" points="119.303 503.453 118.214 502.824 118.214 503.024 119.303 503.653 119.303 503.453 119.303 503.453"/><polygon class="cls-85" points="120.442 503.798 119.441 503.22 119.441 503.42 120.442 503.999 120.442 503.798 120.442 503.798"/><polygon class="cls-85" points="118.129 502.775 117.727 502.543 117.727 502.743 118.129 502.975 118.129 502.775 118.129 502.775"/><polygon class="cls-85" points="117.851 503.47 116.577 502.734 116.577 502.935 117.851 503.67 117.851 503.47 117.851 503.47"/><polygon class="cls-85" points="118.718 504.257 116.577 503.021 116.577 503.222 118.718 504.457 118.718 504.257 118.718 504.257"/><polygon class="cls-85" points="117.666 503.962 116.577 503.333 116.577 503.534 117.666 504.162 117.666 503.962 117.666 503.962"/><polygon class="cls-85" points="120.006 505.313 118.214 504.278 118.214 504.479 120.006 505.513 120.006 505.313 120.006 505.313"/><polygon class="cls-85" points="120.986 505.566 119.843 504.907 119.843 505.107 120.986 505.767 120.986 505.566 120.986 505.566"/><polygon class="cls-85" points="119.712 504.831 118.799 504.304 118.799 504.504 119.712 505.032 119.712 504.831 119.712 504.831"/><polygon class="cls-85" points="118.129 504.229 117.727 503.997 117.727 504.197 118.129 504.429 118.129 504.229 118.129 504.229"/><polygon class="cls-85" points="117.851 505.253 116.577 504.518 116.577 504.718 117.851 505.453 117.851 505.253 117.851 505.253"/><polygon class="cls-85" points="118.129 505.7 116.577 504.805 116.577 505.005 118.129 505.9 118.129 505.7 118.129 505.7"/><polygon class="cls-85" points="117.666 505.745 116.577 505.117 116.577 505.317 117.666 505.946 117.666 505.745 117.666 505.745"/><polygon class="cls-85" points="119.303 506.69 118.214 506.061 118.214 506.262 119.303 506.891 119.303 506.69 119.303 506.69"/><polygon class="cls-85" points="119.329 506.393 118.214 505.749 118.214 505.95 119.329 506.593 119.329 506.393 119.329 506.393"/><polygon class="cls-85" points="119.843 506.69 119.448 506.462 119.448 506.662 119.843 506.89 119.843 506.69 119.843 506.69"/><polygon class="cls-85" points="118.129 506.012 117.727 505.78 117.727 505.98 118.129 506.212 118.129 506.012 118.129 506.012"/><polygon class="cls-86" points="137.243 460.217 131.19 463.712 131.19 469.163 137.243 465.669 137.243 460.217 137.243 460.217"/><path class="cls-87" d="M134.494,462.88c.788-.455,1.429-.086,1.429.825a3.164,3.164,0,0,1-1.429,2.476c-.789.455-1.43.085-1.43-.825a3.163,3.163,0,0,1,1.43-2.476Z"/><g class="cls-88"><path class="cls-89" d="M134.091,462.648c.789-.455,1.429-.086,1.429.825a3.158,3.158,0,0,1-1.429,2.475c-.788.456-1.429.086-1.429-.825a3.163,3.163,0,0,1,1.429-2.475Z"/></g><polygon class="cls-46" points="32.017 399.464 25.947 402.969 131.174 463.721 137.243 460.217 32.017 399.464 32.017 399.464"/><g class="cls-90"><path class="cls-91" d="M31.883,412.381V406.5l6.639-3.834a.129.129,0,0,0,.048-.177.131.131,0,0,0-.178-.048l-6.7,3.871a.13.13,0,0,0-.065.113v5.955a.13.13,0,1,0,.26,0Z"/><path class="cls-91" d="M123.723,465.406v-5.881l6.64-3.833a.13.13,0,0,0-.13-.226l-6.7,3.871a.13.13,0,0,0-.065.113v5.956a.13.13,0,0,0,.26,0Z"/><path class="cls-92" d="M129.21,458.72a3.61,3.61,0,0,1,3.267,0,1,1,0,0,1,0,1.886,3.61,3.61,0,0,1-3.267,0,1,1,0,0,1,0-1.886Z"/></g><g class="cls-90"><path class="cls-89" d="M129.21,459.416a3.61,3.61,0,0,1,3.267,0,1,1,0,0,1,0,1.886,3.616,3.616,0,0,1-3.267,0,1,1,0,0,1,0-1.886Z"/></g><g class="cls-90"><path class="cls-92" d="M30.075,401.484a3.616,3.616,0,0,1,3.267,0,1,1,0,0,1,0,1.887,3.616,3.616,0,0,1-3.267,0,1,1,0,0,1,0-1.887Z"/></g><g class="cls-90"><path class="cls-89" d="M30.075,402.18a3.61,3.61,0,0,1,3.267,0,1,1,0,0,1,0,1.886,3.61,3.61,0,0,1-3.267,0,1,1,0,0,1,0-1.886Z"/></g><polygon class="cls-93" points="131.19 463.731 25.947 402.969 25.947 408.401 131.19 469.163 131.19 463.731 131.19 463.731"/><g class="cls-94"><path class="cls-91" d="M123.723,465.406v-5.881l6.64-3.833a.13.13,0,0,0-.13-.226l-6.7,3.871a.13.13,0,0,0-.065.113v5.956a.13.13,0,0,0,.26,0Z"/><path class="cls-91" d="M31.883,412.381V406.5l6.639-3.834a.129.129,0,0,0,.048-.177.131.131,0,0,0-.178-.048l-6.7,3.871a.13.13,0,0,0-.065.113v5.955a.13.13,0,1,0,.26,0Z"/><path class="cls-87" d="M127,462.538a3.229,3.229,0,0,1,1.459,2.528c0,.93-.654,1.308-1.459.843a3.228,3.228,0,0,1-1.46-2.529c0-.93.654-1.308,1.46-.842Z"/></g><g class="cls-94"><path class="cls-89" d="M127.405,462.3a3.228,3.228,0,0,1,1.46,2.529c0,.93-.654,1.308-1.46.842a3.227,3.227,0,0,1-1.46-2.528c0-.93.654-1.308,1.46-.843Z"/></g><g class="cls-94"><path class="cls-87" d="M28.649,405.755a3.227,3.227,0,0,1,1.46,2.528c0,.93-.654,1.308-1.46.843A3.229,3.229,0,0,1,27.19,406.6c0-.93.654-1.308,1.459-.842Z"/></g><g class="cls-94"><path class="cls-89" d="M29.054,405.521a3.23,3.23,0,0,1,1.46,2.529c0,.93-.655,1.308-1.46.842a3.227,3.227,0,0,1-1.46-2.528c0-.93.654-1.308,1.46-.843Z"/></g><polygon class="cls-86" points="381.321 319.299 375.268 322.793 375.268 328.245 381.321 324.75 381.321 319.299 381.321 319.299"/><path class="cls-87" d="M378.572,321.962c.788-.456,1.429-.086,1.429.825a3.161,3.161,0,0,1-1.429,2.475c-.789.456-1.43.086-1.43-.825a3.159,3.159,0,0,1,1.43-2.475Z"/><g class="cls-95"><path class="cls-89" d="M378.169,321.729c.789-.455,1.429-.085,1.429.826a3.16,3.16,0,0,1-1.429,2.475c-.788.455-1.429.086-1.429-.825a3.164,3.164,0,0,1,1.429-2.476Z"/></g><polygon class="cls-46" points="276.094 258.546 270.025 262.05 375.252 322.803 381.321 319.299 276.094 258.546 276.094 258.546"/><g class="cls-96"><path class="cls-42" d="M267.624,260.664c31.229,11.838,72.233,35.821,114.419,61.273l2.895-3.916L275.282,254.509l-7.658,6.155Z"/><path class="cls-91" d="M275.961,271.463v-5.881l6.639-3.833a.13.13,0,1,0-.13-.225l-6.7,3.87a.133.133,0,0,0-.065.113v5.956a.13.13,0,1,0,.26,0Z"/><path class="cls-91" d="M367.8,324.487v-5.881l6.64-3.833a.13.13,0,0,0-.13-.225l-6.7,3.871a.13.13,0,0,0-.065.112v5.956a.13.13,0,0,0,.26,0Z"/><path class="cls-92" d="M373.288,317.8a3.61,3.61,0,0,1,3.267,0,1,1,0,0,1,0,1.886,3.616,3.616,0,0,1-3.267,0,1,1,0,0,1,0-1.886Z"/></g><g class="cls-96"><path class="cls-89" d="M373.288,318.5a3.616,3.616,0,0,1,3.267,0,1,1,0,0,1,0,1.886,3.61,3.61,0,0,1-3.267,0,1,1,0,0,1,0-1.886Z"/></g><g class="cls-96"><path class="cls-92" d="M274.153,260.566a3.61,3.61,0,0,1,3.267,0,1,1,0,0,1,0,1.886,3.61,3.61,0,0,1-3.267,0,1,1,0,0,1,0-1.886Z"/></g><g class="cls-96"><path class="cls-89" d="M274.153,261.261a3.616,3.616,0,0,1,3.267,0,1,1,0,0,1,0,1.887,3.616,3.616,0,0,1-3.267,0,1,1,0,0,1,0-1.887Z"/></g><polygon class="cls-93" points="375.268 322.812 270.025 262.05 270.025 267.483 375.268 328.245 375.268 322.812 375.268 322.812"/><g class="cls-97"><path class="cls-91" d="M367.8,324.487v-5.881l6.64-3.833a.13.13,0,0,0-.13-.225l-6.7,3.871a.13.13,0,0,0-.065.112v5.956a.13.13,0,0,0,.26,0Z"/><path class="cls-91" d="M275.961,271.463v-5.881l6.639-3.833a.13.13,0,1,0-.13-.225l-6.7,3.87a.133.133,0,0,0-.065.113v5.956a.13.13,0,1,0,.26,0Z"/><path class="cls-87" d="M371.079,321.619a3.229,3.229,0,0,1,1.459,2.529c0,.93-.654,1.308-1.459.842a3.227,3.227,0,0,1-1.46-2.528c0-.93.654-1.308,1.46-.843Z"/></g><g class="cls-97"><path class="cls-89" d="M371.483,321.386a3.227,3.227,0,0,1,1.46,2.528c0,.93-.654,1.308-1.46.843a3.228,3.228,0,0,1-1.46-2.529c0-.93.654-1.307,1.46-.842Z"/></g><g class="cls-97"><path class="cls-87" d="M272.727,264.836a3.228,3.228,0,0,1,1.46,2.529c0,.93-.654,1.308-1.46.842a3.229,3.229,0,0,1-1.459-2.528c0-.93.654-1.308,1.459-.843Z"/></g><g class="cls-97"><path class="cls-89" d="M273.132,264.6a3.23,3.23,0,0,1,1.46,2.528c0,.93-.655,1.308-1.46.843a3.228,3.228,0,0,1-1.46-2.529c0-.93.654-1.308,1.46-.842Z"/></g><polygon class="cls-57" points="212.695 532.728 212.695 529.144 231.408 518.34 231.408 521.924 301.777 481.296 301.777 477.712 320.49 466.908 320.49 470.492 380.628 435.771 380.628 325.151 131.19 469.163 131.19 579.784 212.695 532.728 212.695 532.728"/><g class="cls-98"><path class="cls-99" d="M132.362,579.23c58.775-43.189,165.212-112.3,195.34-181.6,14.6-33.594,33.281-40.338,58.281-77.671l3.978,118.024-257.6,141.25Z"/></g><g class="cls-98"><polygon class="cls-100" points="364.718 345.077 339.221 359.798 339.221 447.003 364.718 432.282 364.718 345.077 364.718 345.077"/></g><g class="cls-98"><polygon class="cls-101" points="375.229 334.053 136.589 471.832 136.589 571.061 375.229 433.282 375.229 334.053 375.229 334.053"/></g><g class="cls-98"><polygon class="cls-102" points="183.567 449.665 158.07 464.386 158.07 551.59 183.567 536.869 183.567 449.665 183.567 449.665"/><polygon class="cls-102" points="364.718 345.077 339.221 359.798 339.221 447.003 364.718 432.282 364.718 345.077 364.718 345.077"/><path class="cls-52" d="M132.362,579.23c58.775-43.189,165.212-112.3,195.34-181.6,14.6-33.594,33.281-40.338,58.281-77.671l3.978,118.024-257.6,141.25Z"/></g><g class="cls-98"><polygon class="cls-100" points="364.718 345.077 339.221 359.798 339.221 447.003 364.718 432.282 364.718 345.077 364.718 345.077"/></g><g class="cls-98"><path class="cls-52" d="M132.362,509.473s60-63,113.6-95.733,74.46-51.958,74.46-51.958L131.19,460.788l1.172,48.685Z"/><path class="cls-53" d="M274.973,425.965c-2.051.625-4.3,2.667-5.769,5.485-2.105,4.032-1.834,8.137.605,9.16a3.409,3.409,0,0,0,2.042.142l1.848-6.241-3.377,3.382,4.651-11.928Zm-2.534,14.625a11.054,11.054,0,0,0,5.6-5.433c2.106-4.032,1.835-8.137-.6-9.16a3.382,3.382,0,0,0-1.978-.155l-1.508,5.081,3.386-1.426-4.9,11.093Z"/><path class="cls-61" d="M170.709,451.414l-1.569.905V553.831l1.569-.906V451.414Zm32.977-19.04-1.568.906V534.791l1.568-.905V432.374Zm32.568-18.8-1.569.906V515.988l1.569-.905V413.571Zm30.569-17.649-1.568.9V498.339l1.568-.906V395.922Zm29.61-17.1-1.568.905V481.244l1.568-.906V378.827Zm28.378-16.385-1.568.906V464.86l1.568-.906V362.442ZM351.9,346.805l-1.569.906V449.222l1.569-.9V346.805Z"/></g><g class="cls-98"><path class="cls-103" d="M169.783,450.879l-1.568.906V553.3l1.568-.905V450.879Zm32.978-19.039-1.569.905V534.257l1.569-.906V431.84Zm32.567-18.8-1.568.906V515.454l1.568-.906V413.037Zm30.57-17.65-1.569.906V497.805l1.569-.906V395.387Zm29.61-17.1-1.569.906V480.709l1.569-.905V378.292Zm28.378-16.384-1.569.906V464.325l1.569-.9V361.908Zm27.085-15.637-1.569.9V448.688l1.569-.906V346.271Z"/></g><g class="cls-98"><path class="cls-104" d="M220.858,515.747c.987-.569,1.788-.107,1.788,1.033a3.952,3.952,0,0,1-1.788,3.1c-.987.57-1.788.107-1.788-1.032a3.955,3.955,0,0,1,1.788-3.1Z"/></g><g class="cls-98"><polygon class="cls-105" points="220.986 517.866 218.659 519.21 218.659 521.545 220.986 520.202 220.986 517.866 220.986 517.866"/><polygon class="cls-105" points="223.313 514.186 220.986 515.53 220.986 517.866 223.313 516.522 223.313 514.186 223.313 514.186"/></g><g class="cls-98"><path class="cls-104" d="M309.331,464.667c.987-.569,1.788-.107,1.788,1.032a3.954,3.954,0,0,1-1.788,3.1c-.987.57-1.788.107-1.788-1.032a3.954,3.954,0,0,1,1.788-3.1Z"/></g><g class="cls-98"><polygon class="cls-105" points="309.459 466.786 307.132 468.129 307.132 470.465 309.459 469.122 309.459 466.786 309.459 466.786"/><polygon class="cls-105" points="311.787 463.106 309.459 464.45 309.459 466.786 311.787 465.442 311.787 463.106 311.787 463.106"/></g><g class="cls-98"><path class="cls-106" d="M136.426,465.83v114M375.412,327.851v114"/></g><path class="cls-107" d="M139.054,465.633l1.409,3.1-2.423,1.4v-3.912l1.014-.585Zm2.045-1.181,1.409,3.1,1.906-1.1-1.409-3.1-1.906,1.1Zm3.951-2.281,1.926-1.111v3.911l-.517.3-1.409-3.1Z"/><path class="cls-107" d="M366.058,334.572l1.409,3.1-2.423,1.4v-3.911l1.014-.586Zm2.045-1.181,1.409,3.1,1.906-1.1-1.409-3.1-1.906,1.1Zm3.951-2.281L373.98,330v3.911l-.517.3-1.409-3.1Z"/><path class="cls-107" d="M139.054,570.46l1.409,3.1-2.423,1.4v-3.912l1.014-.585Zm2.045-1.181,1.409,3.1,1.906-1.1-1.409-3.1-1.906,1.1ZM145.05,567l1.926-1.112V569.8l-.517.3L145.05,567Z"/><path class="cls-107" d="M366.058,439.4l1.409,3.1-2.423,1.4v-3.912l1.014-.585Zm2.045-1.181,1.409,3.1,1.906-1.1-1.409-3.1-1.906,1.1Zm3.951-2.281,1.926-1.112v3.912l-.517.3-1.409-3.1Z"/><polygon class="cls-108" points="70.356 530.416 30.115 507.182 30.115 515.365 70.356 538.599 70.356 530.416 70.356 530.416"/><g class="cls-109"><polygon class="cls-45" points="72.326 528.274 32.084 505.04 32.084 513.223 72.326 536.456 72.326 528.274 72.326 528.274"/></g><g class="cls-109"><polygon class="cls-110" points="72.326 528.28 32.084 505.047 32.084 509.767 72.326 533.001 72.326 528.28 72.326 528.28"/></g><g class="cls-109"><polygon class="cls-103" points="32.084 505.66 30.115 506.797 30.115 515.414 32.084 513.2 32.084 505.66 32.084 505.66"/></g><polygon class="cls-108" points="70.356 500.77 30.115 477.536 30.115 485.719 70.356 508.952 70.356 500.77 70.356 500.77"/><g class="cls-111"><polygon class="cls-45" points="72.326 498.628 32.084 475.394 32.084 483.577 72.326 506.81 72.326 498.628 72.326 498.628"/></g><g class="cls-111"><polygon class="cls-110" points="72.326 498.696 32.084 475.463 32.084 480.183 72.326 503.417 72.326 498.696 72.326 498.696"/></g><g class="cls-111"><polygon class="cls-103" points="32.084 476.014 30.115 477.151 30.115 485.768 32.084 483.554 32.084 476.014 32.084 476.014"/></g><polygon class="cls-108" points="70.356 485.711 30.115 462.478 30.115 470.661 70.356 493.894 70.356 485.711 70.356 485.711"/><g class="cls-112"><polygon class="cls-45" points="72.326 483.569 32.084 460.336 32.084 468.519 72.326 491.752 72.326 483.569 72.326 483.569"/></g><g class="cls-112"><polygon class="cls-110" points="72.326 483.654 32.084 460.42 32.084 465.141 72.326 488.374 72.326 483.654 72.326 483.654"/></g><g class="cls-112"><polygon class="cls-103" points="32.084 460.956 30.115 462.093 30.115 470.71 32.084 468.496 32.084 460.956 32.084 460.956"/></g><polygon class="cls-108" points="70.356 470.653 30.115 447.42 30.115 455.602 70.356 478.836 70.356 470.653 70.356 470.653"/><g class="cls-113"><polygon class="cls-45" points="72.326 468.511 32.084 445.277 32.084 453.46 72.326 476.694 72.326 468.511 72.326 468.511"/><polygon class="cls-110" points="72.326 468.511 32.084 445.277 32.084 449.998 72.326 473.231 72.326 468.511 72.326 468.511"/><polygon class="cls-103" points="32.084 445.898 30.115 447.035 30.115 455.652 32.084 453.438 32.084 445.898 32.084 445.898"/></g><polygon class="cls-108" points="70.356 443.328 30.115 420.095 30.115 428.278 70.356 451.511 70.356 443.328 70.356 443.328"/><g class="cls-114"><polygon class="cls-45" points="72.326 441.186 32.084 417.953 32.084 426.135 72.326 449.369 72.326 441.186 72.326 441.186"/></g><g class="cls-114"><polygon class="cls-110" points="72.326 441.835 32.084 418.602 32.084 423.323 72.326 446.556 72.326 441.835 72.326 441.835"/></g><g class="cls-114"><polygon class="cls-103" points="32.084 418.573 30.115 419.71 30.115 428.327 32.084 426.113 32.084 418.573 32.084 418.573"/></g><path class="cls-45" d="M40.369,497.677l-6.136-3.543a.4.4,0,0,0-.6.346V495a.806.806,0,0,0,.4.7l7.609,4.394.622-.056L49.125,504v-1.68l-8.013-4.626-.743-.014Z"/><path class="cls-56" d="M40.229,497.758l-6.137-3.543a.4.4,0,0,0-.6.346v.523a.808.808,0,0,0,.4.7l7.609,4.393.622-.056,6.855,3.958V502.4l-8.013-4.626-.742-.014Z"/><g class="cls-115"><polygon class="cls-103" points="40.313 497.392 41.71 500.646 43.491 501.159 43.389 498.234 41.239 497.484 40.313 497.392 40.313 497.392"/></g><path class="cls-49" d="M48.02,530.189h-.006V522.8h2.221v7.387H50.23a.52.52,0,0,1-.32.52,1.739,1.739,0,0,1-1.571,0,.518.518,0,0,1-.319-.52Z"/><g class="cls-116"><polygon class="cls-66" points="50.867 517.258 49.87 517.258 49.87 531.133 50.867 531.133 50.867 517.258 50.867 517.258"/></g><path class="cls-89" d="M48.339,522.295a1.739,1.739,0,0,1,1.571,0,.479.479,0,0,1,0,.908,1.739,1.739,0,0,1-1.571,0,.479.479,0,0,1,0-.908Z"/><path class="cls-49" d="M48.02,522.434h-.006v-7.387h2.221v7.387H50.23a.52.52,0,0,1-.32.52,1.739,1.739,0,0,1-1.571,0,.518.518,0,0,1-.319-.52Z"/><g class="cls-117"><polygon class="cls-66" points="50.867 509.503 49.87 509.503 49.87 523.378 50.867 523.378 50.867 509.503 50.867 509.503"/></g><path class="cls-66" d="M48.339,514.54a1.739,1.739,0,0,1,1.571,0,.479.479,0,0,1,0,.908,1.739,1.739,0,0,1-1.571,0,.479.479,0,0,1,0-.908Z"/><path class="cls-58" d="M48.305,514.827H48.3V473.482h1.683v41.345h0a.393.393,0,0,1-.242.393,1.313,1.313,0,0,1-1.19,0,.393.393,0,0,1-.242-.393Z"/><g class="cls-118"><polygon class="cls-66" points="50.462 472.863 49.372 472.863 49.372 518.469 50.462 518.469 50.462 472.863 50.462 472.863"/></g><path class="cls-68" d="M48.547,473.339a1.32,1.32,0,0,1,1.19,0,.363.363,0,0,1,0,.688,1.32,1.32,0,0,1-1.19,0,.363.363,0,0,1,0-.688Z"/><path class="cls-49" d="M48.02,487.727h-.006V480.34h2.221v7.387H50.23a.52.52,0,0,1-.32.52,1.739,1.739,0,0,1-1.571,0,.518.518,0,0,1-.319-.52Z"/><g class="cls-119"><polygon class="cls-66" points="50.867 474.796 49.87 474.796 49.87 488.671 50.867 488.671 50.867 474.796 50.867 474.796"/></g><path class="cls-89" d="M48.339,479.833a1.739,1.739,0,0,1,1.571,0,.479.479,0,0,1,0,.908,1.739,1.739,0,0,1-1.571,0,.479.479,0,0,1,0-.908Z"/><path class="cls-49" d="M48.02,479.973h-.006v-7.388h2.221v7.388H50.23a.52.52,0,0,1-.32.519,1.739,1.739,0,0,1-1.571,0,.517.517,0,0,1-.319-.519Z"/><g class="cls-120"><polygon class="cls-66" points="50.867 467.041 49.87 467.041 49.87 480.917 50.867 480.917 50.867 467.041 50.867 467.041"/></g><path class="cls-66" d="M48.339,472.078a1.739,1.739,0,0,1,1.571,0,.479.479,0,0,1,0,.908,1.739,1.739,0,0,1-1.571,0,.479.479,0,0,1,0-.908Z"/><path class="cls-58" d="M48.305,472.365H48.3V431.02h1.683v41.345h0a.393.393,0,0,1-.242.393,1.313,1.313,0,0,1-1.19,0,.393.393,0,0,1-.242-.393Z"/><g class="cls-121"><polygon class="cls-66" points="50.462 430.401 49.372 430.401 49.372 476.007 50.462 476.007 50.462 430.401 50.462 430.401"/></g><path class="cls-68" d="M48.547,430.877a1.32,1.32,0,0,1,1.19,0,.363.363,0,0,1,0,.688,1.32,1.32,0,0,1-1.19,0,.363.363,0,0,1,0-.688Z"/><path class="cls-49" d="M48.02,438.891h-.006V431.5h2.221v7.387H50.23a.52.52,0,0,1-.32.52,1.739,1.739,0,0,1-1.571,0,.518.518,0,0,1-.319-.52Z"/><g class="cls-122"><polygon class="cls-66" points="50.867 425.959 49.87 425.959 49.87 439.835 50.867 439.835 50.867 425.959 50.867 425.959"/></g><path class="cls-66" d="M48.339,431a1.739,1.739,0,0,1,1.571,0,.479.479,0,0,1,0,.907,1.733,1.733,0,0,1-1.571,0,.479.479,0,0,1,0-.907Z"/><path class="cls-89" d="M42.222,501.034v2.257a.274.274,0,0,0,.136.236l.894.516a.159.159,0,0,0,.239-.138v-3.112l-.209-.59a.832.832,0,0,1-.047-.275v-2.336a.644.644,0,0,0-.323-.558l-.515-.3a.288.288,0,0,0-.432.25v3.324a.661.661,0,0,0,.057.27l.2.454Z"/><path class="cls-61" d="M42.058,501.129v2.256a.27.27,0,0,0,.137.236l.894.517a.161.161,0,0,0,.159,0,.159.159,0,0,0,.08-.138v-3.113l-.209-.59a.8.8,0,0,1-.048-.275v-2.335a.645.645,0,0,0-.322-.559l-.515-.3a.288.288,0,0,0-.432.249V500.4a.677.677,0,0,0,.056.27l.2.455Z"/><g class="cls-123"><path class="cls-45" d="M42.671,501.574c-.169-.1-.307-.018-.307.178a.682.682,0,0,0,.307.532c.17.1.308.018.308-.178a.68.68,0,0,0-.308-.532Z"/><path class="cls-124" d="M42.86,502.246a.185.185,0,0,0,.072-.166.579.579,0,0,0-.261-.453.184.184,0,0,0-.184-.018h0l-.237.137.16.092.005,0a.6.6,0,0,0,.209.362l-.16.092.16.093.236-.137Z"/></g><g class="cls-123"><polygon class="cls-125" points="42.641 501.493 42.867 501.623 42.427 501.877 42.2 501.747 42.641 501.493 42.641 501.493"/><polygon class="cls-126" points="42.993 501.983 43.219 502.114 42.564 502.492 42.338 502.362 42.993 501.983 42.993 501.983"/></g><g class="cls-123"><path class="cls-93" d="M42.442,501.76c-.144-.083-.261-.016-.261.151a.578.578,0,0,0,.261.452c.144.083.261.016.261-.151a.578.578,0,0,0-.261-.452Z"/><path class="cls-103" d="M42.412,501.812c-.128-.074-.231-.014-.231.133a.511.511,0,0,0,.231.4c.127.073.231.013.231-.134a.513.513,0,0,0-.231-.4Z"/><path class="cls-127" d="M42.4,501.933c-.072-.041-.13-.008-.13.075a.287.287,0,0,0,.13.226c.072.042.131.008.131-.075a.29.29,0,0,0-.131-.226Z"/></g><g class="cls-123"><polygon class="cls-128" points="42.412 501.804 42.603 501.915 42.281 502.1 42.09 501.99 42.412 501.804 42.412 501.804"/></g><g class="cls-123"><path class="cls-45" d="M42.671,502.787c-.169-.1-.307-.019-.307.177a.68.68,0,0,0,.307.532c.17.1.308.018.308-.177a.677.677,0,0,0-.308-.532Z"/><path class="cls-124" d="M42.86,503.459a.187.187,0,0,0,.072-.167.578.578,0,0,0-.261-.452.18.18,0,0,0-.184-.018h0l-.237.136.16.093.005,0a.6.6,0,0,0,.209.362l-.16.093.16.092.236-.136Z"/></g><g class="cls-123"><polygon class="cls-125" points="42.641 502.705 42.867 502.836 42.427 503.09 42.2 502.959 42.641 502.705 42.641 502.705"/><polygon class="cls-126" points="42.993 503.196 43.219 503.326 42.564 503.705 42.338 503.574 42.993 503.196 42.993 503.196"/></g><g class="cls-123"><path class="cls-93" d="M42.442,502.972c-.144-.083-.261-.015-.261.151a.576.576,0,0,0,.261.452c.144.084.261.016.261-.15a.579.579,0,0,0-.261-.453Z"/><path class="cls-103" d="M42.412,503.024c-.128-.073-.231-.013-.231.134a.51.51,0,0,0,.231.4c.127.074.231.014.231-.133a.513.513,0,0,0-.231-.4Z"/><path class="cls-127" d="M42.4,503.146c-.072-.042-.13-.008-.13.075a.286.286,0,0,0,.13.225c.072.042.131.008.131-.075a.287.287,0,0,0-.131-.225Z"/></g><g class="cls-123"><polygon class="cls-128" points="42.412 503.017 42.603 503.127 42.281 503.313 42.09 503.203 42.412 503.017 42.412 503.017"/></g><path class="cls-45" d="M62.459,510.431l-6.136-3.543a.4.4,0,0,0-.6.346v.522a.805.805,0,0,0,.4.7l7.61,4.394.622-.056,6.855,3.958v-1.68L63.2,510.445l-.743-.014Z"/><path class="cls-56" d="M62.319,510.512l-6.136-3.543a.4.4,0,0,0-.6.346v.522a.806.806,0,0,0,.4.7L63.6,512.93l.622-.056,6.855,3.958v-1.68l-8.012-4.626-.743-.014Z"/><g class="cls-129"><polygon class="cls-103" points="62.403 510.146 63.8 513.4 65.582 513.913 65.479 510.988 63.329 510.238 62.403 510.146 62.403 510.146"/></g><path class="cls-49" d="M70.11,542.943H70.1v-7.387h2.222v7.387H72.32a.517.517,0,0,1-.32.519,1.733,1.733,0,0,1-1.571,0,.516.516,0,0,1-.319-.519Z"/><g class="cls-130"><polygon class="cls-66" points="72.958 530.011 71.96 530.011 71.96 543.887 72.958 543.887 72.958 530.011 72.958 530.011"/></g><path class="cls-89" d="M70.429,535.049a1.739,1.739,0,0,1,1.571,0,.479.479,0,0,1,0,.907,1.733,1.733,0,0,1-1.571,0,.479.479,0,0,1,0-.907Z"/><path class="cls-49" d="M70.11,535.188H70.1V527.8h2.222v7.387H72.32a.517.517,0,0,1-.32.519,1.733,1.733,0,0,1-1.571,0,.516.516,0,0,1-.319-.519Z"/><g class="cls-131"><polygon class="cls-66" points="72.958 522.256 71.96 522.256 71.96 536.132 72.958 536.132 72.958 522.256 72.958 522.256"/></g><path class="cls-66" d="M70.429,527.294a1.739,1.739,0,0,1,1.571,0,.479.479,0,0,1,0,.907,1.733,1.733,0,0,1-1.571,0,.479.479,0,0,1,0-.907Z"/><path class="cls-58" d="M70.4,527.58h0V486.235h1.684V527.58h0a.393.393,0,0,1-.242.394,1.32,1.32,0,0,1-1.19,0,.393.393,0,0,1-.242-.394Z"/><g class="cls-132"><polygon class="cls-66" points="72.552 485.617 71.462 485.617 71.462 531.223 72.552 531.223 72.552 485.617 72.552 485.617"/></g><path class="cls-68" d="M70.637,486.093a1.313,1.313,0,0,1,1.19,0,.362.362,0,0,1,0,.687,1.313,1.313,0,0,1-1.19,0,.362.362,0,0,1,0-.687Z"/><path class="cls-49" d="M70.11,500.481H70.1v-7.387h2.222v7.387H72.32A.517.517,0,0,1,72,501a1.733,1.733,0,0,1-1.571,0,.516.516,0,0,1-.319-.519Z"/><g class="cls-133"><polygon class="cls-66" points="72.958 487.549 71.96 487.549 71.96 501.425 72.958 501.425 72.958 487.549 72.958 487.549"/></g><path class="cls-89" d="M70.429,492.587a1.739,1.739,0,0,1,1.571,0,.479.479,0,0,1,0,.907,1.733,1.733,0,0,1-1.571,0,.479.479,0,0,1,0-.907Z"/><path class="cls-49" d="M70.11,492.726H70.1v-7.387h2.222v7.387H72.32a.517.517,0,0,1-.32.519,1.733,1.733,0,0,1-1.571,0,.516.516,0,0,1-.319-.519Z"/><g class="cls-134"><polygon class="cls-66" points="72.958 479.794 71.96 479.794 71.96 493.67 72.958 493.67 72.958 479.794 72.958 479.794"/></g><path class="cls-66" d="M70.429,484.832a1.739,1.739,0,0,1,1.571,0,.479.479,0,0,1,0,.907,1.733,1.733,0,0,1-1.571,0,.479.479,0,0,1,0-.907Z"/><path class="cls-58" d="M70.4,485.118h0V443.773h1.684v41.345h0a.393.393,0,0,1-.242.394,1.32,1.32,0,0,1-1.19,0,.393.393,0,0,1-.242-.394Z"/><g class="cls-135"><polygon class="cls-66" points="72.552 443.155 71.462 443.155 71.462 488.761 72.552 488.761 72.552 443.155 72.552 443.155"/></g><path class="cls-68" d="M70.637,443.631a1.313,1.313,0,0,1,1.19,0,.362.362,0,0,1,0,.687,1.313,1.313,0,0,1-1.19,0,.362.362,0,0,1,0-.687Z"/><path class="cls-49" d="M70.11,451.645H70.1v-7.387h2.222v7.387H72.32a.518.518,0,0,1-.32.519,1.733,1.733,0,0,1-1.571,0,.517.517,0,0,1-.319-.519Z"/><g class="cls-136"><polygon class="cls-66" points="72.958 438.713 71.96 438.713 71.96 452.589 72.958 452.589 72.958 438.713 72.958 438.713"/></g><path class="cls-66" d="M70.429,443.751a1.739,1.739,0,0,1,1.571,0,.479.479,0,0,1,0,.907,1.733,1.733,0,0,1-1.571,0,.479.479,0,0,1,0-.907Z"/><path class="cls-89" d="M64.312,513.788v2.257a.274.274,0,0,0,.136.236l.9.516a.156.156,0,0,0,.159,0,.16.16,0,0,0,.08-.138v-3.112l-.21-.59a.838.838,0,0,1-.047-.276v-2.335a.648.648,0,0,0-.322-.559l-.516-.3a.29.29,0,0,0-.288,0,.287.287,0,0,0-.144.249v3.325a.673.673,0,0,0,.057.269l.2.455Z"/><path class="cls-61" d="M64.148,513.882v2.257a.273.273,0,0,0,.137.236l.894.517a.16.16,0,0,0,.239-.138v-3.113l-.209-.59a.828.828,0,0,1-.047-.275v-2.335a.644.644,0,0,0-.323-.559l-.515-.3a.288.288,0,0,0-.432.25v3.324a.661.661,0,0,0,.057.27l.2.454Z"/><g class="cls-137"><path class="cls-45" d="M64.762,514.328c-.17-.1-.308-.018-.308.177a.677.677,0,0,0,.308.532c.169.1.307.019.307-.177a.68.68,0,0,0-.307-.532Z"/><path class="cls-124" d="M64.95,515a.187.187,0,0,0,.073-.167.578.578,0,0,0-.261-.452.186.186,0,0,0-.185-.018h0l-.237.137.16.092,0,0a.6.6,0,0,0,.209.363l-.16.092.16.093L64.95,515Z"/></g><g class="cls-137"><polygon class="cls-125" points="64.731 514.246 64.957 514.377 64.517 514.631 64.29 514.501 64.731 514.246 64.731 514.246"/><polygon class="cls-126" points="65.083 514.737 65.31 514.868 64.654 515.246 64.428 515.115 65.083 514.737 65.083 514.737"/></g><g class="cls-137"><path class="cls-93" d="M64.532,514.514c-.144-.083-.261-.016-.261.15a.578.578,0,0,0,.261.453c.144.083.261.015.261-.151a.578.578,0,0,0-.261-.452Z"/><path class="cls-103" d="M64.5,514.566c-.128-.074-.231-.014-.231.133a.509.509,0,0,0,.231.4c.127.074.231.014.231-.133a.511.511,0,0,0-.231-.4Z"/><path class="cls-127" d="M64.494,514.687c-.072-.042-.131-.008-.131.075a.29.29,0,0,0,.131.226c.071.041.13.008.13-.075a.29.29,0,0,0-.13-.226Z"/></g><g class="cls-137"><polygon class="cls-128" points="64.502 514.558 64.693 514.668 64.371 514.854 64.18 514.744 64.502 514.558 64.502 514.558"/></g><g class="cls-137"><path class="cls-45" d="M64.762,515.54c-.17-.1-.308-.018-.308.178a.68.68,0,0,0,.308.532c.169.1.307.018.307-.178a.682.682,0,0,0-.307-.532Z"/><path class="cls-124" d="M64.95,516.212a.185.185,0,0,0,.073-.166.576.576,0,0,0-.261-.452.184.184,0,0,0-.185-.019h0l-.237.137.16.092,0,0a.6.6,0,0,0,.209.362l-.16.093.16.092.236-.137Z"/></g><g class="cls-137"><polygon class="cls-125" points="64.731 515.459 64.957 515.589 64.517 515.844 64.29 515.713 64.731 515.459 64.731 515.459"/><polygon class="cls-126" points="65.083 515.95 65.31 516.08 64.654 516.458 64.428 516.328 65.083 515.95 65.083 515.95"/></g><g class="cls-137"><path class="cls-93" d="M64.532,515.726c-.144-.083-.261-.015-.261.151a.578.578,0,0,0,.261.452c.144.083.261.016.261-.151a.578.578,0,0,0-.261-.452Z"/><path class="cls-103" d="M64.5,515.778c-.128-.073-.231-.014-.231.134a.51.51,0,0,0,.231.4c.127.073.231.014.231-.134a.513.513,0,0,0-.231-.4Z"/><path class="cls-127" d="M64.494,515.9c-.072-.041-.131-.007-.131.076a.287.287,0,0,0,.131.225c.071.042.13.008.13-.075a.292.292,0,0,0-.13-.226Z"/></g><g class="cls-137"><polygon class="cls-128" points="64.502 515.771 64.693 515.881 64.371 516.067 64.18 515.956 64.502 515.771 64.502 515.771"/></g><polygon class="cls-81" points="30.123 417.807 27.606 417.797 27.624 419.25 123.978 474.88 126.476 473.437 126.476 471.994 30.123 417.807 30.123 417.807"/><polygon class="cls-138" points="30.105 416.354 27.606 417.797 123.978 473.437 126.476 471.994 30.105 416.354 30.105 416.354"/><polygon class="cls-73" points="125.215 570.986 122.512 572.546 128.597 576.059 131.299 574.499 125.215 570.986 125.215 570.986"/><polygon class="cls-139" points="136.106 571.723 128.618 576.046 128.618 581.281 136.106 576.958 136.106 571.723 136.106 571.723"/><polygon class="cls-108" points="128.618 576.072 122.512 572.546 122.512 577.755 128.618 581.281 128.618 576.072 128.618 576.072"/><path class="cls-87" d="M125.416,575.22a3.228,3.228,0,0,1,1.46,2.529c0,.93-.654,1.308-1.46.842a3.229,3.229,0,0,1-1.459-2.528c0-.93.654-1.308,1.459-.843Z"/><g class="cls-140"><path class="cls-89" d="M125.821,574.987a3.23,3.23,0,0,1,1.46,2.528c0,.93-.655,1.308-1.46.843a3.227,3.227,0,0,1-1.46-2.528c0-.931.654-1.309,1.46-.843Z"/></g><path class="cls-87" d="M134.494,573.749c.788-.455,1.429-.086,1.429.825a3.164,3.164,0,0,1-1.429,2.476c-.789.455-1.43.085-1.43-.826a3.161,3.161,0,0,1,1.43-2.475Z"/><g class="cls-141"><path class="cls-89" d="M134.091,573.517c.789-.456,1.429-.086,1.429.825a3.158,3.158,0,0,1-1.429,2.475c-.788.456-1.429.086-1.429-.825a3.161,3.161,0,0,1,1.429-2.475Z"/></g><polygon class="cls-73" points="25.918 513.657 23.216 515.217 29.3 518.73 32.003 517.17 25.918 513.657 25.918 513.657"/><polygon class="cls-139" points="32.084 517.123 29.322 518.717 29.322 523.952 32.084 522.357 32.084 517.123 32.084 517.123"/><polygon class="cls-108" points="29.322 518.743 23.216 515.217 23.216 520.426 29.322 523.952 29.322 518.743 29.322 518.743"/><path class="cls-87" d="M26.19,517.932a3.227,3.227,0,0,1,1.46,2.528c0,.931-.654,1.308-1.46.843a3.227,3.227,0,0,1-1.46-2.528c0-.931.654-1.308,1.46-.843Z"/><g class="cls-142"><path class="cls-89" d="M26.6,517.7a3.231,3.231,0,0,1,1.459,2.529c0,.93-.654,1.308-1.459.843a3.231,3.231,0,0,1-1.46-2.529c0-.93.654-1.308,1.46-.843Z"/></g><path class="cls-87" d="M26.19,517.932a3.227,3.227,0,0,1,1.46,2.528c0,.931-.654,1.308-1.46.843a3.227,3.227,0,0,1-1.46-2.528c0-.931.654-1.308,1.46-.843Z"/><g class="cls-142"><path class="cls-89" d="M26.6,517.7a3.231,3.231,0,0,1,1.459,2.529c0,.93-.654,1.308-1.459.843a3.231,3.231,0,0,1-1.46-2.529c0-.93.654-1.308,1.46-.843Z"/></g><path class="cls-143" d="M80.5,460.2l-3.714,2.143a1.068,1.068,0,0,0,0,1.849l28.858,16.661a3.64,3.64,0,0,0,3.642,0l3.493-2.017v-.605L80.5,460.2Z"/><path class="cls-144" d="M80.5,459.6l-3.714,2.144a1.068,1.068,0,0,0,0,1.849l28.858,16.661a3.645,3.645,0,0,0,3.642,0l3.493-2.017L80.5,459.6Z"/><polygon class="cls-145" points="183.166 450.492 158.9 464.502 158.9 549.09 159.854 549.641 183.166 535.08 184.12 451.042 183.166 450.492 183.166 450.492"/><g class="cls-146"><polygon class="cls-147" points="183.742 449.111 157.995 463.975 160.442 465.388 186.188 450.523 183.742 449.111 183.742 449.111"/></g><polygon class="cls-148" points="184.12 451.042 159.854 465.053 159.854 549.641 184.12 535.631 184.12 451.042 184.12 451.042"/><polygon class="cls-149" points="182.755 453.997 161.789 466.102 161.789 468.607 182.755 456.502 182.755 453.997 182.755 453.997"/><g class="cls-150"><polygon class="cls-151" points="181.882 454.132 160.916 466.237 161.789 467.968 182.755 455.863 181.882 454.132 181.882 454.132"/></g><polygon class="cls-149" points="182.755 457.507 161.789 469.612 161.789 472.118 182.755 460.013 182.755 457.507 182.755 457.507"/><g class="cls-152"><polygon class="cls-151" points="181.882 457.643 160.916 469.748 161.789 471.478 182.755 459.373 181.882 457.643 181.882 457.643"/></g><polygon class="cls-149" points="182.755 461.018 161.789 473.123 161.789 475.628 182.755 463.523 182.755 461.018 182.755 461.018"/><g class="cls-153"><polygon class="cls-151" points="181.882 461.153 160.916 473.258 161.789 474.989 182.755 462.884 181.882 461.153 181.882 461.153"/></g><polygon class="cls-149" points="182.755 464.528 161.789 476.633 161.789 479.139 182.755 467.034 182.755 464.528 182.755 464.528"/><g class="cls-154"><polygon class="cls-151" points="181.882 464.664 160.916 476.768 161.789 478.499 182.755 466.394 181.882 464.664 181.882 464.664"/></g><polygon class="cls-149" points="182.755 468.039 161.789 480.144 161.789 482.649 182.755 470.544 182.755 468.039 182.755 468.039"/><g class="cls-155"><polygon class="cls-151" points="181.882 468.174 160.916 480.279 161.789 482.01 182.755 469.905 181.882 468.174 181.882 468.174"/></g><polygon class="cls-149" points="182.755 471.549 161.789 483.654 161.789 486.159 182.755 474.055 182.755 471.549 182.755 471.549"/><g class="cls-156"><polygon class="cls-151" points="181.882 471.684 160.916 483.789 161.789 485.52 182.755 473.415 181.882 471.684 181.882 471.684"/></g><polygon class="cls-149" points="182.755 475.06 161.789 487.165 161.789 489.67 182.755 477.565 182.755 475.06 182.755 475.06"/><g class="cls-157"><polygon class="cls-151" points="181.882 475.195 160.916 487.3 161.789 489.031 182.755 476.926 181.882 475.195 181.882 475.195"/></g><polygon class="cls-149" points="182.755 478.57 161.789 490.675 161.789 493.18 182.755 481.075 182.755 478.57 182.755 478.57"/><g class="cls-158"><polygon class="cls-151" points="181.882 478.705 160.916 490.81 161.789 492.541 182.755 480.436 181.882 478.705 181.882 478.705"/></g><polygon class="cls-149" points="182.755 482.08 161.789 494.185 161.789 496.691 182.755 484.586 182.755 482.08 182.755 482.08"/><g class="cls-159"><polygon class="cls-151" points="181.882 482.216 160.916 494.321 161.789 496.051 182.755 483.947 181.882 482.216 181.882 482.216"/></g><polygon class="cls-149" points="182.755 485.591 161.789 497.696 161.789 500.201 182.755 488.096 182.755 485.591 182.755 485.591"/><g class="cls-160"><polygon class="cls-151" points="181.882 485.726 160.916 497.831 161.789 499.562 182.755 487.457 181.882 485.726 181.882 485.726"/></g><polygon class="cls-149" points="182.755 489.101 161.789 501.206 161.789 503.712 182.755 491.607 182.755 489.101 182.755 489.101"/><g class="cls-161"><polygon class="cls-151" points="181.882 489.237 160.916 501.342 161.789 503.072 182.755 490.967 181.882 489.237 181.882 489.237"/></g><polygon class="cls-149" points="182.755 492.612 161.789 504.717 161.789 507.222 182.755 495.117 182.755 492.612 182.755 492.612"/><g class="cls-162"><polygon class="cls-151" points="181.882 492.747 160.916 504.852 161.789 506.583 182.755 494.478 181.882 492.747 181.882 492.747"/></g><polygon class="cls-149" points="182.755 496.122 161.789 508.227 161.789 510.733 182.755 498.628 182.755 496.122 182.755 496.122"/><g class="cls-163"><polygon class="cls-151" points="181.882 496.258 160.916 508.363 161.789 510.093 182.755 497.988 181.882 496.258 181.882 496.258"/></g><polygon class="cls-149" points="182.755 499.633 161.789 511.738 161.789 514.243 182.755 502.138 182.755 499.633 182.755 499.633"/><g class="cls-164"><polygon class="cls-151" points="181.882 499.768 160.916 511.873 161.789 513.604 182.755 501.499 181.882 499.768 181.882 499.768"/></g><polygon class="cls-149" points="182.755 503.143 161.789 515.248 161.789 517.754 182.755 505.649 182.755 503.143 182.755 503.143"/><g class="cls-165"><polygon class="cls-151" points="181.882 503.279 160.916 515.384 161.789 517.114 182.755 505.009 181.882 503.279 181.882 503.279"/></g><polygon class="cls-149" points="182.755 506.654 161.789 518.759 161.789 521.264 182.755 509.159 182.755 506.654 182.755 506.654"/><g class="cls-166"><polygon class="cls-151" points="181.882 506.789 160.916 518.894 161.789 520.625 182.755 508.52 181.882 506.789 181.882 506.789"/></g><polygon class="cls-149" points="182.755 510.164 161.789 522.269 161.789 524.774 182.755 512.67 182.755 510.164 182.755 510.164"/><g class="cls-167"><polygon class="cls-151" points="181.882 510.299 160.916 522.404 161.789 524.135 182.755 512.03 181.882 510.299 181.882 510.299"/></g><polygon class="cls-149" points="182.755 513.675 161.789 525.779 161.789 528.285 182.755 516.18 182.755 513.675 182.755 513.675"/><g class="cls-168"><polygon class="cls-151" points="181.882 513.81 160.916 525.915 161.789 527.646 182.755 515.541 181.882 513.81 181.882 513.81"/></g><polygon class="cls-149" points="182.755 517.185 161.789 529.29 161.789 531.795 182.755 519.69 182.755 517.185 182.755 517.185"/><g class="cls-169"><polygon class="cls-151" points="181.882 517.32 160.916 529.425 161.789 531.156 182.755 519.051 181.882 517.32 181.882 517.32"/></g><polygon class="cls-149" points="182.755 520.695 161.789 532.8 161.789 535.306 182.755 523.201 182.755 520.695 182.755 520.695"/><g class="cls-170"><polygon class="cls-151" points="181.882 520.831 160.916 532.936 161.789 534.667 182.755 522.562 181.882 520.831 181.882 520.831"/></g><polygon class="cls-149" points="182.755 524.206 161.789 536.311 161.789 538.816 182.755 526.711 182.755 524.206 182.755 524.206"/><g class="cls-171"><polygon class="cls-151" points="181.882 524.341 160.916 536.446 161.789 538.177 182.755 526.072 181.882 524.341 181.882 524.341"/></g><polygon class="cls-149" points="182.755 527.716 161.789 539.821 161.789 542.327 182.755 530.222 182.755 527.716 182.755 527.716"/><g class="cls-172"><polygon class="cls-151" points="181.882 527.852 160.916 539.957 161.789 541.687 182.755 529.582 181.882 527.852 181.882 527.852"/></g><polygon class="cls-149" points="182.755 531.227 161.789 543.332 161.789 545.837 182.755 533.732 182.755 531.227 182.755 531.227"/><g class="cls-173"><polygon class="cls-151" points="181.882 531.362 160.916 543.467 161.789 545.198 182.755 533.093 181.882 531.362 181.882 531.362"/></g><polygon class="cls-41" points="364.152 345.999 339.886 360.009 339.886 444.598 340.84 445.148 364.152 430.587 365.106 346.55 364.152 345.999 364.152 345.999"/><g class="cls-174"><polygon class="cls-147" points="364.623 344.679 338.994 359.476 341.44 360.888 367.069 346.091 364.623 344.679 364.623 344.679"/></g><polygon class="cls-148" points="365.106 346.55 340.84 360.56 340.84 445.148 365.106 431.138 365.106 346.55 365.106 346.55"/><polygon class="cls-149" points="363.742 349.505 342.775 361.609 342.775 364.115 363.742 352.01 363.742 349.505 363.742 349.505"/><g class="cls-175"><polygon class="cls-151" points="362.869 349.64 341.902 361.745 342.775 363.475 363.742 351.371 362.869 349.64 362.869 349.64"/></g><polygon class="cls-149" points="363.742 353.015 342.775 365.12 342.775 367.625 363.742 355.52 363.742 353.015 363.742 353.015"/><g class="cls-176"><polygon class="cls-151" points="362.869 353.15 341.902 365.255 342.775 366.986 363.742 354.881 362.869 353.15 362.869 353.15"/></g><polygon class="cls-149" points="363.742 356.525 342.775 368.63 342.775 371.136 363.742 359.031 363.742 356.525 363.742 356.525"/><g class="cls-177"><polygon class="cls-151" points="362.869 356.661 341.902 368.766 342.775 370.496 363.742 358.391 362.869 356.661 362.869 356.661"/></g><polygon class="cls-149" points="363.742 360.036 342.775 372.141 342.775 374.646 363.742 362.541 363.742 360.036 363.742 360.036"/><g class="cls-178"><polygon class="cls-151" points="362.869 360.171 341.902 372.276 342.775 374.007 363.742 361.902 362.869 360.171 362.869 360.171"/></g><polygon class="cls-149" points="363.742 363.546 342.775 375.651 342.775 378.157 363.742 366.052 363.742 363.546 363.742 363.546"/><g class="cls-179"><polygon class="cls-151" points="362.869 363.682 341.902 375.787 342.775 377.517 363.742 365.412 362.869 363.682 362.869 363.682"/></g><polygon class="cls-149" points="363.742 367.057 342.775 379.162 342.775 381.667 363.742 369.562 363.742 367.057 363.742 367.057"/><g class="cls-180"><polygon class="cls-151" points="362.869 367.192 341.902 379.297 342.775 381.028 363.742 368.923 362.869 367.192 362.869 367.192"/></g><polygon class="cls-149" points="363.742 370.567 342.775 382.672 342.775 385.178 363.742 373.073 363.742 370.567 363.742 370.567"/><g class="cls-181"><polygon class="cls-151" points="362.869 370.703 341.902 382.807 342.775 384.538 363.742 372.433 362.869 370.703 362.869 370.703"/></g><polygon class="cls-149" points="363.742 374.078 342.775 386.183 342.775 388.688 363.742 376.583 363.742 374.078 363.742 374.078"/><g class="cls-182"><polygon class="cls-151" points="362.869 374.213 341.902 386.318 342.775 388.049 363.742 375.944 362.869 374.213 362.869 374.213"/></g><polygon class="cls-149" points="363.742 377.588 342.775 389.693 342.775 392.198 363.742 380.094 363.742 377.588 363.742 377.588"/><g class="cls-183"><polygon class="cls-151" points="362.869 377.723 341.902 389.828 342.775 391.559 363.742 379.454 362.869 377.723 362.869 377.723"/></g><polygon class="cls-149" points="363.742 381.099 342.775 393.203 342.775 395.709 363.742 383.604 363.742 381.099 363.742 381.099"/><g class="cls-184"><polygon class="cls-151" points="362.869 381.234 341.902 393.339 342.775 395.07 363.742 382.965 362.869 381.234 362.869 381.234"/></g><polygon class="cls-149" points="363.742 384.609 342.775 396.714 342.775 399.219 363.742 387.114 363.742 384.609 363.742 384.609"/><g class="cls-185"><polygon class="cls-151" points="362.869 384.744 341.902 396.849 342.775 398.58 363.742 386.475 362.869 384.744 362.869 384.744"/></g><polygon class="cls-149" points="363.742 388.119 342.775 400.224 342.775 402.73 363.742 390.625 363.742 388.119 363.742 388.119"/><g class="cls-186"><polygon class="cls-151" points="362.869 388.255 341.902 400.36 342.775 402.09 363.742 389.986 362.869 388.255 362.869 388.255"/></g><polygon class="cls-149" points="363.742 391.63 342.775 403.735 342.775 406.24 363.742 394.135 363.742 391.63 363.742 391.63"/><g class="cls-187"><polygon class="cls-151" points="362.869 391.765 341.902 403.87 342.775 405.601 363.742 393.496 362.869 391.765 362.869 391.765"/></g><polygon class="cls-149" points="363.742 395.14 342.775 407.245 342.775 409.751 363.742 397.646 363.742 395.14 363.742 395.14"/><g class="cls-188"><polygon class="cls-151" points="362.869 395.276 341.902 407.381 342.775 409.111 363.742 397.006 362.869 395.276 362.869 395.276"/></g><polygon class="cls-149" points="363.742 398.651 342.775 410.756 342.775 413.261 363.742 401.156 363.742 398.651 363.742 398.651"/><g class="cls-189"><polygon class="cls-151" points="362.869 398.786 341.902 410.891 342.775 412.622 363.742 400.517 362.869 398.786 362.869 398.786"/></g><polygon class="cls-149" points="363.742 402.161 342.775 414.266 342.775 416.772 363.742 404.667 363.742 402.161 363.742 402.161"/><g class="cls-190"><polygon class="cls-151" points="362.869 402.297 341.902 414.402 342.775 416.132 363.742 404.027 362.869 402.297 362.869 402.297"/></g><polygon class="cls-149" points="363.742 405.672 342.775 417.777 342.775 420.282 363.742 408.177 363.742 405.672 363.742 405.672"/><g class="cls-191"><polygon class="cls-151" points="362.869 405.807 341.902 417.912 342.775 419.643 363.742 407.538 362.869 405.807 362.869 405.807"/></g><polygon class="cls-149" points="363.742 409.182 342.775 421.287 342.775 423.793 363.742 411.688 363.742 409.182 363.742 409.182"/><g class="cls-192"><polygon class="cls-151" points="362.869 409.318 341.902 421.422 342.775 423.153 363.742 411.048 362.869 409.318 362.869 409.318"/></g><polygon class="cls-149" points="363.742 412.693 342.775 424.798 342.775 427.303 363.742 415.198 363.742 412.693 363.742 412.693"/><g class="cls-193"><polygon class="cls-151" points="362.869 412.828 341.902 424.933 342.775 426.664 363.742 414.559 362.869 412.828 362.869 412.828"/></g><polygon class="cls-149" points="363.742 416.203 342.775 428.308 342.775 430.813 363.742 418.709 363.742 416.203 363.742 416.203"/><g class="cls-194"><polygon class="cls-151" points="362.869 416.338 341.902 428.443 342.775 430.174 363.742 418.069 362.869 416.338 362.869 416.338"/></g><polygon class="cls-149" points="363.742 419.714 342.775 431.818 342.775 434.324 363.742 422.219 363.742 419.714 363.742 419.714"/><g class="cls-195"><polygon class="cls-151" points="362.869 419.849 341.902 431.954 342.775 433.685 363.742 421.58 362.869 419.849 362.869 419.849"/></g><polygon class="cls-149" points="363.742 423.224 342.775 435.329 342.775 437.834 363.742 425.729 363.742 423.224 363.742 423.224"/><g class="cls-196"><polygon class="cls-151" points="362.869 423.359 341.902 435.464 342.775 437.195 363.742 425.09 362.869 423.359 362.869 423.359"/></g><polygon class="cls-149" points="363.742 426.734 342.775 438.839 342.775 441.345 363.742 429.24 363.742 426.734 363.742 426.734"/><g class="cls-197"><polygon class="cls-151" points="362.869 426.87 341.902 438.975 342.775 440.705 363.742 428.601 362.869 426.87 362.869 426.87"/></g><path class="cls-107" d="M121.4,458.75l-1.409,3.1,2.423,1.4v-3.912l-1.014-.585Zm-2.045-1.181-1.409,3.1-1.906-1.1,1.409-3.1,1.906,1.1Zm-3.951-2.281-1.926-1.112v3.912l.517.3,1.409-3.1Z"/><path class="cls-107" d="M41.134,412.41l-1.409,3.1,2.423,1.4V413l-1.014-.585Zm-2.045-1.181-1.409,3.1-1.905-1.1,1.408-3.1,1.906,1.1Zm-3.951-2.281-1.925-1.112v3.912l.517.3,1.408-3.1Z"/><path class="cls-107" d="M121.4,569.5l-1.409,3.1,2.423,1.4v-3.912L121.4,569.5Zm-2.045-1.18-1.409,3.1-1.906-1.1,1.409-3.1,1.906,1.1Zm-3.951-2.281-1.926-1.112v3.912l.517.3,1.409-3.1Z"/><path class="cls-107" d="M41.134,523.162l-1.409,3.1,2.423,1.4v-3.912l-1.014-.586Zm-2.045-1.18-1.409,3.1-1.905-1.1,1.408-3.1,1.906,1.1ZM35.138,519.7l-1.925-1.112V522.5l.517.3,1.408-3.1Z"/><path class="cls-75" d="M103.3,490.5a5.113,5.113,0,0,0-2.134-4.076L87.1,478.3c-1.178-.68-2.134.043-2.134,1.613v10.114A5.111,5.111,0,0,0,87.1,494.1l14.068,8.122c1.178.68,2.134-.043,2.134-1.612V490.5Z"/><path class="cls-56" d="M103.062,490.637a5.113,5.113,0,0,0-2.133-4.076L86.86,478.439c-1.177-.68-2.133.043-2.133,1.613v10.114a5.114,5.114,0,0,0,2.133,4.076l14.069,8.122c1.177.68,2.133-.043,2.133-1.613V490.637Z"/><path class="cls-198" d="M102.565,490.624a4.835,4.835,0,0,0-2.018-3.855l-13.3-7.682c-1.114-.642-2.018.041-2.018,1.526v9.565a4.834,4.834,0,0,0,2.018,3.855l13.3,7.682c1.114.643,2.018-.04,2.018-1.525v-9.566Z"/><g class="cls-199"><path class="cls-200" d="M103.105,490.313a4.834,4.834,0,0,0-2.018-3.855l-13.306-7.682c-1.113-.643-2.017.04-2.017,1.525v9.566a4.836,4.836,0,0,0,2.017,3.855l13.306,7.682c1.114.643,2.018-.041,2.018-1.525v-9.566Z"/></g><g class="cls-199"><path class="cls-201" d="M80.929,478.554s17.813,16.292,22.374,26.284,3.476-21.5,3.476-21.5l-23.895-9.558-1.955,4.779Z"/></g><polygon class="cls-202" points="76.255 550.303 67.191 550.193 67.191 553.3 101.395 573.048 110.459 567.815 110.459 564.707 76.255 550.303 76.255 550.303"/><g class="cls-203"><polygon class="cls-204" points="112.272 558.93 101.33 565.247 101.33 574.709 112.272 568.392 112.272 558.93 112.272 558.93"/></g><polygon class="cls-62" points="76.255 544.96 67.191 550.193 101.395 569.941 110.459 564.707 76.255 544.96 76.255 544.96"/></svg>