<?xml version="1.0" encoding="utf-8"?>
<!-- Generator: Adobe Illustrator 26.0.1, SVG Export Plug-In . SVG Version: 6.00 Build 0)  -->
<svg version="1.1" id="Capa_1" xmlns="http://www.w3.org/2000/svg" xmlns:xlink="http://www.w3.org/1999/xlink" x="0px" y="0px"
	 viewBox="0 0 194.777 360" style="enable-background:new 0 0 194.777 360;" xml:space="preserve">
<style type="text/css">
	.Sombra_x0020_paralela{fill:none;}
	.Esquinas_x0020_redondeadas_x0020_2_x0020_pt_x002E_{fill:#FFFFFF;stroke:#000000;stroke-miterlimit:10;}
	.Reflejo_x0020_vivo_x0020_X{fill:none;}
	.Bisel_x0020_suave{fill:url(#SVGID_1_);}
	.Atardecer{fill:#FFFFFF;}
	.Follaje_GS{fill:#FFDD00;}
	.Pompadour_GS{fill-rule:evenodd;clip-rule:evenodd;fill:#51AEE2;}
	.st0{enable-background:new    ;}
	.st1{fill:#282744;}
	.st2{fill:#36365C;}
	.st3{fill:#DAF0FD;}
	.st4{fill:#6194C4;}
	.st5{fill:#C4E0F6;}
	.st6{fill:#C3DDF5;}
	.st7{fill:#4A486A;}
	.st8{fill:#FFD255;}
	.st9{fill:#81AEDA;}
	.st10{fill:#8EB9E1;}
	.st11{fill:#A8D0F0;}
	.st12{fill:#2F2E34;}
	.st13{fill:#C7D1D1;}
	.st14{fill:#939F9E;}
	.st15{fill:#7D8787;}
	.st16{fill:#A1AEB3;}
	.st17{fill:#4F4C58;}
	.st18{fill:#63606F;}
	.st19{fill:#585564;}
	.st20{fill:#404047;}
	.st21{fill:#4A6C5C;}
	.st22{fill:#58806D;}
	.st23{fill:#3D5047;}
	.st24{fill:#40584D;}
	.st25{fill:#EDAC32;}
	.st26{fill:#FEE883;}
	.st27{fill:#D0842E;}
	.st28{fill:#623942;}
	.st29{fill:#81505A;}
	.st30{fill:#71454E;}
	.st31{fill:#BBCEEC;}
	.st32{fill:#EBF1FB;}
	.st33{fill:#CCDAF1;}
	.st34{fill:#2B3235;}
	.st35{fill:#505860;}
	.st36{fill:#FFFFFF;}
	.st37{fill:#FBBB26;}
	.st38{fill:#B0B8CF;}
	.st39{fill:#9EA9C8;}
	.st40{fill:#E3E7F0;}
	.st41{fill:#C9CEE2;}
	.st42{fill:#EA526F;}
	.st43{fill:#F7CE6D;}
	.st44{fill:#68ACDF;}
	.st45{fill:#6089C7;}
	.st46{fill:#87BF54;}
	.st47{fill:#67B765;}
	.st48{opacity:0.3;}
	.st49{fill:#4C71B6;}
	.st50{fill:#DBE5F6;}
	.st51{fill:#A49D96;}
	.st52{fill:#E6E1DD;}
	.st53{fill:#DEDEDE;}
	.st54{fill:#D7D1C7;}
	.st55{fill:#584A44;}
	.st56{fill:#090909;}
	.st57{fill:#362D2A;}
	.st58{fill:#0A0B0B;}
	.st59{fill:#82CDDF;}
	.st60{fill:#C94130;}
	.st61{opacity:0.3;fill:#020203;}
	.st62{fill:#585858;}
	.st63{fill:#363636;}
	.st64{fill:#020203;}
	.st65{fill:#B5AFA7;}
	.st66{fill:#EB5D55;}
	.st67{fill:#8B1D14;}
	.st68{fill:#73959D;}
	.st69{fill:#85A4AA;}
	.st70{fill:#E7F2F7;}
	.st71{fill:#98B0B5;}
	.st72{fill:#C1CED0;}
	.st73{fill:#899296;}
	.st74{fill:#ABB2B5;}
	.st75{fill:#1B1B1B;}
	.st76{fill:#2A292A;}
	.st77{fill:#9A9FA1;}
	.st78{fill:#6999D1;}
	.st79{fill:#D2D4DB;}
	.st80{fill:#949499;}
	.st81{fill:#232A2B;}
	.st82{fill:#1C2123;}
	.st83{fill:#272E31;}
	.st84{fill:#121618;}
	.st85{fill:#181D1F;}
	.st86{fill:#353E42;}
	.st87{fill:#D6D7D7;}
	.st88{fill:#DDEFF1;}
	.st89{fill:#101315;}
	.st90{fill:#3761AB;}
	.st91{fill:url(#SVGID_00000112632502559079592940000005477458883477252737_);}
	.st92{fill:url(#SVGID_00000091702372712128406830000007692288535291258015_);}
	.st93{fill:url(#SVGID_00000108271350562419651030000008216467880209089683_);}
	.st94{fill:url(#SVGID_00000181073346692932777330000014260381874775006341_);}
	.st95{fill:url(#SVGID_00000001630297591850339020000010180993301306542755_);}
	.st96{fill:#090914;}
	.st97{fill:#64B32E;}
	.st98{fill:url(#SVGID_00000168079530819918801120000001875067807647880890_);}
	.st99{fill:url(#SVGID_00000173882576107285260150000016366150380639307161_);}
	.st100{fill:url(#SVGID_00000035509834822425793560000007218300184065609148_);}
	.st101{fill:url(#SVGID_00000106861836149221678390000005097207431303958194_);}
	.st102{fill:url(#SVGID_00000056396565517950600920000013679663682829039793_);}
	.st103{fill:url(#SVGID_00000138547126716305150680000005609127222791031958_);}
	.st104{fill:url(#SVGID_00000141456499215512833980000010541633811660692667_);}
	.st105{fill:url(#SVGID_00000152261964095031386570000004186135148812337571_);}
	.st106{fill:url(#SVGID_00000080184479243687714880000010251226577837358756_);}
	.st107{fill:url(#SVGID_00000107585201167758170330000018049397871149144224_);}
	.st108{fill:url(#SVGID_00000172402449227903946370000009884824639945784748_);}
	.st109{fill:url(#SVGID_00000106861451997862425520000013684147525359569589_);}
	.st110{fill:url(#SVGID_00000085937921887999234650000007255756082793078190_);}
	.st111{fill:url(#SVGID_00000026880607112827007000000007769673718731473335_);}
	.st112{fill:url(#SVGID_00000112612349020495608780000004533452839789325235_);}
	.st113{fill:url(#SVGID_00000021815350539700200770000015450945606397388416_);}
	.st114{fill:url(#SVGID_00000083090283957599703640000003256223496362618017_);}
	.st115{fill:url(#SVGID_00000119092022132649272120000005694096085833158536_);}
	.st116{fill:url(#SVGID_00000047044014141955076270000008603411915309569722_);}
	.st117{fill:url(#SVGID_00000161591725335684716690000008224326275675027871_);}
	.st118{fill:url(#SVGID_00000173142691006942278250000012511376936490181274_);}
	.st119{fill:url(#SVGID_00000011731720926791640250000009785504335324094899_);}
	.st120{fill:url(#SVGID_00000144302687356811110080000017027631212545835670_);}
	.st121{fill:url(#SVGID_00000000943738054776779950000009042016156859360645_);}
	.st122{fill:url(#SVGID_00000023253626289383949820000013484937139687605938_);}
	.st123{fill:url(#SVGID_00000103259956940948032920000005487463825335154066_);}
	.st124{fill:url(#SVGID_00000145025638552025773750000009953439389576273045_);}
	.st125{fill:url(#SVGID_00000154399123768333379570000017934575480144374947_);}
	.st126{fill:url(#SVGID_00000031909487528627489350000009183082150314206110_);}
	.st127{fill:url(#SVGID_00000170963301544223002320000005502960012186193285_);}
	.st128{fill:url(#SVGID_00000155844639242325043020000014116817411440107436_);}
	.st129{fill:url(#SVGID_00000134250306257078849370000006561639228895968420_);}
	.st130{fill:url(#SVGID_00000115486107073123727270000011725836490909574533_);}
	.st131{fill:url(#SVGID_00000175322617555854977200000017669314420012707994_);}
	.st132{fill:url(#SVGID_00000064339874262796406860000003213064490126538404_);}
	.st133{fill:url(#SVGID_00000054965024479606836870000015647975545997127572_);}
	.st134{fill:url(#SVGID_00000173135266264777736110000009518205491646141859_);}
	.st135{fill:url(#SVGID_00000023249904437704598240000008237938096305538473_);}
	.st136{fill:url(#SVGID_00000011745128336660023620000007012912720952264103_);}
	.st137{fill:url(#SVGID_00000064342663036289644810000001414221279021320632_);}
	.st138{fill:url(#SVGID_00000152263828641577329880000000684455364558958470_);}
	.st139{fill:url(#SVGID_00000060009051655030782620000008348779850205823387_);}
	.st140{fill:url(#SVGID_00000093897263322666951370000013247079359155808441_);}
	.st141{fill:url(#SVGID_00000052083345754720758580000010831805702666232705_);}
	.st142{fill:url(#SVGID_00000085226877779590629370000005076567183964937611_);}
	.st143{fill:url(#SVGID_00000128461968598701544560000006060529661113489536_);}
	.st144{fill:url(#SVGID_00000013161805906288159650000013180646125960293306_);}
	.st145{fill:url(#SVGID_00000161621262989984918310000005254740122147145358_);}
	.st146{fill:url(#SVGID_00000062185463010041358480000018056146357120061877_);}
	.st147{fill:url(#SVGID_00000171716456090493267510000001205879018516101305_);}
	.st148{fill:url(#SVGID_00000057133570779499932550000012073079222780630422_);}
	.st149{fill:url(#SVGID_00000099632147827283657840000005394794466263317426_);}
	.st150{fill:#E41F1C;}
	.st151{fill:url(#SVGID_00000034787277845286945270000007077721426304104105_);}
	.st152{fill:url(#SVGID_00000035496112792853390890000002206998736703689345_);}
	.st153{fill:url(#SVGID_00000106854683344896883160000005084143750815376523_);}
	.st154{fill:url(#SVGID_00000034051828107367803240000018431899033314493568_);}
	.st155{fill:url(#SVGID_00000096040763270988521600000011492670976790105229_);}
	.st156{fill:url(#SVGID_00000132056120987654052470000000436325187161986954_);}
	.st157{fill:url(#SVGID_00000065045949895547182380000016629684282867050378_);}
	.st158{fill:url(#SVGID_00000109713530030924551710000009607537377250015377_);}
	.st159{fill:url(#SVGID_00000072960566333121318180000007816383972727904178_);}
	.st160{fill:url(#SVGID_00000101082381035057896110000015235807610608020134_);}
	.st161{fill:url(#SVGID_00000104672388702004279010000001704029603008882308_);}
	.st162{fill:url(#SVGID_00000065788816697891942310000003970616485031480473_);}
	.st163{fill:url(#SVGID_00000177456694171640797590000011098965636302265222_);}
	.st164{fill:url(#SVGID_00000054243000820770789910000004838116307290222521_);}
	.st165{fill:url(#SVGID_00000035502404532156925250000015975196310198681997_);}
	.st166{opacity:0.74;}
</style>
<linearGradient id="SVGID_1_" gradientUnits="userSpaceOnUse" x1="-154.4612" y1="-240.945" x2="-153.7541" y2="-240.2379">
	<stop  offset="0" style="stop-color:#E6E6EB"/>
	<stop  offset="0.1738" style="stop-color:#E2E2E6"/>
	<stop  offset="0.352" style="stop-color:#D5D4D8"/>
	<stop  offset="0.5323" style="stop-color:#C0BFC2"/>
	<stop  offset="0.7139" style="stop-color:#A4A2A4"/>
	<stop  offset="0.8949" style="stop-color:#828282"/>
	<stop  offset="1" style="stop-color:#6B6E6E"/>
</linearGradient>
<g>
	<g>
		<polygon class="st68" points="179.514,35.731 99.276,82.449 99.276,327.602 179.508,280.883 		"/>
		<polygon class="st69" points="46.755,51.898 49.406,295.356 99.276,327.602 99.276,82.449 		"/>
		<polygon class="st70" points="126.993,5.18 179.514,35.731 99.276,82.449 46.755,51.898 		"/>
	</g>
	<g>
		<polygon class="st71" points="107.601,87.384 107.601,332.536 99.276,327.596 99.276,82.449 		"/>
		<polygon class="st72" points="107.601,87.384 107.601,332.536 187.834,285.818 187.839,40.665 		"/>
		<polygon class="st73" points="133.841,72.118 133.841,317.168 161.6,301.147 161.6,56.098 		"/>
		<polygon class="st70" points="179.514,35.731 187.839,40.665 107.601,87.384 99.276,82.449 		"/>
		<polygon class="st74" points="125.16,67.142 133.841,72.118 161.6,56.098 152.92,51.122 		"/>
	</g>
	<g>
		<polygon class="st68" points="95.552,84.561 61.103,104.465 61.103,349.618 95.547,329.714 		"/>
		<polygon class="st69" points="8.583,73.914 8.583,319.061 61.103,349.618 61.103,104.465 		"/>
		<polygon class="st70" points="46.755,51.898 99.276,82.449 61.103,104.465 8.582,73.914 		"/>
	</g>
	<g>
		<polygon class="st72" points="69.429,109.4 69.429,354.552 103.873,334.648 103.878,89.495 		"/>
		<polygon class="st71" points="107.594,271.105 117.227,265.661 117.23,147.81 107.597,153.255 		"/>
		<polygon class="st71" points="94.246,278.503 103.878,273.058 103.882,155.208 94.249,160.653 		"/>
		<polygon class="st71" points="69.429,109.4 69.429,354.552 61.103,349.612 61.103,104.465 		"/>
		<polygon class="st70" points="95.552,84.561 103.878,89.495 69.429,109.4 61.103,104.465 		"/>
	</g>
	<g>
		<g>
			<g>
				<g>
					<polygon class="st63" points="139.566,137.942 139.566,170.872 155.875,161.457 155.875,128.527 					"/>
					<polygon class="st75" points="139.566,137.939 139.566,170.368 154.529,160.812 154.525,129.296 					"/>
					<polygon class="st76" points="139.566,137.939 139.566,170.368 154.525,129.296 					"/>
				</g>
				<g>
					<polygon class="st77" points="154.529,160.812 155.875,161.457 139.566,170.872 139.566,169.447 					"/>
				</g>
			</g>
			<g>
				<path class="st78" d="M142.571,147.156c0.167-0.098,0.249-0.057,0.249,0.182c0,0.235-0.081,0.366-0.249,0.464l-0.971,0.562
					c-0.167,0.1-0.244,0.06-0.244-0.175c0-0.239,0.077-0.37,0.244-0.471L142.571,147.156z"/>
				<path class="st78" d="M145.693,147.189v-1.071c0-0.153,0.052-0.299,0.206-0.387c0.153-0.091,0.21-0.007,0.21,0.146v1.339
					c0,0.187-0.1,0.323-0.21,0.385l-1.626,0.947c-0.11,0.062-0.206,0.043-0.206-0.143c0-0.191,0.096-0.325,0.206-0.387l0.608-0.354
					v-3.065l-0.608,0.354c-0.11,0.062-0.206,0.043-0.206-0.148c0-0.191,0.096-0.32,0.206-0.382l1.018-0.593v3.596L145.693,147.189z"
					/>
				<path class="st78" d="M147.476,146.154l1.42-0.827c0.11-0.062,0.206-0.046,0.206,0.146c0,0.186-0.096,0.323-0.206,0.385
					l-1.836,1.066v-1.731c0-0.397,0.158-0.688,0.469-0.868l1.162-0.677v-1.267l-1.42,0.827c-0.11,0.062-0.21,0.043-0.21-0.148
					c0-0.191,0.1-0.321,0.21-0.382l1.372-0.799c0.134-0.079,0.23-0.11,0.335-0.046c0.115,0.069,0.124,0.206,0.124,0.397v1.085
					c0,0.191-0.01,0.342-0.124,0.55c-0.105,0.179-0.201,0.263-0.335,0.342l-1.167,0.679V146.154z"/>
				<path class="st78" d="M151.865,141.698c0,0.387-0.158,0.669-0.464,0.846l-0.636,0.371c-0.306,0.179-0.464,0.079-0.464-0.308
					v-1.114c0-0.387,0.158-0.67,0.464-0.849l0.636-0.371c0.306-0.177,0.464-0.076,0.464,0.311V141.698z M151.449,140.718
					l-0.736,0.428v1.324l0.736-0.428V140.718z"/>
			</g>
			<g>
				<path class="st78" d="M142.509,141.832l-0.081,0.046c-0.081,0.047-0.187,0.088-0.187-0.065c0-0.148,0.095-0.236,0.187-0.289
					l0.081-0.046v-0.047c0-0.201,0.005-0.349,0.129-0.579c0.139-0.236,0.263-0.323,0.43-0.423l0.191-0.11
					c0.095-0.055,0.201-0.108,0.201,0.055c0,0.153-0.091,0.232-0.187,0.287l-0.22,0.129c-0.187,0.108-0.268,0.201-0.268,0.459v0.067
					l0.244-0.141c0.096-0.057,0.196-0.086,0.196,0.062c0,0.153-0.11,0.241-0.196,0.292l-0.244,0.141v1.377
					c0,0.124-0.019,0.256-0.139,0.326c-0.119,0.069-0.139-0.039-0.139-0.163V141.832z"/>
				<path class="st78" d="M144.187,140.765c0-0.129,0.009-0.27,0.139-0.344c0.11-0.062,0.139,0.041,0.139,0.156v0.143l0.215-0.354
					c0.081-0.127,0.163-0.246,0.249-0.297l0.225-0.129c0.105-0.062,0.196-0.07,0.273-0.022c0.095,0.065,0.124,0.167,0.124,0.33
					c0,0.119-0.019,0.253-0.139,0.323c-0.096,0.057-0.139-0.017-0.139-0.132c0-0.057,0-0.1-0.028-0.136
					c-0.038-0.041-0.105-0.002-0.167,0.036l-0.086,0.048c-0.048,0.028-0.086,0.084-0.134,0.16l-0.392,0.636v0.889
					c0,0.124-0.024,0.256-0.139,0.323c-0.119,0.07-0.139-0.038-0.139-0.163V140.765z"/>
				<path class="st78" d="M146.788,140.964c-0.115,0.067-0.163,0.095-0.249,0.05l-0.124-0.06c-0.105-0.062-0.139-0.124-0.139-0.316
					v-0.679c0-0.187,0.019-0.308,0.139-0.5l0.096-0.163c0.129-0.217,0.196-0.26,0.306-0.328l0.258-0.148
					c0.134-0.079,0.201-0.098,0.311-0.05l0.11,0.05c0.129,0.052,0.143,0.177,0.143,0.373v0.282c0,0.201-0.024,0.273-0.187,0.371
					l-0.899,0.521v0.115c0,0.033,0.02,0.065,0.043,0.081l0.067,0.055c0.038,0.026,0.095,0.012,0.187-0.043l0.602-0.347
					c0.091-0.055,0.187-0.089,0.187,0.06c0,0.153-0.105,0.241-0.187,0.289L146.788,140.964z M146.553,140.015l0.808-0.471v-0.211
					c0-0.067,0.005-0.122-0.033-0.141l-0.11-0.057c-0.033-0.019-0.086,0.007-0.134,0.034l-0.234,0.136
					c-0.052,0.031-0.095,0.057-0.139,0.122l-0.1,0.148c-0.034,0.052-0.058,0.091-0.058,0.191V140.015z"/>
				<path class="st78" d="M148.877,139.749c-0.115,0.067-0.167,0.095-0.254,0.05l-0.12-0.06c-0.105-0.062-0.139-0.124-0.139-0.316
					v-0.679c0-0.187,0.019-0.308,0.134-0.499l0.1-0.163c0.129-0.218,0.191-0.26,0.306-0.325l0.254-0.151
					c0.139-0.079,0.206-0.098,0.311-0.05l0.115,0.05c0.124,0.055,0.143,0.179,0.143,0.376v0.282c0,0.201-0.024,0.272-0.191,0.368
					l-0.894,0.521v0.115c0,0.033,0.019,0.064,0.038,0.081l0.072,0.055c0.038,0.026,0.095,0.012,0.187-0.041l0.597-0.349
					c0.091-0.052,0.191-0.086,0.191,0.062c0,0.153-0.11,0.239-0.191,0.287L148.877,139.749z M148.643,138.801l0.808-0.471v-0.211
					c0-0.067,0.005-0.122-0.038-0.141l-0.105-0.057c-0.033-0.019-0.086,0.007-0.134,0.033l-0.234,0.139
					c-0.053,0.031-0.096,0.055-0.143,0.119l-0.096,0.148c-0.033,0.053-0.057,0.091-0.057,0.191V138.801z"/>
				<path class="st78" d="M151.464,136.622l-0.746,0.433c-0.076,0.046-0.187,0.086-0.187-0.067c0-0.148,0.096-0.234,0.187-0.287
					l0.909-0.528c0.143-0.081,0.187-0.045,0.187,0.079v0.115c0,0.071-0.015,0.129-0.077,0.241l-0.937,1.674l0.827-0.48
					c0.091-0.053,0.187-0.086,0.187,0.062c0,0.153-0.105,0.239-0.187,0.286l-0.971,0.562c-0.191,0.115-0.206,0.022-0.206-0.084
					v-0.091c0-0.086,0.005-0.112,0.053-0.198L151.464,136.622z"/>
			</g>
			<g>
				<path class="st78" d="M141.461,156.709l-0.076,0.046c-0.086,0.047-0.191,0.086-0.191-0.067c0-0.148,0.1-0.235,0.191-0.287
					l0.076-0.046v-0.048c0-0.201,0.01-0.349,0.134-0.581c0.134-0.236,0.258-0.323,0.43-0.421l0.187-0.11
					c0.096-0.055,0.206-0.11,0.206,0.052c0,0.153-0.095,0.232-0.191,0.289l-0.22,0.127c-0.186,0.108-0.263,0.201-0.263,0.459v0.067
					l0.244-0.141c0.096-0.055,0.191-0.084,0.191,0.065c0,0.153-0.11,0.241-0.191,0.289l-0.244,0.141v1.377
					c0,0.124-0.024,0.256-0.143,0.325c-0.119,0.072-0.139-0.036-0.139-0.16V156.709z"/>
				<path class="st78" d="M143.14,155.64c0-0.129,0.014-0.27,0.139-0.344c0.11-0.062,0.139,0.041,0.139,0.155v0.143l0.22-0.351
					c0.077-0.127,0.158-0.246,0.249-0.299l0.22-0.129c0.11-0.062,0.201-0.067,0.273-0.02c0.095,0.065,0.124,0.167,0.124,0.33
					c0,0.119-0.014,0.254-0.134,0.323c-0.1,0.058-0.143-0.019-0.143-0.134c0-0.057,0-0.1-0.029-0.136
					c-0.038-0.041-0.1-0.002-0.167,0.036l-0.081,0.048c-0.052,0.028-0.091,0.084-0.139,0.163l-0.392,0.634v0.889
					c0,0.124-0.019,0.256-0.139,0.323c-0.119,0.07-0.139-0.038-0.139-0.163V155.64z"/>
				<path class="st78" d="M146.056,155.306l0.211-0.122c0.091-0.053,0.191-0.086,0.191,0.062c0,0.153-0.105,0.239-0.191,0.287
					l-0.708,0.414c-0.081,0.046-0.191,0.086-0.191-0.067c0-0.148,0.1-0.229,0.191-0.282l0.22-0.129v-1.272l-0.22,0.129
					c-0.081,0.045-0.191,0.086-0.191-0.067c0-0.148,0.1-0.235,0.191-0.287l0.292-0.17c0.163-0.093,0.206-0.084,0.206,0.127V155.306z
					 M145.635,153.219c0-0.124,0.058-0.201,0.134-0.244l0.158-0.094c0.076-0.043,0.129-0.033,0.129,0.091v0.167
					c0,0.124-0.053,0.196-0.129,0.239l-0.158,0.093c-0.076,0.043-0.134,0.039-0.134-0.086V153.219z"/>
				<path class="st78" d="M148.083,152.504c0.096-0.055,0.172-0.033,0.278,0.033l0.043,0.036v-0.741c0-0.119,0.024-0.251,0.143-0.32
					c0.115-0.067,0.134,0.041,0.134,0.16v2.214c0,0.119-0.019,0.256-0.134,0.323c-0.115,0.065-0.143-0.038-0.143-0.153v-0.024
					l-0.062,0.112c-0.086,0.158-0.182,0.289-0.268,0.34l-0.268,0.155c-0.091,0.053-0.201,0.034-0.239,0.015l-0.096-0.043
					c-0.115-0.058-0.153-0.132-0.153-0.318v-0.707c0-0.187,0.038-0.304,0.153-0.495l0.096-0.163c0.086-0.146,0.153-0.212,0.268-0.28
					L148.083,152.504z M147.596,153.986c0,0.1,0,0.225,0.043,0.241l0.086,0.039c0.033,0.017,0.067,0.031,0.105,0.009l0.196-0.112
					c0.034-0.022,0.086-0.084,0.134-0.17l0.163-0.268c0.043-0.067,0.081-0.134,0.081-0.201v-0.445c0-0.062-0.038-0.086-0.081-0.105
					l-0.163-0.076c-0.048-0.029-0.1-0.029-0.134-0.007l-0.196,0.112c-0.038,0.022-0.072,0.074-0.105,0.129l-0.086,0.134
					c-0.043,0.07-0.043,0.194-0.043,0.294V153.986z"/>
				<path class="st78" d="M149.403,152.389c0-0.163,0.038-0.332,0.095-0.423l0.206-0.318c0.057-0.091,0.1-0.148,0.177-0.191
					l0.268-0.155c0.076-0.043,0.167-0.024,0.273,0.019l0.071,0.031v-0.043c0-0.11,0.043-0.234,0.139-0.289
					c0.124-0.072,0.139,0.05,0.139,0.169v1.717c0,0.316-0.024,0.395-0.139,0.586l-0.091,0.153c-0.124,0.203-0.191,0.263-0.349,0.354
					l-0.459,0.268c-0.086,0.047-0.196,0.093-0.196-0.065c0-0.148,0.1-0.23,0.196-0.284l0.507-0.297
					c0.057-0.033,0.1-0.091,0.139-0.163l0.072-0.122c0.024-0.043,0.043-0.105,0.043-0.172v-0.483l-0.057,0.11
					c-0.067,0.115-0.153,0.26-0.234,0.306l-0.325,0.189c-0.058,0.033-0.124,0.06-0.211,0.014l-0.172-0.095
					c-0.086-0.048-0.091-0.137-0.091-0.28V152.389z M149.68,152.712c0,0.076,0.005,0.15,0.038,0.165l0.115,0.045
					c0.024,0.012,0.047,0.007,0.086-0.014l0.201-0.117c0.033-0.019,0.076-0.081,0.129-0.165l0.215-0.349
					c0.019-0.031,0.028-0.084,0.028-0.132v-0.258c0-0.048-0.009-0.091-0.028-0.098l-0.215-0.1c-0.052-0.026-0.096-0.036-0.129-0.017
					l-0.201,0.117c-0.038,0.022-0.062,0.046-0.086,0.081l-0.115,0.184c-0.033,0.052-0.038,0.131-0.038,0.208V152.712z"/>
				<path class="st78" d="M152.009,152.195c-0.115,0.067-0.167,0.095-0.254,0.05l-0.119-0.06c-0.105-0.062-0.139-0.124-0.139-0.315
					v-0.679c0-0.187,0.019-0.308,0.134-0.499l0.1-0.163c0.129-0.218,0.196-0.261,0.306-0.328l0.258-0.148
					c0.134-0.079,0.201-0.098,0.306-0.05l0.115,0.05c0.129,0.052,0.143,0.177,0.143,0.373v0.282c0,0.201-0.023,0.273-0.191,0.371
					l-0.894,0.521v0.115c0,0.033,0.019,0.064,0.038,0.081l0.072,0.055c0.038,0.026,0.095,0.012,0.186-0.043l0.598-0.347
					c0.091-0.052,0.191-0.089,0.191,0.06c0,0.153-0.105,0.241-0.191,0.289L152.009,152.195z M151.775,151.247l0.808-0.471v-0.211
					c0-0.067,0.005-0.122-0.038-0.141l-0.105-0.057c-0.033-0.019-0.086,0.007-0.134,0.033l-0.235,0.136
					c-0.052,0.031-0.095,0.058-0.139,0.122l-0.1,0.148c-0.034,0.052-0.057,0.091-0.057,0.191V151.247z"/>
			</g>
			<g>
				<path class="st78" d="M146.023,161.424v-1.071c0-0.153,0.057-0.296,0.21-0.385c0.153-0.089,0.206-0.01,0.206,0.143v1.339
					c0,0.187-0.1,0.321-0.206,0.383l-1.63,0.946c-0.11,0.065-0.206,0.046-0.206-0.141c0-0.191,0.096-0.325,0.206-0.39l0.607-0.352
					v-3.064l-0.607,0.351c-0.11,0.065-0.206,0.046-0.206-0.145c0-0.191,0.096-0.321,0.206-0.385l1.018-0.592v3.595L146.023,161.424z
					"/>
				<path class="st78" d="M149.198,157.673c0,0.387-0.158,0.669-0.464,0.848l-0.636,0.371c-0.306,0.177-0.464,0.076-0.464-0.311
					v-1.114c0-0.387,0.158-0.67,0.464-0.847l0.636-0.371c0.306-0.179,0.464-0.079,0.464,0.308V157.673z M148.786,156.695
					l-0.736,0.428v1.325l0.736-0.428V156.695z"/>
			</g>
		</g>
		<g>
			<polygon class="st79" points="135.977,151.938 137.766,150.921 137.77,152.286 135.98,153.303 			"/>
			<polygon class="st36" points="135.761,151.861 137.55,150.843 137.766,150.921 135.977,151.938 			"/>
			<polygon class="st80" points="135.98,153.303 135.764,153.226 135.761,151.861 135.977,151.938 			"/>
		</g>
		<g>
			<polygon class="st79" points="135.977,155.167 137.766,154.149 137.77,155.514 135.98,156.532 			"/>
			<polygon class="st36" points="135.761,155.089 137.55,154.071 137.766,154.149 135.977,155.167 			"/>
			<polygon class="st80" points="135.98,156.532 135.764,156.454 135.761,155.089 135.977,155.167 			"/>
		</g>
		<g>
			<polygon class="st79" points="135.977,158.395 137.766,157.377 137.77,158.742 135.98,159.76 			"/>
			<polygon class="st36" points="135.761,158.317 137.55,157.299 137.766,157.377 135.977,158.395 			"/>
			<polygon class="st80" points="135.98,159.76 135.764,159.682 135.761,158.317 135.977,158.395 			"/>
		</g>
		<g>
			<polygon class="st79" points="157.872,139.296 159.661,138.278 159.664,139.643 157.875,140.661 			"/>
			<polygon class="st36" points="157.655,139.218 159.444,138.2 159.661,138.278 157.872,139.296 			"/>
			<polygon class="st80" points="157.875,140.661 157.659,140.583 157.655,139.218 157.872,139.296 			"/>
		</g>
		<g>
			<polygon class="st79" points="157.872,142.524 159.661,141.506 159.664,142.871 157.875,143.889 			"/>
			<polygon class="st36" points="157.655,142.446 159.444,141.428 159.661,141.506 157.872,142.524 			"/>
			<polygon class="st80" points="157.875,143.889 157.659,143.811 157.655,142.446 157.872,142.524 			"/>
		</g>
		<g>
			<polygon class="st79" points="157.872,145.752 159.661,144.734 159.664,146.099 157.875,147.117 			"/>
			<polygon class="st36" points="157.655,145.674 159.444,144.656 159.661,144.734 157.872,145.752 			"/>
			<polygon class="st80" points="157.875,147.117 157.659,147.039 157.655,145.674 157.872,145.752 			"/>
		</g>
	</g>
</g>
</svg>
