<svg id="Capa_1" data-name="Capa 1" xmlns="http://www.w3.org/2000/svg" viewBox="0 0 184.337 600"><defs><style>.cls-1{fill:#73959d;}.cls-2{fill:#85a4aa;}.cls-3{fill:#e7f2f7;}.cls-4{fill:#98b0b5;}.cls-5{fill:#c1ced0;}.cls-6{fill:#899296;}.cls-7{fill:#abb2b5;}.cls-8{fill:#363636;}.cls-9{fill:#1b1b1b;}.cls-10{fill:#2a292a;}.cls-11{fill:#9a9fa1;}.cls-12{fill:#6999d1;}.cls-13{fill:#d2d4db;}.cls-14{fill:#fff;}.cls-15{fill:#949499;}</style></defs><polygon class="cls-1" points="173.471 281.179 93.233 327.897 93.233 573.05 173.466 526.331 173.471 281.179"/><polygon class="cls-2" points="40.713 297.346 43.364 540.804 93.233 573.05 93.233 327.897 40.713 297.346"/><polygon class="cls-3" points="120.951 250.628 173.471 281.179 93.233 327.897 40.713 297.346 120.951 250.628"/><polygon class="cls-4" points="101.559 332.832 101.559 577.984 93.233 573.044 93.233 327.897 101.559 332.832"/><polygon class="cls-5" points="101.559 332.832 101.559 577.984 181.792 531.266 181.797 286.113 101.559 332.832"/><polygon class="cls-6" points="127.798 317.566 127.798 562.615 155.558 546.595 155.558 301.546 127.798 317.566"/><polygon class="cls-3" points="173.471 281.179 181.797 286.113 101.559 332.832 93.233 327.897 173.471 281.179"/><polygon class="cls-7" points="119.118 312.589 127.798 317.566 155.558 301.546 146.878 296.57 119.118 312.589"/><polygon class="cls-1" points="89.51 330.009 55.061 349.913 55.061 595.066 89.505 575.161 89.51 330.009"/><polygon class="cls-2" points="2.54 319.362 2.54 564.509 55.061 595.066 55.061 349.913 2.54 319.362"/><polygon class="cls-3" points="40.713 297.346 93.233 327.897 55.061 349.913 2.54 319.362 40.713 297.346"/><polygon class="cls-5" points="63.387 354.848 63.387 600 97.831 580.096 97.836 334.943 63.387 354.848"/><polygon class="cls-4" points="101.551 516.553 111.184 511.109 111.188 393.258 101.555 398.703 101.551 516.553"/><polygon class="cls-4" points="88.203 523.951 97.836 518.506 97.839 400.656 88.207 406.101 88.203 523.951"/><polygon class="cls-4" points="63.387 354.848 63.387 600 55.061 595.06 55.061 349.913 63.387 354.848"/><polygon class="cls-3" points="89.51 330.009 97.836 334.943 63.387 354.848 55.061 349.913 89.51 330.009"/><polygon class="cls-8" points="133.524 383.39 133.524 416.32 149.833 406.904 149.833 373.975 133.524 383.39"/><polygon class="cls-9" points="133.524 383.387 133.524 415.816 148.487 406.26 148.483 374.744 133.524 383.387"/><polygon class="cls-10" points="133.524 383.387 133.524 415.816 148.483 374.744 133.524 383.387"/><polygon class="cls-11" points="148.487 406.26 149.833 406.904 133.524 416.32 133.524 414.894 148.487 406.26"/><path class="cls-12" d="M136.528,392.6c.168-.1.249-.058.249.181a.473.473,0,0,1-.249.464l-.971.562c-.167.1-.243.06-.243-.175a.48.48,0,0,1,.243-.471Z"/><path class="cls-12" d="M139.651,392.637v-1.071a.418.418,0,0,1,.2-.387c.153-.091.21-.007.21.146v1.338a.436.436,0,0,1-.21.385L138.23,394c-.11.062-.2.043-.2-.143a.433.433,0,0,1,.2-.388l.608-.354v-3.065l-.608.354c-.11.063-.2.044-.2-.148a.422.422,0,0,1,.2-.382l1.019-.593v3.595Z"/><path class="cls-12" d="M141.434,391.6l1.42-.827c.11-.062.206-.046.206.146a.434.434,0,0,1-.206.385l-1.836,1.066v-1.731a.93.93,0,0,1,.469-.868l1.161-.676v-1.268l-1.42.827c-.11.063-.21.043-.21-.147a.426.426,0,0,1,.21-.383l1.372-.8c.135-.079.23-.111.335-.046s.125.206.125.4v1.085a.994.994,0,0,1-.125.55.848.848,0,0,1-.335.342l-1.166.679Z"/><path class="cls-12" d="M145.823,387.146a.909.909,0,0,1-.464.846l-.636.371c-.306.179-.463.078-.463-.309V386.94a.916.916,0,0,1,.463-.849l.636-.37c.306-.177.464-.077.464.311Zm-.416-.98-.736.428v1.324l.736-.428Z"/><path class="cls-12" d="M136.466,387.28l-.081.045c-.081.048-.187.088-.187-.064a.332.332,0,0,1,.187-.29l.081-.045v-.048a1.039,1.039,0,0,1,.129-.579,1.06,1.06,0,0,1,.43-.423l.192-.11c.095-.055.2-.108.2.055a.315.315,0,0,1-.186.287l-.22.129a.441.441,0,0,0-.268.459v.067l.244-.141c.1-.057.2-.086.2.062a.342.342,0,0,1-.2.292l-.244.141v1.377a.342.342,0,0,1-.138.325c-.12.069-.139-.038-.139-.163Z"/><path class="cls-12" d="M138.144,386.213a.354.354,0,0,1,.139-.344c.11-.062.139.041.139.156v.143l.215-.354a.949.949,0,0,1,.248-.3l.225-.128a.251.251,0,0,1,.273-.022c.095.065.124.168.124.33a.343.343,0,0,1-.138.323c-.1.057-.14-.017-.14-.132a.208.208,0,0,0-.028-.136c-.038-.041-.1,0-.167.036l-.087.048a.458.458,0,0,0-.133.16l-.392.636v.889a.346.346,0,0,1-.139.323c-.119.069-.139-.039-.139-.163Z"/><path class="cls-12" d="M140.745,386.412c-.114.067-.162.1-.248.05l-.125-.06c-.105-.062-.138-.124-.138-.316v-.678a.808.808,0,0,1,.138-.5l.1-.163a.741.741,0,0,1,.306-.327l.258-.148c.134-.079.2-.1.311-.05l.11.05c.129.052.143.177.143.373v.282c0,.2-.024.272-.186.37l-.9.522v.114a.1.1,0,0,0,.043.081l.067.055c.038.027.095.013.186-.042l.6-.347c.091-.055.186-.089.186.06a.336.336,0,0,1-.186.289Zm-.234-.949.808-.471v-.211c0-.066.005-.122-.033-.141l-.11-.057c-.034-.019-.086.007-.134.034l-.235.136a.364.364,0,0,0-.138.122l-.1.148a.29.29,0,0,0-.058.191Z"/><path class="cls-12" d="M142.835,385.2c-.115.067-.167.1-.254.051l-.119-.06c-.1-.062-.139-.124-.139-.316v-.679a.829.829,0,0,1,.134-.5l.1-.163a.7.7,0,0,1,.306-.325l.254-.151c.139-.079.206-.1.311-.05l.114.05c.125.055.144.179.144.376v.282c0,.2-.024.272-.191.368l-.9.521v.115a.116.116,0,0,0,.039.081l.072.055c.038.027.095.012.186-.041l.6-.349c.091-.052.191-.086.191.063a.336.336,0,0,1-.191.286Zm-.235-.949.808-.471v-.21c0-.067.005-.122-.038-.141l-.105-.057c-.033-.02-.086.006-.134.033l-.234.138a.413.413,0,0,0-.143.12l-.1.148a.293.293,0,0,0-.058.192Z"/><path class="cls-12" d="M145.422,382.07l-.747.433c-.076.045-.186.086-.186-.067a.329.329,0,0,1,.186-.287l.909-.528c.144-.082.187-.045.187.079v.115a.454.454,0,0,1-.077.241l-.937,1.673.827-.48c.091-.053.187-.086.187.062a.333.333,0,0,1-.187.287l-.971.562c-.191.114-.205.021-.205-.084v-.091a.31.31,0,0,1,.053-.2Z"/><path class="cls-12" d="M135.419,402.157l-.077.046c-.086.047-.191.085-.191-.068a.329.329,0,0,1,.191-.286l.077-.046v-.048a1.057,1.057,0,0,1,.134-.581.978.978,0,0,1,.43-.42l.186-.11c.1-.055.206-.111.206.052a.325.325,0,0,1-.191.289l-.22.127a.439.439,0,0,0-.263.459v.067l.244-.141c.1-.055.191-.084.191.065a.341.341,0,0,1-.191.289l-.244.141v1.377a.344.344,0,0,1-.144.325c-.119.072-.138-.036-.138-.16Z"/><path class="cls-12" d="M137.1,401.088a.362.362,0,0,1,.139-.344c.11-.062.138.041.138.155v.144l.22-.351a.877.877,0,0,1,.249-.3l.22-.128a.251.251,0,0,1,.272-.02c.1.065.125.168.125.33a.337.337,0,0,1-.134.323c-.1.058-.143-.019-.143-.134a.2.2,0,0,0-.029-.136c-.038-.041-.1,0-.168.036l-.081.048a.41.41,0,0,0-.138.162l-.393.634v.889a.337.337,0,0,1-.138.323c-.12.069-.139-.039-.139-.163Z"/><path class="cls-12" d="M140.014,400.754l.21-.122c.091-.053.191-.086.191.062a.325.325,0,0,1-.191.286l-.708.414c-.081.046-.191.086-.191-.067a.326.326,0,0,1,.191-.282l.22-.129v-1.272l-.22.13c-.081.045-.191.085-.191-.067a.331.331,0,0,1,.191-.287l.292-.17c.163-.093.206-.084.206.127Zm-.421-2.087a.262.262,0,0,1,.134-.244l.158-.094c.076-.043.129-.033.129.091v.168a.251.251,0,0,1-.129.239l-.158.093c-.076.043-.134.038-.134-.086Z"/><path class="cls-12" d="M142.041,397.952a.238.238,0,0,1,.277.033l.044.036v-.741a.342.342,0,0,1,.143-.32c.115-.067.134.04.134.16v2.213a.345.345,0,0,1-.134.323c-.115.065-.143-.038-.143-.153v-.024l-.063.112a.918.918,0,0,1-.267.34l-.268.155a.284.284,0,0,1-.239.015l-.1-.043c-.115-.058-.153-.132-.153-.318v-.708a.845.845,0,0,1,.153-.5l.1-.162a.673.673,0,0,1,.268-.28Zm-.488,1.482c0,.1,0,.225.043.241l.086.039a.1.1,0,0,0,.106.009l.2-.112a.531.531,0,0,0,.134-.17l.162-.268a.4.4,0,0,0,.082-.2v-.445c0-.062-.039-.086-.082-.105l-.162-.077a.128.128,0,0,0-.134-.007l-.2.112a.4.4,0,0,0-.106.129l-.086.134a.634.634,0,0,0-.043.294Z"/><path class="cls-12" d="M143.361,397.837a.882.882,0,0,1,.095-.423l.206-.318a.5.5,0,0,1,.177-.192l.268-.155a.309.309,0,0,1,.272.019l.072.031v-.043a.331.331,0,0,1,.139-.289c.124-.072.138.05.138.17v1.716a.88.88,0,0,1-.138.586l-.091.153a.825.825,0,0,1-.349.354l-.459.268c-.086.047-.2.093-.2-.065a.325.325,0,0,1,.2-.284l.507-.3a.392.392,0,0,0,.138-.162l.072-.122a.367.367,0,0,0,.043-.172v-.484l-.058.111a.932.932,0,0,1-.234.306l-.325.189a.2.2,0,0,1-.21.014l-.173-.1c-.085-.048-.09-.136-.09-.28Zm.277.323c0,.076,0,.15.038.165l.115.045c.024.012.048.007.086-.014l.2-.117a.573.573,0,0,0,.129-.165l.215-.349a.277.277,0,0,0,.029-.132v-.258c0-.048-.01-.091-.029-.1l-.215-.1a.137.137,0,0,0-.129-.017l-.2.117a.231.231,0,0,0-.086.081l-.115.184a.411.411,0,0,0-.038.208Z"/><path class="cls-12" d="M145.967,397.643c-.115.067-.168.1-.254.051l-.12-.061c-.1-.061-.138-.123-.138-.315v-.679a.829.829,0,0,1,.134-.5l.1-.163a.729.729,0,0,1,.306-.327l.259-.149c.133-.079.2-.1.305-.05l.115.05c.129.053.144.177.144.373v.282c0,.2-.024.273-.191.371l-.894.521v.115a.115.115,0,0,0,.038.081l.071.055c.038.027.1.012.187-.043l.6-.347c.09-.052.191-.088.191.06a.331.331,0,0,1-.191.289Zm-.234-.949.807-.471v-.21c0-.067,0-.122-.038-.141l-.105-.057c-.033-.02-.086.006-.134.033l-.234.136a.368.368,0,0,0-.139.122l-.1.148a.293.293,0,0,0-.057.192Z"/><path class="cls-12" d="M139.981,406.872V405.8a.42.42,0,0,1,.21-.385c.153-.088.2-.009.2.144V406.9a.439.439,0,0,1-.2.383l-1.631.947c-.11.064-.205.045-.205-.141a.439.439,0,0,1,.205-.39l.607-.351V404.28l-.607.351c-.11.065-.205.046-.205-.145a.432.432,0,0,1,.205-.386l1.019-.592v3.6Z"/><path class="cls-12" d="M143.155,403.121a.913.913,0,0,1-.463.848l-.636.371c-.306.176-.464.076-.464-.311v-1.114a.911.911,0,0,1,.464-.847l.636-.37c.306-.179.463-.079.463.308Zm-.411-.979-.736.428V403.9l.736-.428Z"/><polygon class="cls-13" points="129.935 397.386 131.724 396.369 131.728 397.733 129.938 398.751 129.935 397.386"/><polygon class="cls-14" points="129.718 397.309 131.507 396.291 131.724 396.369 129.935 397.386 129.718 397.309"/><polygon class="cls-15" points="129.938 398.751 129.722 398.674 129.718 397.309 129.935 397.386 129.938 398.751"/><polygon class="cls-13" points="129.935 400.615 131.724 399.597 131.728 400.961 129.938 401.979 129.935 400.615"/><polygon class="cls-14" points="129.718 400.537 131.507 399.519 131.724 399.597 129.935 400.615 129.718 400.537"/><polygon class="cls-15" points="129.938 401.979 129.722 401.902 129.718 400.537 129.935 400.615 129.938 401.979"/><polygon class="cls-13" points="129.935 403.843 131.724 402.825 131.728 404.189 129.938 405.207 129.935 403.843"/><polygon class="cls-14" points="129.718 403.765 131.507 402.747 131.724 402.825 129.935 403.843 129.718 403.765"/><polygon class="cls-15" points="129.938 405.207 129.722 405.13 129.718 403.765 129.935 403.843 129.938 405.207"/><polygon class="cls-13" points="151.829 384.744 153.618 383.726 153.622 385.091 151.833 386.108 151.829 384.744"/><polygon class="cls-14" points="151.612 384.666 153.402 383.648 153.618 383.726 151.829 384.744 151.612 384.666"/><polygon class="cls-15" points="151.833 386.108 151.616 386.031 151.612 384.666 151.829 384.744 151.833 386.108"/><polygon class="cls-13" points="151.829 387.972 153.618 386.954 153.622 388.319 151.833 389.336 151.829 387.972"/><polygon class="cls-14" points="151.612 387.894 153.402 386.876 153.618 386.954 151.829 387.972 151.612 387.894"/><polygon class="cls-15" points="151.833 389.336 151.616 389.259 151.612 387.894 151.829 387.972 151.833 389.336"/><polygon class="cls-13" points="151.829 391.2 153.618 390.182 153.622 391.547 151.833 392.565 151.829 391.2"/><polygon class="cls-14" points="151.612 391.122 153.402 390.104 153.618 390.182 151.829 391.2 151.612 391.122"/><polygon class="cls-15" points="151.833 392.565 151.616 392.487 151.612 391.122 151.829 391.2 151.833 392.565"/></svg>