<?xml version="1.0" encoding="utf-8"?>
<!-- Generator: Adobe Illustrator 26.0.1, SVG Export Plug-In . SVG Version: 6.00 Build 0)  -->
<svg version="1.0" id="Capa_1" xmlns="http://www.w3.org/2000/svg" xmlns:xlink="http://www.w3.org/1999/xlink" x="0px" y="0px"
	 viewBox="0 0 188.444 362.801" enable-background="new 0 0 188.444 362.801" xml:space="preserve">
<g>
	<g>
		<g enable-background="new    ">
			<g>
				<polygon fill="#1B2E31" points="64.954,360.798 1.717,323.906 1.717,314.919 64.954,351.812 				"/>
			</g>
			<g>
				<polygon fill="#A4AEB0" points="64.954,351.812 1.717,314.919 119.828,246.546 183.066,283.439 				"/>
			</g>
			<g>
				<polygon fill="#355A60" points="183.066,283.439 183.066,292.425 64.954,360.798 64.954,351.812 				"/>
			</g>
		</g>
	</g>
	<g>
		<g>
			<g enable-background="new    ">
				<g>
					<polygon fill="#5F7174" points="59.391,354.984 5.519,322.657 5.072,75.208 58.943,107.533 					"/>
				</g>
				<g>
					<polygon fill="#96AAAD" points="58.943,107.533 5.072,75.208 132.034,1.892 185.906,34.217 					"/>
				</g>
				<g>
					<polygon fill="#E6EBEC" points="185.906,34.217 186.353,281.668 59.391,354.984 58.943,107.533 					"/>
				</g>
			</g>
		</g>
		<polygon fill="#E6EBEC" points="56.142,105.488 182.968,32.094 185.612,33.633 185.612,37.071 58.653,110.276 58.653,106.947 		
			"/>
	</g>
</g>
<g>
	<polygon fill="#3B7882" points="156.309,123.958 156.212,89.33 153.311,91.001 153.4,121.575 86.455,160.227 86.468,164.282 	"/>
	<polygon fill="#A6DBF6" points="153.311,91.001 86.367,129.649 86.455,160.227 153.4,121.575 	"/>
</g>
<g>
	<polygon fill="#3B7882" points="156.309,173.594 156.212,138.965 153.311,140.636 153.4,171.21 86.455,209.862 86.468,213.917 	"/>
	<polygon fill="#A6DBF6" points="153.311,140.636 86.367,179.284 86.455,209.862 153.4,171.21 	"/>
</g>
<g>
	<path fill="#355A60" d="M156.008,207.028c-0.289-0.057-0.613-0.038-0.927-0.046c-0.21-0.003-0.405-0.049-0.624-0.026
		c-0.367,0.03-0.76,0.148-1.148,0.25c-0.193,0.049-0.373,0.06-0.569,0.125c-0.594,0.204-1.21,0.484-1.844,0.851l-7.79-4.649
		c2.531-1.46,4.829-1.6,6.481-0.635l7.792,4.648c-0.005-0.003-0.013-0.007-0.021-0.011c-0.233-0.132-0.503-0.197-0.764-0.287
		C156.396,207.175,156.218,207.077,156.008,207.028z"/>
	<path fill="#355A60" d="M143.106,203.533l7.79,4.649c-5.01,2.894-9.069,9.922-9.05,15.679c0,0.719,0.066,1.38,0.189,1.989
		c0.04,0.201,0.123,0.356,0.176,0.548c0.108,0.378,0.203,0.772,0.356,1.097c0.093,0.193,0.223,0.34,0.331,0.511
		c0.164,0.268,0.31,0.56,0.507,0.775c0.14,0.159,0.316,0.253,0.471,0.39c0.203,0.174,0.39,0.378,0.621,0.511l-7.794-4.645
		c-1.63-0.949-2.642-2.962-2.65-5.822C134.035,213.454,138.094,206.43,143.106,203.533z"/>
	<path fill="#63B22F" d="M142.898,228.006c-0.108-0.17-0.24-0.318-0.331-0.511c-0.153-0.325-0.248-0.719-0.356-1.097
		c-0.053-0.193-0.136-0.348-0.176-0.548c-0.123-0.609-0.189-1.271-0.189-1.989c-0.019-5.757,4.04-12.785,9.05-15.679
		c0.634-0.363,1.25-0.647,1.844-0.851c0.197-0.064,0.376-0.076,0.569-0.125c0.387-0.102,0.781-0.22,1.148-0.25
		c0.22-0.023,0.414,0.019,0.624,0.026c0.314,0.008,0.637-0.011,0.927,0.046c0.21,0.049,0.388,0.147,0.586,0.219
		c0.261,0.091,0.531,0.155,0.764,0.287c1.642,0.942,2.661,2.962,2.67,5.829c0.015,5.754-4.04,12.785-9.073,15.69
		c-2.873,1.657-5.413,1.551-7.081,0.117c-0.155-0.136-0.331-0.231-0.471-0.39C143.208,228.566,143.061,228.275,142.898,228.006z"/>
	<path fill="#5F7174" d="M150.896,208.182c0.634-0.367,1.25-0.647,1.844-0.851C152.146,207.535,151.53,207.819,150.896,208.182z"/>
	<path fill="#5F7174" d="M155.082,206.982c0.314,0.008,0.637-0.011,0.927,0.046C155.719,206.971,155.395,206.99,155.082,206.982z"/>
	<path fill="#5F7174" d="M154.457,206.956c-0.367,0.03-0.76,0.148-1.148,0.25C153.697,207.104,154.09,206.986,154.457,206.956z"/>
	<path fill="#5F7174" d="M157.359,207.535c-0.233-0.132-0.503-0.197-0.764-0.287C156.856,207.338,157.126,207.402,157.359,207.535z"
		/>
	<path fill="#5F7174" d="M142.567,227.496c0.091,0.193,0.223,0.34,0.331,0.511C142.79,227.836,142.659,227.688,142.567,227.496z"/>
	<path fill="#5F7174" d="M143.404,228.782c0.14,0.159,0.316,0.253,0.471,0.39C143.721,229.035,143.545,228.941,143.404,228.782z"/>
	<path fill="#5F7174" d="M142.035,225.85c0.04,0.201,0.123,0.356,0.176,0.548C142.158,226.206,142.075,226.051,142.035,225.85z"/>
</g>
<g>
	<path fill="#355A60" d="M117.675,224.508c-0.338-0.067-0.716-0.044-1.083-0.053c-0.245-0.004-0.473-0.058-0.73-0.031
		c-0.429,0.035-0.889,0.173-1.342,0.292c-0.226,0.058-0.436,0.071-0.666,0.146c-0.694,0.239-1.415,0.566-2.156,0.995l-9.106-5.434
		c2.958-1.706,5.644-1.87,7.576-0.743l9.108,5.433c-0.006-0.004-0.015-0.009-0.024-0.013c-0.272-0.155-0.588-0.23-0.893-0.336
		C118.128,224.68,117.92,224.565,117.675,224.508z"/>
	<path fill="#355A60" d="M102.593,220.422l9.106,5.434c-5.856,3.383-10.6,11.597-10.578,18.327c0,0.84,0.077,1.614,0.221,2.325
		c0.047,0.235,0.144,0.416,0.206,0.641c0.126,0.442,0.237,0.902,0.416,1.282c0.108,0.225,0.261,0.398,0.387,0.597
		c0.192,0.314,0.362,0.654,0.592,0.906c0.164,0.186,0.369,0.296,0.551,0.455c0.237,0.203,0.455,0.442,0.725,0.597l-9.11-5.429
		c-1.906-1.11-3.089-3.462-3.097-6.805C91.991,232.019,96.735,223.809,102.593,220.422z"/>
	<path fill="#63B22F" d="M102.35,249.029c-0.126-0.199-0.281-0.372-0.387-0.597c-0.179-0.38-0.29-0.84-0.416-1.282
		c-0.062-0.225-0.159-0.407-0.206-0.641c-0.144-0.712-0.221-1.485-0.221-2.325c-0.022-6.73,4.722-14.944,10.578-18.327
		c0.741-0.424,1.461-0.756,2.156-0.995c0.23-0.075,0.44-0.088,0.666-0.146c0.453-0.12,0.913-0.257,1.342-0.292
		c0.257-0.027,0.484,0.022,0.73,0.031c0.367,0.009,0.745-0.013,1.083,0.053c0.245,0.057,0.453,0.172,0.685,0.256
		c0.305,0.106,0.621,0.181,0.893,0.336c1.919,1.101,3.11,3.462,3.121,6.813c0.018,6.725-4.722,14.944-10.605,18.34
		c-3.358,1.936-6.327,1.813-8.277,0.137c-0.181-0.159-0.387-0.27-0.551-0.455C102.712,249.683,102.54,249.342,102.35,249.029z"/>
	<path fill="#5F7174" d="M111.699,225.856c0.741-0.429,1.461-0.756,2.156-0.995C113.161,225.1,112.44,225.432,111.699,225.856z"/>
	<path fill="#5F7174" d="M116.592,224.454c0.367,0.009,0.745-0.013,1.083,0.053C117.336,224.441,116.958,224.463,116.592,224.454z"
		/>
	<path fill="#5F7174" d="M115.862,224.423c-0.429,0.035-0.889,0.173-1.342,0.292C114.973,224.596,115.433,224.459,115.862,224.423z"
		/>
	<path fill="#5F7174" d="M119.253,225.1c-0.272-0.155-0.588-0.23-0.893-0.336C118.665,224.87,118.981,224.945,119.253,225.1z"/>
	<path fill="#5F7174" d="M101.963,248.431c0.106,0.225,0.261,0.398,0.387,0.597C102.224,248.829,102.071,248.657,101.963,248.431z"
		/>
	<path fill="#5F7174" d="M102.942,249.935c0.164,0.186,0.369,0.296,0.551,0.455C103.312,250.231,103.106,250.121,102.942,249.935z"
		/>
	<path fill="#5F7174" d="M101.342,246.508c0.047,0.235,0.144,0.416,0.206,0.641C101.485,246.924,101.389,246.743,101.342,246.508z"
		/>
</g>
<g>
	<g>
		<g>
			<path fill="#2B3235" d="M104.577,310.368l23.813-60.357c2.077-5.273,7.687-7.833,10.379-4.167l24.069,32.708
				c2.497,3.377-0.106,9.43-3.847,11.591l-47.885,27.646C106.589,320.398,102.18,316.45,104.577,310.368z"/>
		</g>
		<g>
			<path fill="#FBBB26" d="M136.878,247.231l24.071,32.711c1.457,1.972-0.297,6.533-3.132,8.17l-47.884,27.646
				c-2.836,1.637-4.609-0.888-3.173-4.529l23.812-60.356C131.796,247.765,135.281,245.056,136.878,247.231z"/>
		</g>
	</g>
	<g>
		<polygon fill="#2B3235" points="139.556,266.231 132.327,281.055 138.801,277.317 128.567,296.509 133.266,282.838 
			128.164,285.783 131.822,270.696 		"/>
	</g>
</g>
</svg>
