<svg id="Capa_1" data-name="Capa 1" xmlns="http://www.w3.org/2000/svg" viewBox="0 0 187.743 600"><defs><style>.cls-1{isolation:isolate;}.cls-2{fill:#1b2e31;}.cls-3{fill:#a4aeb0;}.cls-4{fill:#355a60;}.cls-5{fill:#5f7174;}.cls-6{fill:#96aaad;}.cls-7{fill:#e6ebec;}.cls-8{fill:#3b7882;}.cls-9{fill:#a6dbf6;}.cls-10{fill:#63b22f;}.cls-11{fill:#2b3235;}.cls-12{fill:#fbbb26;}</style></defs><g class="cls-1"><polygon class="cls-2" points="64.791 600 1.553 563.108 1.553 554.121 64.791 591.013 64.791 600"/><polygon class="cls-3" points="64.791 591.013 1.553 554.121 119.665 485.748 182.902 522.641 64.791 591.013"/><polygon class="cls-4" points="182.902 522.641 182.902 531.627 64.791 600 64.791 591.013 182.902 522.641"/></g><g class="cls-1"><polygon class="cls-5" points="59.228 594.186 5.356 561.859 4.909 314.409 58.78 346.734 59.228 594.186"/><polygon class="cls-6" points="58.78 346.734 4.909 314.409 131.87 241.093 185.743 273.419 58.78 346.734"/><polygon class="cls-7" points="185.743 273.419 186.189 520.87 59.228 594.186 58.78 346.734 185.743 273.419"/></g><polygon class="cls-7" points="55.979 344.69 182.805 271.296 185.449 272.835 185.449 276.272 58.49 349.478 58.49 346.148 55.979 344.69"/><polygon class="cls-8" points="156.146 363.16 156.049 328.532 153.148 330.203 153.237 360.777 86.292 399.429 86.305 403.484 156.146 363.16"/><polygon class="cls-9" points="153.148 330.203 86.204 368.85 86.292 399.429 153.237 360.777 153.148 330.203"/><polygon class="cls-8" points="156.146 412.795 156.049 378.167 153.148 379.838 153.237 410.412 86.292 449.064 86.305 453.119 156.146 412.795"/><polygon class="cls-9" points="153.148 379.838 86.204 418.486 86.292 449.064 153.237 410.412 153.148 379.838"/><path class="cls-4" d="M155.845,446.23a5.723,5.723,0,0,0-.926-.046,4.946,4.946,0,0,0-.625-.026,6.891,6.891,0,0,0-1.148.25c-.193.049-.372.06-.569.124a10.485,10.485,0,0,0-1.844.851l-7.79-4.649c2.53-1.46,4.828-1.6,6.481-.635l7.792,4.649-.02-.012a4.59,4.59,0,0,0-.765-.287A5.072,5.072,0,0,0,155.845,446.23Z"/><path class="cls-4" d="M142.943,442.734l7.79,4.649c-5.01,2.894-9.069,9.922-9.05,15.679a10.037,10.037,0,0,0,.189,1.99c.04.2.123.355.176.548a7.462,7.462,0,0,0,.356,1.1,4.769,4.769,0,0,0,.331.511,5.139,5.139,0,0,0,.506.776,4.811,4.811,0,0,0,.471.389,4.369,4.369,0,0,0,.621.511l-7.794-4.645c-1.63-.95-2.643-2.962-2.65-5.822C133.872,452.656,137.931,445.632,142.943,442.734Z"/><path class="cls-10" d="M142.735,467.208a4.62,4.62,0,0,1-.331-.511,7.462,7.462,0,0,1-.356-1.1c-.053-.193-.136-.348-.176-.548a10.037,10.037,0,0,1-.189-1.99c-.019-5.757,4.04-12.785,9.05-15.679a10.783,10.783,0,0,1,1.844-.851c.2-.064.376-.075.569-.124a6.891,6.891,0,0,1,1.148-.25,4.3,4.3,0,0,1,.625.026,5.723,5.723,0,0,1,.926.046,5.072,5.072,0,0,1,.586.219,4.59,4.59,0,0,1,.765.287c1.641.942,2.661,2.962,2.67,5.829.015,5.754-4.04,12.786-9.073,15.691-2.873,1.656-5.412,1.551-7.081.117a4.811,4.811,0,0,1-.471-.389A4.99,4.99,0,0,1,142.735,467.208Z"/><path class="cls-5" d="M150.733,447.383a10.485,10.485,0,0,1,1.844-.851A10.783,10.783,0,0,0,150.733,447.383Z"/><path class="cls-5" d="M154.919,446.184a5.723,5.723,0,0,1,.926.046A5.723,5.723,0,0,0,154.919,446.184Z"/><path class="cls-5" d="M154.294,446.158a6.891,6.891,0,0,0-1.148.25A6.891,6.891,0,0,1,154.294,446.158Z"/><path class="cls-5" d="M157.2,446.736a4.59,4.59,0,0,0-.765-.287A4.59,4.59,0,0,1,157.2,446.736Z"/><path class="cls-5" d="M142.4,466.7a4.62,4.62,0,0,0,.331.511A4.769,4.769,0,0,1,142.4,466.7Z"/><path class="cls-5" d="M143.241,467.984a4.811,4.811,0,0,0,.471.389A4.811,4.811,0,0,1,143.241,467.984Z"/><path class="cls-5" d="M141.872,465.052c.04.2.123.355.176.548C142,465.407,141.912,465.252,141.872,465.052Z"/><path class="cls-4" d="M117.511,463.709a6.725,6.725,0,0,0-1.083-.053,5.65,5.65,0,0,0-.729-.031,8.076,8.076,0,0,0-1.342.292c-.226.058-.435.071-.665.146a12.236,12.236,0,0,0-2.156,1l-9.106-5.434c2.958-1.707,5.644-1.871,7.576-.743l9.108,5.434-.024-.014a5.376,5.376,0,0,0-.893-.336A6.114,6.114,0,0,0,117.511,463.709Z"/><path class="cls-4" d="M102.43,459.624l9.106,5.434c-5.856,3.382-10.6,11.6-10.578,18.327a11.716,11.716,0,0,0,.221,2.325c.046.234.143.415.2.641a8.715,8.715,0,0,0,.416,1.282,5.668,5.668,0,0,0,.387.6,5.961,5.961,0,0,0,.592.907,5.519,5.519,0,0,0,.551.455,5.077,5.077,0,0,0,.725.6l-9.11-5.429c-1.906-1.11-3.089-3.463-3.1-6.805C91.828,471.221,96.572,463.011,102.43,459.624Z"/><path class="cls-10" d="M102.187,488.23a5.367,5.367,0,0,1-.387-.6,8.715,8.715,0,0,1-.416-1.282c-.062-.226-.159-.407-.2-.641a11.716,11.716,0,0,1-.221-2.325c-.022-6.73,4.722-14.945,10.578-18.327a12.532,12.532,0,0,1,2.156-1c.23-.075.439-.088.665-.146a8.076,8.076,0,0,1,1.342-.292,4.877,4.877,0,0,1,.729.031,6.725,6.725,0,0,1,1.083.053,6.114,6.114,0,0,1,.686.256,5.376,5.376,0,0,1,.893.336c1.919,1.1,3.111,3.463,3.122,6.814.017,6.725-4.723,14.944-10.605,18.34-3.358,1.936-6.327,1.813-8.277.137a5.519,5.519,0,0,1-.551-.455A5.813,5.813,0,0,1,102.187,488.23Z"/><path class="cls-5" d="M111.536,465.058a12.236,12.236,0,0,1,2.156-1A12.532,12.532,0,0,0,111.536,465.058Z"/><path class="cls-5" d="M116.428,463.656a6.725,6.725,0,0,1,1.083.053A6.725,6.725,0,0,0,116.428,463.656Z"/><path class="cls-5" d="M115.7,463.625a8.076,8.076,0,0,0-1.342.292A8.076,8.076,0,0,1,115.7,463.625Z"/><path class="cls-5" d="M119.09,464.3a5.376,5.376,0,0,0-.893-.336A5.376,5.376,0,0,1,119.09,464.3Z"/><path class="cls-5" d="M101.8,487.633a5.367,5.367,0,0,0,.387.6A5.668,5.668,0,0,1,101.8,487.633Z"/><path class="cls-5" d="M102.779,489.137a5.519,5.519,0,0,0,.551.455A5.519,5.519,0,0,1,102.779,489.137Z"/><path class="cls-5" d="M101.179,485.71c.046.234.143.415.2.641C101.322,486.125,101.225,485.944,101.179,485.71Z"/><path class="cls-11" d="M104.414,549.57l23.813-60.358c2.077-5.273,7.687-7.833,10.379-4.167l24.068,32.708c2.5,3.377-.105,9.43-3.847,11.591L110.943,556.99C106.426,559.6,102.017,555.651,104.414,549.57Z"/><path class="cls-12" d="M136.715,486.432l24.071,32.711c1.456,1.972-.3,6.533-3.133,8.17L109.77,554.959c-2.836,1.637-4.609-.888-3.174-4.53l23.813-60.356C131.633,486.966,135.118,484.258,136.715,486.432Z"/><polygon class="cls-11" points="139.393 505.433 132.164 520.257 138.638 516.519 128.403 535.711 133.103 522.039 128.001 524.985 131.659 509.898 139.393 505.433"/></svg>