<svg id="Capa_1" data-name="Capa 1" xmlns="http://www.w3.org/2000/svg" viewBox="0 0 334.985 600"><defs><style>.cls-1{fill:#020303;opacity:0.3;}.cls-1,.cls-25{isolation:isolate;}.cls-2{fill:#f4efe9;}.cls-3{fill:#fff;}.cls-4{fill:#d1d1d1;}.cls-5{fill:#e0dcd7;}.cls-6{fill:#cc934c;}.cls-7{fill:#594b44;}.cls-8{fill:#e4bf62;}.cls-9{fill:#fdeb7a;}.cls-10{fill:#6a5952;}.cls-11{fill:#85706b;}.cls-12{fill:#403531;}.cls-13{fill:#d7d1c7;}.cls-14{fill:#a49d97;}.cls-15{fill:#090a0a;}.cls-16{fill:#e6e1dd;}.cls-17{fill:#8ccecd;}.cls-18{fill:#eb5e56;}.cls-19,.cls-25{fill:#18445d;}.cls-20{fill:#2a5e7a;}.cls-21{fill:#2c6380;}.cls-22{fill:#4590b8;}.cls-23{fill:#123242;}.cls-24{fill:#231c1c;}.cls-25{opacity:0.7;}</style></defs><polygon class="cls-1" points="208.007 519.232 213.449 516.092 146.839 477.639 1.502 561.552 68.117 600 203.688 521.724 329.163 594.171 333.483 591.679 208.007 519.232"/><polygon class="cls-2" points="145.493 384.957 68.117 598.107 1.502 559.656 1.502 333.461 111.201 345.377 145.493 384.957"/><polygon class="cls-3" points="1.502 333.461 146.839 249.547 213.449 288.002 145.493 384.957 68.117 371.911 1.502 333.461"/><path class="cls-4" d="M68.117,371.911v226.2l145.332-83.916V288Z"/><path class="cls-2" d="M82.237,380.391V573.722l114.389-66.07V314.329Z"/><path class="cls-5" d="M86.208,389.14v77.314l104.273-60.22v-77.3Z"/><polygon class="cls-3" points="192.425 327.809 192.425 407.371 86.208 468.704 86.208 466.454 190.481 406.233 190.481 328.936 192.425 327.809"/><path class="cls-5" d="M86.208,484.178v77.3l104.273-60.21V423.98Z"/><polygon class="cls-3" points="192.425 422.849 192.425 502.402 86.208 563.741 86.208 561.484 190.481 501.273 190.481 423.98 192.425 422.849"/><polygon class="cls-3" points="199.341 312.77 199.341 509.216 82.237 576.841 82.237 573.722 196.625 507.652 196.625 314.329 199.341 312.77"/><polygon class="cls-2" points="182.917 362.596 176.185 402.683 170.386 399.338 170.386 358.102 179.936 359.146 182.917 362.596"/><polygon class="cls-3" points="170.386 358.102 183.033 350.808 188.837 354.148 182.917 362.596 176.185 361.458 170.386 358.102"/><path class="cls-4" d="M176.185,361.458v41.225l12.653-7.3V354.148Z"/><path class="cls-6" d="M177.978,384.421v7.31l9.071-5.241v-7.3Z"/><polygon class="cls-7" points="182.513 362.444 177.654 365.245 177.654 362.738 182.513 359.936 182.513 362.444"/><path class="cls-8" d="M176.185,367.591V369.4l12.653-7.307v-1.8Z"/><polygon class="cls-8" points="186.322 390.089 182.044 395.103 177.239 392.332 177.239 388.361 185.149 389.225 186.322 390.089"/><polygon class="cls-9" points="177.239 388.361 187.722 382.313 192.52 385.083 187.732 389.336 182.044 391.136 177.239 388.361"/><path class="cls-6" d="M182.044,391.136V395.1l10.476-6.054v-3.966Z"/><polygon class="cls-2" points="169.869 370.123 163.138 410.217 157.338 406.877 157.338 365.647 166.888 366.678 169.869 370.123"/><polygon class="cls-3" points="157.338 365.647 169.991 358.334 175.791 361.685 169.869 370.123 163.138 368.991 157.338 365.647"/><polygon class="cls-4" points="163.138 368.991 163.138 410.217 175.791 402.921 175.791 361.685 163.138 368.991"/><polygon class="cls-6" points="164.929 391.958 164.929 399.265 173.999 394.029 173.999 386.723 164.929 391.958"/><polygon class="cls-7" points="169.464 369.976 164.607 372.785 164.607 370.277 169.464 367.469 169.464 369.976"/><polygon class="cls-8" points="163.138 375.123 163.138 376.929 175.791 369.63 175.791 367.823 163.138 375.123"/><polygon class="cls-8" points="173.266 397.626 169 402.636 164.192 399.866 164.192 395.899 172.103 396.757 173.266 397.626"/><polygon class="cls-9" points="164.192 395.899 174.669 389.84 179.472 392.617 174.68 396.868 169 398.665 164.192 395.899"/><polygon class="cls-6" points="169 398.665 169 402.636 179.472 396.579 179.472 392.617 169 398.665"/><polygon class="cls-2" points="156.821 377.662 150.087 417.754 144.285 414.404 144.285 373.174 153.84 374.212 156.821 377.662"/><polygon class="cls-3" points="144.285 373.174 156.937 365.873 162.736 369.223 156.821 377.662 150.087 376.524 144.285 373.174"/><polygon class="cls-4" points="150.087 376.524 150.087 417.754 162.736 410.448 162.736 369.223 150.087 376.524"/><polygon class="cls-6" points="151.878 399.491 151.878 406.802 160.952 401.567 160.952 394.256 151.878 399.491"/><polygon class="cls-7" points="156.411 377.503 151.556 380.312 151.556 377.804 156.411 374.996 156.411 377.503"/><polygon class="cls-8" points="150.087 382.661 150.087 384.468 162.736 377.156 162.736 375.354 150.087 382.661"/><polygon class="cls-8" points="160.214 405.159 155.947 410.164 151.14 407.398 151.14 403.426 159.05 404.295 160.214 405.159"/><polygon class="cls-9" points="151.14 403.426 161.62 397.379 166.424 400.155 161.626 404.394 155.947 406.207 151.14 403.426"/><polygon class="cls-6" points="155.947 406.207 155.947 410.164 166.424 404.116 166.424 400.155 155.947 406.207"/><polygon class="cls-2" points="143.771 385.19 137.036 425.286 131.241 421.942 131.241 380.707 140.786 381.739 143.771 385.19"/><polygon class="cls-3" points="131.241 380.707 143.886 373.406 149.689 376.756 143.771 385.19 137.036 384.057 131.241 380.707"/><polygon class="cls-4" points="137.036 384.057 137.036 425.286 149.689 417.98 149.689 376.756 137.036 384.057"/><polygon class="cls-6" points="138.827 407.029 138.827 414.337 147.898 409.1 147.898 401.787 138.827 407.029"/><polygon class="cls-7" points="143.362 385.047 138.507 387.85 138.507 385.341 143.362 382.534 143.362 385.047"/><polygon class="cls-8" points="137.036 390.194 137.036 392 149.689 384.689 149.689 382.888 137.036 390.194"/><polygon class="cls-8" points="147.168 412.698 142.899 417.701 138.092 414.93 138.092 410.97 146.002 411.823 147.168 412.698"/><polygon class="cls-9" points="138.092 410.97 148.573 404.91 153.377 407.688 148.582 411.939 142.899 413.741 138.092 410.97"/><polygon class="cls-6" points="142.899 413.741 142.899 417.701 153.377 411.65 153.377 407.688 142.899 413.741"/><polygon class="cls-2" points="130.723 392.728 123.988 432.82 118.188 429.475 118.188 388.24 127.736 389.282 130.723 392.728"/><polygon class="cls-3" points="118.188 388.24 130.838 380.944 136.64 384.29 130.723 392.728 123.988 391.589 118.188 388.24"/><polygon class="cls-4" points="123.988 391.589 123.988 432.82 136.64 425.521 136.64 384.29 123.988 391.589"/><polygon class="cls-6" points="125.779 414.568 125.779 421.869 134.849 416.632 134.849 409.327 125.779 414.568"/><polygon class="cls-7" points="130.314 392.58 125.455 395.387 125.455 392.88 130.314 390.072 130.314 392.58"/><polygon class="cls-8" points="123.988 397.726 123.988 399.533 136.64 392.228 136.64 390.425 123.988 397.726"/><polygon class="cls-8" points="134.118 420.231 129.851 425.234 125.042 422.464 125.042 418.496 132.951 419.356 134.118 420.231"/><polygon class="cls-9" points="125.042 418.496 135.519 412.45 140.326 415.221 135.533 419.471 129.851 421.272 125.042 418.496"/><polygon class="cls-6" points="129.851 421.272 129.851 425.234 140.326 419.187 140.326 415.221 129.851 421.272"/><polygon class="cls-2" points="104.621 407.793 97.887 447.891 92.092 444.545 92.092 403.311 101.637 404.342 104.621 407.793"/><polygon class="cls-3" points="92.092 403.311 117.788 388.477 123.588 391.816 104.621 407.793 97.887 406.661 92.092 403.311"/><path class="cls-4" d="M97.887,406.661v41.231l25.7-14.84V391.817Z"/><polygon class="cls-7" points="104.213 407.65 99.356 410.453 99.356 407.951 104.213 405.143 104.213 407.65"/><path class="cls-8" d="M97.887,412.8v1.8l25.7-14.839v-1.8Z"/><polygon class="cls-6" points="100.091 414.983 100.091 422.29 109.162 417.054 109.162 409.747 100.091 414.983"/><polygon class="cls-10" points="119.042 426.486 116.505 434.147 113.647 432.498 113.647 425.466 118.352 425.973 119.042 426.486"/><polygon class="cls-11" points="113.647 425.466 119.874 421.869 122.73 423.511 119.88 426.041 116.505 427.109 113.647 425.466"/><polygon class="cls-12" points="116.505 427.109 116.505 434.147 122.73 430.555 122.73 423.511 116.505 427.109"/><polygon class="cls-8" points="108.433 420.646 104.159 425.658 99.356 422.886 99.356 418.919 107.266 419.784 108.433 420.646"/><polygon class="cls-9" points="99.356 418.919 109.835 412.871 114.638 415.642 109.844 419.893 104.159 421.694 99.356 418.919"/><polygon class="cls-6" points="104.159 421.694 104.159 425.658 114.638 419.609 114.638 415.642 104.159 421.694"/><polygon class="cls-13" points="182.917 457.879 125.058 527.412 119.255 524.065 119.255 482.836 179.936 454.428 182.917 457.879"/><polygon class="cls-13" points="119.255 482.836 183.033 446.09 188.837 449.43 182.917 457.879 125.058 486.183 119.255 482.836"/><path class="cls-14" d="M125.058,486.183v41.229l63.78-36.749V449.429Z"/><path class="cls-4" d="M129.583,490.89v24.657l49.668-28.671V462.215Z"/><polygon class="cls-7" points="176.774 467.403 176.774 471.907 147.374 488.874 147.374 487.965 175.991 471.448 175.991 467.86 176.774 467.403"/><polygon class="cls-14" points="175.991 467.86 175.991 471.448 147.374 487.965 147.374 484.391 175.991 467.86"/><polygon class="cls-14" points="138.108 507.207 131.542 510.996 131.542 500.807 138.108 497.011 138.108 507.207"/><polygon class="cls-15" points="137.253 498.909 137.253 506.293 132.398 509.1 132.398 507.798 136.143 505.642 136.143 499.546 137.253 498.909"/><polygon class="cls-7" points="136.143 499.546 136.143 505.642 132.398 507.798 132.398 501.716 136.143 499.546"/><polygon class="cls-16" points="135.205 501.067 135.205 505.197 133.335 506.265 133.335 502.154 135.205 501.067"/><polygon class="cls-14" points="144.674 503.408 138.108 507.207 138.108 497.011 144.674 493.219 144.674 503.408"/><polygon class="cls-3" points="131.542 491.965 131.542 498.819 144.674 491.243 144.674 484.379 131.542 491.965"/><polygon class="cls-17" points="132.69 492.434 132.69 495.065 137.724 492.157 137.724 489.527 132.69 492.434"/><polygon class="cls-15" points="143.816 495.117 143.816 502.502 138.965 505.309 138.965 504.002 142.709 501.848 142.709 495.754 143.816 495.117"/><polygon class="cls-7" points="142.709 495.754 142.709 501.848 138.965 504.002 138.965 497.915 142.709 495.754"/><polygon class="cls-16" points="141.774 497.281 141.774 501.406 139.904 502.485 139.904 498.36 141.774 497.281"/><polygon class="cls-14" points="151.24 499.619 144.674 503.408 144.674 493.219 151.24 489.433 151.24 499.619"/><polygon class="cls-15" points="150.382 491.328 150.382 498.708 145.533 501.515 145.533 500.215 149.276 498.064 149.276 491.965 150.382 491.328"/><polygon class="cls-7" points="149.276 491.965 149.276 498.064 145.533 500.215 145.533 494.13 149.276 491.965"/><polygon class="cls-16" points="148.341 493.482 148.341 497.612 146.468 498.703 146.468 494.566 148.341 493.482"/><polygon class="cls-14" points="157.807 495.832 151.24 499.619 151.24 489.433 157.807 485.643 157.807 495.832"/><polygon class="cls-15" points="156.948 487.537 156.948 494.921 152.099 497.726 152.099 496.421 155.841 494.273 155.841 488.171 156.948 487.537"/><polygon class="cls-7" points="155.841 488.171 155.841 494.273 152.099 496.421 152.099 490.344 155.841 488.171"/><polygon class="cls-16" points="154.904 489.7 154.904 493.823 153.037 494.904 153.037 490.772 154.904 489.7"/><polygon class="cls-14" points="164.375 492.034 157.807 495.832 157.807 485.643 164.375 481.852 164.375 492.034"/><polygon class="cls-15" points="163.516 483.743 163.516 491.132 158.665 493.936 158.665 492.628 162.416 490.474 162.416 484.379 163.516 483.743"/><polygon class="cls-7" points="162.416 484.379 162.416 490.474 158.665 492.628 158.665 486.55 162.416 484.379"/><polygon class="cls-16" points="161.473 485.908 161.473 490.031 159.609 491.111 159.609 486.988 161.473 485.908"/><polygon class="cls-14" points="170.939 488.244 164.375 492.034 164.375 481.852 170.939 478.058 170.939 488.244"/><polygon class="cls-15" points="170.086 479.951 170.086 487.333 165.228 490.143 165.228 488.836 168.98 486.687 168.98 480.588 170.086 479.951"/><polygon class="cls-7" points="168.98 480.588 168.98 486.687 165.228 488.836 165.228 482.763 168.98 480.588"/><polygon class="cls-16" points="168.042 482.115 168.042 486.247 166.167 487.314 166.167 483.201 168.042 482.115"/><polygon class="cls-18" points="177.508 484.453 170.939 488.244 170.939 478.058 177.508 474.264 177.508 484.453"/><polygon class="cls-15" points="176.654 476.162 176.654 483.549 171.802 486.356 171.802 485.054 175.541 482.9 175.541 476.799 176.654 476.162"/><polygon class="cls-7" points="175.541 476.799 175.541 482.9 171.802 485.054 171.802 478.964 175.541 476.799"/><polygon class="cls-16" points="174.606 478.316 174.606 482.451 172.741 483.52 172.741 479.407 174.606 478.316"/><polygon class="cls-2" points="104.621 503.075 97.887 543.172 92.092 539.823 92.092 498.587 101.637 499.631 104.621 503.075"/><polygon class="cls-3" points="92.092 498.587 117.788 483.755 123.588 487.099 104.621 503.075 97.887 501.943 92.092 498.587"/><path class="cls-4" d="M97.887,501.943v41.229l25.7-14.84V487.1Z"/><polygon class="cls-7" points="104.213 502.921 99.356 505.73 99.356 503.219 104.213 500.424 104.213 502.921"/><polygon class="cls-7" points="116.985 495.553 112.124 498.353 112.124 495.849 116.985 493.039 116.985 495.553"/><path class="cls-8" d="M97.887,508.075v1.8l25.7-14.835v-1.8Z"/><polygon class="cls-6" points="100.091 528.148 100.091 535.454 109.162 530.214 109.162 522.908 100.091 528.148"/><polygon class="cls-6" points="112.124 521.164 112.124 528.477 121.199 523.234 121.199 515.928 112.124 521.164"/><polygon class="cls-8" points="120.469 526.832 116.197 531.835 111.391 529.068 111.391 525.102 119.302 525.97 120.469 526.832"/><polygon class="cls-9" points="111.391 525.102 121.871 519.055 126.675 521.822 121.878 526.072 116.197 527.88 111.391 525.102"/><polygon class="cls-6" points="116.197 527.88 116.197 531.835 126.675 525.791 126.675 521.822 116.197 527.88"/><polygon class="cls-8" points="108.433 533.816 104.159 538.82 99.356 536.048 99.356 532.084 107.266 532.948 108.433 533.816"/><polygon class="cls-9" points="99.356 532.084 109.835 526.037 114.638 528.806 109.844 533.052 104.159 534.855 99.356 532.084"/><polygon class="cls-6" points="104.159 534.855 104.159 538.82 114.638 532.773 114.638 528.806 104.159 534.855"/><polygon class="cls-19" points="203.56 350.538 203.56 350.855 202.808 351.287 202.545 350.823 203.56 350.538"/><polygon class="cls-20" points="202.808 350.97 202.808 351.287 201.729 351.287 200.963 350.538 202.808 350.97"/><polygon class="cls-21" points="201.729 350.97 201.729 351.287 200.963 350.855 200.963 350.538 201.729 350.97"/><polygon class="cls-22" points="200.963 349.928 200.963 350.538 201.729 350.97 202.808 350.97 203.56 350.538 203.56 349.928 202.808 349.495 201.729 349.495 200.963 349.928"/><polygon class="cls-19" points="203.82 341.605 203.82 350.649 202.908 351.176 202.599 341.921 203.82 341.605"/><polygon class="cls-20" points="202.908 342.121 202.908 351.176 201.606 351.176 200.723 341.605 202.908 342.121"/><polygon class="cls-21" points="201.606 342.121 201.606 351.176 200.723 350.649 200.723 341.605 201.606 342.121"/><polygon class="cls-23" points="200.723 340.841 200.723 341.605 201.606 342.121 202.908 342.121 203.82 341.605 203.82 340.841 202.908 340.335 201.606 340.335 200.723 340.841"/><polygon class="cls-19" points="203.82 332.223 203.82 341.268 202.908 341.81 202.599 332.55 203.82 332.223"/><polygon class="cls-20" points="202.908 332.739 202.908 341.81 201.606 341.81 200.723 332.223 202.908 332.739"/><polygon class="cls-21" points="201.606 332.739 201.606 341.81 200.723 341.268 200.723 332.223 201.606 332.739"/><polygon class="cls-22" points="200.723 331.475 200.723 332.223 201.606 332.739 202.908 332.739 203.82 332.223 203.82 331.475 202.908 330.954 201.606 330.954 200.723 331.475"/><polygon class="cls-19" points="203.56 331.828 203.56 332.113 202.808 332.56 202.545 332.091 203.56 331.828"/><polygon class="cls-20" points="202.808 332.238 202.808 332.56 201.729 332.56 200.963 331.828 202.808 332.238"/><polygon class="cls-21" points="201.729 332.238 201.729 332.56 200.963 332.113 200.963 331.828 201.729 332.238"/><polygon class="cls-22" points="200.963 331.195 200.963 331.828 201.729 332.238 202.808 332.238 203.56 331.828 203.56 331.195 202.808 330.754 201.729 330.754 200.963 331.195"/><polygon class="cls-19" points="203.56 493.165 203.56 493.477 202.808 493.908 202.545 493.449 203.56 493.165"/><polygon class="cls-20" points="202.808 493.598 202.808 493.908 201.729 493.908 200.963 493.165 202.808 493.598"/><polygon class="cls-21" points="201.729 493.598 201.729 493.908 200.963 493.477 200.963 493.165 201.729 493.598"/><polygon class="cls-22" points="200.963 492.547 200.963 493.165 201.729 493.598 202.808 493.598 203.56 493.165 203.56 492.547 202.808 492.119 201.729 492.119 200.963 492.547"/><polygon class="cls-19" points="203.82 484.223 203.82 493.271 202.908 493.797 202.599 484.543 203.82 484.223"/><polygon class="cls-20" points="202.908 484.737 202.908 493.797 201.606 493.797 200.723 484.223 202.908 484.737"/><polygon class="cls-21" points="201.606 484.737 201.606 493.797 200.723 493.271 200.723 484.223 201.606 484.737"/><polygon class="cls-23" points="200.723 483.468 200.723 484.223 201.606 484.737 202.908 484.737 203.82 484.223 203.82 483.468 202.908 482.957 201.606 482.957 200.723 483.468"/><polygon class="cls-19" points="203.82 474.846 203.82 483.894 202.908 484.427 202.599 475.17 203.82 474.846"/><polygon class="cls-20" points="202.908 475.36 202.908 484.427 201.606 484.427 200.723 474.846 202.908 475.36"/><polygon class="cls-21" points="201.606 475.36 201.606 484.427 200.723 483.894 200.723 474.846 201.606 475.36"/><polygon class="cls-22" points="200.723 474.098 200.723 474.846 201.606 475.36 202.908 475.36 203.82 474.846 203.82 474.098 202.908 473.575 201.606 473.575 200.723 474.098"/><polygon class="cls-19" points="203.56 474.439 203.56 474.728 202.808 475.182 202.545 474.711 203.56 474.439"/><polygon class="cls-20" points="202.808 474.86 202.808 475.182 201.729 475.182 200.963 474.439 202.808 474.86"/><polygon class="cls-21" points="201.729 474.86 201.729 475.182 200.963 474.728 200.963 474.439 201.729 474.86"/><polygon class="cls-22" points="200.963 473.824 200.963 474.439 201.729 474.86 202.808 474.86 203.56 474.439 203.56 473.824 202.808 473.376 201.729 473.376 200.963 473.824"/><path class="cls-24" d="M292.87,468.894l-49.291-28.462-4.1-7.152,25.948-33.435,5.638,3.25,25.938,63.383Z"/><polygon class="cls-8" points="294.176 464.473 269.791 404.964 269.791 404.964 266.688 403.169 266.688 403.169 242.309 434.557 244.518 438.375 291.959 465.753 294.176 464.473"/><polygon class="cls-24" points="273.268 417.455 262.88 423.871 265.504 433.279 259.631 445.212 269.998 438.777 267.405 429.395 273.268 417.455"/><path class="cls-19" d="M207.311,310.341l-4.313,2.5,126.166,72.842V582.052l4.319-2.492V383.188Z"/><path class="cls-25" d="M205.516,314.286l1.8,192.428L329.163,577.07V385.68Z"/><polygon class="cls-19" points="329.163 577.071 329.163 582.053 202.998 509.202 202.998 312.838 207.311 315.324 207.311 506.715 329.163 577.071"/></svg>