<svg id="Capa_1" data-name="Capa 1" xmlns="http://www.w3.org/2000/svg" viewBox="0 0 256.972 600"><defs><style>.cls-1{fill:#79af2b;}.cls-2{fill:#9ec41a;}.cls-3{fill:#234156;}.cls-4{fill:#d1c5bb;}.cls-5{fill:#c5b5a9;}.cls-6,.cls-8{fill:#efe8e1;}.cls-6{opacity:0.3;}.cls-7{fill:#375b71;}.cls-9{fill:#e1d8cf;}.cls-10{fill:#2fbce7;}.cls-11{fill:#5cc4e6;opacity:0.5;}</style></defs><rect class="cls-1" x="1.398" y="506.907" width="254.152" height="19.468"/><ellipse class="cls-1" cx="128.486" cy="525.15" rx="127.088" ry="74.85"/><ellipse class="cls-2" cx="128.486" cy="509.488" rx="127.088" ry="74.85"/><path class="cls-3" d="M13.543,496.038H8.518V387.9c0-7.4,2.567-13.125,7.041-15.708,3.846-2.222,8.627-1.909,13.461.882L57.9,389.742,55.385,394.1,26.507,377.422c-2.273-1.314-5.587-2.529-8.436-.884-2.878,1.661-4.528,5.8-4.528,11.357Z"/><ellipse class="cls-3" cx="11.016" cy="495.888" rx="2.498" ry="1.682"/><path class="cls-4" d="M21.4,300.051V501.11c0,34.921,48.066,63.23,107.358,63.23S236.11,536.031,236.11,501.11V300.051Z"/><path class="cls-5" d="M64.263,300.051H21.4V501.11c0,20.665,16.838,39.012,42.868,50.55Z"/><path class="cls-6" d="M171.315,300.051V559.165c38.115-9.707,64.8-32.042,64.8-58.055V300.051Z"/><path class="cls-7" d="M128.753,556.707C69.461,556.707,21.4,528.4,21.4,493.477v7.633c0,34.921,48.066,63.23,107.358,63.23S236.11,536.031,236.11,501.11v-7.633C236.11,528.4,188.044,556.707,128.753,556.707Z"/><path class="cls-7" d="M128.753,378.88C69.461,378.88,21.4,350.57,21.4,315.65v7.633c0,34.92,48.066,63.23,107.358,63.23S236.11,358.2,236.11,323.283V315.65C236.11,350.57,188.044,378.88,128.753,378.88Z"/><ellipse class="cls-8" cx="128.753" cy="304.33" rx="107.358" ry="63.23"/><ellipse class="cls-4" cx="128.753" cy="302.954" rx="91.309" ry="53.778"/><path class="cls-9" d="M128.753,254.3c48.969,0,88.928,22.706,91.2,51.217.067-.85.11-1.7.11-2.562,0-29.7-40.881-53.777-91.309-53.777s-91.31,24.077-91.31,53.777c0,.859.043,1.712.11,2.562C39.824,277.005,79.783,254.3,128.753,254.3Z"/><ellipse class="cls-10" cx="128.753" cy="305.516" rx="91.199" ry="51.217"/><path class="cls-4" d="M128.753,262.916c46.388,0,84.676,20.361,90.572,46.734a32.528,32.528,0,0,0,.627-4.134c-2.271-28.511-42.23-51.217-91.2-51.217s-88.929,22.706-91.2,51.217a32.707,32.707,0,0,0,.627,4.134C44.076,283.277,82.365,262.916,128.753,262.916Z"/><path class="cls-10" d="M128.753,356.732c46.575,0,84.972-20.544,90.572-47.082-5.9-26.373-44.184-46.734-90.572-46.734S44.076,283.277,38.18,309.65C43.78,336.188,82.178,356.732,128.753,356.732Z"/><path class="cls-11" d="M157,353.827c-3.084-5.556-6.364-10.992-11.076-15.34-10.226-9.435-24.516-12.31-37.055-17.377-5.088-2.057-11.441-4.41-14.817-9.008-2.209-3.008-1.453-6.273.283-9.293,2.06-3.584,4.663-6.838,5.642-10.941a13,13,0,0,0-.852-8.166c-.954-2.394-2.091-4.776-2.026-7.417.136-5.518,4.13-8.961,8.918-11.612-4.37.663-8.655,1.449-12.747,2.467-2.581,2.1-5.366,3.974-7.842,6.184a20.6,20.6,0,0,0-4.455,5.822c-.523,1-1.313,2.538-.294,3.467.941.857,2.579,1.091,3.754,1.431a19.253,19.253,0,0,1,4.876,1.949c3.087,1.919,5.293,5.808,4.245,9.48-.988,3.466-4.489,5.449-7.688,6.508-6.888,2.278-16.7,2.148-21.216-4.355a80.088,80.088,0,0,1-7.239-13.042,9.663,9.663,0,0,1-.422-1.145c-9.92,7.411-16.609,16.393-18.8,26.211a35.793,35.793,0,0,0,3.592,9.647c2.749-3.05,5.508-6.139,9.065-8.178,5.156-2.955,11.6-5.477,17.475-3.218,5.206,2,8.787,6.4,13.291,9.477,7.89,5.391,17.3,8.407,26.121,11.869,9.074,3.56,18.722,7.294,26.235,13.688a29.108,29.108,0,0,1,9.017,13.135c4.856-.447,9.582-1.125,14.152-2Z"/><path class="cls-11" d="M184.472,335.621c-3.508-4.675-5.95-10.08-9.677-14.6-1.556-1.888-3.447-4.073-5.7-5.132a23.547,23.547,0,0,0-6.366-1.583c-4.485-.707-9.715-.993-13.475-3.831-2.883-2.177-4.553-6.577-2.024-9.643,2.377-2.882,6.82-3.649,10.3-4.147,9.4-1.347,19.3.248,28.084-3.95,5.282-2.526,9.721-6.491,14.819-9.3-11.287-8.415-26.708-14.816-44.507-18.08-.978,6.355-6.7,10.615-11.121,14.733-2.443,2.277-4.555,4.775-7.328,6.68a81.446,81.446,0,0,1-8.732,4.914c-5.841,3.031-12.061,6.484-13.663,13.409-.536,2.318-.008,4.214,2.244,5.219,2.395,1.068,5.234,1.207,7.8,1.49a180.113,180.113,0,0,1,19.609,3.462c6.906,1.552,14.106,3.653,19.9,7.877a21.6,21.6,0,0,1,5.762,5.89c1.068,1.717,1.982,3.532,2.893,5.336,2.2,4.363,4.336,8.76,6.633,13.074a100.224,100.224,0,0,0,11.354-5.362A27.085,27.085,0,0,1,184.472,335.621Z"/><path class="cls-7" d="M49.949,529.545c-1.268,2.2-3.362,3.279-4.768,2.468s-1.514-3.167-.247-5.363,3.363-3.281,4.769-2.469S51.216,527.349,49.949,529.545Zm-4.037-2.331c-1,1.731-.89,3.4-.167,3.821s2.227-.324,3.226-2.055.891-3.4.168-3.822S46.912,525.482,45.912,527.214Z"/><polygon class="cls-7" points="50.232 526.581 44.847 529.736 44.562 529.249 49.947 526.093 50.232 526.581"/><polygon class="cls-7" points="47.659 531.037 47.699 524.795 47.135 524.793 47.094 531.034 47.659 531.037"/><rect class="cls-7" x="49.269" y="526.226" width="1.128" height="6.191" transform="translate(-433.491 307.821) rotate(-60)"/><path class="cls-7" d="M52.792,530.382c-.159-.092-.414.052-.57.322s-.153.563.006.655.414-.053.57-.323S52.951,530.474,52.792,530.382Z"/><path class="cls-7" d="M72.264,540.33C71,542.526,68.9,543.609,67.5,542.8s-1.514-3.167-.247-5.363,3.362-3.281,4.768-2.469S73.532,538.134,72.264,540.33ZM68.227,538c-1,1.731-.89,3.4-.166,3.822s2.227-.324,3.226-2.055.891-3.4.167-3.823S69.227,536.267,68.227,538Z"/><polygon class="cls-7" points="72.547 537.366 67.162 540.522 66.878 540.034 72.263 536.878 72.547 537.366"/><polygon class="cls-7" points="69.975 541.822 70.015 535.581 69.45 535.578 69.41 541.819 69.975 541.822"/><rect class="cls-7" x="71.585" y="537.011" width="1.128" height="6.191" transform="translate(-431.673 332.54) rotate(-60)"/><path class="cls-7" d="M75.108,541.167c-.159-.092-.414.053-.57.322s-.153.563.006.655.414-.053.569-.322S75.267,541.259,75.108,541.167Z"/><path class="cls-3" d="M218.2,549.38a1.255,1.255,0,0,1-1.256-1.256V340.217a1.256,1.256,0,0,1,2.512,0V548.124A1.254,1.254,0,0,1,218.2,549.38Z"/><path class="cls-3" d="M218.2,341.474a1.25,1.25,0,0,1-.627-.168l-15.832-9.141A1.257,1.257,0,0,1,203,329.988l15.832,9.141a1.257,1.257,0,0,1-.629,2.345Z"/><path class="cls-3" d="M195.767,562.372a1.255,1.255,0,0,1-1.256-1.256V353.209a1.256,1.256,0,1,1,2.512,0V561.116A1.256,1.256,0,0,1,195.767,562.372Z"/><path class="cls-3" d="M195.766,354.465a1.248,1.248,0,0,1-.627-.168l-15.832-9.141a1.256,1.256,0,0,1,1.256-2.176l15.832,9.141a1.256,1.256,0,0,1-.629,2.344Z"/><rect class="cls-3" x="194.011" y="544.488" width="26.21" height="2.513" transform="translate(-245.092 176.634) rotate(-29.995)"/><rect class="cls-3" x="194.011" y="529.985" width="26.21" height="2.513" transform="translate(-237.841 174.692) rotate(-29.995)"/><rect class="cls-3" x="194.011" y="515.093" width="26.21" height="2.513" transform="translate(-230.397 172.697) rotate(-29.995)"/><rect class="cls-3" x="194.011" y="500.591" width="26.21" height="2.513" transform="translate(-223.146 170.755) rotate(-29.995)"/><rect class="cls-3" x="194.011" y="485.699" width="26.21" height="2.513" transform="translate(-215.702 168.76) rotate(-29.995)"/><rect class="cls-3" x="194.011" y="470.798" width="26.21" height="2.513" transform="translate(-208.252 166.765) rotate(-29.995)"/><rect class="cls-3" x="194.011" y="455.906" width="26.21" height="2.513" transform="translate(-200.807 164.77) rotate(-29.995)"/><rect class="cls-3" x="194.011" y="441.403" width="26.21" height="2.513" transform="translate(-193.557 162.828) rotate(-29.995)"/><rect class="cls-3" x="194.011" y="426.511" width="26.21" height="2.513" transform="translate(-186.112 160.833) rotate(-29.995)"/><rect class="cls-3" x="194.011" y="411.62" width="26.21" height="2.513" transform="translate(-178.668 158.839) rotate(-29.995)"/><rect class="cls-3" x="194.011" y="396.718" width="26.21" height="2.513" transform="translate(-171.218 156.843) rotate(-29.995)"/><rect class="cls-3" x="194.011" y="381.827" width="26.21" height="2.513" transform="translate(-163.773 154.849) rotate(-29.995)"/><rect class="cls-3" x="194.011" y="367.324" width="26.21" height="2.513" transform="translate(-156.523 152.906) rotate(-29.995)"/><rect class="cls-3" x="194.011" y="352.432" width="26.21" height="2.513" transform="translate(-149.078 150.912) rotate(-29.995)"/><path class="cls-3" d="M56.67,560.909H51.645V356.473c0-9.339,5.562-19.864,12.66-23.964,3.551-2.05,7.1-2.262,9.974-.6,3.3,1.907,5.2,6.062,5.2,11.4v4.929l-5.025-2.05v-2.879c0-3.442-1-6.076-2.686-7.047-1.617-.935-3.582-.187-4.949.6-5.5,3.175-10.147,12.157-10.147,19.611Z"/><path class="cls-3" d="M56.641,560.909c0,.929-1.118,1.682-2.5,1.682s-2.5-.753-2.5-1.682,1.119-1.681,2.5-1.681S56.641,559.981,56.641,560.909Z"/><path class="cls-3" d="M78.806,569.07H73.781V364.633c0-9.338,5.561-19.863,12.659-23.963,3.552-2.05,7.1-2.262,9.974-.6,3.3,1.906,5.2,6.062,5.2,11.4v2.9L96.587,353.3v-1.833c0-3.441-1-6.075-2.685-7.047-1.617-.934-3.583-.186-4.949.6-5.5,3.175-10.147,12.156-10.147,19.61Z"/><ellipse class="cls-3" cx="76.279" cy="569.07" rx="2.498" ry="1.682"/><ellipse class="cls-4" cx="129.329" cy="315.58" rx="107.373" ry="63.239"/><rect class="cls-4" x="21.956" y="305.368" width="214.734" height="10.211"/><ellipse class="cls-8" cx="129.329" cy="304.665" rx="107.373" ry="63.239"/><ellipse class="cls-4" cx="129.329" cy="303.597" rx="100.011" ry="58.473"/><path class="cls-4" d="M129.329,252c53.258,0,96.778,24.343,99.825,55.034.113-1.139.186-2.283.186-3.438,0-32.294-44.776-58.473-100.011-58.473S29.317,271.3,29.317,303.6c0,1.155.073,2.3.186,3.438C32.55,276.344,76.07,252,129.329,252Z"/><ellipse class="cls-9" cx="129.329" cy="307.035" rx="99.825" ry="55.034"/></svg>