<svg id="Capa_1" data-name="Capa 1" xmlns="http://www.w3.org/2000/svg" viewBox="0 0 210.687 600"><defs><style>.cls-1{fill:#e1d8d0;}.cls-2{fill:#234156;}.cls-3{fill:#436d81;isolation:isolate;opacity:0.3;}.cls-4{fill:#1a3546;}.cls-5{fill:#efe8e1;}.cls-6{fill:#385c72;}.cls-7{fill:#d1c5bb;}</style></defs><path class="cls-1" d="M2.032,393.314V524.33c0,29.156,40.132,52.792,89.637,52.792s89.636-23.636,89.636-52.792V393.314Z"/><path class="cls-2" d="M91.669,460.026c-49.5,0-89.637-23.636-89.637-52.792V514.985c0,29.156,40.132,52.792,89.637,52.792s89.636-23.636,89.636-52.792V407.233C181.305,436.389,141.173,460.026,91.669,460.026Z"/><path class="cls-3" d="M20.284,439.139V546.89c10.669,8.26,25.366,14.619,42.38,18.045V457.184C45.651,453.758,30.953,447.4,20.284,439.139Z"/><path class="cls-4" d="M155.391,444.353V552.1c16.017-9.537,25.914-22.646,25.914-37.12V407.233C181.305,421.707,171.407,434.816,155.391,444.353Z"/><ellipse class="cls-5" cx="91.669" cy="397.732" rx="89.636" ry="52.792"/><path class="cls-5" d="M181.305,398.064v-6.639a89.636,89.636,0,0,0-89.636-89.636h0A89.636,89.636,0,0,0,2.033,391.425v6.639Z"/><path class="cls-6" d="M98.773,319c-.28.21-28.127,21.268-39.576,42.9-9.392,17.75-14.288,32.727-16.759,47.89.242.053.489.085.731.163.439.14.8.892,1.224,1.068,2.426-15.072,7.332-30.515,16.658-48.139,11.227-21.217,38.705-42,38.982-42.207Z"/><path class="cls-6" d="M78.215,311.406c-.252.189-25.383,19.2-36.832,40.834-9.357,17.684-14.236,32.615-16.716,47.72l.036.014c.05.019.1.037.153.055.124.043.25.081.377.117.258.074.519.137.778.211.226.064.454.124.681.184,2.438-14.99,7.269-29.788,16.545-47.32,11.226-21.215,35.989-39.951,36.238-40.137Z"/><path class="cls-6" d="M11.087,568.151a1.048,1.048,0,0,0,1.049-1.049V407.61a1.049,1.049,0,0,0-2.1,0V567.1A1.048,1.048,0,0,0,11.087,568.151Z"/><path class="cls-6" d="M11.088,408.659a1.042,1.042,0,0,0,.523-.14l13.219-7.632a1.049,1.049,0,1,0-1.049-1.817L10.562,406.7a1.049,1.049,0,0,0,.526,1.957Z"/><path class="cls-6" d="M29.82,579a1.048,1.048,0,0,0,1.049-1.049V418.457a1.049,1.049,0,0,0-2.1,0V577.949A1.049,1.049,0,0,0,29.82,579Z"/><path class="cls-6" d="M29.821,419.506a1.042,1.042,0,0,0,.523-.14l13.219-7.632a1.049,1.049,0,1,0-1.049-1.817L29.3,417.549a1.049,1.049,0,0,0,.526,1.957Z"/><rect class="cls-6" x="19.305" y="556.152" width="2.098" height="21.883" transform="translate(-480.973 301.236) rotate(-60.007)"/><rect class="cls-6" x="19.305" y="543.718" width="2.098" height="21.883" transform="translate(-470.205 295.018) rotate(-60.007)"/><rect class="cls-6" x="19.298" y="531.624" width="2.098" height="21.883" transform="translate(-459.733 288.963) rotate(-60.007)"/><rect class="cls-6" x="19.304" y="519.177" width="2.098" height="21.883" transform="translate(-448.95 282.744) rotate(-60.007)"/><rect class="cls-6" x="19.303" y="506.735" width="2.098" height="21.883" transform="translate(-438.175 276.521) rotate(-60.007)"/><rect class="cls-6" x="19.304" y="494.302" width="2.098" height="21.883" transform="translate(-427.407 270.303) rotate(-60.007)"/><rect class="cls-6" x="19.298" y="482.205" width="2.098" height="21.883" transform="translate(-416.933 264.249) rotate(-60.007)"/><rect class="cls-6" x="19.297" y="469.771" width="2.098" height="21.883" transform="translate(-406.164 258.03) rotate(-60.007)"/><rect class="cls-6" x="19.302" y="457.327" width="2.098" height="21.883" transform="translate(-395.384 251.811) rotate(-60.007)"/><rect class="cls-6" x="19.302" y="444.886" width="2.098" height="21.883" transform="translate(-384.609 245.588) rotate(-60.007)"/><rect class="cls-6" x="19.301" y="432.452" width="2.098" height="21.883" transform="translate(-373.841 239.369) rotate(-60.007)"/><rect class="cls-6" x="19.298" y="420.353" width="2.098" height="21.883" transform="translate(-363.363 233.316) rotate(-60.007)"/><rect class="cls-6" x="19.3" y="407.911" width="2.098" height="21.883" transform="translate(-352.586 227.095) rotate(-60.007)"/><path class="cls-2" d="M104.159,314.306c0,5.043-6.942,9.132-15.505,9.132s-15.5-4.089-15.5-9.132,6.942-9.132,15.5-9.132S104.159,309.263,104.159,314.306Z"/><rect class="cls-2" x="73.149" y="305.175" width="31.009" height="9.132"/><path class="cls-6" d="M104.159,305.175c0,5.043-6.942,9.132-15.505,9.132s-15.5-4.088-15.5-9.132,6.942-9.132,15.5-9.132S104.159,300.131,104.159,305.175Z"/><path class="cls-2" d="M91.7,305.158c0,1.045-1.438,1.892-3.212,1.892s-3.212-.847-3.212-1.892,1.438-1.892,3.212-1.892S91.7,304.113,91.7,305.158Z"/><path class="cls-2" d="M150.018,322.942l-6.293-4.744V262.122c0-4.51-1.324-7.967-3.544-9.248-2.143-1.238-4.741-.256-6.541.781l-28.774,16.6C97.7,274.4,91.635,286.105,91.635,295.82v9.357H85.342V295.82c0-12.089,7.2-25.711,16.379-31.013l28.772-16.6c4.574-2.64,9.132-2.918,12.834-.78,4.252,2.455,6.691,7.812,6.691,14.7v60.819Z"/><path class="cls-6" d="M43.357,411.912a1.042,1.042,0,0,1-.523-.14l-18.741-10.82a1.049,1.049,0,0,1,1.049-1.817l18.741,10.82a1.049,1.049,0,0,1-.526,1.957Z"/><path class="cls-6" d="M46.612,394.426q.3-.743.614-1.477L30.344,383.2a1.049,1.049,0,0,0-1.049,1.817l17.125,9.887C46.485,394.747,46.547,394.586,46.612,394.426Z"/><path class="cls-6" d="M52.7,379.211q.3-.743.614-1.477l-16.882-9.746a1.049,1.049,0,0,0-1.049,1.817l17.125,9.887C52.575,379.531,52.637,379.371,52.7,379.211Z"/><path class="cls-6" d="M58.915,363.517q.3-.743.614-1.477l-16.882-9.746a1.049,1.049,0,0,0-1.049,1.817L58.723,364C58.788,363.838,58.851,363.677,58.915,363.517Z"/><path class="cls-6" d="M68.733,349.9q.3-.743.614-1.477l-16.882-9.746a1.049,1.049,0,0,0-1.049,1.817l17.125,9.887C68.606,350.216,68.668,350.055,68.733,349.9Z"/><path class="cls-6" d="M78.861,338.05q.3-.743.614-1.477l-16.882-9.746a1.049,1.049,0,0,0-1.049,1.817l17.125,9.887C78.734,338.371,78.8,338.21,78.861,338.05Z"/><ellipse class="cls-7" cx="175.677" cy="580.577" rx="32.978" ry="19.423"/><rect class="cls-7" x="142.698" y="467.606" width="65.957" height="112.971"/><ellipse class="cls-5" cx="175.677" cy="467.606" rx="32.978" ry="19.423"/><ellipse class="cls-1" cx="175.677" cy="467.056" rx="29.334" ry="17.277"/><ellipse class="cls-7" cx="175.677" cy="469.749" rx="28.942" ry="14.584"/><path class="cls-2" d="M165.618,469.879c0,3.426,4.716,6.2,10.533,6.2s10.533-2.777,10.533-6.2-4.716-6.2-10.533-6.2S165.618,466.453,165.618,469.879Z"/><rect class="cls-2" x="165.618" y="463.676" width="21.066" height="6.203"/><path class="cls-6" d="M165.618,463.676c0,3.426,4.716,6.2,10.533,6.2s10.533-2.777,10.533-6.2-4.716-6.2-10.533-6.2S165.618,460.25,165.618,463.676Z"/><ellipse class="cls-2" cx="176.264" cy="463.664" rx="2.182" ry="1.285"/><path class="cls-6" d="M155.581,428.044a8.168,8.168,0,0,1-3.411,6.517c-1.884,1.088-3.411-.067-3.411-2.579a8.17,8.17,0,0,1,3.411-6.517C154.054,424.378,155.581,425.532,155.581,428.044Z"/><path class="cls-2" d="M153.953,429.434a3.353,3.353,0,0,1-1.4,2.675c-.773.446-1.4-.027-1.4-1.059a3.353,3.353,0,0,1,1.4-2.675C153.326,427.929,153.953,428.4,153.953,429.434Z"/><path class="cls-2" d="M167.275,436.252l-13.816-7.972c-.445.545-.994,1.034-1.44,1.578-.469.572-.019,1.674-.487,2.246l13.607,7.852c4.871,2.812,8.988,10.764,8.988,17.365v6.356H178.4v-6.356C178.4,449.108,173.514,439.854,167.275,436.252Z"/></svg>