<?xml version="1.0" encoding="utf-8"?>
<!-- Generator: Adobe Illustrator 26.0.1, SVG Export Plug-In . SVG Version: 6.00 Build 0)  -->
<svg version="1.1" id="Capa_1" xmlns="http://www.w3.org/2000/svg" xmlns:xlink="http://www.w3.org/1999/xlink" x="0px" y="0px"
	 viewBox="0 0 224.546 360" style="enable-background:new 0 0 224.546 360;" xml:space="preserve">
<style type="text/css">
	.st0{fill:#E1D8CF;}
	.st1{fill:#234156;}
	.st2{opacity:0.3;fill:#426C80;}
	.st3{fill:#193445;}
	.st4{fill:#EFE8E1;}
	.st5{fill:#375B71;}
	.st6{fill:#D1C5BB;}
</style>
<g>
	<path class="st0" d="M10.459,151.369v131.016c0,29.156,40.132,52.792,89.637,52.792c49.504,0,89.636-23.636,89.636-52.792V151.369
		H10.459z"/>
	<path class="st1" d="M100.096,218.081c-49.505,0-89.637-23.636-89.637-52.792V273.04c0,29.156,40.132,52.792,89.637,52.792
		c49.504,0,89.636-23.636,89.636-52.792V165.288C189.732,194.444,149.6,218.081,100.096,218.081z"/>
	<path class="st2" d="M28.711,197.194v107.751c10.669,8.26,25.366,14.619,42.38,18.045V215.239
		C54.078,211.813,39.38,205.454,28.711,197.194z"/>
	<path class="st3" d="M163.818,202.408v107.751c16.017-9.537,25.914-22.646,25.914-37.12V165.288
		C189.732,179.762,179.834,192.871,163.818,202.408z"/>
	<ellipse class="st4" cx="100.096" cy="155.787" rx="89.636" ry="52.792"/>
	<path class="st4" d="M189.732,156.119v-6.639c0-49.505-40.132-89.636-89.636-89.636h0c-49.505,0-89.636,40.132-89.636,89.636v6.639
		H189.732z"/>
	<g>
		<path class="st5" d="M107.2,77.052c-0.28,0.21-28.127,21.268-39.576,42.904c-9.392,17.75-14.288,32.727-16.759,47.89
			c0.242,0.053,0.489,0.085,0.731,0.163c0.439,0.14,0.798,0.892,1.224,1.068c2.426-15.072,7.332-30.515,16.658-48.139
			c11.227-21.217,38.705-42,38.982-42.207L107.2,77.052z"/>
	</g>
	<g>
		<path class="st5" d="M86.642,69.461c-0.252,0.189-25.383,19.199-36.832,40.834c-9.357,17.684-14.236,32.615-16.716,47.72
			c0.012,0.005,0.033,0.013,0.036,0.014c0.05,0.019,0.101,0.037,0.153,0.055c0.124,0.043,0.25,0.081,0.377,0.117
			c0.258,0.074,0.519,0.137,0.778,0.211c0.226,0.064,0.454,0.124,0.681,0.184c2.438-14.99,7.269-29.788,16.545-47.32
			c11.226-21.215,35.989-39.951,36.238-40.137L86.642,69.461z"/>
	</g>
	<g>
		<g>
			<g>
				<path class="st5" d="M19.514,326.206c0.58,0,1.049-0.469,1.049-1.049V165.665c0-0.58-0.469-1.049-1.049-1.049
					c-0.58,0-1.049,0.469-1.049,1.049v159.492C18.465,325.737,18.934,326.206,19.514,326.206z"/>
			</g>
			<g>
				<path class="st5" d="M19.515,166.714c0.178,0,0.359-0.045,0.523-0.14l13.219-7.632c0.502-0.29,0.674-0.931,0.384-1.433
					c-0.29-0.504-0.93-0.676-1.433-0.384l-13.219,7.632c-0.502,0.29-0.674,0.931-0.384,1.433
					C18.8,166.527,19.152,166.714,19.515,166.714z"/>
			</g>
		</g>
		<g>
			<g>
				<path class="st5" d="M38.247,337.053c0.58,0,1.049-0.469,1.049-1.049V176.512c0-0.58-0.469-1.049-1.049-1.049
					c-0.58,0-1.049,0.469-1.049,1.049v159.492C37.198,336.584,37.668,337.053,38.247,337.053z"/>
			</g>
			<g>
				<path class="st5" d="M38.248,177.561c0.178,0,0.359-0.045,0.523-0.14l13.219-7.632c0.502-0.29,0.674-0.931,0.384-1.433
					c-0.29-0.504-0.93-0.676-1.433-0.384l-13.219,7.632c-0.502,0.29-0.674,0.931-0.384,1.433
					C37.533,177.374,37.886,177.561,38.248,177.561z"/>
			</g>
		</g>
		<g>
			<g>
				
					<rect x="27.723" y="314.216" transform="matrix(0.4999 -0.8661 0.8661 0.4999 -267.2207 187.5217)" class="st5" width="2.098" height="21.883"/>
			</g>
			<g>
				
					<rect x="27.723" y="301.782" transform="matrix(0.4999 -0.8661 0.8661 0.4999 -256.4523 181.304)" class="st5" width="2.098" height="21.883"/>
			</g>
		</g>
		<g>
			<g>
				
					<rect x="27.723" y="289.673" transform="matrix(0.4999 -0.8661 0.8661 0.4999 -245.9716 175.2624)" class="st5" width="2.098" height="21.883"/>
			</g>
			<g>
				
					<rect x="27.723" y="277.24" transform="matrix(0.4999 -0.8661 0.8661 0.4999 -235.197 169.0309)" class="st5" width="2.098" height="21.883"/>
			</g>
		</g>
		<g>
			<g>
				
					<rect x="27.723" y="264.798" transform="matrix(0.4999 -0.8661 0.8661 0.4999 -224.4217 162.8092)" class="st5" width="2.098" height="21.883"/>
			</g>
			<g>
				
					<rect x="27.723" y="252.365" transform="matrix(0.4999 -0.8661 0.8661 0.4999 -213.6533 156.5915)" class="st5" width="2.098" height="21.883"/>
			</g>
		</g>
		<g>
			<g>
				
					<rect x="27.723" y="240.256" transform="matrix(0.4999 -0.8661 0.8661 0.4999 -203.1714 150.5478)" class="st5" width="2.098" height="21.883"/>
			</g>
			<g>
				
					<rect x="27.723" y="227.822" transform="matrix(0.4999 -0.8661 0.8661 0.4999 -192.4027 144.3295)" class="st5" width="2.098" height="21.883"/>
			</g>
		</g>
		<g>
			<g>
				
					<rect x="27.723" y="215.389" transform="matrix(0.4999 -0.8661 0.8661 0.4999 -181.6296 138.1007)" class="st5" width="2.098" height="21.883"/>
			</g>
		</g>
		<g>
			<g>
				
					<rect x="27.723" y="202.947" transform="matrix(0.4999 -0.8661 0.8661 0.4999 -170.8544 131.879)" class="st5" width="2.098" height="21.883"/>
			</g>
			<g>
				
					<rect x="27.723" y="190.513" transform="matrix(0.4999 -0.8661 0.8661 0.4999 -160.086 125.6612)" class="st5" width="2.098" height="21.883"/>
			</g>
		</g>
		<g>
			<g>
				
					<rect x="27.723" y="178.405" transform="matrix(0.4999 -0.8661 0.8661 0.4999 -149.6025 119.6149)" class="st5" width="2.098" height="21.883"/>
			</g>
			<g>
				
					<rect x="27.723" y="165.971" transform="matrix(0.4999 -0.8661 0.8661 0.4999 -138.8307 113.3882)" class="st5" width="2.098" height="21.883"/>
			</g>
		</g>
	</g>
	<g>
		<path class="st1" d="M112.586,72.361c0,5.043-6.942,9.132-15.505,9.132c-8.563,0-15.505-4.089-15.505-9.132
			c0-5.043,6.942-9.132,15.505-9.132C105.644,63.23,112.586,67.318,112.586,72.361z"/>
		<rect x="81.576" y="63.23" class="st1" width="31.009" height="9.132"/>
		<path class="st5" d="M112.586,63.23c0,5.043-6.942,9.132-15.505,9.132c-8.563,0-15.505-4.088-15.505-9.132
			s6.942-9.132,15.505-9.132C105.644,54.098,112.586,58.186,112.586,63.23z"/>
		<path class="st1" d="M100.127,63.213c0,1.045-1.438,1.892-3.212,1.892c-1.774,0-3.212-0.847-3.212-1.892s1.438-1.892,3.212-1.892
			C98.689,61.321,100.127,62.168,100.127,63.213z"/>
	</g>
	<g>
		<path class="st1" d="M158.445,80.997l-6.293-4.744V20.177c0-4.51-1.324-7.967-3.544-9.248c-2.143-1.238-4.741-0.256-6.541,0.781
			l-28.774,16.604c-7.171,4.139-13.231,15.846-13.231,25.561v9.357h-6.293v-9.357c0-12.089,7.195-25.711,16.379-31.013L138.92,6.259
			c4.574-2.64,9.132-2.918,12.834-0.78c4.252,2.455,6.691,7.812,6.691,14.699V80.997z"/>
	</g>
	<g>
		<path class="st5" d="M51.784,169.967c-0.178,0-0.359-0.045-0.523-0.14l-18.741-10.82c-0.502-0.29-0.674-0.931-0.384-1.433
			c0.29-0.502,0.932-0.674,1.433-0.384l18.741,10.82c0.502,0.29,0.674,0.931,0.384,1.433
			C52.499,169.779,52.146,169.967,51.784,169.967z"/>
	</g>
	<g>
		<path class="st5" d="M55.039,152.481c0.2-0.495,0.405-0.987,0.614-1.477l-16.882-9.747c-0.501-0.29-1.143-0.118-1.433,0.384
			c-0.29,0.502-0.118,1.143,0.384,1.433l17.125,9.887C54.912,152.802,54.974,152.641,55.039,152.481z"/>
	</g>
	<g>
		<path class="st5" d="M61.129,137.266c0.2-0.495,0.405-0.987,0.614-1.477l-16.882-9.746c-0.501-0.29-1.143-0.118-1.433,0.384
			c-0.29,0.502-0.118,1.143,0.384,1.433l17.125,9.887C61.002,137.586,61.064,137.426,61.129,137.266z"/>
	</g>
	<g>
		<path class="st5" d="M67.342,121.572c0.201-0.495,0.405-0.987,0.614-1.477l-16.882-9.746c-0.501-0.29-1.143-0.118-1.433,0.384
			c-0.29,0.502-0.118,1.143,0.384,1.433l17.125,9.887C67.215,121.893,67.278,121.732,67.342,121.572z"/>
	</g>
	<g>
		<path class="st5" d="M77.16,107.95c0.2-0.495,0.405-0.987,0.614-1.477l-16.882-9.746c-0.501-0.29-1.143-0.118-1.433,0.384
			c-0.29,0.502-0.118,1.143,0.384,1.433l17.125,9.887C77.033,108.271,77.095,108.11,77.16,107.95z"/>
	</g>
	<g>
		<path class="st5" d="M87.288,96.105c0.2-0.495,0.405-0.987,0.614-1.477l-16.882-9.746c-0.501-0.29-1.143-0.118-1.433,0.384
			c-0.29,0.502-0.118,1.143,0.384,1.433l17.125,9.887C87.161,96.426,87.223,96.265,87.288,96.105z"/>
	</g>
	<g>
		<ellipse class="st6" cx="184.104" cy="338.632" rx="32.978" ry="19.423"/>
		<rect x="151.125" y="225.661" class="st6" width="65.957" height="112.971"/>
		<ellipse class="st4" cx="184.104" cy="225.661" rx="32.978" ry="19.423"/>
		<ellipse class="st0" cx="184.104" cy="225.111" rx="29.334" ry="17.277"/>
		<g>
			<ellipse class="st6" cx="184.104" cy="227.804" rx="28.942" ry="14.584"/>
		</g>
	</g>
	<g>
		<path class="st1" d="M174.045,227.934c0,3.426,4.716,6.204,10.533,6.204c5.817,0,10.533-2.777,10.533-6.204
			c0-3.426-4.716-6.203-10.533-6.203C178.761,221.731,174.045,224.508,174.045,227.934z"/>
		
			<rect x="174.045" y="221.731" transform="matrix(-1 -1.224647e-16 1.224647e-16 -1 369.1559 449.6647)" class="st1" width="21.066" height="6.203"/>
		<path class="st5" d="M174.045,221.731c0,3.426,4.716,6.203,10.533,6.203c5.817,0,10.533-2.777,10.533-6.203
			c0-3.426-4.716-6.204-10.533-6.204C178.761,215.527,174.045,218.305,174.045,221.731z"/>
		<ellipse class="st1" cx="184.691" cy="221.719" rx="2.182" ry="1.285"/>
	</g>
	<path class="st5" d="M164.008,186.099c0,2.512-1.527,5.429-3.411,6.517s-3.411-0.067-3.411-2.579c0-2.511,1.527-5.429,3.411-6.517
		C162.481,182.433,164.008,183.587,164.008,186.099z"/>
	<path class="st1" d="M162.38,187.489c0,1.031-0.627,2.229-1.4,2.675c-0.773,0.446-1.4-0.027-1.4-1.059
		c0-1.031,0.627-2.229,1.4-2.675C161.753,185.984,162.38,186.458,162.38,187.489z"/>
	<g>
		<path class="st1" d="M175.702,194.307l-13.816-7.972c-0.445,0.545-0.994,1.034-1.44,1.578c-0.469,0.572-0.019,1.674-0.487,2.246
			l13.607,7.852c4.871,2.812,8.988,10.764,8.988,17.365v6.356h4.275v-6.356C186.828,207.163,181.941,197.909,175.702,194.307z"/>
	</g>
</g>
</svg>
