<svg id="Capa_1" data-name="Capa 1" xmlns="http://www.w3.org/2000/svg" viewBox="0 0 267.885 600"><defs><style>.cls-1,.cls-8{fill:#d2c6c7;}.cls-2{fill:#e0d9d9;}.cls-3{fill:#d7d5d5;}.cls-4{fill:#f0ecec;}.cls-5{fill:#9c9b9b;}.cls-6{fill:#b1a1a1;}.cls-7{fill:#291f4b;}.cls-8,.cls-9{stroke:#342556;stroke-miterlimit:10;}.cls-8{stroke-width:5px;}.cls-9{fill:none;stroke-width:3px;}.cls-10{fill:#c2b5b5;}.cls-11{fill:#5a5151;}.cls-12{fill:#eaf3f9;}.cls-13{fill:#877979;}.cls-14{fill:#342556;}</style></defs><polygon class="cls-1" points="249.798 341.97 249.798 542.028 162.982 600 162.982 399.942 249.798 341.97"/><polygon class="cls-2" points="162.982 399.942 162.982 600 18.087 531.205 18.087 331.148 162.982 399.942"/><polygon class="cls-3" points="249.798 341.97 162.982 399.942 18.087 331.148 104.902 273.176 249.798 341.97"/><polygon class="cls-1" points="266.811 321.028 266.811 347.567 167.247 414.052 167.247 387.513 266.811 321.028"/><polygon class="cls-2" points="167.247 387.513 167.247 414.052 1.074 335.155 1.074 308.616 167.247 387.513"/><polygon class="cls-4" points="266.811 321.028 167.247 387.513 1.074 308.616 100.638 242.131 266.811 321.028"/><polygon class="cls-2" points="174.973 423.738 192.287 450.555 192.287 470.245 174.973 461.67 174.973 423.738"/><polygon class="cls-5" points="231.025 387.837 248.339 414.654 248.339 434.344 231.025 425.77 231.025 387.837"/><polygon class="cls-4" points="174.973 423.738 231.025 387.837 248.339 414.654 192.287 450.555 174.973 423.738"/><polyline class="cls-6" points="192.287 450.555 192.287 470.245 248.339 434.344 248.339 414.654 192.287 450.555"/><polygon class="cls-7" points="200.829 498.744 220.313 486.265 220.313 483.313 200.829 495.792 200.829 498.744"/><polygon class="cls-7" points="200.829 504.965 220.313 492.486 220.313 489.534 200.829 502.013 200.829 504.965"/><polygon class="cls-7" points="200.829 511.186 220.313 498.707 220.313 495.755 200.829 508.234 200.829 511.186"/><polygon class="cls-7" points="200.829 517.407 220.313 504.928 220.313 501.976 200.829 514.455 200.829 517.407"/><polygon class="cls-7" points="200.829 523.628 220.313 511.149 220.313 508.197 200.829 520.676 200.829 523.628"/><polygon class="cls-7" points="200.829 529.849 220.313 517.37 220.313 514.418 200.829 526.897 200.829 529.849"/><polygon class="cls-7" points="200.829 536.07 220.313 523.591 220.313 520.639 200.829 533.118 200.829 536.07"/><polygon class="cls-7" points="200.829 542.291 220.313 529.812 220.313 526.86 200.829 539.339 200.829 542.291"/><polygon class="cls-7" points="200.829 548.512 220.313 536.033 220.313 533.081 200.829 545.56 200.829 548.512"/><polygon class="cls-7" points="200.829 554.733 220.313 542.254 220.313 539.302 200.829 551.781 200.829 554.733"/><polyline class="cls-8" points="76.787 449.279 61.952 458.78 61.952 490.056 76.787 480.555"/><polygon class="cls-2" points="90.534 554.956 90.534 390.745 153.92 420.628 153.92 585.051 90.534 554.956"/><polygon class="cls-9" points="27.148 524.861 27.148 360.438 153.92 420.628 153.92 585.051 27.148 524.861"/><polygon class="cls-10" points="90.534 553.287 152.649 514.418 152.649 420.862 90.535 391.922 90.534 553.287"/><polygon class="cls-1" points="110.495 540.796 110.495 401.222 152.649 420.862 152.649 558.713 110.495 540.796"/><polygon class="cls-6" points="109.437 478.438 141.242 492.896 141.242 543.174 109.437 528.716 109.437 478.438"/><polygon class="cls-11" points="111.69 484.128 138.989 496.538 138.989 506.875 111.69 494.465 111.69 484.128"/><polygon class="cls-11" points="111.69 500.16 138.989 512.569 138.989 522.906 111.69 510.497 111.69 500.16"/><polygon class="cls-11" points="111.69 515.597 138.989 528.007 138.989 538.344 111.69 525.935 111.69 515.597"/><polygon class="cls-12" points="117.773 475.451 109.437 478.438 141.242 492.896 149.579 489.909 117.773 475.451"/><polygon class="cls-13" points="141.242 543.174 149.579 540.187 149.579 489.909 141.242 492.896 141.242 543.174"/><polygon class="cls-14" points="116.703 423.57 148.603 439.025 148.603 429.262 116.703 413.807 116.703 423.57"/><polygon class="cls-14" points="116.703 436.18 148.603 451.635 148.603 441.871 116.703 426.416 116.703 436.18"/><polygon class="cls-14" points="116.703 448.789 148.603 464.244 148.603 454.48 116.703 439.025 116.703 448.789"/><polygon class="cls-14" points="116.703 461.398 148.603 476.853 148.603 467.09 116.703 451.635 116.703 461.398"/></svg>