<?xml version="1.0" encoding="utf-8"?>
<!-- Generator: Adobe Illustrator 26.0.1, SVG Export Plug-In . SVG Version: 6.00 Build 0)  -->
<svg version="1.0" id="Capa_1" xmlns="http://www.w3.org/2000/svg" xmlns:xlink="http://www.w3.org/1999/xlink" x="0px" y="0px"
	 viewBox="0 0 271.795 362.801" enable-background="new 0 0 271.795 362.801" xml:space="preserve">
<g>
	<g>
		<g>
			<polygon fill="#D2C6C7" points="251.551,102.354 251.551,302.411 164.735,360.383 164.735,160.325 			"/>
		</g>
		<g>
			<polygon fill="#E0D9D9" points="164.735,160.325 164.735,360.383 19.84,291.588 19.84,91.531 			"/>
		</g>
		<g>
			<polygon fill="#D7D5D5" points="251.551,102.354 164.735,160.325 19.84,91.531 106.656,33.559 			"/>
		</g>
	</g>
	<g>
		<g>
			<polygon fill="#D2C6C7" points="268.564,81.411 268.564,107.95 169,174.436 169,147.896 			"/>
		</g>
		<g>
			<polygon fill="#E0D9D9" points="169,147.896 169,174.436 2.827,95.538 2.827,68.999 			"/>
		</g>
		<g>
			<polygon fill="#F0ECEC" points="268.564,81.411 169,147.896 2.827,68.999 102.391,2.514 			"/>
		</g>
	</g>
	<polygon fill="#E0D9D9" points="176.726,184.121 194.041,210.938 194.041,230.628 176.726,222.053 	"/>
	<polygon fill="#9C9B9B" points="232.778,148.22 250.092,175.037 250.092,194.728 232.778,186.153 	"/>
	<polygon fill="#F0ECEC" points="176.726,184.121 232.778,148.22 250.092,175.037 194.041,210.938 	"/>
	<polyline fill="#B1A1A1" points="194.041,210.938 194.041,230.628 250.092,194.728 250.092,175.037 194.041,210.938 	"/>
	<g>
		<polygon fill="#291F4B" points="202.582,259.128 222.067,246.648 222.067,243.696 202.582,256.175 		"/>
		<polygon fill="#291F4B" points="202.582,265.348 222.067,252.869 222.067,249.917 202.582,262.396 		"/>
		<polygon fill="#291F4B" points="202.582,271.569 222.067,259.09 222.067,256.138 202.582,268.617 		"/>
		<polygon fill="#291F4B" points="202.582,277.79 222.067,265.311 222.067,262.359 202.582,274.838 		"/>
		<polygon fill="#291F4B" points="202.582,284.011 222.067,271.532 222.067,268.58 202.582,281.059 		"/>
		<polygon fill="#291F4B" points="202.582,290.232 222.067,277.753 222.067,274.801 202.582,287.28 		"/>
		<polygon fill="#291F4B" points="202.582,296.453 222.067,283.974 222.067,281.022 202.582,293.501 		"/>
		<polygon fill="#291F4B" points="202.582,302.674 222.067,290.195 222.067,287.243 202.582,299.722 		"/>
		<polygon fill="#291F4B" points="202.582,308.895 222.067,296.416 222.067,293.464 202.582,305.943 		"/>
		<polygon fill="#291F4B" points="202.582,315.116 222.067,302.637 222.067,299.685 202.582,312.164 		"/>
	</g>
	<polyline fill="#D2C6C7" stroke="#342556" stroke-width="5" stroke-miterlimit="10" points="78.54,209.662 63.705,219.164 
		63.705,250.44 78.54,240.938 	"/>
	<polygon fill="#E0D9D9" points="92.287,315.339 92.287,151.128 155.673,181.012 155.673,345.434 	"/>
	<polygon fill="none" stroke="#342556" stroke-width="3" stroke-miterlimit="10" points="28.901,285.244 28.901,120.822 
		155.673,181.012 155.673,345.434 	"/>
	<polygon fill="#C2B5B5" points="92.287,313.67 154.402,274.801 154.402,181.246 92.288,152.305 	"/>
	<polygon fill="#D2C6C7" points="112.248,301.18 112.248,161.605 154.402,181.246 154.402,319.096 	"/>
	<g>
		<polygon fill="#B1A1A1" points="111.19,238.821 142.996,253.279 142.996,303.557 111.19,289.099 		"/>
		<polygon fill="#5A5151" points="113.443,244.511 140.742,256.921 140.742,267.258 113.443,254.848 		"/>
		<polygon fill="#5A5151" points="113.443,260.543 140.742,272.952 140.742,283.289 113.443,270.88 		"/>
		<polygon fill="#5A5151" points="113.443,275.981 140.742,288.39 140.742,298.727 113.443,286.318 		"/>
		<polygon fill="#EAF3F9" points="119.526,235.834 111.19,238.821 142.996,253.279 151.332,250.292 		"/>
		<polygon fill="#877979" points="142.996,303.557 151.332,300.571 151.332,250.292 142.996,253.279 		"/>
	</g>
	<g>
		<polygon fill="#342556" points="118.456,183.953 150.356,199.408 150.356,189.645 118.456,174.19 		"/>
	</g>
	<g>
		<polygon fill="#342556" points="118.456,196.563 150.356,212.018 150.356,202.254 118.456,186.799 		"/>
	</g>
	<g>
		<polygon fill="#342556" points="118.456,209.172 150.356,224.627 150.356,214.863 118.456,199.408 		"/>
	</g>
	<g>
		<polygon fill="#342556" points="118.456,221.781 150.356,237.236 150.356,227.473 118.456,212.018 		"/>
	</g>
</g>
</svg>
