<?xml version="1.0" encoding="utf-8"?>
<!-- Generator: Adobe Illustrator 26.0.1, SVG Export Plug-In . SVG Version: 6.00 Build 0)  -->
<svg version="1.0" id="Capa_1" xmlns="http://www.w3.org/2000/svg" xmlns:xlink="http://www.w3.org/1999/xlink" x="0px" y="0px"
	 viewBox="0 0 179.918 362.801" enable-background="new 0 0 179.918 362.801" xml:space="preserve">
<g>
	<g>
		<polygon fill="#D6D7ED" points="1.857,303.591 56.812,335.319 177.758,265.49 122.804,233.762 		"/>
		<g>
			<polygon fill="#5F7175" points="155.075,304.882 132.391,291.784 132.391,283.531 155.075,296.628 			"/>
			<g>
				<polygon fill="#5F7175" points="56.814,353.359 177.76,283.531 177.76,265.372 56.814,335.2 				"/>
			</g>
			<polygon fill="#5F7175" points="155.075,304.882 177.76,291.784 177.76,283.531 155.075,296.628 			"/>
			<polygon fill="#5F7175" points="56.814,361.613 79.498,348.516 79.498,340.262 56.814,353.359 			"/>
		</g>
		<g>
			<polygon fill="#95A8AB" points="47.226,329.884 24.541,342.981 24.541,334.728 47.226,321.63 			"/>
			<polygon fill="#95A8AB" points="1.857,321.63 56.814,353.359 56.814,335.2 1.857,303.471 			"/>
			<polygon fill="#95A8AB" points="34.129,348.516 56.814,361.613 56.814,353.359 34.129,340.262 			"/>
			<polygon fill="#95A8AB" points="1.857,329.884 24.541,342.981 24.541,334.728 1.857,321.63 			"/>
		</g>
	</g>
	<g>
		<g>
			<g>
				<g enable-background="new    ">
					<g>
						<polygon fill="#5F7175" points="56.428,337.269 5.257,306.563 4.833,71.523 56.002,102.227 						"/>
					</g>
					<g>
						<polygon fill="#95A8AB" points="56.002,102.227 4.833,71.523 125.427,1.884 176.598,32.588 						"/>
					</g>
					<g>
						<polygon fill="#E6E9EB" points="176.598,32.588 177.022,267.63 56.428,337.269 56.002,102.227 						"/>
					</g>
				</g>
			</g>
			<polygon fill="#E6E9EB" points="53.342,100.285 173.808,30.572 176.319,32.034 176.319,35.299 55.727,104.833 55.727,101.671 			
				"/>
		</g>
	</g>
	<g>
		<polygon fill="#355A60" points="162.149,67.353 66.247,122.724 66.318,162.048 162.219,106.68 		"/>
		<g>
			<path fill="#1B2E31" d="M100.638,120.267c0.023,8.61,6.141,12.104,13.641,7.773c7.491-4.325,13.576-14.865,13.551-23.472l0,0
				c-0.023-8.618-6.147-12.1-13.64-7.775C106.69,101.123,100.613,111.648,100.638,120.267L100.638,120.267z"/>
			<path fill="#5E7A7F" d="M124.643,94.333c-0.179-0.105-0.372-0.179-0.56-0.266c-0.163-0.074-0.32-0.166-0.489-0.229
				c-0.197-0.072-0.408-0.12-0.614-0.177c-0.176-0.048-0.344-0.111-0.525-0.149c-0.214-0.041-0.441-0.055-0.663-0.083
				c-0.187-0.022-0.365-0.059-0.556-0.066c-0.229-0.013-0.471,0.006-0.707,0.013c-0.197,0.006-0.386-0.004-0.586,0.013
				c-0.251,0.022-0.512,0.076-0.769,0.118c-0.197,0.033-0.389,0.05-0.589,0.092c-0.282,0.063-0.573,0.157-0.861,0.242
				c-0.187,0.055-0.369,0.092-0.556,0.155c-0.32,0.111-0.648,0.253-0.974,0.391c-0.166,0.07-0.327,0.122-0.495,0.199
				c-0.498,0.229-1,0.489-1.511,0.784c-8.14,4.7-14.714,16.086-14.689,25.436c0.002,0.581,0.03,1.14,0.082,1.68
				c0.015,0.175,0.051,0.334,0.073,0.505c0.045,0.352,0.086,0.71,0.154,1.042c0.04,0.199,0.098,0.378,0.146,0.572
				c0.07,0.282,0.133,0.572,0.219,0.836c0.061,0.192,0.144,0.363,0.214,0.548c0.093,0.24,0.177,0.491,0.283,0.719
				c0.084,0.177,0.187,0.334,0.278,0.505c0.112,0.205,0.217,0.424,0.342,0.616c0.105,0.157,0.225,0.295,0.336,0.441
				c0.133,0.177,0.258,0.367,0.402,0.526c0.121,0.135,0.26,0.249,0.389,0.376c0.151,0.148,0.296,0.306,0.458,0.437
				c0.14,0.113,0.294,0.203,0.44,0.306c2.707,1.894,6.614,1.821,10.969-0.69c8.135-4.698,14.708-16.086,14.683-25.434
				C128.953,99.131,127.301,95.864,124.643,94.333z M114.278,126.581c-0.43,0.249-0.855,0.467-1.274,0.662
				c-0.133,0.061-0.263,0.101-0.394,0.159c-0.284,0.118-0.567,0.242-0.843,0.336c-0.156,0.053-0.307,0.083-0.461,0.131
				c-0.246,0.07-0.495,0.151-0.735,0.201c-0.166,0.039-0.322,0.052-0.485,0.079c-0.221,0.035-0.446,0.081-0.661,0.1
				c-0.166,0.015-0.324,0.004-0.486,0.011c-0.203,0.006-0.407,0.02-0.605,0.011c-0.158-0.006-0.309-0.039-0.463-0.059
				c-0.19-0.02-0.383-0.03-0.566-0.07c-0.15-0.031-0.291-0.081-0.437-0.122c-0.176-0.05-0.356-0.089-0.524-0.151
				c-0.143-0.057-0.274-0.129-0.412-0.194c-0.159-0.072-0.323-0.138-0.475-0.225c-0.389-0.225-0.743-0.507-1.079-0.817
				c-1.599-1.483-2.565-3.916-2.574-7.159c-0.023-7.88,5.534-17.505,12.391-21.463c2.864-1.653,5.504-2.044,7.614-1.38
				c0.59,0.184,1.135,0.456,1.633,0.802c0.124,0.087,0.255,0.164,0.373,0.262c0.135,0.109,0.257,0.242,0.384,0.365
				c0.11,0.105,0.227,0.203,0.332,0.321c0.121,0.138,0.228,0.295,0.341,0.446c0.093,0.124,0.194,0.238,0.283,0.369
				c0.106,0.166,0.198,0.352,0.294,0.531c0.076,0.14,0.162,0.269,0.231,0.417c0.091,0.192,0.164,0.406,0.243,0.614
				c0.058,0.153,0.125,0.295,0.176,0.452c0.074,0.225,0.128,0.474,0.187,0.714c0.039,0.159,0.091,0.306,0.123,0.474
				c0.057,0.282,0.092,0.588,0.131,0.887c0.017,0.142,0.047,0.273,0.061,0.417c0.042,0.452,0.066,0.928,0.068,1.417
				C126.692,112.992,121.129,122.628,114.278,126.581z"/>
		</g>
		<g>
			<polygon fill="#5E7A7F" points="154.633,75.834 154.677,105.917 158.668,108.239 158.61,73.536 			"/>
			<polygon fill="#A4AEB0" points="72.117,153.585 72.13,158.202 158.668,108.239 154.677,105.917 			"/>
			<polygon fill="#5E7A7F" points="61.38,120.415 61.463,164.355 65.454,166.672 65.371,122.735 			"/>
			<polygon fill="#B1BFC2" points="165.285,65.051 161.295,62.727 61.38,120.415 65.371,122.735 			"/>
			<path fill="#E6EBEC" d="M165.285,65.051l-99.914,57.684l0.083,43.937l99.914-57.684L165.285,65.051z M72.13,158.202l-0.013-4.617
				l-0.044-30.086l82.56-47.665l3.977-2.298l0.058,34.703L72.13,158.202z"/>
		</g>
		<g>
			<polygon fill="#E6EBEC" points="159.205,78.588 159.199,76.439 115.64,101.667 115.64,101.667 113.761,102.755 113.761,102.755 
				111.892,103.832 111.892,103.832 110.012,104.919 110.012,104.919 108.133,106 108.133,106 107.254,106.509 104.385,108.165 
				104.385,108.165 102.504,109.25 102.504,109.25 100.625,110.338 100.625,110.338 98.757,111.417 98.757,111.417 96.861,112.509 
				94.997,113.586 94.997,113.586 93.084,114.691 91.249,115.75 91.249,115.75 89.369,116.835 89.369,116.835 87.49,117.921 
				87.49,117.919 85.622,119 85.622,119 84.145,119.852 81.861,121.171 81.861,121.171 80.415,122.003 77.256,123.829 
				76.234,124.419 76.234,124.419 71.762,126.998 71.769,129.001 71.769,129.147 			"/>
			<polygon fill="#E6EBEC" points="71.781,133.467 159.217,82.903 159.212,80.746 71.775,131.307 			"/>
			<polygon fill="#E6EBEC" points="159.224,85.053 71.787,135.614 71.792,137.772 159.229,87.213 			"/>
		</g>
		<g>
			<polygon fill="#E6EBEC" points="159.205,91.563 159.199,89.417 115.64,114.645 115.64,114.645 113.761,115.728 113.761,115.728 
				111.892,116.807 111.892,116.807 110.012,117.893 110.012,117.893 108.133,118.978 108.133,118.978 107.254,119.487 
				104.385,121.143 104.385,121.143 102.504,122.226 102.504,122.226 100.625,123.314 100.625,123.314 98.757,124.39 98.757,124.39 
				96.861,125.487 94.997,126.563 94.997,126.563 93.084,127.666 91.249,128.726 91.249,128.726 89.369,129.811 89.369,129.811 
				87.49,130.899 87.49,130.897 85.622,131.975 85.622,131.975 84.145,132.827 81.861,134.144 81.861,134.144 80.415,134.981 
				77.256,136.807 76.234,137.397 76.234,137.397 71.762,139.976 71.769,141.976 71.769,142.123 			"/>
			<polygon fill="#E6EBEC" points="71.781,146.445 159.217,95.881 159.212,93.723 71.775,144.283 			"/>
			<polygon fill="#E6EBEC" points="159.224,98.028 71.787,148.59 71.792,150.75 159.229,100.189 			"/>
		</g>
		<g>
			<polygon fill="#E6EBEC" points="159.205,104.557 159.199,102.412 115.64,127.64 115.64,127.64 113.761,128.723 113.761,128.723 
				111.892,129.803 111.892,129.803 110.012,130.888 110.012,130.888 108.133,131.975 108.133,131.975 107.254,132.482 
				104.385,134.138 104.385,134.138 102.504,135.221 102.504,135.221 100.625,136.307 100.625,136.307 98.757,137.386 
				98.757,137.386 96.861,138.482 94.997,139.559 94.997,139.559 93.084,140.662 91.249,141.721 91.249,141.721 89.369,142.806 
				89.369,142.806 87.49,143.894 87.49,143.892 85.622,144.971 85.622,144.971 84.145,145.823 81.861,147.14 81.861,147.14 
				80.415,147.976 77.256,149.802 76.234,150.392 76.234,150.392 71.762,152.971 71.769,154.972 71.769,155.118 			"/>
		</g>
	</g>
	<g>
		<g>
			<g>
				<path fill="#2C3235" d="M81.286,274.096l30.7-77.814c2.678-6.798,9.91-10.099,13.38-5.373l31.03,42.168
					c3.22,4.354-0.136,12.158-4.96,14.944l-61.734,35.642C83.881,287.027,78.197,281.937,81.286,274.096z"/>
			</g>
			<g>
				<path fill="#FABA28" d="M122.929,192.699l31.033,42.171c1.878,2.542-0.382,8.422-4.038,10.533l-61.732,35.641
					c-3.656,2.111-5.942-1.144-4.091-5.839l30.699-77.812C116.377,193.387,120.871,189.895,122.929,192.699z"/>
			</g>
		</g>
		<g>
			<polygon fill="#2C3235" points="126.382,217.194 117.062,236.305 125.408,231.487 112.214,256.229 118.273,238.604 
				111.696,242.401 116.411,222.951 			"/>
		</g>
	</g>
</g>
</svg>
