<svg id="Capa_1" data-name="Capa 1" xmlns="http://www.w3.org/2000/svg" viewBox="0 0 180.696 600"><defs><style>.cls-1{fill:#d6d7ed;}.cls-2{fill:#5f7175;}.cls-3{fill:#95a8ab;}.cls-4{isolation:isolate;}.cls-5{fill:#e6e9eb;}.cls-6{fill:#355a60;}.cls-7{fill:#1b2e31;}.cls-8{fill:#5e7a7f;}.cls-9{fill:#a4aeb0;}.cls-10{fill:#b1bfc2;}.cls-11{fill:#e6ebec;}.cls-12{fill:#2c3235;}.cls-13{fill:#faba28;}</style></defs><polygon class="cls-1" points="2.396 541.977 57.352 573.706 178.298 503.877 123.343 472.149 2.396 541.977"/><polygon class="cls-2" points="155.615 543.268 132.93 530.171 132.93 521.918 155.615 535.015 155.615 543.268"/><polygon class="cls-2" points="57.353 591.746 178.3 521.918 178.3 503.759 57.353 573.587 57.353 591.746"/><polygon class="cls-2" points="155.615 543.268 178.3 530.171 178.3 521.918 155.615 535.015 155.615 543.268"/><polygon class="cls-2" points="57.353 600 80.038 586.903 80.038 578.649 57.353 591.746 57.353 600"/><polygon class="cls-3" points="47.766 568.271 25.081 581.368 25.081 573.114 47.766 560.017 47.766 568.271"/><polygon class="cls-3" points="2.396 560.017 57.353 591.746 57.353 573.587 2.396 541.858 2.396 560.017"/><polygon class="cls-3" points="34.669 586.903 57.353 600 57.353 591.746 34.669 578.649 34.669 586.903"/><polygon class="cls-3" points="2.396 568.271 25.081 581.368 25.081 573.114 2.396 560.017 2.396 568.271"/><g class="cls-4"><polygon class="cls-2" points="56.968 575.656 5.797 544.95 5.373 309.91 56.542 340.614 56.968 575.656"/><polygon class="cls-3" points="56.542 340.614 5.373 309.91 125.967 240.271 177.138 270.975 56.542 340.614"/><polygon class="cls-5" points="177.138 270.975 177.562 506.017 56.968 575.656 56.542 340.614 177.138 270.975"/></g><polygon class="cls-5" points="53.881 338.672 174.347 268.959 176.859 270.421 176.859 273.685 56.267 343.22 56.267 340.057 53.881 338.672"/><polygon class="cls-6" points="162.689 305.74 66.787 361.111 66.858 400.435 162.759 345.066 162.689 305.74"/><path class="cls-7" d="M101.177,358.654c.023,8.609,6.141,12.1,13.641,7.773s13.576-14.865,13.551-23.473h0c-.023-8.618-6.147-12.1-13.639-7.775s-13.578,14.856-13.553,23.475Z"/><path class="cls-8" d="M125.183,332.72c-.179-.105-.373-.179-.561-.267-.162-.074-.32-.166-.489-.229-.2-.072-.408-.12-.614-.177-.175-.048-.344-.111-.525-.148-.214-.042-.441-.055-.663-.083-.186-.022-.364-.059-.556-.066-.229-.013-.47.007-.706.013-.2.007-.387,0-.587.013-.251.022-.512.077-.768.118-.2.033-.389.05-.589.092-.282.063-.573.157-.861.242-.186.055-.369.092-.555.155-.32.112-.648.254-.975.391-.165.07-.327.123-.494.2-.5.229-1,.489-1.511.784-8.141,4.7-14.715,16.086-14.69,25.436,0,.581.03,1.14.082,1.68.016.174.052.334.073.5.045.352.087.71.155,1.042.04.2.1.378.146.572.07.282.133.572.218.837.061.192.144.362.214.548.093.24.177.491.283.719.084.176.187.334.278.5.113.2.218.424.342.616.105.157.225.3.337.441.133.177.257.367.4.527.121.135.26.248.388.375.151.149.3.306.458.437.14.113.294.2.44.306,2.707,1.893,6.615,1.821,10.97-.69,8.134-4.7,14.707-16.086,14.682-25.434C129.493,337.518,127.841,334.251,125.183,332.72Zm-10.365,32.248c-.43.249-.855.467-1.274.661-.134.062-.264.1-.395.16-.283.118-.566.242-.843.336-.156.053-.306.083-.461.131-.245.07-.494.151-.734.2-.166.04-.323.053-.485.079-.221.035-.446.081-.661.1-.166.016-.324,0-.486.011-.2.007-.407.02-.605.011-.158-.006-.309-.039-.463-.059a5,5,0,0,1-.566-.07c-.149-.03-.291-.08-.436-.122-.176-.05-.357-.089-.525-.151-.143-.056-.274-.128-.411-.194-.16-.072-.324-.138-.475-.225a6.139,6.139,0,0,1-1.079-.817c-1.6-1.483-2.565-3.916-2.574-7.159-.023-7.88,5.534-17.506,12.391-21.463,2.864-1.653,5.5-2.044,7.614-1.381a6.01,6.01,0,0,1,1.633.8c.124.087.255.164.373.262.135.109.257.242.384.365.111.1.228.2.332.321.122.138.229.3.341.446.093.124.194.237.283.369.106.165.2.351.294.53.076.14.161.269.23.418.091.192.164.406.244.613.057.153.124.3.176.452.074.225.127.474.186.714.039.16.091.306.123.475.057.281.092.587.132.886.017.142.047.273.061.417.042.452.066.929.067,1.418C127.231,351.379,121.668,361.015,114.818,364.968Z"/><polygon class="cls-8" points="155.172 314.221 155.217 344.304 159.207 346.626 159.15 311.923 155.172 314.221"/><polygon class="cls-9" points="72.656 391.972 72.67 396.589 159.207 346.626 155.217 344.304 72.656 391.972"/><polygon class="cls-8" points="61.92 358.802 62.003 402.742 65.994 405.059 65.911 361.122 61.92 358.802"/><polygon class="cls-10" points="165.825 303.438 161.835 301.114 61.92 358.802 65.911 361.122 165.825 303.438"/><path class="cls-11" d="M165.825,303.438,65.911,361.122l.083,43.937,99.914-57.684ZM72.67,396.589l-.014-4.617-.043-30.086,82.559-47.665,3.978-2.3.057,34.7Z"/><polygon class="cls-11" points="159.745 316.975 159.738 314.826 116.18 340.054 116.18 340.054 114.301 341.142 114.301 341.142 112.432 342.218 112.432 342.218 110.551 343.306 110.551 343.306 108.673 344.387 108.673 344.387 107.794 344.896 104.924 346.552 104.924 346.552 103.044 347.637 103.044 347.637 101.164 348.725 101.164 348.725 99.297 349.804 99.297 349.804 97.401 350.896 95.537 351.973 95.537 351.973 93.624 353.078 91.789 354.137 91.789 354.137 89.909 355.222 89.909 355.222 88.029 356.308 88.029 356.306 86.162 357.387 86.162 357.387 84.684 358.239 82.401 359.558 82.401 359.558 80.955 360.39 77.796 362.216 76.774 362.805 76.774 362.805 72.302 365.385 72.308 367.388 72.308 367.534 159.745 316.975"/><polygon class="cls-11" points="72.321 371.854 159.757 321.29 159.751 319.133 72.315 369.694 72.321 371.854"/><polygon class="cls-11" points="159.763 323.44 72.327 374.001 72.332 376.159 159.769 325.6 159.763 323.44"/><polygon class="cls-11" points="159.745 329.95 159.738 327.804 116.18 353.032 116.18 353.032 114.301 354.115 114.301 354.115 112.432 355.194 112.432 355.194 110.551 356.28 110.551 356.28 108.673 357.365 108.673 357.365 107.794 357.874 104.924 359.529 104.924 359.529 103.044 360.613 103.044 360.613 101.164 361.7 101.164 361.7 99.297 362.777 99.297 362.777 97.401 363.874 95.537 364.95 95.537 364.95 93.624 366.053 91.789 367.113 91.789 367.113 89.909 368.198 89.909 368.198 88.029 369.286 88.029 369.283 86.162 370.362 86.162 370.362 84.684 371.214 82.401 372.531 82.401 372.531 80.955 373.368 77.796 375.194 76.774 375.783 76.774 375.783 72.302 378.363 72.308 380.363 72.308 380.51 159.745 329.95"/><polygon class="cls-11" points="72.321 384.832 159.757 334.268 159.751 332.11 72.315 382.67 72.321 384.832"/><polygon class="cls-11" points="159.763 336.415 72.327 386.977 72.332 389.137 159.769 338.575 159.763 336.415"/><polygon class="cls-11" points="159.745 342.944 159.738 340.799 116.18 366.027 116.18 366.027 114.301 367.11 114.301 367.11 112.432 368.189 112.432 368.189 110.551 369.275 110.551 369.275 108.673 370.362 108.673 370.362 107.794 370.869 104.924 372.525 104.924 372.525 103.044 373.608 103.044 373.608 101.164 374.694 101.164 374.694 99.297 375.772 99.297 375.772 97.401 376.869 95.537 377.946 95.537 377.946 93.624 379.049 91.789 380.108 91.789 380.108 89.909 381.193 89.909 381.193 88.029 382.281 88.029 382.279 86.162 383.358 86.162 383.358 84.684 384.21 82.401 385.527 82.401 385.527 80.955 386.363 77.796 388.189 76.774 388.779 76.774 388.779 72.302 391.358 72.308 393.359 72.308 393.505 159.745 342.944"/><path class="cls-12" d="M81.826,512.483l30.7-77.814c2.678-6.8,9.91-10.1,13.381-5.372l31.029,42.167c3.22,4.355-.136,12.158-4.959,14.944L90.243,522.049C84.42,525.414,78.736,520.324,81.826,512.483Z"/><path class="cls-13" d="M123.469,431.086,154.5,473.257c1.879,2.542-.382,8.422-4.038,10.533L88.731,519.431c-3.656,2.111-5.942-1.145-4.091-5.84l30.7-77.812C116.917,431.774,121.411,428.282,123.469,431.086Z"/><polygon class="cls-12" points="126.922 455.581 117.602 474.692 125.948 469.874 112.754 494.616 118.812 476.991 112.235 480.788 116.951 461.338 126.922 455.581"/></svg>