<svg xmlns="http://www.w3.org/2000/svg" viewBox="0 0 187.743 600"><defs><style>.cls-1{isolation:isolate;}.cls-2{fill:#28306b;}.cls-3{fill:#1e2144;}.cls-4{fill:#8bcac3;}.cls-5{fill:#010101;mix-blend-mode:multiply;}.cls-6{fill:#282929;}.cls-7{fill:#6c4449;}.cls-8{fill:#83575f;}.cls-9{fill:#57343a;}.cls-10{fill:#6088a0;}.cls-11,.cls-12{fill:#83a4bf;}.cls-12{mix-blend-mode:overlay;}.cls-13{fill:#fed86d;}.cls-14{fill:#bdbec0;}.cls-15{fill:#d1d1d1;}.cls-16{fill:#9d9d9e;}</style></defs><g class="cls-1"><g id="Capa_1" data-name="Capa 1"><polygon class="cls-2" points="53.92 239.111 160.423 299.042 186.292 313.735 132.335 344.889 67.613 307.518 67.535 307.565 1.451 269.407 53.92 239.111"/><polygon class="cls-2" points="132.332 515.885 132.376 515.858 132.332 430.374 132.376 430.357 132.332 344.928 186.292 313.758 186.292 399.215 186.292 399.459 186.292 484.724 186.292 484.907 186.292 570.18 186.292 570.268 132.376 599.997 132.332 515.885"/><polygon class="cls-3" points="66.295 306.824 66.295 306.742 132.376 344.889 132.376 430.342 132.376 430.628 132.376 515.855 132.376 516.078 132.376 599.997 132.359 600 1.489 524.79 1.489 440.591 1.489 440.372 1.489 355.144 1.489 354.86 1.489 269.412 66.295 306.824"/><path class="cls-4" d="M65.577,422.065a10.783,10.783,0,0,0,4.895,8.44c2.7,1.561,4.9.313,4.9-2.789a10.792,10.792,0,0,0-4.895-8.443C67.77,417.71,65.577,418.96,65.577,422.065Zm1.25.72c0-2.311,1.632-3.239,3.645-2.079a8.032,8.032,0,0,1,3.645,6.286c0,2.311-1.63,3.243-3.645,2.081A8.033,8.033,0,0,1,66.827,422.785Z"/><rect class="cls-5" x="60.657" y="307.856" width="2.42" height="246.216"/><polygon class="cls-6" points="128.834 372.44 128.861 345.441 97.115 328.654 97.115 355.654 97.115 362.674 97.115 382.679 97.115 389.676 97.115 416.623 97.115 409.758 97.115 436.762 128.834 453.554 128.861 426.469 128.834 426.464 128.861 399.468 128.834 399.459 128.861 372.446 128.834 372.44"/><polygon class="cls-7" points="125.768 352.139 102.841 338.903 102.841 338.908 101.64 339.599 101.64 375.922 101.652 375.915 124.572 389.151 125.768 388.461 107.338 377.819 125.768 388.461 125.768 352.139"/><polygon class="cls-8" points="102.846 338.903 101.652 339.589 124.577 352.825 125.768 352.139 102.846 338.903"/><polygon class="cls-9" points="125.768 352.134 124.567 352.83 124.567 389.151 125.768 388.461 125.768 352.134"/><polygon class="cls-10" points="122.765 353.313 100.998 340.748 101.742 340.318 123.503 352.883 122.765 353.313"/><polygon class="cls-11" points="122.759 388.26 100.998 375.693 100.998 340.748 122.759 353.308 122.759 388.26"/><polygon class="cls-10" points="122.759 388.26 122.759 353.313 123.508 352.878 123.508 387.827 122.759 388.26"/><polygon class="cls-8" points="125.592 359.426 124.779 359.894 124.779 356.136 125.592 355.668 125.592 359.426"/><polygon class="cls-8" points="125.592 363.53 124.779 363.992 124.779 360.234 125.592 359.767 125.592 363.53"/><path class="cls-8" d="M125.518,387.322a.606.606,0,0,1-.281.49h0c-.155.095-.282.021-.282-.159v-7.2a.625.625,0,0,1,.282-.489h0c.159-.09.281-.015.281.159Z"/><polygon class="cls-12" points="114.977 368.511 114.977 352.559 108.87 349.03 108.87 349.03 103.826 346.111 103.826 365.954 103.826 365.954 103.826 365.964 114.977 372.408 114.977 372.398 114.977 368.511 114.977 368.511"/><path class="cls-12" d="M120.41,378.951V354.059l-9.536-5.509a.017.017,0,0,0,.01,0L103.007,344V374.97h0v.01l17.4,10.047v-6.076Z"/><polygon class="cls-12" points="103.58 372.243 110.135 354.398 122.621 354.616 122.78 355.106 122.78 353.308 101.018 340.748 101.018 375.693 105.579 378.329 103.58 372.243"/><path class="cls-13" d="M102.1,385.76a4.38,4.38,0,0,0,1.982,3.423h0c1.1.634,1.984.129,1.984-1.137h0a4.341,4.341,0,0,0-1.989-3.412h0c-1.089-.639-1.977-.129-1.977,1.126Z"/><path class="cls-13" d="M109.469,388.28a2.7,2.7,0,0,0,1.234,2.111h0c.671.388,1.223.08,1.218-.7h0a2.69,2.69,0,0,0-1.223-2.115h0c-.675-.389-1.229-.075-1.229.7Z"/><path class="cls-13" d="M115.371,406.422a5.809,5.809,0,0,0,2.636,4.55h0c1.457.84,2.636.165,2.636-1.5h0a5.8,5.8,0,0,0-2.636-4.546h0c-1.455-.841-2.636-.17-2.636,1.5Z"/><polygon class="cls-14" points="121.643 392.851 123.125 391.995 118.746 389.471 117.263 390.321 121.643 392.851"/><polygon class="cls-15" points="121.643 394.776 121.643 392.851 117.263 390.321 117.263 392.244 121.643 394.776"/><polygon class="cls-16" points="121.643 394.776 123.125 393.92 123.125 391.995 121.643 392.851 121.643 394.776"/><polygon class="cls-14" points="121.643 397.131 123.125 396.275 118.746 393.744 117.263 394.6 121.643 397.131"/><polygon class="cls-15" points="121.643 399.056 121.643 397.131 117.263 394.6 117.263 396.519 121.643 399.056"/><polygon class="cls-16" points="121.643 399.056 123.125 398.198 123.125 396.275 121.643 397.131 121.643 399.056"/></g></g></svg>