<svg id="Capa_1" data-name="Capa 1" xmlns="http://www.w3.org/2000/svg" viewBox="0 0 186.184 362.801"><defs><style>.cls-1,.cls-8{fill:#010101;}.cls-1{opacity:0.3;}.cls-2{fill:#fff;}.cls-3{fill:#d0cdd3;}.cls-4{fill:#d5d2d1;}.cls-5{fill:#0a0b0b;}.cls-6{fill:#a49d96;}.cls-7{fill:#363636;}.cls-9{fill:#e6e1dd;}.cls-10{fill:#b5afa7;}.cls-11{fill:#82cddf;}.cls-12{fill:#d7d1c7;}.cls-13{fill:#584a44;}.cls-14{fill:#090909;}.cls-15{fill:#362d2a;}.cls-16{fill:#c94130;}</style></defs><polygon class="cls-1" points="125.444 360.518 2.1 289.304 60.74 255.434 184.084 326.644 125.444 360.518"/><polygon class="cls-2" points="81.877 266.296 23.236 300.168 21.252 269.544 22.305 52.102 23.236 48.361 81.877 14.489 81.877 266.296"/><polygon class="cls-2" points="81.877 14.489 23.236 48.361 18.92 47.69 6.009 40.487 2.1 36.157 60.74 2.283 81.877 14.489"/><path class="cls-3" d="M2.1,36.155V287.966l21.136,12.2V48.361Z"/><polygon class="cls-4" points="184.084 325.304 125.444 359.178 123.455 328.551 124.512 111.11 125.444 107.369 184.084 73.495 184.084 325.304"/><polygon class="cls-2" points="184.084 73.495 125.444 107.369 121.123 106.697 28.156 53.272 24.244 48.942 82.888 15.07 184.084 73.495"/><path class="cls-3" d="M24.244,48.942V300.749l101.2,58.429V107.369Z"/><polygon class="cls-5" points="118.215 338.917 118.215 340.034 31.473 289.951 31.473 211.035 32.435 211.589 118.215 338.917"/><path class="cls-6" d="M32.435,211.589v77.805l85.78,49.523v-77.8Z"/><polygon class="cls-7" points="116.162 264.887 116.162 265.17 115.547 265.519 35.163 219.109 34.525 218.047 34.525 217.009 35.163 216.689 35.374 216.809 116.162 264.887"/><polygon class="cls-8" points="116.162 264.166 116.162 264.887 36.012 218.622 35.374 217.552 35.374 216.809 115.547 263.081 116.162 264.166"/><polygon class="cls-7" points="116.162 272.223 116.162 272.505 115.547 272.854 35.163 226.444 34.525 225.382 34.525 224.342 35.163 224.023 35.374 224.144 116.162 272.223"/><polygon class="cls-8" points="116.162 271.501 116.162 272.223 36.012 225.955 35.374 224.889 35.374 224.144 115.547 270.414 116.162 271.501"/><polygon class="cls-7" points="116.162 279.558 116.162 279.841 115.547 280.188 35.163 233.776 34.525 232.714 34.525 231.675 35.163 231.358 35.374 231.479 116.162 279.558"/><polygon class="cls-8" points="116.162 278.834 116.162 279.558 36.012 233.29 35.374 232.224 35.374 231.479 115.547 277.751 116.162 278.834"/><polygon class="cls-7" points="116.162 286.893 116.162 287.174 115.547 287.523 35.163 241.111 34.525 240.049 34.525 239.011 35.163 238.693 35.374 238.813 116.162 286.893"/><polygon class="cls-8" points="116.162 286.169 116.162 286.893 36.012 240.626 35.374 239.559 35.374 238.813 115.547 285.084 116.162 286.169"/><polygon class="cls-7" points="116.162 294.226 116.162 294.509 115.547 294.86 35.163 248.448 34.525 247.384 34.525 246.346 35.163 246.025 35.374 246.146 116.162 294.226"/><polygon class="cls-8" points="116.162 293.505 116.162 294.226 36.012 247.959 35.374 246.894 35.374 246.146 115.547 292.419 116.162 293.505"/><polygon class="cls-7" points="116.162 301.563 116.162 301.845 115.547 302.192 35.163 255.781 34.525 254.718 34.525 253.681 35.163 253.362 35.374 253.483 116.162 301.563"/><polygon class="cls-8" points="116.162 300.84 116.162 301.563 36.012 255.296 35.374 254.228 35.374 253.483 115.547 299.755 116.162 300.84"/><polygon class="cls-7" points="116.162 308.895 116.162 309.178 115.547 309.525 35.163 263.117 34.525 262.055 34.525 261.016 35.163 260.697 35.374 260.818 116.162 308.895"/><polygon class="cls-8" points="116.162 308.175 116.162 308.895 36.012 262.631 35.374 261.561 35.374 260.818 115.547 307.09 116.162 308.175"/><polygon class="cls-7" points="116.162 316.232 116.162 316.513 115.547 316.862 35.163 270.452 34.525 269.39 34.525 268.353 35.163 268.031 35.374 268.152 116.162 316.232"/><polygon class="cls-8" points="116.162 315.509 116.162 316.232 36.012 269.963 35.374 268.898 35.374 268.152 115.547 314.423 116.162 315.509"/><polygon class="cls-7" points="116.162 323.567 116.162 323.848 115.547 324.197 35.163 277.785 34.525 276.721 34.525 275.683 35.163 275.366 35.374 275.487 116.162 323.567"/><polygon class="cls-8" points="116.162 322.842 116.162 323.567 36.012 277.298 35.374 276.232 35.374 275.487 115.547 321.757 116.162 322.842"/><polygon class="cls-7" points="116.162 330.901 116.162 331.184 115.547 331.532 35.163 285.122 34.525 284.056 34.525 283.02 35.163 282.703 35.374 282.824 116.162 330.901"/><polygon class="cls-8" points="116.162 330.177 116.162 330.901 36.012 284.633 35.374 283.565 35.374 282.824 115.547 329.092 116.162 330.177"/><path class="cls-9" d="M87.038,209.384l-.475.272,11.5,13.086.479-6.721Z"/><path class="cls-6" d="M94.6,217.279l3.46,5.463.479-.271v-6.45l-.479.273Z"/><path class="cls-10" d="M86.563,209.656V216.1l11.5,6.64v-6.448Z"/><polygon class="cls-9" points="97.297 220.231 97.297 221.403 87.015 215.466 87.015 210.763 88.027 211.342 90.864 214.559 97.297 220.231"/><polygon class="cls-11" points="97.297 216.7 97.297 220.231 88.027 214.883 88.027 211.342 97.297 216.7"/><path class="cls-9" d="M73.984,150.112l-2.038,1.175,36.538,40.256,2.037-20.336Z"/><path class="cls-6" d="M104.379,180.758l4.1,10.785,2.037-1.175V171.207l-2.037,1.179Z"/><path class="cls-12" d="M71.946,151.287v19.159l36.538,21.1V172.386Z"/><path class="cls-9" d="M73.984,130.307l-2.038,1.176,36.538,40.256,2.037-20.335Z"/><path class="cls-6" d="M104.379,160.955l4.1,10.784,2.037-1.176V151.4l-2.037,1.177Z"/><path class="cls-12" d="M71.946,131.483v19.159l36.538,21.1V152.581Z"/><path class="cls-13" d="M77.881,137.459l-1.019.583,24.616,28.018,1.03-14.388Z"/><path class="cls-14" d="M94.071,154.364l7.407,11.7,1.03-.583V151.672l-1.03.583Z"/><path class="cls-15" d="M76.862,138.042v13.805l24.616,14.213V152.255Z"/><polygon class="cls-5" points="99.844 160.688 99.844 163.193 77.836 150.48 77.836 140.415 79.994 141.658 86.069 148.538 99.844 160.688"/><polygon class="cls-11" points="99.844 153.124 99.844 160.688 79.994 149.233 79.994 141.658 99.844 153.124"/><path class="cls-9" d="M73.984,110.5l-2.038,1.177,36.538,40.254,2.037-20.335Z"/><path class="cls-6" d="M104.379,141.151l4.1,10.783,2.037-1.175V131.6l-2.037,1.177Z"/><path class="cls-12" d="M71.946,111.68v19.159l36.538,21.1V132.776Z"/><path class="cls-9" d="M73.984,83.365l-2.038,1.178,36.538,47.59,2.037-27.669Z"/><path class="cls-6" d="M104.379,121.346l4.1,10.787,2.037-1.177V104.464l-2.037,1.175Z"/><path class="cls-12" d="M71.946,84.543v26.492l36.538,21.1V105.639Z"/><polygon class="cls-16" points="85.231 101.234 91.581 104.9 91.581 101.321 85.231 97.654 85.231 101.234"/><polygon class="cls-16" points="92.437 101.815 92.437 105.394 95.199 106.99 95.199 103.411 92.437 101.815"/></svg>