<svg id="Capa_1" data-name="Capa 1" xmlns="http://www.w3.org/2000/svg" viewBox="0 0 184.996 600"><defs><style>.cls-1,.cls-8{fill:#010101;}.cls-1{opacity:0.3;}.cls-2{fill:#fff;}.cls-3{fill:#d0cdd3;}.cls-4{fill:#d5d2d1;}.cls-5{fill:#0a0b0b;}.cls-6{fill:#a49d96;}.cls-7{fill:#363636;}.cls-9{fill:#e6e1dd;}.cls-10{fill:#b5afa7;}.cls-11{fill:#82cddf;}.cls-12{fill:#d7d1c7;}.cls-13{fill:#584a44;}.cls-14{fill:#090909;}.cls-15{fill:#362d2a;}.cls-16{fill:#c94130;}</style></defs><polygon class="cls-1" points="124.85 600 1.506 528.786 60.146 494.916 183.49 566.126 124.85 600"/><polygon class="cls-2" points="81.283 505.778 22.643 539.651 20.658 509.027 21.711 291.585 22.643 287.843 81.283 253.971 81.283 505.778"/><polygon class="cls-2" points="81.283 253.971 22.643 287.843 18.326 287.172 5.415 279.969 1.506 275.64 60.146 241.765 81.283 253.971"/><path class="cls-3" d="M1.506,275.638V527.449l21.137,12.2V287.843Z"/><polygon class="cls-4" points="183.49 564.787 124.85 598.661 122.861 568.033 123.918 350.592 124.85 346.852 183.49 312.977 183.49 564.787"/><polygon class="cls-2" points="183.49 312.977 124.85 346.852 120.53 346.18 27.562 292.754 23.65 288.425 82.294 254.552 183.49 312.977"/><path class="cls-3" d="M23.65,288.425V540.232l101.2,58.429V346.852Z"/><polygon class="cls-5" points="117.621 578.4 117.621 579.517 30.879 529.433 30.879 450.517 31.841 451.072 117.621 578.4"/><path class="cls-6" d="M31.841,451.072v77.8l85.78,49.523V500.6Z"/><polygon class="cls-7" points="115.568 504.369 115.568 504.652 114.953 505.001 34.569 458.591 33.932 457.529 33.932 456.492 34.569 456.171 34.78 456.292 115.568 504.369"/><polygon class="cls-8" points="115.568 503.649 115.568 504.369 35.418 458.105 34.78 457.035 34.78 456.292 114.953 502.564 115.568 503.649"/><polygon class="cls-7" points="115.568 511.706 115.568 511.987 114.953 512.336 34.569 465.926 33.932 464.864 33.932 463.824 34.569 463.506 34.78 463.626 115.568 511.706"/><polygon class="cls-8" points="115.568 510.983 115.568 511.706 35.418 465.437 34.78 464.371 34.78 463.626 114.953 509.897 115.568 510.983"/><polygon class="cls-7" points="115.568 519.04 115.568 519.324 114.953 519.671 34.569 473.259 33.932 472.197 33.932 471.157 34.569 470.841 34.78 470.961 115.568 519.04"/><polygon class="cls-8" points="115.568 518.316 115.568 519.04 35.418 472.772 34.78 471.706 34.78 470.961 114.953 517.233 115.568 518.316"/><polygon class="cls-7" points="115.568 526.375 115.568 526.656 114.953 527.006 34.569 480.594 33.932 479.532 33.932 478.494 34.569 478.175 34.78 478.296 115.568 526.375"/><polygon class="cls-8" points="115.568 525.651 115.568 526.375 35.418 480.109 34.78 479.041 34.78 478.296 114.953 524.566 115.568 525.651"/><polygon class="cls-7" points="115.568 533.708 115.568 533.991 114.953 534.342 34.569 487.93 33.932 486.866 33.932 485.829 34.569 485.508 34.78 485.629 115.568 533.708"/><polygon class="cls-8" points="115.568 532.988 115.568 533.708 35.418 487.442 34.78 486.376 34.78 485.629 114.953 531.901 115.568 532.988"/><polygon class="cls-7" points="115.568 541.045 115.568 541.328 114.953 541.675 34.569 495.263 33.932 494.201 33.932 493.163 34.569 492.845 34.78 492.965 115.568 541.045"/><polygon class="cls-8" points="115.568 540.322 115.568 541.045 35.418 494.778 34.78 493.711 34.78 492.965 114.953 539.238 115.568 540.322"/><polygon class="cls-7" points="115.568 548.378 115.568 548.661 114.953 549.008 34.569 502.6 33.932 501.538 33.932 500.498 34.569 500.179 34.78 500.3 115.568 548.378"/><polygon class="cls-8" points="115.568 547.657 115.568 548.378 35.418 502.113 34.78 501.043 34.78 500.3 114.953 546.572 115.568 547.657"/><polygon class="cls-7" points="115.568 555.714 115.568 555.996 114.953 556.344 34.569 509.934 33.932 508.872 33.932 507.835 34.569 507.514 34.78 507.635 115.568 555.714"/><polygon class="cls-8" points="115.568 554.992 115.568 555.714 35.418 509.446 34.78 508.38 34.78 507.635 114.953 553.905 115.568 554.992"/><polygon class="cls-7" points="115.568 563.049 115.568 563.33 114.953 563.679 34.569 517.267 33.932 516.203 33.932 515.166 34.569 514.849 34.78 514.969 115.568 563.049"/><polygon class="cls-8" points="115.568 562.325 115.568 563.049 35.418 516.781 34.78 515.715 34.78 514.969 114.953 561.24 115.568 562.325"/><polygon class="cls-7" points="115.568 570.384 115.568 570.667 114.953 571.014 34.569 524.604 33.932 523.538 33.932 522.502 34.569 522.185 34.78 522.306 115.568 570.384"/><polygon class="cls-8" points="115.568 569.659 115.568 570.384 35.418 524.115 34.78 523.048 34.78 522.306 114.953 568.575 115.568 569.659"/><path class="cls-9" d="M86.444,448.867l-.475.271,11.5,13.087.479-6.722Z"/><path class="cls-6" d="M94.009,456.761l3.46,5.464.479-.272V455.5l-.479.273Z"/><path class="cls-10" d="M85.969,449.138v6.446l11.5,6.641v-6.449Z"/><polygon class="cls-9" points="96.703 459.714 96.703 460.885 86.422 454.949 86.422 450.245 87.433 450.825 90.27 454.041 96.703 459.714"/><polygon class="cls-11" points="96.703 456.182 96.703 459.714 87.433 454.366 87.433 450.825 96.703 456.182"/><path class="cls-9" d="M73.39,389.594l-2.038,1.175,36.538,40.257,2.038-20.337Z"/><path class="cls-6" d="M103.785,420.241l4.105,10.785,2.038-1.176V410.689l-2.038,1.179Z"/><path class="cls-12" d="M71.352,390.769v19.16l36.538,21.1V411.868Z"/><path class="cls-9" d="M73.39,369.79l-2.038,1.175,36.538,40.256,2.038-20.335Z"/><path class="cls-6" d="M103.785,400.438l4.105,10.783,2.038-1.175v-19.16l-2.038,1.178Z"/><path class="cls-12" d="M71.352,370.965v19.159l36.538,21.1V392.064Z"/><path class="cls-13" d="M77.287,376.941l-1.018.583,24.615,28.019,1.03-14.389Z"/><path class="cls-14" d="M93.477,393.846l7.407,11.7,1.03-.583V391.154l-1.03.583Z"/><path class="cls-15" d="M76.269,377.524V391.33l24.615,14.213V391.737Z"/><polygon class="cls-5" points="99.25 400.17 99.25 402.675 77.242 389.962 77.242 379.898 79.4 381.141 85.475 388.021 99.25 400.17"/><polygon class="cls-11" points="99.25 392.607 99.25 400.17 79.4 388.715 79.4 381.141 99.25 392.607"/><path class="cls-9" d="M73.39,349.985l-2.038,1.177,36.538,40.254,2.038-20.334Z"/><path class="cls-6" d="M103.785,380.633l4.105,10.783,2.038-1.175V371.082l-2.038,1.177Z"/><path class="cls-12" d="M71.352,351.162v19.16l36.538,21.094V372.259Z"/><path class="cls-9" d="M73.39,322.848l-2.038,1.177,36.538,47.591,2.038-27.67Z"/><path class="cls-6" d="M103.785,360.829l4.105,10.787,2.038-1.178V343.946l-2.038,1.176Z"/><path class="cls-12" d="M71.352,324.025v26.492l36.538,21.1V345.122Z"/><polygon class="cls-16" points="84.637 340.717 90.987 344.382 90.987 340.803 84.637 337.136 84.637 340.717"/><polygon class="cls-16" points="91.843 341.298 91.843 344.876 94.605 346.472 94.605 342.893 91.843 341.298"/></svg>