<?xml version="1.0" encoding="utf-8"?>
<!-- Generator: Adobe Illustrator 26.0.1, SVG Export Plug-In . SVG Version: 6.00 Build 0)  -->
<svg version="1.1" id="Capa_1" xmlns="http://www.w3.org/2000/svg" xmlns:xlink="http://www.w3.org/1999/xlink" x="0px" y="0px"
	 viewBox="0 0 189.176 360" style="enable-background:new 0 0 189.176 360;" xml:space="preserve">
<style type="text/css">
	.Sombra_x0020_paralela{fill:none;}
	.Esquinas_x0020_redondeadas_x0020_2_x0020_pt_x002E_{fill:#FFFFFF;stroke:#000000;stroke-miterlimit:10;}
	.Reflejo_x0020_vivo_x0020_X{fill:none;}
	.Bisel_x0020_suave{fill:url(#SVGID_1_);}
	.Atardecer{fill:#FFFFFF;}
	.Follaje_GS{fill:#FFDD00;}
	.Pompadour_GS{fill-rule:evenodd;clip-rule:evenodd;fill:#51AEE2;}
	.st0{enable-background:new    ;}
	.st1{fill:#282744;}
	.st2{fill:#36365C;}
	.st3{fill:#DAF0FD;}
	.st4{fill:#6194C4;}
	.st5{fill:#C4E0F6;}
	.st6{fill:#C3DDF5;}
	.st7{fill:#4A486A;}
	.st8{fill:#FFD255;}
	.st9{fill:#81AEDA;}
	.st10{fill:#8EB9E1;}
	.st11{fill:#A8D0F0;}
	.st12{fill:#2F2E34;}
	.st13{fill:#C7D1D1;}
	.st14{fill:#939F9E;}
	.st15{fill:#7D8787;}
	.st16{fill:#A1AEB3;}
	.st17{fill:#4F4C58;}
	.st18{fill:#63606F;}
	.st19{fill:#585564;}
	.st20{fill:#404047;}
	.st21{fill:#4A6C5C;}
	.st22{fill:#58806D;}
	.st23{fill:#3D5047;}
	.st24{fill:#40584D;}
	.st25{fill:#EDAC32;}
	.st26{fill:#FEE883;}
	.st27{fill:#D0842E;}
	.st28{fill:#623942;}
	.st29{fill:#81505A;}
	.st30{fill:#71454E;}
	.st31{fill:#BBCEEC;}
	.st32{fill:#EBF1FB;}
	.st33{fill:#CCDAF1;}
	.st34{fill:#2B3235;}
	.st35{fill:#505860;}
	.st36{fill:#FFFFFF;}
	.st37{fill:#FBBB26;}
	.st38{fill:#B0B8CF;}
	.st39{fill:#9EA9C8;}
	.st40{fill:#E3E7F0;}
	.st41{fill:#C9CEE2;}
	.st42{fill:#EA526F;}
	.st43{fill:#F7CE6D;}
	.st44{fill:#68ACDF;}
	.st45{fill:#6089C7;}
	.st46{fill:#87BF54;}
	.st47{fill:#67B765;}
	.st48{opacity:0.3;}
	.st49{fill:#4C71B6;}
	.st50{fill:#DBE5F6;}
	.st51{fill:#A49D96;}
	.st52{fill:#E6E1DD;}
	.st53{fill:#DEDEDE;}
	.st54{fill:#D7D1C7;}
	.st55{fill:#584A44;}
	.st56{fill:#090909;}
	.st57{fill:#362D2A;}
	.st58{fill:#0A0B0B;}
	.st59{fill:#82CDDF;}
	.st60{fill:#C94130;}
	.st61{opacity:0.3;fill:#020203;}
	.st62{fill:#585858;}
	.st63{fill:#363636;}
	.st64{fill:#020203;}
	.st65{fill:#B5AFA7;}
	.st66{fill:#EB5D55;}
	.st67{fill:#8B1D14;}
	.st68{fill:#73959D;}
	.st69{fill:#85A4AA;}
	.st70{fill:#E7F2F7;}
	.st71{fill:#98B0B5;}
	.st72{fill:#C1CED0;}
	.st73{fill:#899296;}
	.st74{fill:#ABB2B5;}
	.st75{fill:#1B1B1B;}
	.st76{fill:#2A292A;}
	.st77{fill:#9A9FA1;}
	.st78{fill:#6999D1;}
	.st79{fill:#D2D4DB;}
	.st80{fill:#949499;}
	.st81{fill:#232A2B;}
	.st82{fill:#1C2123;}
	.st83{fill:#272E31;}
	.st84{fill:#121618;}
	.st85{fill:#181D1F;}
	.st86{fill:#353E42;}
	.st87{fill:#D6D7D7;}
	.st88{fill:#DDEFF1;}
	.st89{fill:#101315;}
	.st90{fill:#3761AB;}
	.st91{fill:url(#SVGID_00000080887238609150936990000016669263279126306234_);}
	.st92{fill:url(#SVGID_00000112600473060201925840000005556839360446191760_);}
	.st93{fill:url(#SVGID_00000031914824549484252320000006289459076237717898_);}
	.st94{fill:url(#SVGID_00000171700384704538675480000018198890304247806360_);}
	.st95{fill:url(#SVGID_00000082336491064766357100000004210493902175071918_);}
	.st96{fill:#090914;}
	.st97{fill:#64B32E;}
	.st98{fill:url(#SVGID_00000054240958957125403180000006246091600682366366_);}
	.st99{fill:url(#SVGID_00000071553166223420387440000017233824802807989663_);}
	.st100{fill:url(#SVGID_00000109722082905652305380000017666191191950535325_);}
	.st101{fill:url(#SVGID_00000029737344278096730520000001289792376907081096_);}
	.st102{fill:url(#SVGID_00000166660967063640563030000005669063437610119084_);}
	.st103{fill:url(#SVGID_00000017512720817563765220000018105697234988600744_);}
	.st104{fill:url(#SVGID_00000120553316116183476250000010074438388146379694_);}
	.st105{fill:url(#SVGID_00000155128416960102199870000006129523295003087766_);}
	.st106{fill:url(#SVGID_00000020373803869940880180000015196811701012988314_);}
	.st107{fill:url(#SVGID_00000088114092259036727770000007397794924546555529_);}
	.st108{fill:url(#SVGID_00000141424682576415124720000002519124874998244750_);}
	.st109{fill:url(#SVGID_00000130648076748592773530000015651652702033222551_);}
	.st110{fill:url(#SVGID_00000047051644322364192920000014492082764538965172_);}
	.st111{fill:url(#SVGID_00000118372579022684102750000017041456424359677088_);}
	.st112{fill:url(#SVGID_00000114776045103526438990000003668897792094121138_);}
	.st113{fill:url(#SVGID_00000095327336435700850360000003853600794580485291_);}
	.st114{fill:url(#SVGID_00000162311598168690891800000006290906036891045788_);}
	.st115{fill:url(#SVGID_00000011026535770371916330000009146274880302154113_);}
	.st116{fill:url(#SVGID_00000174601246494035148650000010410478225580819111_);}
	.st117{fill:url(#SVGID_00000137810658721921837620000006100189833442500238_);}
	.st118{fill:url(#SVGID_00000127761663162496316910000003604705840770524600_);}
	.st119{fill:url(#SVGID_00000124146983709615775310000016606688979492356245_);}
	.st120{fill:url(#SVGID_00000103958929658807230540000016905616167263226043_);}
	.st121{fill:url(#SVGID_00000012454037208897931650000006637920441284701316_);}
	.st122{fill:url(#SVGID_00000061440501013045831120000006458700654657102235_);}
	.st123{fill:url(#SVGID_00000091729761458576998880000001898486051540169868_);}
	.st124{fill:url(#SVGID_00000031190289716795449060000015373517354996648360_);}
	.st125{fill:url(#SVGID_00000107554787587810123950000011476601669186188178_);}
	.st126{fill:url(#SVGID_00000142894093520496185320000009991452463622686626_);}
	.st127{fill:url(#SVGID_00000052788327415283581800000002479452366793146752_);}
	.st128{fill:url(#SVGID_00000048489963192401644290000010906100243530576566_);}
	.st129{fill:url(#SVGID_00000147219320838688802440000001577369010055179689_);}
	.st130{fill:url(#SVGID_00000096765564503524339090000018168517239062421179_);}
	.st131{fill:url(#SVGID_00000017513044955542454490000003205055336238551220_);}
	.st132{fill:url(#SVGID_00000105425086088397665790000004292286152049175479_);}
	.st133{fill:url(#SVGID_00000079461603134529069780000006269046088481219493_);}
	.st134{fill:url(#SVGID_00000112596287994747084270000004958295178645396909_);}
	.st135{fill:url(#SVGID_00000057834705782333860320000016652399173479671219_);}
	.st136{fill:url(#SVGID_00000116233579543627342650000005497433396290444469_);}
	.st137{fill:url(#SVGID_00000046341157713300190310000015934442810657083812_);}
	.st138{fill:url(#SVGID_00000137134535324529041920000008080104014627666358_);}
	.st139{fill:url(#SVGID_00000035511474599257948670000007744841072423227549_);}
	.st140{fill:url(#SVGID_00000089559794154039261090000010884478656464534696_);}
	.st141{fill:url(#SVGID_00000145045787583304211700000004125300733465241497_);}
	.st142{fill:url(#SVGID_00000150070188261577072700000009578261995017760408_);}
	.st143{fill:url(#SVGID_00000083777699163296420540000012633939780902242206_);}
	.st144{fill:url(#SVGID_00000060017967558235625430000000453071239982218124_);}
	.st145{fill:url(#SVGID_00000137831846167208244750000005807680797804559766_);}
	.st146{fill:url(#SVGID_00000176010602472304847760000001819264113263395990_);}
	.st147{fill:url(#SVGID_00000155126652199471731950000007595369756193456274_);}
	.st148{fill:url(#SVGID_00000089562124372117768360000015455957587374228119_);}
	.st149{fill:url(#SVGID_00000160899269022672916660000004881462474793491600_);}
	.st150{fill:#E41F1C;}
	.st151{fill:url(#SVGID_00000141418836142689583380000017915165311900438412_);}
	.st152{fill:url(#SVGID_00000042705475509853531750000002749096868397713562_);}
	.st153{fill:url(#SVGID_00000041262817665366469550000004090843623906917051_);}
	.st154{fill:url(#SVGID_00000088118244729717559780000010934908582573993373_);}
	.st155{fill:url(#SVGID_00000129181626448881040430000009922941190431271047_);}
	.st156{fill:url(#SVGID_00000173135990913188191790000014249958987905401001_);}
	.st157{fill:url(#SVGID_00000019680275741181714740000017253592873014319493_);}
	.st158{fill:url(#SVGID_00000031178161020576087870000000038348888732035489_);}
	.st159{fill:url(#SVGID_00000128463572229123329820000006053781181587996303_);}
	.st160{fill:url(#SVGID_00000005230433298026830350000010632140094132814523_);}
	.st161{fill:url(#SVGID_00000054970728237019367160000009117552961616681110_);}
	.st162{fill:url(#SVGID_00000158749762961754696590000006081027291271233440_);}
	.st163{fill:url(#SVGID_00000094610613801462398250000004830685407100791727_);}
	.st164{fill:url(#SVGID_00000022537443008339177400000004739118900128414635_);}
	.st165{fill:url(#SVGID_00000016060269783127232510000011257471058060274821_);}
	.st166{opacity:0.74;}
</style>
<linearGradient id="SVGID_1_" gradientUnits="userSpaceOnUse" x1="-154.4612" y1="-240.945" x2="-153.7541" y2="-240.2379">
	<stop  offset="0" style="stop-color:#E6E6EB"/>
	<stop  offset="0.1738" style="stop-color:#E2E2E6"/>
	<stop  offset="0.352" style="stop-color:#D5D4D8"/>
	<stop  offset="0.5323" style="stop-color:#C0BFC2"/>
	<stop  offset="0.7139" style="stop-color:#A4A2A4"/>
	<stop  offset="0.8949" style="stop-color:#828282"/>
	<stop  offset="1" style="stop-color:#6B6E6E"/>
</linearGradient>
<g>
	<polygon class="st61" points="126.723,356.431 5.782,286.604 63.28,253.393 184.221,323.217 	"/>
	<g>
		<polygon class="st58" points="84.004,264.044 26.506,297.257 24.56,267.229 25.593,54.023 26.506,50.354 84.004,17.142 		"/>
		<polygon class="st62" points="84.004,17.142 26.506,50.354 22.274,49.696 9.614,42.633 5.782,38.388 63.28,5.174 		"/>
		<path class="st63" d="M5.782,38.386v246.906l20.725,11.964V50.354L5.782,38.386z"/>
	</g>
	<g>
		<polygon class="st58" points="184.221,321.903 126.723,355.117 124.773,325.086 125.809,111.881 126.723,108.213 184.221,74.999 
					"/>
		<polygon class="st62" points="184.221,74.999 126.723,108.213 122.487,107.554 31.33,55.169 27.494,50.924 84.996,17.712 		"/>
		<path class="st63" d="M27.494,50.924v246.902l99.229,57.291V108.213L27.494,50.924z"/>
	</g>
	<g>
		<g>
			<polygon class="st58" points="119.634,335.251 119.634,336.346 34.582,287.239 34.582,209.859 35.526,210.403 			"/>
			<path class="st51" d="M35.526,210.403v76.289l84.109,48.558v-76.288L35.526,210.403z"/>
		</g>
		<g>
			<polygon class="st63" points="117.622,262.663 117.622,262.94 117.019,263.282 38.201,217.776 37.575,216.735 37.575,215.717 
				38.201,215.403 38.408,215.521 			"/>
			<polygon class="st64" points="117.622,261.956 117.622,262.663 39.033,217.299 38.408,216.25 38.408,215.521 117.019,260.892 			
				"/>
		</g>
		<g>
			<polygon class="st63" points="117.622,269.856 117.622,270.132 117.019,270.474 38.201,224.968 37.575,223.927 37.575,222.907 
				38.201,222.595 38.408,222.713 			"/>
			<polygon class="st64" points="117.622,269.148 117.622,269.856 39.033,224.489 38.408,223.444 38.408,222.713 117.019,268.082 
							"/>
		</g>
		<g>
			<polygon class="st63" points="117.622,277.048 117.622,277.326 117.019,277.666 38.201,232.158 37.575,231.117 37.575,230.098 
				38.201,229.787 38.408,229.905 			"/>
			<polygon class="st64" points="117.622,276.338 117.622,277.048 39.033,231.681 38.408,230.636 38.408,229.905 117.019,275.276 
							"/>
		</g>
		<g>
			<polygon class="st63" points="117.622,284.24 117.622,284.516 117.019,284.858 38.201,239.35 37.575,238.309 37.575,237.291 
				38.201,236.979 38.408,237.097 			"/>
			<polygon class="st64" points="117.622,283.53 117.622,284.24 39.033,238.875 38.408,237.828 38.408,237.097 117.019,282.466 			
				"/>
		</g>
		<g>
			<polygon class="st63" points="117.622,291.43 117.622,291.708 117.019,292.052 38.201,246.544 37.575,245.5 37.575,244.483 
				38.201,244.168 38.408,244.287 			"/>
			<polygon class="st64" points="117.622,290.723 117.622,291.43 39.033,246.065 38.408,245.02 38.408,244.287 117.019,289.658 			
				"/>
		</g>
		<g>
			<polygon class="st63" points="117.622,298.624 117.622,298.901 117.019,299.241 38.201,253.734 37.575,252.692 37.575,251.675 
				38.201,251.362 38.408,251.481 			"/>
			<polygon class="st64" points="117.622,297.915 117.622,298.624 39.033,253.259 38.408,252.211 38.408,251.481 117.019,296.852 
							"/>
		</g>
		<g>
			<polygon class="st63" points="117.622,305.814 117.622,306.091 117.019,306.432 38.201,260.928 37.575,259.886 37.575,258.867 
				38.201,258.554 38.408,258.673 			"/>
			<polygon class="st64" points="117.622,305.107 117.622,305.814 39.033,260.45 38.408,259.401 38.408,258.673 117.019,304.043 			
				"/>
		</g>
		<g>
			<polygon class="st63" points="117.622,313.007 117.622,313.283 117.019,313.625 38.201,268.119 37.575,267.078 37.575,266.061 
				38.201,265.746 38.408,265.865 			"/>
			<polygon class="st64" points="117.622,312.299 117.622,313.007 39.033,267.64 38.408,266.595 38.408,265.865 117.019,311.234 			
				"/>
		</g>
		<g>
			<polygon class="st63" points="117.622,320.199 117.622,320.475 117.019,320.817 38.201,275.31 37.575,274.266 37.575,273.249 
				38.201,272.938 38.408,273.056 			"/>
			<polygon class="st64" points="117.622,319.489 117.622,320.199 39.033,274.832 38.408,273.787 38.408,273.056 117.019,318.425 
							"/>
		</g>
		<g>
			<polygon class="st63" points="117.622,327.391 117.622,327.669 117.019,328.009 38.201,282.503 37.575,281.458 37.575,280.442 
				38.201,280.132 38.408,280.25 			"/>
			<polygon class="st64" points="117.622,326.681 117.622,327.391 39.033,282.024 38.408,280.977 38.408,280.25 117.019,325.617 			
				"/>
		</g>
	</g>
	<g>
		<g>
			<g>
				<path class="st52" d="M89.065,208.241l-0.466,0.266l11.276,12.832l0.47-6.591L89.065,208.241z"/>
				<path class="st51" d="M96.483,215.982l3.392,5.357l0.47-0.266v-6.325l-0.47,0.268L96.483,215.982z"/>
				<path class="st65" d="M88.599,208.507v6.32l11.276,6.511v-6.323L88.599,208.507z"/>
			</g>
			<g>
				<polygon class="st52" points="99.124,218.877 99.124,220.026 89.043,214.204 89.043,209.593 90.035,210.161 92.817,213.315 				
					"/>
				<polygon class="st59" points="99.124,215.414 99.124,218.877 90.035,213.633 90.035,210.161 				"/>
			</g>
		</g>
		<g>
			<g>
				<path class="st52" d="M76.265,150.123l-1.998,1.152l35.826,39.472l1.998-19.941L76.265,150.123z"/>
				<path class="st51" d="M106.068,180.173l4.025,10.575l1.998-1.152v-18.788l-1.998,1.156L106.068,180.173z"/>
				<path class="st54" d="M74.267,151.275v18.786l35.826,20.686v-18.784L74.267,151.275z"/>
			</g>
			<g>
				<path class="st52" d="M76.265,130.704l-1.998,1.152l35.826,39.472l1.998-19.939L76.265,130.704z"/>
				<path class="st51" d="M106.068,160.756l4.025,10.573l1.998-1.152V151.39l-1.998,1.154L106.068,160.756z"/>
				<path class="st54" d="M74.267,131.857v18.786l35.826,20.686v-18.784L74.267,131.857z"/>
			</g>
			<g>
				<g>
					<path class="st55" d="M80.086,137.717l-0.999,0.572l24.136,27.473l1.01-14.108L80.086,137.717z"/>
					<path class="st56" d="M95.961,154.292l7.262,11.469l1.01-0.572v-13.536l-1.01,0.571L95.961,154.292z"/>
					<path class="st57" d="M79.088,138.288v13.537l24.136,13.936v-13.537L79.088,138.288z"/>
				</g>
				<g>
					<polygon class="st58" points="101.621,160.493 101.621,162.949 80.042,150.484 80.042,140.615 82.158,141.834 88.115,148.58 
											"/>
					<polygon class="st59" points="101.621,153.077 101.621,160.493 82.158,149.261 82.158,141.834 					"/>
				</g>
			</g>
			<g>
				<path class="st52" d="M76.265,111.285l-1.998,1.154l35.826,39.47l1.998-19.939L76.265,111.285z"/>
				<path class="st51" d="M106.068,141.337l4.025,10.573l1.998-1.152v-18.786l-1.998,1.154L106.068,141.337z"/>
				<path class="st54" d="M74.267,112.44v18.786l35.826,20.684v-18.784L74.267,112.44z"/>
			</g>
			<g>
				<path class="st52" d="M76.265,84.677l-1.998,1.154l35.826,46.664l1.998-27.13L76.265,84.677z"/>
				<path class="st51" d="M106.068,121.918l4.025,10.577l1.998-1.154v-25.976l-1.998,1.152L106.068,121.918z"/>
				<path class="st54" d="M74.267,85.831v25.976l35.826,20.688v-25.978L74.267,85.831z"/>
			</g>
			<g>
				<polygon class="st60" points="87.293,102.198 93.519,105.792 93.519,102.283 87.293,98.687 				"/>
				<polygon class="st60" points="94.359,102.767 94.359,106.276 97.067,107.841 97.067,104.332 				"/>
			</g>
		</g>
	</g>
</g>
</svg>
