<svg id="Capa_1" data-name="Capa 1" xmlns="http://www.w3.org/2000/svg" viewBox="0 0 286.074 600"><defs><style>.cls-1{fill:#4f4c58;}.cls-2{fill:#63606f;}.cls-3{fill:#585564;}.cls-4{fill:#404047;}.cls-5{fill:#2f2e34;}.cls-6{fill:#4a6c5c;}.cls-7{fill:#58806d;}.cls-8{fill:#3d5047;}.cls-9{fill:#40584d;}.cls-10{fill:#edac32;}.cls-11{fill:#fee883;}.cls-12{fill:#d0842e;}</style></defs><polygon class="cls-1" points="1.261 339.7 1.261 533.768 115.978 600 115.978 405.932 1.261 339.7"/><polygon class="cls-2" points="115.976 405.924 284.815 308.445 170.098 242.214 1.259 339.693 115.976 405.924"/><polygon class="cls-3" points="263.662 308.445 115.975 393.712 22.412 339.693 170.098 254.425 263.662 308.445"/><path class="cls-4" d="M235.08,316.5a1.028,1.028,0,0,0,0,1.948,3.73,3.73,0,0,0,3.375,0,1.028,1.028,0,0,0,0-1.948A3.73,3.73,0,0,0,235.08,316.5Z"/><path class="cls-4" d="M225.707,311.091a1.028,1.028,0,0,0,0,1.948,3.73,3.73,0,0,0,3.375,0,1.028,1.028,0,0,0,0-1.948A3.724,3.724,0,0,0,225.707,311.091Z"/><path class="cls-4" d="M216.334,305.679a1.028,1.028,0,0,0,0,1.948,3.73,3.73,0,0,0,3.375,0,1.028,1.028,0,0,0,0-1.948A3.73,3.73,0,0,0,216.334,305.679Z"/><path class="cls-4" d="M206.961,300.267a1.029,1.029,0,0,0,0,1.949,3.73,3.73,0,0,0,3.375,0,1.029,1.029,0,0,0,0-1.949A3.737,3.737,0,0,0,206.961,300.267Z"/><path class="cls-4" d="M197.588,294.856a1.028,1.028,0,0,0,0,1.948,3.728,3.728,0,0,0,3.374,0,1.028,1.028,0,0,0,0-1.948A3.728,3.728,0,0,0,197.588,294.856Z"/><path class="cls-4" d="M188.215,289.444a1.029,1.029,0,0,0,0,1.949,3.728,3.728,0,0,0,3.374,0,1.029,1.029,0,0,0,0-1.949A3.728,3.728,0,0,0,188.215,289.444Z"/><ellipse class="cls-4" cx="180.529" cy="285.007" rx="2.386" ry="1.378"/><path class="cls-4" d="M169.469,278.621a1.028,1.028,0,0,0,0,1.948,3.728,3.728,0,0,0,3.374,0,1.028,1.028,0,0,0,0-1.948A3.728,3.728,0,0,0,169.469,278.621Z"/><path class="cls-4" d="M160.1,273.21a1.028,1.028,0,0,0,0,1.948,3.728,3.728,0,0,0,3.374,0,1.028,1.028,0,0,0,0-1.948A3.728,3.728,0,0,0,160.1,273.21Z"/><path class="cls-4" d="M221.021,319.208a1.028,1.028,0,0,0,0,1.948,3.728,3.728,0,0,0,3.374,0,1.028,1.028,0,0,0,0-1.948A3.728,3.728,0,0,0,221.021,319.208Z"/><path class="cls-4" d="M211.648,313.8a1.029,1.029,0,0,0,0,1.949,3.728,3.728,0,0,0,3.374,0,1.029,1.029,0,0,0,0-1.949A3.728,3.728,0,0,0,211.648,313.8Z"/><path class="cls-4" d="M202.275,308.385a1.028,1.028,0,0,0,0,1.948,3.728,3.728,0,0,0,3.374,0,1.028,1.028,0,0,0,0-1.948A3.728,3.728,0,0,0,202.275,308.385Z"/><path class="cls-4" d="M192.9,302.973a1.028,1.028,0,0,0,0,1.948,3.73,3.73,0,0,0,3.375,0,1.028,1.028,0,0,0,0-1.948A3.73,3.73,0,0,0,192.9,302.973Z"/><path class="cls-4" d="M183.528,297.562a1.028,1.028,0,0,0,0,1.948,3.73,3.73,0,0,0,3.375,0,1.028,1.028,0,0,0,0-1.948A3.73,3.73,0,0,0,183.528,297.562Z"/><path class="cls-4" d="M174.155,292.15a1.028,1.028,0,0,0,0,1.948,3.73,3.73,0,0,0,3.375,0,1.028,1.028,0,0,0,0-1.948A3.73,3.73,0,0,0,174.155,292.15Z"/><path class="cls-4" d="M164.782,286.739a1.028,1.028,0,0,0,0,1.948,3.73,3.73,0,0,0,3.375,0,1.028,1.028,0,0,0,0-1.948A3.724,3.724,0,0,0,164.782,286.739Z"/><path class="cls-4" d="M155.409,281.327a1.028,1.028,0,0,0,0,1.948,3.73,3.73,0,0,0,3.375,0,1.028,1.028,0,0,0,0-1.948A3.73,3.73,0,0,0,155.409,281.327Z"/><ellipse class="cls-4" cx="218.021" cy="328.299" rx="2.386" ry="1.378"/><path class="cls-4" d="M206.961,321.913a1.029,1.029,0,0,0,0,1.949,3.73,3.73,0,0,0,3.375,0,1.029,1.029,0,0,0,0-1.949A3.737,3.737,0,0,0,206.961,321.913Z"/><path class="cls-4" d="M197.588,316.5a1.028,1.028,0,0,0,0,1.948,3.728,3.728,0,0,0,3.374,0,1.028,1.028,0,0,0,0-1.948A3.728,3.728,0,0,0,197.588,316.5Z"/><path class="cls-4" d="M188.215,311.091a1.028,1.028,0,0,0,0,1.948,3.728,3.728,0,0,0,3.374,0,1.028,1.028,0,0,0,0-1.948A3.722,3.722,0,0,0,188.215,311.091Z"/><path class="cls-4" d="M178.842,305.679a1.028,1.028,0,0,0,0,1.948,3.728,3.728,0,0,0,3.374,0,1.028,1.028,0,0,0,0-1.948A3.728,3.728,0,0,0,178.842,305.679Z"/><path class="cls-4" d="M169.469,300.267a1.029,1.029,0,0,0,0,1.949,3.728,3.728,0,0,0,3.374,0,1.029,1.029,0,0,0,0-1.949A3.735,3.735,0,0,0,169.469,300.267Z"/><path class="cls-4" d="M160.1,294.856a1.028,1.028,0,0,0,0,1.948,3.728,3.728,0,0,0,3.374,0,1.028,1.028,0,0,0,0-1.948A3.728,3.728,0,0,0,160.1,294.856Z"/><path class="cls-4" d="M150.723,289.444a1.029,1.029,0,0,0,0,1.949,3.728,3.728,0,0,0,3.374,0,1.029,1.029,0,0,0,0-1.949A3.728,3.728,0,0,0,150.723,289.444Z"/><ellipse class="cls-4" cx="143.037" cy="285.007" rx="2.386" ry="1.378"/><path class="cls-4" d="M202.275,330.031a1.028,1.028,0,0,0,0,1.948,3.728,3.728,0,0,0,3.374,0,1.028,1.028,0,0,0,0-1.948A3.728,3.728,0,0,0,202.275,330.031Z"/><path class="cls-4" d="M192.9,324.619a1.029,1.029,0,0,0,0,1.949,3.73,3.73,0,0,0,3.375,0,1.029,1.029,0,0,0,0-1.949A3.73,3.73,0,0,0,192.9,324.619Z"/><path class="cls-4" d="M183.528,319.208a1.028,1.028,0,0,0,0,1.948,3.73,3.73,0,0,0,3.375,0,1.028,1.028,0,0,0,0-1.948A3.73,3.73,0,0,0,183.528,319.208Z"/><path class="cls-4" d="M174.155,313.8a1.029,1.029,0,0,0,0,1.949,3.73,3.73,0,0,0,3.375,0,1.029,1.029,0,0,0,0-1.949A3.73,3.73,0,0,0,174.155,313.8Z"/><path class="cls-4" d="M164.782,308.385a1.028,1.028,0,0,0,0,1.948,3.73,3.73,0,0,0,3.375,0,1.028,1.028,0,0,0,0-1.948A3.73,3.73,0,0,0,164.782,308.385Z"/><path class="cls-4" d="M155.409,302.973a1.028,1.028,0,0,0,0,1.948,3.73,3.73,0,0,0,3.375,0,1.028,1.028,0,0,0,0-1.948A3.73,3.73,0,0,0,155.409,302.973Z"/><path class="cls-4" d="M146.036,297.562a1.028,1.028,0,0,0,0,1.948,3.73,3.73,0,0,0,3.375,0,1.028,1.028,0,0,0,0-1.948A3.73,3.73,0,0,0,146.036,297.562Z"/><path class="cls-4" d="M136.663,292.15a1.028,1.028,0,0,0,0,1.948,3.73,3.73,0,0,0,3.375,0,1.028,1.028,0,0,0,0-1.948A3.73,3.73,0,0,0,136.663,292.15Z"/><path class="cls-4" d="M197.588,338.148a1.029,1.029,0,0,0,0,1.949,3.728,3.728,0,0,0,3.374,0,1.029,1.029,0,0,0,0-1.949A3.728,3.728,0,0,0,197.588,338.148Z"/><path class="cls-4" d="M188.215,332.737a1.028,1.028,0,0,0,0,1.948,3.728,3.728,0,0,0,3.374,0,1.028,1.028,0,0,0,0-1.948A3.728,3.728,0,0,0,188.215,332.737Z"/><ellipse class="cls-4" cx="180.529" cy="328.299" rx="2.386" ry="1.378"/><path class="cls-4" d="M169.469,321.913a1.029,1.029,0,0,0,0,1.949,3.728,3.728,0,0,0,3.374,0,1.029,1.029,0,0,0,0-1.949A3.735,3.735,0,0,0,169.469,321.913Z"/><path class="cls-4" d="M160.1,316.5a1.028,1.028,0,0,0,0,1.948,3.728,3.728,0,0,0,3.374,0,1.028,1.028,0,0,0,0-1.948A3.728,3.728,0,0,0,160.1,316.5Z"/><path class="cls-4" d="M150.723,311.091a1.028,1.028,0,0,0,0,1.948,3.728,3.728,0,0,0,3.374,0,1.028,1.028,0,0,0,0-1.948A3.722,3.722,0,0,0,150.723,311.091Z"/><path class="cls-4" d="M141.35,305.679a1.028,1.028,0,0,0,0,1.948,3.728,3.728,0,0,0,3.374,0,1.028,1.028,0,0,0,0-1.948A3.728,3.728,0,0,0,141.35,305.679Z"/><path class="cls-4" d="M131.976,300.267a1.029,1.029,0,0,0,0,1.949,3.73,3.73,0,0,0,3.375,0,1.029,1.029,0,0,0,0-1.949A3.73,3.73,0,0,0,131.976,300.267Z"/><path class="cls-4" d="M122.6,294.856a1.028,1.028,0,0,0,0,1.948,3.73,3.73,0,0,0,3.375,0,1.028,1.028,0,0,0,0-1.948A3.73,3.73,0,0,0,122.6,294.856Z"/><path class="cls-4" d="M183.528,340.854a1.028,1.028,0,0,0,0,1.948,3.73,3.73,0,0,0,3.375,0,1.028,1.028,0,0,0,0-1.948A3.73,3.73,0,0,0,183.528,340.854Z"/><path class="cls-4" d="M174.155,335.443a1.028,1.028,0,0,0,0,1.948,3.73,3.73,0,0,0,3.375,0,1.028,1.028,0,0,0,0-1.948A3.724,3.724,0,0,0,174.155,335.443Z"/><path class="cls-4" d="M164.782,330.031a1.028,1.028,0,0,0,0,1.948,3.73,3.73,0,0,0,3.375,0,1.028,1.028,0,0,0,0-1.948A3.73,3.73,0,0,0,164.782,330.031Z"/><path class="cls-4" d="M155.409,324.619a1.029,1.029,0,0,0,0,1.949,3.73,3.73,0,0,0,3.375,0,1.029,1.029,0,0,0,0-1.949A3.73,3.73,0,0,0,155.409,324.619Z"/><path class="cls-4" d="M146.036,319.208a1.028,1.028,0,0,0,0,1.948,3.73,3.73,0,0,0,3.375,0,1.028,1.028,0,0,0,0-1.948A3.73,3.73,0,0,0,146.036,319.208Z"/><path class="cls-4" d="M136.663,313.8a1.029,1.029,0,0,0,0,1.949,3.73,3.73,0,0,0,3.375,0,1.029,1.029,0,0,0,0-1.949A3.73,3.73,0,0,0,136.663,313.8Z"/><path class="cls-4" d="M127.29,308.385a1.028,1.028,0,0,0,0,1.948,3.728,3.728,0,0,0,3.374,0,1.028,1.028,0,0,0,0-1.948A3.728,3.728,0,0,0,127.29,308.385Z"/><path class="cls-4" d="M117.917,302.973a1.028,1.028,0,0,0,0,1.948,3.728,3.728,0,0,0,3.374,0,1.028,1.028,0,0,0,0-1.948A3.728,3.728,0,0,0,117.917,302.973Z"/><path class="cls-4" d="M178.842,348.971a1.029,1.029,0,0,0,0,1.949,3.728,3.728,0,0,0,3.374,0,1.029,1.029,0,0,0,0-1.949A3.728,3.728,0,0,0,178.842,348.971Z"/><path class="cls-4" d="M169.469,343.56a1.028,1.028,0,0,0,0,1.948,3.728,3.728,0,0,0,3.374,0,1.028,1.028,0,0,0,0-1.948A3.728,3.728,0,0,0,169.469,343.56Z"/><path class="cls-4" d="M160.1,338.148a1.029,1.029,0,0,0,0,1.949,3.728,3.728,0,0,0,3.374,0,1.029,1.029,0,0,0,0-1.949A3.728,3.728,0,0,0,160.1,338.148Z"/><path class="cls-4" d="M150.723,332.737a1.028,1.028,0,0,0,0,1.948,3.728,3.728,0,0,0,3.374,0,1.028,1.028,0,0,0,0-1.948A3.728,3.728,0,0,0,150.723,332.737Z"/><ellipse class="cls-4" cx="143.037" cy="328.299" rx="2.386" ry="1.378"/><path class="cls-4" d="M131.976,321.913a1.029,1.029,0,0,0,0,1.949,3.73,3.73,0,0,0,3.375,0,1.029,1.029,0,0,0,0-1.949A3.737,3.737,0,0,0,131.976,321.913Z"/><path class="cls-4" d="M122.6,316.5a1.028,1.028,0,0,0,0,1.948,3.73,3.73,0,0,0,3.375,0,1.028,1.028,0,0,0,0-1.948A3.73,3.73,0,0,0,122.6,316.5Z"/><path class="cls-4" d="M113.23,311.091a1.028,1.028,0,0,0,0,1.948,3.73,3.73,0,0,0,3.375,0,1.028,1.028,0,0,0,0-1.948A3.724,3.724,0,0,0,113.23,311.091Z"/><path class="cls-4" d="M103.857,305.679a1.028,1.028,0,0,0,0,1.948,3.73,3.73,0,0,0,3.375,0,1.028,1.028,0,0,0,0-1.948A3.73,3.73,0,0,0,103.857,305.679Z"/><ellipse class="cls-4" cx="166.469" cy="352.651" rx="2.386" ry="1.378"/><path class="cls-4" d="M155.409,346.265a1.029,1.029,0,0,0,0,1.949,3.73,3.73,0,0,0,3.375,0,1.029,1.029,0,0,0,0-1.949A3.737,3.737,0,0,0,155.409,346.265Z"/><path class="cls-4" d="M146.036,340.854a1.028,1.028,0,0,0,0,1.948,3.73,3.73,0,0,0,3.375,0,1.028,1.028,0,0,0,0-1.948A3.73,3.73,0,0,0,146.036,340.854Z"/><path class="cls-4" d="M136.663,335.443a1.028,1.028,0,0,0,0,1.948,3.73,3.73,0,0,0,3.375,0,1.028,1.028,0,0,0,0-1.948A3.724,3.724,0,0,0,136.663,335.443Z"/><path class="cls-4" d="M127.29,330.031a1.028,1.028,0,0,0,0,1.948,3.728,3.728,0,0,0,3.374,0,1.028,1.028,0,0,0,0-1.948A3.728,3.728,0,0,0,127.29,330.031Z"/><path class="cls-4" d="M117.917,324.619a1.029,1.029,0,0,0,0,1.949,3.728,3.728,0,0,0,3.374,0,1.029,1.029,0,0,0,0-1.949A3.728,3.728,0,0,0,117.917,324.619Z"/><path class="cls-4" d="M108.544,319.208a1.028,1.028,0,0,0,0,1.948,3.728,3.728,0,0,0,3.374,0,1.028,1.028,0,0,0,0-1.948A3.728,3.728,0,0,0,108.544,319.208Z"/><path class="cls-4" d="M99.171,313.8a1.029,1.029,0,0,0,0,1.949,3.728,3.728,0,0,0,3.374,0,1.029,1.029,0,0,0,0-1.949A3.728,3.728,0,0,0,99.171,313.8Z"/><path class="cls-4" d="M160.1,359.794a1.029,1.029,0,0,0,0,1.949,3.728,3.728,0,0,0,3.374,0,1.029,1.029,0,0,0,0-1.949A3.728,3.728,0,0,0,160.1,359.794Z"/><path class="cls-4" d="M150.723,354.383a1.028,1.028,0,0,0,0,1.948,3.728,3.728,0,0,0,3.374,0,1.028,1.028,0,0,0,0-1.948A3.728,3.728,0,0,0,150.723,354.383Z"/><path class="cls-4" d="M141.35,348.971a1.029,1.029,0,0,0,0,1.949,3.728,3.728,0,0,0,3.374,0,1.029,1.029,0,0,0,0-1.949A3.728,3.728,0,0,0,141.35,348.971Z"/><ellipse class="cls-4" cx="133.664" cy="344.534" rx="2.386" ry="1.378"/><path class="cls-4" d="M122.6,338.148a1.029,1.029,0,0,0,0,1.949,3.73,3.73,0,0,0,3.375,0,1.029,1.029,0,0,0,0-1.949A3.73,3.73,0,0,0,122.6,338.148Z"/><path class="cls-4" d="M113.23,332.737a1.028,1.028,0,0,0,0,1.948,3.73,3.73,0,0,0,3.375,0,1.028,1.028,0,0,0,0-1.948A3.73,3.73,0,0,0,113.23,332.737Z"/><ellipse class="cls-4" cx="105.545" cy="328.299" rx="2.386" ry="1.378"/><path class="cls-4" d="M94.484,321.913a1.029,1.029,0,0,0,0,1.949,3.73,3.73,0,0,0,3.375,0,1.029,1.029,0,0,0,0-1.949A3.737,3.737,0,0,0,94.484,321.913Z"/><path class="cls-4" d="M85.111,316.5a1.028,1.028,0,0,0,0,1.948,3.73,3.73,0,0,0,3.375,0,1.028,1.028,0,0,0,0-1.948A3.73,3.73,0,0,0,85.111,316.5Z"/><path class="cls-4" d="M146.036,362.5a1.028,1.028,0,0,0,0,1.948,3.724,3.724,0,0,0,3.375,0,1.028,1.028,0,0,0,0-1.948A3.73,3.73,0,0,0,146.036,362.5Z"/><path class="cls-4" d="M136.663,357.089a1.028,1.028,0,0,0,0,1.948,3.73,3.73,0,0,0,3.375,0,1.028,1.028,0,0,0,0-1.948A3.73,3.73,0,0,0,136.663,357.089Z"/><ellipse class="cls-4" cx="128.977" cy="352.651" rx="2.386" ry="1.378"/><path class="cls-4" d="M117.917,346.265a1.029,1.029,0,0,0,0,1.949,3.728,3.728,0,0,0,3.374,0,1.029,1.029,0,0,0,0-1.949A3.735,3.735,0,0,0,117.917,346.265Z"/><path class="cls-4" d="M108.544,340.854a1.028,1.028,0,0,0,0,1.948,3.728,3.728,0,0,0,3.374,0,1.028,1.028,0,0,0,0-1.948A3.728,3.728,0,0,0,108.544,340.854Z"/><ellipse class="cls-4" cx="100.858" cy="336.417" rx="2.386" ry="1.378"/><path class="cls-4" d="M89.8,330.031a1.028,1.028,0,0,0,0,1.948,3.728,3.728,0,0,0,3.374,0,1.028,1.028,0,0,0,0-1.948A3.728,3.728,0,0,0,89.8,330.031Z"/><path class="cls-4" d="M80.425,324.619a1.029,1.029,0,0,0,0,1.949,3.728,3.728,0,0,0,3.374,0,1.029,1.029,0,0,0,0-1.949A3.728,3.728,0,0,0,80.425,324.619Z"/><path class="cls-4" d="M141.35,370.617a1.029,1.029,0,0,0,0,1.949,3.728,3.728,0,0,0,3.374,0,1.029,1.029,0,0,0,0-1.949A3.735,3.735,0,0,0,141.35,370.617Z"/><path class="cls-4" d="M131.976,365.206a1.028,1.028,0,0,0,0,1.948,3.73,3.73,0,0,0,3.375,0,1.028,1.028,0,0,0,0-1.948A3.73,3.73,0,0,0,131.976,365.206Z"/><ellipse class="cls-4" cx="124.291" cy="360.769" rx="2.386" ry="1.378"/><path class="cls-4" d="M113.23,354.383a1.028,1.028,0,0,0,0,1.948,3.73,3.73,0,0,0,3.375,0,1.028,1.028,0,0,0,0-1.948A3.73,3.73,0,0,0,113.23,354.383Z"/><path class="cls-4" d="M103.857,348.971a1.029,1.029,0,0,0,0,1.949,3.73,3.73,0,0,0,3.375,0,1.029,1.029,0,0,0,0-1.949A3.73,3.73,0,0,0,103.857,348.971Z"/><path class="cls-4" d="M94.484,343.56a1.028,1.028,0,0,0,0,1.948,3.73,3.73,0,0,0,3.375,0,1.028,1.028,0,0,0,0-1.948A3.73,3.73,0,0,0,94.484,343.56Z"/><path class="cls-4" d="M85.111,338.148a1.029,1.029,0,0,0,0,1.949,3.73,3.73,0,0,0,3.375,0,1.029,1.029,0,0,0,0-1.949A3.73,3.73,0,0,0,85.111,338.148Z"/><path class="cls-4" d="M75.738,332.737a1.028,1.028,0,0,0,0,1.948,3.73,3.73,0,0,0,3.375,0,1.028,1.028,0,0,0,0-1.948A3.73,3.73,0,0,0,75.738,332.737Z"/><ellipse class="cls-4" cx="68.052" cy="328.299" rx="2.386" ry="1.378"/><path class="cls-4" d="M127.29,373.323a1.029,1.029,0,0,0,0,1.949,3.728,3.728,0,0,0,3.374,0,1.029,1.029,0,0,0,0-1.949A3.728,3.728,0,0,0,127.29,373.323Z"/><ellipse class="cls-4" cx="119.604" cy="368.886" rx="2.386" ry="1.378"/><path class="cls-4" d="M108.544,362.5a1.028,1.028,0,0,0,0,1.948,3.722,3.722,0,0,0,3.374,0,1.028,1.028,0,0,0,0-1.948A3.728,3.728,0,0,0,108.544,362.5Z"/><path class="cls-4" d="M99.171,357.089a1.028,1.028,0,0,0,0,1.948,3.728,3.728,0,0,0,3.374,0,1.028,1.028,0,0,0,0-1.948A3.728,3.728,0,0,0,99.171,357.089Z"/><ellipse class="cls-4" cx="91.485" cy="352.651" rx="2.386" ry="1.378"/><path class="cls-4" d="M80.425,346.265a1.029,1.029,0,0,0,0,1.949,3.728,3.728,0,0,0,3.374,0,1.029,1.029,0,0,0,0-1.949A3.735,3.735,0,0,0,80.425,346.265Z"/><path class="cls-4" d="M71.052,340.854a1.028,1.028,0,0,0,0,1.948,3.728,3.728,0,0,0,3.374,0,1.028,1.028,0,0,0,0-1.948A3.728,3.728,0,0,0,71.052,340.854Z"/><ellipse class="cls-4" cx="63.366" cy="336.417" rx="2.386" ry="1.378"/><path class="cls-4" d="M122.6,381.441a1.028,1.028,0,0,0,0,1.948,3.73,3.73,0,0,0,3.375,0,1.028,1.028,0,0,0,0-1.948A3.73,3.73,0,0,0,122.6,381.441Z"/><ellipse class="cls-4" cx="114.918" cy="377.003" rx="2.386" ry="1.378"/><path class="cls-4" d="M103.857,370.617a1.029,1.029,0,0,0,0,1.949,3.73,3.73,0,0,0,3.375,0,1.029,1.029,0,0,0,0-1.949A3.737,3.737,0,0,0,103.857,370.617Z"/><path class="cls-4" d="M94.484,365.206a1.028,1.028,0,0,0,0,1.948,3.73,3.73,0,0,0,3.375,0,1.028,1.028,0,0,0,0-1.948A3.73,3.73,0,0,0,94.484,365.206Z"/><ellipse class="cls-4" cx="86.798" cy="360.769" rx="2.386" ry="1.378"/><path class="cls-4" d="M75.738,354.383a1.028,1.028,0,0,0,0,1.948,3.73,3.73,0,0,0,3.375,0,1.028,1.028,0,0,0,0-1.948A3.73,3.73,0,0,0,75.738,354.383Z"/><path class="cls-4" d="M66.365,348.971a1.029,1.029,0,0,0,0,1.949,3.728,3.728,0,0,0,3.374,0,1.029,1.029,0,0,0,0-1.949A3.728,3.728,0,0,0,66.365,348.971Z"/><ellipse class="cls-4" cx="58.679" cy="344.534" rx="2.386" ry="1.378"/><path class="cls-4" d="M47.619,338.148a1.029,1.029,0,0,0,0,1.949,3.728,3.728,0,0,0,3.374,0,1.029,1.029,0,0,0,0-1.949A3.728,3.728,0,0,0,47.619,338.148Z"/><polygon class="cls-4" points="170.098 258.655 26.075 341.808 22.412 339.693 170.098 254.425 263.662 308.445 259.999 310.56 170.098 258.655"/><polygon class="cls-1" points="170.098 254.425 170.098 258.655 259.999 310.56 263.662 308.445 170.098 254.425"/><path class="cls-4" d="M115.976,405.921V599.989l168.839-97.48V308.441Z"/><path class="cls-1" d="M139.777,566.6a15.963,15.963,0,0,1-7.24,12.5c-4,2.308-7.239.454-7.239-4.141a15.964,15.964,0,0,1,7.239-12.5C136.536,560.155,139.777,562.009,139.777,566.6Z"/><path class="cls-5" d="M137.806,567.742a11.615,11.615,0,0,1-5.269,9.1c-2.909,1.68-5.268.331-5.268-3.013a11.62,11.62,0,0,1,5.268-9.1C135.447,563.048,137.806,564.4,137.806,567.742Z"/><path class="cls-2" d="M132.538,564.728a8.531,8.531,0,0,0-1.348,1c.15-.105.3-.222.448-.311,2.314-1.335,4.19-.262,4.19,2.4a9.24,9.24,0,0,1-4.19,7.234c-2.314,1.336-4.19.263-4.19-2.4A6.158,6.158,0,0,1,127.5,572a8.549,8.549,0,0,0-.234,1.824c0,3.345,2.359,4.694,5.269,3.014a11.617,11.617,0,0,0,5.267-9.1C137.805,564.4,135.447,563.048,132.538,564.728Z"/><path class="cls-1" d="M280.891,485.14a15.964,15.964,0,0,1-7.239,12.5c-4,2.308-7.24.454-7.24-4.141a15.967,15.967,0,0,1,7.24-12.5C277.65,478.69,280.891,480.544,280.891,485.14Z"/><path class="cls-5" d="M278.92,486.278a11.62,11.62,0,0,1-5.268,9.1c-2.91,1.68-5.269.33-5.269-3.014a11.618,11.618,0,0,1,5.269-9.1C276.561,481.584,278.92,482.933,278.92,486.278Z"/><path class="cls-2" d="M273.652,483.264a8.471,8.471,0,0,0-1.347,1c.149-.1.294-.221.447-.31,2.314-1.336,4.19-.263,4.19,2.4a9.236,9.236,0,0,1-4.19,7.234c-2.314,1.336-4.189.263-4.189-2.4a6.4,6.4,0,0,1,.054-.654,8.533,8.533,0,0,0-.234,1.824c0,3.344,2.359,4.694,5.269,3.014a11.62,11.62,0,0,0,5.268-9.1C278.92,482.933,276.561,481.584,273.652,483.264Z"/><path class="cls-1" d="M139.777,411.346a15.963,15.963,0,0,1-7.24,12.5c-4,2.309-7.239.454-7.239-4.141a15.966,15.966,0,0,1,7.239-12.5C136.536,404.9,139.777,406.75,139.777,411.346Z"/><path class="cls-5" d="M137.806,412.484a11.618,11.618,0,0,1-5.269,9.1c-2.909,1.68-5.268.33-5.268-3.014a11.62,11.62,0,0,1,5.268-9.1C135.447,407.79,137.806,409.139,137.806,412.484Z"/><path class="cls-2" d="M132.538,409.47a8.463,8.463,0,0,0-1.348,1c.15-.1.3-.222.448-.31,2.314-1.336,4.19-.263,4.19,2.4a9.243,9.243,0,0,1-4.19,7.235c-2.314,1.335-4.19.262-4.19-2.4a6.136,6.136,0,0,1,.055-.654,8.533,8.533,0,0,0-.234,1.824c0,3.344,2.359,4.694,5.269,3.014a11.619,11.619,0,0,0,5.267-9.1C137.805,409.139,135.447,407.79,132.538,409.47Z"/><path class="cls-1" d="M280.891,329.881a15.966,15.966,0,0,1-7.239,12.5c-4,2.308-7.24.454-7.24-4.142a15.965,15.965,0,0,1,7.24-12.5C277.65,323.431,280.891,325.286,280.891,329.881Z"/><path class="cls-5" d="M278.92,331.019a11.62,11.62,0,0,1-5.268,9.1c-2.91,1.68-5.269.331-5.269-3.013a11.619,11.619,0,0,1,5.269-9.1C276.561,326.325,278.92,327.675,278.92,331.019Z"/><path class="cls-2" d="M273.652,328.005a8.479,8.479,0,0,0-1.347,1c.149-.1.294-.222.447-.311,2.314-1.335,4.19-.262,4.19,2.4a9.24,9.24,0,0,1-4.19,7.235c-2.314,1.336-4.189.263-4.189-2.4a6.427,6.427,0,0,1,.054-.654,8.549,8.549,0,0,0-.234,1.824c0,3.345,2.359,4.694,5.269,3.014a11.62,11.62,0,0,0,5.268-9.1C278.92,327.675,276.561,326.325,273.652,328.005Z"/><path class="cls-2" d="M8.914,483.8V520.87a5.225,5.225,0,0,0,2.369,4.091l25.93,14.971,40.408,23.329c1.308.755,2.369.148,2.369-1.355V524.839a5.228,5.228,0,0,0-2.369-4.091L37.213,497.419l-25.93-14.971C9.975,481.693,8.914,482.3,8.914,483.8Zm4.738,37.079v-31.62L34.844,501.5v31.62Z"/><path class="cls-4" d="M50.607,514.582l-7.323,4.19a1.045,1.045,0,0,0-.438.961V532.54a3.294,3.294,0,0,0,1.494,2.58l26.154,15.1c.825.476,1.494.094,1.494-.855V536.558a3.043,3.043,0,0,0-.438-1.467l-7.324-12.646a3.063,3.063,0,0,0-1.056-1.113l-11.506-6.643A1.06,1.06,0,0,0,50.607,514.582Z"/><path class="cls-5" d="M64.226,522.445a3.063,3.063,0,0,0-1.056-1.113l-11.506-6.643a1.058,1.058,0,0,0-1.056-.107l-.6.344a1.071,1.071,0,0,0-.374.89v12.807a3.291,3.291,0,0,0,1.494,2.58l20.863,12.046v-6.691a3.043,3.043,0,0,0-.438-1.467Z"/><path class="cls-4" d="M35.692,500.028,14.5,487.793a1.7,1.7,0,0,0-2.544,1.469v31.621a1.7,1.7,0,0,0,.848,1.469L34,534.587a1.7,1.7,0,0,0,2.544-1.469V501.5A1.7,1.7,0,0,0,35.692,500.028Z"/><polygon class="cls-6" points="33.956 502.3 33.956 531.291 14.541 520.081 14.541 491.091 33.956 502.3"/><polygon class="cls-7" points="27.172 506.217 7.757 495.007 14.541 491.091 33.956 502.3 27.172 506.217"/><polygon class="cls-8" points="33.956 516.795 14.541 505.586 7.757 495.007 27.172 506.217 33.956 516.795"/><polygon class="cls-9" points="27.172 506.217 33.956 516.795 33.956 502.3 27.172 506.217"/><polygon class="cls-10" points="52.851 533.679 49.66 531.837 49.66 525.387 52.851 527.229 52.851 533.679"/><polygon class="cls-11" points="56.444 521.47 49.66 525.387 52.851 527.229 59.635 523.312 56.444 521.47"/><polygon class="cls-12" points="52.851 533.679 59.635 529.763 59.635 523.312 52.851 527.229 52.851 533.679"/><polygon class="cls-10" points="59.013 531.736 55.822 529.894 55.822 523.443 59.013 525.286 59.013 531.736"/><path class="cls-11" d="M65.8,527.819v-2.663l-1.571-2.711a3.063,3.063,0,0,0-1.056-1.113l-1.846-1.066-5.5,3.177,3.191,1.843Z"/><path class="cls-12" d="M65.8,525.156l-1.571-2.711c-.025-.044-.061-.076-.088-.119l-5.125,2.96v6.45l6.784-3.917Z"/><polygon class="cls-10" points="65.174 540.794 61.983 538.952 61.983 532.502 65.174 534.344 65.174 540.794"/><polygon class="cls-11" points="68.029 529.011 61.983 532.502 65.174 534.344 69.628 531.773 68.029 529.011"/><path class="cls-12" d="M71.959,536.374a3.1,3.1,0,0,0-.409-1.283l-1.922-3.318-4.454,2.571v6.45l6.785-3.917Z"/><path class="cls-4" d="M8.872,370.889c-.616-.356-1.115-.071-1.115.638V443.59a2.458,2.458,0,0,0,1.115,1.926c.616.356,1.116.07,1.116-.638V372.815A2.459,2.459,0,0,0,8.872,370.889Z"/><path class="cls-4" d="M12.391,372.92c-.616-.356-1.116-.07-1.116.638v72.063a2.461,2.461,0,0,0,1.116,1.927c.616.356,1.115.07,1.115-.638V374.846A2.46,2.46,0,0,0,12.391,372.92Z"/><path class="cls-4" d="M15.909,374.951c-.616-.356-1.116-.07-1.116.638v72.064a2.461,2.461,0,0,0,1.116,1.926c.616.356,1.115.07,1.115-.638V376.878A2.46,2.46,0,0,0,15.909,374.951Z"/><path class="cls-4" d="M19.427,376.982c-.616-.355-1.115-.07-1.115.639v72.063a2.458,2.458,0,0,0,1.115,1.926c.616.356,1.116.07,1.116-.638V378.909A2.463,2.463,0,0,0,19.427,376.982Z"/><path class="cls-4" d="M22.946,379.014c-.617-.356-1.116-.07-1.116.638v72.063a2.459,2.459,0,0,0,1.116,1.927c.616.355,1.115.07,1.115-.639V380.94A2.458,2.458,0,0,0,22.946,379.014Z"/><path class="cls-4" d="M26.464,381.045c-.616-.356-1.116-.07-1.116.638v72.064a2.461,2.461,0,0,0,1.116,1.926c.616.356,1.115.07,1.115-.638V382.971A2.46,2.46,0,0,0,26.464,381.045Z"/><path class="cls-4" d="M29.982,383.076c-.616-.356-1.115-.07-1.115.639v72.063a2.458,2.458,0,0,0,1.115,1.926c.616.356,1.116.07,1.116-.638V385A2.461,2.461,0,0,0,29.982,383.076Z"/><path class="cls-4" d="M33.5,385.108c-.616-.356-1.115-.07-1.115.638v72.063a2.457,2.457,0,0,0,1.115,1.926c.616.356,1.116.071,1.116-.638V387.034A2.459,2.459,0,0,0,33.5,385.108Z"/><path class="cls-4" d="M37.019,387.139c-.617-.356-1.116-.07-1.116.638v72.064a2.458,2.458,0,0,0,1.116,1.926c.616.356,1.115.07,1.115-.639V389.065A2.458,2.458,0,0,0,37.019,387.139Z"/><path class="cls-4" d="M40.537,389.17c-.616-.356-1.116-.07-1.116.638v72.064a2.461,2.461,0,0,0,1.116,1.926c.616.356,1.116.07,1.116-.638V391.1A2.461,2.461,0,0,0,40.537,389.17Z"/><path class="cls-4" d="M44.055,391.2c-.616-.355-1.115-.07-1.115.639V463.9a2.458,2.458,0,0,0,1.115,1.926c.616.356,1.116.07,1.116-.638V393.128A2.463,2.463,0,0,0,44.055,391.2Z"/></svg>