<svg id="Capa_1" data-name="Capa 1" xmlns="http://www.w3.org/2000/svg" viewBox="0 0 182.609 600"><defs><style>.cls-1,.cls-6{fill:#010101;}.cls-1{opacity:0.3;}.cls-2{fill:#0a0b0b;}.cls-3{fill:#585858;}.cls-4{fill:#363636;}.cls-5{fill:#a49d96;}.cls-7{fill:#e6e1dd;}.cls-8{fill:#b5afa7;}.cls-9{fill:#82cddf;}.cls-10{fill:#d7d1c7;}.cls-11{fill:#584a44;}.cls-12{fill:#090909;}.cls-13{fill:#362d2a;}.cls-14{fill:#c94130;}</style></defs><polygon class="cls-1" points="123.026 600 2.085 530.173 59.583 496.963 180.524 566.786 123.026 600"/><polygon class="cls-2" points="80.308 507.614 22.81 540.826 20.864 510.799 21.896 297.592 22.81 293.924 80.308 260.711 80.308 507.614"/><polygon class="cls-3" points="80.308 260.711 22.81 293.924 18.578 293.265 5.918 286.203 2.085 281.958 59.583 248.743 80.308 260.711"/><path class="cls-4" d="M2.085,281.956V528.862L22.81,540.826v-246.9Z"/><polygon class="cls-2" points="180.524 565.473 123.026 598.687 121.076 568.656 122.113 355.45 123.026 351.783 180.524 318.568 180.524 565.473"/><polygon class="cls-3" points="180.524 318.568 123.026 351.783 118.79 351.124 27.634 298.739 23.798 294.494 81.299 261.281 180.524 318.568"/><path class="cls-4" d="M23.8,294.494V541.4l99.228,57.291v-246.9Z"/><polygon class="cls-2" points="115.938 578.82 115.938 579.916 30.886 530.808 30.886 453.429 31.829 453.973 115.938 578.82"/><path class="cls-5" d="M31.829,453.973v76.289l84.109,48.558V502.532Z"/><polygon class="cls-4" points="113.925 506.232 113.925 506.509 113.323 506.852 34.504 461.346 33.879 460.304 33.879 459.287 34.504 458.973 34.711 459.091 113.925 506.232"/><polygon class="cls-6" points="113.925 505.526 113.925 506.232 35.336 460.869 34.711 459.82 34.711 459.091 113.323 504.462 113.925 505.526"/><polygon class="cls-4" points="113.925 513.426 113.925 513.702 113.323 514.044 34.504 468.538 33.879 467.496 33.879 466.477 34.504 466.164 34.711 466.283 113.925 513.426"/><polygon class="cls-6" points="113.925 512.717 113.925 513.426 35.336 468.058 34.711 467.013 34.711 466.283 113.323 511.652 113.925 512.717"/><polygon class="cls-4" points="113.925 520.617 113.925 520.895 113.323 521.235 34.504 475.727 33.879 474.686 33.879 473.667 34.504 473.356 34.711 473.475 113.925 520.617"/><polygon class="cls-6" points="113.925 519.907 113.925 520.617 35.336 475.251 34.711 474.205 34.711 473.475 113.323 518.846 113.925 519.907"/><polygon class="cls-4" points="113.925 527.81 113.925 528.085 113.323 528.427 34.504 482.92 33.879 481.878 33.879 480.861 34.504 480.548 34.711 480.666 113.925 527.81"/><polygon class="cls-6" points="113.925 527.099 113.925 527.81 35.336 482.444 34.711 481.397 34.711 480.666 113.323 526.035 113.925 527.099"/><polygon class="cls-4" points="113.925 534.999 113.925 535.277 113.323 535.621 34.504 490.113 33.879 489.07 33.879 488.053 34.504 487.738 34.711 487.857 113.925 534.999"/><polygon class="cls-6" points="113.925 534.293 113.925 534.999 35.336 489.634 34.711 488.589 34.711 487.857 113.323 533.228 113.925 534.293"/><polygon class="cls-4" points="113.925 542.193 113.925 542.471 113.323 542.811 34.504 497.303 33.879 496.262 33.879 495.244 34.504 494.932 34.711 495.05 113.925 542.193"/><polygon class="cls-6" points="113.925 541.485 113.925 542.193 35.336 496.828 34.711 495.781 34.711 495.05 113.323 540.421 113.925 541.485"/><polygon class="cls-4" points="113.925 549.383 113.925 549.661 113.323 550.001 34.504 504.497 33.879 503.456 33.879 502.436 34.504 502.124 34.711 502.242 113.925 549.383"/><polygon class="cls-6" points="113.925 548.677 113.925 549.383 35.336 504.02 34.711 502.971 34.711 502.242 113.323 547.613 113.925 548.677"/><polygon class="cls-4" points="113.925 556.577 113.925 556.853 113.323 557.195 34.504 511.689 33.879 510.647 33.879 509.63 34.504 509.315 34.711 509.434 113.925 556.577"/><polygon class="cls-6" points="113.925 555.868 113.925 556.577 35.336 511.21 34.711 510.165 34.711 509.434 113.323 554.803 113.925 555.868"/><polygon class="cls-4" points="113.925 563.769 113.925 564.044 113.323 564.387 34.504 518.879 33.879 517.836 33.879 516.818 34.504 516.508 34.711 516.626 113.925 563.769"/><polygon class="cls-6" points="113.925 563.059 113.925 563.769 35.336 518.402 34.711 517.356 34.711 516.626 113.323 561.995 113.925 563.059"/><polygon class="cls-4" points="113.925 570.961 113.925 571.238 113.323 571.579 34.504 526.073 33.879 525.027 33.879 524.012 34.504 523.701 34.711 523.82 113.925 570.961"/><polygon class="cls-6" points="113.925 570.25 113.925 570.961 35.336 525.593 34.711 524.547 34.711 523.82 113.323 569.187 113.925 570.25"/><path class="cls-7" d="M85.369,451.81l-.466.267,11.276,12.831.47-6.59Z"/><path class="cls-5" d="M92.786,459.551l3.393,5.357.47-.266v-6.324l-.47.268Z"/><path class="cls-8" d="M84.9,452.077v6.32l11.276,6.511v-6.322Z"/><polygon class="cls-7" points="95.428 462.446 95.428 463.595 85.347 457.774 85.347 453.162 86.338 453.73 89.12 456.884 95.428 462.446"/><polygon class="cls-9" points="95.428 458.984 95.428 462.446 86.338 457.202 86.338 453.73 95.428 458.984"/><path class="cls-7" d="M72.569,393.692l-2,1.153L106.4,434.317l2-19.94Z"/><path class="cls-5" d="M102.372,423.742l4.025,10.575,2-1.152V414.377l-2,1.156Z"/><path class="cls-10" d="M70.571,394.845v18.786L106.4,434.317V415.533Z"/><path class="cls-7" d="M72.569,374.274l-2,1.152L106.4,414.9l2-19.938Z"/><path class="cls-5" d="M102.372,404.325,106.4,414.9l2-1.152V394.96l-2,1.154Z"/><path class="cls-10" d="M70.571,375.426v18.786L106.4,414.9V396.114Z"/><path class="cls-11" d="M76.39,381.286l-1,.572L99.527,409.33l1.01-14.108Z"/><path class="cls-12" d="M92.265,397.862l7.262,11.468,1.01-.571V395.222l-1.01.572Z"/><path class="cls-13" d="M75.391,381.858v13.536L99.527,409.33V395.794Z"/><polygon class="cls-2" points="97.925 404.062 97.925 406.519 76.346 394.053 76.346 384.185 78.462 385.404 84.418 392.15 97.925 404.062"/><polygon class="cls-9" points="97.925 396.646 97.925 404.062 78.462 392.831 78.462 385.404 97.925 396.646"/><path class="cls-7" d="M72.569,354.855l-2,1.154,35.826,39.47,2-19.938Z"/><path class="cls-5" d="M102.372,384.906l4.025,10.573,2-1.152V375.541l-2,1.154Z"/><path class="cls-10" d="M70.571,356.009V374.8L106.4,395.479V376.7Z"/><path class="cls-7" d="M72.569,328.246l-2,1.155L106.4,376.064l2-27.13Z"/><path class="cls-5" d="M102.372,365.487l4.025,10.577,2-1.154V348.934l-2,1.152Z"/><path class="cls-10" d="M70.571,329.4v25.976L106.4,376.064V350.086Z"/><polygon class="cls-14" points="83.597 345.767 89.823 349.361 89.823 345.852 83.597 342.256 83.597 345.767"/><polygon class="cls-14" points="90.663 346.337 90.663 349.846 93.371 351.411 93.371 347.902 90.663 346.337"/></svg>