<svg xmlns="http://www.w3.org/2000/svg" viewBox="0 0 437.23 600"><defs><style>.cls-1{isolation:isolate;}.cls-2{fill:#40363f;}.cls-3{fill:#1d191d;}.cls-4{fill:#f49622;}.cls-5{fill:#fab83d;}.cls-6,.cls-9{fill:#010101;}.cls-6{mix-blend-mode:overlay;opacity:0.3;}.cls-7{fill:#d8dde0;}.cls-8{fill:#4d4f50;}</style></defs><g class="cls-1"><g id="Capa_1" data-name="Capa 1"><path class="cls-2" d="M248.122,329.06c41.446-23.931,108.643-23.931,150.089,0,20.723,11.964,31.084,27.647,31.085,43.33s-10.362,31.365-31.085,43.33c-41.446,23.931-108.643,23.931-150.089,0S206.676,352.99,248.122,329.06Z"/><path class="cls-3" d="M429.3,372.39c0,12.011-10.362,24.023-31.085,33.187-41.446,18.329-108.643,18.329-150.089,0-20.688-9.149-31.049-21.136-31.084-33.127V479.007c0,12.011,10.361,24.023,31.084,33.187,41.446,18.329,108.643,18.329,150.089,0,20.723-9.164,31.085-21.176,31.085-33.187Z"/><path class="cls-4" d="M248.122,329.06l-.007-27.512c-26.819,15.489-36.279,37.2-28.382,57.084C224.038,347.794,233.5,337.5,248.122,329.06Z"/><path class="cls-5" d="M51.983,500.8h0c68.135,39.341,178.6,39.341,246.737,0l130.826-75.538c4.528-2.615,6.8-6.041,6.8-9.467s-2.26-6.874-6.8-9.5l-31.335-18.093c-41.446,23.931-108.643,23.931-150.089,0s-41.446-62.73,0-86.661L215.651,282.8c-9.07-5.237-23.773-5.237-32.842,0L51.983,358.333C-16.151,397.674-16.151,461.458,51.983,500.8Z"/><path class="cls-4" d="M429.546,421.831,298.72,470c-68.134,25.087-178.6,25.087-246.737,0h0C17.916,457.456.882,441.016.882,424.576c0,0,0,89.873,0,106.313s17.034,32.88,51.1,45.423h0c38.831,14.3,91.411,20.446,142.069,18.447,6.235-.246,11.672-2.779,13.9-6.5,13.9-23.274,24.628-31.282,38.968-33.913,10.8-1.981,24.805,5.895,36.419,19.283,3,3.463,9.908,4.7,15.285,2.722l.1-.037,130.826-48.17c4.534-1.669,6.8-3.857,6.8-6.046v-106.3C436.341,417.979,434.074,420.163,429.546,421.831Z"/><path class="cls-6" d="M2.516,443.357c5,21.013,21.49,41.288,49.467,57.442h0c28.493,16.452,64.388,26.024,101.494,28.716l244.734-141.31c-41.446,23.931-108.643,23.931-150.089,0s-41.446-62.725-.007-86.657Z"/><path class="cls-6" d="M51.983,581.9c25.845,9.7,57.78,15.719,91.185,18.061,5.512.386,10.309-2.448,10.309-6.051V499.358h0c-37.106-1.75-73-7.971-101.494-18.665h0c-27.977-10.5-44.466-23.678-49.467-37.336h0v93.9c0,7.907,3.511,15.674,10.332,22.222C21.355,567.648,34.4,575.3,51.983,581.9Z"/><path class="cls-7" d="M248.122,388.205a112.467,112.467,0,0,0,12.564,6.214l21.556-12.472a7.328,7.328,0,0,0,3.195-5.7V361.52a12.658,12.658,0,0,0-18.988-10.962l-38.033,21.958A77.4,77.4,0,0,0,248.122,388.205Z"/><path class="cls-5" d="M285.437,361.52a12.658,12.658,0,0,0-18.988-10.962l-38.033,21.958A73.5,73.5,0,0,0,243.8,385.559l41.638-24.039Z"/><path class="cls-4" d="M243.8,385.559q2.081,1.35,4.323,2.646a112.467,112.467,0,0,0,12.564,6.214l21.556-12.472a7.328,7.328,0,0,0,3.195-5.7V361.52Z"/><path class="cls-8" d="M137.781,543.69a407.224,407.224,0,0,1-42.689-5.9c-1.578-.308-2.649-1.245-2.649-2.3V532.3c0-1.013,1.533-1.745,3.052-1.45a407.431,407.431,0,0,0,41.768,5.774c1.865.163,3.25,1.187,3.25,2.388v3.147C140.513,543.093,139.227,543.816,137.781,543.69Z"/><path class="cls-8" d="M5.027,495.326c3.385,5.059,8.417,10,15.1,14.7.673.474,1.912.169,1.912-.47v-3.1a4.631,4.631,0,0,0-2.219-3.662A58.3,58.3,0,0,1,5.242,488.626c-.288-.423-1.278-.288-1.278.173v3.137A6.044,6.044,0,0,0,5.027,495.326Z"/><path class="cls-8" d="M34.975,516.987a3.385,3.385,0,0,0,2.242,2.85q6.9,3.276,15.066,6.291c5.584,2.056,11.445,3.948,17.539,5.675,1.176.334,2.5-.21,2.5-1.031v-3.2c0-1.258-1.156-2.4-2.957-2.915-5.93-1.693-11.639-3.542-17.084-5.547q-7.956-2.928-14.7-6.12c-1.079-.509-2.6-.021-2.6.835Z"/><path class="cls-8" d="M137.781,561.236a406.956,406.956,0,0,1-42.689-5.9c-1.578-.308-2.649-1.244-2.649-2.3v-3.192c0-1.014,1.533-1.745,3.052-1.451a407.151,407.151,0,0,0,41.768,5.775c1.865.163,3.25,1.187,3.25,2.388v3.146C140.513,560.638,139.227,561.361,137.781,561.236Z"/><path class="cls-8" d="M5.027,512.872c3.385,5.059,8.417,10,15.1,14.705.673.473,1.912.169,1.912-.47V524a4.629,4.629,0,0,0-2.219-3.662A58.314,58.314,0,0,1,5.242,506.172c-.288-.423-1.278-.288-1.278.173v3.137A6.044,6.044,0,0,0,5.027,512.872Z"/><path class="cls-8" d="M34.975,534.533a3.385,3.385,0,0,0,2.242,2.85q6.9,3.274,15.066,6.291c5.584,2.056,11.445,3.948,17.539,5.676,1.176.333,2.5-.211,2.5-1.032v-3.2c0-1.257-1.156-2.4-2.957-2.914-5.93-1.693-11.639-3.542-17.084-5.547q-7.956-2.929-14.7-6.12c-1.079-.509-2.6-.021-2.6.834Z"/><path class="cls-8" d="M137.781,578.782a407.221,407.221,0,0,1-42.689-5.9c-1.578-.308-2.649-1.244-2.649-2.3V567.4c0-1.013,1.533-1.745,3.052-1.45a407.157,407.157,0,0,0,41.768,5.773c1.865.164,3.25,1.188,3.25,2.389v3.146C140.513,578.184,139.227,578.907,137.781,578.782Z"/><path class="cls-8" d="M5.027,530.418c3.385,5.059,8.417,10,15.1,14.705.673.473,1.912.169,1.912-.47v-3.1a4.629,4.629,0,0,0-2.219-3.662A58.314,58.314,0,0,1,5.242,523.718c-.288-.423-1.278-.288-1.278.173v3.137A6.047,6.047,0,0,0,5.027,530.418Z"/><path class="cls-8" d="M34.975,552.079a3.382,3.382,0,0,0,2.242,2.849q6.9,3.276,15.066,6.292c5.584,2.056,11.445,3.947,17.539,5.675,1.176.334,2.5-.21,2.5-1.031v-3.2c0-1.258-1.156-2.4-2.957-2.914-5.93-1.693-11.639-3.542-17.084-5.547q-7.956-2.929-14.7-6.12c-1.079-.51-2.6-.021-2.6.834Z"/><path class="cls-9" d="M140.513,539.015c0-1.2-1.385-2.225-3.25-2.388A407.431,407.431,0,0,1,95.5,530.853a3.564,3.564,0,0,0-.455-.059,1.081,1.081,0,0,0-.214.632v3.192c0,1.053,1.07,1.989,2.649,2.3a406.956,406.956,0,0,0,42.689,5.9l.118.008a1.1,1.1,0,0,0,.231-.659Z"/><path class="cls-9" d="M22.035,506.457a4.631,4.631,0,0,0-2.219-3.662A60.8,60.8,0,0,1,6.347,490.163v.9a6.049,6.049,0,0,0,1.063,3.39c3.305,4.939,8.18,9.765,14.625,14.37Z"/><path class="cls-9" d="M69.367,524.656c-5.93-1.693-11.639-3.542-17.084-5.547q-7.956-2.928-14.7-6.12a2.158,2.158,0,0,0-.218-.088v3.209a3.383,3.383,0,0,0,2.241,2.849q6.9,3.276,15.066,6.291c5.584,2.057,11.445,3.948,17.538,5.676l.1.026a.763.763,0,0,0,.022-.179v-3.2C72.324,526.313,71.168,525.17,69.367,524.656Z"/><path class="cls-9" d="M140.513,556.561c0-1.2-1.385-2.225-3.25-2.388A407.151,407.151,0,0,1,95.5,548.4a3.749,3.749,0,0,0-.455-.058,1.081,1.081,0,0,0-.214.632v3.192c0,1.052,1.07,1.989,2.649,2.3a407.221,407.221,0,0,0,42.689,5.9l.118.008a1.105,1.105,0,0,0,.231-.66Z"/><path class="cls-9" d="M22.035,524a4.629,4.629,0,0,0-2.219-3.662A60.781,60.781,0,0,1,6.347,507.709v.9A6.049,6.049,0,0,0,7.41,512c3.305,4.939,8.18,9.765,14.625,14.37Z"/><path class="cls-9" d="M69.367,542.2c-5.93-1.693-11.639-3.542-17.084-5.547q-7.956-2.929-14.7-6.12a1.947,1.947,0,0,0-.218-.088v3.209a3.383,3.383,0,0,0,2.241,2.849q6.9,3.276,15.066,6.292c5.584,2.055,11.445,3.947,17.538,5.675l.1.026a.765.765,0,0,0,.022-.18v-3.2C72.324,543.859,71.168,542.716,69.367,542.2Z"/><path class="cls-9" d="M140.513,574.107c0-1.2-1.385-2.225-3.25-2.389A407.157,407.157,0,0,1,95.5,565.945a3.564,3.564,0,0,0-.455-.059,1.081,1.081,0,0,0-.214.631v3.192c0,1.053,1.07,1.99,2.649,2.3a407.486,407.486,0,0,0,42.689,5.9l.118.008a1.105,1.105,0,0,0,.231-.66Z"/><path class="cls-9" d="M22.035,541.549a4.629,4.629,0,0,0-2.219-3.662A60.8,60.8,0,0,1,6.347,525.255v.895a6.05,6.05,0,0,0,1.063,3.391c3.305,4.939,8.18,9.764,14.625,14.37Z"/><path class="cls-9" d="M69.367,559.748c-5.93-1.693-11.639-3.542-17.084-5.547q-7.956-2.929-14.7-6.12a1.947,1.947,0,0,0-.218-.088V551.2a3.384,3.384,0,0,0,2.241,2.849q6.9,3.276,15.066,6.291c5.584,2.056,11.445,3.948,17.538,5.676l.1.025a.763.763,0,0,0,.022-.179v-3.2C72.324,561.4,71.168,560.261,69.367,559.748Z"/></g></g></svg>