<svg xmlns="http://www.w3.org/2000/svg" xmlns:xlink="http://www.w3.org/1999/xlink" viewBox="0 0 333.586 600"><defs><style>.cls-1{fill:#020303;opacity:0.3;}.cls-1,.cls-25{isolation:isolate;}.cls-2{fill:#f4efe9;}.cls-3{fill:#fff;}.cls-4{fill:#d1d1d1;}.cls-5{fill:#e0dcd7;}.cls-6{fill:#cc934c;}.cls-7{fill:#594b44;}.cls-8{fill:#e4bf62;}.cls-9{fill:#fdeb7a;}.cls-10{fill:#6a5952;}.cls-11{fill:#85706b;}.cls-12{fill:#403531;}.cls-13{fill:#d7d1c7;}.cls-14{fill:#a49d97;}.cls-15{fill:#090a0a;}.cls-16{fill:#e6e1dd;}.cls-17{fill:#8ccecd;}.cls-18{fill:#eb5e56;}.cls-19,.cls-25{fill:#18445d;}.cls-20{fill:#2a5e7a;}.cls-21{fill:#2c6380;}.cls-22{fill:#4590b8;}.cls-23{fill:#123242;}.cls-24{fill:#231c1c;}.cls-25{opacity:0.7;}.cls-26{fill:url(#Degradado_sin_nombre_211);}</style><linearGradient id="Degradado_sin_nombre_211" x1="166.793" y1="151.546" x2="166.793" y2="21.546" gradientUnits="userSpaceOnUse"><stop offset="0" stop-color="#c57115"/><stop offset="0.997" stop-color="#f1881c"/></linearGradient></defs><g id="Capa_1" data-name="Capa 1"><polygon class="cls-1" points="207.307 519.232 212.749 516.092 146.139 477.639 0.802 561.552 67.417 600 202.988 521.724 328.463 594.171 332.783 591.679 207.307 519.232"/><polygon class="cls-2" points="144.793 384.957 67.417 598.107 0.802 559.656 0.802 333.461 110.501 345.377 144.793 384.957"/><polygon class="cls-3" points="0.802 333.461 146.139 249.547 212.749 288.002 144.793 384.957 67.417 371.911 0.802 333.461"/><path class="cls-4" d="M67.417,371.911v226.2l145.332-83.916V288Z"/><path class="cls-2" d="M81.537,380.391V573.722l114.389-66.07V314.329Z"/><path class="cls-5" d="M85.508,389.14v77.314l104.273-60.22v-77.3Z"/><polygon class="cls-3" points="191.725 327.809 191.725 407.371 85.508 468.704 85.508 466.454 189.781 406.233 189.781 328.936 191.725 327.809"/><path class="cls-5" d="M85.508,484.178v77.3l104.273-60.21V423.98Z"/><polygon class="cls-3" points="191.725 422.849 191.725 502.402 85.508 563.741 85.508 561.484 189.781 501.273 189.781 423.98 191.725 422.849"/><polygon class="cls-3" points="198.641 312.77 198.641 509.216 81.537 576.841 81.537 573.722 195.925 507.652 195.925 314.329 198.641 312.77"/><polygon class="cls-2" points="182.217 362.596 175.485 402.683 169.686 399.338 169.686 358.102 179.236 359.146 182.217 362.596"/><polygon class="cls-3" points="169.686 358.102 182.333 350.808 188.137 354.148 182.217 362.596 175.485 361.458 169.686 358.102"/><path class="cls-4" d="M175.485,361.458v41.225l12.653-7.3V354.148Z"/><path class="cls-6" d="M177.278,384.421v7.31l9.071-5.241v-7.3Z"/><polygon class="cls-7" points="181.813 362.444 176.954 365.245 176.954 362.738 181.813 359.936 181.813 362.444"/><path class="cls-8" d="M175.485,367.591V369.4l12.653-7.307v-1.8Z"/><polygon class="cls-8" points="185.622 390.089 181.344 395.103 176.539 392.332 176.539 388.361 184.449 389.225 185.622 390.089"/><polygon class="cls-9" points="176.539 388.361 187.022 382.313 191.82 385.083 187.032 389.336 181.344 391.136 176.539 388.361"/><path class="cls-6" d="M181.344,391.136V395.1l10.476-6.054v-3.966Z"/><polygon class="cls-2" points="169.169 370.123 162.438 410.217 156.638 406.877 156.638 365.647 166.188 366.678 169.169 370.123"/><polygon class="cls-3" points="156.638 365.647 169.291 358.334 175.091 361.685 169.169 370.123 162.438 368.991 156.638 365.647"/><polygon class="cls-4" points="162.438 368.991 162.438 410.217 175.091 402.921 175.091 361.685 162.438 368.991"/><polygon class="cls-6" points="164.229 391.958 164.229 399.265 173.299 394.029 173.299 386.723 164.229 391.958"/><polygon class="cls-7" points="168.764 369.976 163.907 372.785 163.907 370.277 168.764 367.469 168.764 369.976"/><polygon class="cls-8" points="162.438 375.123 162.438 376.929 175.091 369.63 175.091 367.823 162.438 375.123"/><polygon class="cls-8" points="172.566 397.626 168.3 402.636 163.492 399.866 163.492 395.899 171.403 396.757 172.566 397.626"/><polygon class="cls-9" points="163.492 395.899 173.969 389.84 178.772 392.617 173.98 396.868 168.3 398.665 163.492 395.899"/><polygon class="cls-6" points="168.3 398.665 168.3 402.636 178.772 396.579 178.772 392.617 168.3 398.665"/><polygon class="cls-2" points="156.121 377.662 149.387 417.754 143.585 414.404 143.585 373.174 153.14 374.212 156.121 377.662"/><polygon class="cls-3" points="143.585 373.174 156.237 365.873 162.036 369.223 156.121 377.662 149.387 376.524 143.585 373.174"/><polygon class="cls-4" points="149.387 376.524 149.387 417.754 162.036 410.448 162.036 369.223 149.387 376.524"/><polygon class="cls-6" points="151.178 399.491 151.178 406.802 160.252 401.567 160.252 394.256 151.178 399.491"/><polygon class="cls-7" points="155.711 377.503 150.856 380.312 150.856 377.804 155.711 374.996 155.711 377.503"/><polygon class="cls-8" points="149.387 382.661 149.387 384.468 162.036 377.156 162.036 375.354 149.387 382.661"/><polygon class="cls-8" points="159.514 405.159 155.247 410.164 150.44 407.398 150.44 403.426 158.35 404.295 159.514 405.159"/><polygon class="cls-9" points="150.44 403.426 160.92 397.379 165.724 400.155 160.926 404.394 155.247 406.207 150.44 403.426"/><polygon class="cls-6" points="155.247 406.207 155.247 410.164 165.724 404.116 165.724 400.155 155.247 406.207"/><polygon class="cls-2" points="143.071 385.19 136.336 425.286 130.541 421.942 130.541 380.707 140.086 381.739 143.071 385.19"/><polygon class="cls-3" points="130.541 380.707 143.186 373.406 148.989 376.756 143.071 385.19 136.336 384.057 130.541 380.707"/><polygon class="cls-4" points="136.336 384.057 136.336 425.286 148.989 417.98 148.989 376.756 136.336 384.057"/><polygon class="cls-6" points="138.127 407.029 138.127 414.337 147.198 409.1 147.198 401.787 138.127 407.029"/><polygon class="cls-7" points="142.662 385.047 137.807 387.85 137.807 385.341 142.662 382.534 142.662 385.047"/><polygon class="cls-8" points="136.336 390.194 136.336 392 148.989 384.689 148.989 382.888 136.336 390.194"/><polygon class="cls-8" points="146.468 412.698 142.199 417.701 137.392 414.93 137.392 410.97 145.302 411.823 146.468 412.698"/><polygon class="cls-9" points="137.392 410.97 147.873 404.91 152.677 407.688 147.882 411.939 142.199 413.741 137.392 410.97"/><polygon class="cls-6" points="142.199 413.741 142.199 417.701 152.677 411.65 152.677 407.688 142.199 413.741"/><polygon class="cls-2" points="130.023 392.728 123.288 432.82 117.488 429.475 117.488 388.24 127.036 389.282 130.023 392.728"/><polygon class="cls-3" points="117.488 388.24 130.138 380.944 135.94 384.29 130.023 392.728 123.288 391.589 117.488 388.24"/><polygon class="cls-4" points="123.288 391.589 123.288 432.82 135.94 425.521 135.94 384.29 123.288 391.589"/><polygon class="cls-6" points="125.079 414.568 125.079 421.869 134.149 416.632 134.149 409.327 125.079 414.568"/><polygon class="cls-7" points="129.614 392.58 124.755 395.387 124.755 392.88 129.614 390.072 129.614 392.58"/><polygon class="cls-8" points="123.288 397.726 123.288 399.533 135.94 392.228 135.94 390.425 123.288 397.726"/><polygon class="cls-8" points="133.418 420.231 129.151 425.234 124.342 422.464 124.342 418.496 132.251 419.356 133.418 420.231"/><polygon class="cls-9" points="124.342 418.496 134.819 412.45 139.626 415.221 134.833 419.471 129.151 421.272 124.342 418.496"/><polygon class="cls-6" points="129.151 421.272 129.151 425.234 139.626 419.187 139.626 415.221 129.151 421.272"/><polygon class="cls-2" points="103.921 407.793 97.187 447.891 91.392 444.545 91.392 403.311 100.937 404.342 103.921 407.793"/><polygon class="cls-3" points="91.392 403.311 117.088 388.477 122.888 391.816 103.921 407.793 97.187 406.661 91.392 403.311"/><path class="cls-4" d="M97.187,406.661v41.231l25.7-14.84V391.817Z"/><polygon class="cls-7" points="103.513 407.65 98.656 410.453 98.656 407.951 103.513 405.143 103.513 407.65"/><path class="cls-8" d="M97.187,412.8v1.8l25.7-14.839v-1.8Z"/><polygon class="cls-6" points="99.391 414.983 99.391 422.29 108.462 417.054 108.462 409.747 99.391 414.983"/><polygon class="cls-10" points="118.342 426.486 115.805 434.147 112.947 432.498 112.947 425.466 117.652 425.973 118.342 426.486"/><polygon class="cls-11" points="112.947 425.466 119.174 421.869 122.03 423.511 119.18 426.041 115.805 427.109 112.947 425.466"/><polygon class="cls-12" points="115.805 427.109 115.805 434.147 122.03 430.555 122.03 423.511 115.805 427.109"/><polygon class="cls-8" points="107.733 420.646 103.459 425.658 98.656 422.886 98.656 418.919 106.566 419.784 107.733 420.646"/><polygon class="cls-9" points="98.656 418.919 109.135 412.871 113.938 415.642 109.144 419.893 103.459 421.694 98.656 418.919"/><polygon class="cls-6" points="103.459 421.694 103.459 425.658 113.938 419.609 113.938 415.642 103.459 421.694"/><polygon class="cls-13" points="182.217 457.879 124.358 527.412 118.555 524.065 118.555 482.836 179.236 454.428 182.217 457.879"/><polygon class="cls-13" points="118.555 482.836 182.333 446.09 188.137 449.43 182.217 457.879 124.358 486.183 118.555 482.836"/><path class="cls-14" d="M124.358,486.183v41.229l63.78-36.749V449.429Z"/><path class="cls-4" d="M128.883,490.89v24.657l49.668-28.671V462.215Z"/><polygon class="cls-7" points="176.074 467.403 176.074 471.907 146.674 488.874 146.674 487.965 175.291 471.448 175.291 467.86 176.074 467.403"/><polygon class="cls-14" points="175.291 467.86 175.291 471.448 146.674 487.965 146.674 484.391 175.291 467.86"/><polygon class="cls-14" points="137.408 507.207 130.842 510.996 130.842 500.807 137.408 497.011 137.408 507.207"/><polygon class="cls-15" points="136.553 498.909 136.553 506.293 131.698 509.1 131.698 507.798 135.443 505.642 135.443 499.546 136.553 498.909"/><polygon class="cls-7" points="135.443 499.546 135.443 505.642 131.698 507.798 131.698 501.716 135.443 499.546"/><polygon class="cls-16" points="134.505 501.067 134.505 505.197 132.635 506.265 132.635 502.154 134.505 501.067"/><polygon class="cls-14" points="143.974 503.408 137.408 507.207 137.408 497.011 143.974 493.219 143.974 503.408"/><polygon class="cls-3" points="130.842 491.965 130.842 498.819 143.974 491.243 143.974 484.379 130.842 491.965"/><polygon class="cls-17" points="131.99 492.434 131.99 495.065 137.024 492.157 137.024 489.527 131.99 492.434"/><polygon class="cls-15" points="143.116 495.117 143.116 502.502 138.265 505.309 138.265 504.002 142.009 501.848 142.009 495.754 143.116 495.117"/><polygon class="cls-7" points="142.009 495.754 142.009 501.848 138.265 504.002 138.265 497.915 142.009 495.754"/><polygon class="cls-16" points="141.074 497.281 141.074 501.406 139.204 502.485 139.204 498.36 141.074 497.281"/><polygon class="cls-14" points="150.54 499.619 143.974 503.408 143.974 493.219 150.54 489.433 150.54 499.619"/><polygon class="cls-15" points="149.682 491.328 149.682 498.708 144.833 501.515 144.833 500.215 148.576 498.064 148.576 491.965 149.682 491.328"/><polygon class="cls-7" points="148.576 491.965 148.576 498.064 144.833 500.215 144.833 494.13 148.576 491.965"/><polygon class="cls-16" points="147.641 493.482 147.641 497.612 145.768 498.703 145.768 494.566 147.641 493.482"/><polygon class="cls-14" points="157.107 495.832 150.54 499.619 150.54 489.433 157.107 485.643 157.107 495.832"/><polygon class="cls-15" points="156.248 487.537 156.248 494.921 151.399 497.726 151.399 496.421 155.141 494.273 155.141 488.171 156.248 487.537"/><polygon class="cls-7" points="155.141 488.171 155.141 494.273 151.399 496.421 151.399 490.344 155.141 488.171"/><polygon class="cls-16" points="154.204 489.7 154.204 493.823 152.337 494.904 152.337 490.772 154.204 489.7"/><polygon class="cls-14" points="163.675 492.034 157.107 495.832 157.107 485.643 163.675 481.852 163.675 492.034"/><polygon class="cls-15" points="162.816 483.743 162.816 491.132 157.965 493.936 157.965 492.628 161.716 490.474 161.716 484.379 162.816 483.743"/><polygon class="cls-7" points="161.716 484.379 161.716 490.474 157.965 492.628 157.965 486.55 161.716 484.379"/><polygon class="cls-16" points="160.773 485.908 160.773 490.031 158.909 491.111 158.909 486.988 160.773 485.908"/><polygon class="cls-14" points="170.239 488.244 163.675 492.034 163.675 481.852 170.239 478.058 170.239 488.244"/><polygon class="cls-15" points="169.386 479.951 169.386 487.333 164.528 490.143 164.528 488.836 168.28 486.687 168.28 480.588 169.386 479.951"/><polygon class="cls-7" points="168.28 480.588 168.28 486.687 164.528 488.836 164.528 482.763 168.28 480.588"/><polygon class="cls-16" points="167.342 482.115 167.342 486.247 165.467 487.314 165.467 483.201 167.342 482.115"/><polygon class="cls-18" points="176.808 484.453 170.239 488.244 170.239 478.058 176.808 474.264 176.808 484.453"/><polygon class="cls-15" points="175.954 476.162 175.954 483.549 171.102 486.356 171.102 485.054 174.841 482.9 174.841 476.799 175.954 476.162"/><polygon class="cls-7" points="174.841 476.799 174.841 482.9 171.102 485.054 171.102 478.964 174.841 476.799"/><polygon class="cls-16" points="173.906 478.316 173.906 482.451 172.041 483.52 172.041 479.407 173.906 478.316"/><polygon class="cls-2" points="103.921 503.075 97.187 543.172 91.392 539.823 91.392 498.587 100.937 499.631 103.921 503.075"/><polygon class="cls-3" points="91.392 498.587 117.088 483.755 122.888 487.099 103.921 503.075 97.187 501.943 91.392 498.587"/><path class="cls-4" d="M97.187,501.943v41.229l25.7-14.84V487.1Z"/><polygon class="cls-7" points="103.513 502.921 98.656 505.73 98.656 503.219 103.513 500.424 103.513 502.921"/><polygon class="cls-7" points="116.285 495.553 111.424 498.353 111.424 495.849 116.285 493.039 116.285 495.553"/><path class="cls-8" d="M97.187,508.075v1.8l25.7-14.835v-1.8Z"/><polygon class="cls-6" points="99.391 528.148 99.391 535.454 108.462 530.214 108.462 522.908 99.391 528.148"/><polygon class="cls-6" points="111.424 521.164 111.424 528.477 120.499 523.234 120.499 515.928 111.424 521.164"/><polygon class="cls-8" points="119.769 526.832 115.497 531.835 110.691 529.068 110.691 525.102 118.602 525.97 119.769 526.832"/><polygon class="cls-9" points="110.691 525.102 121.171 519.055 125.975 521.822 121.178 526.072 115.497 527.88 110.691 525.102"/><polygon class="cls-6" points="115.497 527.88 115.497 531.835 125.975 525.791 125.975 521.822 115.497 527.88"/><polygon class="cls-8" points="107.733 533.816 103.459 538.82 98.656 536.048 98.656 532.084 106.566 532.948 107.733 533.816"/><polygon class="cls-9" points="98.656 532.084 109.135 526.037 113.938 528.806 109.144 533.052 103.459 534.855 98.656 532.084"/><polygon class="cls-6" points="103.459 534.855 103.459 538.82 113.938 532.773 113.938 528.806 103.459 534.855"/><polygon class="cls-19" points="202.86 350.538 202.86 350.855 202.108 351.287 201.845 350.823 202.86 350.538"/><polygon class="cls-20" points="202.108 350.97 202.108 351.287 201.029 351.287 200.263 350.538 202.108 350.97"/><polygon class="cls-21" points="201.029 350.97 201.029 351.287 200.263 350.855 200.263 350.538 201.029 350.97"/><polygon class="cls-22" points="200.263 349.928 200.263 350.538 201.029 350.97 202.108 350.97 202.86 350.538 202.86 349.928 202.108 349.495 201.029 349.495 200.263 349.928"/><polygon class="cls-19" points="203.12 341.605 203.12 350.649 202.208 351.176 201.899 341.921 203.12 341.605"/><polygon class="cls-20" points="202.208 342.121 202.208 351.176 200.906 351.176 200.023 341.605 202.208 342.121"/><polygon class="cls-21" points="200.906 342.121 200.906 351.176 200.023 350.649 200.023 341.605 200.906 342.121"/><polygon class="cls-23" points="200.023 340.841 200.023 341.605 200.906 342.121 202.208 342.121 203.12 341.605 203.12 340.841 202.208 340.335 200.906 340.335 200.023 340.841"/><polygon class="cls-19" points="203.12 332.223 203.12 341.268 202.208 341.81 201.899 332.55 203.12 332.223"/><polygon class="cls-20" points="202.208 332.739 202.208 341.81 200.906 341.81 200.023 332.223 202.208 332.739"/><polygon class="cls-21" points="200.906 332.739 200.906 341.81 200.023 341.268 200.023 332.223 200.906 332.739"/><polygon class="cls-22" points="200.023 331.475 200.023 332.223 200.906 332.739 202.208 332.739 203.12 332.223 203.12 331.475 202.208 330.954 200.906 330.954 200.023 331.475"/><polygon class="cls-19" points="202.86 331.828 202.86 332.113 202.108 332.56 201.845 332.091 202.86 331.828"/><polygon class="cls-20" points="202.108 332.238 202.108 332.56 201.029 332.56 200.263 331.828 202.108 332.238"/><polygon class="cls-21" points="201.029 332.238 201.029 332.56 200.263 332.113 200.263 331.828 201.029 332.238"/><polygon class="cls-22" points="200.263 331.195 200.263 331.828 201.029 332.238 202.108 332.238 202.86 331.828 202.86 331.195 202.108 330.754 201.029 330.754 200.263 331.195"/><polygon class="cls-19" points="202.86 493.165 202.86 493.477 202.108 493.908 201.845 493.449 202.86 493.165"/><polygon class="cls-20" points="202.108 493.598 202.108 493.908 201.029 493.908 200.263 493.165 202.108 493.598"/><polygon class="cls-21" points="201.029 493.598 201.029 493.908 200.263 493.477 200.263 493.165 201.029 493.598"/><polygon class="cls-22" points="200.263 492.547 200.263 493.165 201.029 493.598 202.108 493.598 202.86 493.165 202.86 492.547 202.108 492.119 201.029 492.119 200.263 492.547"/><polygon class="cls-19" points="203.12 484.223 203.12 493.271 202.208 493.797 201.899 484.543 203.12 484.223"/><polygon class="cls-20" points="202.208 484.737 202.208 493.797 200.906 493.797 200.023 484.223 202.208 484.737"/><polygon class="cls-21" points="200.906 484.737 200.906 493.797 200.023 493.271 200.023 484.223 200.906 484.737"/><polygon class="cls-23" points="200.023 483.468 200.023 484.223 200.906 484.737 202.208 484.737 203.12 484.223 203.12 483.468 202.208 482.957 200.906 482.957 200.023 483.468"/><polygon class="cls-19" points="203.12 474.846 203.12 483.894 202.208 484.427 201.899 475.17 203.12 474.846"/><polygon class="cls-20" points="202.208 475.36 202.208 484.427 200.906 484.427 200.023 474.846 202.208 475.36"/><polygon class="cls-21" points="200.906 475.36 200.906 484.427 200.023 483.894 200.023 474.846 200.906 475.36"/><polygon class="cls-22" points="200.023 474.098 200.023 474.846 200.906 475.36 202.208 475.36 203.12 474.846 203.12 474.098 202.208 473.575 200.906 473.575 200.023 474.098"/><polygon class="cls-19" points="202.86 474.439 202.86 474.728 202.108 475.182 201.845 474.711 202.86 474.439"/><polygon class="cls-20" points="202.108 474.86 202.108 475.182 201.029 475.182 200.263 474.439 202.108 474.86"/><polygon class="cls-21" points="201.029 474.86 201.029 475.182 200.263 474.728 200.263 474.439 201.029 474.86"/><polygon class="cls-22" points="200.263 473.824 200.263 474.439 201.029 474.86 202.108 474.86 202.86 474.439 202.86 473.824 202.108 473.376 201.029 473.376 200.263 473.824"/><path class="cls-24" d="M292.17,468.894l-49.291-28.462-4.1-7.152,25.948-33.435,5.638,3.25,25.938,63.383Z"/><polygon class="cls-8" points="293.476 464.473 269.091 404.964 269.091 404.964 265.988 403.169 265.988 403.169 241.609 434.557 243.818 438.375 291.259 465.753 293.476 464.473"/><polygon class="cls-24" points="272.568 417.455 262.18 423.871 264.804 433.279 258.931 445.212 269.298 438.777 266.705 429.395 272.568 417.455"/><path class="cls-19" d="M206.611,310.341l-4.313,2.5,126.166,72.842V582.052l4.319-2.492V383.188Z"/><path class="cls-25" d="M204.816,314.286l1.795,192.428L328.463,577.07V385.68Z"/><polygon class="cls-19" points="328.463 577.071 328.463 582.053 202.298 509.202 202.298 312.838 206.611 315.324 206.611 506.715 328.463 577.071"/></g><g id="arrow_event_critycal"><path class="cls-26" d="M187.149,89.919V101.78l29.418.008-49.776,49.758-49.773-49.758,29.153-.008V89.919Zm0-10.65V60.614H146.171V79.269Zm0-29.3V38.638H146.171V49.967Zm0-21.978V21.546H146.171v6.443Z"/></g></svg>