<svg xmlns="http://www.w3.org/2000/svg" xmlns:xlink="http://www.w3.org/1999/xlink" viewBox="0 0 177.111 600"><defs><style>.cls-1{fill:#d6d7ed;}.cls-2{fill:#5f7175;}.cls-3{fill:#95a8ab;}.cls-4{isolation:isolate;}.cls-5{fill:#e6e9eb;}.cls-6{fill:#355a60;}.cls-7{fill:#1b2e31;}.cls-8{fill:#5e7a7f;}.cls-9{fill:#a4aeb0;}.cls-10{fill:#b1bfc2;}.cls-11{fill:#e6ebec;}.cls-12{fill:#2c3235;}.cls-13{fill:#faba28;}.cls-14{fill:url(#Degradado_sin_nombre_211);}</style><linearGradient id="Degradado_sin_nombre_211" x1="88.555" y1="151.546" x2="88.555" y2="21.546" gradientUnits="userSpaceOnUse"><stop offset="0" stop-color="#c57115"/><stop offset="0.997" stop-color="#f1881c"/></linearGradient></defs><g id="Capa_1" data-name="Capa 1"><polygon class="cls-1" points="0.604 541.977 55.559 573.706 176.505 503.877 121.55 472.149 0.604 541.977"/><polygon class="cls-2" points="153.822 543.268 131.138 530.171 131.138 521.918 153.822 535.015 153.822 543.268"/><polygon class="cls-2" points="55.56 591.746 176.507 521.918 176.507 503.759 55.56 573.587 55.56 591.746"/><polygon class="cls-2" points="153.822 543.268 176.507 530.171 176.507 521.918 153.822 535.015 153.822 543.268"/><polygon class="cls-2" points="55.56 600 78.245 586.903 78.245 578.649 55.56 591.746 55.56 600"/><polygon class="cls-3" points="45.973 568.271 23.288 581.368 23.288 573.114 45.973 560.017 45.973 568.271"/><polygon class="cls-3" points="0.604 560.017 55.56 591.746 55.56 573.587 0.604 541.858 0.604 560.017"/><polygon class="cls-3" points="32.876 586.903 55.56 600 55.56 591.746 32.876 578.649 32.876 586.903"/><polygon class="cls-3" points="0.604 568.271 23.288 581.368 23.288 573.114 0.604 560.017 0.604 568.271"/><g class="cls-4"><polygon class="cls-2" points="55.175 575.656 4.004 544.95 3.58 309.91 54.749 340.614 55.175 575.656"/><polygon class="cls-3" points="54.749 340.614 3.58 309.91 124.174 240.271 175.345 270.975 54.749 340.614"/><polygon class="cls-5" points="175.345 270.975 175.769 506.017 55.175 575.656 54.749 340.614 175.345 270.975"/></g><polygon class="cls-5" points="52.088 338.672 172.555 268.959 175.066 270.421 175.066 273.685 54.474 343.22 54.474 340.057 52.088 338.672"/><polygon class="cls-6" points="160.896 305.74 64.994 361.111 65.065 400.435 160.966 345.066 160.896 305.74"/><path class="cls-7" d="M99.385,358.654c.022,8.609,6.14,12.1,13.64,7.773s13.576-14.865,13.551-23.473h0c-.023-8.618-6.147-12.1-13.639-7.775S99.36,350.035,99.385,358.654Z"/><path class="cls-8" d="M123.39,332.72c-.179-.105-.373-.179-.56-.267-.163-.074-.32-.166-.49-.229-.2-.072-.408-.12-.613-.177-.176-.048-.344-.111-.526-.148-.214-.042-.441-.055-.662-.083-.187-.022-.365-.059-.556-.066-.23-.013-.471.007-.707.013-.2.007-.386,0-.586.013-.252.022-.513.077-.769.118-.2.033-.389.05-.589.092-.281.063-.573.157-.86.242-.187.055-.369.092-.556.155-.32.112-.648.254-.974.391-.166.07-.328.123-.495.2-.5.229-1,.489-1.511.784-8.14,4.7-14.714,16.086-14.689,25.436,0,.581.029,1.14.082,1.68.015.174.051.334.073.5.045.352.086.71.154,1.042.04.2.1.378.146.572.07.282.133.572.219.837.061.192.144.362.214.548.092.24.176.491.282.719.084.176.187.334.279.5.112.2.217.424.342.616.105.157.225.3.336.441.133.177.258.367.4.527.121.135.26.248.389.375.15.149.3.306.457.437.14.113.294.2.44.306,2.707,1.893,6.615,1.821,10.97-.69,8.134-4.7,14.707-16.086,14.682-25.434C127.7,337.518,126.048,334.251,123.39,332.72Zm-10.365,32.248c-.43.249-.855.467-1.274.661-.133.062-.263.1-.394.16-.284.118-.567.242-.843.336-.157.053-.307.083-.461.131-.246.07-.495.151-.735.2-.166.04-.322.053-.485.079-.221.035-.446.081-.661.1-.166.016-.324,0-.486.011-.2.007-.407.02-.605.011-.158-.006-.309-.039-.463-.059a4.954,4.954,0,0,1-.565-.07c-.15-.03-.292-.08-.437-.122-.176-.05-.356-.089-.525-.151-.142-.056-.273-.128-.411-.194-.159-.072-.323-.138-.475-.225a6.139,6.139,0,0,1-1.079-.817c-1.6-1.483-2.565-3.916-2.574-7.159-.023-7.88,5.535-17.506,12.391-21.463,2.865-1.653,5.5-2.044,7.614-1.381a6,6,0,0,1,1.633.8c.124.087.255.164.373.262.136.109.257.242.384.365.111.1.228.2.333.321.121.138.228.3.34.446.093.124.195.237.283.369.106.165.2.351.294.53.076.14.162.269.23.418.091.192.164.406.244.613.058.153.124.3.176.452.074.225.127.474.186.714.04.16.091.306.124.475.057.281.091.587.131.886.017.142.047.273.061.417.043.452.066.929.068,1.418C125.439,351.379,119.876,361.015,113.025,364.968Z"/><polygon class="cls-8" points="153.38 314.221 153.424 344.304 157.415 346.626 157.357 311.923 153.38 314.221"/><polygon class="cls-9" points="70.864 391.972 70.877 396.589 157.415 346.626 153.424 344.304 70.864 391.972"/><polygon class="cls-8" points="60.127 358.802 60.21 402.742 64.201 405.059 64.118 361.122 60.127 358.802"/><polygon class="cls-10" points="164.032 303.438 160.042 301.114 60.127 358.802 64.118 361.122 164.032 303.438"/><path class="cls-11" d="M164.032,303.438,64.118,361.122l.083,43.937,99.914-57.684ZM70.877,396.589l-.013-4.617-.044-30.086,82.56-47.665,3.977-2.3.058,34.7Z"/><polygon class="cls-11" points="157.952 316.975 157.945 314.826 114.387 340.054 114.387 340.054 112.508 341.142 112.508 341.142 110.639 342.218 110.639 342.218 108.759 343.306 108.759 343.306 106.88 344.387 106.88 344.387 106.001 344.896 103.131 346.552 103.131 346.552 101.251 347.637 101.251 347.637 99.371 348.725 99.371 348.725 97.504 349.804 97.504 349.804 95.608 350.896 93.744 351.973 93.744 351.973 91.831 353.078 89.996 354.137 89.996 354.137 88.116 355.222 88.116 355.222 86.236 356.308 86.236 356.306 84.369 357.387 84.369 357.387 82.892 358.239 80.608 359.558 80.608 359.558 79.162 360.39 76.003 362.216 74.981 362.805 74.981 362.805 70.509 365.385 70.515 367.388 70.515 367.534 157.952 316.975"/><polygon class="cls-11" points="70.528 371.854 157.964 321.29 157.958 319.133 70.522 369.694 70.528 371.854"/><polygon class="cls-11" points="157.97 323.44 70.534 374.001 70.539 376.159 157.976 325.6 157.97 323.44"/><polygon class="cls-11" points="157.952 329.95 157.945 327.804 114.387 353.032 114.387 353.032 112.508 354.115 112.508 354.115 110.639 355.194 110.639 355.194 108.759 356.28 108.759 356.28 106.88 357.365 106.88 357.365 106.001 357.874 103.131 359.529 103.131 359.529 101.251 360.613 101.251 360.613 99.371 361.7 99.371 361.7 97.504 362.777 97.504 362.777 95.608 363.874 93.744 364.95 93.744 364.95 91.831 366.053 89.996 367.113 89.996 367.113 88.116 368.198 88.116 368.198 86.236 369.286 86.236 369.283 84.369 370.362 84.369 370.362 82.892 371.214 80.608 372.531 80.608 372.531 79.162 373.368 76.003 375.194 74.981 375.783 74.981 375.783 70.509 378.363 70.515 380.363 70.515 380.51 157.952 329.95"/><polygon class="cls-11" points="70.528 384.832 157.964 334.268 157.958 332.11 70.522 382.67 70.528 384.832"/><polygon class="cls-11" points="157.97 336.415 70.534 386.977 70.539 389.137 157.976 338.575 157.97 336.415"/><polygon class="cls-11" points="157.952 342.944 157.945 340.799 114.387 366.027 114.387 366.027 112.508 367.11 112.508 367.11 110.639 368.189 110.639 368.189 108.759 369.275 108.759 369.275 106.88 370.362 106.88 370.362 106.001 370.869 103.131 372.525 103.131 372.525 101.251 373.608 101.251 373.608 99.371 374.694 99.371 374.694 97.504 375.772 97.504 375.772 95.608 376.869 93.744 377.946 93.744 377.946 91.831 379.049 89.996 380.108 89.996 380.108 88.116 381.193 88.116 381.193 86.236 382.281 86.236 382.279 84.369 383.358 84.369 383.358 82.892 384.21 80.608 385.527 80.608 385.527 79.162 386.363 76.003 388.189 74.981 388.779 74.981 388.779 70.509 391.358 70.515 393.359 70.515 393.505 157.952 342.944"/><path class="cls-12" d="M80.033,512.483l30.7-77.814c2.677-6.8,9.909-10.1,13.38-5.372l31.03,42.167c3.219,4.355-.137,12.158-4.96,14.944L88.45,522.049C82.627,525.414,76.944,520.324,80.033,512.483Z"/><path class="cls-13" d="M121.676,431.086l31.033,42.171c1.878,2.542-.383,8.422-4.039,10.533L86.938,519.431c-3.656,2.111-5.942-1.145-4.091-5.84l30.7-77.812C115.124,431.774,119.618,428.282,121.676,431.086Z"/><polygon class="cls-12" points="125.129 455.581 115.809 474.692 124.155 469.874 110.961 494.616 117.019 476.991 110.443 480.788 115.158 461.338 125.129 455.581"/></g><g id="arrow_event_critycal"><path class="cls-14" d="M108.911,89.919V101.78l29.419.008L88.553,151.546,38.781,101.788l29.153-.008V89.919Zm0-10.65V60.614H67.934V79.269Zm0-29.3V38.638H67.934V49.967Zm0-21.978V21.546H67.934v6.443Z"/></g></svg>