<svg xmlns="http://www.w3.org/2000/svg" xmlns:xlink="http://www.w3.org/1999/xlink" viewBox="0 0 285.501 600"><defs><style>.cls-1{fill:#4f4c58;}.cls-2{fill:#63606f;}.cls-3{fill:#585564;}.cls-4{fill:#404047;}.cls-5{fill:#2f2e34;}.cls-6{fill:#4a6c5c;}.cls-7{fill:#58806d;}.cls-8{fill:#3d5047;}.cls-9{fill:#40584d;}.cls-10{fill:#edac32;}.cls-11{fill:#fee883;}.cls-12{fill:#d0842e;}.cls-13{fill:url(#Degradado_sin_nombre_211);}</style><linearGradient id="Degradado_sin_nombre_211" x1="142.751" y1="151.546" x2="142.751" y2="21.546" gradientUnits="userSpaceOnUse"><stop offset="0" stop-color="#c57115"/><stop offset="0.997" stop-color="#f1881c"/></linearGradient></defs><g id="Capa_1" data-name="Capa 1"><polygon class="cls-1" points="0.975 339.7 0.975 533.768 115.692 600 115.692 405.932 0.975 339.7"/><polygon class="cls-2" points="115.689 405.924 284.528 308.445 169.812 242.214 0.973 339.693 115.689 405.924"/><polygon class="cls-3" points="263.376 308.445 115.689 393.712 22.125 339.693 169.812 254.425 263.376 308.445"/><path class="cls-4" d="M234.794,316.5a1.028,1.028,0,0,0,0,1.948,3.73,3.73,0,0,0,3.375,0,1.028,1.028,0,0,0,0-1.948A3.73,3.73,0,0,0,234.794,316.5Z"/><path class="cls-4" d="M225.421,311.091a1.028,1.028,0,0,0,0,1.948,3.73,3.73,0,0,0,3.375,0,1.028,1.028,0,0,0,0-1.948A3.724,3.724,0,0,0,225.421,311.091Z"/><path class="cls-4" d="M216.048,305.679a1.028,1.028,0,0,0,0,1.948,3.728,3.728,0,0,0,3.374,0,1.028,1.028,0,0,0,0-1.948A3.728,3.728,0,0,0,216.048,305.679Z"/><path class="cls-4" d="M206.675,300.267a1.029,1.029,0,0,0,0,1.949,3.728,3.728,0,0,0,3.374,0,1.029,1.029,0,0,0,0-1.949A3.735,3.735,0,0,0,206.675,300.267Z"/><path class="cls-4" d="M197.3,294.856a1.028,1.028,0,0,0,0,1.948,3.728,3.728,0,0,0,3.374,0,1.028,1.028,0,0,0,0-1.948A3.728,3.728,0,0,0,197.3,294.856Z"/><path class="cls-4" d="M187.929,289.444a1.029,1.029,0,0,0,0,1.949,3.728,3.728,0,0,0,3.374,0,1.029,1.029,0,0,0,0-1.949A3.728,3.728,0,0,0,187.929,289.444Z"/><ellipse class="cls-4" cx="180.243" cy="285.007" rx="2.386" ry="1.378"/><path class="cls-4" d="M169.182,278.621a1.028,1.028,0,0,0,0,1.948,3.73,3.73,0,0,0,3.375,0,1.028,1.028,0,0,0,0-1.948A3.73,3.73,0,0,0,169.182,278.621Z"/><path class="cls-4" d="M159.81,273.21a1.028,1.028,0,0,0,0,1.948,3.728,3.728,0,0,0,3.374,0,1.028,1.028,0,0,0,0-1.948A3.728,3.728,0,0,0,159.81,273.21Z"/><path class="cls-4" d="M220.734,319.208a1.028,1.028,0,0,0,0,1.948,3.73,3.73,0,0,0,3.375,0,1.028,1.028,0,0,0,0-1.948A3.73,3.73,0,0,0,220.734,319.208Z"/><path class="cls-4" d="M211.361,313.8a1.029,1.029,0,0,0,0,1.949,3.73,3.73,0,0,0,3.375,0,1.029,1.029,0,0,0,0-1.949A3.73,3.73,0,0,0,211.361,313.8Z"/><path class="cls-4" d="M201.988,308.385a1.028,1.028,0,0,0,0,1.948,3.73,3.73,0,0,0,3.375,0,1.028,1.028,0,0,0,0-1.948A3.73,3.73,0,0,0,201.988,308.385Z"/><path class="cls-4" d="M192.615,302.973a1.028,1.028,0,0,0,0,1.948,3.73,3.73,0,0,0,3.375,0,1.028,1.028,0,0,0,0-1.948A3.73,3.73,0,0,0,192.615,302.973Z"/><path class="cls-4" d="M183.242,297.562a1.028,1.028,0,0,0,0,1.948,3.73,3.73,0,0,0,3.375,0,1.028,1.028,0,0,0,0-1.948A3.73,3.73,0,0,0,183.242,297.562Z"/><path class="cls-4" d="M173.869,292.15a1.028,1.028,0,0,0,0,1.948,3.73,3.73,0,0,0,3.375,0,1.028,1.028,0,0,0,0-1.948A3.73,3.73,0,0,0,173.869,292.15Z"/><path class="cls-4" d="M164.5,286.739a1.028,1.028,0,0,0,0,1.948,3.728,3.728,0,0,0,3.374,0,1.028,1.028,0,0,0,0-1.948A3.722,3.722,0,0,0,164.5,286.739Z"/><path class="cls-4" d="M155.123,281.327a1.028,1.028,0,0,0,0,1.948,3.73,3.73,0,0,0,3.375,0,1.028,1.028,0,0,0,0-1.948A3.73,3.73,0,0,0,155.123,281.327Z"/><ellipse class="cls-4" cx="217.735" cy="328.299" rx="2.386" ry="1.378"/><path class="cls-4" d="M206.675,321.913a1.029,1.029,0,0,0,0,1.949,3.728,3.728,0,0,0,3.374,0,1.029,1.029,0,0,0,0-1.949A3.735,3.735,0,0,0,206.675,321.913Z"/><path class="cls-4" d="M197.3,316.5a1.028,1.028,0,0,0,0,1.948,3.728,3.728,0,0,0,3.374,0,1.028,1.028,0,0,0,0-1.948A3.728,3.728,0,0,0,197.3,316.5Z"/><path class="cls-4" d="M187.929,311.091a1.028,1.028,0,0,0,0,1.948,3.728,3.728,0,0,0,3.374,0,1.028,1.028,0,0,0,0-1.948A3.722,3.722,0,0,0,187.929,311.091Z"/><path class="cls-4" d="M178.556,305.679a1.028,1.028,0,0,0,0,1.948,3.728,3.728,0,0,0,3.374,0,1.028,1.028,0,0,0,0-1.948A3.728,3.728,0,0,0,178.556,305.679Z"/><path class="cls-4" d="M169.182,300.267a1.029,1.029,0,0,0,0,1.949,3.73,3.73,0,0,0,3.375,0,1.029,1.029,0,0,0,0-1.949A3.737,3.737,0,0,0,169.182,300.267Z"/><path class="cls-4" d="M159.81,294.856a1.028,1.028,0,0,0,0,1.948,3.728,3.728,0,0,0,3.374,0,1.028,1.028,0,0,0,0-1.948A3.728,3.728,0,0,0,159.81,294.856Z"/><path class="cls-4" d="M150.436,289.444a1.029,1.029,0,0,0,0,1.949,3.73,3.73,0,0,0,3.375,0,1.029,1.029,0,0,0,0-1.949A3.73,3.73,0,0,0,150.436,289.444Z"/><ellipse class="cls-4" cx="142.75" cy="285.007" rx="2.386" ry="1.378"/><path class="cls-4" d="M201.988,330.031a1.028,1.028,0,0,0,0,1.948,3.73,3.73,0,0,0,3.375,0,1.028,1.028,0,0,0,0-1.948A3.73,3.73,0,0,0,201.988,330.031Z"/><path class="cls-4" d="M192.615,324.619a1.029,1.029,0,0,0,0,1.949,3.73,3.73,0,0,0,3.375,0,1.029,1.029,0,0,0,0-1.949A3.73,3.73,0,0,0,192.615,324.619Z"/><path class="cls-4" d="M183.242,319.208a1.028,1.028,0,0,0,0,1.948,3.73,3.73,0,0,0,3.375,0,1.028,1.028,0,0,0,0-1.948A3.73,3.73,0,0,0,183.242,319.208Z"/><path class="cls-4" d="M173.869,313.8a1.029,1.029,0,0,0,0,1.949,3.73,3.73,0,0,0,3.375,0,1.029,1.029,0,0,0,0-1.949A3.73,3.73,0,0,0,173.869,313.8Z"/><path class="cls-4" d="M164.5,308.385a1.028,1.028,0,0,0,0,1.948,3.728,3.728,0,0,0,3.374,0,1.028,1.028,0,0,0,0-1.948A3.728,3.728,0,0,0,164.5,308.385Z"/><path class="cls-4" d="M155.123,302.973a1.028,1.028,0,0,0,0,1.948,3.73,3.73,0,0,0,3.375,0,1.028,1.028,0,0,0,0-1.948A3.73,3.73,0,0,0,155.123,302.973Z"/><path class="cls-4" d="M145.75,297.562a1.028,1.028,0,0,0,0,1.948,3.728,3.728,0,0,0,3.374,0,1.028,1.028,0,0,0,0-1.948A3.728,3.728,0,0,0,145.75,297.562Z"/><path class="cls-4" d="M136.377,292.15a1.028,1.028,0,0,0,0,1.948,3.728,3.728,0,0,0,3.374,0,1.028,1.028,0,0,0,0-1.948A3.728,3.728,0,0,0,136.377,292.15Z"/><path class="cls-4" d="M197.3,338.148a1.029,1.029,0,0,0,0,1.949,3.728,3.728,0,0,0,3.374,0,1.029,1.029,0,0,0,0-1.949A3.728,3.728,0,0,0,197.3,338.148Z"/><path class="cls-4" d="M187.929,332.737a1.028,1.028,0,0,0,0,1.948,3.728,3.728,0,0,0,3.374,0,1.028,1.028,0,0,0,0-1.948A3.728,3.728,0,0,0,187.929,332.737Z"/><ellipse class="cls-4" cx="180.243" cy="328.299" rx="2.386" ry="1.378"/><path class="cls-4" d="M169.182,321.913a1.029,1.029,0,0,0,0,1.949,3.73,3.73,0,0,0,3.375,0,1.029,1.029,0,0,0,0-1.949A3.737,3.737,0,0,0,169.182,321.913Z"/><path class="cls-4" d="M159.81,316.5a1.028,1.028,0,0,0,0,1.948,3.728,3.728,0,0,0,3.374,0,1.028,1.028,0,0,0,0-1.948A3.728,3.728,0,0,0,159.81,316.5Z"/><path class="cls-4" d="M150.436,311.091a1.028,1.028,0,0,0,0,1.948,3.73,3.73,0,0,0,3.375,0,1.028,1.028,0,0,0,0-1.948A3.724,3.724,0,0,0,150.436,311.091Z"/><path class="cls-4" d="M141.063,305.679a1.028,1.028,0,0,0,0,1.948,3.73,3.73,0,0,0,3.375,0,1.028,1.028,0,0,0,0-1.948A3.73,3.73,0,0,0,141.063,305.679Z"/><path class="cls-4" d="M131.69,300.267a1.029,1.029,0,0,0,0,1.949,3.73,3.73,0,0,0,3.375,0,1.029,1.029,0,0,0,0-1.949A3.73,3.73,0,0,0,131.69,300.267Z"/><path class="cls-4" d="M122.317,294.856a1.028,1.028,0,0,0,0,1.948,3.73,3.73,0,0,0,3.375,0,1.028,1.028,0,0,0,0-1.948A3.73,3.73,0,0,0,122.317,294.856Z"/><path class="cls-4" d="M183.242,340.854a1.028,1.028,0,0,0,0,1.948,3.73,3.73,0,0,0,3.375,0,1.028,1.028,0,0,0,0-1.948A3.73,3.73,0,0,0,183.242,340.854Z"/><path class="cls-4" d="M173.869,335.443a1.028,1.028,0,0,0,0,1.948,3.73,3.73,0,0,0,3.375,0,1.028,1.028,0,0,0,0-1.948A3.724,3.724,0,0,0,173.869,335.443Z"/><path class="cls-4" d="M164.5,330.031a1.028,1.028,0,0,0,0,1.948,3.728,3.728,0,0,0,3.374,0,1.028,1.028,0,0,0,0-1.948A3.728,3.728,0,0,0,164.5,330.031Z"/><path class="cls-4" d="M155.123,324.619a1.029,1.029,0,0,0,0,1.949,3.73,3.73,0,0,0,3.375,0,1.029,1.029,0,0,0,0-1.949A3.73,3.73,0,0,0,155.123,324.619Z"/><path class="cls-4" d="M145.75,319.208a1.028,1.028,0,0,0,0,1.948,3.728,3.728,0,0,0,3.374,0,1.028,1.028,0,0,0,0-1.948A3.728,3.728,0,0,0,145.75,319.208Z"/><path class="cls-4" d="M136.377,313.8a1.029,1.029,0,0,0,0,1.949,3.728,3.728,0,0,0,3.374,0,1.029,1.029,0,0,0,0-1.949A3.728,3.728,0,0,0,136.377,313.8Z"/><path class="cls-4" d="M127,308.385a1.028,1.028,0,0,0,0,1.948,3.728,3.728,0,0,0,3.374,0,1.028,1.028,0,0,0,0-1.948A3.728,3.728,0,0,0,127,308.385Z"/><path class="cls-4" d="M117.631,302.973a1.028,1.028,0,0,0,0,1.948,3.728,3.728,0,0,0,3.374,0,1.028,1.028,0,0,0,0-1.948A3.728,3.728,0,0,0,117.631,302.973Z"/><path class="cls-4" d="M178.556,348.971a1.029,1.029,0,0,0,0,1.949,3.728,3.728,0,0,0,3.374,0,1.029,1.029,0,0,0,0-1.949A3.728,3.728,0,0,0,178.556,348.971Z"/><path class="cls-4" d="M169.182,343.56a1.028,1.028,0,0,0,0,1.948,3.73,3.73,0,0,0,3.375,0,1.028,1.028,0,0,0,0-1.948A3.73,3.73,0,0,0,169.182,343.56Z"/><path class="cls-4" d="M159.81,338.148a1.029,1.029,0,0,0,0,1.949,3.728,3.728,0,0,0,3.374,0,1.029,1.029,0,0,0,0-1.949A3.728,3.728,0,0,0,159.81,338.148Z"/><path class="cls-4" d="M150.436,332.737a1.028,1.028,0,0,0,0,1.948,3.73,3.73,0,0,0,3.375,0,1.028,1.028,0,0,0,0-1.948A3.73,3.73,0,0,0,150.436,332.737Z"/><ellipse class="cls-4" cx="142.75" cy="328.299" rx="2.386" ry="1.378"/><path class="cls-4" d="M131.69,321.913a1.029,1.029,0,0,0,0,1.949,3.73,3.73,0,0,0,3.375,0,1.029,1.029,0,0,0,0-1.949A3.737,3.737,0,0,0,131.69,321.913Z"/><path class="cls-4" d="M122.317,316.5a1.028,1.028,0,0,0,0,1.948,3.73,3.73,0,0,0,3.375,0,1.028,1.028,0,0,0,0-1.948A3.73,3.73,0,0,0,122.317,316.5Z"/><path class="cls-4" d="M112.944,311.091a1.028,1.028,0,0,0,0,1.948,3.73,3.73,0,0,0,3.375,0,1.028,1.028,0,0,0,0-1.948A3.724,3.724,0,0,0,112.944,311.091Z"/><path class="cls-4" d="M103.571,305.679a1.028,1.028,0,0,0,0,1.948,3.728,3.728,0,0,0,3.374,0,1.028,1.028,0,0,0,0-1.948A3.728,3.728,0,0,0,103.571,305.679Z"/><ellipse class="cls-4" cx="166.183" cy="352.651" rx="2.386" ry="1.378"/><path class="cls-4" d="M155.123,346.265a1.029,1.029,0,0,0,0,1.949,3.73,3.73,0,0,0,3.375,0,1.029,1.029,0,0,0,0-1.949A3.737,3.737,0,0,0,155.123,346.265Z"/><path class="cls-4" d="M145.75,340.854a1.028,1.028,0,0,0,0,1.948,3.728,3.728,0,0,0,3.374,0,1.028,1.028,0,0,0,0-1.948A3.728,3.728,0,0,0,145.75,340.854Z"/><path class="cls-4" d="M136.377,335.443a1.028,1.028,0,0,0,0,1.948,3.728,3.728,0,0,0,3.374,0,1.028,1.028,0,0,0,0-1.948A3.722,3.722,0,0,0,136.377,335.443Z"/><path class="cls-4" d="M127,330.031a1.028,1.028,0,0,0,0,1.948,3.728,3.728,0,0,0,3.374,0,1.028,1.028,0,0,0,0-1.948A3.728,3.728,0,0,0,127,330.031Z"/><path class="cls-4" d="M117.631,324.619a1.029,1.029,0,0,0,0,1.949,3.728,3.728,0,0,0,3.374,0,1.029,1.029,0,0,0,0-1.949A3.728,3.728,0,0,0,117.631,324.619Z"/><path class="cls-4" d="M108.257,319.208a1.028,1.028,0,0,0,0,1.948,3.73,3.73,0,0,0,3.375,0,1.028,1.028,0,0,0,0-1.948A3.73,3.73,0,0,0,108.257,319.208Z"/><path class="cls-4" d="M98.884,313.8a1.029,1.029,0,0,0,0,1.949,3.73,3.73,0,0,0,3.375,0,1.029,1.029,0,0,0,0-1.949A3.73,3.73,0,0,0,98.884,313.8Z"/><path class="cls-4" d="M159.81,359.794a1.029,1.029,0,0,0,0,1.949,3.728,3.728,0,0,0,3.374,0,1.029,1.029,0,0,0,0-1.949A3.728,3.728,0,0,0,159.81,359.794Z"/><path class="cls-4" d="M150.436,354.383a1.028,1.028,0,0,0,0,1.948,3.73,3.73,0,0,0,3.375,0,1.028,1.028,0,0,0,0-1.948A3.73,3.73,0,0,0,150.436,354.383Z"/><path class="cls-4" d="M141.063,348.971a1.029,1.029,0,0,0,0,1.949,3.73,3.73,0,0,0,3.375,0,1.029,1.029,0,0,0,0-1.949A3.73,3.73,0,0,0,141.063,348.971Z"/><ellipse class="cls-4" cx="133.378" cy="344.534" rx="2.386" ry="1.378"/><path class="cls-4" d="M122.317,338.148a1.029,1.029,0,0,0,0,1.949,3.73,3.73,0,0,0,3.375,0,1.029,1.029,0,0,0,0-1.949A3.73,3.73,0,0,0,122.317,338.148Z"/><path class="cls-4" d="M112.944,332.737a1.028,1.028,0,0,0,0,1.948,3.73,3.73,0,0,0,3.375,0,1.028,1.028,0,0,0,0-1.948A3.73,3.73,0,0,0,112.944,332.737Z"/><ellipse class="cls-4" cx="105.258" cy="328.299" rx="2.386" ry="1.378"/><path class="cls-4" d="M94.2,321.913a1.029,1.029,0,0,0,0,1.949,3.728,3.728,0,0,0,3.374,0,1.029,1.029,0,0,0,0-1.949A3.735,3.735,0,0,0,94.2,321.913Z"/><path class="cls-4" d="M84.825,316.5a1.028,1.028,0,0,0,0,1.948,3.728,3.728,0,0,0,3.374,0,1.028,1.028,0,0,0,0-1.948A3.728,3.728,0,0,0,84.825,316.5Z"/><path class="cls-4" d="M145.75,362.5a1.028,1.028,0,0,0,0,1.948,3.722,3.722,0,0,0,3.374,0,1.028,1.028,0,0,0,0-1.948A3.728,3.728,0,0,0,145.75,362.5Z"/><path class="cls-4" d="M136.377,357.089a1.028,1.028,0,0,0,0,1.948,3.728,3.728,0,0,0,3.374,0,1.028,1.028,0,0,0,0-1.948A3.728,3.728,0,0,0,136.377,357.089Z"/><ellipse class="cls-4" cx="128.691" cy="352.651" rx="2.386" ry="1.378"/><path class="cls-4" d="M117.631,346.265a1.029,1.029,0,0,0,0,1.949,3.728,3.728,0,0,0,3.374,0,1.029,1.029,0,0,0,0-1.949A3.735,3.735,0,0,0,117.631,346.265Z"/><path class="cls-4" d="M108.257,340.854a1.028,1.028,0,0,0,0,1.948,3.73,3.73,0,0,0,3.375,0,1.028,1.028,0,0,0,0-1.948A3.73,3.73,0,0,0,108.257,340.854Z"/><ellipse class="cls-4" cx="100.572" cy="336.417" rx="2.386" ry="1.378"/><path class="cls-4" d="M89.511,330.031a1.028,1.028,0,0,0,0,1.948,3.73,3.73,0,0,0,3.375,0,1.028,1.028,0,0,0,0-1.948A3.73,3.73,0,0,0,89.511,330.031Z"/><path class="cls-4" d="M80.138,324.619a1.029,1.029,0,0,0,0,1.949,3.73,3.73,0,0,0,3.375,0,1.029,1.029,0,0,0,0-1.949A3.73,3.73,0,0,0,80.138,324.619Z"/><path class="cls-4" d="M141.063,370.617a1.029,1.029,0,0,0,0,1.949,3.73,3.73,0,0,0,3.375,0,1.029,1.029,0,0,0,0-1.949A3.737,3.737,0,0,0,141.063,370.617Z"/><path class="cls-4" d="M131.69,365.206a1.028,1.028,0,0,0,0,1.948,3.73,3.73,0,0,0,3.375,0,1.028,1.028,0,0,0,0-1.948A3.73,3.73,0,0,0,131.69,365.206Z"/><ellipse class="cls-4" cx="124.004" cy="360.769" rx="2.386" ry="1.378"/><path class="cls-4" d="M112.944,354.383a1.028,1.028,0,0,0,0,1.948,3.73,3.73,0,0,0,3.375,0,1.028,1.028,0,0,0,0-1.948A3.73,3.73,0,0,0,112.944,354.383Z"/><path class="cls-4" d="M103.571,348.971a1.029,1.029,0,0,0,0,1.949,3.728,3.728,0,0,0,3.374,0,1.029,1.029,0,0,0,0-1.949A3.728,3.728,0,0,0,103.571,348.971Z"/><path class="cls-4" d="M94.2,343.56a1.028,1.028,0,0,0,0,1.948,3.728,3.728,0,0,0,3.374,0,1.028,1.028,0,0,0,0-1.948A3.728,3.728,0,0,0,94.2,343.56Z"/><path class="cls-4" d="M84.825,338.148a1.029,1.029,0,0,0,0,1.949,3.728,3.728,0,0,0,3.374,0,1.029,1.029,0,0,0,0-1.949A3.728,3.728,0,0,0,84.825,338.148Z"/><path class="cls-4" d="M75.452,332.737a1.028,1.028,0,0,0,0,1.948,3.728,3.728,0,0,0,3.374,0,1.028,1.028,0,0,0,0-1.948A3.728,3.728,0,0,0,75.452,332.737Z"/><ellipse class="cls-4" cx="67.766" cy="328.299" rx="2.386" ry="1.378"/><path class="cls-4" d="M127,373.323a1.029,1.029,0,0,0,0,1.949,3.728,3.728,0,0,0,3.374,0,1.029,1.029,0,0,0,0-1.949A3.728,3.728,0,0,0,127,373.323Z"/><ellipse class="cls-4" cx="119.318" cy="368.886" rx="2.386" ry="1.378"/><path class="cls-4" d="M108.257,362.5a1.028,1.028,0,0,0,0,1.948,3.724,3.724,0,0,0,3.375,0,1.028,1.028,0,0,0,0-1.948A3.73,3.73,0,0,0,108.257,362.5Z"/><path class="cls-4" d="M98.884,357.089a1.028,1.028,0,0,0,0,1.948,3.73,3.73,0,0,0,3.375,0,1.028,1.028,0,0,0,0-1.948A3.73,3.73,0,0,0,98.884,357.089Z"/><ellipse class="cls-4" cx="91.199" cy="352.651" rx="2.386" ry="1.378"/><path class="cls-4" d="M80.138,346.265a1.029,1.029,0,0,0,0,1.949,3.73,3.73,0,0,0,3.375,0,1.029,1.029,0,0,0,0-1.949A3.737,3.737,0,0,0,80.138,346.265Z"/><path class="cls-4" d="M70.765,340.854a1.028,1.028,0,0,0,0,1.948,3.73,3.73,0,0,0,3.375,0,1.028,1.028,0,0,0,0-1.948A3.73,3.73,0,0,0,70.765,340.854Z"/><ellipse class="cls-4" cx="63.079" cy="336.417" rx="2.386" ry="1.378"/><path class="cls-4" d="M122.317,381.441a1.028,1.028,0,0,0,0,1.948,3.73,3.73,0,0,0,3.375,0,1.028,1.028,0,0,0,0-1.948A3.73,3.73,0,0,0,122.317,381.441Z"/><ellipse class="cls-4" cx="114.631" cy="377.003" rx="2.386" ry="1.378"/><path class="cls-4" d="M103.571,370.617a1.029,1.029,0,0,0,0,1.949,3.728,3.728,0,0,0,3.374,0,1.029,1.029,0,0,0,0-1.949A3.735,3.735,0,0,0,103.571,370.617Z"/><path class="cls-4" d="M94.2,365.206a1.028,1.028,0,0,0,0,1.948,3.728,3.728,0,0,0,3.374,0,1.028,1.028,0,0,0,0-1.948A3.728,3.728,0,0,0,94.2,365.206Z"/><ellipse class="cls-4" cx="86.512" cy="360.769" rx="2.386" ry="1.378"/><path class="cls-4" d="M75.452,354.383a1.028,1.028,0,0,0,0,1.948,3.728,3.728,0,0,0,3.374,0,1.028,1.028,0,0,0,0-1.948A3.728,3.728,0,0,0,75.452,354.383Z"/><path class="cls-4" d="M66.079,348.971a1.029,1.029,0,0,0,0,1.949,3.728,3.728,0,0,0,3.374,0,1.029,1.029,0,0,0,0-1.949A3.728,3.728,0,0,0,66.079,348.971Z"/><ellipse class="cls-4" cx="58.393" cy="344.534" rx="2.386" ry="1.378"/><path class="cls-4" d="M47.333,338.148a1.029,1.029,0,0,0,0,1.949,3.728,3.728,0,0,0,3.374,0,1.029,1.029,0,0,0,0-1.949A3.728,3.728,0,0,0,47.333,338.148Z"/><polygon class="cls-4" points="169.812 258.655 25.789 341.808 22.125 339.693 169.812 254.425 263.376 308.445 259.712 310.56 169.812 258.655"/><polygon class="cls-1" points="169.812 254.425 169.812 258.655 259.712 310.56 263.376 308.445 169.812 254.425"/><path class="cls-4" d="M115.689,405.921V599.989l168.839-97.48V308.441Z"/><path class="cls-1" d="M139.49,566.6a15.964,15.964,0,0,1-7.239,12.5c-4,2.308-7.239.454-7.239-4.141a15.964,15.964,0,0,1,7.239-12.5C136.249,560.155,139.49,562.009,139.49,566.6Z"/><path class="cls-5" d="M137.519,567.742a11.614,11.614,0,0,1-5.268,9.1c-2.91,1.68-5.268.331-5.268-3.013a11.618,11.618,0,0,1,5.268-9.1C135.161,563.048,137.519,564.4,137.519,567.742Z"/><path class="cls-2" d="M132.251,564.728a8.524,8.524,0,0,0-1.347,1c.149-.105.3-.222.448-.311,2.314-1.335,4.189-.262,4.189,2.4a9.239,9.239,0,0,1-4.189,7.234c-2.314,1.336-4.19.263-4.19-2.4a6.158,6.158,0,0,1,.055-.654,8.486,8.486,0,0,0-.234,1.824c0,3.345,2.358,4.694,5.268,3.014a11.616,11.616,0,0,0,5.268-9.1C137.519,564.4,135.161,563.048,132.251,564.728Z"/><path class="cls-1" d="M280.605,485.14a15.963,15.963,0,0,1-7.24,12.5c-4,2.308-7.239.454-7.239-4.141a15.966,15.966,0,0,1,7.239-12.5C277.364,478.69,280.605,480.544,280.605,485.14Z"/><path class="cls-5" d="M278.634,486.278a11.618,11.618,0,0,1-5.269,9.1c-2.909,1.68-5.268.33-5.268-3.014a11.62,11.62,0,0,1,5.268-9.1C276.275,481.584,278.634,482.933,278.634,486.278Z"/><path class="cls-2" d="M273.366,483.264a8.471,8.471,0,0,0-1.347,1c.149-.1.294-.221.447-.31,2.314-1.336,4.19-.263,4.19,2.4a9.236,9.236,0,0,1-4.19,7.234c-2.314,1.336-4.19.263-4.19-2.4a6.136,6.136,0,0,1,.055-.654,8.533,8.533,0,0,0-.234,1.824c0,3.344,2.359,4.694,5.269,3.014a11.62,11.62,0,0,0,5.268-9.1C278.634,482.933,276.275,481.584,273.366,483.264Z"/><path class="cls-1" d="M139.49,411.346a15.964,15.964,0,0,1-7.239,12.5c-4,2.309-7.239.454-7.239-4.141a15.966,15.966,0,0,1,7.239-12.5C136.249,404.9,139.49,406.75,139.49,411.346Z"/><path class="cls-5" d="M137.519,412.484a11.617,11.617,0,0,1-5.268,9.1c-2.91,1.68-5.268.33-5.268-3.014a11.617,11.617,0,0,1,5.268-9.1C135.161,407.79,137.519,409.139,137.519,412.484Z"/><path class="cls-2" d="M132.251,409.47a8.456,8.456,0,0,0-1.347,1c.149-.1.3-.222.448-.31,2.314-1.336,4.189-.263,4.189,2.4a9.242,9.242,0,0,1-4.189,7.235c-2.314,1.335-4.19.262-4.19-2.4a6.136,6.136,0,0,1,.055-.654,8.47,8.47,0,0,0-.234,1.824c0,3.344,2.358,4.694,5.268,3.014a11.617,11.617,0,0,0,5.268-9.1C137.519,409.139,135.161,407.79,132.251,409.47Z"/><path class="cls-1" d="M280.605,329.881a15.964,15.964,0,0,1-7.24,12.5c-4,2.308-7.239.454-7.239-4.142a15.964,15.964,0,0,1,7.239-12.5C277.364,323.431,280.605,325.286,280.605,329.881Z"/><path class="cls-5" d="M278.634,331.019a11.618,11.618,0,0,1-5.269,9.1c-2.909,1.68-5.268.331-5.268-3.013a11.62,11.62,0,0,1,5.268-9.1C276.275,326.325,278.634,327.675,278.634,331.019Z"/><path class="cls-2" d="M273.366,328.005a8.479,8.479,0,0,0-1.347,1c.149-.1.294-.222.447-.311,2.314-1.335,4.19-.262,4.19,2.4a9.24,9.24,0,0,1-4.19,7.235c-2.314,1.336-4.19.263-4.19-2.4a6.158,6.158,0,0,1,.055-.654,8.549,8.549,0,0,0-.234,1.824c0,3.345,2.359,4.694,5.269,3.014a11.62,11.62,0,0,0,5.268-9.1C278.634,327.675,276.275,326.325,273.366,328.005Z"/><path class="cls-2" d="M8.628,483.8V520.87A5.225,5.225,0,0,0,11,524.961l25.93,14.971,40.407,23.329c1.309.755,2.37.148,2.37-1.355V524.839a5.226,5.226,0,0,0-2.37-4.091L36.927,497.419,11,482.448C9.689,481.693,8.628,482.3,8.628,483.8Zm4.738,37.079v-31.62L34.558,501.5v31.62Z"/><path class="cls-4" d="M50.321,514.582,43,518.772a1.043,1.043,0,0,0-.438.961V532.54a3.294,3.294,0,0,0,1.494,2.58l26.154,15.1c.825.476,1.494.094,1.494-.855V536.558a3.043,3.043,0,0,0-.438-1.467L63.94,522.445a3.063,3.063,0,0,0-1.056-1.113l-11.506-6.643A1.06,1.06,0,0,0,50.321,514.582Z"/><path class="cls-5" d="M63.94,522.445a3.063,3.063,0,0,0-1.056-1.113l-11.506-6.643a1.06,1.06,0,0,0-1.057-.107l-.6.344a1.071,1.071,0,0,0-.374.89v12.807a3.293,3.293,0,0,0,1.493,2.58L71.7,543.249v-6.691a3.041,3.041,0,0,0-.437-1.467Z"/><path class="cls-4" d="M35.406,500.028,14.215,487.793a1.7,1.7,0,0,0-2.544,1.469v31.621a1.7,1.7,0,0,0,.848,1.469L33.71,534.587a1.7,1.7,0,0,0,2.544-1.469V501.5A1.7,1.7,0,0,0,35.406,500.028Z"/><polygon class="cls-6" points="33.67 502.3 33.67 531.291 14.255 520.081 14.255 491.091 33.67 502.3"/><polygon class="cls-7" points="26.885 506.217 7.47 495.007 14.255 491.091 33.67 502.3 26.885 506.217"/><polygon class="cls-8" points="33.67 516.795 14.255 505.586 7.47 495.007 26.885 506.217 33.67 516.795"/><polygon class="cls-9" points="26.885 506.217 33.67 516.795 33.67 502.3 26.885 506.217"/><polygon class="cls-10" points="52.564 533.679 49.374 531.837 49.374 525.387 52.564 527.229 52.564 533.679"/><polygon class="cls-11" points="56.158 521.47 49.374 525.387 52.564 527.229 59.349 523.312 56.158 521.47"/><polygon class="cls-12" points="52.564 533.679 59.349 529.763 59.349 523.312 52.564 527.229 52.564 533.679"/><polygon class="cls-10" points="58.726 531.736 55.535 529.894 55.535 523.443 58.726 525.286 58.726 531.736"/><path class="cls-11" d="M65.51,527.819v-2.663l-1.57-2.711a3.063,3.063,0,0,0-1.056-1.113l-1.846-1.066-5.5,3.177,3.191,1.843Z"/><path class="cls-12" d="M65.51,525.156l-1.57-2.711c-.025-.044-.061-.076-.088-.119l-5.126,2.96v6.45l6.784-3.917Z"/><polygon class="cls-10" points="64.888 540.794 61.697 538.952 61.697 532.502 64.888 534.344 64.888 540.794"/><polygon class="cls-11" points="67.743 529.011 61.697 532.502 64.888 534.344 69.342 531.773 67.743 529.011"/><path class="cls-12" d="M71.673,536.374a3.114,3.114,0,0,0-.409-1.283l-1.922-3.318-4.454,2.571v6.45l6.785-3.917Z"/><path class="cls-4" d="M8.586,370.889c-.616-.356-1.116-.071-1.116.638V443.59a2.459,2.459,0,0,0,1.116,1.926c.616.356,1.115.07,1.115-.638V372.815A2.458,2.458,0,0,0,8.586,370.889Z"/><path class="cls-4" d="M12.1,372.92c-.616-.356-1.115-.07-1.115.638v72.063a2.46,2.46,0,0,0,1.115,1.927c.617.356,1.116.07,1.116-.638V374.846A2.458,2.458,0,0,0,12.1,372.92Z"/><path class="cls-4" d="M15.623,374.951c-.616-.356-1.116-.07-1.116.638v72.064a2.461,2.461,0,0,0,1.116,1.926c.616.356,1.115.07,1.115-.638V376.878A2.46,2.46,0,0,0,15.623,374.951Z"/><path class="cls-4" d="M19.141,376.982c-.616-.355-1.116-.07-1.116.639v72.063a2.459,2.459,0,0,0,1.116,1.926c.616.356,1.115.07,1.115-.638V378.909A2.462,2.462,0,0,0,19.141,376.982Z"/><path class="cls-4" d="M22.659,379.014c-.616-.356-1.115-.07-1.115.638v72.063a2.46,2.46,0,0,0,1.115,1.927c.616.355,1.116.07,1.116-.639V380.94A2.459,2.459,0,0,0,22.659,379.014Z"/><path class="cls-4" d="M26.177,381.045c-.616-.356-1.115-.07-1.115.638v72.064a2.46,2.46,0,0,0,1.115,1.926c.617.356,1.116.07,1.116-.638V382.971A2.458,2.458,0,0,0,26.177,381.045Z"/><path class="cls-4" d="M29.7,383.076c-.616-.356-1.116-.07-1.116.639v72.063A2.459,2.459,0,0,0,29.7,457.7c.616.356,1.115.07,1.115-.638V385A2.46,2.46,0,0,0,29.7,383.076Z"/><path class="cls-4" d="M33.214,385.108c-.616-.356-1.116-.07-1.116.638v72.063a2.458,2.458,0,0,0,1.116,1.926c.616.356,1.116.071,1.116-.638V387.034A2.459,2.459,0,0,0,33.214,385.108Z"/><path class="cls-4" d="M36.732,387.139c-.616-.356-1.115-.07-1.115.638v72.064a2.46,2.46,0,0,0,1.115,1.926c.616.356,1.116.07,1.116-.639V389.065A2.459,2.459,0,0,0,36.732,387.139Z"/><path class="cls-4" d="M40.251,389.17c-.616-.356-1.116-.07-1.116.638v72.064a2.461,2.461,0,0,0,1.116,1.926c.616.356,1.115.07,1.115-.638V391.1A2.46,2.46,0,0,0,40.251,389.17Z"/><path class="cls-4" d="M43.769,391.2c-.616-.355-1.116-.07-1.116.639V463.9a2.459,2.459,0,0,0,1.116,1.926c.616.356,1.115.07,1.115-.638V393.128A2.462,2.462,0,0,0,43.769,391.2Z"/></g><g id="arrow_event_critycal"><path class="cls-13" d="M163.106,89.919V101.78l29.419.008-49.776,49.758L92.976,101.788l29.153-.008V89.919Zm0-10.65V60.614H122.129V79.269Zm0-29.3V38.638H122.129V49.967Zm0-21.978V21.546H122.129v6.443Z"/></g></svg>