<svg xmlns="http://www.w3.org/2000/svg"
    xmlns:xlink="http://www.w3.org/1999/xlink" viewBox="0 0 180.113 600">
    <defs>
        <style>.cls-1{fill:#a49d96;}.cls-2{fill:#e6e1dd;}.cls-3{fill:#dedede;}.cls-4{fill:#d7d1c7;}.cls-5{fill:#584a44;}.cls-6{fill:#090909;}.cls-7{fill:#362d2a;}.cls-8{fill:#0a0b0b;}.cls-9{fill:#82cddf;}.cls-10{fill:#c94130;}.cls-11{fill:url(#Degradado_sin_nombre_91);}</style>
        <linearGradient id="Degradado_sin_nombre_91" x1="90.056" y1="151.546" x2="90.056" y2="21.546" gradientUnits="userSpaceOnUse">
            <stop offset="0" stop-color="#bdb219"/>
            <stop offset="0.997" stop-color="#ffed00"/>
        </linearGradient>
    </defs>
    <g id="Capa_1" data-name="Capa 1">
        <polygon class="cls-1" points="179.645 564.26 117.771 600 115.676 595.053 116.786 447.455 117.771 443.51 179.645 407.765 179.645 564.26"/>
        <polygon class="cls-2" points="179.645 407.765 117.771 443.51 113.213 442.8 4.599 380.351 0.467 375.78 62.346 340.044 179.645 407.765"/>
        <path class="cls-3" d="M.467,375.78V532.271L117.771,600V443.51Z"/>
        <polygon class="cls-1" points="144.159 387.282 119.663 401.425 118.839 399.465 119.274 314.822 119.663 313.259 144.159 299.112 144.159 387.282"/>
        <polygon class="cls-2" points="144.159 299.112 119.663 313.259 117.86 312.98 74.862 288.261 73.228 286.453 97.728 272.302 144.159 299.112"/>
        <polygon class="cls-1" points="138.406 298.082 117.885 309.939 78.985 287.484 99.506 275.627 138.406 298.082"/>
        <path class="cls-4" d="M73.228,286.453v88.161l46.435,26.811V313.259Z"/>
        <path class="cls-2" d="M97.731,474.747l2.281-1.315-40.906-45.07L56.825,451.13Z"/>
        <path class="cls-1" d="M63.7,440.437l-4.6-12.075-2.281,1.316V451.13l2.281-1.32Z"/>
        <path class="cls-4" d="M100.012,473.432V451.981L59.106,428.362V449.81Z"/>
        <path class="cls-2" d="M97.731,496.919l2.281-1.315L59.106,450.535,56.825,473.3Z"/>
        <path class="cls-1" d="M63.7,462.607l-4.6-12.072-2.281,1.315V473.3l2.281-1.318Z"/>
        <path class="cls-4" d="M100.012,495.6V474.153L59.106,450.535v21.447Z"/>
        <path class="cls-5" d="M93.368,488.913l1.14-.653L66.95,456.892,65.8,473Z"/>
        <path class="cls-6" d="M75.242,469.987l-8.292-13.1-1.153.652V473l1.153-.652Z"/>
        <path class="cls-7" d="M94.508,488.26V472.8L66.95,456.892v15.456Z"/>
        <polygon class="cls-8" points="68.779 462.907 68.779 460.102 93.419 474.335 93.419 485.603 91.002 484.211 84.201 476.509 68.779 462.907"/>
        <polygon class="cls-9" points="68.779 471.374 68.779 462.907 91.002 475.731 91.002 484.211 68.779 471.374"/>
        <path class="cls-2" d="M97.731,519.092l2.281-1.318L59.106,472.707l-2.281,22.766Z"/>
        <path class="cls-1" d="M63.7,484.779l-4.6-12.072-2.281,1.316v21.45l2.281-1.318Z"/>
        <path class="cls-4" d="M100.012,517.774v-21.45L59.106,472.707v21.448Z"/>
        <path class="cls-2" d="M97.731,549.474l2.281-1.318L59.106,494.875l-2.281,30.977Z"/>
        <path class="cls-1" d="M63.7,506.952l-4.6-12.077-2.281,1.318v29.659l2.281-1.315Z"/>
        <path class="cls-4" d="M100.012,548.156V518.5L59.106,494.875v29.662Z"/>
        <polygon class="cls-10" points="85.139 529.468 78.03 525.365 78.03 529.371 85.139 533.477 85.139 529.468"/>
        <polygon class="cls-10" points="77.071 528.818 77.071 524.811 73.979 523.024 73.979 527.031 77.071 528.818"/>
    </g>
    <g id="arrow_event_critycal">
        <animateTransform attributeName="transform" attributeType="XML" type="translate" from="0 0" to="0 75" dur="1.5s" repeatCount="indefinite" />
        <path class="cls-11" d="M110.412,89.919V101.78l29.419.008L90.054,151.546,40.282,101.788l29.153-.008V89.919Zm0-10.65V60.614H69.435V79.269Zm0-29.3V38.638H69.435V49.967Zm0-21.978V21.546H69.435v6.443Z"/>
    </g>
</svg>