<svg xmlns="http://www.w3.org/2000/svg" xmlns:xlink="http://www.w3.org/1999/xlink" viewBox="0 0 380.636 600"><defs><style>.cls-1{opacity:0.6;filter:url(#luminosity-invert-noclip);}.cls-2{fill:#bdbec0;}.cls-3{fill:#797306;}.cls-4{mask:url(#mask);}.cls-5{fill:#a59908;}.cls-6{fill:#4b4800;}.cls-7{fill:#3d3e3e;}.cls-8{fill:#5dc5f0;}.cls-9{fill:#231f20;}.cls-10{fill:url(#Degradado_sin_nombre_91);}</style><filter id="luminosity-invert-noclip" x="81.205" y="293.847" width="298.489" height="306.141" filterUnits="userSpaceOnUse" color-interpolation-filters="sRGB"><feColorMatrix values="-1 0 0 0 1 0 -1 0 0 1 0 0 -1 0 1 0 0 0 1 0" result="invert"/><feFlood flood-color="#fff" result="bg"/><feBlend in="invert" in2="bg"/></filter><mask id="mask" x="81.205" y="293.847" width="298.489" height="306.141" maskUnits="userSpaceOnUse"><g class="cls-1"><polygon class="cls-2" points="99.518 476.612 364.552 321.664 364.552 327.86 99.518 482.648 99.518 476.612"/><polygon class="cls-2" points="99.518 491.001 364.552 336.052 364.552 342.249 99.518 497.038 99.518 491.001"/><polygon class="cls-2" points="99.518 505.39 364.552 350.441 364.552 356.638 99.518 511.427 99.518 505.39"/><polygon class="cls-2" points="99.518 519.779 364.552 364.83 364.552 371.026 99.518 525.815 99.518 519.779"/></g></mask><linearGradient id="Degradado_sin_nombre_91" x1="190.318" y1="151.546" x2="190.318" y2="21.546" gradientUnits="userSpaceOnUse"><stop offset="0" stop-color="#bdb219"/><stop offset="0.997" stop-color="#ffed00"/></linearGradient></defs><g id="Capa_1" data-name="Capa 1"><polygon class="cls-3" points="81.206 464.46 81.206 600 0.917 557.455 0.917 421.916 81.206 464.46"/><g class="cls-4"><polygon class="cls-5" points="81.205 464.476 81.205 599.988 379.694 429.36 379.694 293.847 81.205 464.476"/></g><polygon class="cls-6" points="379.718 293.832 299.429 251.3 0.917 421.916 81.206 464.46 379.718 293.832"/><polygon class="cls-7" points="81.205 552.66 81.205 599.988 379.694 429.36 379.694 378.941 81.205 552.66"/><path class="cls-8" d="M238.828,482.763v8.151c0,1.138.82,1.594,1.867,1.047l27.5-15.892a4.149,4.149,0,0,0,1.822-3.142l-.045-8.151c0-1.184-.82-1.64-1.822-1.047l-24.59,14.161-2.914,1.685A4.08,4.08,0,0,0,238.828,482.763Z"/><polygon class="cls-9" points="81.205 552.66 72.168 547.436 72.168 595.211 81.205 599.988 81.205 552.66"/></g><g id="arrow_event_critycal"><path class="cls-10" d="M210.674,89.919V101.78l29.418.008-49.776,49.758-49.773-49.758,29.153-.008V89.919Zm0-10.65V60.614H169.7V79.269Zm0-29.3V38.638H169.7V49.967Zm0-21.978V21.546H169.7v6.443Z"/></g></svg>