<svg xmlns="http://www.w3.org/2000/svg" xmlns:xlink="http://www.w3.org/1999/xlink" viewBox="0 0 258.268 600"><defs><style>.cls-1{fill:#272e31;}.cls-2{fill:#ddeff1;}.cls-3{fill:#3761ab;}.cls-10,.cls-11,.cls-12,.cls-13,.cls-14,.cls-24,.cls-25,.cls-26,.cls-27,.cls-28,.cls-31,.cls-32,.cls-33,.cls-34,.cls-35,.cls-36,.cls-37,.cls-38,.cls-39,.cls-4,.cls-40,.cls-41,.cls-42,.cls-43,.cls-44,.cls-45,.cls-46,.cls-47,.cls-48,.cls-49,.cls-5,.cls-50,.cls-51,.cls-52,.cls-53,.cls-54,.cls-55,.cls-56,.cls-57,.cls-58,.cls-59,.cls-6,.cls-60,.cls-61,.cls-62,.cls-63,.cls-64,.cls-66,.cls-67,.cls-68,.cls-69,.cls-7,.cls-70,.cls-71,.cls-72,.cls-73,.cls-74,.cls-75,.cls-76,.cls-77,.cls-78,.cls-79,.cls-8,.cls-80,.cls-81,.cls-82,.cls-83,.cls-84,.cls-85,.cls-86,.cls-87,.cls-88{mix-blend-mode:color-dodge;}.cls-4{fill:url(#radial-gradient);}.cls-5{fill:url(#radial-gradient-2);}.cls-6{fill:url(#radial-gradient-3);}.cls-7{fill:url(#radial-gradient-4);}.cls-8{fill:url(#radial-gradient-5);}.cls-9{fill:#e41f1c;}.cls-10{fill:url(#radial-gradient-6);}.cls-11{fill:url(#radial-gradient-7);}.cls-12{fill:url(#radial-gradient-8);}.cls-13{fill:url(#radial-gradient-9);}.cls-14{fill:url(#radial-gradient-10);}.cls-15{fill:#101315;}.cls-16{isolation:isolate;}.cls-17{fill:#232a2b;}.cls-18{fill:#1c2123;}.cls-19{fill:#121618;}.cls-20{fill:#181d1f;}.cls-21{fill:#353e42;}.cls-22{fill:#d6d7d7;}.cls-23{mask:url(#mask);}.cls-24{fill:url(#radial-gradient-11);}.cls-25{fill:url(#radial-gradient-12);}.cls-26{fill:url(#radial-gradient-13);}.cls-27{fill:url(#radial-gradient-14);}.cls-28{fill:url(#radial-gradient-15);}.cls-29{fill:#090914;}.cls-30{fill:#64b32e;}.cls-31{fill:url(#radial-gradient-16);}.cls-32{fill:url(#radial-gradient-17);}.cls-33{fill:url(#radial-gradient-18);}.cls-34{fill:url(#radial-gradient-19);}.cls-35{fill:url(#radial-gradient-20);}.cls-36{fill:url(#radial-gradient-21);}.cls-37{fill:url(#radial-gradient-22);}.cls-38{fill:url(#radial-gradient-23);}.cls-39{fill:url(#radial-gradient-24);}.cls-40{fill:url(#radial-gradient-25);}.cls-41{fill:url(#radial-gradient-26);}.cls-42{fill:url(#radial-gradient-27);}.cls-43{fill:url(#radial-gradient-28);}.cls-44{fill:url(#radial-gradient-29);}.cls-45{fill:url(#radial-gradient-30);}.cls-46{fill:url(#radial-gradient-31);}.cls-47{fill:url(#radial-gradient-32);}.cls-48{fill:url(#radial-gradient-33);}.cls-49{fill:url(#radial-gradient-34);}.cls-50{fill:url(#radial-gradient-35);}.cls-51{fill:url(#radial-gradient-36);}.cls-52{fill:url(#radial-gradient-37);}.cls-53{fill:url(#radial-gradient-38);}.cls-54{fill:url(#radial-gradient-39);}.cls-55{fill:url(#radial-gradient-40);}.cls-56{fill:url(#radial-gradient-41);}.cls-57{fill:url(#radial-gradient-42);}.cls-58{fill:url(#radial-gradient-43);}.cls-59{fill:url(#radial-gradient-44);}.cls-60{fill:url(#radial-gradient-45);}.cls-61{fill:url(#radial-gradient-46);}.cls-62{fill:url(#radial-gradient-47);}.cls-63{fill:url(#radial-gradient-48);}.cls-64{fill:url(#radial-gradient-49);}.cls-65{mask:url(#mask-2);}.cls-66{fill:url(#radial-gradient-50);}.cls-67{fill:url(#radial-gradient-51);}.cls-68{fill:url(#radial-gradient-52);}.cls-69{fill:url(#radial-gradient-53);}.cls-70{fill:url(#radial-gradient-54);}.cls-71{fill:url(#radial-gradient-55);}.cls-72{fill:url(#radial-gradient-56);}.cls-73{fill:url(#radial-gradient-57);}.cls-74{fill:url(#radial-gradient-58);}.cls-75{fill:url(#radial-gradient-59);}.cls-76{fill:url(#radial-gradient-60);}.cls-77{fill:url(#radial-gradient-61);}.cls-78{fill:url(#radial-gradient-62);}.cls-79{fill:url(#radial-gradient-63);}.cls-80{fill:url(#radial-gradient-64);}.cls-81{fill:url(#radial-gradient-65);}.cls-82{fill:url(#radial-gradient-66);}.cls-83{fill:url(#radial-gradient-67);}.cls-84{fill:url(#radial-gradient-68);}.cls-85{fill:url(#radial-gradient-69);}.cls-86{fill:url(#radial-gradient-70);}.cls-87{fill:url(#radial-gradient-71);}.cls-88{fill:url(#radial-gradient-72);}.cls-89{fill:url(#Degradado_sin_nombre_91);}.cls-90{filter:url(#luminosity-invert-noclip-2);}.cls-91{filter:url(#luminosity-invert-noclip);}</style><radialGradient id="radial-gradient" cx="492.98" cy="-842.571" r="12.579" gradientTransform="matrix(0.866, 0.5, 0, 1, -290.384, 1083.725)" gradientUnits="userSpaceOnUse"><stop offset="0.091" stop-color="#3258a4"/><stop offset="0.273" stop-color="#244077"/><stop offset="0.502" stop-color="#152544"/><stop offset="0.703" stop-color="#0a1120"/><stop offset="0.865" stop-color="#030509"/><stop offset="0.968" stop-color="#010101"/></radialGradient><radialGradient id="radial-gradient-2" cx="30250.437" cy="-842.085" r="4.553" gradientTransform="matrix(0.119, 0.069, 0, 1, -3463.264, -748.474)" gradientUnits="userSpaceOnUse"><stop offset="0.237" stop-color="#3258a4"/><stop offset="0.388" stop-color="#244077"/><stop offset="0.579" stop-color="#152544"/><stop offset="0.747" stop-color="#0a1120"/><stop offset="0.882" stop-color="#030509"/><stop offset="0.968" stop-color="#010101"/></radialGradient><radialGradient id="radial-gradient-3" cx="20484.488" cy="3855.061" r="4.542" gradientTransform="matrix(0.06, -0.085, 0.75, 0.933, -3973.586, -1376.138)" xlink:href="#radial-gradient-2"/><radialGradient id="radial-gradient-4" cx="-14024.346" cy="5041.536" r="4.556" gradientTransform="matrix(-0.06, -0.153, 0.75, -0.067, -4479.064, -1324.501)" xlink:href="#radial-gradient-2"/><radialGradient id="radial-gradient-5" cx="492.982" cy="-842.571" r="1.444" gradientTransform="matrix(0.866, 0.5, 0, 1, -290.384, 1083.725)" gradientUnits="userSpaceOnUse"><stop offset="0.22" stop-color="#dbe5f6"/><stop offset="0.286" stop-color="#c2cbda"/><stop offset="0.477" stop-color="#7e848e"/><stop offset="0.647" stop-color="#494c51"/><stop offset="0.791" stop-color="#222326"/><stop offset="0.902" stop-color="#0a0a0b"/><stop offset="0.968" stop-color="#010101"/></radialGradient><radialGradient id="radial-gradient-6" cx="492.98" cy="-834.05" r="12.579" gradientTransform="matrix(0.866, 0.5, 0, 1, -290.384, 1083.725)" gradientUnits="userSpaceOnUse"><stop offset="0.091" stop-color="#de0a14"/><stop offset="0.202" stop-color="#b80811"/><stop offset="0.407" stop-color="#77060b"/><stop offset="0.593" stop-color="#440407"/><stop offset="0.755" stop-color="#200204"/><stop offset="0.885" stop-color="#090102"/><stop offset="0.968" stop-color="#010101"/></radialGradient><radialGradient id="radial-gradient-7" cx="30250.437" cy="-833.556" r="4.555" gradientTransform="matrix(0.119, 0.069, 0, 1, -3463.264, -748.474)" gradientUnits="userSpaceOnUse"><stop offset="0.237" stop-color="#e5192f"/><stop offset="0.343" stop-color="#b81426"/><stop offset="0.51" stop-color="#780d19"/><stop offset="0.662" stop-color="#44080f"/><stop offset="0.794" stop-color="#200407"/><stop offset="0.9" stop-color="#090203"/><stop offset="0.968" stop-color="#010101"/></radialGradient><radialGradient id="radial-gradient-8" cx="20430.718" cy="3859.324" r="4.552" gradientTransform="matrix(0.06, -0.085, 0.75, 0.933, -3973.586, -1376.138)" xlink:href="#radial-gradient-7"/><radialGradient id="radial-gradient-9" cx="-14078.092" cy="5037.276" r="4.545" gradientTransform="matrix(-0.06, -0.153, 0.75, -0.067, -4479.064, -1324.501)" xlink:href="#radial-gradient-7"/><radialGradient id="radial-gradient-10" cx="492.981" cy="-834.05" r="1.446" gradientTransform="matrix(0.866, 0.5, 0, 1, -290.384, 1083.725)" gradientUnits="userSpaceOnUse"><stop offset="0.22" stop-color="#ef8197"/><stop offset="0.271" stop-color="#da768a"/><stop offset="0.466" stop-color="#8e4d5a"/><stop offset="0.64" stop-color="#512c34"/><stop offset="0.787" stop-color="#261518"/><stop offset="0.901" stop-color="#0b0607"/><stop offset="0.968" stop-color="#010101"/></radialGradient><filter id="luminosity-invert-noclip" x="86.731" y="330.178" width="70.9" height="258.204" filterUnits="userSpaceOnUse" color-interpolation-filters="sRGB"><feColorMatrix values="-1 0 0 0 1 0 -1 0 0 1 0 0 -1 0 1 0 0 0 1 0" result="invert"/><feFlood flood-color="#fff" result="bg"/><feBlend in="invert" in2="bg"/></filter><mask id="mask" x="86.731" y="330.178" width="70.9" height="258.204" maskUnits="userSpaceOnUse"><g class="cls-91"><polygon class="cls-1" points="157.631 493.951 90.897 455.425 90.897 475.717 157.631 514.247 157.631 493.951"/><polygon class="cls-2" points="154.85 495.2 143.728 488.78 143.728 502.672 154.85 509.089 154.85 495.2"/><path class="cls-3" d="M137.454,488.178a2.049,2.049,0,0,0-.912-1.595c-.508-.29-.923-.054-.923.532a2.047,2.047,0,0,0,.923,1.6C137.042,489,137.454,488.764,137.454,488.178Z"/><path class="cls-4" d="M147.431,493.939c0-6.948-4.874-15.4-10.889-18.871s-10.9-.655-10.9,6.29,4.878,15.391,10.9,18.867S147.431,500.883,147.431,493.939Z"/><path class="cls-5" d="M137.082,487.967c0-2.507-.243-4.689-.54-4.857s-.547,1.713-.547,4.227.247,4.678.547,4.849S137.082,490.473,137.082,487.967Z"/><path class="cls-6" d="M136.807,487.262c-1.882-2.346-3.523-4.059-3.677-3.855s1.256,2.289,3.136,4.624,3.526,4.07,3.677,3.855S138.684,489.6,136.807,487.262Z"/><path class="cls-7" d="M136.266,486.947c-1.88.176-3.282.623-3.136,1s1.8.566,3.677.4,3.286-.625,3.136-1C139.792,486.951,138.151,486.779,136.266,486.947Z"/><path class="cls-8" d="M137.786,488.364a2.775,2.775,0,0,0-1.244-2.164c-.694-.393-1.252-.071-1.252.722a2.75,2.75,0,0,0,1.252,2.171C137.228,489.494,137.79,489.172,137.786,488.364Z"/><path class="cls-9" d="M137.454,496.7a2.037,2.037,0,0,0-.912-1.591c-.508-.293-.923-.054-.923.533a2.021,2.021,0,0,0,.923,1.591C137.042,497.522,137.454,497.282,137.454,496.7Z"/><path class="cls-10" d="M147.431,502.457c0-6.945-4.874-15.395-10.889-18.867s-10.9-.662-10.9,6.286,4.878,15.4,10.9,18.871S147.431,509.409,147.431,502.457Z"/><path class="cls-11" d="M137.082,496.481c0-2.507-.243-4.681-.54-4.845-.3-.183-.547,1.713-.547,4.223s.247,4.681.547,4.86S137.082,498.992,137.082,496.481Z"/><path class="cls-12" d="M136.807,495.787c-1.882-2.342-3.523-4.065-3.677-3.851s1.256,2.278,3.136,4.627c1.885,2.332,3.526,4.056,3.677,3.841S138.684,498.126,136.807,495.787Z"/><path class="cls-13" d="M136.266,495.476c-1.88.168-3.282.615-3.136.994s1.8.562,3.677.4,3.286-.615,3.136-1.008S138.151,495.3,136.266,495.476Z"/><path class="cls-14" d="M137.786,496.893a2.777,2.777,0,0,0-1.244-2.175c-.694-.393-1.252-.068-1.252.733a2.76,2.76,0,0,0,1.252,2.167C137.228,498.008,137.79,497.69,137.786,496.893Z"/><polygon class="cls-15" points="129.825 480.189 129.825 483.485 92.751 462.194 92.751 458.891 129.825 480.189"/><polygon class="cls-15" points="96.458 477.364 94.604 476.094 94.604 464.647 96.458 465.906 96.458 477.364"/><polygon class="cls-15" points="100.165 479.921 98.312 478.647 98.312 467.197 100.165 468.463 100.165 479.921"/><polygon class="cls-15" points="104.8 482.474 102.946 481.211 102.946 469.75 104.8 471.023 104.8 482.474"/><polygon class="cls-15" points="109.434 485.027 107.58 483.761 107.58 472.311 109.434 473.577 109.434 485.027"/><polygon class="cls-15" points="114.068 487.588 112.215 486.321 112.215 474.868 114.068 476.13 114.068 487.588"/><polygon class="cls-15" points="118.703 490.137 116.849 488.882 116.849 477.421 118.703 478.687 118.703 490.137"/><polygon class="cls-15" points="122.41 492.694 120.556 491.439 120.556 479.974 122.41 481.24 122.41 492.694"/><polygon class="cls-15" points="127.045 495.247 125.191 493.989 125.191 482.538 127.045 483.793 127.045 495.247"/></g></mask><radialGradient id="radial-gradient-11" cx="448.046" cy="-963.499" r="12.578" xlink:href="#radial-gradient"/><radialGradient id="radial-gradient-12" cx="29923.424" cy="-963.018" r="4.556" xlink:href="#radial-gradient-2"/><radialGradient id="radial-gradient-13" cx="21083.34" cy="3755.664" r="4.558" gradientTransform="matrix(0.06, -0.085, 0.75, 0.933, -3973.586, -1376.138)" xlink:href="#radial-gradient-2"/><radialGradient id="radial-gradient-14" cx="-13098.369" cy="5063.111" r="4.55" gradientTransform="matrix(-0.06, -0.153, 0.75, -0.067, -4479.064, -1324.501)" xlink:href="#radial-gradient-2"/><radialGradient id="radial-gradient-15" cx="448.046" cy="-963.497" r="1.443" xlink:href="#radial-gradient-5"/><radialGradient id="radial-gradient-16" cx="-6784.922" cy="-1893.354" r="9.429" gradientTransform="matrix(0, -1, 0.866, 0.5, 1777.138, -5469.644)" gradientUnits="userSpaceOnUse"><stop offset="0.237" stop-color="#325926"/><stop offset="0.366" stop-color="#26441d"/><stop offset="0.624" stop-color="#12200e"/><stop offset="0.834" stop-color="#060904"/><stop offset="0.968" stop-color="#010101"/></radialGradient><radialGradient id="radial-gradient-17" cx="-6784.916" cy="-1893.356" r="2.018" gradientTransform="matrix(0, -1, 0.866, 0.5, 1777.138, -5469.644)" gradientUnits="userSpaceOnUse"><stop offset="0.22" stop-color="#8ebf22"/><stop offset="0.375" stop-color="#698d19"/><stop offset="0.579" stop-color="#3d510f"/><stop offset="0.753" stop-color="#1c2607"/><stop offset="0.888" stop-color="#080b03"/><stop offset="0.968" stop-color="#010101"/></radialGradient><radialGradient id="radial-gradient-18" cx="-6784.926" cy="-1889.231" r="9.431" xlink:href="#radial-gradient-16"/><radialGradient id="radial-gradient-19" cx="-6784.915" cy="-1889.227" r="2.02" xlink:href="#radial-gradient-17"/><radialGradient id="radial-gradient-20" cx="-6784.923" cy="-1885.102" r="9.429" xlink:href="#radial-gradient-16"/><radialGradient id="radial-gradient-21" cx="-6784.921" cy="-1885.106" r="2.017" xlink:href="#radial-gradient-17"/><radialGradient id="radial-gradient-22" cx="-6784.919" cy="-1880.97" r="9.428" xlink:href="#radial-gradient-16"/><radialGradient id="radial-gradient-23" cx="-6784.916" cy="-1880.972" r="2.018" xlink:href="#radial-gradient-17"/><radialGradient id="radial-gradient-24" cx="448.046" cy="-937.748" r="12.58" xlink:href="#radial-gradient"/><radialGradient id="radial-gradient-25" cx="29923.424" cy="-937.258" r="4.555" xlink:href="#radial-gradient-2"/><radialGradient id="radial-gradient-26" cx="20921.014" cy="3768.546" r="4.547" gradientTransform="matrix(0.06, -0.085, 0.75, 0.933, -3973.586, -1376.138)" xlink:href="#radial-gradient-2"/><radialGradient id="radial-gradient-27" cx="-13260.74" cy="5050.232" r="4.539" gradientTransform="matrix(-0.06, -0.153, 0.75, -0.067, -4479.064, -1324.501)" xlink:href="#radial-gradient-2"/><radialGradient id="radial-gradient-28" cx="448.046" cy="-937.744" r="1.444" xlink:href="#radial-gradient-5"/><radialGradient id="radial-gradient-29" cx="-6810.678" cy="-1893.354" r="9.428" xlink:href="#radial-gradient-16"/><radialGradient id="radial-gradient-30" cx="-6810.666" cy="-1893.356" r="2.017" xlink:href="#radial-gradient-17"/><radialGradient id="radial-gradient-31" cx="-6810.677" cy="-1889.231" r="9.433" xlink:href="#radial-gradient-16"/><radialGradient id="radial-gradient-32" cx="-6810.668" cy="-1889.227" r="2.021" xlink:href="#radial-gradient-17"/><radialGradient id="radial-gradient-33" cx="-6810.681" cy="-1885.102" r="9.429" xlink:href="#radial-gradient-16"/><radialGradient id="radial-gradient-34" cx="-6810.672" cy="-1885.106" r="2.015" xlink:href="#radial-gradient-17"/><radialGradient id="radial-gradient-35" cx="-6810.674" cy="-1880.97" r="9.428" xlink:href="#radial-gradient-16"/><radialGradient id="radial-gradient-36" cx="-6810.665" cy="-1880.972" r="2.021" xlink:href="#radial-gradient-17"/><radialGradient id="radial-gradient-37" cx="448.046" cy="-913.057" r="12.578" xlink:href="#radial-gradient"/><radialGradient id="radial-gradient-38" cx="29923.424" cy="-912.57" r="4.554" xlink:href="#radial-gradient-2"/><radialGradient id="radial-gradient-39" cx="20765.33" cy="3780.893" r="4.565" gradientTransform="matrix(0.06, -0.085, 0.75, 0.933, -3973.586, -1376.138)" xlink:href="#radial-gradient-2"/><radialGradient id="radial-gradient-40" cx="-13416.406" cy="5037.878" r="4.545" gradientTransform="matrix(-0.06, -0.153, 0.75, -0.067, -4479.064, -1324.501)" xlink:href="#radial-gradient-2"/><radialGradient id="radial-gradient-41" cx="448.046" cy="-913.053" r="1.443" xlink:href="#radial-gradient-5"/><radialGradient id="radial-gradient-42" cx="-6835.373" cy="-1893.354" r="9.429" xlink:href="#radial-gradient-16"/><radialGradient id="radial-gradient-43" cx="-6835.366" cy="-1893.356" r="2.017" xlink:href="#radial-gradient-17"/><radialGradient id="radial-gradient-44" cx="-6835.368" cy="-1889.231" r="9.43" xlink:href="#radial-gradient-16"/><radialGradient id="radial-gradient-45" cx="-6835.362" cy="-1889.227" r="2.018" xlink:href="#radial-gradient-17"/><radialGradient id="radial-gradient-46" cx="-6835.372" cy="-1885.102" r="9.43" xlink:href="#radial-gradient-16"/><radialGradient id="radial-gradient-47" cx="-6835.361" cy="-1885.106" r="2.017" xlink:href="#radial-gradient-17"/><radialGradient id="radial-gradient-48" cx="-6835.367" cy="-1880.97" r="9.428" xlink:href="#radial-gradient-16"/><radialGradient id="radial-gradient-49" cx="-6835.358" cy="-1880.972" r="2.019" xlink:href="#radial-gradient-17"/><filter id="luminosity-invert-noclip-2" x="86.731" y="-8609.546" width="70.9" height="32766" filterUnits="userSpaceOnUse" color-interpolation-filters="sRGB"><feColorMatrix values="-1 0 0 0 1 0 -1 0 0 1 0 0 -1 0 1 0 0 0 1 0" result="invert"/><feFlood flood-color="#fff" result="bg"/><feBlend in="invert" in2="bg"/></filter><mask id="mask-2" x="86.731" y="-8609.546" width="70.9" height="32766" maskUnits="userSpaceOnUse"><g class="cls-90"/></mask><radialGradient id="radial-gradient-50" cx="448.046" cy="-888.622" r="12.579" xlink:href="#radial-gradient"/><radialGradient id="radial-gradient-51" cx="29923.424" cy="-888.134" r="4.555" xlink:href="#radial-gradient-2"/><radialGradient id="radial-gradient-52" cx="20611.301" cy="3793.115" r="4.543" gradientTransform="matrix(0.06, -0.085, 0.75, 0.933, -3973.586, -1376.138)" xlink:href="#radial-gradient-2"/><radialGradient id="radial-gradient-53" cx="-13570.414" cy="5025.66" r="4.545" gradientTransform="matrix(-0.06, -0.153, 0.75, -0.067, -4479.064, -1324.501)" xlink:href="#radial-gradient-2"/><radialGradient id="radial-gradient-54" cx="448.046" cy="-888.618" r="1.445" xlink:href="#radial-gradient-5"/><radialGradient id="radial-gradient-55" cx="-6859.794" cy="-1893.354" r="9.429" xlink:href="#radial-gradient-16"/><radialGradient id="radial-gradient-56" cx="-6859.797" cy="-1893.356" r="2.017" xlink:href="#radial-gradient-17"/><radialGradient id="radial-gradient-57" cx="-6859.794" cy="-1889.231" r="9.431" xlink:href="#radial-gradient-16"/><radialGradient id="radial-gradient-58" cx="-6859.794" cy="-1889.227" r="2.02" xlink:href="#radial-gradient-17"/><radialGradient id="radial-gradient-59" cx="-6859.802" cy="-1885.102" r="9.427" xlink:href="#radial-gradient-16"/><radialGradient id="radial-gradient-60" cx="-6859.795" cy="-1885.106" r="2.018" xlink:href="#radial-gradient-17"/><radialGradient id="radial-gradient-61" cx="-6859.795" cy="-1880.97" r="9.43" xlink:href="#radial-gradient-16"/><radialGradient id="radial-gradient-62" cx="-6859.789" cy="-1880.972" r="2.019" xlink:href="#radial-gradient-17"/><radialGradient id="radial-gradient-63" cx="492.98" cy="-866.357" r="12.58" xlink:href="#radial-gradient"/><radialGradient id="radial-gradient-64" cx="30250.437" cy="-865.872" r="4.557" xlink:href="#radial-gradient-2"/><radialGradient id="radial-gradient-65" cx="20634.457" cy="3843.163" r="4.53" gradientTransform="matrix(0.06, -0.085, 0.75, 0.933, -3973.586, -1376.138)" xlink:href="#radial-gradient-2"/><radialGradient id="radial-gradient-66" cx="-13874.362" cy="5053.434" r="4.54" gradientTransform="matrix(-0.06, -0.153, 0.75, -0.067, -4479.064, -1324.501)" xlink:href="#radial-gradient-2"/><radialGradient id="radial-gradient-67" cx="492.982" cy="-866.356" r="1.446" xlink:href="#radial-gradient-5"/><radialGradient id="radial-gradient-68" cx="492.98" cy="-857.834" r="12.58" xlink:href="#radial-gradient-6"/><radialGradient id="radial-gradient-69" cx="30250.437" cy="-857.349" r="4.556" xlink:href="#radial-gradient-7"/><radialGradient id="radial-gradient-70" cx="20580.71" cy="3847.426" r="4.554" gradientTransform="matrix(0.06, -0.085, 0.75, 0.933, -3973.586, -1376.138)" xlink:href="#radial-gradient-7"/><radialGradient id="radial-gradient-71" cx="-13928.11" cy="5049.173" r="4.55" gradientTransform="matrix(-0.06, -0.153, 0.75, -0.067, -4479.064, -1324.501)" xlink:href="#radial-gradient-7"/><radialGradient id="radial-gradient-72" cx="492.981" cy="-857.836" r="1.445" xlink:href="#radial-gradient-10"/><linearGradient id="Degradado_sin_nombre_91" x1="129.134" y1="151.546" x2="129.134" y2="21.546" gradientUnits="userSpaceOnUse"><stop offset="0" stop-color="#bdb219"/><stop offset="0.997" stop-color="#ffed00"/></linearGradient></defs><g class="cls-16"><g id="Capa_1" data-name="Capa 1"><g class="cls-16"><polygon class="cls-17" points="161.854 368.422 257.732 312.705 257.21 540.374 161.339 596.088 161.854 368.422"/><polygon class="cls-18" points="170.109 379.402 249.391 333.327 248.965 529.391 169.68 575.469 170.109 379.402"/><polygon class="cls-1" points="81.206 321.798 177.044 266.094 257.874 312.765 162.035 368.459 81.206 321.798"/><polygon class="cls-19" points="162.265 368.218 161.749 596.392 80.701 549.601 81.221 321.434 162.265 368.218"/></g><g class="cls-16"><polygon class="cls-20" points="7.095 599.443 0.991 596.028 0.455 368.459 6.552 371.87 7.095 599.443"/><polygon class="cls-18" points="6.256 371.87 0.394 368.459 81.224 321.798 87.089 325.199 6.256 371.87"/><polygon class="cls-21" points="87.189 324.642 87.71 553.139 6.552 600 6.028 371.503 87.189 324.642"/><polygon class="cls-22" points="14.894 375.038 14.894 458.314 81.628 419.779 81.628 336.514 14.894 375.038"/><polygon class="cls-22" points="14.894 463.177 14.894 501.258 81.628 462.734 81.628 424.647 14.894 463.177"/><polygon class="cls-22" points="14.894 506.051 14.894 544.142 81.628 505.607 81.628 467.523 14.894 506.051"/><polygon class="cls-22" points="14.894 548.985 14.894 587.076 81.628 548.545 81.628 510.461 14.894 548.985"/></g><g class="cls-23"><polygon class="cls-1" points="157.631 518.482 90.897 479.953 90.897 500.246 157.631 538.775 157.631 518.482"/><path class="cls-19" d="M156.1,521.235a3.09,3.09,0,0,0-1.384-2.432c-.765-.44-1.383-.075-1.391.812a3.109,3.109,0,0,0,1.381,2.431C155.473,522.49,156.1,522.125,156.1,521.235Z"/><path class="cls-19" d="M95.517,486.264a3.13,3.13,0,0,0-1.38-2.435c-.769-.436-1.395-.075-1.4.823a3.076,3.076,0,0,0,1.384,2.424C94.892,487.516,95.51,487.159,95.517,486.264Z"/><path class="cls-19" d="M156.1,534.838a3.074,3.074,0,0,0-1.384-2.424c-.765-.444-1.383-.083-1.391.811a3.075,3.075,0,0,0,1.381,2.421C155.473,536.1,156.1,535.725,156.1,534.838Z"/><path class="cls-19" d="M95.517,499.864a3.091,3.091,0,0,0-1.38-2.421c-.769-.443-1.395-.078-1.4.812a3.1,3.1,0,0,0,1.384,2.432C94.892,501.123,95.51,500.755,95.517,499.864Z"/><path class="cls-2" d="M157.631,530.635l-15.573-8.981-2.6,1.312-30.521-17.619-2.41-4.211L90.9,492.119v-4.036l15.927,9.195,2.238-1.526.1.057,30.428,17.572,2.785,4.426,15.255,8.806ZM142.484,521.2l15.147,8.748v-3.18l-15.108-8.723-2.773-4.406-30.166-17.414-2.232,1.518-15.528-8.969v3.176l15.482,8.938,2.41,4.195L139.882,522.5Z"/><polygon class="cls-1" points="157.631 543.289 90.897 504.764 90.897 525.045 157.631 563.582 157.631 543.289"/><path class="cls-19" d="M156.1,546.031a3.083,3.083,0,0,0-1.384-2.417c-.765-.444-1.383-.079-1.391.815a3.13,3.13,0,0,0,1.381,2.432C155.473,547.3,156.1,546.936,156.1,546.031Z"/><path class="cls-19" d="M95.517,511.071a3.108,3.108,0,0,0-1.38-2.424c-.769-.444-1.395-.082-1.4.812a3.08,3.08,0,0,0,1.384,2.424C94.892,512.33,95.51,511.969,95.517,511.071Z"/><path class="cls-19" d="M156.1,559.645a3.1,3.1,0,0,0-1.384-2.432c-.765-.436-1.383-.064-1.391.826a3.1,3.1,0,0,0,1.381,2.418C155.473,560.9,156.1,560.543,156.1,559.645Z"/><path class="cls-19" d="M95.517,524.679a3.085,3.085,0,0,0-1.38-2.422c-.769-.454-1.395-.085-1.4.808a3.1,3.1,0,0,0,1.384,2.432C94.892,525.933,95.51,525.572,95.517,524.679Z"/><path class="cls-2" d="M157.631,555.442l-15.573-8.985-2.6,1.312-.089-.046-30.432-17.572-2.41-4.208L90.9,516.926V512.89l15.927,9.2,2.238-1.526.1.064,30.428,17.565,2.785,4.418,15.255,8.814Zm-15.147-9.434,15.147,8.748V551.58l-15.108-8.723-2.773-4.413-30.166-17.411-2.232,1.515-15.528-8.966v3.176l15.482,8.945,2.41,4.188,30.166,17.429Z"/><polygon class="cls-1" points="157.631 568.1 90.897 529.571 90.897 549.86 157.631 588.382 157.631 568.1"/><path class="cls-19" d="M156.1,570.852a3.079,3.079,0,0,0-1.384-2.428c-.765-.447-1.383-.078-1.391.812a3.09,3.09,0,0,0,1.381,2.424C155.473,572.1,156.1,571.743,156.1,570.852Z"/><path class="cls-19" d="M95.517,535.882a3.1,3.1,0,0,0-1.38-2.424c-.769-.448-1.395-.082-1.4.815a3.087,3.087,0,0,0,1.384,2.421C94.892,537.137,95.51,536.769,95.517,535.882Z"/><path class="cls-19" d="M156.1,584.459a3.072,3.072,0,0,0-1.384-2.431c-.765-.444-1.383-.083-1.391.815a3.11,3.11,0,0,0,1.381,2.428C155.473,585.714,156.1,585.353,156.1,584.459Z"/><path class="cls-19" d="M95.517,549.489a3.1,3.1,0,0,0-1.38-2.425c-.769-.443-1.395-.085-1.4.809a3.066,3.066,0,0,0,1.384,2.421C94.892,550.744,95.51,550.376,95.517,549.489Z"/><path class="cls-2" d="M157.631,580.259l-15.573-8.988-2.6,1.309-30.521-17.622-2.41-4.208L90.9,541.723V537.7l15.927,9.192,2.238-1.519.1.053,30.428,17.565,2.785,4.433,15.255,8.8Zm-15.147-9.444,15.147,8.748v-3.176l-15.108-8.716-2.773-4.417-30.166-17.411-2.232,1.516L91.824,538.4v3.173l15.482,8.941,2.41,4.192,30.166,17.429Z"/><polygon class="cls-1" points="157.631 369.869 90.897 331.336 90.897 351.629 157.631 390.151 157.631 369.869"/><polygon class="cls-15" points="155.777 370.342 132.606 356.963 132.606 362.158 155.777 375.534 155.777 370.342"/><polygon class="cls-22" points="102.019 353.502 92.751 348.152 92.751 351.163 102.019 356.509 102.019 353.502"/><polygon class="cls-15" points="155.777 381.65 132.606 368.278 132.606 373.473 155.777 386.845 155.777 381.65"/><polygon class="cls-15" points="105.727 359.425 103.873 358.362 103.873 339.526 105.727 340.6 105.727 359.425"/><polygon class="cls-15" points="109.438 361.451 107.58 360.384 107.58 341.544 109.434 342.619 109.438 361.451"/><polygon class="cls-15" points="112.215 363.427 110.361 362.361 110.361 343.612 112.215 344.679 112.215 363.427"/><polygon class="cls-15" points="115.922 365.486 114.068 364.419 114.068 345.587 115.922 346.662 115.922 365.486"/><polygon class="cls-15" points="119.63 367.487 117.776 366.422 117.776 347.63 119.63 348.699 119.63 367.487"/><polygon class="cls-15" points="123.337 369.509 121.483 368.437 121.483 349.649 123.337 350.721 123.337 369.509"/><polygon class="cls-15" points="126.118 371.559 124.264 370.472 124.264 351.652 126.118 352.723 126.118 371.559"/><polygon class="cls-15" points="129.825 373.532 127.971 372.461 127.971 353.709 129.825 354.775 129.825 373.532"/><path class="cls-3" d="M98.536,344.782a2.027,2.027,0,0,0-.916-1.595c-.5-.294-.915-.058-.915.536a2.045,2.045,0,0,0,.915,1.588C98.128,345.6,98.536,345.368,98.536,344.782Z"/><path class="cls-24" d="M108.516,350.539c0-6.945-4.874-15.4-10.9-18.871s-10.889-.658-10.889,6.29,4.874,15.395,10.889,18.868S108.516,357.487,108.516,350.539Z"/><path class="cls-25" d="M98.167,344.567c0-2.51-.243-4.688-.547-4.867s-.54,1.727-.54,4.234.244,4.685.54,4.856S98.167,347.074,98.167,344.567Z"/><path class="cls-26" d="M97.9,343.862c-1.884-2.338-3.526-4.065-3.679-3.851s1.255,2.282,3.136,4.627,3.526,4.063,3.673,3.845S99.777,346.2,97.9,343.862Z"/><path class="cls-27" d="M97.352,343.552c-1.881.171-3.286.614-3.136,1s1.8.561,3.679.4,3.283-.619,3.13-1.009S99.236,343.376,97.352,343.552Z"/><path class="cls-28" d="M98.872,344.968A2.744,2.744,0,0,0,97.62,342.8c-.686-.4-1.244-.079-1.244.722a2.756,2.756,0,0,0,1.244,2.167C98.314,346.094,98.872,345.765,98.872,344.968Z"/><path class="cls-29" d="M137.49,367.15c-.687-.387-1.245-.061-1.245.726a2.735,2.735,0,0,0,1.245,2.152c.686.4,1.247.079,1.247-.711A2.788,2.788,0,0,0,137.49,367.15Z"/><path class="cls-30" d="M137.49,367.493c-.53-.307-.955-.057-.948.551a2.074,2.074,0,0,0,.948,1.656c.525.314.955.053.955-.548A2.116,2.116,0,0,0,137.49,367.493Z"/><path class="cls-31" d="M137.49,359.172c-4.513-2.607-8.165-.5-8.165,4.709s3.652,11.544,8.165,14.143c4.516,2.615,8.171.494,8.171-4.716S142.006,361.782,137.49,359.172Z"/><path class="cls-32" d="M137.49,366.574c-.962-.551-1.745-.089-1.745,1.012a3.841,3.841,0,0,0,1.745,3.025c.965.558,1.748.118,1.748-1A3.879,3.879,0,0,0,137.49,366.574Z"/><path class="cls-29" d="M141.066,369.228c-.691-.405-1.241-.076-1.241.711a2.751,2.751,0,0,0,1.241,2.16c.686.39,1.248.072,1.248-.722A2.729,2.729,0,0,0,141.066,369.228Z"/><path class="cls-30" d="M141.066,369.56c-.526-.3-.955-.061-.955.547a2.114,2.114,0,0,0,.955,1.656c.522.311.951.061.951-.551A2.107,2.107,0,0,0,141.066,369.56Z"/><path class="cls-33" d="M141.066,361.238c-4.513-2.6-8.172-.5-8.172,4.707s3.659,11.54,8.172,14.15,8.167.487,8.167-4.72S145.571,363.838,141.066,361.238Z"/><path class="cls-34" d="M141.066,368.638c-.962-.555-1.749-.1-1.749,1.011a3.844,3.844,0,0,0,1.749,3.026c.969.565,1.752.118,1.752-1A3.882,3.882,0,0,0,141.066,368.638Z"/><path class="cls-29" d="M144.638,371.28c-.683-.393-1.248-.068-1.248.722a2.774,2.774,0,0,0,1.248,2.16c.687.4,1.241.079,1.241-.722A2.768,2.768,0,0,0,144.638,371.28Z"/><path class="cls-30" d="M144.638,371.623c-.518-.3-.955-.057-.955.548a2.137,2.137,0,0,0,.955,1.659c.529.311.955.061.955-.551A2.106,2.106,0,0,0,144.638,371.623Z"/><path class="cls-35" d="M144.638,363.3c-4.506-2.6-8.164-.5-8.164,4.714s3.658,11.536,8.164,14.143,8.168.493,8.168-4.717S149.151,365.909,144.638,363.3Z"/><path class="cls-36" d="M144.638,370.708c-.962-.554-1.741-.107-1.749,1a3.866,3.866,0,0,0,1.749,3.029c.969.55,1.745.111,1.745-1.009A3.851,3.851,0,0,0,144.638,370.708Z"/><path class="cls-29" d="M148.218,373.347c-.687-.393-1.245-.064-1.245.726a2.743,2.743,0,0,0,1.245,2.153c.686.393,1.241.068,1.241-.726A2.741,2.741,0,0,0,148.218,373.347Z"/><path class="cls-30" d="M148.218,373.69c-.529-.307-.959-.064-.959.551a2.115,2.115,0,0,0,.959,1.656c.526.3.954.053.954-.555A2.108,2.108,0,0,0,148.218,373.69Z"/><path class="cls-37" d="M148.218,365.362c-4.513-2.6-8.164-.5-8.164,4.71s3.651,11.55,8.164,14.146,8.164.494,8.164-4.713S152.724,367.976,148.218,365.362Z"/><path class="cls-38" d="M148.218,372.771c-.969-.561-1.752-.107-1.752,1a3.836,3.836,0,0,0,1.752,3.025c.965.565,1.748.115,1.748-1.008A3.877,3.877,0,0,0,148.218,372.771Z"/><polygon class="cls-1" points="157.631 395.616 90.897 357.09 90.897 377.38 157.631 415.906 157.631 395.616"/><polygon class="cls-15" points="155.777 396.093 132.606 382.71 132.606 387.903 155.777 401.285 155.777 396.093"/><polygon class="cls-22" points="102.019 379.257 92.751 373.903 92.751 376.91 102.019 382.264 102.019 379.257"/><polygon class="cls-15" points="155.777 407.408 132.606 394.025 132.606 399.217 155.777 412.607 155.777 407.408"/><polygon class="cls-15" points="105.727 385.179 103.873 384.108 103.873 365.28 105.727 366.351 105.727 385.179"/><polygon class="cls-15" points="109.438 387.202 107.58 386.135 107.58 367.302 109.434 368.366 109.438 387.202"/><polygon class="cls-15" points="112.215 389.178 110.361 388.116 110.361 369.363 112.215 370.43 112.215 389.178"/><polygon class="cls-15" points="115.922 391.241 114.068 390.177 114.068 371.342 115.922 372.409 115.922 391.241"/><polygon class="cls-15" points="119.63 393.246 117.776 392.174 117.776 373.381 119.63 374.454 119.63 393.246"/><polygon class="cls-15" points="123.337 395.257 121.483 394.188 121.483 375.404 123.337 376.476 123.337 395.257"/><polygon class="cls-15" points="126.118 397.302 124.264 396.231 124.264 377.411 126.118 378.474 126.118 397.302"/><polygon class="cls-15" points="129.825 399.287 127.971 398.213 127.971 379.467 129.825 380.53 129.825 399.287"/><path class="cls-3" d="M98.536,370.529a2,2,0,0,0-.916-1.587c-.5-.294-.915-.061-.915.529a2.046,2.046,0,0,0,.915,1.591C98.128,371.352,98.536,371.112,98.536,370.529Z"/><path class="cls-39" d="M108.516,376.29c0-6.952-4.874-15.4-10.9-18.874s-10.889-.651-10.889,6.29,4.874,15.4,10.889,18.875S108.516,383.239,108.516,376.29Z"/><path class="cls-40" d="M98.167,370.315c0-2.511-.243-4.689-.547-4.853s-.54,1.716-.54,4.216c0,2.517.244,4.692.54,4.871S98.167,372.821,98.167,370.315Z"/><path class="cls-41" d="M97.9,369.614c-1.884-2.339-3.526-4.063-3.679-3.848s1.255,2.278,3.136,4.616,3.526,4.067,3.673,3.859S99.777,371.956,97.9,369.614Z"/><path class="cls-42" d="M97.352,369.31c-1.881.164-3.286.611-3.136.99.153.4,1.8.565,3.679.4s3.283-.619,3.13-1.009S99.236,369.131,97.352,369.31Z"/><path class="cls-43" d="M98.872,370.715a2.755,2.755,0,0,0-1.252-2.16c-.686-.4-1.244-.079-1.244.719a2.77,2.77,0,0,0,1.244,2.174C98.314,371.842,98.872,371.523,98.872,370.715Z"/><path class="cls-29" d="M137.49,392.912c-.687-.4-1.245-.075-1.245.718a2.75,2.75,0,0,0,1.245,2.157c.686.393,1.247.075,1.247-.715A2.752,2.752,0,0,0,137.49,392.912Z"/><path class="cls-30" d="M137.49,393.248c-.53-.308-.955-.061-.948.554a2.093,2.093,0,0,0,.948,1.656c.525.3.955.053.955-.561A2.112,2.112,0,0,0,137.49,393.248Z"/><path class="cls-44" d="M137.49,384.93c-4.513-2.618-8.165-.5-8.165,4.7s3.652,11.539,8.165,14.146,8.171.494,8.171-4.713S142.006,387.523,137.49,384.93Z"/><path class="cls-45" d="M137.49,392.325c-.962-.551-1.745-.089-1.745,1.019a3.829,3.829,0,0,0,1.745,3.015c.965.565,1.748.118,1.748-1A3.88,3.88,0,0,0,137.49,392.325Z"/><path class="cls-29" d="M141.066,394.975c-.691-.4-1.241-.075-1.241.722a2.732,2.732,0,0,0,1.241,2.153c.686.4,1.248.079,1.248-.722A2.758,2.758,0,0,0,141.066,394.975Z"/><path class="cls-30" d="M141.066,395.311c-.526-.3-.955-.064-.955.551a2.1,2.1,0,0,0,.955,1.652c.522.3.951.064.951-.558A2.112,2.112,0,0,0,141.066,395.311Z"/><path class="cls-46" d="M141.066,386.986c-4.513-2.6-8.172-.5-8.172,4.71s3.659,11.547,8.172,14.154,8.167.49,8.167-4.721S145.571,389.586,141.066,386.986Z"/><path class="cls-47" d="M141.066,394.389c-.962-.547-1.749-.09-1.749,1.019a3.847,3.847,0,0,0,1.749,3.022c.969.557,1.752.121,1.752-1.009A3.876,3.876,0,0,0,141.066,394.389Z"/><path class="cls-29" d="M144.638,397.042c-.683-.4-1.248-.079-1.248.708a2.77,2.77,0,0,0,1.248,2.164c.687.4,1.241.082,1.241-.719A2.749,2.749,0,0,0,144.638,397.042Z"/><path class="cls-30" d="M144.638,397.378c-.518-.307-.955-.064-.955.551a2.122,2.122,0,0,0,.955,1.652c.529.307.955.061.955-.554A2.092,2.092,0,0,0,144.638,397.378Z"/><path class="cls-48" d="M144.638,389.057c-4.506-2.6-8.164-.5-8.164,4.706s3.658,11.547,8.164,14.15,8.168.487,8.168-4.72S149.151,391.653,144.638,389.057Z"/><path class="cls-49" d="M144.638,396.463c-.962-.562-1.741-.1-1.749,1.008a3.832,3.832,0,0,0,1.749,3.018c.969.562,1.745.126,1.745-1A3.832,3.832,0,0,0,144.638,396.463Z"/><path class="cls-29" d="M148.218,399.1c-.687-.4-1.245-.072-1.245.726a2.727,2.727,0,0,0,1.245,2.145c.686.4,1.241.079,1.241-.718A2.746,2.746,0,0,0,148.218,399.1Z"/><path class="cls-30" d="M148.218,399.445c-.529-.311-.959-.064-.959.554a2.107,2.107,0,0,0,.959,1.649c.526.3.954.053.954-.554A2.105,2.105,0,0,0,148.218,399.445Z"/><path class="cls-50" d="M148.218,391.116c-4.513-2.6-8.164-.5-8.164,4.71s3.651,11.544,8.164,14.147,8.164.493,8.164-4.717S152.724,393.72,148.218,391.116Z"/><path class="cls-51" d="M148.218,398.515c-.969-.551-1.752-.089-1.752,1.016a3.83,3.83,0,0,0,1.752,3.025c.965.562,1.748.122,1.748-1A3.9,3.9,0,0,0,148.218,398.515Z"/><polygon class="cls-1" points="157.631 420.309 90.897 381.783 90.897 402.069 157.631 440.602 157.631 420.309"/><polygon class="cls-15" points="155.777 420.786 132.606 407.403 132.606 412.599 155.777 425.982 155.777 420.786"/><polygon class="cls-22" points="102.019 403.943 92.751 398.595 92.751 401.603 102.019 406.957 102.019 403.943"/><polygon class="cls-15" points="155.777 432.101 132.606 418.721 132.606 423.913 155.777 437.289 155.777 432.101"/><polygon class="cls-15" points="105.727 409.872 103.873 408.801 103.873 389.977 105.727 391.044 105.727 409.872"/><polygon class="cls-15" points="109.438 411.891 107.58 410.824 107.58 391.988 109.434 393.063 109.438 411.891"/><polygon class="cls-15" points="112.215 413.871 110.361 412.801 110.361 394.06 112.215 395.122 112.215 413.871"/><polygon class="cls-15" points="115.922 415.937 114.068 414.866 114.068 396.034 115.922 397.105 115.922 415.937"/><polygon class="cls-15" points="119.63 417.939 117.776 416.866 117.776 398.074 119.63 399.139 119.63 417.939"/><polygon class="cls-15" points="123.337 419.953 121.483 418.881 121.483 400.097 123.337 401.169 123.337 419.953"/><polygon class="cls-15" points="126.118 421.999 124.264 420.92 124.264 402.088 126.118 403.167 126.118 421.999"/><polygon class="cls-15" points="129.825 423.972 127.971 422.913 127.971 404.156 129.825 405.222 129.825 423.972"/><path class="cls-3" d="M98.536,395.218a2.026,2.026,0,0,0-.916-1.588c-.5-.286-.915-.057-.915.533a2.053,2.053,0,0,0,.915,1.592C98.128,396.044,98.536,395.808,98.536,395.218Z"/><path class="cls-52" d="M108.516,400.983c0-6.945-4.874-15.392-10.9-18.871s-10.889-.662-10.889,6.294c0,6.941,4.874,15.391,10.889,18.86S108.516,407.931,108.516,400.983Z"/><path class="cls-53" d="M98.167,395.011c0-2.518-.243-4.689-.547-4.86s-.54,1.716-.54,4.238c0,2.5.244,4.677.54,4.845S98.167,397.514,98.167,395.011Z"/><path class="cls-54" d="M97.9,394.3c-1.884-2.332-3.526-4.056-3.679-3.855-.15.218,1.255,2.288,3.136,4.634s3.526,4.066,3.673,3.848S99.777,396.649,97.9,394.3Z"/><path class="cls-55" d="M97.352,394c-1.881.171-3.286.608-3.136,1,.153.38,1.8.555,3.679.39s3.283-.618,3.13-1S99.236,393.831,97.352,394Z"/><path class="cls-56" d="M98.872,395.415a2.744,2.744,0,0,0-1.252-2.167c-.686-.4-1.244-.064-1.244.722a2.768,2.768,0,0,0,1.244,2.167C98.314,396.538,98.872,396.216,98.872,395.415Z"/><path class="cls-29" d="M137.49,417.6c-.687-.4-1.245-.076-1.245.722a2.753,2.753,0,0,0,1.245,2.156c.686.4,1.247.072,1.247-.715A2.77,2.77,0,0,0,137.49,417.6Z"/><path class="cls-30" d="M137.49,417.948c-.53-.312-.955-.065-.948.543a2.072,2.072,0,0,0,.948,1.656c.525.311.955.061.955-.554A2.089,2.089,0,0,0,137.49,417.948Z"/><path class="cls-57" d="M137.49,409.622c-4.513-2.6-8.165-.5-8.165,4.707s3.652,11.536,8.165,14.147,8.171.49,8.171-4.717S142.006,412.219,137.49,409.622Z"/><path class="cls-58" d="M137.49,417.025c-.962-.554-1.745-.1-1.745,1.008a3.855,3.855,0,0,0,1.745,3.026c.965.558,1.748.118,1.748-1.009A3.865,3.865,0,0,0,137.49,417.025Z"/><path class="cls-29" d="M141.066,419.664c-.691-.4-1.241-.071-1.241.726a2.709,2.709,0,0,0,1.241,2.149c.686.408,1.248.075,1.248-.719A2.771,2.771,0,0,0,141.066,419.664Z"/><path class="cls-30" d="M141.066,420.007c-.526-.307-.955-.068-.955.544a2.121,2.121,0,0,0,.955,1.663c.522.3.951.05.951-.551A2.11,2.11,0,0,0,141.066,420.007Z"/><path class="cls-59" d="M141.066,411.682c-4.513-2.614-8.172-.5-8.172,4.7s3.659,11.547,8.172,14.15,8.167.494,8.167-4.716S145.571,414.286,141.066,411.682Z"/><path class="cls-60" d="M141.066,419.088c-.962-.554-1.749-.1-1.749,1.012a3.846,3.846,0,0,0,1.749,3.019c.969.561,1.752.118,1.752-1.005A3.871,3.871,0,0,0,141.066,419.088Z"/><path class="cls-29" d="M144.638,421.735c-.683-.408-1.248-.072-1.248.722a2.778,2.778,0,0,0,1.248,2.153c.687.393,1.241.071,1.241-.726A2.728,2.728,0,0,0,144.638,421.735Z"/><path class="cls-30" d="M144.638,422.071c-.518-.308-.955-.065-.955.543a2.148,2.148,0,0,0,.955,1.66c.529.3.955.057.955-.562A2.084,2.084,0,0,0,144.638,422.071Z"/><path class="cls-61" d="M144.638,413.746c-4.506-2.607-8.164-.494-8.164,4.7,0,5.214,3.658,11.547,8.164,14.158s8.168.482,8.168-4.721S149.151,416.349,144.638,413.746Z"/><path class="cls-62" d="M144.638,421.148c-.962-.551-1.741-.1-1.749,1.012a3.852,3.852,0,0,0,1.749,3.022c.969.561,1.745.125,1.745-1A3.882,3.882,0,0,0,144.638,421.148Z"/><path class="cls-29" d="M148.218,423.791c-.687-.39-1.245-.075-1.245.722a2.737,2.737,0,0,0,1.245,2.153c.686.4,1.241.082,1.241-.715A2.768,2.768,0,0,0,148.218,423.791Z"/><path class="cls-30" d="M148.218,424.13c-.529-.3-.959-.067-.959.551a2.11,2.11,0,0,0,.959,1.656c.526.308.954.064.954-.551A2.1,2.1,0,0,0,148.218,424.13Z"/><path class="cls-63" d="M148.218,415.809c-4.513-2.6-8.164-.49-8.164,4.713s3.651,11.54,8.164,14.144,8.164.49,8.164-4.721S152.724,418.412,148.218,415.809Z"/><path class="cls-64" d="M148.218,423.212c-.969-.551-1.752-.1-1.752,1.011a3.841,3.841,0,0,0,1.752,3.022c.965.562,1.748.122,1.748-1A3.871,3.871,0,0,0,148.218,423.212Z"/><g class="cls-65"><polygon class="cls-1" points="157.631 444.737 90.897 406.215 90.897 426.504 157.631 465.022 157.631 444.737"/><polygon class="cls-15" points="155.777 445.214 132.606 431.835 132.606 437.03 155.777 450.406 155.777 445.214"/><polygon class="cls-22" points="102.019 428.374 92.751 423.023 92.751 426.031 102.019 431.388 102.019 428.374"/><polygon class="cls-15" points="155.777 456.529 132.606 443.153 132.606 448.348 155.777 461.724 155.777 456.529"/><polygon class="cls-15" points="105.727 434.311 103.873 433.236 103.873 414.404 105.727 415.479 105.727 434.311"/><polygon class="cls-15" points="109.438 436.326 107.58 435.251 107.58 416.416 109.434 417.49 109.438 436.326"/><polygon class="cls-15" points="112.215 438.306 110.361 437.232 110.361 418.484 112.215 419.55 112.215 438.306"/><polygon class="cls-15" points="115.922 440.361 114.068 439.291 114.068 420.462 115.922 421.545 115.922 440.361"/><polygon class="cls-15" points="119.63 442.367 117.776 441.294 117.776 422.506 119.63 423.574 119.63 442.367"/><polygon class="cls-15" points="123.337 444.385 121.483 443.32 121.483 424.524 123.337 425.597 123.337 444.385"/><polygon class="cls-15" points="126.118 446.423 124.264 445.364 124.264 426.528 126.118 427.598 126.118 446.423"/><polygon class="cls-15" points="129.825 448.407 127.971 447.341 127.971 428.58 129.825 429.654 129.825 448.407"/><path class="cls-3" d="M98.536,419.657a2.031,2.031,0,0,0-.916-1.595c-.5-.29-.915-.054-.915.526a2.032,2.032,0,0,0,.915,1.595C98.128,420.479,98.536,420.243,98.536,419.657Z"/><path class="cls-66" d="M108.516,425.418c0-6.952-4.874-15.4-10.9-18.875s-10.889-.658-10.889,6.3,4.874,15.387,10.889,18.867S108.516,432.363,108.516,425.418Z"/><path class="cls-67" d="M98.167,419.439c0-2.514-.243-4.689-.547-4.853s-.54,1.717-.54,4.227.244,4.685.54,4.86S98.167,421.946,98.167,419.439Z"/><path class="cls-68" d="M97.9,418.742c-1.884-2.347-3.526-4.067-3.679-3.856s1.255,2.286,3.136,4.621,3.526,4.066,3.673,3.858S99.777,421.08,97.9,418.742Z"/><path class="cls-69" d="M97.352,418.427c-1.881.164-3.286.615-3.136,1s1.8.558,3.679.393,3.283-.618,3.13-1S99.236,418.259,97.352,418.427Z"/><path class="cls-70" d="M98.872,419.846a2.752,2.752,0,0,0-1.252-2.167c-.686-.4-1.244-.075-1.244.719a2.782,2.782,0,0,0,1.244,2.178C98.314,420.966,98.872,420.644,98.872,419.846Z"/><path class="cls-29" d="M137.49,442.029c-.687-.386-1.245-.072-1.245.726a2.757,2.757,0,0,0,1.245,2.156c.686.4,1.247.072,1.247-.719A2.787,2.787,0,0,0,137.49,442.029Z"/><path class="cls-30" d="M137.49,442.368c-.53-.3-.955-.06-.948.551a2.078,2.078,0,0,0,.948,1.659c.525.308.955.065.955-.554A2.117,2.117,0,0,0,137.49,442.368Z"/><path class="cls-71" d="M137.49,434.043c-4.513-2.6-8.165-.5-8.165,4.717s3.652,11.537,8.165,14.136,8.171.508,8.171-4.713C145.661,442.984,142.006,436.65,137.49,434.043Z"/><path class="cls-72" d="M137.49,441.457c-.962-.558-1.745-.1-1.745,1a3.86,3.86,0,0,0,1.745,3.032c.965.551,1.748.115,1.748-1.015A3.857,3.857,0,0,0,137.49,441.457Z"/><path class="cls-29" d="M141.066,444.1c-.691-.4-1.241-.075-1.241.715a2.721,2.721,0,0,0,1.241,2.156c.686.405,1.248.068,1.248-.726A2.751,2.751,0,0,0,141.066,444.1Z"/><path class="cls-30" d="M141.066,444.439c-.526-.307-.955-.064-.955.544a2.128,2.128,0,0,0,.955,1.666c.522.3.951.047.951-.562A2.111,2.111,0,0,0,141.066,444.439Z"/><path class="cls-73" d="M141.066,436.107c-4.513-2.6-8.172-.49-8.172,4.716s3.659,11.537,8.172,14.14,8.167.49,8.167-4.706S145.571,438.714,141.066,436.107Z"/><path class="cls-74" d="M141.066,443.516c-.962-.554-1.749-.1-1.749,1a3.849,3.849,0,0,0,1.749,3.033c.969.561,1.752.121,1.752-1.009A3.894,3.894,0,0,0,141.066,443.516Z"/><path class="cls-29" d="M144.638,446.17c-.683-.408-1.248-.083-1.248.708a2.793,2.793,0,0,0,1.248,2.167c.687.39,1.241.071,1.241-.726A2.724,2.724,0,0,0,144.638,446.17Z"/><path class="cls-30" d="M144.638,446.5c-.518-.3-.955-.064-.955.543a2.148,2.148,0,0,0,.955,1.67c.529.3.955.05.955-.558A2.115,2.115,0,0,0,144.638,446.5Z"/><path class="cls-75" d="M144.638,438.181c-4.506-2.611-8.164-.5-8.164,4.706s3.658,11.54,8.164,14.143,8.168.5,8.168-4.709S149.151,440.777,144.638,438.181Z"/><path class="cls-76" d="M144.638,445.58c-.962-.558-1.741-.093-1.749,1a3.87,3.87,0,0,0,1.749,3.032c.969.558,1.745.122,1.745-1A3.87,3.87,0,0,0,144.638,445.58Z"/><path class="cls-29" d="M148.218,448.226c-.687-.393-1.245-.072-1.245.715a2.756,2.756,0,0,0,1.245,2.164c.686.4,1.241.068,1.241-.723A2.734,2.734,0,0,0,148.218,448.226Z"/><path class="cls-30" d="M148.218,448.562c-.529-.308-.959-.064-.959.554a2.122,2.122,0,0,0,.959,1.66c.526.3.954.046.954-.562A2.117,2.117,0,0,0,148.218,448.562Z"/><path class="cls-77" d="M148.218,440.233c-4.513-2.6-8.164-.489-8.164,4.717s3.651,11.54,8.164,14.147,8.164.49,8.164-4.713S152.724,442.851,148.218,440.233Z"/><path class="cls-78" d="M148.218,447.643c-.969-.558-1.752-.093-1.752,1.016a3.82,3.82,0,0,0,1.752,3.018c.965.561,1.748.125,1.748-1A3.9,3.9,0,0,0,148.218,447.643Z"/></g><polygon class="cls-1" points="157.631 470.166 90.897 431.633 90.897 451.93 157.631 490.452 157.631 470.166"/><polygon class="cls-2" points="154.85 471.409 143.728 464.989 143.728 478.888 154.85 485.304 154.85 471.409"/><path class="cls-3" d="M137.454,464.39a2.031,2.031,0,0,0-.912-1.588c-.508-.293-.923-.061-.923.522a2.017,2.017,0,0,0,.923,1.595C137.042,465.216,137.454,464.969,137.454,464.39Z"/><path class="cls-79" d="M147.431,470.151c0-6.945-4.874-15.4-10.889-18.871s-10.9-.658-10.9,6.29,4.878,15.395,10.9,18.871S147.431,477.1,147.431,470.151Z"/><path class="cls-80" d="M137.082,464.175c0-2.514-.243-4.681-.54-4.86-.3-.164-.547,1.727-.547,4.234s.247,4.681.547,4.857S137.082,466.678,137.082,464.175Z"/><path class="cls-81" d="M136.807,463.478c-1.882-2.353-3.523-4.073-3.677-3.852s1.256,2.278,3.136,4.614,3.526,4.073,3.677,3.851S138.684,465.813,136.807,463.478Z"/><path class="cls-82" d="M136.266,463.163c-1.88.175-3.282.619-3.136,1s1.8.554,3.677.386,3.286-.615,3.136-1S138.151,463,136.266,463.163Z"/><path class="cls-83" d="M137.786,464.579a2.781,2.781,0,0,0-1.244-2.167c-.694-.4-1.252-.071-1.252.722a2.784,2.784,0,0,0,1.252,2.178C137.228,465.7,137.79,465.38,137.786,464.579Z"/><path class="cls-9" d="M137.454,472.908a2.029,2.029,0,0,0-.912-1.584c-.508-.293-.923-.058-.923.533a2.057,2.057,0,0,0,.923,1.591C137.042,473.734,137.454,473.494,137.454,472.908Z"/><path class="cls-84" d="M147.431,478.669c0-6.945-4.874-15.391-10.889-18.864s-10.9-.658-10.9,6.28,4.878,15.405,10.9,18.878S147.431,485.621,147.431,478.669Z"/><path class="cls-85" d="M137.082,472.7c0-2.51-.243-4.681-.54-4.856s-.547,1.716-.547,4.23.247,4.678.547,4.856S137.082,475.211,137.082,472.7Z"/><path class="cls-86" d="M136.807,472c-1.882-2.335-3.523-4.062-3.677-3.855s1.256,2.285,3.136,4.631,3.526,4.059,3.677,3.851S138.684,474.335,136.807,472Z"/><path class="cls-87" d="M136.266,471.685c-1.88.172-3.282.615-3.136,1s1.8.562,3.677.4,3.286-.618,3.136-1.008S138.151,471.513,136.266,471.685Z"/><path class="cls-88" d="M137.786,473.105a2.775,2.775,0,0,0-1.244-2.171c-.694-.4-1.252-.068-1.252.729a2.76,2.76,0,0,0,1.252,2.167C137.228,474.224,137.79,473.9,137.786,473.105Z"/><polygon class="cls-15" points="129.825 456.39 129.825 459.7 92.751 438.403 92.751 435.103 129.825 456.39"/><polygon class="cls-15" points="96.458 453.572 94.604 452.31 94.604 440.856 96.458 442.118 96.458 453.572"/><polygon class="cls-15" points="100.165 456.126 98.312 454.867 98.312 443.409 100.165 444.668 100.165 456.126"/><polygon class="cls-15" points="104.8 458.682 102.946 457.423 102.946 445.966 104.8 447.225 104.8 458.682"/><polygon class="cls-15" points="109.434 461.239 107.58 459.977 107.58 448.527 109.434 449.781 109.434 461.239"/><polygon class="cls-15" points="114.068 463.796 112.215 462.53 112.215 451.08 114.068 452.335 114.068 463.796"/><polygon class="cls-15" points="118.703 466.353 116.849 465.094 116.849 453.633 118.703 454.895 118.703 466.353"/><polygon class="cls-15" points="122.41 468.91 120.556 467.647 120.556 456.19 122.41 457.456 122.41 468.91"/><polygon class="cls-15" points="127.045 471.47 125.191 470.201 125.191 458.74 127.045 460.009 127.045 471.47"/></g><path class="cls-19" d="M239.639,433.389a5.821,5.821,0,0,1,2.633-4.559c1.455-.834,2.639-.158,2.639,1.523a5.831,5.831,0,0,1-2.639,4.559C240.816,435.753,239.639,435.066,239.639,433.389Z"/><path class="cls-19" d="M231.54,438.063a5.823,5.823,0,0,1,2.635-4.56c1.459-.84,2.636-.16,2.636,1.524a5.817,5.817,0,0,1-2.636,4.559C232.72,440.426,231.54,439.744,231.54,438.063Z"/><path class="cls-19" d="M223.447,442.747a5.8,5.8,0,0,1,2.628-4.566c1.456-.844,2.633-.154,2.633,1.523a5.811,5.811,0,0,1-2.629,4.556C224.623,445.1,223.447,444.425,223.447,442.747Z"/><path class="cls-19" d="M215.355,447.414a5.811,5.811,0,0,1,2.624-4.559c1.463-.837,2.64-.165,2.64,1.52a5.8,5.8,0,0,1-2.633,4.555C216.531,449.775,215.355,449.1,215.355,447.414Z"/><path class="cls-19" d="M207.258,452.084a5.824,5.824,0,0,1,2.629-4.559c1.455-.833,2.639-.157,2.639,1.52a5.815,5.815,0,0,1-2.639,4.563C208.431,454.445,207.258,453.769,207.258,452.084Z"/><path class="cls-19" d="M199.158,456.766a5.844,5.844,0,0,1,2.633-4.571c1.458-.836,2.635-.157,2.635,1.527a5.8,5.8,0,0,1-2.635,4.556C200.335,459.126,199.158,458.439,199.158,456.766Z"/><path class="cls-19" d="M191.059,461.436a5.828,5.828,0,0,1,2.639-4.563c1.452-.837,2.632-.157,2.632,1.523a5.833,5.833,0,0,1-2.632,4.563C192.243,463.8,191.059,463.117,191.059,461.436Z"/><path class="cls-19" d="M182.97,466.113a5.815,5.815,0,0,1,2.628-4.563c1.452-.844,2.632-.16,2.632,1.52a5.823,5.823,0,0,1-2.632,4.56C184.146,468.47,182.97,467.791,182.97,466.113Z"/><path class="cls-19" d="M174.874,470.78a5.828,5.828,0,0,1,2.631-4.559c1.456-.841,2.633-.158,2.633,1.523a5.805,5.805,0,0,1-2.633,4.559C176.05,473.14,174.874,472.465,174.874,470.78Z"/><path class="cls-19" d="M239.639,443.3a5.813,5.813,0,0,1,2.633-4.56c1.455-.84,2.639-.161,2.639,1.513a5.827,5.827,0,0,1-2.639,4.566C240.816,445.662,239.639,444.983,239.639,443.3Z"/><path class="cls-19" d="M231.54,447.976a5.839,5.839,0,0,1,2.635-4.563c1.459-.837,2.636-.154,2.636,1.527a5.8,5.8,0,0,1-2.636,4.559C232.72,450.332,231.54,449.649,231.54,447.976Z"/><path class="cls-19" d="M223.447,452.649a5.828,5.828,0,0,1,2.632-4.559c1.452-.84,2.629-.161,2.629,1.527a5.822,5.822,0,0,1-2.629,4.556C224.623,455.017,223.447,454.334,223.447,452.649Z"/><path class="cls-19" d="M215.355,457.327a5.818,5.818,0,0,1,2.631-4.563c1.456-.84,2.633-.157,2.633,1.523a5.815,5.815,0,0,1-2.633,4.556C216.531,459.691,215.355,459,215.355,457.327Z"/><path class="cls-19" d="M207.258,462a5.814,5.814,0,0,1,2.629-4.559c1.455-.84,2.639-.154,2.639,1.527a5.82,5.82,0,0,1-2.639,4.556C208.431,464.365,207.258,463.675,207.258,462Z"/><path class="cls-19" d="M199.158,466.675a5.819,5.819,0,0,1,2.633-4.563c1.458-.837,2.635-.157,2.635,1.523a5.81,5.81,0,0,1-2.635,4.56C200.335,469.032,199.158,468.356,199.158,466.675Z"/><path class="cls-19" d="M191.059,471.345a5.845,5.845,0,0,1,2.639-4.563c1.452-.837,2.632-.157,2.632,1.531a5.8,5.8,0,0,1-2.632,4.549C192.243,473.705,191.059,473.03,191.059,471.345Z"/><path class="cls-19" d="M182.97,476.026a5.853,5.853,0,0,1,2.628-4.57c1.452-.833,2.632-.15,2.632,1.52a5.816,5.816,0,0,1-2.632,4.563C184.146,478.379,182.97,477.707,182.97,476.026Z"/><path class="cls-19" d="M174.874,480.7a5.824,5.824,0,0,1,2.631-4.563c1.456-.844,2.633-.161,2.633,1.52a5.787,5.787,0,0,1-2.633,4.552C176.05,483.06,174.874,482.377,174.874,480.7Z"/><path class="cls-19" d="M239.639,453.218a5.81,5.81,0,0,1,2.633-4.559c1.455-.841,2.639-.161,2.639,1.516a5.827,5.827,0,0,1-2.639,4.56C240.816,455.578,239.639,454.892,239.639,453.218Z"/><path class="cls-19" d="M231.54,457.892a5.815,5.815,0,0,1,2.635-4.559c1.459-.844,2.636-.161,2.636,1.512a5.8,5.8,0,0,1-2.636,4.56C232.72,460.252,231.54,459.569,231.54,457.892Z"/><path class="cls-19" d="M223.447,462.563a5.812,5.812,0,0,1,2.632-4.557c1.452-.847,2.629-.168,2.629,1.527a5.82,5.82,0,0,1-2.629,4.549C224.623,464.919,223.447,464.24,223.447,462.563Z"/><path class="cls-19" d="M215.355,467.236a5.854,5.854,0,0,1,2.631-4.57c1.456-.826,2.633-.147,2.633,1.523a5.82,5.82,0,0,1-2.633,4.567C216.531,469.6,215.355,468.924,215.355,467.236Z"/><path class="cls-19" d="M207.258,471.914a5.792,5.792,0,0,1,2.629-4.56c1.455-.84,2.639-.168,2.639,1.516a5.832,5.832,0,0,1-2.639,4.56C208.431,474.278,207.258,473.591,207.258,471.914Z"/><path class="cls-19" d="M199.158,476.581a5.8,5.8,0,0,1,2.633-4.553c1.458-.844,2.635-.161,2.635,1.523a5.8,5.8,0,0,1-2.635,4.549C200.335,478.948,199.158,478.261,199.158,476.581Z"/><path class="cls-19" d="M191.059,481.262A5.823,5.823,0,0,1,193.7,476.7c1.452-.844,2.632-.153,2.632,1.524a5.835,5.835,0,0,1-2.632,4.56C192.243,483.622,191.059,482.935,191.059,481.262Z"/><path class="cls-19" d="M182.97,485.939a5.812,5.812,0,0,1,2.628-4.563c1.452-.84,2.632-.165,2.632,1.516a5.848,5.848,0,0,1-2.632,4.571C184.146,488.3,182.97,487.613,182.97,485.939Z"/><path class="cls-19" d="M174.874,490.6a5.807,5.807,0,0,1,2.631-4.556c1.456-.837,2.633-.157,2.633,1.52a5.82,5.82,0,0,1-2.633,4.56C176.05,492.97,174.874,492.294,174.874,490.6Z"/><path class="cls-19" d="M239.639,463.128a5.821,5.821,0,0,1,2.633-4.564c1.455-.836,2.639-.157,2.639,1.52a5.82,5.82,0,0,1-2.639,4.563C240.816,465.488,239.639,464.805,239.639,463.128Z"/><path class="cls-19" d="M231.54,467.8a5.829,5.829,0,0,1,2.635-4.56c1.459-.833,2.636-.161,2.636,1.524a5.807,5.807,0,0,1-2.636,4.559C232.72,470.162,231.54,469.478,231.54,467.8Z"/><path class="cls-19" d="M223.447,472.475a5.821,5.821,0,0,1,2.632-4.559c1.452-.837,2.629-.154,2.629,1.516A5.821,5.821,0,0,1,226.079,474C224.623,474.839,223.447,474.156,223.447,472.475Z"/><path class="cls-19" d="M215.355,477.153a5.831,5.831,0,0,1,2.631-4.567c1.456-.84,2.633-.157,2.633,1.524a5.805,5.805,0,0,1-2.633,4.559C216.531,479.509,215.355,478.83,215.355,477.153Z"/><path class="cls-19" d="M207.258,481.82a5.814,5.814,0,0,1,2.629-4.56c1.455-.833,2.639-.161,2.639,1.52a5.812,5.812,0,0,1-2.639,4.563C208.431,484.18,207.258,483.5,207.258,481.82Z"/><path class="cls-19" d="M199.158,486.5a5.837,5.837,0,0,1,2.633-4.567c1.458-.837,2.635-.154,2.635,1.524a5.832,5.832,0,0,1-2.635,4.566C200.335,488.854,199.158,488.181,199.158,486.5Z"/><path class="cls-19" d="M191.059,491.171a5.822,5.822,0,0,1,2.639-4.56c1.452-.837,2.632-.157,2.632,1.517a5.806,5.806,0,0,1-2.632,4.559C192.243,493.531,191.059,492.852,191.059,491.171Z"/><path class="cls-19" d="M182.97,495.841a5.822,5.822,0,0,1,2.628-4.556c1.452-.844,2.632-.157,2.632,1.52a5.812,5.812,0,0,1-2.632,4.56C184.146,498.205,182.97,497.522,182.97,495.841Z"/><path class="cls-19" d="M174.874,500.515a5.834,5.834,0,0,1,2.631-4.559c1.456-.841,2.633-.161,2.633,1.523a5.813,5.813,0,0,1-2.633,4.563C176.05,502.875,174.874,502.206,174.874,500.515Z"/><path class="cls-19" d="M239.639,473.04a5.812,5.812,0,0,1,2.633-4.556c1.455-.851,2.639-.164,2.639,1.524a5.8,5.8,0,0,1-2.639,4.549C240.816,475.4,239.639,474.725,239.639,473.04Z"/><path class="cls-19" d="M231.54,477.714a5.814,5.814,0,0,1,2.635-4.56c1.459-.843,2.636-.157,2.636,1.521a5.809,5.809,0,0,1-2.636,4.563C232.72,480.078,231.54,479.4,231.54,477.714Z"/><path class="cls-19" d="M223.447,482.385a5.808,5.808,0,0,1,2.632-4.556c1.452-.841,2.629-.161,2.629,1.52a5.823,5.823,0,0,1-2.629,4.559C224.623,484.752,223.447,484.069,223.447,482.385Z"/><path class="cls-19" d="M215.355,487.062a5.835,5.835,0,0,1,2.631-4.563c1.456-.83,2.633-.158,2.633,1.523a5.788,5.788,0,0,1-2.633,4.556C216.531,489.419,215.355,488.743,215.355,487.062Z"/><path class="cls-19" d="M207.258,491.736a5.825,5.825,0,0,1,2.629-4.56c1.455-.844,2.639-.157,2.639,1.524a5.815,5.815,0,0,1-2.639,4.556C208.431,494.1,207.258,493.42,207.258,491.736Z"/><path class="cls-19" d="M199.158,496.41a5.828,5.828,0,0,1,2.633-4.563c1.458-.837,2.635-.158,2.635,1.523a5.809,5.809,0,0,1-2.635,4.563C200.335,498.773,199.158,498.1,199.158,496.41Z"/><path class="cls-19" d="M191.059,501.084a5.809,5.809,0,0,1,2.639-4.556c1.452-.844,2.632-.168,2.632,1.52a5.838,5.838,0,0,1-2.632,4.559C192.243,503.444,191.059,502.764,191.059,501.084Z"/><path class="cls-19" d="M182.97,505.754A5.82,5.82,0,0,1,185.6,501.2c1.452-.844,2.632-.161,2.632,1.512a5.827,5.827,0,0,1-2.632,4.563C184.15,508.121,182.97,507.435,182.97,505.754Z"/><path class="cls-19" d="M174.874,510.431a5.83,5.83,0,0,1,2.631-4.563c1.456-.837,2.636-.154,2.636,1.527a5.8,5.8,0,0,1-2.636,4.556C176.05,512.788,174.874,512.112,174.874,510.431Z"/><path class="cls-19" d="M239.639,482.957a5.811,5.811,0,0,1,2.633-4.563c1.455-.845,2.639-.161,2.639,1.519a5.807,5.807,0,0,1-2.639,4.556C240.816,485.313,239.639,484.627,239.639,482.957Z"/><path class="cls-19" d="M231.54,487.627a5.815,5.815,0,0,1,2.635-4.559c1.459-.845,2.636-.162,2.636,1.512a5.808,5.808,0,0,1-2.636,4.563C232.72,489.98,231.54,489.3,231.54,487.627Z"/><path class="cls-19" d="M223.447,492.308a5.79,5.79,0,0,1,2.632-4.563c1.452-.851,2.629-.168,2.629,1.523a5.828,5.828,0,0,1-2.629,4.556C224.623,494.661,223.447,493.978,223.447,492.308Z"/><path class="cls-19" d="M215.355,496.975a5.792,5.792,0,0,1,2.631-4.56c1.456-.84,2.633-.161,2.633,1.524a5.822,5.822,0,0,1-2.633,4.559C216.531,499.335,215.355,498.659,215.355,496.975Z"/><path class="cls-19" d="M207.258,501.652a5.8,5.8,0,0,1,2.629-4.563c1.455-.836,2.639-.157,2.639,1.513a5.8,5.8,0,0,1-2.639,4.559C208.431,504.009,207.258,503.322,207.258,501.652Z"/><path class="cls-19" d="M199.158,506.323a5.828,5.828,0,0,1,2.633-4.563c1.458-.841,2.635-.165,2.635,1.53a5.771,5.771,0,0,1-2.635,4.545C200.335,508.679,199.158,508,199.158,506.323Z"/><path class="cls-19" d="M191.059,511a5.815,5.815,0,0,1,2.639-4.563c1.452-.84,2.632-.161,2.632,1.523a5.849,5.849,0,0,1-2.632,4.563C192.243,513.357,191.059,512.684,191.059,511Z"/><path class="cls-19" d="M182.97,515.674a5.824,5.824,0,0,1,2.628-4.563c1.459-.837,2.632-.161,2.632,1.52a5.807,5.807,0,0,1-2.632,4.559C184.15,518.03,182.97,517.347,182.97,515.674Z"/><path class="cls-19" d="M174.874,520.348a5.8,5.8,0,0,1,2.631-4.563c1.456-.84,2.636-.158,2.636,1.516a5.777,5.777,0,0,1-2.636,4.559C176.05,522.7,174.874,522.021,174.874,520.348Z"/><path class="cls-19" d="M239.639,492.866a5.815,5.815,0,0,1,2.633-4.567c1.455-.83,2.639-.154,2.639,1.52a5.841,5.841,0,0,1-2.639,4.567C240.816,495.222,239.639,494.543,239.639,492.866Z"/><path class="cls-19" d="M231.54,497.543a5.847,5.847,0,0,1,2.635-4.57c1.459-.833,2.636-.157,2.636,1.524a5.814,5.814,0,0,1-2.636,4.563C232.72,499.9,231.54,499.213,231.54,497.543Z"/><path class="cls-19" d="M223.447,502.206a5.858,5.858,0,0,1,2.632-4.563c1.452-.829,2.629-.146,2.629,1.527a5.8,5.8,0,0,1-2.629,4.563C224.623,504.57,223.447,503.894,223.447,502.206Z"/><path class="cls-19" d="M215.355,506.888a5.814,5.814,0,0,1,2.631-4.567c1.456-.833,2.633-.154,2.633,1.52a5.807,5.807,0,0,1-2.633,4.566C216.531,509.244,215.355,508.565,215.355,506.888Z"/><path class="cls-19" d="M207.258,511.554A5.8,5.8,0,0,1,209.887,507c1.455-.847,2.639-.158,2.639,1.52a5.826,5.826,0,0,1-2.639,4.556C208.431,513.918,207.258,513.235,207.258,511.554Z"/><path class="cls-19" d="M199.158,516.232a5.8,5.8,0,0,1,2.633-4.552c1.458-.844,2.635-.162,2.635,1.516a5.808,5.808,0,0,1-2.635,4.559C200.335,518.6,199.158,517.916,199.158,516.232Z"/><path class="cls-19" d="M191.062,520.909a5.831,5.831,0,0,1,2.636-4.563c1.452-.836,2.632-.161,2.632,1.52a5.8,5.8,0,0,1-2.632,4.559C192.243,523.266,191.062,522.59,191.062,520.909Z"/><path class="cls-19" d="M182.97,525.58a5.838,5.838,0,0,1,2.628-4.563c1.459-.834,2.632-.158,2.632,1.523A5.78,5.78,0,0,1,185.6,527.1C184.15,527.947,182.97,527.257,182.97,525.58Z"/><path class="cls-19" d="M174.874,530.253a5.81,5.81,0,0,1,2.631-4.552c1.46-.851,2.636-.168,2.636,1.52a5.826,5.826,0,0,1-2.636,4.559C176.05,532.621,174.874,531.938,174.874,530.253Z"/><path class="cls-19" d="M239.639,502.782a5.8,5.8,0,0,1,2.633-4.559c1.455-.848,2.639-.168,2.639,1.516a5.82,5.82,0,0,1-2.639,4.556C240.816,505.139,239.639,504.459,239.639,502.782Z"/><path class="cls-19" d="M231.54,507.449a5.826,5.826,0,0,1,2.635-4.559c1.459-.844,2.636-.161,2.636,1.523a5.817,5.817,0,0,1-2.636,4.559C232.727,509.813,231.54,509.133,231.54,507.449Z"/><path class="cls-19" d="M223.447,512.126a5.806,5.806,0,0,1,2.632-4.559c1.452-.84,2.636-.161,2.636,1.516a5.857,5.857,0,0,1-2.636,4.567C224.627,514.483,223.447,513.8,223.447,512.126Z"/><path class="cls-19" d="M215.355,516.8a5.835,5.835,0,0,1,2.631-4.563c1.456-.837,2.633-.154,2.633,1.527a5.8,5.8,0,0,1-2.633,4.552C216.531,519.16,215.355,518.478,215.355,516.8Z"/><path class="cls-19" d="M207.258,521.474a5.821,5.821,0,0,1,2.629-4.563c1.455-.84,2.639-.164,2.639,1.524A5.856,5.856,0,0,1,209.887,523C208.431,523.834,207.258,523.155,207.258,521.474Z"/><path class="cls-19" d="M199.158,526.144a5.8,5.8,0,0,1,2.633-4.555c1.458-.841,2.635-.165,2.635,1.516a5.807,5.807,0,0,1-2.635,4.559C200.335,528.509,199.158,527.825,199.158,526.144Z"/><path class="cls-19" d="M191.062,530.829a5.791,5.791,0,0,1,2.636-4.563c1.452-.851,2.632-.157,2.632,1.513a5.835,5.835,0,0,1-2.632,4.563C192.243,533.182,191.062,532.5,191.062,530.829Z"/><path class="cls-19" d="M182.97,535.492a5.835,5.835,0,0,1,2.628-4.556c1.459-.847,2.632-.164,2.632,1.524a5.813,5.813,0,0,1-2.632,4.559C184.15,537.853,182.97,537.177,182.97,535.492Z"/><path class="cls-19" d="M174.874,540.166a5.826,5.826,0,0,1,2.631-4.563c1.46-.829,2.636-.157,2.636,1.524a5.817,5.817,0,0,1-2.636,4.563C176.05,542.533,174.874,541.851,174.874,540.166Z"/></g><g id="arrow_event_critycal"><path class="cls-89" d="M149.49,89.919V101.78l29.418.008-49.776,49.758L79.36,101.788l29.153-.008V89.919Zm0-10.65V60.614H108.513V79.269Zm0-29.3V38.638H108.513V49.967Zm0-21.978V21.546H108.513v6.443Z"/></g></g></svg>