<svg xmlns="http://www.w3.org/2000/svg" xmlns:xlink="http://www.w3.org/1999/xlink" viewBox="0 0 180.145 600"><defs><style>.cls-1{fill:#73959d;}.cls-2{fill:#85a4aa;}.cls-3{fill:#e7f2f7;}.cls-4{fill:#98b0b5;}.cls-5{fill:#c1ced0;}.cls-6{fill:#899296;}.cls-7{fill:#abb2b5;}.cls-8{fill:#363636;}.cls-9{fill:#1b1b1b;}.cls-10{fill:#2a292a;}.cls-11{fill:#9a9fa1;}.cls-12{fill:#6999d1;}.cls-13{fill:#d2d4db;}.cls-14{fill:#fff;}.cls-15{fill:#949499;}.cls-16{fill:url(#Degradado_sin_nombre_91);}</style><linearGradient id="Degradado_sin_nombre_91" x1="90.073" y1="151.546" x2="90.073" y2="21.546" gradientUnits="userSpaceOnUse"><stop offset="0" stop-color="#bdb219"/><stop offset="0.997" stop-color="#ffed00"/></linearGradient></defs><g id="Capa_1" data-name="Capa 1"><polygon class="cls-1" points="171.375 281.179 91.137 327.897 91.137 573.05 171.37 526.331 171.375 281.179"/><polygon class="cls-2" points="38.617 297.346 41.268 540.804 91.137 573.05 91.137 327.897 38.617 297.346"/><polygon class="cls-3" points="118.855 250.628 171.375 281.179 91.137 327.897 38.617 297.346 118.855 250.628"/><polygon class="cls-4" points="99.463 332.832 99.463 577.984 91.137 573.044 91.137 327.897 99.463 332.832"/><polygon class="cls-5" points="99.463 332.832 99.463 577.984 179.696 531.266 179.701 286.113 99.463 332.832"/><polygon class="cls-6" points="125.703 317.566 125.703 562.615 153.462 546.595 153.462 301.546 125.703 317.566"/><polygon class="cls-3" points="171.375 281.179 179.701 286.113 99.463 332.832 91.137 327.897 171.375 281.179"/><polygon class="cls-7" points="117.022 312.589 125.703 317.566 153.462 301.546 144.782 296.57 117.022 312.589"/><polygon class="cls-1" points="87.414 330.009 52.965 349.913 52.965 595.066 87.409 575.161 87.414 330.009"/><polygon class="cls-2" points="0.445 319.362 0.445 564.509 52.965 595.066 52.965 349.913 0.445 319.362"/><polygon class="cls-3" points="38.617 297.346 91.137 327.897 52.965 349.913 0.444 319.362 38.617 297.346"/><polygon class="cls-5" points="61.291 354.848 61.291 600 95.735 580.096 95.74 334.943 61.291 354.848"/><polygon class="cls-4" points="99.455 516.553 109.089 511.109 109.092 393.258 99.459 398.703 99.455 516.553"/><polygon class="cls-4" points="86.107 523.951 95.74 518.506 95.744 400.656 86.111 406.101 86.107 523.951"/><polygon class="cls-4" points="61.291 354.848 61.291 600 52.965 595.06 52.965 349.913 61.291 354.848"/><polygon class="cls-3" points="87.414 330.009 95.74 334.943 61.291 354.848 52.965 349.913 87.414 330.009"/><polygon class="cls-8" points="131.428 383.39 131.428 416.32 147.737 406.904 147.737 373.975 131.428 383.39"/><polygon class="cls-9" points="131.428 383.387 131.428 415.816 146.391 406.26 146.387 374.744 131.428 383.387"/><polygon class="cls-10" points="131.428 383.387 131.428 415.816 146.387 374.744 131.428 383.387"/><polygon class="cls-11" points="146.391 406.26 147.737 406.904 131.428 416.32 131.428 414.894 146.391 406.26"/><path class="cls-12" d="M134.432,392.6c.168-.1.249-.058.249.181a.473.473,0,0,1-.249.464l-.97.562c-.167.1-.244.06-.244-.175a.481.481,0,0,1,.244-.471Z"/><path class="cls-12" d="M137.555,392.637v-1.071a.418.418,0,0,1,.2-.387c.153-.091.21-.007.21.146v1.338a.436.436,0,0,1-.21.385l-1.626.947c-.109.062-.2.043-.2-.143a.435.435,0,0,1,.2-.388l.608-.354v-3.065l-.608.354c-.109.063-.2.044-.2-.148a.424.424,0,0,1,.2-.382l1.019-.593v3.595Z"/><path class="cls-12" d="M139.338,391.6l1.42-.827c.11-.062.206-.046.206.146a.434.434,0,0,1-.206.385l-1.836,1.066v-1.731a.93.93,0,0,1,.469-.868l1.162-.676v-1.268l-1.421.827c-.109.063-.21.043-.21-.147a.428.428,0,0,1,.21-.383l1.373-.8c.134-.079.229-.111.335-.046s.124.206.124.4v1.085a1,1,0,0,1-.124.55.861.861,0,0,1-.335.342l-1.167.679Z"/><path class="cls-12" d="M143.727,387.146a.908.908,0,0,1-.463.846l-.636.371c-.306.179-.464.078-.464-.309V386.94a.917.917,0,0,1,.464-.849l.636-.37c.306-.177.463-.077.463.311Zm-.416-.98-.736.428v1.324l.736-.428Z"/><path class="cls-12" d="M134.37,387.28l-.081.045c-.081.048-.187.088-.187-.064a.332.332,0,0,1,.187-.29l.081-.045v-.048a1.039,1.039,0,0,1,.129-.579,1.06,1.06,0,0,1,.43-.423l.192-.11c.095-.055.2-.108.2.055a.316.316,0,0,1-.187.287l-.22.129a.442.442,0,0,0-.268.459v.067l.244-.141c.1-.057.2-.086.2.062a.343.343,0,0,1-.2.292l-.244.141v1.377a.342.342,0,0,1-.138.325c-.12.069-.139-.038-.139-.163Z"/><path class="cls-12" d="M136.049,386.213a.353.353,0,0,1,.138-.344c.11-.062.139.041.139.156v.143l.215-.354a.949.949,0,0,1,.248-.3l.225-.128a.251.251,0,0,1,.273-.022c.095.065.124.168.124.33a.343.343,0,0,1-.138.323c-.1.057-.139-.017-.139-.132a.2.2,0,0,0-.029-.136c-.038-.041-.1,0-.167.036l-.086.048a.449.449,0,0,0-.134.16l-.392.636v.889a.346.346,0,0,1-.139.323c-.119.069-.138-.039-.138-.163Z"/><path class="cls-12" d="M138.65,386.412c-.115.067-.163.1-.249.05l-.125-.06c-.105-.062-.138-.124-.138-.316v-.678a.808.808,0,0,1,.138-.5l.1-.163a.741.741,0,0,1,.306-.327l.258-.148c.134-.079.2-.1.311-.05l.11.05c.129.052.143.177.143.373v.282c0,.2-.024.272-.186.37l-.9.522v.114a.1.1,0,0,0,.043.081l.067.055c.038.027.1.013.187-.042l.6-.347c.091-.055.186-.089.186.06a.336.336,0,0,1-.186.289Zm-.235-.949.808-.471v-.211c0-.066,0-.122-.033-.141l-.11-.057c-.033-.019-.086.007-.134.034l-.234.136a.359.359,0,0,0-.139.122l-.1.148a.29.29,0,0,0-.058.191Z"/><path class="cls-12" d="M140.739,385.2c-.115.067-.167.1-.253.051l-.12-.06c-.105-.062-.138-.124-.138-.316v-.679a.835.835,0,0,1,.133-.5l.1-.163a.692.692,0,0,1,.306-.325l.253-.151c.139-.079.206-.1.311-.05l.115.05c.124.055.143.179.143.376v.282c0,.2-.024.272-.191.368l-.894.521v.115a.115.115,0,0,0,.038.081l.072.055c.038.027.095.012.186-.041l.6-.349c.091-.052.191-.086.191.063a.336.336,0,0,1-.191.286Zm-.234-.949.807-.471v-.21c0-.067,0-.122-.038-.141l-.1-.057c-.033-.02-.086.006-.134.033l-.234.138a.413.413,0,0,0-.143.12l-.1.148a.3.3,0,0,0-.057.192Z"/><path class="cls-12" d="M143.326,382.07l-.746.433c-.077.045-.187.086-.187-.067a.328.328,0,0,1,.187-.287l.908-.528c.144-.082.187-.045.187.079v.115a.454.454,0,0,1-.077.241l-.937,1.673.827-.48c.091-.053.187-.086.187.062a.332.332,0,0,1-.187.287l-.971.562c-.19.114-.2.021-.2-.084v-.091a.31.31,0,0,1,.053-.2Z"/><path class="cls-12" d="M133.323,402.157l-.076.046c-.087.047-.192.085-.192-.068a.33.33,0,0,1,.192-.286l.076-.046v-.048a1.057,1.057,0,0,1,.134-.581.978.978,0,0,1,.43-.42l.187-.11c.1-.055.2-.111.2.052a.325.325,0,0,1-.191.289l-.22.127a.439.439,0,0,0-.263.459v.067l.244-.141c.1-.055.191-.084.191.065a.341.341,0,0,1-.191.289l-.244.141v1.377a.345.345,0,0,1-.143.325c-.12.072-.139-.036-.139-.16Z"/><path class="cls-12" d="M135,401.088a.364.364,0,0,1,.139-.344c.11-.062.138.041.138.155v.144l.22-.351a.877.877,0,0,1,.249-.3l.22-.128a.253.253,0,0,1,.273-.02c.095.065.124.168.124.33a.337.337,0,0,1-.134.323c-.1.058-.143-.019-.143-.134a.2.2,0,0,0-.029-.136c-.038-.041-.1,0-.168.036l-.081.048a.418.418,0,0,0-.138.162l-.393.634v.889a.337.337,0,0,1-.138.323c-.12.069-.139-.039-.139-.163Z"/><path class="cls-12" d="M137.918,400.754l.211-.122c.09-.053.19-.086.19.062a.326.326,0,0,1-.19.286l-.708.414c-.082.046-.191.086-.191-.067a.324.324,0,0,1,.191-.282l.219-.129v-1.272l-.219.13c-.082.045-.191.085-.191-.067a.329.329,0,0,1,.191-.287l.291-.17c.163-.093.206-.084.206.127Zm-.421-2.087a.262.262,0,0,1,.134-.244l.158-.094c.076-.043.129-.033.129.091v.168a.251.251,0,0,1-.129.239l-.158.093c-.076.043-.134.038-.134-.086Z"/><path class="cls-12" d="M139.945,397.952a.24.24,0,0,1,.278.033l.043.036v-.741a.342.342,0,0,1,.143-.32c.115-.067.134.04.134.16v2.213a.345.345,0,0,1-.134.323c-.115.065-.143-.038-.143-.153v-.024l-.062.112a.929.929,0,0,1-.268.34l-.268.155a.284.284,0,0,1-.239.015l-.1-.043c-.115-.058-.153-.132-.153-.318v-.708a.845.845,0,0,1,.153-.5l.1-.162a.673.673,0,0,1,.268-.28Zm-.488,1.482c0,.1,0,.225.043.241l.087.039a.1.1,0,0,0,.105.009l.2-.112a.531.531,0,0,0,.134-.17l.162-.268a.389.389,0,0,0,.082-.2v-.445a.108.108,0,0,0-.082-.105l-.162-.077a.128.128,0,0,0-.134-.007l-.2.112a.384.384,0,0,0-.105.129l-.087.134a.634.634,0,0,0-.043.294Z"/><path class="cls-12" d="M141.265,397.837a.882.882,0,0,1,.1-.423l.206-.318a.5.5,0,0,1,.177-.192l.268-.155a.309.309,0,0,1,.272.019l.072.031v-.043a.331.331,0,0,1,.139-.289c.124-.072.138.05.138.17v1.716a.88.88,0,0,1-.138.586l-.091.153a.825.825,0,0,1-.349.354l-.459.268c-.086.047-.2.093-.2-.065a.325.325,0,0,1,.2-.284l.507-.3a.392.392,0,0,0,.138-.162l.072-.122a.367.367,0,0,0,.043-.172v-.484l-.057.111a.946.946,0,0,1-.234.306l-.326.189a.2.2,0,0,1-.21.014l-.172-.1c-.086-.048-.091-.136-.091-.28Zm.277.323c0,.076,0,.15.038.165l.115.045c.024.012.048.007.086-.014l.2-.117a.556.556,0,0,0,.129-.165l.216-.349a.277.277,0,0,0,.028-.132v-.258c0-.048-.009-.091-.028-.1l-.216-.1a.136.136,0,0,0-.129-.017l-.2.117a.231.231,0,0,0-.086.081l-.115.184a.411.411,0,0,0-.038.208Z"/><path class="cls-12" d="M143.871,397.643c-.115.067-.168.1-.254.051l-.119-.061c-.1-.061-.139-.123-.139-.315v-.679a.829.829,0,0,1,.134-.5l.1-.163a.719.719,0,0,1,.306-.327l.258-.149c.133-.079.2-.1.306-.05l.114.05c.129.053.144.177.144.373v.282c0,.2-.024.273-.191.371l-.894.521v.115a.115.115,0,0,0,.038.081l.071.055c.039.027.1.012.187-.043l.6-.347c.09-.052.191-.088.191.06a.331.331,0,0,1-.191.289Zm-.234-.949.808-.471v-.21c0-.067,0-.122-.039-.141l-.105-.057c-.033-.02-.086.006-.134.033l-.234.136a.375.375,0,0,0-.139.122l-.1.148a.293.293,0,0,0-.057.192Z"/><path class="cls-12" d="M137.885,406.872V405.8a.42.42,0,0,1,.21-.385c.153-.088.205-.009.205.144V406.9a.439.439,0,0,1-.205.383l-1.631.947c-.109.064-.205.045-.205-.141a.441.441,0,0,1,.205-.39l.607-.351V404.28l-.607.351c-.109.065-.205.046-.205-.145a.434.434,0,0,1,.205-.386l1.019-.592v3.6Z"/><path class="cls-12" d="M141.059,403.121a.913.913,0,0,1-.463.848l-.636.371c-.306.176-.464.076-.464-.311v-1.114a.911.911,0,0,1,.464-.847l.636-.37c.306-.179.463-.079.463.308Zm-.411-.979-.736.428V403.9l.736-.428Z"/><polygon class="cls-13" points="127.839 397.386 129.628 396.369 129.632 397.733 127.842 398.751 127.839 397.386"/><polygon class="cls-14" points="127.622 397.309 129.411 396.291 129.628 396.369 127.839 397.386 127.622 397.309"/><polygon class="cls-15" points="127.842 398.751 127.626 398.674 127.622 397.309 127.839 397.386 127.842 398.751"/><polygon class="cls-13" points="127.839 400.615 129.628 399.597 129.632 400.961 127.842 401.979 127.839 400.615"/><polygon class="cls-14" points="127.622 400.537 129.411 399.519 129.628 399.597 127.839 400.615 127.622 400.537"/><polygon class="cls-15" points="127.842 401.979 127.626 401.902 127.622 400.537 127.839 400.615 127.842 401.979"/><polygon class="cls-13" points="127.839 403.843 129.628 402.825 129.632 404.189 127.842 405.207 127.839 403.843"/><polygon class="cls-14" points="127.622 403.765 129.411 402.747 129.628 402.825 127.839 403.843 127.622 403.765"/><polygon class="cls-15" points="127.842 405.207 127.626 405.13 127.622 403.765 127.839 403.843 127.842 405.207"/><polygon class="cls-13" points="149.733 384.744 151.522 383.726 151.526 385.091 149.737 386.108 149.733 384.744"/><polygon class="cls-14" points="149.516 384.666 151.306 383.648 151.522 383.726 149.733 384.744 149.516 384.666"/><polygon class="cls-15" points="149.737 386.108 149.52 386.031 149.516 384.666 149.733 384.744 149.737 386.108"/><polygon class="cls-13" points="149.733 387.972 151.522 386.954 151.526 388.319 149.737 389.336 149.733 387.972"/><polygon class="cls-14" points="149.516 387.894 151.306 386.876 151.522 386.954 149.733 387.972 149.516 387.894"/><polygon class="cls-15" points="149.737 389.336 149.52 389.259 149.516 387.894 149.733 387.972 149.737 389.336"/><polygon class="cls-13" points="149.733 391.2 151.522 390.182 151.526 391.547 149.737 392.565 149.733 391.2"/><polygon class="cls-14" points="149.516 391.122 151.306 390.104 151.522 390.182 149.733 391.2 149.516 391.122"/><polygon class="cls-15" points="149.737 392.565 149.52 392.487 149.516 391.122 149.733 391.2 149.737 392.565"/></g><g id="arrow_event_critycal"><path class="cls-16" d="M110.428,89.919V101.78l29.419.008L90.071,151.546,40.3,101.788l29.153-.008V89.919Zm0-10.65V60.614H69.451V79.269Zm0-29.3V38.638H69.451V49.967Zm0-21.978V21.546H69.451v6.443Z"/></g></svg>