<svg xmlns="http://www.w3.org/2000/svg" xmlns:xlink="http://www.w3.org/1999/xlink" viewBox="0 0 186.466 600"><defs><style>.cls-1{isolation:isolate;}.cls-2{fill:#1b2e31;}.cls-3{fill:#a4aeb0;}.cls-4{fill:#355a60;}.cls-5{fill:#5f7174;}.cls-6{fill:#96aaad;}.cls-7{fill:#e6ebec;}.cls-8{fill:#3b7882;}.cls-9{fill:#a6dbf6;}.cls-10{fill:#63b22f;}.cls-11{fill:#2b3235;}.cls-12{fill:#fbbb26;}.cls-13{fill:url(#Degradado_sin_nombre_91);}</style><linearGradient id="Degradado_sin_nombre_91" x1="93.233" y1="151.546" x2="93.233" y2="21.546" gradientUnits="userSpaceOnUse"><stop offset="0" stop-color="#bdb219"/><stop offset="0.997" stop-color="#ffed00"/></linearGradient></defs><g id="Capa_1" data-name="Capa 1"><g class="cls-1"><polygon class="cls-2" points="64.152 600 0.915 563.108 0.915 554.121 64.152 591.013 64.152 600"/><polygon class="cls-3" points="64.152 591.013 0.915 554.121 119.027 485.748 182.264 522.641 64.152 591.013"/><polygon class="cls-4" points="182.264 522.641 182.264 531.627 64.152 600 64.152 591.013 182.264 522.641"/></g><g class="cls-1"><polygon class="cls-5" points="58.59 594.186 4.717 561.859 4.271 314.409 58.141 346.734 58.59 594.186"/><polygon class="cls-6" points="58.141 346.734 4.271 314.409 131.232 241.093 185.105 273.419 58.141 346.734"/><polygon class="cls-7" points="185.105 273.419 185.551 520.87 58.59 594.186 58.141 346.734 185.105 273.419"/></g><polygon class="cls-7" points="55.34 344.69 182.167 271.296 184.811 272.835 184.811 276.272 57.852 349.478 57.852 346.148 55.34 344.69"/><polygon class="cls-8" points="155.507 363.16 155.41 328.532 152.51 330.203 152.598 360.777 85.653 399.429 85.667 403.484 155.507 363.16"/><polygon class="cls-9" points="152.51 330.203 85.565 368.85 85.653 399.429 152.598 360.777 152.51 330.203"/><polygon class="cls-8" points="155.507 412.795 155.41 378.167 152.51 379.838 152.598 410.412 85.653 449.064 85.667 453.119 155.507 412.795"/><polygon class="cls-9" points="152.51 379.838 85.565 418.486 85.653 449.064 152.598 410.412 152.51 379.838"/><path class="cls-4" d="M155.207,446.23a5.736,5.736,0,0,0-.927-.046,4.938,4.938,0,0,0-.624-.026,6.869,6.869,0,0,0-1.148.25c-.193.049-.373.06-.569.124a10.493,10.493,0,0,0-1.845.851l-7.79-4.649c2.531-1.46,4.829-1.6,6.482-.635l7.792,4.649-.021-.012a4.612,4.612,0,0,0-.764-.287A5.213,5.213,0,0,0,155.207,446.23Z"/><path class="cls-4" d="M142.3,442.734l7.79,4.649c-5.01,2.894-9.068,9.922-9.049,15.679a10.037,10.037,0,0,0,.189,1.99c.039.2.122.355.175.548a7.462,7.462,0,0,0,.356,1.1,4.928,4.928,0,0,0,.331.511,5.067,5.067,0,0,0,.507.776,4.7,4.7,0,0,0,.471.389,4.361,4.361,0,0,0,.62.511l-7.794-4.645c-1.63-.95-2.642-2.962-2.65-5.822C133.233,452.656,137.292,445.632,142.3,442.734Z"/><path class="cls-10" d="M142.1,467.208a4.62,4.62,0,0,1-.331-.511,7.462,7.462,0,0,1-.356-1.1c-.053-.193-.136-.348-.175-.548a10.037,10.037,0,0,1-.189-1.99c-.019-5.757,4.039-12.785,9.049-15.679a10.79,10.79,0,0,1,1.845-.851c.2-.064.376-.075.569-.124a6.869,6.869,0,0,1,1.148-.25,4.289,4.289,0,0,1,.624.026,5.736,5.736,0,0,1,.927.046,5.213,5.213,0,0,1,.586.219,4.612,4.612,0,0,1,.764.287c1.642.942,2.661,2.962,2.67,5.829.016,5.754-4.039,12.786-9.072,15.691-2.873,1.656-5.413,1.551-7.081.117a4.7,4.7,0,0,1-.471-.389A4.994,4.994,0,0,1,142.1,467.208Z"/><path class="cls-5" d="M150.094,447.383a10.493,10.493,0,0,1,1.845-.851A10.79,10.79,0,0,0,150.094,447.383Z"/><path class="cls-5" d="M154.28,446.184a5.736,5.736,0,0,1,.927.046A5.736,5.736,0,0,0,154.28,446.184Z"/><path class="cls-5" d="M153.656,446.158a6.869,6.869,0,0,0-1.148.25A6.869,6.869,0,0,1,153.656,446.158Z"/><path class="cls-5" d="M156.557,446.736a4.612,4.612,0,0,0-.764-.287A4.612,4.612,0,0,1,156.557,446.736Z"/><path class="cls-5" d="M141.765,466.7a4.62,4.62,0,0,0,.331.511A4.928,4.928,0,0,1,141.765,466.7Z"/><path class="cls-5" d="M142.6,467.984a4.7,4.7,0,0,0,.471.389A4.7,4.7,0,0,1,142.6,467.984Z"/><path class="cls-5" d="M141.234,465.052c.039.2.122.355.175.548C141.356,465.407,141.273,465.252,141.234,465.052Z"/><path class="cls-4" d="M116.873,463.709a6.725,6.725,0,0,0-1.083-.053,5.658,5.658,0,0,0-.73-.031,8.044,8.044,0,0,0-1.341.292c-.226.058-.436.071-.666.146a12.2,12.2,0,0,0-2.155,1l-9.106-5.434c2.958-1.707,5.644-1.871,7.576-.743l9.108,5.434-.024-.014a5.354,5.354,0,0,0-.894-.336A6.172,6.172,0,0,0,116.873,463.709Z"/><path class="cls-4" d="M101.792,459.624l9.106,5.434c-5.857,3.382-10.6,11.6-10.579,18.327a11.791,11.791,0,0,0,.221,2.325c.047.234.144.415.206.641a8.715,8.715,0,0,0,.416,1.282,5.513,5.513,0,0,0,.387.6,5.961,5.961,0,0,0,.592.907,5.508,5.508,0,0,0,.55.455,5.085,5.085,0,0,0,.726.6l-9.111-5.429c-1.905-1.11-3.088-3.463-3.1-6.805C91.189,471.221,95.933,463.011,101.792,459.624Z"/><path class="cls-10" d="M101.549,488.23a5.228,5.228,0,0,1-.387-.6,8.715,8.715,0,0,1-.416-1.282c-.062-.226-.159-.407-.206-.641a11.791,11.791,0,0,1-.221-2.325c-.022-6.73,4.722-14.945,10.579-18.327a12.489,12.489,0,0,1,2.155-1c.23-.075.44-.088.666-.146a8.044,8.044,0,0,1,1.341-.292,4.885,4.885,0,0,1,.73.031,6.725,6.725,0,0,1,1.083.053,6.172,6.172,0,0,1,.685.256,5.354,5.354,0,0,1,.894.336c1.918,1.1,3.11,3.463,3.121,6.814.018,6.725-4.722,14.944-10.6,18.34-3.358,1.936-6.327,1.813-8.277.137a5.508,5.508,0,0,1-.55-.455A5.813,5.813,0,0,1,101.549,488.23Z"/><path class="cls-5" d="M110.9,465.058a12.2,12.2,0,0,1,2.155-1A12.489,12.489,0,0,0,110.9,465.058Z"/><path class="cls-5" d="M115.79,463.656a6.725,6.725,0,0,1,1.083.053A6.725,6.725,0,0,0,115.79,463.656Z"/><path class="cls-5" d="M115.06,463.625a8.044,8.044,0,0,0-1.341.292A8.044,8.044,0,0,1,115.06,463.625Z"/><path class="cls-5" d="M118.452,464.3a5.354,5.354,0,0,0-.894-.336A5.354,5.354,0,0,1,118.452,464.3Z"/><path class="cls-5" d="M101.162,487.633a5.228,5.228,0,0,0,.387.6A5.513,5.513,0,0,1,101.162,487.633Z"/><path class="cls-5" d="M102.141,489.137a5.508,5.508,0,0,0,.55.455A5.508,5.508,0,0,1,102.141,489.137Z"/><path class="cls-5" d="M100.54,485.71c.047.234.144.415.206.641C100.684,486.125,100.587,485.944,100.54,485.71Z"/><path class="cls-11" d="M103.775,549.57l23.813-60.358c2.077-5.273,7.687-7.833,10.379-4.167l24.069,32.708c2.5,3.377-.106,9.43-3.847,11.591L110.3,556.99C105.787,559.6,101.379,555.651,103.775,549.57Z"/><path class="cls-12" d="M136.076,486.432l24.071,32.711c1.457,1.972-.3,6.533-3.132,8.17l-47.884,27.646c-2.836,1.637-4.609-.888-3.173-4.53l23.812-60.356C130.994,486.966,134.48,484.258,136.076,486.432Z"/><polygon class="cls-11" points="138.755 505.433 131.525 520.257 137.999 516.519 127.765 535.711 132.464 522.039 127.363 524.985 131.02 509.898 138.755 505.433"/></g><g id="arrow_event_critycal"><path class="cls-13" d="M113.589,89.919V101.78l29.418.008L93.231,151.546,43.459,101.788l29.153-.008V89.919Zm0-10.65V60.614H72.612V79.269Zm0-29.3V38.638H72.612V49.967Zm0-21.978V21.546H72.612v6.443Z"/></g></svg>