<svg xmlns="http://www.w3.org/2000/svg"
    xmlns:xlink="http://www.w3.org/1999/xlink" viewBox="0 0 209.069 600">
    <defs>
        <style>.cls-1{fill:#e1d8d0;}.cls-2{fill:#234156;}.cls-3{fill:#436d81;isolation:isolate;opacity:0.3;}.cls-4{fill:#1a3546;}.cls-5{fill:#efe8e1;}.cls-6{fill:#385c72;}.cls-7{fill:#d1c5bb;}.cls-8{fill:url(#Degradado_sin_nombre_91);}</style>
        <linearGradient id="Degradado_sin_nombre_91" x1="104.534" y1="151.546" x2="104.534" y2="21.546" gradientUnits="userSpaceOnUse">
            <stop offset="0" stop-color="#bdb219"/>
            <stop offset="0.997" stop-color="#ffed00"/>
        </linearGradient>
    </defs>
    <g id="Capa_1" data-name="Capa 1">
        <path class="cls-1" d="M1.223,393.314V524.33c0,29.156,40.132,52.792,89.637,52.792S180.5,553.486,180.5,524.33V393.314Z"/>
        <path class="cls-2" d="M90.86,460.026c-49.5,0-89.637-23.636-89.637-52.792V514.985c0,29.156,40.132,52.792,89.637,52.792S180.5,544.141,180.5,514.985V407.233C180.5,436.389,140.364,460.026,90.86,460.026Z"/>
        <path class="cls-3" d="M19.475,439.139V546.89c10.669,8.26,25.366,14.619,42.38,18.045V457.184C44.842,453.758,30.144,447.4,19.475,439.139Z"/>
        <path class="cls-4" d="M154.582,444.353V552.1c16.017-9.537,25.914-22.646,25.914-37.12V407.233C180.5,421.707,170.6,434.816,154.582,444.353Z"/>
        <ellipse class="cls-5" cx="90.86" cy="397.732" rx="89.636" ry="52.792"/>
        <path class="cls-5" d="M180.5,398.064v-6.639A89.636,89.636,0,0,0,90.86,301.789h0A89.636,89.636,0,0,0,1.224,391.425v6.639Z"/>
        <path class="cls-6" d="M97.964,319c-.28.21-28.127,21.268-39.576,42.9C49,379.651,44.1,394.628,41.629,409.791c.242.053.489.085.731.163.439.14.8.892,1.224,1.068,2.426-15.072,7.332-30.515,16.658-48.139,11.227-21.217,38.705-42,38.982-42.207Z"/>
        <path class="cls-6" d="M77.406,311.406c-.252.189-25.383,19.2-36.832,40.834-9.357,17.684-14.236,32.615-16.716,47.72l.036.014c.05.019.1.037.153.055.124.043.25.081.377.117.258.074.519.137.778.211.226.064.454.124.681.184,2.438-14.99,7.269-29.788,16.545-47.32,11.226-21.215,35.989-39.951,36.238-40.137Z"/>
        <path class="cls-6" d="M10.278,568.151a1.048,1.048,0,0,0,1.049-1.049V407.61a1.049,1.049,0,0,0-2.1,0V567.1A1.048,1.048,0,0,0,10.278,568.151Z"/>
        <path class="cls-6" d="M10.279,408.659a1.042,1.042,0,0,0,.523-.14l13.219-7.632a1.049,1.049,0,1,0-1.049-1.817L9.753,406.7a1.049,1.049,0,0,0,.526,1.957Z"/>
        <path class="cls-6" d="M29.011,579a1.048,1.048,0,0,0,1.049-1.049V418.457a1.049,1.049,0,0,0-2.1,0V577.949A1.049,1.049,0,0,0,29.011,579Z"/>
        <path class="cls-6" d="M29.012,419.506a1.042,1.042,0,0,0,.523-.14l13.219-7.632a1.049,1.049,0,1,0-1.049-1.817l-13.219,7.632a1.049,1.049,0,0,0,.526,1.957Z"/>
        <rect class="cls-6" x="18.496" y="556.152" width="2.098" height="21.883" transform="translate(-481.378 300.535) rotate(-60.007)"/>
        <rect class="cls-6" x="18.495" y="543.718" width="2.098" height="21.883" transform="translate(-470.61 294.317) rotate(-60.007)"/>
        <rect class="cls-6" x="18.489" y="531.624" width="2.098" height="21.883" transform="translate(-460.138 288.262) rotate(-60.007)"/>
        <rect class="cls-6" x="18.495" y="519.177" width="2.098" height="21.883" transform="translate(-449.355 282.043) rotate(-60.007)"/>
        <rect class="cls-6" x="18.494" y="506.735" width="2.098" height="21.883" transform="translate(-438.58 275.82) rotate(-60.007)"/>
        <rect class="cls-6" x="18.494" y="494.302" width="2.098" height="21.883" transform="translate(-427.812 269.603) rotate(-60.007)"/>
        <rect class="cls-6" x="18.489" y="482.205" width="2.098" height="21.883" transform="translate(-417.337 263.548) rotate(-60.007)"/>
        <rect class="cls-6" x="18.488" y="469.771" width="2.098" height="21.883" transform="translate(-406.569 257.329) rotate(-60.007)"/>
        <rect class="cls-6" x="18.493" y="457.327" width="2.098" height="21.883" transform="translate(-395.789 251.11) rotate(-60.007)"/>
        <rect class="cls-6" x="18.492" y="444.886" width="2.098" height="21.883" transform="translate(-385.014 244.887) rotate(-60.007)"/>
        <rect class="cls-6" x="18.492" y="432.452" width="2.098" height="21.883" transform="translate(-374.245 238.668) rotate(-60.007)"/>
        <rect class="cls-6" x="18.488" y="420.353" width="2.098" height="21.883" transform="translate(-363.768 232.615) rotate(-60.007)"/>
        <rect class="cls-6" x="18.491" y="407.911" width="2.098" height="21.883" transform="translate(-352.991 226.395) rotate(-60.007)"/>
        <path class="cls-2" d="M103.35,314.306c0,5.043-6.942,9.132-15.5,9.132s-15.5-4.089-15.5-9.132,6.942-9.132,15.5-9.132S103.35,309.263,103.35,314.306Z"/>
        <rect class="cls-2" x="72.34" y="305.175" width="31.009" height="9.132"/>
        <path class="cls-6" d="M103.35,305.175c0,5.043-6.942,9.132-15.5,9.132s-15.5-4.088-15.5-9.132,6.942-9.132,15.5-9.132S103.35,300.131,103.35,305.175Z"/>
        <path class="cls-2" d="M90.891,305.158c0,1.045-1.438,1.892-3.212,1.892s-3.212-.847-3.212-1.892,1.438-1.892,3.212-1.892S90.891,304.113,90.891,305.158Z"/>
        <path class="cls-2" d="M149.209,322.942l-6.293-4.744V262.122c0-4.51-1.324-7.967-3.544-9.248-2.143-1.238-4.741-.256-6.541.781l-28.774,16.6c-7.171,4.139-13.231,15.846-13.231,25.561v9.357H84.533V295.82c0-12.089,7.195-25.711,16.379-31.013l28.772-16.6c4.574-2.64,9.132-2.918,12.834-.78,4.252,2.455,6.691,7.812,6.691,14.7v60.819Z"/>
        <path class="cls-6" d="M42.548,411.912a1.042,1.042,0,0,1-.523-.14l-18.741-10.82a1.049,1.049,0,0,1,1.049-1.817l18.741,10.82a1.049,1.049,0,0,1-.526,1.957Z"/>
        <path class="cls-6" d="M45.8,394.426q.3-.743.614-1.477L29.535,383.2a1.049,1.049,0,0,0-1.049,1.817l17.125,9.887C45.676,394.747,45.738,394.586,45.8,394.426Z"/>
        <path class="cls-6" d="M51.893,379.211q.3-.743.614-1.477l-16.882-9.746a1.049,1.049,0,0,0-1.049,1.817L51.7,379.692C51.766,379.531,51.828,379.371,51.893,379.211Z"/>
        <path class="cls-6" d="M58.106,363.517q.3-.743.614-1.477l-16.882-9.746a1.049,1.049,0,0,0-1.049,1.817L57.914,364C57.979,363.838,58.042,363.677,58.106,363.517Z"/>
        <path class="cls-6" d="M67.924,349.9q.3-.743.614-1.477l-16.882-9.746a1.049,1.049,0,0,0-1.049,1.817l17.125,9.887C67.8,350.216,67.859,350.055,67.924,349.9Z"/>
        <path class="cls-6" d="M78.052,338.05q.3-.743.614-1.477l-16.882-9.746a1.049,1.049,0,0,0-1.049,1.817l17.125,9.887C77.925,338.371,77.987,338.21,78.052,338.05Z"/>
        <ellipse class="cls-7" cx="174.868" cy="580.577" rx="32.978" ry="19.423"/>
        <rect class="cls-7" x="141.889" y="467.606" width="65.957" height="112.971"/>
        <ellipse class="cls-5" cx="174.868" cy="467.606" rx="32.978" ry="19.423"/>
        <ellipse class="cls-1" cx="174.868" cy="467.056" rx="29.334" ry="17.277"/>
        <ellipse class="cls-7" cx="174.868" cy="469.749" rx="28.942" ry="14.584"/>
        <path class="cls-2" d="M164.809,469.879c0,3.426,4.716,6.2,10.533,6.2s10.533-2.777,10.533-6.2-4.716-6.2-10.533-6.2S164.809,466.453,164.809,469.879Z"/>
        <rect class="cls-2" x="164.809" y="463.676" width="21.066" height="6.203"/>
        <path class="cls-6" d="M164.809,463.676c0,3.426,4.716,6.2,10.533,6.2s10.533-2.777,10.533-6.2-4.716-6.2-10.533-6.2S164.809,460.25,164.809,463.676Z"/>
        <ellipse class="cls-2" cx="175.455" cy="463.664" rx="2.182" ry="1.285"/>
        <path class="cls-6" d="M154.772,428.044a8.168,8.168,0,0,1-3.411,6.517c-1.884,1.088-3.411-.067-3.411-2.579a8.17,8.17,0,0,1,3.411-6.517C153.245,424.378,154.772,425.532,154.772,428.044Z"/>
        <path class="cls-2" d="M153.144,429.434a3.353,3.353,0,0,1-1.4,2.675c-.773.446-1.4-.027-1.4-1.059a3.353,3.353,0,0,1,1.4-2.675C152.517,427.929,153.144,428.4,153.144,429.434Z"/>
        <path class="cls-2" d="M166.466,436.252,152.65,428.28c-.445.545-.994,1.034-1.44,1.578-.469.572-.019,1.674-.487,2.246l13.607,7.852c4.871,2.812,8.988,10.764,8.988,17.365v6.356h4.275v-6.356C177.592,449.108,172.705,439.854,166.466,436.252Z"/>
    </g>
    <g id="arrow_event_critycal">
        <animateTransform attributeName="transform" attributeType="XML" type="translate" from="0 0" to="0 75" dur="1.5s" repeatCount="indefinite" />
        <path class="cls-8" d="M124.89,89.919V101.78l29.419.008-49.777,49.758L54.76,101.788l29.153-.008V89.919Zm0-10.65V60.614H83.913V79.269Zm0-29.3V38.638H83.913V49.967Zm0-21.978V21.546H83.913v6.443Z"/>
    </g>
</svg>