<svg xmlns="http://www.w3.org/2000/svg" xmlns:xlink="http://www.w3.org/1999/xlink" viewBox="0 0 179.446 600"><defs><style>.cls-1,.cls-6{fill:#010101;}.cls-1{opacity:0.3;}.cls-2{fill:#0a0b0b;}.cls-3{fill:#585858;}.cls-4{fill:#363636;}.cls-5{fill:#a49d96;}.cls-7{fill:#e6e1dd;}.cls-8{fill:#b5afa7;}.cls-9{fill:#82cddf;}.cls-10{fill:#d7d1c7;}.cls-11{fill:#584a44;}.cls-12{fill:#090909;}.cls-13{fill:#362d2a;}.cls-14{fill:#c94130;}.cls-15{fill:url(#Degradado_sin_nombre_91);}</style><linearGradient id="Degradado_sin_nombre_91" x1="89.723" y1="151.546" x2="89.723" y2="21.546" gradientUnits="userSpaceOnUse"><stop offset="0" stop-color="#bdb219"/><stop offset="0.997" stop-color="#ffed00"/></linearGradient></defs><g id="Capa_1" data-name="Capa 1"><polygon class="cls-1" points="121.445 600 0.504 530.173 58.001 496.963 178.942 566.786 121.445 600"/><polygon class="cls-2" points="78.726 507.614 21.228 540.826 19.282 510.799 20.315 297.592 21.228 293.924 78.726 260.711 78.726 507.614"/><polygon class="cls-3" points="78.726 260.711 21.228 293.924 16.996 293.265 4.336 286.203 0.504 281.958 58.001 248.743 78.726 260.711"/><path class="cls-4" d="M.5,281.956V528.862l20.724,11.964v-246.9Z"/><polygon class="cls-2" points="178.942 565.473 121.445 598.687 119.495 568.656 120.531 355.45 121.445 351.783 178.942 318.568 178.942 565.473"/><polygon class="cls-3" points="178.942 318.568 121.445 351.783 117.209 351.124 26.052 298.739 22.216 294.494 79.718 261.281 178.942 318.568"/><path class="cls-4" d="M22.216,294.494V541.4l99.229,57.291v-246.9Z"/><polygon class="cls-2" points="114.356 578.82 114.356 579.916 29.304 530.808 29.304 453.429 30.247 453.973 114.356 578.82"/><path class="cls-5" d="M30.247,453.973v76.289l84.109,48.558V502.532Z"/><polygon class="cls-4" points="112.344 506.232 112.344 506.509 111.741 506.852 32.922 461.346 32.297 460.304 32.297 459.287 32.922 458.973 33.13 459.091 112.344 506.232"/><polygon class="cls-6" points="112.344 505.526 112.344 506.232 33.755 460.869 33.13 459.82 33.13 459.091 111.741 504.462 112.344 505.526"/><polygon class="cls-4" points="112.344 513.426 112.344 513.702 111.741 514.044 32.922 468.538 32.297 467.496 32.297 466.477 32.922 466.164 33.13 466.283 112.344 513.426"/><polygon class="cls-6" points="112.344 512.717 112.344 513.426 33.755 468.058 33.13 467.013 33.13 466.283 111.741 511.652 112.344 512.717"/><polygon class="cls-4" points="112.344 520.617 112.344 520.895 111.741 521.235 32.922 475.727 32.297 474.686 32.297 473.667 32.922 473.356 33.13 473.475 112.344 520.617"/><polygon class="cls-6" points="112.344 519.907 112.344 520.617 33.755 475.251 33.13 474.205 33.13 473.475 111.741 518.846 112.344 519.907"/><polygon class="cls-4" points="112.344 527.81 112.344 528.085 111.741 528.427 32.922 482.92 32.297 481.878 32.297 480.861 32.922 480.548 33.13 480.666 112.344 527.81"/><polygon class="cls-6" points="112.344 527.099 112.344 527.81 33.755 482.444 33.13 481.397 33.13 480.666 111.741 526.035 112.344 527.099"/><polygon class="cls-4" points="112.344 534.999 112.344 535.277 111.741 535.621 32.922 490.113 32.297 489.07 32.297 488.053 32.922 487.738 33.13 487.857 112.344 534.999"/><polygon class="cls-6" points="112.344 534.293 112.344 534.999 33.755 489.634 33.13 488.589 33.13 487.857 111.741 533.228 112.344 534.293"/><polygon class="cls-4" points="112.344 542.193 112.344 542.471 111.741 542.811 32.922 497.303 32.297 496.262 32.297 495.244 32.922 494.932 33.13 495.05 112.344 542.193"/><polygon class="cls-6" points="112.344 541.485 112.344 542.193 33.755 496.828 33.13 495.781 33.13 495.05 111.741 540.421 112.344 541.485"/><polygon class="cls-4" points="112.344 549.383 112.344 549.661 111.741 550.001 32.922 504.497 32.297 503.456 32.297 502.436 32.922 502.124 33.13 502.242 112.344 549.383"/><polygon class="cls-6" points="112.344 548.677 112.344 549.383 33.755 504.02 33.13 502.971 33.13 502.242 111.741 547.613 112.344 548.677"/><polygon class="cls-4" points="112.344 556.577 112.344 556.853 111.741 557.195 32.922 511.689 32.297 510.647 32.297 509.63 32.922 509.315 33.13 509.434 112.344 556.577"/><polygon class="cls-6" points="112.344 555.868 112.344 556.577 33.755 511.21 33.13 510.165 33.13 509.434 111.741 554.803 112.344 555.868"/><polygon class="cls-4" points="112.344 563.769 112.344 564.044 111.741 564.387 32.922 518.879 32.297 517.836 32.297 516.818 32.922 516.508 33.13 516.626 112.344 563.769"/><polygon class="cls-6" points="112.344 563.059 112.344 563.769 33.755 518.402 33.13 517.356 33.13 516.626 111.741 561.995 112.344 563.059"/><polygon class="cls-4" points="112.344 570.961 112.344 571.238 111.741 571.579 32.922 526.073 32.297 525.027 32.297 524.012 32.922 523.701 33.13 523.82 112.344 570.961"/><polygon class="cls-6" points="112.344 570.25 112.344 570.961 33.755 525.593 33.13 524.547 33.13 523.82 111.741 569.187 112.344 570.25"/><path class="cls-7" d="M83.787,451.81l-.466.267L94.6,464.908l.47-6.59Z"/><path class="cls-5" d="M91.205,459.551l3.392,5.357.47-.266v-6.324l-.47.268Z"/><path class="cls-8" d="M83.321,452.077v6.32L94.6,464.908v-6.322Z"/><polygon class="cls-7" points="93.846 462.446 93.846 463.595 83.765 457.774 83.765 453.162 84.756 453.73 87.538 456.884 93.846 462.446"/><polygon class="cls-9" points="93.846 458.984 93.846 462.446 84.756 457.202 84.756 453.73 93.846 458.984"/><path class="cls-7" d="M70.987,393.692l-2,1.153,35.826,39.472,2-19.94Z"/><path class="cls-5" d="M100.79,423.742l4.025,10.575,2-1.152V414.377l-2,1.156Z"/><path class="cls-10" d="M68.989,394.845v18.786l35.826,20.686V415.533Z"/><path class="cls-7" d="M70.987,374.274l-2,1.152L104.815,414.9l2-19.938Z"/><path class="cls-5" d="M100.79,404.325l4.025,10.573,2-1.152V394.96l-2,1.154Z"/><path class="cls-10" d="M68.989,375.426v18.786L104.815,414.9V396.114Z"/><path class="cls-11" d="M74.808,381.286l-1,.572L97.945,409.33l1.01-14.108Z"/><path class="cls-12" d="M90.683,397.862l7.262,11.468,1.01-.571V395.222l-1.01.572Z"/><path class="cls-13" d="M73.81,381.858v13.536L97.945,409.33V395.794Z"/><polygon class="cls-2" points="96.343 404.062 96.343 406.519 74.764 394.053 74.764 384.185 76.88 385.404 82.836 392.15 96.343 404.062"/><polygon class="cls-9" points="96.343 396.646 96.343 404.062 76.88 392.831 76.88 385.404 96.343 396.646"/><path class="cls-7" d="M70.987,354.855l-2,1.154,35.826,39.47,2-19.938Z"/><path class="cls-5" d="M100.79,384.906l4.025,10.573,2-1.152V375.541l-2,1.154Z"/><path class="cls-10" d="M68.989,356.009V374.8l35.826,20.684V376.7Z"/><path class="cls-7" d="M70.987,328.246l-2,1.155,35.826,46.663,2-27.13Z"/><path class="cls-5" d="M100.79,365.487l4.025,10.577,2-1.154V348.934l-2,1.152Z"/><path class="cls-10" d="M68.989,329.4v25.976l35.826,20.687V350.086Z"/><polygon class="cls-14" points="82.015 345.767 88.241 349.361 88.241 345.852 82.015 342.256 82.015 345.767"/><polygon class="cls-14" points="89.081 346.337 89.081 349.846 91.789 351.411 91.789 347.902 89.081 346.337"/></g><g id="arrow_event_critycal"><path class="cls-15" d="M110.079,89.919V101.78l29.418.008L89.721,151.546,39.949,101.788,69.1,101.78V89.919Zm0-10.65V60.614H69.1V79.269Zm0-29.3V38.638H69.1V49.967Zm0-21.978V21.546H69.1v6.443Z"/></g></svg>