<svg xmlns="http://www.w3.org/2000/svg"
    xmlns:xlink="http://www.w3.org/1999/xlink" viewBox="0 0 183.9 600">
    <defs>
        <style>.cls-1,.cls-8{fill:#010101;}.cls-1{opacity:0.3;}.cls-2{fill:#fff;}.cls-3{fill:#d0cdd3;}.cls-4{fill:#d5d2d1;}.cls-5{fill:#0a0b0b;}.cls-6{fill:#a49d96;}.cls-7{fill:#363636;}.cls-9{fill:#e6e1dd;}.cls-10{fill:#b5afa7;}.cls-11{fill:#82cddf;}.cls-12{fill:#d7d1c7;}.cls-13{fill:#584a44;}.cls-14{fill:#090909;}.cls-15{fill:#362d2a;}.cls-16{fill:#c94130;}.cls-17{fill:url(#Degradado_sin_nombre_91);}</style>
        <linearGradient id="Degradado_sin_nombre_91" x1="91.95" y1="151.546" x2="91.95" y2="21.546" gradientUnits="userSpaceOnUse">
            <stop offset="0" stop-color="#bdb219"/>
            <stop offset="0.997" stop-color="#ffed00"/>
        </linearGradient>
    </defs>
    <g id="Capa_1" data-name="Capa 1">
        <polygon class="cls-1" points="124.302 600 0.958 528.786 59.598 494.916 182.942 566.126 124.302 600"/>
        <polygon class="cls-2" points="80.735 505.778 22.094 539.651 20.11 509.027 21.163 291.585 22.094 287.843 80.735 253.971 80.735 505.778"/>
        <polygon class="cls-2" points="80.735 253.971 22.094 287.843 17.778 287.172 4.867 279.969 0.958 275.64 59.598 241.765 80.735 253.971"/>
        <path class="cls-3" d="M.958,275.638V527.449l21.136,12.2V287.843Z"/>
        <polygon class="cls-4" points="182.942 564.787 124.302 598.661 122.313 568.033 123.37 350.592 124.302 346.852 182.942 312.977 182.942 564.787"/>
        <polygon class="cls-2" points="182.942 312.977 124.302 346.852 119.981 346.18 27.014 292.754 23.102 288.425 81.746 254.552 182.942 312.977"/>
        <path class="cls-3" d="M23.1,288.425V540.232l101.2,58.429V346.852Z"/>
        <polygon class="cls-5" points="117.073 578.4 117.073 579.517 30.331 529.433 30.331 450.517 31.293 451.072 117.073 578.4"/>
        <path class="cls-6" d="M31.293,451.072v77.8l85.78,49.523V500.6Z"/>
        <polygon class="cls-7" points="115.02 504.369 115.02 504.652 114.405 505.001 34.021 458.591 33.383 457.529 33.383 456.492 34.021 456.171 34.232 456.292 115.02 504.369"/>
        <polygon class="cls-8" points="115.02 503.649 115.02 504.369 34.87 458.105 34.232 457.035 34.232 456.292 114.405 502.564 115.02 503.649"/>
        <polygon class="cls-7" points="115.02 511.706 115.02 511.987 114.405 512.336 34.021 465.926 33.383 464.864 33.383 463.824 34.021 463.506 34.232 463.626 115.02 511.706"/>
        <polygon class="cls-8" points="115.02 510.983 115.02 511.706 34.87 465.437 34.232 464.371 34.232 463.626 114.405 509.897 115.02 510.983"/>
        <polygon class="cls-7" points="115.02 519.04 115.02 519.324 114.405 519.671 34.021 473.259 33.383 472.197 33.383 471.157 34.021 470.841 34.232 470.961 115.02 519.04"/>
        <polygon class="cls-8" points="115.02 518.316 115.02 519.04 34.87 472.772 34.232 471.706 34.232 470.961 114.405 517.233 115.02 518.316"/>
        <polygon class="cls-7" points="115.02 526.375 115.02 526.656 114.405 527.006 34.021 480.594 33.383 479.532 33.383 478.494 34.021 478.175 34.232 478.296 115.02 526.375"/>
        <polygon class="cls-8" points="115.02 525.651 115.02 526.375 34.87 480.109 34.232 479.041 34.232 478.296 114.405 524.566 115.02 525.651"/>
        <polygon class="cls-7" points="115.02 533.708 115.02 533.991 114.405 534.342 34.021 487.93 33.383 486.866 33.383 485.829 34.021 485.508 34.232 485.629 115.02 533.708"/>
        <polygon class="cls-8" points="115.02 532.988 115.02 533.708 34.87 487.442 34.232 486.376 34.232 485.629 114.405 531.901 115.02 532.988"/>
        <polygon class="cls-7" points="115.02 541.045 115.02 541.328 114.405 541.675 34.021 495.263 33.383 494.201 33.383 493.163 34.021 492.845 34.232 492.965 115.02 541.045"/>
        <polygon class="cls-8" points="115.02 540.322 115.02 541.045 34.87 494.778 34.232 493.711 34.232 492.965 114.405 539.238 115.02 540.322"/>
        <polygon class="cls-7" points="115.02 548.378 115.02 548.661 114.405 549.008 34.021 502.6 33.383 501.538 33.383 500.498 34.021 500.179 34.232 500.3 115.02 548.378"/>
        <polygon class="cls-8" points="115.02 547.657 115.02 548.378 34.87 502.113 34.232 501.043 34.232 500.3 114.405 546.572 115.02 547.657"/>
        <polygon class="cls-7" points="115.02 555.714 115.02 555.996 114.405 556.344 34.021 509.934 33.383 508.872 33.383 507.835 34.021 507.514 34.232 507.635 115.02 555.714"/>
        <polygon class="cls-8" points="115.02 554.992 115.02 555.714 34.87 509.446 34.232 508.38 34.232 507.635 114.405 553.905 115.02 554.992"/>
        <polygon class="cls-7" points="115.02 563.049 115.02 563.33 114.405 563.679 34.021 517.267 33.383 516.203 33.383 515.166 34.021 514.849 34.232 514.969 115.02 563.049"/>
        <polygon class="cls-8" points="115.02 562.325 115.02 563.049 34.87 516.781 34.232 515.715 34.232 514.969 114.405 561.24 115.02 562.325"/>
        <polygon class="cls-7" points="115.02 570.384 115.02 570.667 114.405 571.014 34.021 524.604 33.383 523.538 33.383 522.502 34.021 522.185 34.232 522.306 115.02 570.384"/>
        <polygon class="cls-8" points="115.02 569.659 115.02 570.384 34.87 524.115 34.232 523.048 34.232 522.306 114.405 568.575 115.02 569.659"/>
        <path class="cls-9" d="M85.9,448.867l-.475.271,11.5,13.087L97.4,455.5Z"/>
        <path class="cls-6" d="M93.461,456.761l3.46,5.464.479-.272V455.5l-.479.273Z"/>
        <path class="cls-10" d="M85.421,449.138v6.446l11.5,6.641v-6.449Z"/>
        <polygon class="cls-9" points="96.155 459.714 96.155 460.885 85.873 454.949 85.873 450.245 86.885 450.825 89.722 454.041 96.155 459.714"/>
        <polygon class="cls-11" points="96.155 456.182 96.155 459.714 86.885 454.366 86.885 450.825 96.155 456.182"/>
        <path class="cls-9" d="M72.842,389.594,70.8,390.769l36.538,40.257,2.037-20.337Z"/>
        <path class="cls-6" d="M103.237,420.241l4.105,10.785,2.037-1.176V410.689l-2.037,1.179Z"/>
        <path class="cls-12" d="M70.8,390.769v19.16l36.538,21.1V411.868Z"/>
        <path class="cls-9" d="M72.842,369.79,70.8,370.965l36.538,40.256,2.037-20.335Z"/>
        <path class="cls-6" d="M103.237,400.438l4.105,10.783,2.037-1.175v-19.16l-2.037,1.178Z"/>
        <path class="cls-12" d="M70.8,370.965v19.159l36.538,21.1V392.064Z"/>
        <path class="cls-13" d="M76.739,376.941l-1.019.583,24.616,28.019,1.03-14.389Z"/>
        <path class="cls-14" d="M92.929,393.846l7.407,11.7,1.03-.583V391.154l-1.03.583Z"/>
        <path class="cls-15" d="M75.72,377.524V391.33l24.616,14.213V391.737Z"/>
        <polygon class="cls-5" points="98.702 400.17 98.702 402.675 76.694 389.962 76.694 379.898 78.852 381.141 84.926 388.021 98.702 400.17"/>
        <polygon class="cls-11" points="98.702 392.607 98.702 400.17 78.852 388.715 78.852 381.141 98.702 392.607"/>
        <path class="cls-9" d="M72.842,349.985,70.8,351.162l36.538,40.254,2.037-20.334Z"/>
        <path class="cls-6" d="M103.237,380.633l4.105,10.783,2.037-1.175V371.082l-2.037,1.177Z"/>
        <path class="cls-12" d="M70.8,351.162v19.16l36.538,21.094V372.259Z"/>
        <path class="cls-9" d="M72.842,322.848,70.8,324.025l36.538,47.591,2.037-27.67Z"/>
        <path class="cls-6" d="M103.237,360.829l4.105,10.787,2.037-1.178V343.946l-2.037,1.176Z"/>
        <path class="cls-12" d="M70.8,324.025v26.492l36.538,21.1V345.122Z"/>
        <polygon class="cls-16" points="84.089 340.717 90.439 344.382 90.439 340.803 84.089 337.136 84.089 340.717"/>
        <polygon class="cls-16" points="91.295 341.298 91.295 344.876 94.057 346.472 94.057 342.893 91.295 341.298"/>
    </g>
    <g id="arrow_event_critycal">
        <animateTransform attributeName="transform" attributeType="XML" type="translate" from="0 0" to="0 75" dur="1.5s" repeatCount="indefinite" />
        <path class="cls-17" d="M112.306,89.919V101.78l29.418.008L91.948,151.546,42.176,101.788l29.153-.008V89.919Zm0-10.65V60.614H71.329V79.269Zm0-29.3V38.638H71.329V49.967Zm0-21.978V21.546H71.329v6.443Z"/>
    </g>
</svg>