<svg xmlns="http://www.w3.org/2000/svg" xmlns:xlink="http://www.w3.org/1999/xlink" viewBox="0 0 390.182 600"><defs><style>.cls-1{fill:#a0a3a2;}.cls-2{fill:#c1c6c7;}.cls-3{fill:#e9eced;}.cls-10,.cls-11,.cls-12,.cls-13,.cls-14,.cls-15,.cls-16,.cls-17,.cls-18,.cls-19,.cls-4,.cls-5,.cls-6,.cls-7,.cls-8,.cls-9{opacity:0.4;}.cls-4{fill:url(#linear-gradient);}.cls-5{fill:url(#linear-gradient-2);}.cls-6{fill:url(#linear-gradient-3);}.cls-7{fill:url(#linear-gradient-4);}.cls-8{fill:url(#linear-gradient-5);}.cls-9{fill:url(#linear-gradient-6);}.cls-10{fill:url(#linear-gradient-7);}.cls-11{fill:url(#linear-gradient-8);}.cls-12{fill:url(#linear-gradient-9);}.cls-13{fill:url(#linear-gradient-10);}.cls-14{fill:url(#linear-gradient-11);}.cls-15{fill:url(#linear-gradient-12);}.cls-16{fill:url(#linear-gradient-13);}.cls-17{fill:url(#linear-gradient-14);}.cls-18{fill:url(#linear-gradient-15);}.cls-19{fill:url(#linear-gradient-16);}.cls-20{fill:#3c3c3f;}.cls-21{fill:#606065;}.cls-22{fill:#49494e;}.cls-23{fill:#e4e0dc;}.cls-24{fill:#a39c94;}.cls-25{fill:#d6cfc5;}.cls-26{fill:#584a44;}.cls-27{fill:#090909;}.cls-28{fill:#362d2a;}.cls-29{fill:#0a0b0b;}.cls-30{fill:#82cdde;}.cls-31{fill:#c8432f;}.cls-32{fill:#66b32e;}</style><linearGradient id="linear-gradient" x1="143.325" y1="406.084" x2="141.958" y2="408.451" gradientUnits="userSpaceOnUse"><stop offset="0" stop-color="#505557"/><stop offset="1" stop-color="#6b6f70"/></linearGradient><linearGradient id="linear-gradient-2" x1="143.325" y1="411.198" x2="141.958" y2="413.565" xlink:href="#linear-gradient"/><linearGradient id="linear-gradient-3" x1="143.325" y1="416.312" x2="141.958" y2="418.68" xlink:href="#linear-gradient"/><linearGradient id="linear-gradient-4" x1="143.325" y1="421.426" x2="141.958" y2="423.794" xlink:href="#linear-gradient"/><linearGradient id="linear-gradient-5" x1="143.325" y1="426.54" x2="141.958" y2="428.907" xlink:href="#linear-gradient"/><linearGradient id="linear-gradient-6" x1="143.325" y1="431.654" x2="141.958" y2="434.021" xlink:href="#linear-gradient"/><linearGradient id="linear-gradient-7" x1="143.325" y1="436.768" x2="141.958" y2="439.135" xlink:href="#linear-gradient"/><linearGradient id="linear-gradient-8" x1="143.325" y1="441.882" x2="141.958" y2="444.249" xlink:href="#linear-gradient"/><linearGradient id="linear-gradient-9" x1="196.672" y1="436.884" x2="195.305" y2="439.252" xlink:href="#linear-gradient"/><linearGradient id="linear-gradient-10" x1="196.672" y1="441.998" x2="195.305" y2="444.366" xlink:href="#linear-gradient"/><linearGradient id="linear-gradient-11" x1="196.672" y1="447.112" x2="195.305" y2="449.48" xlink:href="#linear-gradient"/><linearGradient id="linear-gradient-12" x1="196.672" y1="452.226" x2="195.305" y2="454.594" xlink:href="#linear-gradient"/><linearGradient id="linear-gradient-13" x1="196.672" y1="457.34" x2="195.305" y2="459.708" xlink:href="#linear-gradient"/><linearGradient id="linear-gradient-14" x1="196.672" y1="462.454" x2="195.305" y2="464.822" xlink:href="#linear-gradient"/><linearGradient id="linear-gradient-15" x1="196.672" y1="467.568" x2="195.305" y2="469.936" xlink:href="#linear-gradient"/><linearGradient id="linear-gradient-16" x1="196.672" y1="472.682" x2="195.305" y2="475.05" xlink:href="#linear-gradient"/></defs><g id="Capa_1" data-name="Capa 1"><g id="_5" data-name="5"><g id="_5-2" data-name="5"><g id="Axonometric_Cube" data-name="Axonometric Cube"><polygon id="Cube_face_-_left" data-name="Cube face - left" class="cls-1" points="226.222 544.16 112.804 478.678 112.804 367.674 226.222 433.157 226.222 544.16"/><polygon id="Cube_face_-_right" data-name="Cube face - right" class="cls-2" points="389.12 450.111 226.222 544.16 226.222 433.157 389.12 339.107 389.12 450.111"/><polygon id="Cube_face_-_top" data-name="Cube face - top" class="cls-3" points="226.222 433.157 112.804 367.674 275.702 273.625 389.12 339.107 226.222 433.157"/></g><polygon class="cls-4" points="162.773 420.469 122.509 397.223 122.509 394.066 162.773 417.313 162.773 420.469"/><polygon class="cls-5" points="162.773 425.583 122.509 402.337 122.509 399.18 162.773 422.427 162.773 425.583"/><polygon class="cls-6" points="162.773 430.697 122.509 407.451 122.509 404.294 162.773 427.541 162.773 430.697"/><polygon class="cls-7" points="162.773 435.811 122.509 412.565 122.509 409.408 162.773 432.654 162.773 435.811"/><polygon class="cls-8" points="162.773 440.925 122.509 417.679 122.509 414.522 162.773 437.768 162.773 440.925"/><polygon class="cls-9" points="162.773 446.039 122.509 422.793 122.509 419.636 162.773 442.882 162.773 446.039"/><polygon class="cls-10" points="162.773 451.153 122.509 427.907 122.509 424.75 162.773 447.996 162.773 451.153"/><polygon class="cls-11" points="162.773 456.267 122.509 433.02 122.509 429.864 162.773 453.111 162.773 456.267"/><polygon class="cls-12" points="216.121 451.27 175.857 428.023 175.857 424.866 216.121 448.113 216.121 451.27"/><polygon class="cls-13" points="216.121 456.384 175.857 433.137 175.857 429.98 216.121 453.227 216.121 456.384"/><polygon class="cls-14" points="216.121 461.497 175.857 438.251 175.857 435.095 216.121 458.341 216.121 461.497"/><polygon class="cls-15" points="216.121 466.611 175.857 443.365 175.857 440.208 216.121 463.455 216.121 466.611"/><polygon class="cls-16" points="216.121 471.725 175.857 448.479 175.857 445.322 216.121 468.569 216.121 471.725"/><polygon class="cls-17" points="216.121 476.839 175.857 453.593 175.857 450.436 216.121 473.683 216.121 476.839"/><polygon class="cls-18" points="216.121 481.954 175.857 458.707 175.857 455.55 216.121 478.797 216.121 481.954"/><polygon class="cls-19" points="216.121 487.067 175.857 463.821 175.857 460.664 216.121 483.911 216.121 487.067"/></g><polygon class="cls-20" points="82.898 600 1.061 552.558 1.242 515.97 83.079 563.412 82.898 600"/><polygon class="cls-21" points="83.138 563.707 1.242 515.97 127.033 444.425 208.87 491.867 83.138 563.707"/><polygon class="cls-22" points="208.87 491.867 208.689 528.455 82.898 600 83.079 563.412 208.87 491.867"/></g><path class="cls-23" d="M375.659,385.71l-1.865-18.619-33.452,36.857,1.865,1.076Z"/><path class="cls-24" d="M373.794,384.631l1.865,1.079V368.167l-1.865-1.076-3.759,9.874Z"/><path class="cls-25" d="M373.794,384.631v-17.54l-33.452,19.315v17.542Z"/><path class="cls-23" d="M375.659,403.841l-1.865-18.618L340.342,422.08l1.865,1.076Z"/><path class="cls-24" d="M373.794,402.763l1.865,1.078V386.3l-1.865-1.076-3.759,9.873Z"/><path class="cls-25" d="M373.794,402.763v-17.54l-33.452,19.315V422.08Z"/><path class="cls-26" d="M368.322,403.6l-.943-13.173-22.536,25.652.932.534Z"/><path class="cls-27" d="M367.379,403.062l.943.533V390.956l-.943-.534L360.6,401.131Z"/><path class="cls-28" d="M367.379,403.062v-12.64l-22.536,13.013v12.639Z"/><polygon class="cls-29" points="365.883 395.341 365.883 393.047 345.734 404.687 345.734 413.901 347.71 412.763 353.271 406.464 365.883 395.341"/><polygon class="cls-30" points="365.883 402.265 365.883 395.341 347.71 405.829 347.71 412.763 365.883 402.265"/><path class="cls-23" d="M375.659,421.973l-1.865-18.618L340.342,440.21l1.865,1.078Z"/><path class="cls-24" d="M373.794,420.9l1.865,1.078V404.431l-1.865-1.076-3.759,9.873Z"/><path class="cls-25" d="M373.794,420.9v-17.54l-33.452,19.314V440.21Z"/><path class="cls-23" d="M375.659,446.816l-1.865-25.332-33.452,43.571,1.865,1.078Z"/><path class="cls-24" d="M373.794,445.74l1.865,1.076V422.562l-1.865-1.078-3.759,9.876Z"/><path class="cls-25" d="M373.794,445.74V421.484L340.342,440.8v24.254Z"/><polygon class="cls-31" points="352.505 449.773 358.318 446.417 358.318 449.694 352.505 453.052 352.505 449.773"/><polygon class="cls-31" points="359.102 449.241 359.102 445.965 361.631 444.504 361.631 447.78 359.102 449.241"/></g><g id="arrow_event_critycal"><circle id="Encendido2" class="cls-32" cx="180.468" cy="266.011" r="32.665"/></g></svg>