<svg xmlns="http://www.w3.org/2000/svg" viewBox="0 0 267.552 600"><defs><style>.cls-1,.cls-8{fill:#d2c6c7;}.cls-2{fill:#e0d9d9;}.cls-3{fill:#d7d5d5;}.cls-4{fill:#f0ecec;}.cls-5{fill:#9c9b9b;}.cls-6{fill:#b1a1a1;}.cls-7{fill:#291f4b;}.cls-8,.cls-9{stroke:#342556;stroke-miterlimit:10;}.cls-8{stroke-width:5px;}.cls-9{fill:none;stroke-width:3px;}.cls-10{fill:#c2b5b5;}.cls-11{fill:#5a5151;}.cls-12{fill:#eaf3f9;}.cls-13{fill:#877979;}.cls-14{fill:#342556;}.cls-15{fill:#66b32e;}</style></defs><g id="Capa_1" data-name="Capa 1"><polygon class="cls-1" points="249.631 341.97 249.631 542.028 162.816 600 162.816 399.942 249.631 341.97"/><polygon class="cls-2" points="162.816 399.942 162.816 600 17.921 531.205 17.921 331.148 162.816 399.942"/><polygon class="cls-3" points="249.631 341.97 162.816 399.942 17.921 331.148 104.736 273.176 249.631 341.97"/><polygon class="cls-1" points="266.644 321.028 266.644 347.567 167.08 414.052 167.08 387.513 266.644 321.028"/><polygon class="cls-2" points="167.08 387.513 167.08 414.052 0.907 335.155 0.907 308.616 167.08 387.513"/><polygon class="cls-4" points="266.644 321.028 167.08 387.513 0.907 308.616 100.471 242.131 266.644 321.028"/><polygon class="cls-2" points="174.807 423.738 192.121 450.555 192.121 470.245 174.807 461.67 174.807 423.738"/><polygon class="cls-5" points="230.858 387.837 248.173 414.654 248.173 434.344 230.858 425.77 230.858 387.837"/><polygon class="cls-4" points="174.807 423.738 230.858 387.837 248.173 414.654 192.121 450.555 174.807 423.738"/><polyline class="cls-6" points="192.121 450.555 192.121 470.245 248.173 434.344 248.173 414.654 192.121 450.555"/><polygon class="cls-7" points="200.663 498.744 220.147 486.265 220.147 483.313 200.663 495.792 200.663 498.744"/><polygon class="cls-7" points="200.663 504.965 220.147 492.486 220.147 489.534 200.663 502.013 200.663 504.965"/><polygon class="cls-7" points="200.663 511.186 220.147 498.707 220.147 495.755 200.663 508.234 200.663 511.186"/><polygon class="cls-7" points="200.663 517.407 220.147 504.928 220.147 501.976 200.663 514.455 200.663 517.407"/><polygon class="cls-7" points="200.663 523.628 220.147 511.149 220.147 508.197 200.663 520.676 200.663 523.628"/><polygon class="cls-7" points="200.663 529.849 220.147 517.37 220.147 514.418 200.663 526.897 200.663 529.849"/><polygon class="cls-7" points="200.663 536.07 220.147 523.591 220.147 520.639 200.663 533.118 200.663 536.07"/><polygon class="cls-7" points="200.663 542.291 220.147 529.812 220.147 526.86 200.663 539.339 200.663 542.291"/><polygon class="cls-7" points="200.663 548.512 220.147 536.033 220.147 533.081 200.663 545.56 200.663 548.512"/><polygon class="cls-7" points="200.663 554.733 220.147 542.254 220.147 539.302 200.663 551.781 200.663 554.733"/><polyline class="cls-8" points="76.62 449.279 61.785 458.78 61.785 490.056 76.62 480.555"/><polygon class="cls-2" points="90.368 554.956 90.368 390.745 153.754 420.628 153.754 585.051 90.368 554.956"/><polygon class="cls-9" points="26.982 524.861 26.982 360.438 153.754 420.628 153.754 585.051 26.982 524.861"/><polygon class="cls-10" points="90.368 553.287 152.482 514.418 152.482 420.862 90.368 391.922 90.368 553.287"/><polygon class="cls-1" points="110.328 540.796 110.328 401.222 152.482 420.862 152.482 558.713 110.328 540.796"/><polygon class="cls-6" points="109.27 478.438 141.076 492.896 141.076 543.174 109.27 528.716 109.27 478.438"/><polygon class="cls-11" points="111.524 484.128 138.823 496.538 138.823 506.875 111.524 494.465 111.524 484.128"/><polygon class="cls-11" points="111.524 500.16 138.823 512.569 138.823 522.906 111.524 510.497 111.524 500.16"/><polygon class="cls-11" points="111.524 515.597 138.823 528.007 138.823 538.344 111.524 525.935 111.524 515.597"/><polygon class="cls-12" points="117.606 475.451 109.27 478.438 141.076 492.896 149.412 489.909 117.606 475.451"/><polygon class="cls-13" points="141.076 543.174 149.412 540.187 149.412 489.909 141.076 492.896 141.076 543.174"/><polygon class="cls-14" points="116.536 423.57 148.437 439.025 148.437 429.262 116.536 413.807 116.536 423.57"/><polygon class="cls-14" points="116.536 436.18 148.437 451.635 148.437 441.871 116.536 426.416 116.536 436.18"/><polygon class="cls-14" points="116.536 448.789 148.437 464.244 148.437 454.48 116.536 439.025 116.536 448.789"/><polygon class="cls-14" points="116.536 461.398 148.437 476.853 148.437 467.09 116.536 451.635 116.536 461.398"/></g><g id="arrow_event_critycal"><circle id="Encendido2" class="cls-15" cx="198.937" cy="228.619" r="32.665"/></g></svg>