<svg xmlns="http://www.w3.org/2000/svg" viewBox="0 0 186.947 600"><defs><style>.cls-1{isolation:isolate;}.cls-2{fill:#28306b;}.cls-3{fill:#1e2144;}.cls-4{fill:#8bcac3;}.cls-5{fill:#010101;mix-blend-mode:multiply;}.cls-6{fill:#282929;}.cls-7{fill:#6c4449;}.cls-8{fill:#83575f;}.cls-9{fill:#57343a;}.cls-10{fill:#6088a0;}.cls-11,.cls-12{fill:#83a4bf;}.cls-12{mix-blend-mode:overlay;}.cls-13{fill:#fed86d;}.cls-14{fill:#bdbec0;}.cls-15{fill:#d1d1d1;}.cls-16{fill:#9d9d9e;}.cls-17{fill:#66b32e;}</style></defs><g class="cls-1"><g id="Capa_1" data-name="Capa 1"><polygon class="cls-2" points="53.522 239.111 160.025 299.042 185.893 313.735 131.937 344.889 67.215 307.518 67.137 307.565 1.053 269.407 53.522 239.111"/><polygon class="cls-2" points="131.934 515.885 131.978 515.858 131.934 430.374 131.978 430.357 131.934 344.928 185.893 313.758 185.893 399.215 185.893 399.459 185.893 484.724 185.893 484.907 185.893 570.18 185.893 570.268 131.978 599.997 131.934 515.885"/><polygon class="cls-3" points="65.897 306.824 65.897 306.742 131.978 344.889 131.978 430.342 131.978 430.628 131.978 515.855 131.978 516.078 131.978 599.997 131.961 600 1.09 524.79 1.09 440.591 1.09 440.372 1.09 355.144 1.09 354.86 1.09 269.412 65.897 306.824"/><path class="cls-4" d="M65.179,422.065a10.782,10.782,0,0,0,4.894,8.44c2.705,1.561,4.9.313,4.9-2.789a10.792,10.792,0,0,0-4.9-8.443C67.371,417.71,65.179,418.96,65.179,422.065Zm1.25.72c0-2.311,1.632-3.239,3.644-2.079a8.032,8.032,0,0,1,3.645,6.286c0,2.311-1.63,3.243-3.645,2.081A8.035,8.035,0,0,1,66.429,422.785Z"/><rect class="cls-5" x="60.259" y="307.856" width="2.42" height="246.216"/><polygon class="cls-6" points="128.436 372.44 128.463 345.441 96.717 328.654 96.717 355.654 96.717 362.674 96.717 382.679 96.717 389.676 96.717 416.623 96.717 409.758 96.717 436.762 128.436 453.554 128.463 426.469 128.436 426.464 128.463 399.468 128.436 399.459 128.463 372.446 128.436 372.44"/><polygon class="cls-7" points="125.37 352.139 102.443 338.903 102.443 338.908 101.242 339.599 101.242 375.922 101.254 375.915 124.174 389.151 125.37 388.461 106.94 377.819 125.37 388.461 125.37 352.139"/><polygon class="cls-8" points="102.448 338.903 101.254 339.589 124.179 352.825 125.37 352.139 102.448 338.903"/><polygon class="cls-9" points="125.37 352.134 124.169 352.83 124.169 389.151 125.37 388.461 125.37 352.134"/><polygon class="cls-10" points="122.366 353.313 100.6 340.748 101.344 340.318 123.105 352.883 122.366 353.313"/><polygon class="cls-11" points="122.361 388.26 100.6 375.693 100.6 340.748 122.361 353.308 122.361 388.26"/><polygon class="cls-10" points="122.361 388.26 122.361 353.313 123.11 352.878 123.11 387.827 122.361 388.26"/><polygon class="cls-8" points="125.194 359.426 124.381 359.894 124.381 356.136 125.194 355.668 125.194 359.426"/><polygon class="cls-8" points="125.194 363.53 124.381 363.992 124.381 360.234 125.194 359.767 125.194 363.53"/><path class="cls-8" d="M125.119,387.322a.6.6,0,0,1-.281.49h0c-.154.095-.281.021-.281-.159v-7.2a.626.626,0,0,1,.281-.489h0c.16-.09.281-.015.281.159Z"/><polygon class="cls-12" points="114.579 368.511 114.579 352.559 108.472 349.03 108.472 349.03 103.428 346.111 103.428 365.954 103.428 365.954 103.428 365.964 114.579 372.408 114.579 372.398 114.579 368.511 114.579 368.511"/><path class="cls-12" d="M120.011,378.951V354.059l-9.535-5.509a.017.017,0,0,0,.01,0L102.609,344V374.97h0v.01l17.4,10.047v-6.076Z"/><polygon class="cls-12" points="103.182 372.243 109.737 354.398 122.222 354.616 122.382 355.106 122.382 353.308 100.62 340.748 100.62 375.693 105.181 378.329 103.182 372.243"/><path class="cls-13" d="M101.705,385.76a4.377,4.377,0,0,0,1.982,3.423h0c1.1.634,1.984.129,1.984-1.137h0a4.341,4.341,0,0,0-1.989-3.412h0c-1.09-.639-1.977-.129-1.977,1.126Z"/><path class="cls-13" d="M109.071,388.28a2.7,2.7,0,0,0,1.234,2.111h0c.671.388,1.223.08,1.218-.7h0a2.689,2.689,0,0,0-1.224-2.115h0c-.674-.389-1.228-.075-1.228.7Z"/><path class="cls-13" d="M114.972,406.422a5.81,5.81,0,0,0,2.637,4.55h0c1.457.84,2.636.165,2.636-1.5h0a5.8,5.8,0,0,0-2.636-4.546h0c-1.455-.841-2.637-.17-2.637,1.5Z"/><polygon class="cls-14" points="121.245 392.851 122.727 391.995 118.348 389.471 116.865 390.321 121.245 392.851"/><polygon class="cls-15" points="121.245 394.776 121.245 392.851 116.865 390.321 116.865 392.244 121.245 394.776"/><polygon class="cls-16" points="121.245 394.776 122.727 393.92 122.727 391.995 121.245 392.851 121.245 394.776"/><polygon class="cls-14" points="121.245 397.131 122.727 396.275 118.348 393.744 116.865 394.6 121.245 397.131"/><polygon class="cls-15" points="121.245 399.056 121.245 397.131 116.865 394.6 116.865 396.519 121.245 399.056"/><polygon class="cls-16" points="121.245 399.056 122.727 398.198 122.727 396.275 121.245 397.131 121.245 399.056"/></g><g id="arrow_event_critycal"><circle id="Encendido2" class="cls-17" cx="145.825" cy="239.982" r="32.665"/></g></g></svg>