<svg xmlns="http://www.w3.org/2000/svg" xmlns:xlink="http://www.w3.org/1999/xlink" viewBox="0 0 202.584 600"><defs><style>.cls-1{isolation:isolate;}.cls-2{fill:#623942;}.cls-3{fill:#81505a;}.cls-4{fill:#71454e;}.cls-5{fill:#bbceec;}.cls-6{fill:#ebf1fb;}.cls-7{fill:#ccdaf1;}.cls-8{fill:#2b3235;}.cls-9{fill:#505860;}.cls-10{fill:#fff;}.cls-11{fill:#fbbb26;}.cls-12{fill:#b0b8cf;}.cls-13{fill:#9ea9c8;}.cls-14{fill:#e3e7f0;}.cls-15{fill:#c9cee2;}.cls-16{fill:#ea526f;}.cls-17{fill:#f7ce6d;}.cls-18{fill:#68acdf;}.cls-19{fill:#6089c7;}.cls-20{fill:#87bf54;}.cls-21{fill:#67b765;}.cls-22{opacity:0.3;}.cls-23{fill:#4c71b6;}.cls-24{fill:#dbe5f6;}.cls-25{fill:url(#Degradado_sin_nombre_309);}</style><linearGradient id="Degradado_sin_nombre_309" x1="8.831" y1="1297.93" x2="-119.272" y2="1297.93" gradientTransform="translate(1399.222 138.424) rotate(90)" gradientUnits="userSpaceOnUse"><stop offset="0" stop-color="#a11d19"/><stop offset="0.997" stop-color="#e52621"/></linearGradient></defs><g id="Capa_1" data-name="Capa 1"><g id="_76" data-name="76"><g class="cls-1"><polygon class="cls-2" points="67.966 600 0.982 561.073 0.982 553.027 67.966 591.954 67.966 600"/><polygon class="cls-3" points="67.966 591.954 0.982 553.027 124.02 481.994 201.602 514.799 67.966 591.954"/><polygon class="cls-4" points="201.602 514.799 201.602 522.845 67.966 600 67.966 591.954 201.602 514.799"/></g><g class="cls-1"><polygon class="cls-5" points="67.434 587.54 8.77 553.449 8.214 315.518 66.878 349.609 67.434 587.54"/><polygon class="cls-6" points="66.878 349.609 8.214 315.518 133.395 243.245 192.059 277.336 66.878 349.609"/><polygon class="cls-7" points="192.627 515.269 67.403 587.549 66.883 349.622 192.043 277.342 192.627 515.269"/></g><g class="cls-1"><path class="cls-8" d="M188.1,462.9l-.063,22.032a1.992,1.992,0,0,1-1.17,1.627,6.284,6.284,0,0,1-5.705-.017,1.967,1.967,0,0,1-1.155-1.631l.062-22.032a1.968,1.968,0,0,0,1.156,1.631,6.281,6.281,0,0,0,5.705.016A1.991,1.991,0,0,0,188.1,462.9Z"/><path class="cls-9" d="M186.882,461.223c1.61.93,1.618,2.391.047,3.3a6.281,6.281,0,0,1-5.705-.016c-1.553-.9-1.533-2.375.01-3.272A6.214,6.214,0,0,1,186.882,461.223Z"/></g><g class="cls-1"><path class="cls-8" d="M188.1,397.656l-.063,22.032a1.992,1.992,0,0,1-1.17,1.627,6.284,6.284,0,0,1-5.705-.017,1.967,1.967,0,0,1-1.155-1.631l.062-22.032a1.968,1.968,0,0,0,1.156,1.631,6.281,6.281,0,0,0,5.705.016A1.991,1.991,0,0,0,188.1,397.656Z"/><path class="cls-9" d="M186.882,395.978c1.61.93,1.618,2.391.047,3.3a6.281,6.281,0,0,1-5.705-.016c-1.553-.9-1.533-2.375.01-3.272A6.214,6.214,0,0,1,186.882,395.978Z"/></g><g class="cls-1"><path class="cls-8" d="M188.1,332.411l-.063,22.032a1.992,1.992,0,0,1-1.17,1.627,6.284,6.284,0,0,1-5.705-.017,1.967,1.967,0,0,1-1.155-1.631l.062-22.032a1.968,1.968,0,0,0,1.156,1.631,6.281,6.281,0,0,0,5.705.016A1.991,1.991,0,0,0,188.1,332.411Z"/><path class="cls-9" d="M186.882,330.733c1.61.93,1.618,2.391.047,3.3a6.281,6.281,0,0,1-5.705-.016c-1.553-.9-1.533-2.375.01-3.272A6.214,6.214,0,0,1,186.882,330.733Z"/></g><g class="cls-1"><polygon class="cls-5" points="132.757 522.159 129.697 520.381 129.25 341.37 132.309 343.148 132.757 522.159"/><polygon class="cls-10" points="132.309 343.148 129.25 341.37 179.248 312.502 182.307 314.28 132.309 343.148"/><polygon class="cls-6" points="182.765 493.292 132.732 522.166 132.313 343.158 182.294 314.284 182.765 493.292"/></g><g class="cls-1"><polygon class="cls-5" points="80.445 552.381 77.386 550.603 76.939 371.593 79.998 373.37 80.445 552.381"/><polygon class="cls-10" points="79.998 373.37 76.939 371.593 126.917 342.736 129.976 344.514 79.998 373.37"/><polygon class="cls-6" points="130.434 523.526 80.42 552.388 80.002 373.38 129.963 344.518 130.434 523.526"/></g><g class="cls-1"><path class="cls-8" d="M79.505,525.637l-.062,22.032a1.993,1.993,0,0,1-1.17,1.627,6.281,6.281,0,0,1-5.7-.017,1.967,1.967,0,0,1-1.156-1.63l.062-22.033a1.97,1.97,0,0,0,1.156,1.631,6.284,6.284,0,0,0,5.7.017A1.992,1.992,0,0,0,79.505,525.637Z"/><path class="cls-9" d="M78.288,523.959c1.611.93,1.619,2.391.047,3.305a6.284,6.284,0,0,1-5.7-.017c-1.553-.9-1.532-2.374.011-3.271A6.215,6.215,0,0,1,78.288,523.959Z"/></g><g class="cls-1"><path class="cls-8" d="M79.505,460.392l-.062,22.032a1.993,1.993,0,0,1-1.17,1.627,6.281,6.281,0,0,1-5.7-.017,1.967,1.967,0,0,1-1.156-1.63l.062-22.033A1.97,1.97,0,0,0,72.63,462a6.284,6.284,0,0,0,5.7.017A1.992,1.992,0,0,0,79.505,460.392Z"/><path class="cls-9" d="M78.288,458.714c1.611.93,1.619,2.391.047,3.305a6.284,6.284,0,0,1-5.7-.017c-1.553-.9-1.532-2.374.011-3.271A6.215,6.215,0,0,1,78.288,458.714Z"/></g><g class="cls-1"><path class="cls-8" d="M79.505,395.147l-.062,22.033a1.993,1.993,0,0,1-1.17,1.626,6.281,6.281,0,0,1-5.7-.017,1.967,1.967,0,0,1-1.156-1.63l.062-22.033a1.97,1.97,0,0,0,1.156,1.631,6.284,6.284,0,0,0,5.7.017A1.992,1.992,0,0,0,79.505,395.147Z"/><path class="cls-9" d="M78.288,393.469c1.611.93,1.619,2.392.047,3.305a6.284,6.284,0,0,1-5.7-.017c-1.553-.9-1.532-2.374.011-3.271A6.215,6.215,0,0,1,78.288,393.469Z"/></g><path class="cls-5" d="M118.978,449.259c1.853-1.069,3.438-.229,3.444,1.962A7.7,7.7,0,0,1,119,457.147c-1.907,1.1-3.437.166-3.443-1.962A7.5,7.5,0,0,1,118.978,449.259Z"/><path class="cls-5" d="M143.006,435.387c1.852-1.069,3.437-.229,3.443,1.962a7.7,7.7,0,0,1-3.421,5.926c-1.907,1.1-3.438.166-3.444-1.962A7.5,7.5,0,0,1,143.006,435.387Z"/><path class="cls-8" d="M139.053,396.16l15.668-39.713c1.367-3.47,5.058-5.154,6.829-2.742l15.837,21.521c1.643,2.222-.07,6.2-2.531,7.626l-31.507,18.191C140.377,402.76,137.476,400.162,139.053,396.16Z"/><path class="cls-11" d="M160.306,354.618l15.838,21.522c.959,1.3-.195,4.3-2.061,5.376l-31.506,18.19c-1.866,1.077-3.033-.584-2.088-2.98l15.668-39.713C156.962,354.969,159.256,353.187,160.306,354.618Z"/><polygon class="cls-8" points="162.068 367.119 157.312 376.873 161.571 374.414 154.837 387.041 157.929 378.046 154.573 379.984 156.98 370.057 162.068 367.119"/><path class="cls-8" d="M115.534,402.351l-.109-30.365.666-.384c2.938-1.7,5.336-.329,5.346,3.05l.111,31.171a11.726,11.726,0,0,1-5.312,9.2L96.08,426.582c-2.94,1.7-5.339.331-5.349-3.045l0-.809,19.493-11.177A11.726,11.726,0,0,0,115.534,402.351Z"/><g class="cls-1"><path class="cls-12" d="M116.194,405.345,105.74,399.27a1.061,1.061,0,0,0,.482-.832l10.454,6.075A1.066,1.066,0,0,1,116.194,405.345Z"/><path class="cls-13" d="M88.621,409.161l.014,5.4v2.1l3.479,2.024v.015l.485.271,23.6-13.631-.756-.442-3.122-1.81-.371-.214c-1.1-.64-5.21-3.027-4.833-2.809l-.357-.214-1.012-.584-12.988,7.5-.671.385Z"/><path class="cls-13" d="M88.635,416.661v.228c.372.219,3.994,2.329,3.621,2.11.109.081.229.01.343-.028l-.485-.271v-.015Z"/><path class="cls-14" d="M92.114,416.575l-3.479-2.01v.456l3.479,2.025.955.556a.559.559,0,0,1-.242-.342.91.91,0,0,1-.043-.285Z"/><path class="cls-13" d="M106.143,376.264c0,.395.059,14.111.057,13.693,0,.371.031,9.035.029,8.483l1.482.855,3.551,2.068,1.539.9.371.214,2.737,1.6.77.442-.113-29.732-.471-.271h-.014l-3.436-2.01-1.426.827-.413.228Z"/><path class="cls-13" d="M112.645,372.5l3.436,2.01h.014l.471.271a.419.419,0,0,0-.043-.2.164.164,0,0,0-.086-.086c-.014-.014-.014-.028-.028-.028l-3.565-2.082Z"/><path class="cls-14" d="M111.219,373.327l-.413.228,3.45,2.01.67.385a.919.919,0,0,1,.442-.128.451.451,0,0,1,.2.043l-.9-.542Z"/><path class="cls-14" d="M88.535,390.564l.086,18.6.014,5.4,3.479,2.01.67.4-.028-10.209-.072-16.857-.67-.385-2.851-1.654A6.673,6.673,0,0,0,88.535,390.564Z"/><path class="cls-14" d="M90.146,386.187l2.838,1.654.67.385,21.272-12.276-.67-.385-3.45-2.01-4.663,2.709-14.015,8.084A6.537,6.537,0,0,0,90.146,386.187Z"/><path class="cls-14" d="M89.163,387.87l2.851,1.654.67.385a2.147,2.147,0,0,1,.97-1.683l-.67-.385-2.838-1.654A7.643,7.643,0,0,0,89.163,387.87Z"/><path class="cls-15" d="M88.535,390.564l.086,18.6.014,5.4v2.324l.014,4.22c0,2.281,1.612,3.194,3.607,2.053l24.3-14.029a7.891,7.891,0,0,0,3.593-6.216l-.1-30.545c-.014-2.281-1.625-3.208-3.621-2.053l-3.579,2.067-.2.114-1.426.827-.413.228-4.663,2.709-14.015,8.084a6.537,6.537,0,0,0-1.982,1.839,7.643,7.643,0,0,0-.983,1.683A6.673,6.673,0,0,0,88.535,390.564Zm3.55,16.587-.071-17.627v-.557a1.089,1.089,0,0,1,.47-.841l.5-.285,21.272-12.276.413-.242,1.412-.813h.014a.327.327,0,0,1,.314-.042c.014,0,.014.014.028.028a.241.241,0,0,1,.086.086.419.419,0,0,1,.043.2l.113,29.732a1.034,1.034,0,0,1-.484.827L92.6,418.971c-.114.038-.234.109-.343.028-.028,0-.042-.028-.071-.043a.489.489,0,0,1-.071-.256v-2.125Z"/><path class="cls-15" d="M114.929,375.947c.536-.309.97-.059.972.554l.1,27.069a2.128,2.128,0,0,1-.966,1.673L93.755,417.529c-.534.308-.971.059-.973-.554l-.1-27.069a2.135,2.135,0,0,1,.966-1.674Z"/></g><polygon class="cls-8" points="95.117 406.57 103.22 401.892 103.22 408.331 95.135 412.998 95.117 406.57"/><polygon class="cls-10" points="102.856 402.523 95.482 406.78 95.498 412.368 102.856 408.12 102.856 402.523"/><path class="cls-16" d="M99.66,408.542c.277.3-.031,1.076-.487,1.338-.7.405-.828-.7-.119-1.275l1.217-3.1Z"/><path class="cls-17" d="M101.106,405.144l-.681,1.1a.878.878,0,0,0-.281-.113l.127-.628-.241.611c-.864-.076-1.76.875-2.188,1.7l-.684-.317C97.911,406.068,99.758,404.27,101.106,405.144Z"/><path class="cls-18" d="M101.106,405.144a1.9,1.9,0,0,1,.723,1.666l-.922.532a1.225,1.225,0,0,0-.482-1.094Z"/><path class="cls-15" d="M97.158,407.5l.684.317a3.4,3.4,0,0,0-.41,1.528l-.923.532A5.262,5.262,0,0,1,97.158,407.5Z"/><polygon class="cls-8" points="105.068 400.825 113.171 396.146 113.171 402.585 105.086 407.253 105.068 400.825"/><polygon class="cls-10" points="112.807 396.777 105.433 401.035 105.449 406.623 112.807 402.375 112.807 396.777"/><path class="cls-16" d="M109.611,402.8c.277.305-.031,1.076-.487,1.339-.7.405-.828-.7-.119-1.276l1.217-3.1Z"/><path class="cls-17" d="M111.057,399.4l-.681,1.1a.834.834,0,0,0-.281-.113l.127-.628-.241.611c-.864-.076-1.76.875-2.188,1.7l-.684-.317C107.862,400.323,109.709,398.525,111.057,399.4Z"/><path class="cls-18" d="M111.057,399.4a1.9,1.9,0,0,1,.723,1.667l-.922.532a1.225,1.225,0,0,0-.482-1.094Z"/><path class="cls-15" d="M107.109,401.759l.684.317a3.4,3.4,0,0,0-.41,1.528l-.923.532A5.259,5.259,0,0,1,107.109,401.759Z"/><path class="cls-8" d="M99.159,393.132c1.418-.818,2.572-.171,2.577,1.468a5.623,5.623,0,0,1-2.56,4.411c-1.408.813-2.562.166-2.567-1.452A5.625,5.625,0,0,1,99.159,393.132Z"/><path class="cls-8" d="M109.642,387.08c1.408-.813,2.571-.171,2.576,1.468a5.641,5.641,0,0,1-2.56,4.412c-1.408.813-2.562.165-2.566-1.453A5.623,5.623,0,0,1,109.642,387.08Z"/><g class="cls-1"><path class="cls-9" d="M98.144,392.541c-2.169,1.252-3.457,5.1-1.807,6.058l1.016.59a1.781,1.781,0,0,1-.744-1.63c-.007-2.563,2.734-5.565,4.379-4.608C100.251,392.666,99.664,391.663,98.144,392.541Z"/><path class="cls-9" d="M110.454,386.312a1.813,1.813,0,0,0-1.828.178c-2.169,1.252-3.457,5.1-1.807,6.057l1.016.59c-1.691-.982-.333-4.822,1.807-6.057a1.815,1.815,0,0,1,1.828-.178Z"/></g><g class="cls-1"><path class="cls-19" d="M100.661,393.615c-1.386-.806-3.587,1.72-3.581,3.769a1.46,1.46,0,0,0,.612,1.338l1.154.671c-1.386-.806-.271-3.954,1.473-4.961a1.482,1.482,0,0,1,1.5-.146Z"/><path class="cls-18" d="M100.319,394.432c1.161-.67,2.105-.132,2.109,1.2a4.615,4.615,0,0,1-2.095,3.617c-1.15.664-2.095.126-2.1-1.2A4.614,4.614,0,0,1,100.319,394.432Z"/></g><g class="cls-1"><path class="cls-20" d="M111.322,387.617a1.482,1.482,0,0,0-1.5.146,4.612,4.612,0,0,0-2.085,3.623,1.46,1.46,0,0,0,.612,1.338l1.154.671a1.46,1.46,0,0,1-.612-1.338c-.006-2.106,2.244-4.546,3.581-3.769Z"/><path class="cls-21" d="M110.981,388.434c1.161-.67,2.105-.132,2.109,1.2A4.616,4.616,0,0,1,111,393.253c-1.151.664-2.095.126-2.1-1.2A4.618,4.618,0,0,1,110.981,388.434Z"/></g><g class="cls-1"><path class="cls-8" d="M94.484,425.655,114.5,414.1a11.726,11.726,0,0,0,5.312-9.2l-.111-31.171a3.731,3.731,0,0,0-1.557-3.418c.837.709,3.143.893,3.153,4.345l.11,31.172a11.724,11.724,0,0,1-5.311,9.2L96.08,426.582a3.758,3.758,0,0,1-3.793.369l-1.6-.927A3.758,3.758,0,0,0,94.484,425.655Z"/><path class="cls-8" d="M94.334,380.39l20.017-11.557c1.925-1.111,3.671-1.213,4.933-.479l1.6.927c-1.262-.733-3.009-.632-4.933.48L95.93,381.317a15.256,15.256,0,0,0-6.914,11.976l.11,31.171c.007,2.182.78,3.718,2.025,4.442-.821-.724-3.608-1-3.621-5.369l-.11-31.172A15.261,15.261,0,0,1,94.334,380.39Z"/></g><path class="cls-9" d="M115.947,369.761c3.825-2.209,6.946-.43,6.959,3.965l.11,31.172A15.26,15.26,0,0,1,116.1,416.87L96.085,428.426c-3.825,2.209-6.946.43-6.959-3.962l-.11-31.171a15.256,15.256,0,0,1,6.914-11.976ZM90.731,423.537c.01,3.376,2.409,4.743,5.349,3.045L116.1,415.026a11.724,11.724,0,0,0,5.311-9.2l-.11-31.172c-.01-3.378-2.409-4.745-5.346-3.049L95.935,383.161a11.725,11.725,0,0,0-5.314,9.2l.11,31.171"/><g class="cls-22"><path class="cls-23" d="M90.619,392.367l.113,31.17c.011,3.376,2.406,4.745,5.347,3.043l20.02-11.557a11.715,11.715,0,0,0,5.308-9.2l-.107-31.17c-.011-3.381-2.412-4.75-5.347-3.054L95.932,383.16A11.756,11.756,0,0,0,90.619,392.367Z"/></g><g class="cls-1"><path class="cls-9" d="M59.2,563.12,15.368,537.648A1.8,1.8,0,0,1,14.619,536a5.641,5.641,0,0,1,2.561-4.447l43.832,25.472a5.639,5.639,0,0,0-2.561,4.447A1.8,1.8,0,0,0,59.2,563.12Z"/><path class="cls-8" d="M61.012,557.024l.017,5.916c-1.421.821-2.573.164-2.578-1.469A5.639,5.639,0,0,1,61.012,557.024Z"/></g><g class="cls-1"><path class="cls-9" d="M59.2,547.441,15.368,521.969a1.8,1.8,0,0,1-.749-1.649,5.645,5.645,0,0,1,2.561-4.448l43.832,25.473a5.639,5.639,0,0,0-2.561,4.447A1.8,1.8,0,0,0,59.2,547.441Z"/><path class="cls-8" d="M61.012,541.345l.017,5.916c-1.421.82-2.573.164-2.578-1.469A5.639,5.639,0,0,1,61.012,541.345Z"/></g><g class="cls-1"><path class="cls-9" d="M59.2,531.762,15.368,506.29a1.8,1.8,0,0,1-.749-1.649,5.645,5.645,0,0,1,2.561-4.448l43.832,25.473a5.639,5.639,0,0,0-2.561,4.447A1.8,1.8,0,0,0,59.2,531.762Z"/><path class="cls-8" d="M61.012,525.665l.017,5.917c-1.421.82-2.573.164-2.578-1.469A5.642,5.642,0,0,1,61.012,525.665Z"/></g><g class="cls-1"><path class="cls-9" d="M59.2,516.083,15.368,490.611a1.8,1.8,0,0,1-.749-1.65,5.643,5.643,0,0,1,2.561-4.447l43.832,25.472a5.642,5.642,0,0,0-2.561,4.448A1.8,1.8,0,0,0,59.2,516.083Z"/><path class="cls-8" d="M61.012,509.986l.017,5.917c-1.421.82-2.573.164-2.578-1.469A5.642,5.642,0,0,1,61.012,509.986Z"/></g><g class="cls-1"><polygon class="cls-7" points="164.748 275.759 164.734 283.137 77.381 333.901 77.395 326.523 164.748 275.759"/><polygon class="cls-5" points="77.395 326.523 77.381 333.901 40.068 312.358 40.082 304.98 77.395 326.523"/><polygon class="cls-24" points="164.748 275.759 77.395 326.523 40.082 304.98 127.434 254.216 164.748 275.759"/></g></g></g><g id="arrow_event_critycal">
<animateTransform attributeName="transform"
                  attributeType="XML"
                  type="translate"
                  from="0 0"
                  to="0 75"
                  dur="1.5s"
                  repeatCount="indefinite"
/>
<path class="cls-25" d="M88.243,137.489,26.233,38.325c-7.842-12.542,4.8-27.847,18.6-22.516L95.745,35.482a15.392,15.392,0,0,0,11.094,0l50.916-19.673c13.8-5.331,26.438,9.974,18.6,22.516l-62.009,99.164A15.39,15.39,0,0,1,88.243,137.489Z"/></g></svg>