<svg xmlns="http://www.w3.org/2000/svg" xmlns:xlink="http://www.w3.org/1999/xlink" viewBox="0 0 183.148 600"><defs><style>.cls-1{fill:#73959d;}.cls-2{fill:#85a4aa;}.cls-3{fill:#e7f2f7;}.cls-4{fill:#98b0b5;}.cls-5{fill:#c1ced0;}.cls-6{fill:#899296;}.cls-7{fill:#abb2b5;}.cls-8{fill:#363636;}.cls-9{fill:#1b1b1b;}.cls-10{fill:#2a292a;}.cls-11{fill:#9a9fa1;}.cls-12{fill:#6999d1;}.cls-13{fill:#d2d4db;}.cls-14{fill:#fff;}.cls-15{fill:#949499;}.cls-16{fill:url(#Degradado_sin_nombre_3);}</style><linearGradient id="Degradado_sin_nombre_3" x1="91.574" y1="146.616" x2="91.574" y2="16.616" gradientUnits="userSpaceOnUse"><stop offset="0" stop-color="#a11a16"/><stop offset="0.997" stop-color="#e52521"/></linearGradient></defs><g id="Capa_1" data-name="Capa 1"><polygon class="cls-1" points="172.877 281.179 92.639 327.897 92.639 573.05 172.871 526.331 172.877 281.179"/><polygon class="cls-2" points="40.118 297.346 42.769 540.804 92.639 573.05 92.639 327.897 40.118 297.346"/><polygon class="cls-3" points="120.356 250.628 172.877 281.179 92.639 327.897 40.118 297.346 120.356 250.628"/><polygon class="cls-4" points="100.965 332.832 100.965 577.984 92.639 573.044 92.639 327.897 100.965 332.832"/><polygon class="cls-5" points="100.965 332.832 100.965 577.984 181.197 531.266 181.203 286.113 100.965 332.832"/><polygon class="cls-6" points="127.204 317.566 127.204 562.615 154.964 546.595 154.964 301.546 127.204 317.566"/><polygon class="cls-3" points="172.877 281.179 181.203 286.113 100.965 332.832 92.639 327.897 172.877 281.179"/><polygon class="cls-7" points="118.524 312.589 127.204 317.566 154.964 301.546 146.283 296.57 118.524 312.589"/><polygon class="cls-1" points="88.916 330.009 54.466 349.913 54.466 595.066 88.91 575.161 88.916 330.009"/><polygon class="cls-2" points="1.946 319.362 1.946 564.509 54.466 595.066 54.466 349.913 1.946 319.362"/><polygon class="cls-3" points="40.118 297.346 92.639 327.897 54.466 349.913 1.945 319.362 40.118 297.346"/><polygon class="cls-5" points="62.792 354.848 62.792 600 97.236 580.096 97.242 334.943 62.792 354.848"/><polygon class="cls-4" points="100.957 516.553 110.59 511.109 110.593 393.258 100.96 398.703 100.957 516.553"/><polygon class="cls-4" points="87.609 523.951 97.242 518.506 97.245 400.656 87.612 406.101 87.609 523.951"/><polygon class="cls-4" points="62.792 354.848 62.792 600 54.466 595.06 54.466 349.913 62.792 354.848"/><polygon class="cls-3" points="88.916 330.009 97.242 334.943 62.792 354.848 54.466 349.913 88.916 330.009"/><polygon class="cls-8" points="132.929 383.39 132.929 416.32 149.239 406.904 149.239 373.975 132.929 383.39"/><polygon class="cls-9" points="132.929 383.387 132.929 415.816 147.892 406.26 147.888 374.744 132.929 383.387"/><polygon class="cls-10" points="132.929 383.387 132.929 415.816 147.888 374.744 132.929 383.387"/><polygon class="cls-11" points="147.892 406.26 149.239 406.904 132.929 416.32 132.929 414.894 147.892 406.26"/><path class="cls-12" d="M135.934,392.6c.167-.1.249-.058.249.181a.475.475,0,0,1-.249.464l-.971.562c-.167.1-.244.06-.244-.175a.481.481,0,0,1,.244-.471Z"/><path class="cls-12" d="M139.056,392.637v-1.071a.417.417,0,0,1,.206-.387c.152-.091.21-.007.21.146v1.338a.438.438,0,0,1-.21.385l-1.626.947c-.11.062-.206.043-.206-.143a.434.434,0,0,1,.206-.388l.607-.354v-3.065l-.607.354c-.11.063-.206.044-.206-.148a.423.423,0,0,1,.206-.382l1.018-.593v3.595Z"/><path class="cls-12" d="M140.839,391.6l1.421-.827c.109-.062.205-.046.205.146a.436.436,0,0,1-.205.385l-1.836,1.066v-1.731a.929.929,0,0,1,.468-.868l1.162-.676v-1.268l-1.42.827c-.11.063-.21.043-.21-.147a.426.426,0,0,1,.21-.383l1.372-.8c.134-.079.23-.111.335-.046s.124.206.124.4v1.085a1,1,0,0,1-.124.55.854.854,0,0,1-.335.342l-1.167.679Z"/><path class="cls-12" d="M145.229,387.146a.909.909,0,0,1-.464.846l-.636.371c-.306.179-.464.078-.464-.309V386.94a.917.917,0,0,1,.464-.849l.636-.37c.306-.177.464-.077.464.311Zm-.417-.98-.735.428v1.324l.735-.428Z"/><path class="cls-12" d="M135.872,387.28l-.082.045c-.081.048-.186.088-.186-.064a.331.331,0,0,1,.186-.29l.082-.045v-.048A1.046,1.046,0,0,1,136,386.3a1.061,1.061,0,0,1,.431-.423l.191-.11c.1-.055.2-.108.2.055a.316.316,0,0,1-.187.287l-.219.129a.441.441,0,0,0-.268.459v.067l.244-.141c.1-.057.2-.086.2.062a.342.342,0,0,1-.2.292l-.244.141v1.377a.34.34,0,0,1-.139.325c-.119.069-.138-.038-.138-.163Z"/><path class="cls-12" d="M137.55,386.213a.352.352,0,0,1,.139-.344c.109-.062.138.041.138.156v.143l.215-.354a.95.95,0,0,1,.249-.3l.225-.128a.249.249,0,0,1,.272-.022c.1.065.125.168.125.33a.341.341,0,0,1-.139.323c-.1.057-.139-.017-.139-.132a.208.208,0,0,0-.028-.136c-.039-.041-.106,0-.168.036l-.086.048a.459.459,0,0,0-.134.16l-.392.636v.889a.347.347,0,0,1-.138.323c-.12.069-.139-.039-.139-.163Z"/><path class="cls-12" d="M140.151,386.412c-.115.067-.163.1-.249.05l-.124-.06c-.106-.062-.139-.124-.139-.316v-.678a.8.8,0,0,1,.139-.5l.1-.163a.735.735,0,0,1,.306-.327l.258-.148c.133-.079.2-.1.311-.05l.109.05c.13.052.144.177.144.373v.282c0,.2-.024.272-.187.37l-.9.522v.114a.1.1,0,0,0,.043.081l.067.055c.039.027.1.013.187-.042l.6-.347c.091-.055.187-.089.187.06a.335.335,0,0,1-.187.289Zm-.235-.949.809-.471v-.211c0-.066,0-.122-.034-.141l-.11-.057c-.033-.019-.086.007-.134.034l-.234.136a.374.374,0,0,0-.139.122l-.1.148a.29.29,0,0,0-.058.191Z"/><path class="cls-12" d="M142.241,385.2c-.116.067-.168.1-.254.051l-.12-.06c-.1-.062-.138-.124-.138-.316v-.679a.829.829,0,0,1,.134-.5l.1-.163a.692.692,0,0,1,.306-.325l.254-.151c.138-.079.205-.1.31-.05l.115.05c.124.055.143.179.143.376v.282c0,.2-.024.272-.191.368l-.894.521v.115a.115.115,0,0,0,.038.081l.072.055c.038.027.1.012.187-.041l.6-.349c.091-.052.191-.086.191.063a.336.336,0,0,1-.191.286Zm-.235-.949.808-.471v-.21c0-.067,0-.122-.038-.141l-.106-.057c-.033-.02-.085.006-.133.033l-.234.138a.425.425,0,0,0-.144.12l-.1.148a.3.3,0,0,0-.057.192Z"/><path class="cls-12" d="M144.827,382.07l-.746.433c-.076.045-.187.086-.187-.067a.328.328,0,0,1,.187-.287l.909-.528c.143-.082.186-.045.186.079v.115a.445.445,0,0,1-.077.241l-.937,1.673.828-.48c.09-.053.186-.086.186.062a.333.333,0,0,1-.186.287l-.971.562c-.191.114-.206.021-.206-.084v-.091a.31.31,0,0,1,.053-.2Z"/><path class="cls-12" d="M134.824,402.157l-.076.046c-.086.047-.191.085-.191-.068a.329.329,0,0,1,.191-.286l.076-.046v-.048a1.057,1.057,0,0,1,.134-.581.983.983,0,0,1,.43-.42l.187-.11c.1-.055.206-.111.206.052a.326.326,0,0,1-.191.289l-.221.127a.439.439,0,0,0-.263.459v.067l.244-.141c.1-.055.192-.084.192.065a.342.342,0,0,1-.192.289l-.244.141v1.377a.345.345,0,0,1-.143.325c-.12.072-.139-.036-.139-.16Z"/><path class="cls-12" d="M136.5,401.088a.363.363,0,0,1,.138-.344c.11-.062.139.041.139.155v.144l.22-.351a.886.886,0,0,1,.248-.3l.22-.128a.253.253,0,0,1,.273-.02c.095.065.124.168.124.33a.338.338,0,0,1-.133.323c-.1.058-.144-.019-.144-.134a.2.2,0,0,0-.029-.136c-.038-.041-.1,0-.167.036l-.081.048a.411.411,0,0,0-.139.162l-.392.634v.889a.335.335,0,0,1-.139.323c-.119.069-.138-.039-.138-.163Z"/><path class="cls-12" d="M139.419,400.754l.211-.122c.09-.053.191-.086.191.062a.325.325,0,0,1-.191.286l-.708.414c-.081.046-.191.086-.191-.067a.324.324,0,0,1,.191-.282l.22-.129v-1.272l-.22.13c-.081.045-.191.085-.191-.067a.329.329,0,0,1,.191-.287l.292-.17c.162-.093.205-.084.205.127ZM139,398.667a.262.262,0,0,1,.134-.244l.158-.094c.076-.043.129-.033.129.091v.168a.251.251,0,0,1-.129.239l-.158.093c-.076.043-.134.038-.134-.086Z"/><path class="cls-12" d="M141.446,397.952a.239.239,0,0,1,.278.033l.043.036v-.741a.34.34,0,0,1,.144-.32c.114-.067.133.04.133.16v2.213a.346.346,0,0,1-.133.323c-.116.065-.144-.038-.144-.153v-.024l-.062.112a.919.919,0,0,1-.268.34l-.268.155a.284.284,0,0,1-.239.015l-.1-.043c-.114-.058-.152-.132-.152-.318v-.708a.851.851,0,0,1,.152-.5l.1-.162a.673.673,0,0,1,.268-.28Zm-.487,1.482c0,.1,0,.225.043.241l.086.039a.1.1,0,0,0,.105.009l.2-.112a.517.517,0,0,0,.134-.17l.163-.268a.4.4,0,0,0,.081-.2v-.445a.108.108,0,0,0-.081-.105l-.163-.077a.128.128,0,0,0-.134-.007l-.2.112a.384.384,0,0,0-.105.129l-.086.134a.634.634,0,0,0-.043.294Z"/><path class="cls-12" d="M142.766,397.837a.882.882,0,0,1,.1-.423l.205-.318a.511.511,0,0,1,.177-.192l.268-.155a.311.311,0,0,1,.273.019l.071.031v-.043a.331.331,0,0,1,.139-.289c.124-.072.139.05.139.17v1.716a.874.874,0,0,1-.139.586l-.091.153a.815.815,0,0,1-.349.354l-.459.268c-.086.047-.2.093-.2-.065a.325.325,0,0,1,.2-.284l.507-.3a.4.4,0,0,0,.139-.162l.071-.122a.367.367,0,0,0,.043-.172v-.484l-.057.111a.946.946,0,0,1-.234.306l-.325.189a.2.2,0,0,1-.211.014l-.172-.1c-.086-.048-.091-.136-.091-.28Zm.277.323c0,.076,0,.15.039.165l.115.045c.024.012.047.007.085-.014l.2-.117a.575.575,0,0,0,.128-.165l.216-.349a.277.277,0,0,0,.028-.132v-.258c0-.048-.009-.091-.028-.1l-.216-.1a.135.135,0,0,0-.128-.017l-.2.117a.228.228,0,0,0-.085.081l-.115.184a.4.4,0,0,0-.039.208Z"/><path class="cls-12" d="M145.372,397.643c-.114.067-.167.1-.254.051l-.119-.061c-.1-.061-.139-.123-.139-.315v-.679a.831.831,0,0,1,.135-.5l.1-.163a.729.729,0,0,1,.306-.327l.258-.149c.134-.079.2-.1.306-.05l.115.05c.129.053.143.177.143.373v.282c0,.2-.023.273-.191.371l-.894.521v.115a.115.115,0,0,0,.038.081l.072.055c.038.027.095.012.186-.043l.6-.347c.091-.052.191-.088.191.06a.331.331,0,0,1-.191.289Zm-.234-.949.808-.471v-.21c0-.067,0-.122-.038-.141l-.106-.057c-.033-.02-.086.006-.133.033l-.235.136a.373.373,0,0,0-.138.122l-.1.148a.3.3,0,0,0-.057.192Z"/><path class="cls-12" d="M139.386,406.872V405.8a.42.42,0,0,1,.21-.385c.153-.088.206-.009.206.144V406.9a.44.44,0,0,1-.206.383l-1.63.947c-.11.064-.206.045-.206-.141a.44.44,0,0,1,.206-.39l.607-.351V404.28l-.607.351c-.11.065-.206.046-.206-.145a.433.433,0,0,1,.206-.386l1.018-.592v3.6Z"/><path class="cls-12" d="M142.561,403.121a.914.914,0,0,1-.464.848l-.636.371c-.306.176-.464.076-.464-.311v-1.114a.911.911,0,0,1,.464-.847l.636-.37c.306-.179.464-.079.464.308Zm-.412-.979-.736.428V403.9l.736-.428Z"/><polygon class="cls-13" points="129.34 397.386 131.129 396.369 131.133 397.733 129.344 398.751 129.34 397.386"/><polygon class="cls-14" points="129.124 397.309 130.913 396.291 131.129 396.369 129.34 397.386 129.124 397.309"/><polygon class="cls-15" points="129.344 398.751 129.127 398.674 129.124 397.309 129.34 397.386 129.344 398.751"/><polygon class="cls-13" points="129.34 400.615 131.129 399.597 131.133 400.961 129.344 401.979 129.34 400.615"/><polygon class="cls-14" points="129.124 400.537 130.913 399.519 131.129 399.597 129.34 400.615 129.124 400.537"/><polygon class="cls-15" points="129.344 401.979 129.127 401.902 129.124 400.537 129.34 400.615 129.344 401.979"/><polygon class="cls-13" points="129.34 403.843 131.129 402.825 131.133 404.189 129.344 405.207 129.34 403.843"/><polygon class="cls-14" points="129.124 403.765 130.913 402.747 131.129 402.825 129.34 403.843 129.124 403.765"/><polygon class="cls-15" points="129.344 405.207 129.127 405.13 129.124 403.765 129.34 403.843 129.344 405.207"/><polygon class="cls-13" points="151.235 384.744 153.024 383.726 153.027 385.091 151.238 386.108 151.235 384.744"/><polygon class="cls-14" points="151.018 384.666 152.807 383.648 153.024 383.726 151.235 384.744 151.018 384.666"/><polygon class="cls-15" points="151.238 386.108 151.022 386.031 151.018 384.666 151.235 384.744 151.238 386.108"/><polygon class="cls-13" points="151.235 387.972 153.024 386.954 153.027 388.319 151.238 389.336 151.235 387.972"/><polygon class="cls-14" points="151.018 387.894 152.807 386.876 153.024 386.954 151.235 387.972 151.018 387.894"/><polygon class="cls-15" points="151.238 389.336 151.022 389.259 151.018 387.894 151.235 387.972 151.238 389.336"/><polygon class="cls-13" points="151.235 391.2 153.024 390.182 153.027 391.547 151.238 392.565 151.235 391.2"/><polygon class="cls-14" points="151.018 391.122 152.807 390.104 153.024 390.182 151.235 391.2 151.018 391.122"/><polygon class="cls-15" points="151.238 392.565 151.022 392.487 151.018 391.122 151.235 391.2 151.238 392.565"/></g><g id="arrow_event_critycal">
<animateTransform attributeName="transform"
                  attributeType="XML"
                  type="translate"
                  from="0 0"
                  to="0 75"
                  dur="1.5s"
                  repeatCount="indefinite"
/>
<path class="cls-16" d="M111.93,84.988V96.85l29.418.008L91.572,146.616,41.8,96.858l29.153-.008V84.988Zm0-10.649V55.684H70.953V74.339Zm0-29.3V33.708H70.953V45.036Zm0-21.977V16.616H70.953v6.443Z"/></g></svg>