<svg xmlns="http://www.w3.org/2000/svg"
    xmlns:xlink="http://www.w3.org/1999/xlink" viewBox="0 0 388.901 600">
    <defs>
        <style>.cls-1{fill:#a0a3a2;}.cls-2{fill:#c1c6c7;}.cls-3{fill:#e9eced;}.cls-10,.cls-11,.cls-12,.cls-13,.cls-14,.cls-15,.cls-16,.cls-17,.cls-18,.cls-19,.cls-4,.cls-5,.cls-6,.cls-7,.cls-8,.cls-9{opacity:0.4;}.cls-4{fill:url(#linear-gradient);}.cls-5{fill:url(#linear-gradient-2);}.cls-6{fill:url(#linear-gradient-3);}.cls-7{fill:url(#linear-gradient-4);}.cls-8{fill:url(#linear-gradient-5);}.cls-9{fill:url(#linear-gradient-6);}.cls-10{fill:url(#linear-gradient-7);}.cls-11{fill:url(#linear-gradient-8);}.cls-12{fill:url(#linear-gradient-9);}.cls-13{fill:url(#linear-gradient-10);}.cls-14{fill:url(#linear-gradient-11);}.cls-15{fill:url(#linear-gradient-12);}.cls-16{fill:url(#linear-gradient-13);}.cls-17{fill:url(#linear-gradient-14);}.cls-18{fill:url(#linear-gradient-15);}.cls-19{fill:url(#linear-gradient-16);}.cls-20{fill:#3c3c3f;}.cls-21{fill:#606065;}.cls-22{fill:#49494e;}.cls-23{fill:#e4e0dc;}.cls-24{fill:#a39c94;}.cls-25{fill:#d6cfc5;}.cls-26{fill:#584a44;}.cls-27{fill:#090909;}.cls-28{fill:#362d2a;}.cls-29{fill:#0a0b0b;}.cls-30{fill:#82cdde;}.cls-31{fill:#c8432f;}.cls-32{fill:url(#Degradado_sin_nombre_3);}</style>
        <linearGradient id="linear-gradient" x1="142.684" y1="406.084" x2="141.318" y2="408.451" gradientUnits="userSpaceOnUse">
            <stop offset="0" stop-color="#505557"/>
            <stop offset="1" stop-color="#6b6f70"/>
        </linearGradient>
        <linearGradient id="linear-gradient-2" x1="142.684" y1="411.198" x2="141.318" y2="413.565" xlink:href="#linear-gradient"/>
        <linearGradient id="linear-gradient-3" x1="142.684" y1="416.312" x2="141.317" y2="418.68" xlink:href="#linear-gradient"/>
        <linearGradient id="linear-gradient-4" x1="142.684" y1="421.426" x2="141.317" y2="423.794" xlink:href="#linear-gradient"/>
        <linearGradient id="linear-gradient-5" x1="142.684" y1="426.54" x2="141.317" y2="428.907" xlink:href="#linear-gradient"/>
        <linearGradient id="linear-gradient-6" x1="142.684" y1="431.654" x2="141.317" y2="434.021" xlink:href="#linear-gradient"/>
        <linearGradient id="linear-gradient-7" x1="142.685" y1="436.768" x2="141.318" y2="439.135" xlink:href="#linear-gradient"/>
        <linearGradient id="linear-gradient-8" x1="142.684" y1="441.882" x2="141.318" y2="444.249" xlink:href="#linear-gradient"/>
        <linearGradient id="linear-gradient-9" x1="196.032" y1="436.884" x2="194.665" y2="439.252" xlink:href="#linear-gradient"/>
        <linearGradient id="linear-gradient-10" x1="196.032" y1="441.998" x2="194.665" y2="444.366" xlink:href="#linear-gradient"/>
        <linearGradient id="linear-gradient-11" x1="196.032" y1="447.112" x2="194.665" y2="449.48" xlink:href="#linear-gradient"/>
        <linearGradient id="linear-gradient-12" x1="196.032" y1="452.226" x2="194.665" y2="454.594" xlink:href="#linear-gradient"/>
        <linearGradient id="linear-gradient-13" x1="196.032" y1="457.34" x2="194.665" y2="459.708" xlink:href="#linear-gradient"/>
        <linearGradient id="linear-gradient-14" x1="196.032" y1="462.454" x2="194.665" y2="464.822" xlink:href="#linear-gradient"/>
        <linearGradient id="linear-gradient-15" x1="196.032" y1="467.568" x2="194.665" y2="469.936" xlink:href="#linear-gradient"/>
        <linearGradient id="linear-gradient-16" x1="196.032" y1="472.682" x2="194.665" y2="475.05" xlink:href="#linear-gradient"/>
        <linearGradient id="Degradado_sin_nombre_3" x1="194.45" y1="151.546" x2="194.45" y2="21.546" gradientUnits="userSpaceOnUse">
            <stop offset="0" stop-color="#a11a16"/>
            <stop offset="0.997" stop-color="#e52521"/>
        </linearGradient>
    </defs>
    <g id="Capa_1" data-name="Capa 1">
        <g id="_5" data-name="5">
            <g id="_5-2" data-name="5">
                <g id="Axonometric_Cube" data-name="Axonometric Cube">
                    <polygon id="Cube_face_-_left" data-name="Cube face - left" class="cls-1" points="225.582 544.16 112.164 478.678 112.164 367.674 225.582 433.157 225.582 544.16"/>
                    <polygon id="Cube_face_-_right" data-name="Cube face - right" class="cls-2" points="388.48 450.111 225.582 544.16 225.582 433.157 388.48 339.107 388.48 450.111"/>
                    <polygon id="Cube_face_-_top" data-name="Cube face - top" class="cls-3" points="225.582 433.157 112.164 367.674 275.061 273.625 388.48 339.107 225.582 433.157"/>
                </g>
                <polygon class="cls-4" points="162.133 420.469 121.869 397.223 121.869 394.066 162.133 417.313 162.133 420.469"/>
                <polygon class="cls-5" points="162.133 425.583 121.869 402.337 121.869 399.18 162.133 422.427 162.133 425.583"/>
                <polygon class="cls-6" points="162.133 430.697 121.869 407.451 121.869 404.294 162.133 427.541 162.133 430.697"/>
                <polygon class="cls-7" points="162.133 435.811 121.869 412.565 121.869 409.408 162.133 432.654 162.133 435.811"/>
                <polygon class="cls-8" points="162.133 440.925 121.869 417.679 121.869 414.522 162.133 437.768 162.133 440.925"/>
                <polygon class="cls-9" points="162.133 446.039 121.869 422.793 121.869 419.636 162.133 442.882 162.133 446.039"/>
                <polygon class="cls-10" points="162.133 451.153 121.869 427.907 121.869 424.75 162.133 447.996 162.133 451.153"/>
                <polygon class="cls-11" points="162.133 456.267 121.869 433.02 121.869 429.864 162.133 453.111 162.133 456.267"/>
                <polygon class="cls-12" points="215.48 451.27 175.216 428.023 175.216 424.866 215.48 448.113 215.48 451.27"/>
                <polygon class="cls-13" points="215.48 456.384 175.216 433.137 175.216 429.98 215.48 453.227 215.48 456.384"/>
                <polygon class="cls-14" points="215.48 461.497 175.216 438.251 175.216 435.095 215.48 458.341 215.48 461.497"/>
                <polygon class="cls-15" points="215.48 466.611 175.216 443.365 175.216 440.208 215.48 463.455 215.48 466.611"/>
                <polygon class="cls-16" points="215.48 471.725 175.216 448.479 175.216 445.322 215.48 468.569 215.48 471.725"/>
                <polygon class="cls-17" points="215.48 476.839 175.216 453.593 175.216 450.436 215.48 473.683 215.48 476.839"/>
                <polygon class="cls-18" points="215.48 481.954 175.216 458.707 175.216 455.55 215.48 478.797 215.48 481.954"/>
                <polygon class="cls-19" points="215.48 487.067 175.216 463.821 175.216 460.664 215.48 483.911 215.48 487.067"/>
            </g>
            <polygon class="cls-20" points="82.258 600 0.421 552.558 0.602 515.97 82.439 563.412 82.258 600"/>
            <polygon class="cls-21" points="82.498 563.707 0.602 515.97 126.392 444.425 208.229 491.867 82.498 563.707"/>
            <polygon class="cls-22" points="208.229 491.867 208.049 528.455 82.258 600 82.439 563.412 208.229 491.867"/>
        </g>
        <path class="cls-23" d="M375.019,385.71l-1.866-18.619L339.7,403.948l1.866,1.076Z"/>
        <path class="cls-24" d="M373.153,384.631l1.866,1.079V368.167l-1.866-1.076-3.758,9.874Z"/>
        <path class="cls-25" d="M373.153,384.631v-17.54L339.7,386.406v17.542Z"/>
        <path class="cls-23" d="M375.019,403.841l-1.866-18.618L339.7,422.08l1.866,1.076Z"/>
        <path class="cls-24" d="M373.153,402.763l1.866,1.078V386.3l-1.866-1.076L369.4,395.1Z"/>
        <path class="cls-25" d="M373.153,402.763v-17.54L339.7,404.538V422.08Z"/>
        <path class="cls-26" d="M367.682,403.6l-.943-13.173L344.2,416.074l.933.534Z"/>
        <path class="cls-27" d="M366.739,403.062l.943.533V390.956l-.943-.534-6.781,10.709Z"/>
        <path class="cls-28" d="M366.739,403.062v-12.64L344.2,403.435v12.639Z"/>
        <polygon class="cls-29" points="365.243 395.341 365.243 393.047 345.094 404.687 345.094 413.901 347.069 412.763 352.631 406.464 365.243 395.341"/>
        <polygon class="cls-30" points="365.243 402.265 365.243 395.341 347.069 405.829 347.069 412.763 365.243 402.265"/>
        <path class="cls-23" d="M375.019,421.973l-1.866-18.618L339.7,440.21l1.866,1.078Z"/>
        <path class="cls-24" d="M373.153,420.9l1.866,1.078V404.431l-1.866-1.076-3.758,9.873Z"/>
        <path class="cls-25" d="M373.153,420.9v-17.54L339.7,422.669V440.21Z"/>
        <path class="cls-23" d="M375.019,446.816l-1.866-25.332L339.7,465.055l1.866,1.078Z"/>
        <path class="cls-24" d="M373.153,445.74l1.866,1.076V422.562l-1.866-1.078L369.4,431.36Z"/>
        <path class="cls-25" d="M373.153,445.74V421.484L339.7,440.8v24.254Z"/>
        <polygon class="cls-31" points="351.864 449.773 357.678 446.417 357.678 449.694 351.864 453.052 351.864 449.773"/>
        <polygon class="cls-31" points="358.462 449.241 358.462 445.965 360.991 444.504 360.991 447.78 358.462 449.241"/>
    </g>
    <g id="arrow_event_critycal">
        <animateTransform attributeName="transform" attributeType="XML" type="translate" from="0 0" to="0 75" dur="1.5s" repeatCount="indefinite" />
        <path class="cls-32" d="M214.806,89.919V101.78l29.419.008-49.777,49.758-49.772-49.758,29.153-.008V89.919Zm0-10.65V60.614H173.829V79.269Zm0-29.3V38.638H173.829V49.967Zm0-21.978V21.546H173.829v6.443Z"/>
    </g>
</svg>