<svg xmlns="http://www.w3.org/2000/svg"
    xmlns:xlink="http://www.w3.org/1999/xlink" viewBox="0 0 366.935 600">
    <defs>
        <style>.cls-1{fill:#53545a;}.cls-2{fill:#808386;}.cls-3{fill:#e7e8e9;}.cls-4{fill:#a7a9ab;}.cls-5{fill:#bdbec0;}.cls-6{fill:#e31f26;}.cls-7{fill:#e9444f;}.cls-8{fill:#9d2620;}.cls-9{fill:#313134;}.cls-10{fill:#939599;}.cls-11{fill:#f1f2f2;}.cls-12{fill:#3677ac;}.cls-13{fill:url(#Degradado_sin_nombre_3);}</style>
        <linearGradient id="Degradado_sin_nombre_3" x1="183.467" y1="151.546" x2="183.467" y2="21.546" gradientUnits="userSpaceOnUse">
            <stop offset="0" stop-color="#a11a16"/>
            <stop offset="0.997" stop-color="#e52521"/>
        </linearGradient>
    </defs>
    <g id="Capa_1" data-name="Capa 1">
        <rect class="cls-1" x="337.709" y="335.877" width="24.393" height="67.196"/>
        <polygon class="cls-2" points="352.943 383.999 352.943 348.346 342.224 354.322 342.224 389.961 352.943 383.999"/>
        <polygon class="cls-3" points="335.997 358.072 341.438 354.904 322.563 344.001 322.563 344.001 317.089 347.151 335.997 358.072"/>
        <path class="cls-4" d="M317.089,347.151v35.181L336,393.241V358.072Z"/>
        <polygon class="cls-5" points="335.997 393.241 341.438 390.093 341.438 390.093 341.438 354.904 341.438 354.904 335.997 358.072 335.997 393.241 335.997 393.241"/>
        <polygon class="cls-1" points="337.709 387.09 339.761 385.904 339.761 369.582 337.709 370.748 337.709 387.09"/>
        <polygon class="cls-6" points="338.594 376.27 338.594 377.813 335.746 376.164 335.746 376.164 335.746 374.639 338.594 376.27"/>
        <path class="cls-7" d="M338.594,376.27l5.829-3.375L341.6,371.24l-5.854,3.4Z"/>
        <polygon class="cls-8" points="344.423 372.895 344.423 374.423 344.423 374.423 338.594 377.813 338.594 377.813 338.594 376.27 344.423 372.895 344.423 372.895"/>
        <polygon class="cls-3" points="327.976 362.694 333.417 359.517 314.535 348.62 314.535 348.62 309.066 351.774 327.976 362.694"/>
        <path class="cls-4" d="M309.066,351.774v35.181l18.91,10.908V362.694Z"/>
        <polygon class="cls-5" points="327.976 397.863 333.417 394.713 333.417 394.713 333.417 359.517 333.417 359.517 327.976 362.694 327.976 397.863 327.976 397.863"/>
        <polygon class="cls-1" points="329.697 391.716 331.737 390.527 331.737 374.196 329.697 375.376 329.697 391.716"/>
        <polygon class="cls-6" points="330.572 380.895 330.572 382.438 327.728 380.786 327.728 380.786 327.728 379.252 330.572 380.895"/>
        <path class="cls-7" d="M330.572,380.9l5.833-3.371-2.824-1.661-5.853,3.389Z"/>
        <polygon class="cls-8" points="336.405 377.524 336.405 379.052 336.405 379.052 330.572 382.438 330.572 382.438 330.572 380.895 336.405 377.524 336.405 377.524"/>
        <polygon class="cls-3" points="320.409 367.069 325.849 363.889 306.961 352.989 306.961 352.989 301.496 356.143 320.409 367.069"/>
        <path class="cls-4" d="M301.5,356.143v35.166l18.913,10.915V367.069Z"/>
        <polygon class="cls-5" points="320.409 402.224 325.849 399.079 325.849 399.079 325.849 363.889 325.849 363.889 320.409 367.069 320.409 402.224 320.409 402.224"/>
        <polygon class="cls-1" points="322.122 396.091 324.17 394.896 324.17 378.577 322.122 379.748 322.122 396.091"/>
        <polygon class="cls-6" points="323.001 385.27 323.001 386.804 320.156 385.152 320.156 385.152 320.156 383.621 323.001 385.27"/>
        <path class="cls-7" d="M323,385.27l5.844-3.384-2.832-1.654-5.857,3.389Z"/>
        <polygon class="cls-8" points="328.845 381.886 328.845 383.42 328.845 383.42 323.001 386.804 323.001 386.804 323.001 385.27 328.845 381.886 328.845 381.886"/>
        <polygon class="cls-3" points="312.389 371.689 317.827 368.506 298.946 357.612 298.946 357.612 293.472 360.765 312.389 371.689"/>
        <path class="cls-4" d="M293.472,360.765v35.178l18.917,10.912V371.689Z"/>
        <polygon class="cls-5" points="312.389 406.855 317.827 403.701 317.827 403.701 317.827 368.506 317.827 368.506 312.389 371.689 312.389 406.855 312.389 406.855"/>
        <polygon class="cls-1" points="314.104 400.71 316.141 399.515 316.141 383.194 314.104 384.37 314.104 400.71"/>
        <polygon class="cls-6" points="314.979 389.884 314.979 391.427 312.134 389.766 312.134 389.766 312.134 388.244 314.979 389.884"/>
        <path class="cls-7" d="M314.979,389.884l5.842-3.378-2.829-1.649-5.858,3.387Z"/>
        <polygon class="cls-8" points="320.821 386.506 320.821 388.037 320.821 388.037 314.979 391.427 314.979 391.427 314.979 389.884 320.821 386.506 320.821 386.506"/>
        <polygon class="cls-3" points="271.517 394.937 310.272 372.886 291.382 361.989 291.382 361.989 252.572 384.046 271.517 394.937"/>
        <path class="cls-4" d="M252.572,384.046V419.2l18.945,10.924V394.937Z"/>
        <polygon class="cls-5" points="271.517 430.124 310.272 408.044 310.272 408.044 310.272 372.886 310.272 372.886 271.517 394.937 271.517 430.124 271.517 430.124"/>
        <polygon class="cls-1" points="273.426 424.02 308.577 403.875 308.577 387.565 273.426 407.693 273.426 424.02"/>
        <polygon class="cls-3" points="276.566 415.811 305.052 399.368 305.052 393.394 276.566 409.864 276.566 415.811"/>
        <polygon class="cls-9" points="283.789 398.586 306.927 385.494 306.927 383.503 283.789 396.61 283.789 398.586"/>
        <polygon class="cls-6" points="296.894 387.244 307.088 381.474 307.088 378.884 296.894 384.615 296.894 387.244"/>
        <polygon class="cls-2" points="269.743 430.826 269.743 395.583 261.854 400.153 261.854 435.401 269.743 430.826"/>
        <path class="cls-10" d="M247.113,387.86v73.987L356.629,398.4V324.422Zm102.992-5.711-96.47,55.889v-30.11l96.47-55.895Z"/>
        <path class="cls-1" d="M354.742,366.211a4.034,4.034,0,0,1-1.805,3.13c-1.006.56-1.816.094-1.816-1.048a2.387,2.387,0,0,1,.024-.4,4.171,4.171,0,0,0,1.54-2.56,1.734,1.734,0,0,1,.252-.169C353.929,364.591,354.742,365.037,354.742,366.211Z"/>
        <path class="cls-9" d="M352.685,365.332a4.171,4.171,0,0,1-1.54,2.56A4.155,4.155,0,0,1,352.685,365.332Z"/>
        <path class="cls-11" d="M361.241,333.422l-105.283,61v61l105.283-61.007ZM262.479,443.867V393.205l96.468-55.9v50.676Z"/>
        <polygon class="cls-3" points="256.807 471.824 221.168 451.251 221.168 366.497 286.85 373.751 260.533 389.604 261.041 451.682 256.807 471.824"/>
        <polygon class="cls-11" points="330.678 303.047 221.168 366.497 256.807 387.07 280.873 380.595 366.318 323.617 330.678 303.047"/>
        <path class="cls-5" d="M256.807,387.07v84.754L366.318,408.38V323.617ZM359.8,388.438l-96.468,55.89V393.66L359.8,337.77Z"/>
        <polygon class="cls-12" points="288.272 445.136 263.33 459.541 263.33 452.605 288.272 438.209 288.272 445.136"/>
        <polygon class="cls-6" points="298.638 432.227 292.325 435.876 292.325 442.794 298.638 439.151 298.638 432.227"/>
        <rect class="cls-1" x="337.709" y="249.115" width="24.393" height="67.196"/>
        <polygon class="cls-2" points="352.943 297.237 352.943 261.584 342.224 267.561 342.224 303.199 352.943 297.237"/>
        <polygon class="cls-3" points="335.997 271.31 341.438 268.142 322.563 257.239 322.563 257.239 317.089 260.39 335.997 271.31"/>
        <path class="cls-4" d="M317.089,260.39v35.18L336,306.479V271.31Z"/>
        <polygon class="cls-5" points="335.997 306.479 341.438 303.332 341.438 303.332 341.438 268.142 341.438 268.142 335.997 271.31 335.997 306.479 335.997 306.479"/>
        <polygon class="cls-1" points="337.709 300.329 339.761 299.143 339.761 282.821 337.709 283.986 337.709 300.329"/>
        <polygon class="cls-6" points="338.594 289.508 338.594 291.051 335.746 289.402 335.746 289.402 335.746 287.877 338.594 289.508"/>
        <path class="cls-7" d="M338.594,289.508l5.829-3.374-2.823-1.655-5.854,3.4Z"/>
        <polygon class="cls-8" points="344.423 286.134 344.423 287.662 344.423 287.662 338.594 291.051 338.594 291.051 338.594 289.508 344.423 286.134 344.423 286.134"/>
        <polygon class="cls-3" points="327.976 275.933 333.417 272.756 314.535 261.859 314.535 261.859 309.066 265.012 327.976 275.933"/>
        <path class="cls-4" d="M309.066,265.012v35.181l18.91,10.909V275.933Z"/>
        <polygon class="cls-5" points="327.976 311.102 333.417 307.951 333.417 307.951 333.417 272.756 333.417 272.756 327.976 275.933 327.976 311.102 327.976 311.102"/>
        <polygon class="cls-1" points="329.697 304.954 331.737 303.765 331.737 287.434 329.697 288.615 329.697 304.954"/>
        <polygon class="cls-6" points="330.572 294.134 330.572 295.677 327.728 294.025 327.728 294.025 327.728 292.491 330.572 294.134"/>
        <path class="cls-7" d="M330.572,294.134l5.833-3.372-2.824-1.661-5.853,3.39Z"/>
        <polygon class="cls-8" points="336.405 290.762 336.405 292.29 336.405 292.29 330.572 295.677 330.572 295.677 330.572 294.134 336.405 290.762 336.405 290.762"/>
        <polygon class="cls-3" points="320.409 280.308 325.849 277.127 306.961 266.227 306.961 266.227 301.496 269.381 320.409 280.308"/>
        <path class="cls-4" d="M301.5,269.381v35.166l18.913,10.915V280.308Z"/>
        <polygon class="cls-5" points="320.409 315.462 325.849 312.317 325.849 312.317 325.849 277.127 325.849 277.127 320.409 280.308 320.409 315.462 320.409 315.462"/>
        <polygon class="cls-1" points="322.122 309.329 324.17 308.134 324.17 291.815 322.122 292.986 322.122 309.329"/>
        <polygon class="cls-6" points="323.001 298.509 323.001 300.043 320.156 298.391 320.156 298.391 320.156 296.86 323.001 298.509"/>
        <path class="cls-7" d="M323,298.509l5.844-3.384-2.832-1.655-5.857,3.39Z"/>
        <polygon class="cls-8" points="328.845 295.125 328.845 296.659 328.845 296.659 323.001 300.043 323.001 300.043 323.001 298.509 328.845 295.125 328.845 295.125"/>
        <polygon class="cls-3" points="312.389 284.927 317.827 281.744 298.946 270.85 298.946 270.85 293.472 274.003 312.389 284.927"/>
        <path class="cls-4" d="M293.472,274v35.179l18.917,10.911V284.927Z"/>
        <polygon class="cls-5" points="312.389 320.093 317.827 316.94 317.827 316.94 317.827 281.744 317.827 281.744 312.389 284.927 312.389 320.093 312.389 320.093"/>
        <polygon class="cls-1" points="314.104 313.949 316.141 312.754 316.141 296.432 314.104 297.609 314.104 313.949"/>
        <polygon class="cls-6" points="314.979 303.122 314.979 304.665 312.134 303.004 312.134 303.004 312.134 301.482 314.979 303.122"/>
        <path class="cls-7" d="M314.979,303.122l5.842-3.377-2.829-1.649-5.858,3.386Z"/>
        <polygon class="cls-8" points="320.821 299.745 320.821 301.276 320.821 301.276 314.979 304.665 314.979 304.665 314.979 303.122 320.821 299.745 320.821 299.745"/>
        <polygon class="cls-3" points="271.517 308.175 310.272 286.125 291.382 275.228 291.382 275.228 252.572 297.284 271.517 308.175"/>
        <path class="cls-4" d="M252.572,297.284v35.155l18.945,10.923V308.175Z"/>
        <polygon class="cls-5" points="271.517 343.362 310.272 321.282 310.272 321.282 310.272 286.125 310.272 286.125 271.517 308.175 271.517 343.362 271.517 343.362"/>
        <polygon class="cls-1" points="273.426 337.259 308.577 317.114 308.577 300.804 273.426 320.931 273.426 337.259"/>
        <polygon class="cls-3" points="276.566 329.049 305.052 312.606 305.052 306.633 276.566 323.102 276.566 329.049"/>
        <polygon class="cls-9" points="283.789 311.825 306.927 298.733 306.927 296.742 283.789 309.848 283.789 311.825"/>
        <polygon class="cls-6" points="296.894 300.482 307.088 294.712 307.088 292.122 296.894 297.854 296.894 300.482"/>
        <polygon class="cls-2" points="269.743 344.064 269.743 308.821 261.854 313.391 261.854 348.64 269.743 344.064"/>
        <path class="cls-10" d="M247.113,301.1v73.987l109.516-63.444V237.661Zm102.992-5.712-96.47,55.89v-30.11l96.47-55.895Z"/>
        <path class="cls-1" d="M354.742,279.449a4.032,4.032,0,0,1-1.805,3.13c-1.006.561-1.816.095-1.816-1.047a2.381,2.381,0,0,1,.024-.4,4.173,4.173,0,0,0,1.54-2.561,1.648,1.648,0,0,1,.252-.168C353.929,277.829,354.742,278.275,354.742,279.449Z"/>
        <path class="cls-9" d="M352.685,278.57a4.173,4.173,0,0,1-1.54,2.561A4.16,4.16,0,0,1,352.685,278.57Z"/>
        <path class="cls-11" d="M361.241,246.661l-105.283,61v61L361.241,307.65ZM262.479,357.106V306.444l96.468-55.9v50.677Z"/>
        <polygon class="cls-3" points="256.807 385.062 221.168 364.489 221.168 279.735 286.85 286.989 260.533 302.842 261.041 364.92 256.807 385.062"/>
        <polygon class="cls-11" points="330.678 216.285 221.168 279.735 256.807 300.308 280.873 293.833 366.318 236.855 330.678 216.285"/>
        <path class="cls-5" d="M256.807,300.308v84.754l109.511-63.444V236.855ZM359.8,301.677,263.33,357.566V306.9L359.8,251.009Z"/>
        <polygon class="cls-12" points="288.272 358.374 263.33 372.779 263.33 365.844 288.272 351.448 288.272 358.374"/>
        <polygon class="cls-6" points="298.638 345.466 292.325 349.115 292.325 356.032 298.638 352.389 298.638 345.466"/>
        <rect class="cls-1" x="227.522" y="400.299" width="24.393" height="67.196"/>
        <polygon class="cls-2" points="242.755 448.422 242.755 412.769 232.037 418.745 232.037 454.383 242.755 448.422"/>
        <polygon class="cls-3" points="225.81 422.494 231.251 419.326 212.376 408.423 212.376 408.423 206.902 411.574 225.81 422.494"/>
        <path class="cls-4" d="M206.9,411.574v35.181l18.908,10.909v-35.17Z"/>
        <polygon class="cls-5" points="225.81 457.664 231.251 454.516 231.251 454.516 231.251 419.326 231.251 419.326 225.81 422.494 225.81 457.664 225.81 457.664"/>
        <polygon class="cls-1" points="227.522 451.513 229.574 450.327 229.574 434.005 227.522 435.17 227.522 451.513"/>
        <polygon class="cls-6" points="228.407 440.693 228.407 442.235 225.559 440.586 225.559 440.586 225.559 439.061 228.407 440.693"/>
        <path class="cls-7" d="M228.407,440.693l5.829-3.375-2.823-1.655-5.854,3.4Z"/>
        <polygon class="cls-8" points="234.236 437.318 234.236 438.846 234.236 438.846 228.407 442.235 228.407 442.235 228.407 440.693 234.236 437.318 234.236 437.318"/>
        <polygon class="cls-3" points="217.789 427.117 223.23 423.94 204.348 413.043 204.348 413.043 198.879 416.197 217.789 427.117"/>
        <path class="cls-4" d="M198.879,416.2v35.18l18.91,10.909V427.117Z"/>
        <polygon class="cls-5" points="217.789 462.286 223.23 459.136 223.23 459.136 223.23 423.94 223.23 423.94 217.789 427.117 217.789 462.286 217.789 462.286"/>
        <polygon class="cls-1" points="219.51 456.138 221.55 454.95 221.55 438.619 219.51 439.799 219.51 456.138"/>
        <polygon class="cls-6" points="220.385 445.318 220.385 446.861 217.541 445.209 217.541 445.209 217.541 443.675 220.385 445.318"/>
        <path class="cls-7" d="M220.385,445.318l5.833-3.372-2.824-1.66-5.853,3.389Z"/>
        <polygon class="cls-8" points="226.218 441.946 226.218 443.475 226.218 443.475 220.385 446.861 220.385 446.861 220.385 445.318 226.218 441.946 226.218 441.946"/>
        <polygon class="cls-3" points="210.222 431.492 215.662 428.312 196.774 417.412 196.774 417.412 191.309 420.565 210.222 431.492"/>
        <path class="cls-4" d="M191.309,420.565v35.166l18.913,10.915V431.492Z"/>
        <polygon class="cls-5" points="210.222 466.646 215.662 463.501 215.662 463.501 215.662 428.312 215.662 428.312 210.222 431.492 210.222 466.646 210.222 466.646"/>
        <polygon class="cls-1" points="211.935 460.513 213.983 459.319 213.983 442.999 211.935 444.171 211.935 460.513"/>
        <polygon class="cls-6" points="212.814 449.693 212.814 451.227 209.969 449.575 209.969 449.575 209.969 448.044 212.814 449.693"/>
        <path class="cls-7" d="M212.814,449.693l5.844-3.384-2.832-1.655-5.857,3.39Z"/>
        <polygon class="cls-8" points="218.658 446.309 218.658 447.843 218.658 447.843 212.814 451.227 212.814 451.227 212.814 449.693 218.658 446.309 218.658 446.309"/>
        <polygon class="cls-3" points="202.202 436.112 207.64 432.928 188.759 422.034 188.759 422.034 183.285 425.188 202.202 436.112"/>
        <path class="cls-4" d="M183.285,425.188v35.178L202.2,471.278V436.112Z"/>
        <polygon class="cls-5" points="202.202 471.278 207.64 468.124 207.64 468.124 207.64 432.928 207.64 432.928 202.202 436.112 202.202 471.278 202.202 471.278"/>
        <polygon class="cls-1" points="203.917 465.133 205.954 463.938 205.954 447.616 203.917 448.793 203.917 465.133"/>
        <polygon class="cls-6" points="204.792 454.307 204.792 455.849 201.946 454.188 201.946 454.188 201.946 452.666 204.792 454.307"/>
        <path class="cls-7" d="M204.792,454.307l5.842-3.378-2.829-1.649-5.859,3.386Z"/>
        <polygon class="cls-8" points="210.634 450.929 210.634 452.46 210.634 452.46 204.792 455.849 204.792 455.849 204.792 454.307 210.634 450.929 210.634 450.929"/>
        <polygon class="cls-3" points="161.33 459.36 200.085 437.309 181.195 426.412 181.195 426.412 142.384 448.469 161.33 459.36"/>
        <path class="cls-4" d="M142.384,448.469v35.154l18.946,10.924V459.36Z"/>
        <polygon class="cls-5" points="161.33 494.547 200.085 472.466 200.085 472.466 200.085 437.309 200.085 437.309 161.33 459.36 161.33 494.547 161.33 494.547"/>
        <polygon class="cls-1" points="163.239 488.443 198.39 468.298 198.39 451.988 163.239 472.115 163.239 488.443"/>
        <polygon class="cls-3" points="166.379 480.233 194.865 463.79 194.865 457.817 166.379 474.287 166.379 480.233"/>
        <polygon class="cls-9" points="173.602 463.009 196.74 449.917 196.74 447.926 173.602 461.033 173.602 463.009"/>
        <polygon class="cls-6" points="186.707 451.666 196.901 445.896 196.901 443.306 186.707 449.038 186.707 451.666"/>
        <polygon class="cls-2" points="159.556 495.249 159.556 460.006 151.667 464.575 151.667 499.824 159.556 495.249"/>
        <path class="cls-10" d="M136.926,452.283V526.27l109.516-63.444V388.845Zm102.992-5.711-96.47,55.889v-30.11l96.47-55.895Z"/>
        <path class="cls-1" d="M244.555,430.633a4.032,4.032,0,0,1-1.805,3.13c-1.006.561-1.816.1-1.816-1.047a2.387,2.387,0,0,1,.024-.4,4.173,4.173,0,0,0,1.54-2.561,1.725,1.725,0,0,1,.252-.168C243.742,429.014,244.555,429.459,244.555,430.633Z"/>
        <path class="cls-9" d="M242.5,429.754a4.173,4.173,0,0,1-1.54,2.561A4.16,4.16,0,0,1,242.5,429.754Z"/>
        <path class="cls-11" d="M251.054,397.845l-105.283,61v61l105.283-61.007ZM152.292,508.29V457.628l96.468-55.9V452.4Z"/>
        <polygon class="cls-3" points="146.62 536.247 110.981 515.674 110.981 430.92 176.663 438.174 150.346 454.026 150.854 516.105 146.62 536.247"/>
        <polygon class="cls-11" points="220.491 367.47 110.981 430.92 146.62 451.492 170.686 445.017 256.131 388.039 220.491 367.47"/>
        <path class="cls-5" d="M146.62,451.492v84.755L256.131,472.8V388.039Zm102.991,1.369L153.143,508.75V458.083l96.468-55.89Z"/>
        <polygon class="cls-12" points="178.085 509.559 153.143 523.963 153.143 517.028 178.085 502.632 178.085 509.559"/>
        <polygon class="cls-6" points="188.45 496.65 182.138 500.299 182.138 507.216 188.45 503.573 188.45 496.65"/>
        <rect class="cls-1" x="227.522" y="312.876" width="24.393" height="67.196"/>
        <polygon class="cls-2" points="242.755 360.998 242.755 325.345 232.037 331.321 232.037 366.96 242.755 360.998"/>
        <polygon class="cls-3" points="225.81 335.071 231.251 331.903 212.376 321 212.376 321 206.902 324.15 225.81 335.071"/>
        <path class="cls-4" d="M206.9,324.15v35.181L225.81,370.24V335.071Z"/>
        <polygon class="cls-5" points="225.81 370.24 231.251 367.092 231.251 367.092 231.251 331.903 231.251 331.903 225.81 335.071 225.81 370.24 225.81 370.24"/>
        <polygon class="cls-1" points="227.522 364.089 229.574 362.903 229.574 346.581 227.522 347.747 227.522 364.089"/>
        <polygon class="cls-6" points="228.407 353.269 228.407 354.812 225.559 353.163 225.559 353.163 225.559 351.638 228.407 353.269"/>
        <path class="cls-7" d="M228.407,353.269l5.829-3.375-2.823-1.655-5.854,3.4Z"/>
        <polygon class="cls-8" points="234.236 349.894 234.236 351.422 234.236 351.422 228.407 354.812 228.407 354.812 228.407 353.269 234.236 349.894 234.236 349.894"/>
        <polygon class="cls-3" points="217.789 339.693 223.23 336.516 204.348 325.619 204.348 325.619 198.879 328.773 217.789 339.693"/>
        <path class="cls-4" d="M198.879,328.773v35.181l18.91,10.908V339.693Z"/>
        <polygon class="cls-5" points="217.789 374.862 223.23 371.712 223.23 371.712 223.23 336.516 223.23 336.516 217.789 339.693 217.789 374.862 217.789 374.862"/>
        <polygon class="cls-1" points="219.51 368.715 221.55 367.526 221.55 351.195 219.51 352.375 219.51 368.715"/>
        <polygon class="cls-6" points="220.385 357.894 220.385 359.437 217.541 357.785 217.541 357.785 217.541 356.251 220.385 357.894"/>
        <path class="cls-7" d="M220.385,357.894l5.833-3.371-2.824-1.661-5.853,3.389Z"/>
        <polygon class="cls-8" points="226.218 354.523 226.218 356.051 226.218 356.051 220.385 359.437 220.385 359.437 220.385 357.894 226.218 354.523 226.218 354.523"/>
        <polygon class="cls-3" points="210.222 344.068 215.662 340.888 196.774 329.988 196.774 329.988 191.309 333.142 210.222 344.068"/>
        <path class="cls-4" d="M191.309,333.142v35.166l18.913,10.914V344.068Z"/>
        <polygon class="cls-5" points="210.222 379.222 215.662 376.078 215.662 376.078 215.662 340.888 215.662 340.888 210.222 344.068 210.222 379.222 210.222 379.222"/>
        <polygon class="cls-1" points="211.935 373.089 213.983 371.895 213.983 355.576 211.935 356.747 211.935 373.089"/>
        <polygon class="cls-6" points="212.814 362.269 212.814 363.803 209.969 362.151 209.969 362.151 209.969 360.62 212.814 362.269"/>
        <path class="cls-7" d="M212.814,362.269l5.844-3.384-2.832-1.654-5.857,3.389Z"/>
        <polygon class="cls-8" points="218.658 358.885 218.658 360.419 218.658 360.419 212.814 363.803 212.814 363.803 212.814 362.269 218.658 358.885 218.658 358.885"/>
        <polygon class="cls-3" points="202.202 348.688 207.64 345.505 188.759 334.611 188.759 334.611 183.285 337.764 202.202 348.688"/>
        <path class="cls-4" d="M183.285,337.764v35.178L202.2,383.854V348.688Z"/>
        <polygon class="cls-5" points="202.202 383.854 207.64 380.7 207.64 380.7 207.64 345.505 207.64 345.505 202.202 348.688 202.202 383.854 202.202 383.854"/>
        <polygon class="cls-1" points="203.917 377.709 205.954 376.514 205.954 360.193 203.917 361.369 203.917 377.709"/>
        <polygon class="cls-6" points="204.792 366.883 204.792 368.425 201.946 366.765 201.946 366.765 201.946 365.243 204.792 366.883"/>
        <path class="cls-7" d="M204.792,366.883l5.842-3.378-2.829-1.649-5.859,3.387Z"/>
        <polygon class="cls-8" points="210.634 363.505 210.634 365.036 210.634 365.036 204.792 368.425 204.792 368.425 204.792 366.883 210.634 363.505 210.634 363.505"/>
        <polygon class="cls-3" points="161.33 371.936 200.085 349.885 181.195 338.988 181.195 338.988 142.384 361.045 161.33 371.936"/>
        <path class="cls-4" d="M142.384,361.045V396.2l18.946,10.924V371.936Z"/>
        <polygon class="cls-5" points="161.33 407.123 200.085 385.042 200.085 385.042 200.085 349.885 200.085 349.885 161.33 371.936 161.33 407.123 161.33 407.123"/>
        <polygon class="cls-1" points="163.239 401.019 198.39 380.874 198.39 364.564 163.239 384.691 163.239 401.019"/>
        <polygon class="cls-3" points="166.379 392.81 194.865 376.367 194.865 370.393 166.379 386.863 166.379 392.81"/>
        <polygon class="cls-9" points="173.602 375.585 196.74 362.493 196.74 360.502 173.602 373.609 173.602 375.585"/>
        <polygon class="cls-6" points="186.707 364.243 196.901 358.473 196.901 355.883 186.707 361.614 186.707 364.243"/>
        <polygon class="cls-2" points="159.556 407.825 159.556 372.582 151.667 377.151 151.667 412.4 159.556 407.825"/>
        <path class="cls-10" d="M136.926,364.859v73.987L246.442,375.4V301.421Zm102.992-5.711-96.47,55.889v-30.11l96.47-55.9Z"/>
        <path class="cls-1" d="M244.555,343.21a4.032,4.032,0,0,1-1.805,3.129c-1.006.561-1.816.1-1.816-1.047a2.387,2.387,0,0,1,.024-.4,4.174,4.174,0,0,0,1.54-2.56,1.734,1.734,0,0,1,.252-.169C243.742,341.59,244.555,342.036,244.555,343.21Z"/>
        <path class="cls-9" d="M242.5,342.331a4.174,4.174,0,0,1-1.54,2.56A4.155,4.155,0,0,1,242.5,342.331Z"/>
        <path class="cls-11" d="M251.054,310.421l-105.283,61v61l105.283-61.007ZM152.292,420.866V370.2l96.468-55.9v50.677Z"/>
        <polygon class="cls-3" points="146.62 448.823 110.981 428.25 110.981 343.496 176.663 350.75 150.346 366.602 150.854 428.681 146.62 448.823"/>
        <polygon class="cls-11" points="220.491 280.046 110.981 343.496 146.62 364.069 170.686 357.593 256.131 300.616 220.491 280.046"/>
        <path class="cls-5" d="M146.62,364.069v84.754l109.511-63.444V300.616Zm102.991,1.368-96.468,55.89V370.659l96.468-55.89Z"/>
        <polygon class="cls-12" points="178.085 422.135 153.143 436.539 153.143 429.604 178.085 415.208 178.085 422.135"/>
        <polygon class="cls-6" points="188.45 409.226 182.138 412.875 182.138 419.793 188.45 416.15 188.45 409.226"/>
        <rect class="cls-1" x="117.158" y="464.053" width="24.393" height="67.196"/>
        <polygon class="cls-2" points="132.391 512.175 132.391 476.522 121.673 482.498 121.673 518.137 132.391 512.175"/>
        <polygon class="cls-3" points="115.446 486.248 120.887 483.08 102.012 472.177 102.012 472.177 96.538 475.327 115.446 486.248"/>
        <path class="cls-4" d="M96.538,475.327v35.181l18.908,10.909V486.248Z"/>
        <polygon class="cls-5" points="115.446 521.417 120.887 518.269 120.887 518.269 120.887 483.08 120.887 483.08 115.446 486.248 115.446 521.417 115.446 521.417"/>
        <polygon class="cls-1" points="117.158 515.266 119.21 514.08 119.21 497.758 117.158 498.924 117.158 515.266"/>
        <polygon class="cls-6" points="118.043 504.446 118.043 505.989 115.195 504.34 115.195 504.34 115.195 502.815 118.043 504.446"/>
        <path class="cls-7" d="M118.043,504.446l5.829-3.375-2.823-1.655-5.854,3.4Z"/>
        <polygon class="cls-8" points="123.872 501.071 123.872 502.599 123.872 502.599 118.043 505.989 118.043 505.989 118.043 504.446 123.872 501.071 123.872 501.071"/>
        <polygon class="cls-3" points="107.425 490.87 112.866 487.693 93.983 476.796 93.983 476.796 88.514 479.95 107.425 490.87"/>
        <path class="cls-4" d="M88.514,479.95v35.181l18.911,10.908V490.87Z"/>
        <polygon class="cls-5" points="107.425 526.039 112.866 522.889 112.866 522.889 112.866 487.693 112.866 487.693 107.425 490.87 107.425 526.039 107.425 526.039"/>
        <polygon class="cls-1" points="109.146 519.892 111.186 518.703 111.186 502.372 109.146 503.552 109.146 519.892"/>
        <polygon class="cls-6" points="110.021 509.071 110.021 510.614 107.177 508.962 107.177 508.962 107.177 507.428 110.021 509.071"/>
        <path class="cls-7" d="M110.021,509.071l5.833-3.371-2.824-1.661-5.853,3.389Z"/>
        <polygon class="cls-8" points="115.854 505.7 115.854 507.228 115.854 507.228 110.021 510.614 110.021 510.614 110.021 509.071 115.854 505.7 115.854 505.7"/>
        <polygon class="cls-3" points="99.858 495.245 105.298 492.065 86.41 481.165 86.41 481.165 80.945 484.319 99.858 495.245"/>
        <path class="cls-4" d="M80.945,484.319v35.166L99.858,530.4V495.245Z"/>
        <polygon class="cls-5" points="99.858 530.4 105.298 527.255 105.298 527.255 105.298 492.065 105.298 492.065 99.858 495.245 99.858 530.4 99.858 530.4"/>
        <polygon class="cls-1" points="101.571 524.267 103.619 523.072 103.619 506.753 101.571 507.924 101.571 524.267"/>
        <polygon class="cls-6" points="102.45 513.446 102.45 514.98 99.604 513.328 99.604 513.328 99.604 511.797 102.45 513.446"/>
        <path class="cls-7" d="M102.45,513.446l5.843-3.383-2.831-1.655L99.6,511.8Z"/>
        <polygon class="cls-8" points="108.293 510.063 108.293 511.596 108.293 511.596 102.45 514.98 102.45 514.98 102.45 513.446 108.293 510.063 108.293 510.063"/>
        <polygon class="cls-3" points="91.838 499.865 97.275 496.682 78.395 485.788 78.395 485.788 72.921 488.941 91.838 499.865"/>
        <path class="cls-4" d="M72.921,488.941v35.178l18.917,10.912V499.865Z"/>
        <polygon class="cls-5" points="91.838 535.031 97.275 531.877 97.275 531.877 97.275 496.682 97.275 496.682 91.838 499.865 91.838 535.031 91.838 535.031"/>
        <polygon class="cls-1" points="93.553 528.886 95.59 527.691 95.59 511.37 93.553 512.546 93.553 528.886"/>
        <polygon class="cls-6" points="94.427 518.06 94.427 519.603 91.582 517.942 91.582 517.942 91.582 516.42 94.427 518.06"/>
        <path class="cls-7" d="M94.427,518.06l5.843-3.378-2.829-1.649-5.859,3.387Z"/>
        <polygon class="cls-8" points="100.27 514.682 100.27 516.213 100.27 516.213 94.427 519.603 94.427 519.603 94.427 518.06 100.27 514.682 100.27 514.682"/>
        <polygon class="cls-3" points="50.966 523.113 89.721 501.062 70.831 490.165 70.831 490.165 32.02 512.222 50.966 523.113"/>
        <path class="cls-4" d="M32.02,512.222v35.154L50.966,558.3V523.113Z"/>
        <polygon class="cls-5" points="50.966 558.3 89.721 536.22 89.721 536.22 89.721 501.062 89.721 501.062 50.966 523.113 50.966 558.3 50.966 558.3"/>
        <polygon class="cls-1" points="52.875 552.196 88.026 532.051 88.026 515.741 52.875 535.869 52.875 552.196"/>
        <polygon class="cls-3" points="56.015 543.987 84.501 527.544 84.501 521.57 56.015 538.04 56.015 543.987"/>
        <polygon class="cls-9" points="63.238 526.762 86.375 513.67 86.375 511.679 63.238 524.786 63.238 526.762"/>
        <polygon class="cls-6" points="76.343 515.42 86.536 509.65 86.536 507.06 76.343 512.791 76.343 515.42"/>
        <polygon class="cls-2" points="49.192 559.002 49.192 523.759 41.302 528.329 41.302 563.577 49.192 559.002"/>
        <path class="cls-10" d="M26.561,516.036v73.987l109.516-63.444V452.6Zm102.993-5.711-96.47,55.889V536.1l96.47-55.9Z"/>
        <path class="cls-1" d="M134.191,494.387a4.034,4.034,0,0,1-1.805,3.13c-1.006.56-1.816.094-1.816-1.048a2.49,2.49,0,0,1,.023-.4,4.166,4.166,0,0,0,1.54-2.56,1.8,1.8,0,0,1,.253-.169C133.378,492.767,134.191,493.213,134.191,494.387Z"/>
        <path class="cls-9" d="M132.133,493.508a4.166,4.166,0,0,1-1.54,2.56A4.164,4.164,0,0,1,132.133,493.508Z"/>
        <path class="cls-11" d="M140.69,461.6l-105.283,61v61L140.69,522.588ZM41.928,572.044V521.381l96.468-55.9v50.676Z"/>
        <polygon class="cls-3" points="36.256 600 0.617 579.427 0.617 494.673 66.299 501.927 39.982 517.78 40.489 579.858 36.256 600"/>
        <polygon class="cls-11" points="110.127 431.223 0.617 494.673 36.256 515.246 60.322 508.771 145.766 451.793 110.127 431.223"/>
        <path class="cls-5" d="M36.256,515.246V600l109.51-63.444V451.793Zm102.991,1.368L42.779,572.5V521.836l96.468-55.89Z"/>
        <polygon class="cls-12" points="67.72 573.312 42.779 587.717 42.779 580.781 67.72 566.385 67.72 573.312"/>
        <polygon class="cls-6" points="78.086 560.403 71.774 564.052 71.774 570.97 78.086 567.327 78.086 560.403"/>
        <rect class="cls-1" x="117.158" y="377.06" width="24.393" height="67.196"/>
        <polygon class="cls-2" points="132.391 425.182 132.391 389.529 121.673 395.505 121.673 431.144 132.391 425.182"/>
        <polygon class="cls-3" points="115.446 399.255 120.887 396.087 102.012 385.184 102.012 385.184 96.538 388.334 115.446 399.255"/>
        <path class="cls-4" d="M96.538,388.334v35.181l18.908,10.909V399.255Z"/>
        <polygon class="cls-5" points="115.446 434.424 120.887 431.276 120.887 431.276 120.887 396.087 120.887 396.087 115.446 399.255 115.446 434.424 115.446 434.424"/>
        <polygon class="cls-1" points="117.158 428.273 119.21 427.087 119.21 410.766 117.158 411.931 117.158 428.273"/>
        <polygon class="cls-6" points="118.043 417.453 118.043 418.996 115.195 417.347 115.195 417.347 115.195 415.822 118.043 417.453"/>
        <path class="cls-7" d="M118.043,417.453l5.829-3.375-2.823-1.655-5.854,3.4Z"/>
        <polygon class="cls-8" points="123.872 414.078 123.872 415.606 123.872 415.606 118.043 418.996 118.043 418.996 118.043 417.453 123.872 414.078 123.872 414.078"/>
        <polygon class="cls-3" points="107.425 403.877 112.866 400.7 93.983 389.803 93.983 389.803 88.514 392.957 107.425 403.877"/>
        <path class="cls-4" d="M88.514,392.957v35.181l18.911,10.908V403.877Z"/>
        <polygon class="cls-5" points="107.425 439.046 112.866 435.896 112.866 435.896 112.866 400.7 112.866 400.7 107.425 403.877 107.425 439.046 107.425 439.046"/>
        <polygon class="cls-1" points="109.146 432.899 111.186 431.71 111.186 415.379 109.146 416.559 109.146 432.899"/>
        <polygon class="cls-6" points="110.021 422.078 110.021 423.621 107.177 421.969 107.177 421.969 107.177 420.435 110.021 422.078"/>
        <path class="cls-7" d="M110.021,422.078l5.833-3.371-2.824-1.661-5.853,3.389Z"/>
        <polygon class="cls-8" points="115.854 418.707 115.854 420.235 115.854 420.235 110.021 423.621 110.021 423.621 110.021 422.078 115.854 418.707 115.854 418.707"/>
        <polygon class="cls-3" points="99.858 408.252 105.298 405.072 86.41 394.172 86.41 394.172 80.945 397.326 99.858 408.252"/>
        <path class="cls-4" d="M80.945,397.326v35.166l18.913,10.915V408.252Z"/>
        <polygon class="cls-5" points="99.858 443.407 105.298 440.262 105.298 440.262 105.298 405.072 105.298 405.072 99.858 408.252 99.858 443.407 99.858 443.407"/>
        <polygon class="cls-1" points="101.571 437.274 103.619 436.079 103.619 419.76 101.571 420.931 101.571 437.274"/>
        <polygon class="cls-6" points="102.45 426.453 102.45 427.987 99.604 426.335 99.604 426.335 99.604 424.804 102.45 426.453"/>
        <path class="cls-7" d="M102.45,426.453l5.843-3.383-2.831-1.655L99.6,424.8Z"/>
        <polygon class="cls-8" points="108.293 423.07 108.293 424.603 108.293 424.603 102.45 427.987 102.45 427.987 102.45 426.453 108.293 423.07 108.293 423.07"/>
        <polygon class="cls-3" points="91.838 412.872 97.275 409.689 78.395 398.795 78.395 398.795 72.921 401.948 91.838 412.872"/>
        <path class="cls-4" d="M72.921,401.948v35.178l18.917,10.912V412.872Z"/>
        <polygon class="cls-5" points="91.838 448.038 97.275 444.884 97.275 444.884 97.275 409.689 97.275 409.689 91.838 412.872 91.838 448.038 91.838 448.038"/>
        <polygon class="cls-1" points="93.553 441.893 95.59 440.698 95.59 424.377 93.553 425.553 93.553 441.893"/>
        <polygon class="cls-6" points="94.427 431.067 94.427 432.61 91.582 430.949 91.582 430.949 91.582 429.427 94.427 431.067"/>
        <path class="cls-7" d="M94.427,431.067l5.843-3.378-2.829-1.649-5.859,3.387Z"/>
        <polygon class="cls-8" points="100.27 427.689 100.27 429.22 100.27 429.22 94.427 432.61 94.427 432.61 94.427 431.067 100.27 427.689 100.27 427.689"/>
        <polygon class="cls-3" points="50.966 436.12 89.721 414.069 70.831 403.172 70.831 403.172 32.02 425.229 50.966 436.12"/>
        <path class="cls-4" d="M32.02,425.229v35.154l18.946,10.924V436.12Z"/>
        <polygon class="cls-5" points="50.966 471.307 89.721 449.227 89.721 449.227 89.721 414.069 89.721 414.069 50.966 436.12 50.966 471.307 50.966 471.307"/>
        <polygon class="cls-1" points="52.875 465.203 88.026 445.058 88.026 428.748 52.875 448.876 52.875 465.203"/>
        <polygon class="cls-3" points="56.015 456.994 84.501 440.551 84.501 434.577 56.015 451.047 56.015 456.994"/>
        <polygon class="cls-9" points="63.238 439.769 86.375 426.677 86.375 424.686 63.238 437.793 63.238 439.769"/>
        <polygon class="cls-6" points="76.343 428.427 86.536 422.657 86.536 420.067 76.343 425.798 76.343 428.427"/>
        <polygon class="cls-2" points="49.192 472.009 49.192 436.766 41.302 441.336 41.302 476.584 49.192 472.009"/>
        <path class="cls-10" d="M26.561,429.043V503.03l109.516-63.444V365.605Zm102.993-5.711-96.47,55.889v-30.11l96.47-55.895Z"/>
        <path class="cls-1" d="M134.191,407.394a4.034,4.034,0,0,1-1.805,3.13c-1.006.56-1.816.094-1.816-1.048a2.49,2.49,0,0,1,.023-.4,4.166,4.166,0,0,0,1.54-2.56,1.8,1.8,0,0,1,.253-.169C133.378,405.774,134.191,406.22,134.191,407.394Z"/>
        <path class="cls-9" d="M132.133,406.515a4.166,4.166,0,0,1-1.54,2.56A4.164,4.164,0,0,1,132.133,406.515Z"/>
        <path class="cls-11" d="M140.69,374.605l-105.283,61v61L140.69,435.6ZM41.928,485.051V434.388l96.468-55.9v50.676Z"/>
        <polygon class="cls-3" points="36.256 513.007 0.617 492.434 0.617 407.68 66.299 414.934 39.982 430.787 40.489 492.865 36.256 513.007"/>
        <polygon class="cls-11" points="110.127 344.23 0.617 407.68 36.256 428.253 60.322 421.778 145.766 364.8 110.127 344.23"/>
        <path class="cls-5" d="M36.256,428.253v84.754l109.51-63.444V364.8Zm102.991,1.368-96.468,55.89V434.843l96.468-55.89Z"/>
        <polygon class="cls-12" points="67.72 486.319 42.779 500.724 42.779 493.788 67.72 479.392 67.72 486.319"/>
        <polygon class="cls-6" points="78.086 473.41 71.774 477.059 71.774 483.977 78.086 480.334 78.086 473.41"/>
    </g>
    <g id="arrow_event_critycal">
        <animateTransform attributeName="transform" attributeType="XML" type="translate" from="0 0" to="0 75" dur="1.5s" repeatCount="indefinite" />
        <path class="cls-13" d="M203.823,89.919V101.78l29.419.008-49.777,49.758-49.772-49.758,29.153-.008V89.919Zm0-10.65V60.614H162.846V79.269Zm0-29.3V38.638H162.846V49.967Zm0-21.978V21.546H162.846v6.443Z"/>
    </g>
</svg>