<svg xmlns="http://www.w3.org/2000/svg"
    xmlns:xlink="http://www.w3.org/1999/xlink" viewBox="0 0 379.672 600">
    <defs>
        <style>.cls-1{opacity:0.6;filter:url(#luminosity-invert-noclip);}.cls-2{fill:#bdbec0;}.cls-3{fill:#797306;}.cls-4{mask:url(#mask);}.cls-5{fill:#a59908;}.cls-6{fill:#4b4800;}.cls-7{fill:#3d3e3e;}.cls-8{fill:#5dc5f0;}.cls-9{fill:#231f20;}.cls-10{fill:url(#Degradado_sin_nombre_3);}</style>
        <filter id="luminosity-invert-noclip" x="80.723" y="293.847" width="298.489" height="306.141" filterUnits="userSpaceOnUse" color-interpolation-filters="sRGB">
            <feColorMatrix values="-1 0 0 0 1 0 -1 0 0 1 0 0 -1 0 1 0 0 0 1 0" result="invert"/>
            <feFlood flood-color="#fff" result="bg"/>
            <feBlend in="invert" in2="bg"/>
        </filter>
        <mask id="mask" x="80.723" y="293.847" width="298.489" height="306.141" maskUnits="userSpaceOnUse">
            <g class="cls-1">
                <polygon class="cls-2" points="99.036 476.612 364.07 321.664 364.07 327.86 99.036 482.648 99.036 476.612"/>
                <polygon class="cls-2" points="99.036 491.001 364.07 336.052 364.07 342.249 99.036 497.038 99.036 491.001"/>
                <polygon class="cls-2" points="99.036 505.39 364.07 350.441 364.07 356.638 99.036 511.427 99.036 505.39"/>
                <polygon class="cls-2" points="99.036 519.779 364.07 364.83 364.07 371.026 99.036 525.815 99.036 519.779"/>
            </g>
        </mask>
        <linearGradient id="Degradado_sin_nombre_3" x1="189.836" y1="151.546" x2="189.836" y2="21.546" gradientUnits="userSpaceOnUse">
            <stop offset="0" stop-color="#a11a16"/>
            <stop offset="0.997" stop-color="#e52521"/>
        </linearGradient>
    </defs>
    <g id="Capa_1" data-name="Capa 1">
        <polygon class="cls-3" points="80.724 464.46 80.724 600 0.435 557.455 0.435 421.916 80.724 464.46"/>
        <g class="cls-4">
            <polygon class="cls-5" points="80.723 464.476 80.723 599.988 379.212 429.36 379.212 293.847 80.723 464.476"/>
        </g>
        <polygon class="cls-6" points="379.236 293.832 298.947 251.3 0.435 421.916 80.724 464.46 379.236 293.832"/>
        <polygon class="cls-7" points="80.723 552.66 80.723 599.988 379.212 429.36 379.212 378.941 80.723 552.66"/>
        <path class="cls-8" d="M238.346,482.763v8.151c0,1.138.82,1.594,1.867,1.047l27.5-15.892a4.149,4.149,0,0,0,1.822-3.142l-.045-8.151c0-1.184-.82-1.64-1.822-1.047l-24.59,14.161-2.914,1.685A4.08,4.08,0,0,0,238.346,482.763Z"/>
        <polygon class="cls-9" points="80.723 552.66 71.686 547.436 71.686 595.211 80.723 599.988 80.723 552.66"/>
    </g>
    <g id="arrow_event_critycal">
        <animateTransform attributeName="transform" attributeType="XML" type="translate" from="0 0" to="0 75" dur="1.5s" repeatCount="indefinite" />
        <path class="cls-10" d="M210.192,89.919V101.78l29.418.008-49.776,49.758-49.773-49.758,29.153-.008V89.919Zm0-10.65V60.614H169.214V79.269Zm0-29.3V38.638H169.214V49.967Zm0-21.978V21.546H169.214v6.443Z"/>
    </g>
</svg>