<svg xmlns="http://www.w3.org/2000/svg" xmlns:xlink="http://www.w3.org/1999/xlink" viewBox="0 0 496.729 600"><defs><style>.cls-1{isolation:isolate;}.cls-18,.cls-2{mix-blend-mode:multiply;}.cls-2{opacity:0.1;}.cls-3{fill:url(#linear-gradient);}.cls-4{fill:url(#linear-gradient-2);}.cls-5{fill:url(#linear-gradient-3);}.cls-6{fill:url(#linear-gradient-4);}.cls-7{fill:#adb4b8;}.cls-8{fill:url(#linear-gradient-5);}.cls-9{fill:url(#linear-gradient-6);}.cls-10{fill:url(#radial-gradient);}.cls-11{fill:url(#linear-gradient-7);}.cls-12{fill:#2e383b;}.cls-13{fill:url(#linear-gradient-8);}.cls-14{fill:url(#linear-gradient-9);}.cls-15{fill:#f7fafb;}.cls-16{fill:#c4c6c9;}.cls-17{fill:#d0d3d5;}.cls-18{opacity:0.2;}.cls-19{fill:url(#linear-gradient-10);}.cls-20{fill:url(#linear-gradient-11);}.cls-21{fill:url(#linear-gradient-12);}.cls-22{fill:url(#radial-gradient-2);}.cls-23{fill:url(#linear-gradient-13);}.cls-24{fill:url(#linear-gradient-14);}.cls-25{fill:url(#linear-gradient-15);}.cls-26{fill:url(#linear-gradient-16);}.cls-27{fill:url(#linear-gradient-17);}.cls-28{fill:url(#linear-gradient-18);}.cls-29{fill:url(#radial-gradient-3);}.cls-30{fill:url(#linear-gradient-19);}.cls-31{fill:url(#linear-gradient-20);}.cls-32{fill:url(#linear-gradient-21);}.cls-33{fill:url(#linear-gradient-22);}.cls-34{fill:url(#linear-gradient-23);}.cls-35{fill:url(#linear-gradient-24);}.cls-36{fill:url(#radial-gradient-4);}.cls-37{fill:url(#linear-gradient-25);}.cls-38{fill:url(#linear-gradient-26);}.cls-39{fill:url(#linear-gradient-27);}.cls-40{fill:url(#linear-gradient-28);}.cls-41{fill:url(#linear-gradient-29);}.cls-42{fill:url(#linear-gradient-30);}.cls-43{fill:url(#radial-gradient-5);}.cls-44{fill:url(#linear-gradient-31);}.cls-45{fill:url(#linear-gradient-32);}.cls-46{fill:url(#linear-gradient-33);}.cls-47{fill:url(#linear-gradient-34);}.cls-48{fill:url(#linear-gradient-35);}.cls-49{fill:url(#linear-gradient-36);}.cls-50{fill:url(#linear-gradient-37);}.cls-51{fill:url(#linear-gradient-38);}.cls-52{fill:url(#linear-gradient-39);}.cls-53{fill:url(#linear-gradient-40);}.cls-54{fill:url(#linear-gradient-41);}.cls-55{fill:url(#linear-gradient-42);}.cls-56{fill:url(#linear-gradient-43);}.cls-57{fill:url(#linear-gradient-44);}.cls-58{fill:url(#linear-gradient-45);}.cls-59{fill:url(#linear-gradient-46);}.cls-60{fill:url(#radial-gradient-6);}.cls-61{fill:url(#linear-gradient-47);}.cls-62{fill:url(#linear-gradient-48);}.cls-63{fill:url(#linear-gradient-49);}.cls-64{fill:url(#linear-gradient-50);}.cls-65{fill:url(#linear-gradient-51);}.cls-66{fill:url(#linear-gradient-52);}.cls-67{fill:url(#radial-gradient-7);}.cls-68{fill:url(#linear-gradient-53);}.cls-69{fill:url(#linear-gradient-54);}.cls-70{fill:url(#linear-gradient-55);}.cls-71{fill:url(#linear-gradient-56);}.cls-72{fill:url(#linear-gradient-57);}.cls-73{fill:url(#linear-gradient-58);}.cls-74{fill:url(#radial-gradient-8);}.cls-75{fill:url(#linear-gradient-59);}.cls-76{fill:url(#linear-gradient-60);}.cls-77{fill:url(#linear-gradient-61);}.cls-78{fill:url(#linear-gradient-62);}.cls-79{fill:url(#linear-gradient-63);}.cls-80{fill:url(#linear-gradient-64);}.cls-81{fill:url(#radial-gradient-9);}.cls-82{fill:url(#linear-gradient-65);}.cls-83{fill:url(#linear-gradient-66);}.cls-84{fill:url(#linear-gradient-67);}.cls-85{fill:url(#linear-gradient-68);}.cls-86{fill:url(#linear-gradient-69);}.cls-87{fill:url(#linear-gradient-70);}.cls-88{fill:url(#radial-gradient-10);}.cls-89{fill:url(#linear-gradient-71);}.cls-90{fill:url(#linear-gradient-72);}.cls-91{fill:url(#linear-gradient-73);}.cls-92{fill:url(#linear-gradient-74);}.cls-93{fill:url(#linear-gradient-75);}.cls-94{fill:#584a44;}.cls-95{fill:#090909;}.cls-96{fill:#362d2a;}.cls-97{fill:#0a0b0b;}.cls-98{fill:#82cdde;}.cls-99{fill:url(#Degradado_sin_nombre_3);}</style><linearGradient id="linear-gradient" x1="26.356" y1="318.743" x2="23.205" y2="324.201" gradientUnits="userSpaceOnUse"><stop offset="0" stop-color="#fdfdfe"/><stop offset="0.187" stop-color="#f6f6f7"/><stop offset="0.467" stop-color="#e1e3e4"/><stop offset="0.805" stop-color="#c0c3c5"/><stop offset="1" stop-color="#a9aeb0"/></linearGradient><linearGradient id="linear-gradient-2" x1="236.691" y1="410.807" x2="229.871" y2="410.807" gradientUnits="userSpaceOnUse"><stop offset="0" stop-color="#dee1e3"/><stop offset="1" stop-color="#c9cfd3"/></linearGradient><linearGradient id="linear-gradient-3" x1="136.817" y1="396.752" x2="158.037" y2="361.557" gradientUnits="userSpaceOnUse"><stop offset="0" stop-color="#fdfdfe"/><stop offset="0.317" stop-color="#f6f7f8"/><stop offset="0.793" stop-color="#e1e5e8"/><stop offset="1" stop-color="#d6dcdf"/></linearGradient><linearGradient id="linear-gradient-4" x1="237.539" y1="398.388" x2="230.027" y2="398.388" xlink:href="#linear-gradient-2"/><linearGradient id="linear-gradient-5" x1="75.153" y1="289.322" x2="263.843" y2="534.781" xlink:href="#linear-gradient-3"/><linearGradient id="linear-gradient-6" x1="100.54" y1="344.062" x2="100.54" y2="365.509" gradientUnits="userSpaceOnUse"><stop offset="0" stop-color="#fdfdfe"/><stop offset="0.156" stop-color="#f6f7f8"/><stop offset="0.23" stop-color="#f0f2f4"/><stop offset="1" stop-color="#d6dcdf"/></linearGradient><radialGradient id="radial-gradient" cx="100.756" cy="341.775" r="28.607" gradientUnits="userSpaceOnUse"><stop offset="0.662" stop-color="#d8d9db"/><stop offset="0.888" stop-color="#b5babe"/><stop offset="1" stop-color="#5c5e5f"/></radialGradient><linearGradient id="linear-gradient-7" x1="616.784" y1="414.86" x2="616.784" y2="410.299" gradientTransform="translate(240.062 1085.474) rotate(-135)" gradientUnits="userSpaceOnUse"><stop offset="0" stop-color="#fff"/><stop offset="0.218" stop-color="#f8f8f8"/><stop offset="0.546" stop-color="#e3e5e6"/><stop offset="0.941" stop-color="#c2c6c9"/><stop offset="1" stop-color="#bcc1c4"/></linearGradient><linearGradient id="linear-gradient-8" x1="105.565" y1="364.39" x2="105.565" y2="361.46" gradientTransform="matrix(1, 0, 0, 1, 0, 0)" xlink:href="#linear-gradient-7"/><linearGradient id="linear-gradient-9" x1="83.021" y1="351.207" x2="121.417" y2="351.207" gradientUnits="userSpaceOnUse"><stop offset="0" stop-color="#efeff0"/><stop offset="0.193" stop-color="#e8e8e9"/><stop offset="0.483" stop-color="#d3d5d7"/><stop offset="0.832" stop-color="#b2b5b9"/><stop offset="1" stop-color="#9fa4a8"/></linearGradient><linearGradient id="linear-gradient-10" x1="113.944" y1="348.713" x2="111.242" y2="353.393" gradientUnits="userSpaceOnUse"><stop offset="0" stop-color="#656d72"/><stop offset="0.031" stop-color="#899195"/><stop offset="0.067" stop-color="#aab1b4"/><stop offset="0.105" stop-color="#c5ccce"/><stop offset="0.146" stop-color="#dae0e2"/><stop offset="0.192" stop-color="#e9eff0"/><stop offset="0.247" stop-color="#f1f7f8"/><stop offset="0.332" stop-color="#f4fafb"/><stop offset="0.357" stop-color="#dfe4e5"/><stop offset="0.415" stop-color="#b6b9ba"/><stop offset="0.473" stop-color="#949696"/><stop offset="0.531" stop-color="#797a7b"/><stop offset="0.59" stop-color="#666767"/><stop offset="0.649" stop-color="#5b5b5b"/><stop offset="0.709" stop-color="#575757"/><stop offset="0.77" stop-color="#90989b"/><stop offset="0.848" stop-color="#8d9598"/><stop offset="0.905" stop-color="#858c8f"/><stop offset="0.955" stop-color="#787c81"/><stop offset="1" stop-color="#65666c"/></linearGradient><linearGradient id="linear-gradient-11" x1="113.361" y1="347.389" x2="113.279" y2="357.069" xlink:href="#linear-gradient-10"/><linearGradient id="linear-gradient-12" x1="132.556" y1="362.574" x2="132.556" y2="384.021" xlink:href="#linear-gradient-6"/><radialGradient id="radial-gradient-2" cx="132.773" cy="360.287" r="28.607" xlink:href="#radial-gradient"/><linearGradient id="linear-gradient-13" x1="581.054" y1="424.409" x2="581.054" y2="419.849" xlink:href="#linear-gradient-7"/><linearGradient id="linear-gradient-14" x1="137.582" y1="382.902" x2="137.582" y2="379.972" gradientTransform="matrix(1, 0, 0, 1, 0, 0)" xlink:href="#linear-gradient-7"/><linearGradient id="linear-gradient-15" x1="115.037" y1="369.719" x2="153.433" y2="369.719" xlink:href="#linear-gradient-9"/><linearGradient id="linear-gradient-16" x1="145.961" y1="367.225" x2="143.259" y2="371.905" xlink:href="#linear-gradient-10"/><linearGradient id="linear-gradient-17" x1="145.377" y1="365.901" x2="145.296" y2="375.581" xlink:href="#linear-gradient-10"/><linearGradient id="linear-gradient-18" x1="164.6" y1="381.059" x2="164.6" y2="402.506" xlink:href="#linear-gradient-6"/><radialGradient id="radial-gradient-3" cx="164.817" cy="378.772" r="28.607" xlink:href="#radial-gradient"/><linearGradient id="linear-gradient-19" x1="545.324" y1="433.997" x2="545.324" y2="429.436" xlink:href="#linear-gradient-7"/><linearGradient id="linear-gradient-20" x1="169.626" y1="401.388" x2="169.626" y2="398.457" gradientTransform="matrix(1, 0, 0, 1, 0, 0)" xlink:href="#linear-gradient-7"/><linearGradient id="linear-gradient-21" x1="147.082" y1="388.204" x2="185.477" y2="388.204" xlink:href="#linear-gradient-9"/><linearGradient id="linear-gradient-22" x1="178.005" y1="385.71" x2="175.303" y2="390.39" xlink:href="#linear-gradient-10"/><linearGradient id="linear-gradient-23" x1="177.421" y1="384.386" x2="177.34" y2="394.066" xlink:href="#linear-gradient-10"/><linearGradient id="linear-gradient-24" x1="196.617" y1="399.517" x2="196.617" y2="420.964" xlink:href="#linear-gradient-6"/><radialGradient id="radial-gradient-4" cx="196.834" cy="397.23" r="28.607" xlink:href="#radial-gradient"/><linearGradient id="linear-gradient-25" x1="509.633" y1="443.584" x2="509.633" y2="439.024" xlink:href="#linear-gradient-7"/><linearGradient id="linear-gradient-26" x1="201.643" y1="419.845" x2="201.643" y2="416.915" gradientTransform="matrix(1, 0, 0, 1, 0, 0)" xlink:href="#linear-gradient-7"/><linearGradient id="linear-gradient-27" x1="179.099" y1="406.662" x2="217.494" y2="406.662" xlink:href="#linear-gradient-9"/><linearGradient id="linear-gradient-28" x1="210.022" y1="404.168" x2="207.32" y2="408.848" xlink:href="#linear-gradient-10"/><linearGradient id="linear-gradient-29" x1="209.438" y1="402.844" x2="209.357" y2="412.524" xlink:href="#linear-gradient-10"/><linearGradient id="linear-gradient-30" x1="228.634" y1="418.029" x2="228.634" y2="439.477" xlink:href="#linear-gradient-6"/><radialGradient id="radial-gradient-5" cx="228.85" cy="415.742" r="28.607" xlink:href="#radial-gradient"/><linearGradient id="linear-gradient-31" x1="473.903" y1="453.133" x2="473.903" y2="448.573" xlink:href="#linear-gradient-7"/><linearGradient id="linear-gradient-32" x1="233.659" y1="438.358" x2="233.659" y2="435.427" gradientTransform="matrix(1, 0, 0, 1, 0, 0)" xlink:href="#linear-gradient-7"/><linearGradient id="linear-gradient-33" x1="211.115" y1="425.174" x2="249.511" y2="425.174" xlink:href="#linear-gradient-9"/><linearGradient id="linear-gradient-34" x1="242.038" y1="422.68" x2="239.336" y2="427.36" xlink:href="#linear-gradient-10"/><linearGradient id="linear-gradient-35" x1="241.455" y1="421.357" x2="241.373" y2="431.036" xlink:href="#linear-gradient-10"/><linearGradient id="linear-gradient-36" x1="438.257" y1="527.557" x2="431.436" y2="527.557" xlink:href="#linear-gradient-2"/><linearGradient id="linear-gradient-37" x1="338.382" y1="513.501" x2="359.602" y2="478.307" xlink:href="#linear-gradient-3"/><linearGradient id="linear-gradient-38" x1="439.104" y1="515.137" x2="431.592" y2="515.137" xlink:href="#linear-gradient-2"/><linearGradient id="linear-gradient-39" x1="276.719" y1="406.072" x2="465.408" y2="651.53" xlink:href="#linear-gradient-3"/><linearGradient id="linear-gradient-40" x1="456.745" y1="567.567" x2="450.266" y2="578.788" xlink:href="#linear-gradient"/><linearGradient id="linear-gradient-41" x1="457.459" y1="563.592" x2="450.708" y2="587.053" xlink:href="#linear-gradient-2"/><linearGradient id="linear-gradient-42" x1="461.657" y1="573.322" x2="457.627" y2="580.301" xlink:href="#linear-gradient"/><linearGradient id="linear-gradient-43" x1="466.779" y1="571.259" x2="459.782" y2="596.037" xlink:href="#linear-gradient-2"/><linearGradient id="linear-gradient-44" x1="480.858" y1="585.677" x2="477.707" y2="591.134" xlink:href="#linear-gradient"/><linearGradient id="linear-gradient-45" x1="495.892" y1="590.895" x2="490.645" y2="609.478" xlink:href="#linear-gradient-2"/><linearGradient id="linear-gradient-46" x1="266.108" y1="439.395" x2="266.108" y2="460.843" xlink:href="#linear-gradient-6"/><radialGradient id="radial-gradient-6" cx="266.325" cy="437.108" r="28.607" xlink:href="#radial-gradient"/><linearGradient id="linear-gradient-47" x1="432.296" y1="464.524" x2="432.296" y2="459.964" xlink:href="#linear-gradient-7"/><linearGradient id="linear-gradient-48" x1="271.134" y1="459.724" x2="271.134" y2="456.793" gradientTransform="matrix(1, 0, 0, 1, 0, 0)" xlink:href="#linear-gradient-7"/><linearGradient id="linear-gradient-49" x1="248.59" y1="446.54" x2="286.985" y2="446.54" xlink:href="#linear-gradient-9"/><linearGradient id="linear-gradient-50" x1="279.513" y1="444.046" x2="276.811" y2="448.726" xlink:href="#linear-gradient-10"/><linearGradient id="linear-gradient-51" x1="278.929" y1="442.723" x2="278.848" y2="452.402" xlink:href="#linear-gradient-10"/><linearGradient id="linear-gradient-52" x1="298.125" y1="457.907" x2="298.125" y2="479.355" xlink:href="#linear-gradient-6"/><radialGradient id="radial-gradient-7" cx="298.341" cy="455.62" r="28.606" xlink:href="#radial-gradient"/><linearGradient id="linear-gradient-53" x1="396.567" y1="474.073" x2="396.567" y2="469.513" xlink:href="#linear-gradient-7"/><linearGradient id="linear-gradient-54" x1="303.15" y1="478.236" x2="303.15" y2="475.305" gradientTransform="matrix(1, 0, 0, 1, 0, 0)" xlink:href="#linear-gradient-7"/><linearGradient id="linear-gradient-55" x1="280.606" y1="465.052" x2="319.002" y2="465.052" xlink:href="#linear-gradient-9"/><linearGradient id="linear-gradient-56" x1="311.529" y1="462.558" x2="308.827" y2="467.239" xlink:href="#linear-gradient-10"/><linearGradient id="linear-gradient-57" x1="310.946" y1="461.234" x2="310.864" y2="470.914" xlink:href="#linear-gradient-10"/><linearGradient id="linear-gradient-58" x1="330.169" y1="476.393" x2="330.169" y2="497.84" xlink:href="#linear-gradient-6"/><radialGradient id="radial-gradient-8" cx="330.385" cy="474.105" r="28.607" xlink:href="#radial-gradient"/><linearGradient id="linear-gradient-59" x1="360.837" y1="483.661" x2="360.837" y2="479.1" xlink:href="#linear-gradient-7"/><linearGradient id="linear-gradient-60" x1="335.194" y1="496.721" x2="335.194" y2="493.791" gradientTransform="matrix(1, 0, 0, 1, 0, 0)" xlink:href="#linear-gradient-7"/><linearGradient id="linear-gradient-61" x1="312.65" y1="483.537" x2="351.046" y2="483.537" xlink:href="#linear-gradient-9"/><linearGradient id="linear-gradient-62" x1="343.574" y1="481.043" x2="340.871" y2="485.724" xlink:href="#linear-gradient-10"/><linearGradient id="linear-gradient-63" x1="342.99" y1="479.72" x2="342.908" y2="489.4" xlink:href="#linear-gradient-10"/><linearGradient id="linear-gradient-64" x1="362.186" y1="494.851" x2="362.186" y2="516.298" xlink:href="#linear-gradient-6"/><radialGradient id="radial-gradient-9" cx="362.402" cy="492.563" r="28.607" xlink:href="#radial-gradient"/><linearGradient id="linear-gradient-65" x1="325.145" y1="493.249" x2="325.145" y2="488.688" xlink:href="#linear-gradient-7"/><linearGradient id="linear-gradient-66" x1="367.211" y1="515.179" x2="367.211" y2="512.248" gradientTransform="matrix(1, 0, 0, 1, 0, 0)" xlink:href="#linear-gradient-7"/><linearGradient id="linear-gradient-67" x1="344.667" y1="501.995" x2="383.063" y2="501.995" xlink:href="#linear-gradient-9"/><linearGradient id="linear-gradient-68" x1="375.59" y1="499.501" x2="372.888" y2="504.181" xlink:href="#linear-gradient-10"/><linearGradient id="linear-gradient-69" x1="375.007" y1="498.178" x2="374.925" y2="507.857" xlink:href="#linear-gradient-10"/><linearGradient id="linear-gradient-70" x1="394.202" y1="513.363" x2="394.202" y2="534.81" xlink:href="#linear-gradient-6"/><radialGradient id="radial-gradient-10" cx="394.419" cy="511.075" r="28.607" xlink:href="#radial-gradient"/><linearGradient id="linear-gradient-71" x1="289.416" y1="502.798" x2="289.416" y2="498.237" xlink:href="#linear-gradient-7"/><linearGradient id="linear-gradient-72" x1="399.228" y1="533.692" x2="399.228" y2="530.76" gradientTransform="matrix(1, 0, 0, 1, 0, 0)" xlink:href="#linear-gradient-7"/><linearGradient id="linear-gradient-73" x1="376.683" y1="520.508" x2="415.079" y2="520.508" xlink:href="#linear-gradient-9"/><linearGradient id="linear-gradient-74" x1="407.607" y1="518.014" x2="404.905" y2="522.693" xlink:href="#linear-gradient-10"/><linearGradient id="linear-gradient-75" x1="407.023" y1="516.69" x2="406.942" y2="526.369" xlink:href="#linear-gradient-10"/><linearGradient id="Degradado_sin_nombre_3" x1="248.364" y1="151.546" x2="248.364" y2="21.546" gradientUnits="userSpaceOnUse"><stop offset="0" stop-color="#a11a16"/><stop offset="0.997" stop-color="#e52521"/></linearGradient></defs><g class="cls-1"><g id="Capa_1" data-name="Capa 1"><path class="cls-2" d="M468.458,571.743l-407.74-236.8a5.629,5.629,0,0,0-5.071,0L50.188,338.1l-5.458-3.152a5.629,5.629,0,0,0-5.071,0L26.728,341.27,7.271,330.036l-6.149,3.551,18.947,10.94L1.44,353.634c-1.394.805-1.394,2.123,0,2.928L409.181,593.356a5.12,5.12,0,0,0,2.419.6l21.768,0a5.276,5.276,0,0,0,2.727-.6l32.363-18.686C469.853,573.865,469.853,572.548,468.458,571.743Z"/><path class="cls-3" d="M41.18,327.507l-29.7-17.46a1.555,1.555,0,0,0-1.556.158,4.878,4.878,0,0,0-2.208,3.824,1.548,1.548,0,0,0,.654,1.434l29.7,17.461a1.557,1.557,0,0,0,1.554-.16,4.879,4.879,0,0,0,2.208-3.824A1.549,1.549,0,0,0,41.18,327.507Z"/><path class="cls-4" d="M268.042,447.226l-32.363,18.687a5.624,5.624,0,0,1-5.07,0L23.284,346.21a1.778,1.778,0,0,1-1.047-1.463h0V355.1a1.778,1.778,0,0,0,1.047,1.464l207.325,119.7a5.624,5.624,0,0,0,5.07,0l32.363-18.686a1.775,1.775,0,0,0,1.046-1.464V445.783h0A1.786,1.786,0,0,1,268.042,447.226Z"/><path class="cls-5" d="M235.679,451.274a5.624,5.624,0,0,1-5.07,0L25.819,333.035c-1.395-.8-1.395-2.122,0-2.927l29.827-17.222a5.623,5.623,0,0,1,5.071,0l204.79,118.238c1.394.805,1.394,2.122,0,2.927Z"/><path class="cls-6" d="M266.553,432.588h0a1.777,1.777,0,0,1-1.046,1.464l-29.828,17.222a5.624,5.624,0,0,1-5.07,0L25.819,333.035a1.863,1.863,0,0,1-1.034-1.314l-.012,0-2.536,11.559a1.78,1.78,0,0,0,1.047,1.464l207.325,119.7a5.624,5.624,0,0,0,5.07,0l32.363-18.686a1.775,1.775,0,0,0,1.046-1.464Z"/><path class="cls-7" d="M268.856,445.032a2.354,2.354,0,0,1-.814.732L235.679,464.45a5.624,5.624,0,0,1-5.07,0L23.284,344.746a2.353,2.353,0,0,1-.814-.732c-.48.738-.211,1.605.814,2.2l207.325,119.7a5.624,5.624,0,0,0,5.07,0l32.363-18.687C269.066,446.636,269.335,445.769,268.856,445.032Z"/><path class="cls-8" d="M235.679,448.775a5.63,5.63,0,0,1-5.07,0L28.354,332c-1.395-.805-1.395-2.123,0-2.927l27.292-15.758a5.626,5.626,0,0,1,5.071,0L262.971,430.089c1.395.806,1.395,2.123,0,2.927Z"/><path class="cls-9" d="M113.439,347.176c-7.123-4.112-18.675-4.113-25.8,0s-7.124,10.783,0,14.9,18.675,4.114,25.8,0S120.563,351.289,113.439,347.176ZM112.97,361.8c-6.866,3.964-18,3.963-24.861,0s-6.866-10.39,0-14.355,18-3.963,24.861,0S119.836,357.838,112.97,361.8Z"/><path class="cls-10" d="M112.97,354.075c-6.864-3.963-18-3.964-24.861,0a11.363,11.363,0,0,0-4.188,3.863,11.372,11.372,0,0,0,4.188,3.864c6.864,3.963,18,3.964,24.861,0a11.355,11.355,0,0,0,4.188-3.863A11.34,11.34,0,0,0,112.97,354.075Z"/><path class="cls-11" d="M97.9,356.289a1.308,1.308,0,0,1,0,2.477,4.747,4.747,0,0,1-4.29,0,1.308,1.308,0,0,1,0-2.477A4.747,4.747,0,0,1,97.9,356.289Z"/><path class="cls-12" d="M93.892,356.453a4.114,4.114,0,0,1,3.724,0,1.134,1.134,0,0,1,0,2.149,4.112,4.112,0,0,1-3.723,0A1.134,1.134,0,0,1,93.892,356.453Z"/><path class="cls-13" d="M107.716,361.921a4.749,4.749,0,0,0-4.291,0,1.308,1.308,0,0,0,0,2.477,3.2,3.2,0,0,0,.413.195,27.036,27.036,0,0,0,4.611-.909C108.777,363.081,108.542,362.4,107.716,361.921Z"/><path class="cls-12" d="M107.433,362.085a4.114,4.114,0,0,0-3.724,0,1.135,1.135,0,0,0,0,2.15,3.132,3.132,0,0,0,.7.281,27.242,27.242,0,0,0,3.517-.691C108.406,363.257,108.25,362.556,107.433,362.085Z"/><path class="cls-14" d="M88.109,354.075c6.865-3.964,18-3.963,24.861,0a11.34,11.34,0,0,1,4.188,3.864c2.121-3.555.726-7.655-4.188-10.492-6.864-3.963-18-3.963-24.861,0-4.915,2.838-6.309,6.937-4.188,10.491A11.363,11.363,0,0,1,88.109,354.075Z"/><path class="cls-15" d="M83.221,353.818l5.3-3.059-2.133-1.232A8.751,8.751,0,0,0,83.221,353.818Z"/><path class="cls-15" d="M90.111,347.378l2.133,1.231,5.3-3.059A25.5,25.5,0,0,0,90.111,347.378Z"/><path class="cls-15" d="M108.845,362.494l-3.187,1.84a24.966,24.966,0,0,0,4.358-1.165Z"/><polygon class="cls-16" points="92.244 354.265 90.111 353.034 90.111 347.378 92.244 348.609 92.244 354.265"/><polygon class="cls-17" points="92.244 354.265 97.541 351.207 97.541 345.55 92.244 348.609 92.244 354.265"/><path class="cls-16" d="M112.97,361.8c.359-.207.691-.423,1.012-.642l-1.413-.816v1.667C112.7,361.939,112.841,361.876,112.97,361.8Z"/><path class="cls-15" d="M113.982,361.16a10.575,10.575,0,0,0,3.176-3.221c-.036-.06-.078-.119-.116-.178l-4.473,2.583Z"/><path class="cls-17" d="M88.52,356.415v-5.656l-5.3,3.059v2.539a7.4,7.4,0,0,0,1.256,2.392Z"/><path class="cls-12" d="M113.917,354.671c-.3-.2-.613-.4-.947-.6s-.675-.362-1.022-.534l-.79.522c.447.236.889.478,1.321.727.192.111.374.226.562.339Z"/><path class="cls-18" d="M113.917,354.671c-.3-.2-.613-.4-.947-.6s-.675-.362-1.022-.534v-5.868c.447.236.888.477,1.32.727.193.111.374.226.562.339Z"/><path class="cls-19" d="M112.836,349.972a1.809,1.809,0,0,1,1.028-1.518l-1.838-1.076A1.806,1.806,0,0,0,111,348.9c-.123,1.571.718,3.347.59,4.934l1.837,1.076C113.555,353.319,112.713,351.543,112.836,349.972Z"/><path class="cls-20" d="M113.834,348.724l.03-.27a1.809,1.809,0,0,0-1.028,1.518c-.123,1.571.719,3.347.59,4.934l.184-.067c.039-1.528-.719-3.211-.6-4.707A1.812,1.812,0,0,1,113.834,348.724Z"/><path class="cls-21" d="M145.456,365.688c-7.123-4.112-18.675-4.113-25.8,0s-7.123,10.783,0,14.9,18.676,4.114,25.8,0S152.58,369.8,145.456,365.688Zm-.469,14.626c-6.866,3.964-18,3.963-24.862,0s-6.866-10.39,0-14.354,18-3.964,24.862,0S151.853,376.35,144.987,380.314Z"/><path class="cls-22" d="M144.987,372.587c-6.864-3.963-18-3.963-24.862,0a11.371,11.371,0,0,0-4.188,3.863,11.372,11.372,0,0,0,4.188,3.864c6.865,3.963,18,3.964,24.862,0a11.371,11.371,0,0,0,4.188-3.863A11.356,11.356,0,0,0,144.987,372.587Z"/><path class="cls-23" d="M129.916,374.8a1.308,1.308,0,0,1,0,2.477,4.747,4.747,0,0,1-4.29,0,1.308,1.308,0,0,1,0-2.477A4.752,4.752,0,0,1,129.916,374.8Z"/><path class="cls-12" d="M125.908,374.965a4.114,4.114,0,0,1,3.724,0,1.135,1.135,0,0,1,0,2.15,4.115,4.115,0,0,1-3.723,0A1.134,1.134,0,0,1,125.908,374.965Z"/><path class="cls-24" d="M139.733,380.433a4.755,4.755,0,0,0-4.291,0,1.309,1.309,0,0,0,0,2.478,3.345,3.345,0,0,0,.414.194,27.055,27.055,0,0,0,4.611-.909C140.794,381.594,140.558,380.91,139.733,380.433Z"/><path class="cls-12" d="M139.45,380.6a4.119,4.119,0,0,0-3.725,0,1.135,1.135,0,0,0,0,2.15,3.163,3.163,0,0,0,.7.282,27.243,27.243,0,0,0,3.517-.692C140.422,381.77,140.266,381.068,139.45,380.6Z"/><path class="cls-25" d="M120.125,372.587c6.866-3.963,18-3.963,24.862,0a11.356,11.356,0,0,1,4.188,3.864c2.121-3.555.726-7.655-4.188-10.492-6.864-3.963-18-3.963-24.862,0-4.915,2.837-6.309,6.936-4.188,10.49A11.371,11.371,0,0,1,120.125,372.587Z"/><path class="cls-15" d="M115.238,372.33l5.3-3.059-2.134-1.232A8.748,8.748,0,0,0,115.238,372.33Z"/><path class="cls-15" d="M122.127,365.89l2.133,1.231,5.3-3.059A25.549,25.549,0,0,0,122.127,365.89Z"/><path class="cls-15" d="M140.861,381.006l-3.187,1.84a25.03,25.03,0,0,0,4.358-1.164Z"/><polygon class="cls-16" points="124.26 372.777 122.127 371.546 122.127 365.89 124.26 367.121 124.26 372.777"/><polygon class="cls-17" points="124.26 372.777 129.558 369.719 129.558 364.062 124.26 367.121 124.26 372.777"/><path class="cls-16" d="M144.987,380.314c.358-.207.691-.422,1.011-.642l-1.413-.816v1.667C144.717,380.452,144.858,380.388,144.987,380.314Z"/><path class="cls-15" d="M146,379.672a10.579,10.579,0,0,0,3.177-3.221c-.036-.06-.079-.119-.116-.178l-4.474,2.583Z"/><path class="cls-17" d="M120.537,374.927v-5.656l-5.3,3.059v2.539a7.4,7.4,0,0,0,1.255,2.392Z"/><path class="cls-12" d="M145.933,373.183c-.3-.2-.613-.4-.946-.6s-.675-.362-1.023-.534l-.789.523q.671.354,1.32.726c.193.111.374.226.562.339Z"/><path class="cls-18" d="M145.933,373.183c-.3-.2-.613-.4-.946-.6s-.675-.362-1.023-.534v-5.868c.447.237.888.478,1.32.727.193.111.375.226.562.339Z"/><path class="cls-26" d="M144.853,368.484a1.806,1.806,0,0,1,1.027-1.518l-1.837-1.076a1.807,1.807,0,0,0-1.028,1.518c-.123,1.571.719,3.347.59,4.934l1.838,1.077C145.571,371.831,144.73,370.055,144.853,368.484Z"/><path class="cls-27" d="M145.851,367.236l.029-.27a1.806,1.806,0,0,0-1.027,1.518c-.123,1.571.718,3.347.59,4.935l.184-.068c.039-1.528-.719-3.211-.6-4.707A1.806,1.806,0,0,1,145.851,367.236Z"/><path class="cls-28" d="M177.5,384.174c-7.123-4.113-18.675-4.114-25.8,0s-7.123,10.782,0,14.9,18.676,4.113,25.8,0S184.624,388.286,177.5,384.174Zm-.469,14.625c-6.866,3.964-18,3.963-24.862,0s-6.866-10.39,0-14.354,18-3.964,24.862,0S183.9,394.835,177.031,398.8Z"/><path class="cls-29" d="M177.031,391.072c-6.864-3.963-18-3.963-24.862,0a11.368,11.368,0,0,0-4.188,3.862,11.38,11.38,0,0,0,4.188,3.864c6.865,3.963,18,3.964,24.862,0a11.371,11.371,0,0,0,4.188-3.863A11.356,11.356,0,0,0,177.031,391.072Z"/><path class="cls-30" d="M161.96,393.286a1.308,1.308,0,0,1,0,2.477,4.747,4.747,0,0,1-4.29,0,1.308,1.308,0,0,1,0-2.477A4.752,4.752,0,0,1,161.96,393.286Z"/><path class="cls-12" d="M157.952,393.45a4.114,4.114,0,0,1,3.724,0,1.135,1.135,0,0,1,0,2.15,4.115,4.115,0,0,1-3.723,0A1.134,1.134,0,0,1,157.952,393.45Z"/><path class="cls-31" d="M171.777,398.919a4.749,4.749,0,0,0-4.291,0,1.308,1.308,0,0,0,0,2.477,3.268,3.268,0,0,0,.413.195,27.153,27.153,0,0,0,4.611-.91C172.838,400.079,172.6,399.4,171.777,398.919Z"/><path class="cls-12" d="M171.494,399.082a4.119,4.119,0,0,0-3.725,0,1.135,1.135,0,0,0,0,2.15,3.115,3.115,0,0,0,.7.282,27.243,27.243,0,0,0,3.517-.692C172.467,400.255,172.31,399.553,171.494,399.082Z"/><path class="cls-32" d="M152.169,391.073c6.866-3.964,18-3.964,24.862,0a11.356,11.356,0,0,1,4.188,3.864c2.121-3.555.726-7.655-4.188-10.492-6.864-3.963-18-3.963-24.862,0-4.915,2.837-6.309,6.936-4.188,10.49A11.368,11.368,0,0,1,152.169,391.073Z"/><path class="cls-15" d="M147.282,390.815l5.3-3.059-2.133-1.232A8.744,8.744,0,0,0,147.282,390.815Z"/><path class="cls-15" d="M154.171,384.375l2.134,1.231,5.3-3.059A25.549,25.549,0,0,0,154.171,384.375Z"/><path class="cls-15" d="M172.905,399.491l-3.187,1.84a25.03,25.03,0,0,0,4.358-1.164Z"/><polygon class="cls-16" points="156.305 391.262 154.171 390.031 154.171 384.375 156.305 385.606 156.305 391.262"/><polygon class="cls-17" points="156.305 391.262 161.602 388.204 161.602 382.547 156.305 385.606 156.305 391.262"/><path class="cls-16" d="M177.031,398.8c.358-.207.691-.422,1.012-.642l-1.414-.816v1.668C176.761,398.937,176.9,398.873,177.031,398.8Z"/><path class="cls-15" d="M178.043,398.157a10.586,10.586,0,0,0,3.176-3.221c-.036-.06-.078-.119-.116-.178l-4.474,2.583Z"/><path class="cls-17" d="M152.581,393.412v-5.656l-5.3,3.059v2.539a7.414,7.414,0,0,0,1.255,2.392Z"/><path class="cls-12" d="M177.977,391.669c-.3-.2-.613-.4-.946-.6s-.675-.362-1.023-.534l-.789.523q.671.354,1.32.726c.193.111.375.226.562.339Z"/><path class="cls-18" d="M177.977,391.669c-.3-.2-.613-.4-.946-.6s-.675-.362-1.023-.534v-5.867q.671.354,1.321.726c.192.111.374.226.561.339Z"/><path class="cls-33" d="M176.9,386.969a1.807,1.807,0,0,1,1.028-1.518l-1.838-1.076a1.807,1.807,0,0,0-1.028,1.518c-.123,1.571.719,3.347.59,4.934l1.838,1.077C177.616,390.317,176.774,388.54,176.9,386.969Z"/><path class="cls-34" d="M177.9,385.722l.03-.271a1.807,1.807,0,0,0-1.028,1.518c-.123,1.571.719,3.348.59,4.935l.184-.068c.039-1.528-.719-3.211-.6-4.707A1.8,1.8,0,0,1,177.9,385.722Z"/><path class="cls-35" d="M209.517,402.631c-7.123-4.112-18.675-4.113-25.8,0s-7.123,10.783,0,14.9,18.676,4.114,25.8,0S216.641,406.744,209.517,402.631Zm-.469,14.626c-6.866,3.964-18,3.963-24.862,0s-6.866-10.39,0-14.354,18-3.964,24.862,0S215.914,413.293,209.048,417.257Z"/><path class="cls-36" d="M209.048,409.53c-6.864-3.963-18-3.963-24.862,0A11.379,11.379,0,0,0,180,413.393a11.38,11.38,0,0,0,4.188,3.864c6.865,3.963,18,3.964,24.862,0a11.371,11.371,0,0,0,4.188-3.863A11.356,11.356,0,0,0,209.048,409.53Z"/><path class="cls-37" d="M193.977,411.744a1.308,1.308,0,0,1,0,2.477,4.747,4.747,0,0,1-4.29,0,1.308,1.308,0,0,1,0-2.477A4.749,4.749,0,0,1,193.977,411.744Z"/><path class="cls-12" d="M189.969,411.908a4.114,4.114,0,0,1,3.724,0,1.135,1.135,0,0,1,0,2.15,4.115,4.115,0,0,1-3.723,0A1.134,1.134,0,0,1,189.969,411.908Z"/><path class="cls-38" d="M203.794,417.376a4.755,4.755,0,0,0-4.291,0,1.309,1.309,0,0,0,0,2.478,3.345,3.345,0,0,0,.414.194,27.055,27.055,0,0,0,4.611-.909C204.855,418.537,204.619,417.853,203.794,417.376Z"/><path class="cls-12" d="M203.511,417.54a4.116,4.116,0,0,0-3.725,0,1.135,1.135,0,0,0,0,2.15,3.163,3.163,0,0,0,.7.282A27.243,27.243,0,0,0,204,419.28C204.483,418.713,204.327,418.011,203.511,417.54Z"/><path class="cls-39" d="M184.186,409.53c6.866-3.963,18-3.963,24.862,0a11.356,11.356,0,0,1,4.188,3.864c2.121-3.555.726-7.655-4.188-10.492-6.864-3.963-18-3.963-24.862,0-4.915,2.837-6.309,6.936-4.188,10.49A11.379,11.379,0,0,1,184.186,409.53Z"/><path class="cls-15" d="M179.3,409.273l5.3-3.059-2.134-1.232A8.748,8.748,0,0,0,179.3,409.273Z"/><path class="cls-15" d="M186.188,402.833l2.133,1.231,5.3-3.059A25.549,25.549,0,0,0,186.188,402.833Z"/><path class="cls-15" d="M204.922,417.949l-3.187,1.84a25.03,25.03,0,0,0,4.358-1.164Z"/><polygon class="cls-16" points="188.321 409.72 186.188 408.489 186.188 402.833 188.321 404.064 188.321 409.72"/><polygon class="cls-17" points="188.321 409.72 193.619 406.662 193.619 401.005 188.321 404.064 188.321 409.72"/><path class="cls-16" d="M209.048,417.257c.358-.207.691-.422,1.012-.642l-1.414-.816v1.667C208.778,417.4,208.919,417.331,209.048,417.257Z"/><path class="cls-15" d="M210.06,416.615a10.586,10.586,0,0,0,3.176-3.221c-.036-.06-.078-.119-.116-.178l-4.474,2.583Z"/><path class="cls-17" d="M184.6,411.87v-5.656l-5.3,3.059v2.539a7.414,7.414,0,0,0,1.255,2.392Z"/><path class="cls-12" d="M209.994,410.126c-.3-.2-.613-.4-.946-.6s-.675-.362-1.023-.534l-.789.523q.671.354,1.32.726c.193.111.374.226.562.339Z"/><path class="cls-18" d="M209.994,410.126c-.3-.2-.613-.4-.946-.6s-.675-.362-1.023-.534v-5.868c.447.237.888.478,1.32.727.193.111.375.226.562.339Z"/><path class="cls-40" d="M208.914,405.427a1.807,1.807,0,0,1,1.028-1.518l-1.838-1.076a1.807,1.807,0,0,0-1.028,1.518c-.123,1.571.719,3.347.59,4.934l1.838,1.077C209.632,408.774,208.791,407,208.914,405.427Z"/><path class="cls-41" d="M209.912,404.179l.03-.27a1.807,1.807,0,0,0-1.028,1.518c-.123,1.571.718,3.347.59,4.935l.184-.068c.039-1.528-.719-3.211-.6-4.707A1.806,1.806,0,0,1,209.912,404.179Z"/><path class="cls-42" d="M241.533,421.144c-7.123-4.113-18.675-4.114-25.8,0s-7.124,10.783,0,14.9,18.675,4.113,25.8,0S248.657,425.256,241.533,421.144Zm-.469,14.625c-6.866,3.964-18,3.963-24.861,0s-6.867-10.39,0-14.354,18-3.964,24.861,0S247.93,431.805,241.064,435.769Z"/><path class="cls-43" d="M241.064,428.042c-6.864-3.963-18-3.963-24.861,0a11.361,11.361,0,0,0-4.188,3.862,11.356,11.356,0,0,0,4.188,3.864c6.864,3.963,18,3.964,24.861,0a11.354,11.354,0,0,0,4.188-3.863A11.356,11.356,0,0,0,241.064,428.042Z"/><path class="cls-44" d="M225.993,430.257a1.308,1.308,0,0,1,0,2.477,4.755,4.755,0,0,1-4.291,0,1.308,1.308,0,0,1,0-2.477A4.749,4.749,0,0,1,225.993,430.257Z"/><path class="cls-12" d="M221.985,430.42a4.116,4.116,0,0,1,3.725,0,1.135,1.135,0,0,1,0,2.15,4.117,4.117,0,0,1-3.724,0A1.135,1.135,0,0,1,221.985,430.42Z"/><path class="cls-45" d="M235.81,435.888a4.755,4.755,0,0,0-4.291,0,1.309,1.309,0,0,0,0,2.478,3.268,3.268,0,0,0,.413.195,27.152,27.152,0,0,0,4.611-.909C236.871,437.049,236.636,436.366,235.81,435.888Z"/><path class="cls-12" d="M235.527,436.052a4.117,4.117,0,0,0-3.724,0,1.135,1.135,0,0,0,0,2.15,3.134,3.134,0,0,0,.7.282,27.243,27.243,0,0,0,3.517-.692C236.5,437.225,236.344,436.523,235.527,436.052Z"/><path class="cls-46" d="M216.2,428.043c6.865-3.964,18-3.964,24.861,0a11.356,11.356,0,0,1,4.188,3.864c2.121-3.555.726-7.654-4.188-10.492-6.864-3.963-18-3.963-24.861,0-4.915,2.837-6.309,6.936-4.188,10.49A11.361,11.361,0,0,1,216.2,428.043Z"/><path class="cls-15" d="M211.315,427.785l5.3-3.059-2.133-1.232A8.755,8.755,0,0,0,211.315,427.785Z"/><path class="cls-15" d="M218.205,421.345l2.133,1.231,5.3-3.058A25.5,25.5,0,0,0,218.205,421.345Z"/><path class="cls-15" d="M236.939,436.461l-3.188,1.84a24.976,24.976,0,0,0,4.359-1.164Z"/><polygon class="cls-16" points="220.338 428.233 218.205 427.001 218.205 421.345 220.338 422.576 220.338 428.233"/><polygon class="cls-17" points="220.338 428.233 225.635 425.174 225.635 419.518 220.338 422.576 220.338 428.233"/><path class="cls-16" d="M241.064,435.769c.358-.207.691-.422,1.012-.641l-1.414-.817v1.668C240.8,435.907,240.935,435.844,241.064,435.769Z"/><path class="cls-15" d="M242.076,435.128a10.588,10.588,0,0,0,3.176-3.222c-.036-.06-.078-.119-.116-.178l-4.474,2.583Z"/><path class="cls-17" d="M216.614,430.382v-5.656l-5.3,3.059v2.539a7.4,7.4,0,0,0,1.256,2.392Z"/><path class="cls-12" d="M242.01,428.639c-.3-.2-.612-.4-.946-.6s-.675-.362-1.022-.533l-.79.522q.671.354,1.321.726c.192.112.374.227.561.34Z"/><path class="cls-18" d="M242.01,428.639c-.3-.2-.612-.4-.946-.6s-.675-.362-1.022-.533v-5.868c.446.236.888.477,1.32.726.193.111.374.226.562.339Z"/><path class="cls-47" d="M240.93,423.94a1.807,1.807,0,0,1,1.028-1.519l-1.838-1.076a1.809,1.809,0,0,0-1.028,1.518c-.123,1.571.719,3.348.591,4.935l1.837,1.076C241.649,427.287,240.807,425.511,240.93,423.94Z"/><path class="cls-48" d="M241.928,422.692l.03-.271a1.807,1.807,0,0,0-1.028,1.519c-.123,1.571.719,3.347.59,4.934l.184-.068c.039-1.528-.719-3.21-.6-4.707A1.809,1.809,0,0,1,241.928,422.692Z"/><path class="cls-49" d="M469.608,563.976l-32.364,18.687a5.624,5.624,0,0,1-5.07,0L224.849,462.96A1.778,1.778,0,0,1,223.8,461.5h0v10.352a1.779,1.779,0,0,0,1.047,1.464l207.325,119.7a5.624,5.624,0,0,0,5.07,0l32.364-18.687a1.778,1.778,0,0,0,1.046-1.463V562.533h0A1.785,1.785,0,0,1,469.608,563.976Z"/><path class="cls-50" d="M437.244,568.024a5.624,5.624,0,0,1-5.07,0L227.384,449.785c-1.394-.805-1.394-2.122,0-2.928l29.828-17.221a5.626,5.626,0,0,1,5.071,0L467.072,547.874c1.395.8,1.395,2.122,0,2.927Z"/><path class="cls-51" d="M468.118,549.338h0a1.776,1.776,0,0,1-1.046,1.463l-29.828,17.223a5.624,5.624,0,0,1-5.07,0L227.384,449.785a1.864,1.864,0,0,1-1.033-1.314l-.013,0L223.8,460.031a1.779,1.779,0,0,0,1.047,1.464L432.174,581.2a5.624,5.624,0,0,0,5.07,0l32.364-18.686a1.78,1.78,0,0,0,1.046-1.464Z"/><path class="cls-7" d="M470.422,561.781a2.345,2.345,0,0,1-.814.733L437.244,581.2a5.624,5.624,0,0,1-5.07,0L224.849,461.5a2.351,2.351,0,0,1-.814-.731c-.48.738-.21,1.605.814,2.2l207.325,119.7a5.624,5.624,0,0,0,5.07,0l32.364-18.687C470.631,563.386,470.9,562.52,470.422,561.781Z"/><path class="cls-52" d="M437.244,565.524a5.624,5.624,0,0,1-5.07,0L229.92,448.75c-1.395-.806-1.395-2.123,0-2.928l27.292-15.758a5.623,5.623,0,0,1,5.071,0L464.536,546.839c1.395.8,1.395,2.122,0,2.927Z"/><path class="cls-53" d="M457.855,567.988l-2.076-1.147a3.326,3.326,0,0,0-3.327.336,10.437,10.437,0,0,0-4.721,8.178,3.307,3.307,0,0,0,1.4,3.066l2.075,1.148a3.328,3.328,0,0,0,3.323-.34,10.432,10.432,0,0,0,4.721-8.176A3.314,3.314,0,0,0,457.855,567.988Z"/><path class="cls-54" d="M459.249,571.053a10.432,10.432,0,0,1-4.721,8.176,2.877,2.877,0,0,1-4.721-2.725,10.435,10.435,0,0,1,4.721-8.178,2.877,2.877,0,0,1,4.721,2.727Z"/><path class="cls-55" d="M466.5,575.987l-9.584-5.539a2.076,2.076,0,0,0-2.074.211,6.509,6.509,0,0,0-2.945,5.1,2.063,2.063,0,0,0,.873,1.912l9.583,5.538a2.075,2.075,0,0,0,2.072-.212,6.508,6.508,0,0,0,2.945-5.1A2.063,2.063,0,0,0,466.5,575.987Z"/><path class="cls-56" d="M467.369,577.9a6.508,6.508,0,0,1-2.945,5.1,1.794,1.794,0,0,1-2.944-1.7,6.511,6.511,0,0,1,2.944-5.1,1.8,1.8,0,0,1,2.945,1.7Z"/><path class="cls-57" d="M495.682,594.441l-29.7-17.461a1.557,1.557,0,0,0-1.556.158,4.88,4.88,0,0,0-2.207,3.824,1.547,1.547,0,0,0,.654,1.434l29.7,17.462a1.561,1.561,0,0,0,1.555-.16,4.88,4.88,0,0,0,2.207-3.825A1.546,1.546,0,0,0,495.682,594.441Z"/><path class="cls-58" d="M496.334,595.873a4.88,4.88,0,0,1-2.207,3.825,1.345,1.345,0,0,1-2.208-1.275,4.88,4.88,0,0,1,2.208-3.824,1.345,1.345,0,0,1,2.207,1.274Z"/><path class="cls-59" d="M279.008,442.51c-7.123-4.113-18.675-4.114-25.8,0s-7.123,10.783,0,14.9,18.676,4.113,25.8,0S286.132,446.622,279.008,442.51Zm-.469,14.625c-6.866,3.964-18,3.963-24.862,0s-6.866-10.39,0-14.354,18-3.964,24.862,0S285.4,453.171,278.539,457.135Z"/><path class="cls-60" d="M278.539,449.408c-6.864-3.963-18-3.963-24.862,0a11.377,11.377,0,0,0-4.188,3.862,11.372,11.372,0,0,0,4.188,3.864c6.865,3.963,18,3.964,24.862,0a11.371,11.371,0,0,0,4.188-3.863A11.364,11.364,0,0,0,278.539,449.408Z"/><path class="cls-61" d="M263.468,451.623a1.308,1.308,0,0,1,0,2.476,4.744,4.744,0,0,1-4.29,0,1.307,1.307,0,0,1,0-2.476A4.749,4.749,0,0,1,263.468,451.623Z"/><path class="cls-12" d="M259.46,451.786a4.114,4.114,0,0,1,3.724,0,1.135,1.135,0,0,1,0,2.15,4.115,4.115,0,0,1-3.723,0A1.135,1.135,0,0,1,259.46,451.786Z"/><path class="cls-62" d="M273.285,457.255a4.749,4.749,0,0,0-4.291,0,1.308,1.308,0,0,0,0,2.477,3.349,3.349,0,0,0,.414.195,27.25,27.25,0,0,0,4.611-.909C274.346,458.415,274.11,457.731,273.285,457.255Z"/><path class="cls-12" d="M273,457.418a4.119,4.119,0,0,0-3.725,0,1.135,1.135,0,0,0,0,2.15,3.115,3.115,0,0,0,.7.282,27.075,27.075,0,0,0,3.517-.692C273.974,458.591,273.818,457.889,273,457.418Z"/><path class="cls-63" d="M253.677,449.409c6.866-3.964,18-3.964,24.862,0a11.364,11.364,0,0,1,4.188,3.864c2.121-3.555.726-7.654-4.188-10.492-6.864-3.963-18-3.963-24.862,0-4.915,2.837-6.309,6.936-4.188,10.49A11.377,11.377,0,0,1,253.677,449.409Z"/><path class="cls-15" d="M248.79,449.151l5.3-3.059-2.134-1.232A8.753,8.753,0,0,0,248.79,449.151Z"/><path class="cls-15" d="M255.679,442.711l2.133,1.231,5.3-3.058A25.516,25.516,0,0,0,255.679,442.711Z"/><path class="cls-15" d="M274.413,457.827l-3.187,1.84a25.03,25.03,0,0,0,4.358-1.164Z"/><polygon class="cls-16" points="257.812 449.599 255.679 448.367 255.679 442.711 257.812 443.942 257.812 449.599"/><polygon class="cls-17" points="257.812 449.599 263.11 446.54 263.11 440.884 257.812 443.942 257.812 449.599"/><path class="cls-16" d="M278.539,457.135c.358-.207.691-.422,1.012-.642l-1.414-.816v1.668C278.269,457.273,278.41,457.21,278.539,457.135Z"/><path class="cls-15" d="M279.551,456.493a10.586,10.586,0,0,0,3.176-3.221c-.036-.06-.078-.119-.116-.178l-4.474,2.583Z"/><path class="cls-17" d="M254.089,451.748v-5.656l-5.3,3.059v2.539a7.429,7.429,0,0,0,1.255,2.393Z"/><path class="cls-12" d="M279.485,450.005c-.3-.2-.613-.4-.946-.6s-.675-.362-1.023-.533l-.789.522q.671.354,1.32.726c.193.112.374.226.562.339Z"/><path class="cls-18" d="M279.485,450.005c-.3-.2-.613-.4-.946-.6s-.675-.362-1.023-.533v-5.868q.671.354,1.32.726c.193.111.375.226.562.339Z"/><path class="cls-64" d="M278.4,445.306a1.807,1.807,0,0,1,1.028-1.519l-1.838-1.076a1.807,1.807,0,0,0-1.028,1.518c-.123,1.571.719,3.348.59,4.935L279,450.24C279.123,448.653,278.282,446.877,278.4,445.306Z"/><path class="cls-65" d="M279.4,444.058l.03-.271a1.807,1.807,0,0,0-1.028,1.519c-.123,1.571.718,3.347.59,4.934l.184-.068c.039-1.528-.719-3.21-.6-4.707A1.8,1.8,0,0,1,279.4,444.058Z"/><path class="cls-66" d="M311.024,461.022c-7.123-4.113-18.675-4.114-25.8,0s-7.124,10.783,0,14.9,18.675,4.114,25.8,0S318.148,465.134,311.024,461.022Zm-.469,14.625c-6.866,3.964-18,3.963-24.861,0s-6.867-10.39,0-14.354,18-3.963,24.861,0S317.421,471.683,310.555,475.647Z"/><path class="cls-67" d="M310.555,467.92c-6.864-3.963-18-3.963-24.861,0a11.354,11.354,0,0,0-4.188,3.863,11.371,11.371,0,0,0,4.188,3.863c6.864,3.963,18,3.964,24.861,0a11.371,11.371,0,0,0,4.188-3.863A11.364,11.364,0,0,0,310.555,467.92Z"/><path class="cls-68" d="M295.484,470.135a1.308,1.308,0,0,1,0,2.476,4.749,4.749,0,0,1-4.291,0,1.308,1.308,0,0,1,0-2.477A4.749,4.749,0,0,1,295.484,470.135Z"/><path class="cls-12" d="M291.476,470.3a4.116,4.116,0,0,1,3.725,0,1.135,1.135,0,0,1,0,2.15,4.114,4.114,0,0,1-3.724,0A1.135,1.135,0,0,1,291.476,470.3Z"/><path class="cls-69" d="M305.3,475.767a4.749,4.749,0,0,0-4.291,0,1.308,1.308,0,0,0,0,2.477,3.268,3.268,0,0,0,.413.195,27.056,27.056,0,0,0,4.611-.91C306.362,476.927,306.127,476.243,305.3,475.767Z"/><path class="cls-12" d="M305.018,475.93a4.117,4.117,0,0,0-3.724,0,1.135,1.135,0,0,0,0,2.15,3.087,3.087,0,0,0,.7.282,27.242,27.242,0,0,0,3.517-.691C305.991,477.1,305.835,476.4,305.018,475.93Z"/><path class="cls-70" d="M285.694,467.921c6.865-3.964,18-3.964,24.861,0a11.364,11.364,0,0,1,4.188,3.864c2.121-3.555.726-7.654-4.188-10.492-6.864-3.962-18-3.963-24.861,0-4.915,2.838-6.309,6.936-4.188,10.491A11.354,11.354,0,0,1,285.694,467.921Z"/><path class="cls-15" d="M280.806,467.663l5.3-3.059-2.133-1.232A8.755,8.755,0,0,0,280.806,467.663Z"/><path class="cls-15" d="M287.7,461.223l2.133,1.231,5.3-3.058A25.5,25.5,0,0,0,287.7,461.223Z"/><path class="cls-15" d="M306.43,476.339l-3.188,1.84a24.976,24.976,0,0,0,4.359-1.164Z"/><polygon class="cls-16" points="289.829 468.111 287.696 466.879 287.696 461.223 289.829 462.454 289.829 468.111"/><polygon class="cls-17" points="289.829 468.111 295.126 465.052 295.126 459.396 289.829 462.454 289.829 468.111"/><path class="cls-16" d="M310.555,475.647c.358-.207.691-.422,1.012-.641l-1.414-.816v1.667C310.286,475.785,310.426,475.722,310.555,475.647Z"/><path class="cls-15" d="M311.567,475.006a10.588,10.588,0,0,0,3.176-3.222c-.036-.059-.078-.118-.116-.178l-4.474,2.584Z"/><path class="cls-17" d="M286.105,470.261V464.6l-5.3,3.059v2.54a7.418,7.418,0,0,0,1.256,2.392Z"/><path class="cls-12" d="M311.5,468.517c-.3-.2-.612-.4-.946-.6s-.675-.362-1.022-.534l-.79.523q.671.354,1.321.726c.192.112.374.227.561.34Z"/><path class="cls-18" d="M311.5,468.517c-.3-.2-.612-.4-.946-.6s-.675-.362-1.022-.534v-5.867c.446.236.888.477,1.32.726.193.112.374.227.562.339Z"/><path class="cls-71" d="M310.421,463.818a1.807,1.807,0,0,1,1.028-1.519l-1.838-1.076a1.807,1.807,0,0,0-1.027,1.519c-.124,1.57.718,3.346.59,4.934l1.837,1.076C311.14,467.165,310.3,465.388,310.421,463.818Z"/><path class="cls-72" d="M311.419,462.57l.03-.271a1.807,1.807,0,0,0-1.028,1.519c-.123,1.57.719,3.347.59,4.934l.184-.067c.039-1.529-.719-3.211-.6-4.708A1.811,1.811,0,0,1,311.419,462.57Z"/><path class="cls-73" d="M343.069,479.507c-7.124-4.113-18.675-4.114-25.8,0s-7.124,10.783,0,14.9,18.675,4.114,25.8,0S350.192,483.619,343.069,479.507Zm-.469,14.625c-6.867,3.965-18,3.964-24.862,0s-6.866-10.39,0-14.353,18-3.965,24.862,0S349.465,490.168,342.6,494.132Z"/><path class="cls-74" d="M342.6,486.405c-6.865-3.963-18-3.963-24.862,0a11.371,11.371,0,0,0-4.188,3.863,11.362,11.362,0,0,0,4.188,3.863c6.864,3.964,18,3.965,24.862,0a11.351,11.351,0,0,0,4.187-3.863A11.361,11.361,0,0,0,342.6,486.405Z"/><path class="cls-75" d="M327.528,488.62a1.308,1.308,0,0,1,0,2.476,4.747,4.747,0,0,1-4.29,0,1.308,1.308,0,0,1,0-2.477A4.747,4.747,0,0,1,327.528,488.62Z"/><path class="cls-12" d="M323.521,488.783a4.114,4.114,0,0,1,3.724,0,1.135,1.135,0,0,1,0,2.15,4.112,4.112,0,0,1-3.723,0A1.135,1.135,0,0,1,323.521,488.783Z"/><path class="cls-76" d="M337.345,494.252a4.749,4.749,0,0,0-4.291,0,1.308,1.308,0,0,0,0,2.477,3.149,3.149,0,0,0,.414.195,27.141,27.141,0,0,0,4.61-.909C338.406,495.412,338.171,494.728,337.345,494.252Z"/><path class="cls-12" d="M337.062,494.416a4.111,4.111,0,0,0-3.724,0,1.134,1.134,0,0,0,0,2.149,3.087,3.087,0,0,0,.7.282,27.075,27.075,0,0,0,3.517-.692C338.035,495.589,337.879,494.887,337.062,494.416Z"/><path class="cls-77" d="M317.738,486.406c6.865-3.964,18-3.964,24.862,0a11.361,11.361,0,0,1,4.187,3.864c2.121-3.554.726-7.654-4.187-10.491-6.865-3.964-18-3.964-24.862,0-4.915,2.837-6.309,6.936-4.188,10.49A11.371,11.371,0,0,1,317.738,486.406Z"/><path class="cls-15" d="M312.85,486.148l5.3-3.058-2.133-1.233A8.755,8.755,0,0,0,312.85,486.148Z"/><path class="cls-15" d="M319.74,479.708l2.133,1.231,5.3-3.058A25.534,25.534,0,0,0,319.74,479.708Z"/><path class="cls-15" d="M338.474,494.824l-3.187,1.841a25.055,25.055,0,0,0,4.358-1.165Z"/><polygon class="cls-16" points="321.873 486.596 319.74 485.364 319.74 479.708 321.873 480.939 321.873 486.596"/><polygon class="cls-17" points="321.873 486.596 327.17 483.538 327.17 477.881 321.873 480.939 321.873 486.596"/><path class="cls-16" d="M342.6,494.132c.358-.207.69-.421,1.011-.641l-1.413-.816v1.667C342.33,494.27,342.47,494.207,342.6,494.132Z"/><path class="cls-15" d="M343.611,493.491a10.588,10.588,0,0,0,3.176-3.222c-.036-.059-.078-.118-.116-.177l-4.473,2.583Z"/><path class="cls-17" d="M318.149,488.746V483.09l-5.3,3.058v2.54a7.428,7.428,0,0,0,1.256,2.392Z"/><path class="cls-12" d="M343.546,487c-.3-.2-.613-.4-.946-.6s-.676-.362-1.023-.533l-.789.522c.446.236.888.477,1.32.726.192.112.374.227.562.34Z"/><path class="cls-18" d="M343.546,487c-.3-.2-.613-.4-.946-.6s-.676-.362-1.023-.533V480q.671.354,1.32.727c.193.111.374.226.562.339Z"/><path class="cls-78" d="M342.465,482.3a1.809,1.809,0,0,1,1.028-1.519l-1.838-1.076a1.807,1.807,0,0,0-1.027,1.519c-.123,1.57.718,3.347.59,4.934l1.837,1.076C343.184,485.65,342.342,483.874,342.465,482.3Z"/><path class="cls-79" d="M343.463,481.055l.03-.271a1.809,1.809,0,0,0-1.028,1.519c-.123,1.571.719,3.347.59,4.934l.184-.067c.039-1.528-.719-3.211-.6-4.708A1.811,1.811,0,0,1,343.463,481.055Z"/><path class="cls-80" d="M375.085,497.965c-7.123-4.113-18.675-4.113-25.8,0s-7.124,10.783,0,14.9,18.675,4.113,25.8,0S382.209,502.078,375.085,497.965Zm-.469,14.625c-6.866,3.965-18,3.964-24.861,0s-6.867-10.39,0-14.354,18-3.964,24.861,0S381.482,508.627,374.616,512.59Z"/><path class="cls-81" d="M374.616,504.864c-6.864-3.964-18-3.964-24.861,0a11.354,11.354,0,0,0-4.188,3.863,11.362,11.362,0,0,0,4.188,3.863c6.864,3.964,18,3.965,24.861,0a11.354,11.354,0,0,0,4.188-3.863A11.346,11.346,0,0,0,374.616,504.864Z"/><path class="cls-82" d="M359.545,507.078a1.308,1.308,0,0,1,0,2.477,4.747,4.747,0,0,1-4.29,0,1.308,1.308,0,0,1,0-2.477A4.747,4.747,0,0,1,359.545,507.078Z"/><path class="cls-12" d="M355.537,507.241a4.116,4.116,0,0,1,3.725,0,1.135,1.135,0,0,1,0,2.15,4.111,4.111,0,0,1-3.724,0A1.134,1.134,0,0,1,355.537,507.241Z"/><path class="cls-83" d="M369.362,512.71a4.749,4.749,0,0,0-4.291,0,1.308,1.308,0,0,0,0,2.477,3.2,3.2,0,0,0,.413.195,27.152,27.152,0,0,0,4.611-.909C370.423,513.87,370.188,513.187,369.362,512.71Z"/><path class="cls-12" d="M369.079,512.873a4.117,4.117,0,0,0-3.724,0,1.136,1.136,0,0,0,0,2.151,3.18,3.18,0,0,0,.7.281,27.075,27.075,0,0,0,3.517-.692C370.052,514.046,369.9,513.344,369.079,512.873Z"/><path class="cls-84" d="M349.755,504.864c6.865-3.964,18-3.964,24.861,0a11.346,11.346,0,0,1,4.188,3.863c2.121-3.555.726-7.655-4.188-10.492-6.864-3.963-18-3.963-24.861,0-4.915,2.837-6.309,6.936-4.188,10.491A11.354,11.354,0,0,1,349.755,504.864Z"/><path class="cls-15" d="M344.867,504.607l5.3-3.06-2.133-1.231A8.751,8.751,0,0,0,344.867,504.607Z"/><path class="cls-15" d="M351.757,498.167l2.133,1.23,5.3-3.058A25.471,25.471,0,0,0,351.757,498.167Z"/><path class="cls-15" d="M370.491,513.283l-3.188,1.839a24.976,24.976,0,0,0,4.359-1.164Z"/><polygon class="cls-16" points="353.89 505.053 351.757 503.823 351.757 498.167 353.89 499.397 353.89 505.053"/><polygon class="cls-17" points="353.89 505.053 359.187 501.995 359.187 496.339 353.89 499.397 353.89 505.053"/><path class="cls-16" d="M374.616,512.59c.359-.207.691-.422,1.012-.642l-1.414-.816V512.8C374.347,512.728,374.487,512.664,374.616,512.59Z"/><path class="cls-15" d="M375.628,511.948a10.564,10.564,0,0,0,3.176-3.221c-.036-.06-.078-.118-.116-.178l-4.474,2.583Z"/><path class="cls-17" d="M350.166,507.2v-5.657l-5.3,3.06v2.538a7.412,7.412,0,0,0,1.256,2.393Z"/><path class="cls-12" d="M375.562,505.46c-.3-.2-.612-.4-.946-.6s-.675-.362-1.022-.534l-.79.522c.447.236.889.477,1.321.726.192.112.374.227.561.34Z"/><path class="cls-18" d="M375.562,505.46c-.3-.2-.612-.4-.946-.6s-.675-.362-1.022-.534v-5.868q.671.354,1.32.726c.193.111.374.226.562.339Z"/><path class="cls-85" d="M374.482,500.761a1.807,1.807,0,0,1,1.028-1.518l-1.838-1.076a1.8,1.8,0,0,0-1.027,1.518c-.123,1.571.718,3.347.59,4.934l1.837,1.076C375.2,504.108,374.359,502.332,374.482,500.761Z"/><path class="cls-86" d="M375.48,499.513l.03-.27a1.807,1.807,0,0,0-1.028,1.518c-.123,1.571.719,3.347.59,4.934l.184-.068c.039-1.528-.719-3.21-.6-4.707A1.809,1.809,0,0,1,375.48,499.513Z"/><path class="cls-87" d="M407.1,516.477c-7.123-4.112-18.675-4.113-25.8,0s-7.123,10.783,0,14.9,18.675,4.114,25.8,0S414.226,520.59,407.1,516.477Zm-.469,14.626c-6.866,3.964-18,3.963-24.862,0s-6.866-10.391,0-14.355,18-3.964,24.862,0S413.5,527.139,406.633,531.1Z"/><path class="cls-88" d="M406.633,523.376c-6.864-3.963-18-3.964-24.862,0a11.362,11.362,0,0,0-4.188,3.863,11.372,11.372,0,0,0,4.188,3.864c6.865,3.963,18,3.964,24.862,0a11.371,11.371,0,0,0,4.188-3.863A11.356,11.356,0,0,0,406.633,523.376Z"/><path class="cls-89" d="M391.562,525.59a1.308,1.308,0,0,1,0,2.477,4.747,4.747,0,0,1-4.29,0,1.308,1.308,0,0,1,0-2.477A4.749,4.749,0,0,1,391.562,525.59Z"/><path class="cls-12" d="M387.554,525.753a4.117,4.117,0,0,1,3.724,0,1.135,1.135,0,0,1,0,2.151,4.115,4.115,0,0,1-3.723,0A1.135,1.135,0,0,1,387.554,525.753Z"/><path class="cls-90" d="M401.378,531.222a4.747,4.747,0,0,0-4.29,0,1.308,1.308,0,0,0,0,2.477,3.353,3.353,0,0,0,.414.2,27.153,27.153,0,0,0,4.611-.91C402.44,532.383,402.2,531.7,401.378,531.222Z"/><path class="cls-12" d="M401.1,531.385a4.122,4.122,0,0,0-3.725,0,1.135,1.135,0,0,0,0,2.151,3.113,3.113,0,0,0,.7.281,26.909,26.909,0,0,0,3.517-.692C402.068,532.558,401.912,531.857,401.1,531.385Z"/><path class="cls-91" d="M381.771,523.376c6.866-3.964,18-3.963,24.862,0a11.356,11.356,0,0,1,4.188,3.864c2.121-3.556.726-7.655-4.188-10.492-6.864-3.964-18-3.964-24.862,0-4.915,2.837-6.309,6.936-4.188,10.491A11.362,11.362,0,0,1,381.771,523.376Z"/><path class="cls-15" d="M376.884,523.119l5.3-3.059-2.134-1.232A8.748,8.748,0,0,0,376.884,523.119Z"/><path class="cls-15" d="M383.773,516.679l2.133,1.231,5.3-3.059A25.485,25.485,0,0,0,383.773,516.679Z"/><path class="cls-15" d="M402.507,531.795l-3.187,1.839a25.028,25.028,0,0,0,4.358-1.163Z"/><polygon class="cls-16" points="385.906 523.566 383.773 522.335 383.773 516.679 385.906 517.91 385.906 523.566"/><polygon class="cls-17" points="385.906 523.566 391.204 520.507 391.204 514.851 385.906 517.91 385.906 523.566"/><path class="cls-16" d="M406.633,531.1c.358-.207.691-.423,1.011-.642l-1.413-.817v1.669C406.363,531.24,406.5,531.178,406.633,531.1Z"/><path class="cls-15" d="M407.644,530.461a10.579,10.579,0,0,0,3.177-3.221c-.036-.061-.079-.119-.116-.179l-4.474,2.583Z"/><path class="cls-17" d="M382.183,525.716V520.06l-5.3,3.059v2.539a7.4,7.4,0,0,0,1.255,2.392Z"/><path class="cls-12" d="M407.579,523.972c-.3-.2-.613-.4-.946-.6s-.675-.362-1.023-.534l-.789.523q.67.354,1.32.726c.193.111.374.226.562.339Z"/><path class="cls-18" d="M407.579,523.972c-.3-.2-.613-.4-.946-.6s-.675-.362-1.023-.534v-5.868q.671.354,1.32.726c.193.112.375.227.562.34Z"/><path class="cls-92" d="M406.5,519.273a1.806,1.806,0,0,1,1.027-1.518l-1.837-1.076a1.807,1.807,0,0,0-1.028,1.518c-.123,1.571.719,3.347.59,4.934l1.838,1.076C407.217,522.62,406.376,520.844,406.5,519.273Z"/><path class="cls-93" d="M407.5,518.025l.029-.27a1.806,1.806,0,0,0-1.027,1.518c-.123,1.571.718,3.347.59,4.934l.184-.067c.039-1.529-.719-3.211-.6-4.708A1.806,1.806,0,0,1,407.5,518.025Z"/><path class="cls-94" d="M232.619,441.4v.962l29.956-6.047-9.8-6.607Z"/><path class="cls-95" d="M251.24,436.8l11.334-.486.006-.969-9.807-5.638-.007.97Z"/><path class="cls-96" d="M232.618,442.358,242.426,448l20.148-11.684-9.808-5.637Z"/><polygon class="cls-97" points="258.09 435.278 259.869 436.301 241.851 446.745 234.701 442.635 236.466 441.61 243.834 440.104 258.09 435.278"/><polygon class="cls-98" points="252.717 432.19 258.09 435.278 241.847 444.703 236.466 441.61 252.717 432.19"/></g><g id="arrow_event_critycal"><path class="cls-99" d="M268.72,89.919V101.78l29.419.008-49.776,49.758L198.59,101.788l29.153-.008V89.919Zm0-10.65V60.614H227.743V79.269Zm0-29.3V38.638H227.743V49.967Zm0-21.978V21.546H227.743v6.443Z"/></g></g></svg>