<svg xmlns="http://www.w3.org/2000/svg"
    xmlns:xlink="http://www.w3.org/1999/xlink" viewBox="0 0 180.832 600">
    <defs>
        <style>.cls-1{fill:#73959d;}.cls-2{fill:#85a4aa;}.cls-3{fill:#e7f2f7;}.cls-4{fill:#98b0b5;}.cls-5{fill:#c1ced0;}.cls-6{fill:#899296;}.cls-7{fill:#abb2b5;}.cls-8{fill:#363636;}.cls-9{fill:#1b1b1b;}.cls-10{fill:#2a292a;}.cls-11{fill:#9a9fa1;}.cls-12{fill:#6999d1;}.cls-13{fill:#d2d4db;}.cls-14{fill:#fff;}.cls-15{fill:#949499;}.cls-16{fill:url(#Degradado_sin_nombre_3);}</style>
        <linearGradient id="Degradado_sin_nombre_3" x1="90.416" y1="151.546" x2="90.416" y2="21.546" gradientUnits="userSpaceOnUse">
            <stop offset="0" stop-color="#a11a16"/>
            <stop offset="0.997" stop-color="#e52521"/>
        </linearGradient>
    </defs>
    <g id="Capa_1" data-name="Capa 1">
        <polygon class="cls-1" points="171.719 281.179 91.481 327.897 91.481 573.05 171.713 526.331 171.719 281.179"/>
        <polygon class="cls-2" points="38.96 297.346 41.612 540.804 91.481 573.05 91.481 327.897 38.96 297.346"/>
        <polygon class="cls-3" points="119.198 250.628 171.719 281.179 91.481 327.897 38.96 297.346 119.198 250.628"/>
        <polygon class="cls-4" points="99.807 332.832 99.807 577.984 91.481 573.044 91.481 327.897 99.807 332.832"/>
        <polygon class="cls-5" points="99.807 332.832 99.807 577.984 180.039 531.266 180.045 286.113 99.807 332.832"/>
        <polygon class="cls-6" points="126.046 317.566 126.046 562.615 153.806 546.595 153.806 301.546 126.046 317.566"/>
        <polygon class="cls-3" points="171.719 281.179 180.045 286.113 99.807 332.832 91.481 327.897 171.719 281.179"/>
        <polygon class="cls-7" points="117.366 312.589 126.046 317.566 153.806 301.546 145.125 296.57 117.366 312.589"/>
        <polygon class="cls-1" points="87.758 330.009 53.308 349.913 53.308 595.066 87.752 575.161 87.758 330.009"/>
        <polygon class="cls-2" points="0.788 319.362 0.788 564.509 53.308 595.066 53.308 349.913 0.788 319.362"/>
        <polygon class="cls-3" points="38.96 297.346 91.481 327.897 53.308 349.913 0.788 319.362 38.96 297.346"/>
        <polygon class="cls-5" points="61.634 354.848 61.634 600 96.078 580.096 96.084 334.943 61.634 354.848"/>
        <polygon class="cls-4" points="99.799 516.553 109.432 511.109 109.435 393.258 99.802 398.703 99.799 516.553"/>
        <polygon class="cls-4" points="86.451 523.951 96.084 518.506 96.087 400.656 86.454 406.101 86.451 523.951"/>
        <polygon class="cls-4" points="61.634 354.848 61.634 600 53.308 595.06 53.308 349.913 61.634 354.848"/>
        <polygon class="cls-3" points="87.758 330.009 96.084 334.943 61.634 354.848 53.308 349.913 87.758 330.009"/>
        <polygon class="cls-8" points="131.771 383.39 131.771 416.32 148.081 406.904 148.081 373.975 131.771 383.39"/>
        <polygon class="cls-9" points="131.771 383.387 131.771 415.816 146.734 406.26 146.73 374.744 131.771 383.387"/>
        <polygon class="cls-10" points="131.771 383.387 131.771 415.816 146.73 374.744 131.771 383.387"/>
        <polygon class="cls-11" points="146.734 406.26 148.081 406.904 131.771 416.32 131.771 414.894 146.734 406.26"/>
        <path class="cls-12" d="M134.776,392.6c.167-.1.249-.058.249.181a.475.475,0,0,1-.249.464l-.971.562c-.167.1-.244.06-.244-.175a.481.481,0,0,1,.244-.471Z"/>
        <path class="cls-12" d="M137.9,392.637v-1.071a.419.419,0,0,1,.206-.387c.153-.091.21-.007.21.146v1.338a.438.438,0,0,1-.21.385l-1.626.947c-.11.062-.206.043-.206-.143a.434.434,0,0,1,.206-.388l.607-.354v-3.065l-.607.354c-.11.063-.206.044-.206-.148a.423.423,0,0,1,.206-.382l1.018-.593v3.595Z"/>
        <path class="cls-12" d="M139.681,391.6l1.421-.827c.109-.062.2-.046.2.146a.436.436,0,0,1-.2.385l-1.836,1.066v-1.731a.929.929,0,0,1,.468-.868l1.162-.676v-1.268l-1.42.827c-.11.063-.21.043-.21-.147a.426.426,0,0,1,.21-.383l1.372-.8c.134-.079.23-.111.335-.046s.124.206.124.4v1.085a.993.993,0,0,1-.124.55.854.854,0,0,1-.335.342l-1.167.679Z"/>
        <path class="cls-12" d="M144.071,387.146a.909.909,0,0,1-.464.846l-.636.371c-.306.179-.464.078-.464-.309V386.94a.917.917,0,0,1,.464-.849l.636-.37c.306-.177.464-.077.464.311Zm-.416-.98-.736.428v1.324l.736-.428Z"/>
        <path class="cls-12" d="M134.714,387.28l-.082.045c-.081.048-.186.088-.186-.064a.331.331,0,0,1,.186-.29l.082-.045v-.048a1.039,1.039,0,0,1,.129-.579,1.06,1.06,0,0,1,.43-.423l.191-.11c.1-.055.2-.108.2.055a.317.317,0,0,1-.186.287l-.22.129a.441.441,0,0,0-.268.459v.067l.244-.141c.1-.057.2-.086.2.062a.342.342,0,0,1-.2.292l-.244.141v1.377a.34.34,0,0,1-.139.325c-.119.069-.138-.038-.138-.163Z"/>
        <path class="cls-12" d="M136.392,386.213a.352.352,0,0,1,.139-.344c.109-.062.138.041.138.156v.143l.215-.354a.95.95,0,0,1,.249-.3l.225-.128a.249.249,0,0,1,.272-.022c.1.065.125.168.125.33a.341.341,0,0,1-.139.323c-.1.057-.139-.017-.139-.132a.208.208,0,0,0-.028-.136c-.038-.041-.106,0-.168.036l-.086.048a.459.459,0,0,0-.134.16l-.392.636v.889a.347.347,0,0,1-.138.323c-.12.069-.139-.039-.139-.163Z"/>
        <path class="cls-12" d="M138.993,386.412c-.115.067-.163.1-.249.05l-.124-.06c-.105-.062-.139-.124-.139-.316v-.678a.8.8,0,0,1,.139-.5l.1-.163a.741.741,0,0,1,.306-.327l.258-.148c.134-.079.2-.1.311-.05l.109.05c.13.052.144.177.144.373v.282c0,.2-.024.272-.187.37l-.9.522v.114a.1.1,0,0,0,.044.081l.067.055c.038.027.095.013.186-.042l.6-.347c.091-.055.187-.089.187.06a.335.335,0,0,1-.187.289Zm-.235-.949.809-.471v-.211c0-.066,0-.122-.034-.141l-.11-.057c-.033-.019-.086.007-.134.034l-.234.136a.364.364,0,0,0-.138.122l-.1.148a.29.29,0,0,0-.058.191Z"/>
        <path class="cls-12" d="M141.083,385.2c-.115.067-.168.1-.254.051l-.119-.06c-.106-.062-.139-.124-.139-.316v-.679a.829.829,0,0,1,.134-.5l.1-.163a.692.692,0,0,1,.306-.325l.254-.151c.138-.079.2-.1.311-.05l.114.05c.124.055.144.179.144.376v.282c0,.2-.024.272-.192.368l-.894.521v.115a.115.115,0,0,0,.038.081l.072.055c.038.027.1.012.187-.041l.6-.349c.091-.052.192-.086.192.063a.337.337,0,0,1-.192.286Zm-.235-.949.808-.471v-.21c0-.067,0-.122-.038-.141l-.1-.057c-.034-.02-.086.006-.134.033l-.234.138a.425.425,0,0,0-.144.12l-.1.148a.3.3,0,0,0-.057.192Z"/>
        <path class="cls-12" d="M143.669,382.07l-.746.433c-.076.045-.186.086-.186-.067a.329.329,0,0,1,.186-.287l.909-.528c.143-.082.186-.045.186.079v.115a.445.445,0,0,1-.077.241L143,383.729l.828-.48c.09-.053.186-.086.186.062a.333.333,0,0,1-.186.287l-.971.562c-.191.114-.206.021-.206-.084v-.091a.31.31,0,0,1,.053-.2Z"/>
        <path class="cls-12" d="M133.666,402.157l-.076.046c-.086.047-.191.085-.191-.068a.329.329,0,0,1,.191-.286l.076-.046v-.048a1.05,1.05,0,0,1,.135-.581.976.976,0,0,1,.429-.42l.187-.11c.1-.055.206-.111.206.052a.326.326,0,0,1-.191.289l-.221.127a.439.439,0,0,0-.263.459v.067l.244-.141c.1-.055.192-.084.192.065a.34.34,0,0,1-.192.289l-.244.141v1.377a.345.345,0,0,1-.143.325c-.119.072-.139-.036-.139-.16Z"/>
        <path class="cls-12" d="M135.345,401.088a.363.363,0,0,1,.138-.344c.111-.062.139.041.139.155v.144l.22-.351a.877.877,0,0,1,.249-.3l.219-.128a.253.253,0,0,1,.273-.02c.1.065.124.168.124.33a.338.338,0,0,1-.133.323c-.1.058-.144-.019-.144-.134a.2.2,0,0,0-.029-.136c-.038-.041-.1,0-.167.036l-.081.048a.411.411,0,0,0-.139.162l-.392.634v.889a.335.335,0,0,1-.139.323c-.119.069-.138-.039-.138-.163Z"/>
        <path class="cls-12" d="M138.261,400.754l.211-.122c.091-.053.191-.086.191.062a.325.325,0,0,1-.191.286l-.708.414c-.081.046-.191.086-.191-.067a.324.324,0,0,1,.191-.282l.22-.129v-1.272l-.22.13c-.081.045-.191.085-.191-.067a.329.329,0,0,1,.191-.287l.292-.17c.162-.093.2-.084.2.127Zm-.421-2.087a.26.26,0,0,1,.135-.244l.157-.094c.077-.043.129-.033.129.091v.168a.25.25,0,0,1-.129.239l-.157.093c-.077.043-.135.038-.135-.086Z"/>
        <path class="cls-12" d="M140.288,397.952a.239.239,0,0,1,.278.033l.043.036v-.741a.34.34,0,0,1,.144-.32c.114-.067.133.04.133.16v2.213a.346.346,0,0,1-.133.323c-.115.065-.144-.038-.144-.153v-.024l-.062.112a.919.919,0,0,1-.268.34l-.268.155a.284.284,0,0,1-.239.015l-.1-.043c-.114-.058-.152-.132-.152-.318v-.708a.851.851,0,0,1,.152-.5l.1-.162a.68.68,0,0,1,.268-.28Zm-.487,1.482c0,.1,0,.225.043.241l.086.039a.1.1,0,0,0,.1.009l.2-.112a.517.517,0,0,0,.134-.17l.163-.268a.4.4,0,0,0,.081-.2v-.445a.108.108,0,0,0-.081-.105l-.163-.077a.128.128,0,0,0-.134-.007l-.2.112a.384.384,0,0,0-.1.129l-.086.134a.634.634,0,0,0-.043.294Z"/>
        <path class="cls-12" d="M141.608,397.837a.882.882,0,0,1,.1-.423l.206-.318a.5.5,0,0,1,.176-.192l.268-.155a.311.311,0,0,1,.273.019l.071.031v-.043a.331.331,0,0,1,.139-.289c.124-.072.139.05.139.17v1.716a.874.874,0,0,1-.139.586l-.091.153a.815.815,0,0,1-.349.354l-.459.268c-.086.047-.2.093-.2-.065a.327.327,0,0,1,.2-.284l.507-.3a.387.387,0,0,0,.139-.162l.071-.122a.367.367,0,0,0,.043-.172v-.484l-.057.111a.946.946,0,0,1-.234.306l-.325.189a.2.2,0,0,1-.211.014l-.172-.1c-.086-.048-.091-.136-.091-.28Zm.278.323c0,.076,0,.15.038.165l.115.045c.024.012.047.007.086-.014l.2-.117a.592.592,0,0,0,.129-.165l.215-.349a.277.277,0,0,0,.028-.132v-.258c0-.048-.009-.091-.028-.1l-.215-.1a.137.137,0,0,0-.129-.017l-.2.117a.223.223,0,0,0-.086.081l-.115.184a.411.411,0,0,0-.038.208Z"/>
        <path class="cls-12" d="M144.214,397.643c-.114.067-.167.1-.253.051l-.12-.061c-.105-.061-.138-.123-.138-.315v-.679a.829.829,0,0,1,.134-.5l.1-.163a.729.729,0,0,1,.306-.327l.258-.149c.134-.079.2-.1.306-.05l.115.05c.129.053.143.177.143.373v.282c0,.2-.023.273-.191.371l-.894.521v.115a.115.115,0,0,0,.038.081l.072.055c.038.027.095.012.186-.043l.6-.347c.091-.052.191-.088.191.06a.331.331,0,0,1-.191.289Zm-.234-.949.808-.471v-.21c0-.067,0-.122-.038-.141l-.1-.057c-.034-.02-.087.006-.134.033l-.235.136a.373.373,0,0,0-.138.122l-.1.148a.3.3,0,0,0-.057.192Z"/>
        <path class="cls-12" d="M138.228,406.872V405.8a.42.42,0,0,1,.21-.385c.154-.088.206-.009.206.144V406.9a.44.44,0,0,1-.206.383l-1.63.947c-.11.064-.206.045-.206-.141a.44.44,0,0,1,.206-.39l.607-.351V404.28l-.607.351c-.11.065-.206.046-.206-.145a.433.433,0,0,1,.206-.386l1.018-.592v3.6Z"/>
        <path class="cls-12" d="M141.4,403.121a.914.914,0,0,1-.464.848l-.636.371c-.306.176-.463.076-.463-.311v-1.114a.91.91,0,0,1,.463-.847l.636-.37c.306-.179.464-.079.464.308Zm-.411-.979-.737.428V403.9l.737-.428Z"/>
        <polygon class="cls-13" points="128.182 397.386 129.971 396.369 129.975 397.733 128.186 398.751 128.182 397.386"/>
        <polygon class="cls-14" points="127.966 397.309 129.755 396.291 129.971 396.369 128.182 397.386 127.966 397.309"/>
        <polygon class="cls-15" points="128.186 398.751 127.969 398.674 127.966 397.309 128.182 397.386 128.186 398.751"/>
        <polygon class="cls-13" points="128.182 400.615 129.971 399.597 129.975 400.961 128.186 401.979 128.182 400.615"/>
        <polygon class="cls-14" points="127.966 400.537 129.755 399.519 129.971 399.597 128.182 400.615 127.966 400.537"/>
        <polygon class="cls-15" points="128.186 401.979 127.969 401.902 127.966 400.537 128.182 400.615 128.186 401.979"/>
        <polygon class="cls-13" points="128.182 403.843 129.971 402.825 129.975 404.189 128.186 405.207 128.182 403.843"/>
        <polygon class="cls-14" points="127.966 403.765 129.755 402.747 129.971 402.825 128.182 403.843 127.966 403.765"/>
        <polygon class="cls-15" points="128.186 405.207 127.969 405.13 127.966 403.765 128.182 403.843 128.186 405.207"/>
        <polygon class="cls-13" points="150.077 384.744 151.866 383.726 151.869 385.091 150.08 386.108 150.077 384.744"/>
        <polygon class="cls-14" points="149.86 384.666 151.65 383.648 151.866 383.726 150.077 384.744 149.86 384.666"/>
        <polygon class="cls-15" points="150.08 386.108 149.864 386.031 149.86 384.666 150.077 384.744 150.08 386.108"/>
        <polygon class="cls-13" points="150.077 387.972 151.866 386.954 151.869 388.319 150.08 389.336 150.077 387.972"/>
        <polygon class="cls-14" points="149.86 387.894 151.65 386.876 151.866 386.954 150.077 387.972 149.86 387.894"/>
        <polygon class="cls-15" points="150.08 389.336 149.864 389.259 149.86 387.894 150.077 387.972 150.08 389.336"/>
        <polygon class="cls-13" points="150.077 391.2 151.866 390.182 151.869 391.547 150.08 392.565 150.077 391.2"/>
        <polygon class="cls-14" points="149.86 391.122 151.65 390.104 151.866 390.182 150.077 391.2 149.86 391.122"/>
        <polygon class="cls-15" points="150.08 392.565 149.864 392.487 149.86 391.122 150.077 391.2 150.08 392.565"/>
    </g>
    <g id="arrow_event_critycal">
        <animateTransform attributeName="transform" attributeType="XML" type="translate" from="0 0" to="0 75" dur="1.5s" repeatCount="indefinite" />
        <path class="cls-16" d="M110.772,89.919V101.78l29.418.008L90.414,151.546,40.642,101.788,69.8,101.78V89.919Zm0-10.65V60.614H69.8V79.269Zm0-29.3V38.638H69.8V49.967Zm0-21.978V21.546H69.8v6.443Z"/>
    </g>
</svg>