<svg xmlns="http://www.w3.org/2000/svg" xmlns:xlink="http://www.w3.org/1999/xlink" viewBox="0 0 183.822 600"><defs><style>.cls-1,.cls-8{fill:#010101;}.cls-1{opacity:0.3;}.cls-2{fill:#fff;}.cls-3{fill:#d0cdd3;}.cls-4{fill:#d5d2d1;}.cls-5{fill:#0a0b0b;}.cls-6{fill:#a49d96;}.cls-7{fill:#363636;}.cls-9{fill:#e6e1dd;}.cls-10{fill:#b5afa7;}.cls-11{fill:#82cddf;}.cls-12{fill:#d7d1c7;}.cls-13{fill:#584a44;}.cls-14{fill:#090909;}.cls-15{fill:#362d2a;}.cls-16{fill:#c94130;}.cls-17{fill:url(#Degradado_sin_nombre_3);}</style><linearGradient id="Degradado_sin_nombre_3" x1="91.911" y1="151.546" x2="91.911" y2="21.546" gradientUnits="userSpaceOnUse"><stop offset="0" stop-color="#a11a16"/><stop offset="0.997" stop-color="#e52521"/></linearGradient></defs><g id="Capa_1" data-name="Capa 1"><polygon class="cls-1" points="124.263 600 0.919 528.786 59.559 494.916 182.903 566.126 124.263 600"/><polygon class="cls-2" points="80.696 505.778 22.056 539.651 20.071 509.027 21.124 291.585 22.056 287.843 80.696 253.971 80.696 505.778"/><polygon class="cls-2" points="80.696 253.971 22.056 287.843 17.739 287.172 4.828 279.969 0.919 275.64 59.559 241.765 80.696 253.971"/><path class="cls-3" d="M.919,275.638V527.449l21.137,12.2V287.843Z"/><polygon class="cls-4" points="182.903 564.787 124.263 598.661 122.274 568.033 123.331 350.592 124.263 346.852 182.903 312.977 182.903 564.787"/><polygon class="cls-2" points="182.903 312.977 124.263 346.852 119.943 346.18 26.976 292.754 23.063 288.425 81.707 254.552 182.903 312.977"/><path class="cls-3" d="M23.063,288.425V540.232l101.2,58.429V346.852Z"/><polygon class="cls-5" points="117.034 578.4 117.034 579.517 30.292 529.433 30.292 450.517 31.254 451.072 117.034 578.4"/><path class="cls-6" d="M31.254,451.072v77.8l85.78,49.523V500.6Z"/><polygon class="cls-7" points="114.981 504.369 114.981 504.652 114.366 505.001 33.982 458.591 33.345 457.529 33.345 456.492 33.982 456.171 34.193 456.292 114.981 504.369"/><polygon class="cls-8" points="114.981 503.649 114.981 504.369 34.831 458.105 34.193 457.035 34.193 456.292 114.366 502.564 114.981 503.649"/><polygon class="cls-7" points="114.981 511.706 114.981 511.987 114.366 512.336 33.982 465.926 33.345 464.864 33.345 463.824 33.982 463.506 34.193 463.626 114.981 511.706"/><polygon class="cls-8" points="114.981 510.983 114.981 511.706 34.831 465.437 34.193 464.371 34.193 463.626 114.366 509.897 114.981 510.983"/><polygon class="cls-7" points="114.981 519.04 114.981 519.324 114.366 519.671 33.982 473.259 33.345 472.197 33.345 471.157 33.982 470.841 34.193 470.961 114.981 519.04"/><polygon class="cls-8" points="114.981 518.316 114.981 519.04 34.831 472.772 34.193 471.706 34.193 470.961 114.366 517.233 114.981 518.316"/><polygon class="cls-7" points="114.981 526.375 114.981 526.656 114.366 527.006 33.982 480.594 33.345 479.532 33.345 478.494 33.982 478.175 34.193 478.296 114.981 526.375"/><polygon class="cls-8" points="114.981 525.651 114.981 526.375 34.831 480.109 34.193 479.041 34.193 478.296 114.366 524.566 114.981 525.651"/><polygon class="cls-7" points="114.981 533.708 114.981 533.991 114.366 534.342 33.982 487.93 33.345 486.866 33.345 485.829 33.982 485.508 34.193 485.629 114.981 533.708"/><polygon class="cls-8" points="114.981 532.988 114.981 533.708 34.831 487.442 34.193 486.376 34.193 485.629 114.366 531.901 114.981 532.988"/><polygon class="cls-7" points="114.981 541.045 114.981 541.328 114.366 541.675 33.982 495.263 33.345 494.201 33.345 493.163 33.982 492.845 34.193 492.965 114.981 541.045"/><polygon class="cls-8" points="114.981 540.322 114.981 541.045 34.831 494.778 34.193 493.711 34.193 492.965 114.366 539.238 114.981 540.322"/><polygon class="cls-7" points="114.981 548.378 114.981 548.661 114.366 549.008 33.982 502.6 33.345 501.538 33.345 500.498 33.982 500.179 34.193 500.3 114.981 548.378"/><polygon class="cls-8" points="114.981 547.657 114.981 548.378 34.831 502.113 34.193 501.043 34.193 500.3 114.366 546.572 114.981 547.657"/><polygon class="cls-7" points="114.981 555.714 114.981 555.996 114.366 556.344 33.982 509.934 33.345 508.872 33.345 507.835 33.982 507.514 34.193 507.635 114.981 555.714"/><polygon class="cls-8" points="114.981 554.992 114.981 555.714 34.831 509.446 34.193 508.38 34.193 507.635 114.366 553.905 114.981 554.992"/><polygon class="cls-7" points="114.981 563.049 114.981 563.33 114.366 563.679 33.982 517.267 33.345 516.203 33.345 515.166 33.982 514.849 34.193 514.969 114.981 563.049"/><polygon class="cls-8" points="114.981 562.325 114.981 563.049 34.831 516.781 34.193 515.715 34.193 514.969 114.366 561.24 114.981 562.325"/><polygon class="cls-7" points="114.981 570.384 114.981 570.667 114.366 571.014 33.982 524.604 33.345 523.538 33.345 522.502 33.982 522.185 34.193 522.306 114.981 570.384"/><polygon class="cls-8" points="114.981 569.659 114.981 570.384 34.831 524.115 34.193 523.048 34.193 522.306 114.366 568.575 114.981 569.659"/><path class="cls-9" d="M85.857,448.867l-.475.271,11.5,13.087.479-6.722Z"/><path class="cls-6" d="M93.422,456.761l3.46,5.464.479-.272V455.5l-.479.273Z"/><path class="cls-10" d="M85.382,449.138v6.446l11.5,6.641v-6.449Z"/><polygon class="cls-9" points="96.116 459.714 96.116 460.885 85.835 454.949 85.835 450.245 86.846 450.825 89.683 454.041 96.116 459.714"/><polygon class="cls-11" points="96.116 456.182 96.116 459.714 86.846 454.366 86.846 450.825 96.116 456.182"/><path class="cls-9" d="M72.8,389.594l-2.038,1.175L107.3,431.026l2.038-20.337Z"/><path class="cls-6" d="M103.2,420.241l4.105,10.785,2.038-1.176V410.689l-2.038,1.179Z"/><path class="cls-12" d="M70.765,390.769v19.16l36.538,21.1V411.868Z"/><path class="cls-9" d="M72.8,369.79l-2.038,1.175L107.3,411.221l2.038-20.335Z"/><path class="cls-6" d="M103.2,400.438l4.105,10.783,2.038-1.175v-19.16l-2.038,1.178Z"/><path class="cls-12" d="M70.765,370.965v19.159l36.538,21.1V392.064Z"/><path class="cls-13" d="M76.7,376.941l-1.018.583L100.3,405.543l1.03-14.389Z"/><path class="cls-14" d="M92.89,393.846l7.407,11.7,1.03-.583V391.154l-1.03.583Z"/><path class="cls-15" d="M75.682,377.524V391.33L100.3,405.543V391.737Z"/><polygon class="cls-5" points="98.663 400.17 98.663 402.675 76.655 389.962 76.655 379.898 78.813 381.141 84.888 388.021 98.663 400.17"/><polygon class="cls-11" points="98.663 392.607 98.663 400.17 78.813 388.715 78.813 381.141 98.663 392.607"/><path class="cls-9" d="M72.8,349.985l-2.038,1.177L107.3,391.416l2.038-20.334Z"/><path class="cls-6" d="M103.2,380.633l4.105,10.783,2.038-1.175V371.082l-2.038,1.177Z"/><path class="cls-12" d="M70.765,351.162v19.16L107.3,391.416V372.259Z"/><path class="cls-9" d="M72.8,322.848l-2.038,1.177L107.3,371.616l2.038-27.67Z"/><path class="cls-6" d="M103.2,360.829l4.105,10.787,2.038-1.178V343.946l-2.038,1.176Z"/><path class="cls-12" d="M70.765,324.025v26.492l36.538,21.1V345.122Z"/><polygon class="cls-16" points="84.05 340.717 90.4 344.382 90.4 340.803 84.05 337.136 84.05 340.717"/><polygon class="cls-16" points="91.256 341.298 91.256 344.876 94.019 346.472 94.019 342.893 91.256 341.298"/></g><g id="arrow_event_critycal"><path class="cls-17" d="M112.267,89.919V101.78l29.419.008L91.909,151.546,42.137,101.788l29.153-.008V89.919Zm0-10.65V60.614H71.29V79.269Zm0-29.3V38.638H71.29V49.967Zm0-21.978V21.546H71.29v6.443Z"/></g></svg>