<svg xmlns="http://www.w3.org/2000/svg" viewBox="0 0 455.095 600"><defs><style>.cls-1{fill:#0a0b0b;}.cls-2{fill:#585858;}.cls-3{fill:#363636;}.cls-4{fill:#584a44;}.cls-5{fill:#090909;}.cls-6{fill:#362d2a;}.cls-7{fill:#eb5d55;}.cls-8{fill:#8b1d14;}.cls-9{fill:#c94130;}.cls-10{fill:#82cddf;}.cls-11{fill:#e52421;}.cls-12{fill:#fff;}</style></defs><g id="Capa_1" data-name="Capa 1"><polygon class="cls-1" points="454.301 465.166 230.249 594.591 225.847 587.029 226.681 564.346 230.249 550.058 454.301 420.633 454.301 465.166"/><polygon class="cls-2" points="454.301 420.633 230.249 550.058 213.746 547.491 32.847 444.002 17.9 427.461 241.96 298.033 454.301 420.633"/><path class="cls-1" d="M17.9,427.455V472L230.249,594.591V550.058Z"/><path class="cls-2" d="M3.873,426.637.794,428.418,12.8,470.426l3.079-36.853Z"/><path class="cls-1" d="M5.5,438.171l7.3,32.255,3.079-1.778V433.573L12.8,435.35Z"/><path class="cls-3" d="M.794,428.418v35.075L12.8,470.426V435.35Z"/><path class="cls-2" d="M17.9,427.455l-7.194,4.157L223.052,598.748l7.2-48.69-58.37-52.292Z"/><path class="cls-1" d="M199.171,561.019l23.881,37.729,7.2-4.157V550.058l-7.2,4.156Z"/><path class="cls-3" d="M10.706,431.612V476.15l212.346,122.6V554.214Z"/><polygon class="cls-4" points="205.627 564.237 191.012 555.798 190.013 556.379 204.623 572.016 205.627 564.237"/><polygon class="cls-5" points="203.405 566.046 204.623 572.016 205.619 571.441 205.627 564.237 204.626 564.814 203.405 566.046"/><polygon class="cls-6" points="190.013 556.379 190.006 563.578 204.623 572.016 204.626 564.814 190.013 556.379"/><polygon class="cls-7" points="203.175 564.859 191.545 558.149 189.276 559.461 200.901 571.465 203.175 564.859"/><polygon class="cls-8" points="200.007 567.078 200.901 571.465 203.172 570.152 203.175 564.859 200.901 566.174 200.007 567.078"/><polygon class="cls-9" points="189.276 559.461 189.268 564.752 200.901 571.465 200.901 566.174 189.276 559.461"/><path class="cls-4" d="M93.355,490.07l-1.683.96,51.265,52.281,1.683-23.642Z"/><path class="cls-5" d="M130.771,524.093l12.166,19.218,1.683-.957V519.669l-1.683.957Z"/><path class="cls-6" d="M91.672,491.03v22.679l51.265,29.6V520.626Z"/><polygon class="cls-1" points="135.763 531.66 135.763 534.985 97.862 513.098 97.862 499.748 100.724 501.397 108.776 510.523 135.763 531.66"/><polygon class="cls-10" points="135.763 521.638 135.763 531.66 100.724 511.44 100.724 501.397 135.763 521.638"/><path class="cls-2" d="M228.3,556.217l-3.076,1.777L237.236,600l3.075-36.845Z"/><path class="cls-1" d="M227.023,567.839,237.236,600l3.075-1.773V563.155l-3.075,1.772Z"/><path class="cls-3" d="M225.228,557.994v35.074L237.236,600V564.927Z"/></g><g id="arrow_event_critycal"><circle id="Encendido2" class="cls-11" cx="113.227" cy="312" r="32.665"/><path class="cls-12" d="M137.057,327.748a.274.274,0,0,1-.288.289H130.9a.245.245,0,0,1-.176-.08.285.285,0,0,1-.08-.209v-26.3h-3.528a2.738,2.738,0,0,0-2.6,1.861l-8.66,24.535a.25.25,0,0,1-.256.193h-4.779a.29.29,0,0,1-.257-.193l-8.627-24.535a2.777,2.777,0,0,0-2.6-1.861H95.812v26.3a.275.275,0,0,1-.289.289H89.654a.245.245,0,0,1-.176-.08.282.282,0,0,1-.081-.209v-31.5a.282.282,0,0,1,.081-.209.245.245,0,0,1,.176-.08h11.8c.214,0,.427.011.641.032a5.954,5.954,0,0,1,3.191,1.379,6.544,6.544,0,0,1,1.973,2.919l5.965,17.063,5.934-17.063a6.915,6.915,0,0,1,2-2.935A5.7,5.7,0,0,1,124.357,296c.213-.021.417-.032.609-.032h11.8a.274.274,0,0,1,.288.289Z"/></g></svg>