<svg xmlns="http://www.w3.org/2000/svg" viewBox="0 0 201.557 600"><defs><style>.cls-1{isolation:isolate;}.cls-2{fill:#623942;}.cls-3{fill:#81505a;}.cls-4{fill:#71454e;}.cls-5{fill:#bbceec;}.cls-6{fill:#ebf1fb;}.cls-7{fill:#ccdaf1;}.cls-8{fill:#2b3235;}.cls-9{fill:#505860;}.cls-10{fill:#fff;}.cls-11{fill:#fbbb26;}.cls-12{fill:#b0b8cf;}.cls-13{fill:#9ea9c8;}.cls-14{fill:#e3e7f0;}.cls-15{fill:#c9cee2;}.cls-16{fill:#ea526f;}.cls-17{fill:#f7ce6d;}.cls-18{fill:#68acdf;}.cls-19{fill:#6089c7;}.cls-20{fill:#87bf54;}.cls-21{fill:#67b765;}.cls-22{opacity:0.3;}.cls-23{fill:#4c71b6;}.cls-24{fill:#dbe5f6;}.cls-25{fill:#e52421;}</style></defs><g id="Capa_1" data-name="Capa 1"><g id="_76" data-name="76"><g class="cls-1"><polygon class="cls-2" points="67.452 600 0.468 561.073 0.468 553.027 67.452 591.954 67.452 600"/><polygon class="cls-3" points="67.452 591.954 0.468 553.027 123.507 481.994 201.088 514.799 67.452 591.954"/><polygon class="cls-4" points="201.088 514.799 201.088 522.845 67.452 600 67.452 591.954 201.088 514.799"/></g><g class="cls-1"><polygon class="cls-5" points="66.92 587.54 8.256 553.449 7.701 315.518 66.365 349.609 66.92 587.54"/><polygon class="cls-6" points="66.365 349.609 7.701 315.518 132.882 243.245 191.545 277.336 66.365 349.609"/><polygon class="cls-7" points="192.114 515.269 66.889 587.549 66.37 349.622 191.529 277.342 192.114 515.269"/></g><g class="cls-1"><path class="cls-8" d="M187.585,462.9l-.063,22.032a1.99,1.99,0,0,1-1.169,1.627,6.284,6.284,0,0,1-5.705-.017,1.966,1.966,0,0,1-1.156-1.631l.062-22.032a1.97,1.97,0,0,0,1.156,1.631,6.281,6.281,0,0,0,5.7.016A1.991,1.991,0,0,0,187.585,462.9Z"/><path class="cls-9" d="M186.368,461.223c1.611.93,1.619,2.391.047,3.3a6.281,6.281,0,0,1-5.7-.016c-1.553-.9-1.533-2.375.01-3.272A6.214,6.214,0,0,1,186.368,461.223Z"/></g><g class="cls-1"><path class="cls-8" d="M187.585,397.656l-.063,22.032a1.99,1.99,0,0,1-1.169,1.627,6.284,6.284,0,0,1-5.705-.017,1.966,1.966,0,0,1-1.156-1.631l.062-22.032a1.97,1.97,0,0,0,1.156,1.631,6.281,6.281,0,0,0,5.7.016A1.991,1.991,0,0,0,187.585,397.656Z"/><path class="cls-9" d="M186.368,395.978c1.611.93,1.619,2.391.047,3.3a6.281,6.281,0,0,1-5.7-.016c-1.553-.9-1.533-2.375.01-3.272A6.214,6.214,0,0,1,186.368,395.978Z"/></g><g class="cls-1"><path class="cls-8" d="M187.585,332.411l-.063,22.032a1.99,1.99,0,0,1-1.169,1.627,6.284,6.284,0,0,1-5.705-.017,1.966,1.966,0,0,1-1.156-1.631l.062-22.032a1.97,1.97,0,0,0,1.156,1.631,6.281,6.281,0,0,0,5.7.016A1.991,1.991,0,0,0,187.585,332.411Z"/><path class="cls-9" d="M186.368,330.733c1.611.93,1.619,2.391.047,3.3a6.281,6.281,0,0,1-5.7-.016c-1.553-.9-1.533-2.375.01-3.272A6.214,6.214,0,0,1,186.368,330.733Z"/></g><g class="cls-1"><polygon class="cls-5" points="132.243 522.159 129.184 520.381 128.736 341.37 131.796 343.148 132.243 522.159"/><polygon class="cls-10" points="131.796 343.148 128.736 341.37 178.734 312.502 181.793 314.28 131.796 343.148"/><polygon class="cls-6" points="182.251 493.292 132.218 522.166 131.8 343.158 181.781 314.284 182.251 493.292"/></g><g class="cls-1"><polygon class="cls-5" points="79.932 552.381 76.872 550.603 76.425 371.593 79.485 373.37 79.932 552.381"/><polygon class="cls-10" points="79.485 373.37 76.425 371.593 126.403 342.736 129.462 344.514 79.485 373.37"/><polygon class="cls-6" points="129.92 523.526 79.907 552.388 79.489 373.38 129.45 344.518 129.92 523.526"/></g><g class="cls-1"><path class="cls-8" d="M78.991,525.637l-.062,22.032a1.991,1.991,0,0,1-1.17,1.627,6.281,6.281,0,0,1-5.7-.017,1.969,1.969,0,0,1-1.156-1.63l.063-22.033a1.966,1.966,0,0,0,1.156,1.631,6.284,6.284,0,0,0,5.7.017A1.99,1.99,0,0,0,78.991,525.637Z"/><path class="cls-9" d="M77.774,523.959c1.611.93,1.619,2.391.048,3.305a6.284,6.284,0,0,1-5.7-.017c-1.553-.9-1.533-2.374.01-3.271A6.215,6.215,0,0,1,77.774,523.959Z"/></g><g class="cls-1"><path class="cls-8" d="M78.991,460.392l-.062,22.032a1.991,1.991,0,0,1-1.17,1.627,6.281,6.281,0,0,1-5.7-.017A1.969,1.969,0,0,1,70.9,482.4l.063-22.033A1.966,1.966,0,0,0,72.117,462a6.284,6.284,0,0,0,5.7.017A1.99,1.99,0,0,0,78.991,460.392Z"/><path class="cls-9" d="M77.774,458.714c1.611.93,1.619,2.391.048,3.305a6.284,6.284,0,0,1-5.7-.017c-1.553-.9-1.533-2.374.01-3.271A6.215,6.215,0,0,1,77.774,458.714Z"/></g><g class="cls-1"><path class="cls-8" d="M78.991,395.147l-.062,22.033a1.991,1.991,0,0,1-1.17,1.626,6.281,6.281,0,0,1-5.7-.017,1.969,1.969,0,0,1-1.156-1.63l.063-22.033a1.966,1.966,0,0,0,1.156,1.631,6.284,6.284,0,0,0,5.7.017A1.99,1.99,0,0,0,78.991,395.147Z"/><path class="cls-9" d="M77.774,393.469c1.611.93,1.619,2.392.048,3.305a6.284,6.284,0,0,1-5.7-.017c-1.553-.9-1.533-2.374.01-3.271A6.215,6.215,0,0,1,77.774,393.469Z"/></g><path class="cls-5" d="M118.465,449.259c1.852-1.069,3.437-.229,3.444,1.962a7.7,7.7,0,0,1-3.422,5.926c-1.906,1.1-3.437.166-3.443-1.962A7.5,7.5,0,0,1,118.465,449.259Z"/><path class="cls-5" d="M142.492,435.387c1.852-1.069,3.437-.229,3.443,1.962a7.694,7.694,0,0,1-3.421,5.926c-1.907,1.1-3.437.166-3.443-1.962A7.5,7.5,0,0,1,142.492,435.387Z"/><path class="cls-8" d="M138.539,396.16l15.669-39.713c1.366-3.47,5.057-5.154,6.829-2.742l15.836,21.521c1.643,2.222-.069,6.2-2.531,7.626l-31.507,18.191C139.863,402.76,136.962,400.162,138.539,396.16Z"/><path class="cls-11" d="M159.792,354.618,175.63,376.14c.959,1.3-.195,4.3-2.061,5.376l-31.506,18.19c-1.866,1.077-3.032-.584-2.088-2.98l15.668-39.713C156.448,354.969,158.742,353.187,159.792,354.618Z"/><polygon class="cls-8" points="161.555 367.119 156.798 376.873 161.058 374.414 154.324 387.041 157.416 378.046 154.059 379.984 156.466 370.057 161.555 367.119"/><path class="cls-8" d="M115.02,402.351l-.108-30.365.665-.384c2.938-1.7,5.337-.329,5.346,3.05l.111,31.171a11.726,11.726,0,0,1-5.312,9.2L95.566,426.582c-2.94,1.7-5.339.331-5.349-3.045l0-.809,19.493-11.177A11.726,11.726,0,0,0,115.02,402.351Z"/><g class="cls-1"><path class="cls-12" d="M115.68,405.345l-10.454-6.075a1.061,1.061,0,0,0,.482-.832l10.454,6.075A1.061,1.061,0,0,1,115.68,405.345Z"/><path class="cls-13" d="M88.107,409.161l.014,5.4v2.1l3.479,2.024v.015l.485.271,23.6-13.631-.755-.442-3.123-1.81-.37-.214-4.834-2.809-.356-.214-1.013-.584-12.988,7.5-.67.385Z"/><path class="cls-13" d="M88.121,416.661v.228c.373.219,3.994,2.329,3.622,2.11.108.081.228.01.342-.028L91.6,418.7v-.015Z"/><path class="cls-14" d="M91.6,416.575l-3.479-2.01v.456l3.479,2.025.955.556a.562.562,0,0,1-.242-.342.91.91,0,0,1-.043-.285Z"/><path class="cls-13" d="M105.63,376.264c0,.395.058,14.111.057,13.693,0,.371.03,9.035.028,8.483l1.483.855,3.55,2.068,1.54.9.37.214,2.738,1.6.77.442-.114-29.732-.471-.271h-.014l-3.436-2.01-1.426.827-.413.228Z"/><path class="cls-13" d="M112.131,372.5l3.436,2.01h.014l.471.271a.407.407,0,0,0-.043-.2.165.165,0,0,0-.085-.086c-.015-.014-.015-.028-.029-.028l-3.564-2.082Z"/><path class="cls-14" d="M110.705,373.327l-.413.228,3.45,2.01.67.385a.919.919,0,0,1,.442-.128.448.448,0,0,1,.2.043l-.9-.542Z"/><path class="cls-14" d="M88.021,390.564l.086,18.6.014,5.4,3.479,2.01.67.4-.028-10.209-.071-16.857-.67-.385-2.852-1.654A6.689,6.689,0,0,0,88.021,390.564Z"/><path class="cls-14" d="M89.633,386.187l2.837,1.654.67.385,21.272-12.276-.67-.385-3.45-2.01-4.662,2.709-14.016,8.084A6.534,6.534,0,0,0,89.633,386.187Z"/><path class="cls-14" d="M88.649,387.87l2.852,1.654.67.385a2.146,2.146,0,0,1,.969-1.683l-.67-.385-2.837-1.654A7.647,7.647,0,0,0,88.649,387.87Z"/><path class="cls-15" d="M88.021,390.564l.086,18.6.014,5.4v2.324l.015,4.22c0,2.281,1.611,3.194,3.607,2.053l24.3-14.029a7.891,7.891,0,0,0,3.593-6.216l-.1-30.545c-.015-2.281-1.625-3.208-3.622-2.053l-3.578,2.067-.2.114-1.426.827-.413.228-4.662,2.709-14.016,8.084a6.534,6.534,0,0,0-1.981,1.839,7.647,7.647,0,0,0-.984,1.683A6.689,6.689,0,0,0,88.021,390.564Zm3.551,16.587L91.5,389.524v-.557a1.086,1.086,0,0,1,.47-.841l.5-.285,21.272-12.276.414-.242,1.411-.813h.014a.327.327,0,0,1,.314-.042c.014,0,.014.014.029.028a.239.239,0,0,1,.085.086.407.407,0,0,1,.043.2l.114,29.732a1.036,1.036,0,0,1-.485.827l-23.6,13.631c-.114.038-.234.109-.342.028-.029,0-.043-.028-.072-.043a.5.5,0,0,1-.071-.256v-2.125Z"/><path class="cls-15" d="M114.415,375.947c.536-.309.971-.059.972.554l.1,27.069a2.128,2.128,0,0,1-.966,1.673L93.241,417.529c-.534.308-.97.059-.972-.554l-.1-27.069a2.135,2.135,0,0,1,.966-1.674Z"/></g><polygon class="cls-8" points="94.603 406.57 102.707 401.892 102.707 408.331 94.622 412.998 94.603 406.57"/><polygon class="cls-10" points="102.342 402.523 94.968 406.78 94.984 412.368 102.342 408.12 102.342 402.523"/><path class="cls-16" d="M99.147,408.542c.276.3-.032,1.076-.488,1.338-.7.405-.827-.7-.119-1.275l1.217-3.1S99.072,408.914,99.147,408.542Z"/><path class="cls-17" d="M100.593,405.144l-.682,1.1a.872.872,0,0,0-.28-.113l.126-.628-.24.611c-.864-.076-1.761.875-2.189,1.7l-.684-.317C97.4,406.068,99.244,404.27,100.593,405.144Z"/><path class="cls-18" d="M100.593,405.144a1.894,1.894,0,0,1,.722,1.666l-.921.532a1.227,1.227,0,0,0-.483-1.094Z"/><path class="cls-15" d="M96.644,407.5l.684.317a3.425,3.425,0,0,0-.41,1.528l-.922.532A5.248,5.248,0,0,1,96.644,407.5Z"/><polygon class="cls-8" points="104.554 400.825 112.658 396.146 112.658 402.585 104.573 407.253 104.554 400.825"/><polygon class="cls-10" points="112.293 396.777 104.919 401.035 104.935 406.623 112.293 402.375 112.293 396.777"/><path class="cls-16" d="M109.1,402.8c.276.305-.032,1.076-.488,1.339-.7.405-.827-.7-.119-1.276l1.217-3.1Z"/><path class="cls-17" d="M110.544,399.4l-.682,1.1a.829.829,0,0,0-.28-.113l.126-.628-.24.611c-.864-.076-1.761.875-2.189,1.7l-.684-.317C107.349,400.323,109.2,398.525,110.544,399.4Z"/><path class="cls-18" d="M110.544,399.4a1.9,1.9,0,0,1,.722,1.667l-.921.532a1.227,1.227,0,0,0-.483-1.094Z"/><path class="cls-15" d="M106.6,401.759l.684.317a3.425,3.425,0,0,0-.41,1.528l-.922.532A5.244,5.244,0,0,1,106.6,401.759Z"/><path class="cls-8" d="M98.646,393.132c1.417-.818,2.571-.171,2.576,1.468a5.62,5.62,0,0,1-2.56,4.411c-1.408.813-2.562.166-2.566-1.452A5.623,5.623,0,0,1,98.646,393.132Z"/><path class="cls-8" d="M109.128,387.08c1.408-.813,2.571-.171,2.576,1.468a5.637,5.637,0,0,1-2.559,4.412c-1.408.813-2.562.165-2.567-1.453A5.623,5.623,0,0,1,109.128,387.08Z"/><g class="cls-1"><path class="cls-9" d="M97.63,392.541c-2.168,1.252-3.457,5.1-1.806,6.058l1.015.59a1.779,1.779,0,0,1-.743-1.63c-.007-2.563,2.733-5.565,4.379-4.608C99.738,392.666,99.151,391.663,97.63,392.541Z"/><path class="cls-9" d="M109.94,386.312a1.813,1.813,0,0,0-1.828.178c-2.168,1.252-3.457,5.1-1.806,6.057l1.016.59c-1.691-.982-.334-4.822,1.806-6.057a1.815,1.815,0,0,1,1.828-.178Z"/></g><g class="cls-1"><path class="cls-19" d="M100.147,393.615c-1.386-.806-3.586,1.72-3.581,3.769a1.46,1.46,0,0,0,.612,1.338l1.155.671c-1.387-.806-.271-3.954,1.473-4.961a1.48,1.48,0,0,1,1.5-.146Z"/><path class="cls-18" d="M99.806,394.432c1.16-.67,2.105-.132,2.108,1.2a4.615,4.615,0,0,1-2.095,3.617c-1.15.664-2.094.126-2.1-1.2A4.612,4.612,0,0,1,99.806,394.432Z"/></g><g class="cls-1"><path class="cls-20" d="M110.809,387.617a1.484,1.484,0,0,0-1.5.146,4.615,4.615,0,0,0-2.085,3.623,1.46,1.46,0,0,0,.612,1.338l1.154.671a1.46,1.46,0,0,1-.611-1.338c-.006-2.106,2.243-4.546,3.58-3.769Z"/><path class="cls-21" d="M110.467,388.434c1.161-.67,2.105-.132,2.109,1.2a4.613,4.613,0,0,1-2.095,3.617c-1.15.664-2.095.126-2.1-1.2A4.614,4.614,0,0,1,110.467,388.434Z"/></g><g class="cls-1"><path class="cls-8" d="M93.971,425.655,113.987,414.1a11.726,11.726,0,0,0,5.312-9.2l-.111-31.171a3.729,3.729,0,0,0-1.557-3.418c.837.709,3.144.893,3.153,4.345l.111,31.172a11.728,11.728,0,0,1-5.312,9.2L95.566,426.582a3.756,3.756,0,0,1-3.792.369l-1.6-.927A3.758,3.758,0,0,0,93.971,425.655Z"/><path class="cls-8" d="M93.82,380.39l20.017-11.557c1.925-1.111,3.672-1.213,4.934-.479l1.595.927c-1.262-.733-3.008-.632-4.933.48L95.416,381.317A15.261,15.261,0,0,0,88.5,393.293l.111,31.171c.006,2.182.779,3.718,2.024,4.442-.821-.724-3.608-1-3.62-5.369l-.111-31.172A15.261,15.261,0,0,1,93.82,380.39Z"/></g><path class="cls-9" d="M115.433,369.761c3.825-2.209,6.946-.43,6.959,3.965l.11,31.172a15.256,15.256,0,0,1-6.913,11.972L95.572,428.426c-3.826,2.209-6.947.43-6.959-3.962L88.5,393.293a15.261,15.261,0,0,1,6.914-11.976ZM90.217,423.537c.01,3.376,2.409,4.743,5.349,3.045l20.017-11.556a11.728,11.728,0,0,0,5.312-9.2l-.111-31.172c-.009-3.378-2.408-4.745-5.346-3.049L95.421,383.161a11.728,11.728,0,0,0-5.314,9.2l.11,31.171"/><g class="cls-22"><path class="cls-23" d="M90.105,392.367l.113,31.17c.011,3.376,2.406,4.745,5.347,3.043l20.021-11.557a11.714,11.714,0,0,0,5.307-9.2l-.107-31.17c-.011-3.381-2.411-4.75-5.347-3.054L95.419,383.16A11.757,11.757,0,0,0,90.105,392.367Z"/></g><g class="cls-1"><path class="cls-9" d="M58.686,563.12,14.854,537.648A1.8,1.8,0,0,1,14.106,536a5.639,5.639,0,0,1,2.561-4.447L60.5,557.024a5.641,5.641,0,0,0-2.561,4.447A1.8,1.8,0,0,0,58.686,563.12Z"/><path class="cls-8" d="M60.5,557.024l.017,5.916c-1.421.821-2.573.164-2.578-1.469A5.641,5.641,0,0,1,60.5,557.024Z"/></g><g class="cls-1"><path class="cls-9" d="M58.686,547.441,14.854,521.969a1.8,1.8,0,0,1-.748-1.649,5.642,5.642,0,0,1,2.561-4.448L60.5,541.345a5.641,5.641,0,0,0-2.561,4.447A1.8,1.8,0,0,0,58.686,547.441Z"/><path class="cls-8" d="M60.5,541.345l.017,5.916c-1.421.82-2.573.164-2.578-1.469A5.641,5.641,0,0,1,60.5,541.345Z"/></g><g class="cls-1"><path class="cls-9" d="M58.686,531.762,14.854,506.29a1.8,1.8,0,0,1-.748-1.649,5.642,5.642,0,0,1,2.561-4.448L60.5,525.666a5.641,5.641,0,0,0-2.561,4.447A1.8,1.8,0,0,0,58.686,531.762Z"/><path class="cls-8" d="M60.5,525.665l.017,5.917c-1.421.82-2.573.164-2.578-1.469A5.645,5.645,0,0,1,60.5,525.665Z"/></g><g class="cls-1"><path class="cls-9" d="M58.686,516.083,14.854,490.611a1.8,1.8,0,0,1-.748-1.65,5.64,5.64,0,0,1,2.561-4.447L60.5,509.986a5.645,5.645,0,0,0-2.561,4.448A1.8,1.8,0,0,0,58.686,516.083Z"/><path class="cls-8" d="M60.5,509.986l.017,5.917c-1.421.82-2.573.164-2.578-1.469A5.645,5.645,0,0,1,60.5,509.986Z"/></g><g class="cls-1"><polygon class="cls-7" points="164.234 275.759 164.22 283.137 76.868 333.901 76.882 326.523 164.234 275.759"/><polygon class="cls-5" points="76.882 326.523 76.868 333.901 39.554 312.358 39.568 304.98 76.882 326.523"/><polygon class="cls-24" points="164.234 275.759 76.882 326.523 39.568 304.98 126.921 254.216 164.234 275.759"/></g></g></g><g id="arrow_event_critycal"><circle id="Encendido2" class="cls-25" cx="60.146" cy="229.901" r="32.665"/><path class="cls-10" d="M83.976,245.648a.275.275,0,0,1-.289.289H77.818a.245.245,0,0,1-.176-.08.281.281,0,0,1-.08-.209v-26.3H74.034a2.737,2.737,0,0,0-2.6,1.86l-8.66,24.535a.251.251,0,0,1-.256.193H57.741a.289.289,0,0,1-.257-.193l-8.627-24.535a2.777,2.777,0,0,0-2.6-1.86H42.731v26.3a.275.275,0,0,1-.289.289H36.573a.249.249,0,0,1-.177-.08.285.285,0,0,1-.08-.209v-31.5a.285.285,0,0,1,.08-.209.249.249,0,0,1,.177-.08h11.8q.319,0,.641.032a5.957,5.957,0,0,1,3.191,1.379,6.552,6.552,0,0,1,1.973,2.919l5.965,17.063,5.934-17.063a6.9,6.9,0,0,1,2-2.935,5.709,5.709,0,0,1,3.191-1.363q.321-.031.61-.032h11.8a.275.275,0,0,1,.289.289Z"/></g></svg>