<svg xmlns="http://www.w3.org/2000/svg" viewBox="0 0 289.084 600"><defs><style>.cls-1{fill:#878787;}.cls-2{fill:#dadada;}.cls-3{fill:#9e9d9c;}.cls-4{fill:#3d3d3b;}.cls-5{isolation:isolate;}.cls-6{fill:#a8a8a8;}.cls-7{fill:#bcbcbb;}.cls-8{fill:#767676;}.cls-9{fill:#fff;}.cls-10{fill:#df5c11;}.cls-11{fill:#f1842c;}.cls-12{fill:#e52421;}</style></defs><g id="Capa_1" data-name="Capa 1"><polygon class="cls-1" points="206.848 383.253 161.137 356.922 161.138 481.761 206.849 508.092 206.848 383.253"/><polygon class="cls-2" points="288.196 336.277 206.848 383.253 206.849 508.092 288.198 461.115 288.196 336.277"/><polygon class="cls-3" points="206.848 383.253 161.137 356.922 242.982 310.232 288.694 336.563 206.848 383.253"/><polygon class="cls-1" points="126.966 428.777 81.254 402.447 81.255 527.285 126.966 553.617 126.966 428.777"/><polygon class="cls-2" points="208.314 381.801 126.966 428.777 126.966 553.617 208.315 506.64 208.314 381.801"/><polygon class="cls-3" points="126.966 428.777 81.254 402.447 163.099 355.756 208.811 382.088 126.966 428.777"/><polygon class="cls-1" points="46.102 475.161 0.39 448.83 0.392 573.669 46.103 600 46.102 475.161"/><polygon class="cls-2" points="127.45 428.185 46.102 475.161 46.103 600 127.451 553.023 127.45 428.185"/><polygon class="cls-3" points="46.102 475.161 0.39 448.83 82.236 402.14 127.947 428.471 46.102 475.161"/><path class="cls-4" d="M10.454,529.752c-1-.578-1.812-.109-1.812,1.047a4.007,4.007,0,0,0,1.812,3.139l20.352,11.749c1,.579,1.812.11,1.812-1.046a4.005,4.005,0,0,0-1.812-3.139Z"/><path class="cls-4" d="M10.455,522.863c-1-.578-1.813-.11-1.813,1.047a4,4,0,0,0,1.813,3.139L30.806,538.8c1,.578,1.812.11,1.812-1.046a4.005,4.005,0,0,0-1.812-3.139Z"/><path class="cls-4" d="M10.455,515.974c-1-.578-1.813-.11-1.813,1.046a4,4,0,0,0,1.813,3.139l20.351,11.75c1,.578,1.813.109,1.813-1.046a4.008,4.008,0,0,0-1.813-3.14Z"/><path class="cls-4" d="M10.455,509.085c-1-.579-1.813-.11-1.813,1.046a4,4,0,0,0,1.813,3.139l20.351,11.75c1,.578,1.813.109,1.813-1.046a4.008,4.008,0,0,0-1.813-3.14Z"/><path class="cls-4" d="M10.455,502.2c-1-.578-1.813-.109-1.813,1.047a4.006,4.006,0,0,0,1.813,3.139l20.351,11.75c1,.578,1.813.109,1.813-1.046a4.006,4.006,0,0,0-1.813-3.14Z"/><path class="cls-4" d="M10.455,495.306c-1-.578-1.813-.109-1.813,1.046a4.006,4.006,0,0,0,1.813,3.14l20.351,11.75c1,.578,1.813.109,1.813-1.047a4.006,4.006,0,0,0-1.813-3.139Z"/><path class="cls-4" d="M10.455,488.417c-1-.578-1.813-.109-1.813,1.046a4.008,4.008,0,0,0,1.813,3.14l20.351,11.749c1,.578,1.813.11,1.813-1.046a4.006,4.006,0,0,0-1.813-3.139Z"/><g class="cls-5"><polygon class="cls-6" points="251.55 383.658 271.047 372.328 270.795 461.341 251.298 472.671 251.55 383.658"/><polygon class="cls-4" points="257.076 408.159 265.489 403.269 265.27 434.159 256.857 439.049 257.076 408.159"/><polygon class="cls-7" points="234.542 373.839 254.039 362.509 271.047 372.328 251.55 383.658 234.542 373.839"/><polygon class="cls-8" points="251.55 383.658 251.298 472.671 234.29 462.852 234.542 373.839 251.55 383.658"/></g><path class="cls-9" d="M265.09,386.024a8.659,8.659,0,0,1-3.917,6.784c-2.164,1.249-3.917.236-3.917-2.262a8.658,8.658,0,0,1,3.916-6.784C263.336,382.513,265.09,383.526,265.09,386.024Z"/><path class="cls-9" d="M265.09,454.72a8.658,8.658,0,0,1-3.917,6.784c-2.164,1.249-3.917.236-3.917-2.261a8.655,8.655,0,0,1,3.916-6.784C263.336,451.209,265.09,452.222,265.09,454.72Z"/><g class="cls-5"><path class="cls-10" d="M263.586,415.01c-.155-.09-.31-.165-.47-.257l-6.2,3.605c.161.092.315.167.47.257a2.7,2.7,0,0,1,.354.24l6.2-3.605A2.635,2.635,0,0,0,263.586,415.01Z"/><path class="cls-10" d="M270.613,410.91a3.22,3.22,0,0,0-.935-.86,1.259,1.259,0,0,0-1.257-.123l-6.2,3.6a1.255,1.255,0,0,1,1.256.124,3.206,3.206,0,0,1,.936.859c.822,1.1,1.062,2.467.535,3.112l-4.273,5.1c.894,2.112.944,4.232,0,5.37a2.13,2.13,0,0,1-.559.475l6.2-3.605a2.1,2.1,0,0,0,.559-.475c.942-1.138.892-3.258,0-5.371l4.273-5.1C271.676,413.377,271.435,412.01,270.613,410.91Z"/><path class="cls-11" d="M263.474,413.656a3.206,3.206,0,0,1,.936.859c.822,1.1,1.062,2.467.535,3.112l-4.273,5.1c.894,2.112.944,4.232,0,5.37-.832.991-2.2.976-3.619.156-.171-.1-.143-9.895-.143-9.895.161.092.315.167.47.257a2.7,2.7,0,0,1,.354.24l4.255-5.132A1.119,1.119,0,0,1,263.474,413.656Z"/></g><g class="cls-5"><polygon class="cls-6" points="228.38 396.471 247.877 385.141 247.625 474.154 228.128 485.484 228.38 396.471"/><polygon class="cls-4" points="233.906 420.971 242.318 416.081 242.099 446.972 233.687 451.861 233.906 420.971"/><polygon class="cls-7" points="211.372 386.651 230.869 375.321 247.877 385.141 228.38 396.471 211.372 386.651"/><polygon class="cls-8" points="228.38 396.471 228.128 485.484 211.12 475.664 211.372 386.651 228.38 396.471"/></g><path class="cls-9" d="M241.92,398.836A8.658,8.658,0,0,1,238,405.62c-2.163,1.249-3.917.236-3.917-2.261A8.66,8.66,0,0,1,238,396.574C240.166,395.325,241.92,396.338,241.92,398.836Z"/><path class="cls-9" d="M241.92,467.532A8.658,8.658,0,0,1,238,474.316c-2.163,1.249-3.917.237-3.917-2.261A8.66,8.66,0,0,1,238,465.27C240.166,464.022,241.92,465.034,241.92,467.532Z"/><g class="cls-5"><path class="cls-10" d="M248.711,446.488l-5.076-9.765c.7-1.3.517-3.5-.6-5.673a9.262,9.262,0,0,0-3.086-3.485l-6.2,3.6a9.262,9.262,0,0,1,3.085,3.486c1.12,2.176,1.3,4.373.6,5.673l5.076,9.765c.606,1.151.545,2.311-.082,2.675l6.2-3.6C249.255,448.8,249.316,447.639,248.711,446.488Z"/><path class="cls-11" d="M233.743,431.17a9.251,9.251,0,0,1,3.085,3.485c1.12,2.176,1.3,4.373.6,5.673l5.075,9.765c.635,1.207.537,2.423-.176,2.722a1.342,1.342,0,0,1-1.165-.162,3.687,3.687,0,0,1-1.326-1.47l-5.075-9.765a5.458,5.458,0,0,1-1.05-.433Z"/></g><g class="cls-5"><polygon class="cls-6" points="205.654 411.524 225.151 400.194 224.899 489.206 205.402 500.537 205.654 411.524"/><polygon class="cls-4" points="211.18 436.023 219.592 431.134 219.374 462.024 210.961 466.914 211.18 436.023"/><polygon class="cls-7" points="188.646 401.704 208.143 390.373 225.151 400.194 205.654 411.524 188.646 401.704"/><polygon class="cls-8" points="205.654 411.524 205.402 500.537 188.394 490.717 188.646 401.704 205.654 411.524"/></g><path class="cls-9" d="M219.194,413.888a8.66,8.66,0,0,1-3.917,6.785c-2.163,1.249-3.917.236-3.917-2.262a8.658,8.658,0,0,1,3.917-6.784C217.44,410.378,219.194,411.391,219.194,413.888Z"/><path class="cls-9" d="M219.194,482.585a8.659,8.659,0,0,1-3.917,6.784c-2.163,1.249-3.917.236-3.917-2.262a8.659,8.659,0,0,1,3.917-6.784C217.44,479.074,219.194,480.087,219.194,482.585Z"/><g class="cls-5"><path class="cls-10" d="M217.69,442.875c-.155-.09-.309-.165-.47-.258l-6.2,3.6c.16.093.315.168.47.258a2.545,2.545,0,0,1,.354.24l6.2-3.605A2.635,2.635,0,0,0,217.69,442.875Z"/><path class="cls-10" d="M224.717,438.775a3.211,3.211,0,0,0-.936-.86,1.26,1.26,0,0,0-1.256-.123l-6.2,3.605a1.261,1.261,0,0,1,1.258.123,3.246,3.246,0,0,1,.935.86c.822,1.1,1.062,2.467.535,3.112l-4.274,5.1c.895,2.112.946,4.233,0,5.371a2.114,2.114,0,0,1-.559.475l6.2-3.605a2.114,2.114,0,0,0,.559-.475c.942-1.138.892-3.259,0-5.37l4.273-5.1C225.779,441.242,225.54,439.875,224.717,438.775Z"/><path class="cls-11" d="M217.579,441.52a3.246,3.246,0,0,1,.935.86c.822,1.1,1.062,2.467.535,3.112l-4.274,5.1c.895,2.113.946,4.233,0,5.371-.833.991-2.2.976-3.619.156-.171-.1-.143-9.9-.143-9.9.16.093.315.168.47.258a2.605,2.605,0,0,1,.354.24l4.255-5.133A1.122,1.122,0,0,1,217.579,441.52Z"/></g><g class="cls-5"><polygon class="cls-6" points="182.485 424.336 201.981 413.005 201.729 502.018 182.232 513.348 182.485 424.336"/><polygon class="cls-4" points="188.01 448.836 196.422 443.946 196.203 474.836 187.791 479.726 188.01 448.836"/><polygon class="cls-7" points="165.476 414.516 184.973 403.186 201.981 413.005 182.485 424.336 165.476 414.516"/><polygon class="cls-8" points="182.485 424.336 182.232 513.348 165.224 503.529 165.476 414.516 182.485 424.336"/></g><path class="cls-9" d="M196.024,426.7a8.659,8.659,0,0,1-3.917,6.784c-2.163,1.249-3.917.236-3.917-2.262a8.657,8.657,0,0,1,3.917-6.784C194.27,423.191,196.023,424.2,196.024,426.7Z"/><path class="cls-9" d="M196.024,495.4a8.658,8.658,0,0,1-3.917,6.784c-2.163,1.249-3.917.236-3.917-2.261a8.655,8.655,0,0,1,3.917-6.784C194.27,491.886,196.023,492.9,196.024,495.4Z"/><g class="cls-5"><path class="cls-10" d="M202.815,474.352l-5.076-9.764c.7-1.3.516-3.5-.6-5.674a9.266,9.266,0,0,0-3.086-3.484l-6.2,3.605a9.26,9.26,0,0,1,3.087,3.484c1.119,2.178,1.3,4.374.6,5.674l5.075,9.765c.606,1.151.545,2.311-.082,2.675l6.2-3.6C203.359,476.664,203.42,475.505,202.815,474.352Z"/><path class="cls-11" d="M187.846,459.035a9.256,9.256,0,0,1,3.087,3.485c1.119,2.177,1.3,4.373.6,5.673l5.075,9.765c.635,1.207.538,2.423-.176,2.722a1.342,1.342,0,0,1-1.165-.162,3.687,3.687,0,0,1-1.326-1.47l-5.076-9.765a5.356,5.356,0,0,1-1.049-.434Z"/></g><g class="cls-5"><polygon class="cls-6" points="159.311 437.07 178.807 425.74 178.555 514.753 159.059 526.083 159.311 437.07"/><polygon class="cls-4" points="164.836 461.57 173.249 456.68 173.03 487.571 164.617 492.46 164.836 461.57"/><polygon class="cls-7" points="142.302 427.25 161.799 415.92 178.807 425.74 159.311 437.07 142.302 427.25"/><polygon class="cls-8" points="159.311 437.07 159.059 526.083 142.05 516.263 142.302 427.25 159.311 437.07"/></g><path class="cls-9" d="M172.85,439.435a8.658,8.658,0,0,1-3.917,6.784c-2.163,1.249-3.917.237-3.917-2.261a8.66,8.66,0,0,1,3.917-6.785C171.1,435.924,172.85,436.937,172.85,439.435Z"/><path class="cls-9" d="M172.85,508.131a8.658,8.658,0,0,1-3.917,6.784c-2.163,1.249-3.917.237-3.917-2.261a8.656,8.656,0,0,1,3.917-6.784C171.1,504.621,172.85,505.633,172.85,508.131Z"/><g class="cls-5"><path class="cls-10" d="M171.347,468.421c-.155-.089-.31-.164-.471-.257l-6.2,3.605c.161.093.315.167.47.257a2.733,2.733,0,0,1,.354.24l6.2-3.605A2.769,2.769,0,0,0,171.347,468.421Z"/><path class="cls-10" d="M178.373,464.321a3.216,3.216,0,0,0-.935-.859,1.259,1.259,0,0,0-1.257-.124l-6.2,3.6a1.262,1.262,0,0,1,1.257.124,3.216,3.216,0,0,1,.935.859c.822,1.1,1.063,2.468.536,3.112l-4.274,5.1c.894,2.112.945,4.232,0,5.37a2.134,2.134,0,0,1-.56.475l6.2-3.6a2.137,2.137,0,0,0,.56-.475c.941-1.139.891-3.259,0-5.371l4.273-5.1C179.436,466.789,179.2,465.421,178.373,464.321Z"/><path class="cls-11" d="M171.235,467.067a3.216,3.216,0,0,1,.935.859c.822,1.1,1.063,2.468.536,3.112l-4.274,5.1c.894,2.112.945,4.232,0,5.37-.833.992-2.2.976-3.62.156-.171-.1-.143-9.895-.143-9.895.161.093.315.167.471.257a2.8,2.8,0,0,1,.353.24l4.255-5.132A1.12,1.12,0,0,1,171.235,467.067Z"/></g><g class="cls-5"><polygon class="cls-6" points="136.141 449.882 155.638 438.552 155.385 527.565 135.888 538.895 136.141 449.882"/><polygon class="cls-4" points="141.666 474.382 150.078 469.493 149.859 500.383 141.447 505.272 141.666 474.382"/><polygon class="cls-7" points="119.132 440.063 138.629 428.732 155.638 438.552 136.141 449.882 119.132 440.063"/><polygon class="cls-8" points="136.141 449.882 135.888 538.895 118.88 529.076 119.132 440.063 136.141 449.882"/></g><path class="cls-9" d="M149.68,452.247a8.658,8.658,0,0,1-3.917,6.784c-2.163,1.249-3.917.237-3.917-2.261a8.658,8.658,0,0,1,3.917-6.784C147.926,448.737,149.68,449.749,149.68,452.247Z"/><path class="cls-9" d="M149.68,520.944a8.659,8.659,0,0,1-3.917,6.784c-2.163,1.248-3.917.236-3.917-2.262a8.658,8.658,0,0,1,3.917-6.784C147.926,517.433,149.68,518.445,149.68,520.944Z"/><g class="cls-5"><path class="cls-10" d="M156.471,499.9l-5.076-9.764c.7-1.3.517-3.5-.6-5.674a9.262,9.262,0,0,0-3.086-3.485l-6.2,3.605a9.253,9.253,0,0,1,3.086,3.485c1.119,2.177,1.3,4.373.6,5.673l5.075,9.765c.606,1.151.545,2.311-.082,2.675l6.2-3.6C157.015,502.21,157.076,501.051,156.471,499.9Z"/><path class="cls-11" d="M141.5,484.581a9.253,9.253,0,0,1,3.086,3.485c1.119,2.177,1.3,4.373.6,5.673l5.075,9.765c.635,1.207.538,2.423-.176,2.722a1.342,1.342,0,0,1-1.165-.162,3.68,3.68,0,0,1-1.326-1.47l-5.075-9.765a5.334,5.334,0,0,1-1.05-.433Z"/></g><g class="cls-5"><polygon class="cls-6" points="113.415 464.935 132.912 453.605 132.659 542.618 113.162 553.948 113.415 464.935"/><polygon class="cls-4" points="118.94 489.435 127.352 484.545 127.134 515.436 118.721 520.325 118.94 489.435"/><polygon class="cls-7" points="96.406 455.115 115.903 443.785 132.912 453.605 113.415 464.935 96.406 455.115"/><polygon class="cls-8" points="113.415 464.935 113.162 553.948 96.154 544.128 96.406 455.115 113.415 464.935"/></g><path class="cls-9" d="M126.954,467.3a8.655,8.655,0,0,1-3.917,6.784c-2.163,1.249-3.917.236-3.917-2.261a8.661,8.661,0,0,1,3.917-6.785C125.2,463.789,126.954,464.8,126.954,467.3Z"/><path class="cls-9" d="M126.954,536a8.659,8.659,0,0,1-3.917,6.785c-2.163,1.248-3.917.236-3.917-2.262a8.66,8.66,0,0,1,3.917-6.785C125.2,532.485,126.954,533.5,126.954,536Z"/><g class="cls-5"><path class="cls-10" d="M125.451,496.287c-.156-.09-.31-.166-.47-.258l-6.2,3.6c.16.093.315.169.47.258a2.635,2.635,0,0,1,.354.24l6.2-3.6A2.681,2.681,0,0,0,125.451,496.287Z"/><path class="cls-10" d="M132.477,492.186a3.23,3.23,0,0,0-.935-.859,1.257,1.257,0,0,0-1.257-.123l-6.2,3.6a1.261,1.261,0,0,1,1.258.124,3.228,3.228,0,0,1,.935.859c.822,1.1,1.062,2.468.535,3.112l-4.273,5.1c.895,2.111.945,4.232,0,5.371a2.133,2.133,0,0,1-.559.475l6.2-3.6a2.141,2.141,0,0,0,.56-.476c.941-1.138.891-3.258,0-5.37l4.274-5.1C133.54,494.653,133.3,493.286,132.477,492.186Z"/><path class="cls-11" d="M125.339,494.932a3.228,3.228,0,0,1,.935.859c.822,1.1,1.062,2.468.535,3.112l-4.273,5.1c.895,2.112.945,4.232,0,5.371-.832.99-2.2.975-3.619.156-.171-.1-.143-9.9-.143-9.9.16.093.315.169.47.258a2.635,2.635,0,0,1,.354.24L123.856,495A1.121,1.121,0,0,1,125.339,494.932Z"/></g><g class="cls-5"><polygon class="cls-6" points="90.245 477.747 109.741 466.417 109.489 555.43 89.992 566.76 90.245 477.747"/><polygon class="cls-4" points="95.77 502.247 104.183 497.357 103.964 528.248 95.552 533.137 95.77 502.247"/><polygon class="cls-7" points="73.237 467.927 92.733 456.597 109.741 466.417 90.245 477.747 73.237 467.927"/><polygon class="cls-8" points="90.245 477.747 89.992 566.76 72.984 556.94 73.237 467.927 90.245 477.747"/></g><path class="cls-9" d="M103.784,480.112a8.658,8.658,0,0,1-3.917,6.784c-2.163,1.249-3.917.237-3.917-2.261a8.657,8.657,0,0,1,3.917-6.785C102.03,476.6,103.784,477.614,103.784,480.112Z"/><path class="cls-9" d="M103.784,548.808a8.658,8.658,0,0,1-3.917,6.784c-2.163,1.249-3.917.237-3.917-2.261a8.655,8.655,0,0,1,3.917-6.784C102.03,545.3,103.784,546.311,103.784,548.808Z"/><g class="cls-5"><path class="cls-10" d="M110.575,527.764,105.5,518c.7-1.3.516-3.5-.6-5.673a9.261,9.261,0,0,0-3.086-3.485l-6.2,3.605a9.27,9.27,0,0,1,3.086,3.485c1.119,2.177,1.3,4.373.6,5.673l5.076,9.765c.605,1.152.544,2.311-.082,2.675l6.2-3.605C111.119,530.075,111.18,528.916,110.575,527.764Z"/><path class="cls-11" d="M95.607,512.446a9.27,9.27,0,0,1,3.086,3.485c1.12,2.177,1.3,4.373.6,5.674l5.076,9.764c.634,1.207.537,2.423-.177,2.722a1.342,1.342,0,0,1-1.165-.162,3.687,3.687,0,0,1-1.326-1.47l-5.076-9.765a5.413,5.413,0,0,1-1.049-.433Z"/></g></g><g id="arrow_event_critycal"><circle id="Encendido2" class="cls-12" cx="116.638" cy="328.423" r="32.665"/><path class="cls-9" d="M140.468,344.171a.276.276,0,0,1-.289.288H134.31a.244.244,0,0,1-.177-.08.283.283,0,0,1-.08-.208v-26.3h-3.528a2.737,2.737,0,0,0-2.6,1.86l-8.659,24.536a.252.252,0,0,1-.257.192h-4.779a.288.288,0,0,1-.256-.192l-8.628-24.536a2.776,2.776,0,0,0-2.6-1.86H99.222v26.3a.283.283,0,0,1-.08.208.279.279,0,0,1-.208.08h-5.87a.242.242,0,0,1-.176-.08.279.279,0,0,1-.08-.208v-31.5a.279.279,0,0,1,.08-.208.245.245,0,0,1,.176-.08h11.8q.321,0,.641.032A5.952,5.952,0,0,1,108.7,313.8a6.55,6.55,0,0,1,1.972,2.919l5.966,17.062,5.933-17.062a6.9,6.9,0,0,1,2-2.935,5.7,5.7,0,0,1,3.191-1.363q.321-.031.609-.032h11.8a.283.283,0,0,1,.208.08.279.279,0,0,1,.081.208Z"/></g></svg>