<svg xmlns="http://www.w3.org/2000/svg" xmlns:xlink="http://www.w3.org/1999/xlink" viewBox="0 0 380.636 600"><defs><style>.cls-1{opacity:0.6;filter:url(#luminosity-invert-noclip);}.cls-2{fill:#bdbec0;}.cls-3{fill:#797306;}.cls-4{mask:url(#mask);}.cls-5{fill:#a59908;}.cls-6{fill:#4b4800;}.cls-7{fill:#3d3e3e;}.cls-8{fill:#5dc5f0;}.cls-9{fill:#231f20;}.cls-10{fill:#e52421;}.cls-11{fill:#fff;}</style><filter id="luminosity-invert-noclip" x="81.205" y="293.847" width="298.489" height="306.141" filterUnits="userSpaceOnUse" color-interpolation-filters="sRGB"><feColorMatrix values="-1 0 0 0 1 0 -1 0 0 1 0 0 -1 0 1 0 0 0 1 0" result="invert"/><feFlood flood-color="#fff" result="bg"/><feBlend in="invert" in2="bg"/></filter><mask id="mask" x="81.205" y="293.847" width="298.489" height="306.141" maskUnits="userSpaceOnUse"><g class="cls-1"><polygon class="cls-2" points="99.518 476.612 364.552 321.664 364.552 327.86 99.518 482.648 99.518 476.612"/><polygon class="cls-2" points="99.518 491.001 364.552 336.052 364.552 342.249 99.518 497.038 99.518 491.001"/><polygon class="cls-2" points="99.518 505.39 364.552 350.441 364.552 356.638 99.518 511.427 99.518 505.39"/><polygon class="cls-2" points="99.518 519.779 364.552 364.83 364.552 371.026 99.518 525.815 99.518 519.779"/></g></mask></defs><g id="Capa_1" data-name="Capa 1"><polygon class="cls-3" points="81.206 464.46 81.206 600 0.917 557.455 0.917 421.916 81.206 464.46"/><g class="cls-4"><polygon class="cls-5" points="81.205 464.476 81.205 599.988 379.694 429.36 379.694 293.847 81.205 464.476"/></g><polygon class="cls-6" points="379.718 293.832 299.429 251.3 0.917 421.916 81.206 464.46 379.718 293.832"/><polygon class="cls-7" points="81.205 552.66 81.205 599.988 379.694 429.36 379.694 378.941 81.205 552.66"/><path class="cls-8" d="M238.828,482.763v8.151c0,1.138.82,1.594,1.867,1.047l27.5-15.892a4.149,4.149,0,0,0,1.822-3.142l-.045-8.151c0-1.184-.82-1.64-1.822-1.047l-24.59,14.161-2.914,1.685A4.08,4.08,0,0,0,238.828,482.763Z"/><polygon class="cls-9" points="81.205 552.66 72.168 547.436 72.168 595.211 81.205 599.988 81.205 552.66"/></g><g id="arrow_event_critycal"><circle id="Encendido2" class="cls-10" cx="148.299" cy="278.289" r="32.665"/><path class="cls-11" d="M172.129,294.036a.275.275,0,0,1-.289.289h-5.869a.245.245,0,0,1-.176-.08.282.282,0,0,1-.081-.209v-26.3h-3.528a2.737,2.737,0,0,0-2.6,1.86l-8.659,24.535a.251.251,0,0,1-.257.193h-4.779a.289.289,0,0,1-.256-.193L137.009,269.6a2.776,2.776,0,0,0-2.6-1.86h-3.527v26.3a.276.276,0,0,1-.289.289h-5.869a.248.248,0,0,1-.177-.08.285.285,0,0,1-.08-.209v-31.5a.285.285,0,0,1,.08-.209.248.248,0,0,1,.177-.08h11.8q.321,0,.642.032a5.96,5.96,0,0,1,3.191,1.379,6.542,6.542,0,0,1,1.972,2.919l5.966,17.063,5.933-17.063a6.908,6.908,0,0,1,2-2.935,5.706,5.706,0,0,1,3.191-1.363q.321-.032.609-.032h11.8a.275.275,0,0,1,.289.289Z"/></g></svg>