<svg xmlns="http://www.w3.org/2000/svg" viewBox="0 0 177.987 600"><defs><style>.cls-1{fill:#d6d7ed;}.cls-2{fill:#5f7175;}.cls-3{fill:#95a8ab;}.cls-4{isolation:isolate;}.cls-5{fill:#e6e9eb;}.cls-6{fill:#355a60;}.cls-7{fill:#1b2e31;}.cls-8{fill:#5e7a7f;}.cls-9{fill:#a4aeb0;}.cls-10{fill:#b1bfc2;}.cls-11{fill:#e6ebec;}.cls-12{fill:#2c3235;}.cls-13{fill:#faba28;}.cls-14{fill:#e52421;}.cls-15{fill:#fff;}</style></defs><g id="Capa_1" data-name="Capa 1"><polygon class="cls-1" points="1.042 541.977 55.997 573.706 176.943 503.877 121.989 472.149 1.042 541.977"/><polygon class="cls-2" points="154.26 543.268 131.576 530.171 131.576 521.918 154.26 535.015 154.26 543.268"/><polygon class="cls-2" points="55.999 591.746 176.945 521.918 176.945 503.759 55.999 573.587 55.999 591.746"/><polygon class="cls-2" points="154.26 543.268 176.945 530.171 176.945 521.918 154.26 535.015 154.26 543.268"/><polygon class="cls-2" points="55.999 600 78.683 586.903 78.683 578.649 55.999 591.746 55.999 600"/><polygon class="cls-3" points="46.411 568.271 23.726 581.368 23.726 573.114 46.411 560.017 46.411 568.271"/><polygon class="cls-3" points="1.042 560.017 55.999 591.746 55.999 573.587 1.042 541.858 1.042 560.017"/><polygon class="cls-3" points="33.314 586.903 55.999 600 55.999 591.746 33.314 578.649 33.314 586.903"/><polygon class="cls-3" points="1.042 568.271 23.726 581.368 23.726 573.114 1.042 560.017 1.042 568.271"/><g class="cls-4"><polygon class="cls-2" points="55.613 575.656 4.442 544.95 4.018 309.91 55.187 340.614 55.613 575.656"/><polygon class="cls-3" points="55.187 340.614 4.018 309.91 124.612 240.271 175.783 270.975 55.187 340.614"/><polygon class="cls-5" points="175.783 270.975 176.207 506.017 55.613 575.656 55.187 340.614 175.783 270.975"/></g><polygon class="cls-5" points="52.527 338.672 172.993 268.959 175.504 270.421 175.504 273.685 54.912 343.22 54.912 340.057 52.527 338.672"/><polygon class="cls-6" points="161.334 305.74 65.432 361.111 65.503 400.435 161.404 345.066 161.334 305.74"/><path class="cls-7" d="M99.823,358.654c.023,8.609,6.14,12.1,13.64,7.773s13.577-14.865,13.552-23.473h0c-.023-8.618-6.147-12.1-13.64-7.775S99.8,350.035,99.823,358.654Z"/><path class="cls-8" d="M123.828,332.72c-.179-.105-.372-.179-.56-.267-.163-.074-.32-.166-.49-.229-.2-.072-.408-.12-.613-.177-.176-.048-.344-.111-.525-.148-.214-.042-.442-.055-.663-.083-.187-.022-.365-.059-.556-.066-.23-.013-.471.007-.707.013-.2.007-.386,0-.586.013-.251.022-.512.077-.769.118-.2.033-.389.05-.589.092-.281.063-.573.157-.86.242-.187.055-.369.092-.556.155-.32.112-.648.254-.974.391-.166.07-.328.123-.495.2-.5.229-1,.489-1.511.784-8.14,4.7-14.714,16.086-14.689,25.436,0,.581.029,1.14.082,1.68.015.174.051.334.073.5.045.352.086.71.154,1.042.04.2.1.378.146.572.07.282.133.572.219.837.061.192.144.362.214.548.092.24.177.491.282.719.084.176.187.334.279.5.112.2.217.424.342.616.105.157.225.3.336.441.133.177.258.367.4.527.121.135.26.248.389.375.15.149.3.306.457.437.14.113.294.2.44.306,2.708,1.893,6.615,1.821,10.97-.69,8.134-4.7,14.708-16.086,14.682-25.434C128.138,337.518,126.486,334.251,123.828,332.72Zm-10.365,32.248c-.43.249-.855.467-1.274.661-.133.062-.263.1-.394.16-.284.118-.567.242-.843.336-.157.053-.307.083-.461.131-.246.07-.5.151-.735.2-.166.04-.322.053-.485.079-.22.035-.445.081-.661.1-.166.016-.324,0-.486.011-.2.007-.407.02-.6.011-.158-.006-.309-.039-.463-.059a4.954,4.954,0,0,1-.565-.07c-.15-.03-.292-.08-.437-.122-.176-.05-.356-.089-.524-.151-.143-.056-.274-.128-.412-.194-.159-.072-.323-.138-.475-.225a6.139,6.139,0,0,1-1.079-.817c-1.6-1.483-2.565-3.916-2.574-7.159-.023-7.88,5.535-17.506,12.392-21.463,2.864-1.653,5.5-2.044,7.613-1.381a6,6,0,0,1,1.633.8c.124.087.255.164.373.262.136.109.257.242.385.365.11.1.227.2.332.321.121.138.228.3.34.446.093.124.195.237.283.369.106.165.2.351.294.53.076.14.162.269.231.418.09.192.163.406.243.613.058.153.124.3.176.452.074.225.128.474.186.714.04.16.091.306.124.475.057.281.092.587.131.886.017.142.047.273.061.417.043.452.067.929.068,1.418C125.877,351.379,120.314,361.015,113.463,364.968Z"/><polygon class="cls-8" points="153.818 314.221 153.862 344.304 157.853 346.626 157.795 311.923 153.818 314.221"/><polygon class="cls-9" points="71.302 391.972 71.315 396.589 157.853 346.626 153.862 344.304 71.302 391.972"/><polygon class="cls-8" points="60.565 358.802 60.648 402.742 64.639 405.059 64.556 361.122 60.565 358.802"/><polygon class="cls-10" points="164.47 303.438 160.48 301.114 60.565 358.802 64.556 361.122 164.47 303.438"/><path class="cls-11" d="M164.47,303.438,64.556,361.122l.083,43.937,99.915-57.684ZM71.315,396.589l-.013-4.617-.044-30.086,82.56-47.665,3.977-2.3.058,34.7Z"/><polygon class="cls-11" points="158.39 316.975 158.384 314.826 114.825 340.054 114.825 340.054 112.946 341.142 112.946 341.142 111.077 342.218 111.077 342.218 109.197 343.306 109.197 343.306 107.318 344.387 107.318 344.387 106.439 344.896 103.57 346.552 103.57 346.552 101.689 347.637 101.689 347.637 99.81 348.725 99.81 348.725 97.942 349.804 97.942 349.804 96.046 350.896 94.182 351.973 94.182 351.973 92.269 353.078 90.434 354.137 90.434 354.137 88.554 355.222 88.554 355.222 86.675 356.308 86.675 356.306 84.807 357.387 84.807 357.387 83.33 358.239 81.046 359.558 81.046 359.558 79.6 360.39 76.441 362.216 75.419 362.805 75.419 362.805 70.947 365.385 70.953 367.388 70.953 367.534 158.39 316.975"/><polygon class="cls-11" points="70.966 371.854 158.402 321.29 158.396 319.133 70.96 369.694 70.966 371.854"/><polygon class="cls-11" points="158.409 323.44 70.972 374.001 70.977 376.159 158.414 325.6 158.409 323.44"/><polygon class="cls-11" points="158.39 329.95 158.384 327.804 114.825 353.032 114.825 353.032 112.946 354.115 112.946 354.115 111.077 355.194 111.077 355.194 109.197 356.28 109.197 356.28 107.318 357.365 107.318 357.365 106.439 357.874 103.57 359.529 103.57 359.529 101.689 360.613 101.689 360.613 99.81 361.7 99.81 361.7 97.942 362.777 97.942 362.777 96.046 363.874 94.182 364.95 94.182 364.95 92.269 366.053 90.434 367.113 90.434 367.113 88.554 368.198 88.554 368.198 86.675 369.286 86.675 369.283 84.807 370.362 84.807 370.362 83.33 371.214 81.046 372.531 81.046 372.531 79.6 373.368 76.441 375.194 75.419 375.783 75.419 375.783 70.947 378.363 70.953 380.363 70.953 380.51 158.39 329.95"/><polygon class="cls-11" points="70.966 384.832 158.402 334.268 158.396 332.11 70.96 382.67 70.966 384.832"/><polygon class="cls-11" points="158.409 336.415 70.972 386.977 70.977 389.137 158.414 338.575 158.409 336.415"/><polygon class="cls-11" points="158.39 342.944 158.384 340.799 114.825 366.027 114.825 366.027 112.946 367.11 112.946 367.11 111.077 368.189 111.077 368.189 109.197 369.275 109.197 369.275 107.318 370.362 107.318 370.362 106.439 370.869 103.57 372.525 103.57 372.525 101.689 373.608 101.689 373.608 99.81 374.694 99.81 374.694 97.942 375.772 97.942 375.772 96.046 376.869 94.182 377.946 94.182 377.946 92.269 379.049 90.434 380.108 90.434 380.108 88.554 381.193 88.554 381.193 86.675 382.281 86.675 382.279 84.807 383.358 84.807 383.358 83.33 384.21 81.046 385.527 81.046 385.527 79.6 386.363 76.441 388.189 75.419 388.779 75.419 388.779 70.947 391.358 70.953 393.359 70.953 393.505 158.39 342.944"/><path class="cls-12" d="M80.471,512.483l30.7-77.814c2.677-6.8,9.909-10.1,13.38-5.372l31.03,42.167c3.219,4.355-.136,12.158-4.96,14.944L88.888,522.049C83.066,525.414,77.382,520.324,80.471,512.483Z"/><path class="cls-13" d="M122.114,431.086l31.033,42.171c1.878,2.542-.383,8.422-4.038,10.533L87.376,519.431c-3.656,2.111-5.942-1.145-4.091-5.84l30.7-77.812C115.562,431.774,120.056,428.282,122.114,431.086Z"/><polygon class="cls-12" points="125.567 455.581 116.247 474.692 124.593 469.874 111.399 494.616 117.458 476.991 110.881 480.788 115.596 461.338 125.567 455.581"/></g><g id="arrow_event_critycal"><circle id="Encendido2" class="cls-14" cx="54.315" cy="223.973" r="32.665"/><path class="cls-15" d="M78.145,239.721a.275.275,0,0,1-.289.289H71.987a.249.249,0,0,1-.177-.08.285.285,0,0,1-.08-.209v-26.3H68.2a2.737,2.737,0,0,0-2.6,1.86l-8.659,24.535a.252.252,0,0,1-.257.193H51.909a.288.288,0,0,1-.256-.193l-8.628-24.535a2.776,2.776,0,0,0-2.6-1.86H36.9v26.3a.274.274,0,0,1-.288.289h-5.87a.247.247,0,0,1-.176-.08.285.285,0,0,1-.08-.209v-31.5a.285.285,0,0,1,.08-.209.247.247,0,0,1,.176-.08h11.8q.321,0,.642.032a5.96,5.96,0,0,1,3.191,1.379,6.542,6.542,0,0,1,1.972,2.919l5.966,17.063,5.933-17.063a6.908,6.908,0,0,1,2.005-2.935,5.7,5.7,0,0,1,3.191-1.363q.321-.031.609-.032h11.8a.275.275,0,0,1,.289.289Z"/></g></svg>