<svg xmlns="http://www.w3.org/2000/svg" viewBox="0 0 284.85 600"><defs><style>.cls-1{fill:#4f4c58;}.cls-2{fill:#63606f;}.cls-3{fill:#585564;}.cls-4{fill:#404047;}.cls-5{fill:#2f2e34;}.cls-6{fill:#4a6c5c;}.cls-7{fill:#58806d;}.cls-8{fill:#3d5047;}.cls-9{fill:#40584d;}.cls-10{fill:#edac32;}.cls-11{fill:#fee883;}.cls-12{fill:#d0842e;}.cls-13{fill:#e52421;}.cls-14{fill:#fff;}</style></defs><g id="Capa_1" data-name="Capa 1"><polygon class="cls-1" points="0.65 339.7 0.65 533.768 115.366 600 115.366 405.932 0.65 339.7"/><polygon class="cls-2" points="115.364 405.924 284.203 308.445 169.486 242.214 0.647 339.693 115.364 405.924"/><polygon class="cls-3" points="263.05 308.445 115.363 393.712 21.8 339.693 169.486 254.425 263.05 308.445"/><path class="cls-4" d="M234.468,316.5a1.028,1.028,0,0,0,0,1.948,3.73,3.73,0,0,0,3.375,0,1.028,1.028,0,0,0,0-1.948A3.73,3.73,0,0,0,234.468,316.5Z"/><path class="cls-4" d="M225.1,311.091a1.028,1.028,0,0,0,0,1.948,3.73,3.73,0,0,0,3.375,0,1.028,1.028,0,0,0,0-1.948A3.724,3.724,0,0,0,225.1,311.091Z"/><path class="cls-4" d="M215.722,305.679a1.028,1.028,0,0,0,0,1.948,3.73,3.73,0,0,0,3.375,0,1.028,1.028,0,0,0,0-1.948A3.73,3.73,0,0,0,215.722,305.679Z"/><path class="cls-4" d="M206.349,300.267a1.029,1.029,0,0,0,0,1.949,3.73,3.73,0,0,0,3.375,0,1.029,1.029,0,0,0,0-1.949A3.737,3.737,0,0,0,206.349,300.267Z"/><path class="cls-4" d="M196.976,294.856a1.028,1.028,0,0,0,0,1.948,3.73,3.73,0,0,0,3.375,0,1.028,1.028,0,0,0,0-1.948A3.73,3.73,0,0,0,196.976,294.856Z"/><path class="cls-4" d="M187.6,289.444a1.029,1.029,0,0,0,0,1.949,3.728,3.728,0,0,0,3.374,0,1.029,1.029,0,0,0,0-1.949A3.728,3.728,0,0,0,187.6,289.444Z"/><ellipse class="cls-4" cx="179.917" cy="285.007" rx="2.386" ry="1.378"/><path class="cls-4" d="M168.857,278.621a1.028,1.028,0,0,0,0,1.948,3.728,3.728,0,0,0,3.374,0,1.028,1.028,0,0,0,0-1.948A3.728,3.728,0,0,0,168.857,278.621Z"/><path class="cls-4" d="M159.484,273.21a1.028,1.028,0,0,0,0,1.948,3.728,3.728,0,0,0,3.374,0,1.028,1.028,0,0,0,0-1.948A3.728,3.728,0,0,0,159.484,273.21Z"/><path class="cls-4" d="M220.409,319.208a1.028,1.028,0,0,0,0,1.948,3.728,3.728,0,0,0,3.374,0,1.028,1.028,0,0,0,0-1.948A3.728,3.728,0,0,0,220.409,319.208Z"/><path class="cls-4" d="M211.036,313.8a1.029,1.029,0,0,0,0,1.949,3.728,3.728,0,0,0,3.374,0,1.029,1.029,0,0,0,0-1.949A3.728,3.728,0,0,0,211.036,313.8Z"/><path class="cls-4" d="M201.663,308.385a1.028,1.028,0,0,0,0,1.948,3.728,3.728,0,0,0,3.374,0,1.028,1.028,0,0,0,0-1.948A3.728,3.728,0,0,0,201.663,308.385Z"/><path class="cls-4" d="M192.289,302.973a1.028,1.028,0,0,0,0,1.948,3.73,3.73,0,0,0,3.375,0,1.028,1.028,0,0,0,0-1.948A3.73,3.73,0,0,0,192.289,302.973Z"/><path class="cls-4" d="M182.917,297.562a1.028,1.028,0,0,0,0,1.948,3.728,3.728,0,0,0,3.374,0,1.028,1.028,0,0,0,0-1.948A3.728,3.728,0,0,0,182.917,297.562Z"/><path class="cls-4" d="M173.543,292.15a1.028,1.028,0,0,0,0,1.948,3.73,3.73,0,0,0,3.375,0,1.028,1.028,0,0,0,0-1.948A3.73,3.73,0,0,0,173.543,292.15Z"/><path class="cls-4" d="M164.17,286.739a1.028,1.028,0,0,0,0,1.948,3.73,3.73,0,0,0,3.375,0,1.028,1.028,0,0,0,0-1.948A3.724,3.724,0,0,0,164.17,286.739Z"/><path class="cls-4" d="M154.8,281.327a1.028,1.028,0,0,0,0,1.948,3.73,3.73,0,0,0,3.375,0,1.028,1.028,0,0,0,0-1.948A3.73,3.73,0,0,0,154.8,281.327Z"/><ellipse class="cls-4" cx="217.409" cy="328.299" rx="2.386" ry="1.378"/><path class="cls-4" d="M206.349,321.913a1.029,1.029,0,0,0,0,1.949,3.73,3.73,0,0,0,3.375,0,1.029,1.029,0,0,0,0-1.949A3.737,3.737,0,0,0,206.349,321.913Z"/><path class="cls-4" d="M196.976,316.5a1.028,1.028,0,0,0,0,1.948,3.73,3.73,0,0,0,3.375,0,1.028,1.028,0,0,0,0-1.948A3.73,3.73,0,0,0,196.976,316.5Z"/><path class="cls-4" d="M187.6,311.091a1.028,1.028,0,0,0,0,1.948,3.728,3.728,0,0,0,3.374,0,1.028,1.028,0,0,0,0-1.948A3.722,3.722,0,0,0,187.6,311.091Z"/><path class="cls-4" d="M178.23,305.679a1.028,1.028,0,0,0,0,1.948,3.73,3.73,0,0,0,3.375,0,1.028,1.028,0,0,0,0-1.948A3.73,3.73,0,0,0,178.23,305.679Z"/><path class="cls-4" d="M168.857,300.267a1.029,1.029,0,0,0,0,1.949,3.728,3.728,0,0,0,3.374,0,1.029,1.029,0,0,0,0-1.949A3.735,3.735,0,0,0,168.857,300.267Z"/><path class="cls-4" d="M159.484,294.856a1.028,1.028,0,0,0,0,1.948,3.728,3.728,0,0,0,3.374,0,1.028,1.028,0,0,0,0-1.948A3.728,3.728,0,0,0,159.484,294.856Z"/><path class="cls-4" d="M150.111,289.444a1.029,1.029,0,0,0,0,1.949,3.728,3.728,0,0,0,3.374,0,1.029,1.029,0,0,0,0-1.949A3.728,3.728,0,0,0,150.111,289.444Z"/><ellipse class="cls-4" cx="142.425" cy="285.007" rx="2.386" ry="1.378"/><path class="cls-4" d="M201.663,330.031a1.028,1.028,0,0,0,0,1.948,3.728,3.728,0,0,0,3.374,0,1.028,1.028,0,0,0,0-1.948A3.728,3.728,0,0,0,201.663,330.031Z"/><path class="cls-4" d="M192.289,324.619a1.029,1.029,0,0,0,0,1.949,3.73,3.73,0,0,0,3.375,0,1.029,1.029,0,0,0,0-1.949A3.73,3.73,0,0,0,192.289,324.619Z"/><path class="cls-4" d="M182.917,319.208a1.028,1.028,0,0,0,0,1.948,3.728,3.728,0,0,0,3.374,0,1.028,1.028,0,0,0,0-1.948A3.728,3.728,0,0,0,182.917,319.208Z"/><path class="cls-4" d="M173.543,313.8a1.029,1.029,0,0,0,0,1.949,3.73,3.73,0,0,0,3.375,0,1.029,1.029,0,0,0,0-1.949A3.73,3.73,0,0,0,173.543,313.8Z"/><path class="cls-4" d="M164.17,308.385a1.028,1.028,0,0,0,0,1.948,3.73,3.73,0,0,0,3.375,0,1.028,1.028,0,0,0,0-1.948A3.73,3.73,0,0,0,164.17,308.385Z"/><path class="cls-4" d="M154.8,302.973a1.028,1.028,0,0,0,0,1.948,3.73,3.73,0,0,0,3.375,0,1.028,1.028,0,0,0,0-1.948A3.73,3.73,0,0,0,154.8,302.973Z"/><path class="cls-4" d="M145.424,297.562a1.028,1.028,0,0,0,0,1.948,3.73,3.73,0,0,0,3.375,0,1.028,1.028,0,0,0,0-1.948A3.73,3.73,0,0,0,145.424,297.562Z"/><path class="cls-4" d="M136.051,292.15a1.028,1.028,0,0,0,0,1.948,3.73,3.73,0,0,0,3.375,0,1.028,1.028,0,0,0,0-1.948A3.73,3.73,0,0,0,136.051,292.15Z"/><path class="cls-4" d="M196.976,338.148a1.029,1.029,0,0,0,0,1.949,3.73,3.73,0,0,0,3.375,0,1.029,1.029,0,0,0,0-1.949A3.73,3.73,0,0,0,196.976,338.148Z"/><path class="cls-4" d="M187.6,332.737a1.028,1.028,0,0,0,0,1.948,3.728,3.728,0,0,0,3.374,0,1.028,1.028,0,0,0,0-1.948A3.728,3.728,0,0,0,187.6,332.737Z"/><ellipse class="cls-4" cx="179.917" cy="328.299" rx="2.386" ry="1.378"/><path class="cls-4" d="M168.857,321.913a1.029,1.029,0,0,0,0,1.949,3.728,3.728,0,0,0,3.374,0,1.029,1.029,0,0,0,0-1.949A3.735,3.735,0,0,0,168.857,321.913Z"/><path class="cls-4" d="M159.484,316.5a1.028,1.028,0,0,0,0,1.948,3.728,3.728,0,0,0,3.374,0,1.028,1.028,0,0,0,0-1.948A3.728,3.728,0,0,0,159.484,316.5Z"/><path class="cls-4" d="M150.111,311.091a1.028,1.028,0,0,0,0,1.948,3.728,3.728,0,0,0,3.374,0,1.028,1.028,0,0,0,0-1.948A3.722,3.722,0,0,0,150.111,311.091Z"/><path class="cls-4" d="M140.738,305.679a1.028,1.028,0,0,0,0,1.948,3.728,3.728,0,0,0,3.374,0,1.028,1.028,0,0,0,0-1.948A3.728,3.728,0,0,0,140.738,305.679Z"/><path class="cls-4" d="M131.365,300.267a1.029,1.029,0,0,0,0,1.949,3.728,3.728,0,0,0,3.374,0,1.029,1.029,0,0,0,0-1.949A3.728,3.728,0,0,0,131.365,300.267Z"/><path class="cls-4" d="M121.991,294.856a1.028,1.028,0,0,0,0,1.948,3.73,3.73,0,0,0,3.375,0,1.028,1.028,0,0,0,0-1.948A3.73,3.73,0,0,0,121.991,294.856Z"/><path class="cls-4" d="M182.917,340.854a1.028,1.028,0,0,0,0,1.948,3.728,3.728,0,0,0,3.374,0,1.028,1.028,0,0,0,0-1.948A3.728,3.728,0,0,0,182.917,340.854Z"/><path class="cls-4" d="M173.543,335.443a1.028,1.028,0,0,0,0,1.948,3.73,3.73,0,0,0,3.375,0,1.028,1.028,0,0,0,0-1.948A3.724,3.724,0,0,0,173.543,335.443Z"/><path class="cls-4" d="M164.17,330.031a1.028,1.028,0,0,0,0,1.948,3.73,3.73,0,0,0,3.375,0,1.028,1.028,0,0,0,0-1.948A3.73,3.73,0,0,0,164.17,330.031Z"/><path class="cls-4" d="M154.8,324.619a1.029,1.029,0,0,0,0,1.949,3.73,3.73,0,0,0,3.375,0,1.029,1.029,0,0,0,0-1.949A3.73,3.73,0,0,0,154.8,324.619Z"/><path class="cls-4" d="M145.424,319.208a1.028,1.028,0,0,0,0,1.948,3.73,3.73,0,0,0,3.375,0,1.028,1.028,0,0,0,0-1.948A3.73,3.73,0,0,0,145.424,319.208Z"/><path class="cls-4" d="M136.051,313.8a1.029,1.029,0,0,0,0,1.949,3.73,3.73,0,0,0,3.375,0,1.029,1.029,0,0,0,0-1.949A3.73,3.73,0,0,0,136.051,313.8Z"/><path class="cls-4" d="M126.678,308.385a1.028,1.028,0,0,0,0,1.948,3.73,3.73,0,0,0,3.375,0,1.028,1.028,0,0,0,0-1.948A3.73,3.73,0,0,0,126.678,308.385Z"/><path class="cls-4" d="M117.305,302.973a1.028,1.028,0,0,0,0,1.948,3.728,3.728,0,0,0,3.374,0,1.028,1.028,0,0,0,0-1.948A3.728,3.728,0,0,0,117.305,302.973Z"/><path class="cls-4" d="M178.23,348.971a1.029,1.029,0,0,0,0,1.949,3.73,3.73,0,0,0,3.375,0,1.029,1.029,0,0,0,0-1.949A3.73,3.73,0,0,0,178.23,348.971Z"/><path class="cls-4" d="M168.857,343.56a1.028,1.028,0,0,0,0,1.948,3.728,3.728,0,0,0,3.374,0,1.028,1.028,0,0,0,0-1.948A3.728,3.728,0,0,0,168.857,343.56Z"/><path class="cls-4" d="M159.484,338.148a1.029,1.029,0,0,0,0,1.949,3.728,3.728,0,0,0,3.374,0,1.029,1.029,0,0,0,0-1.949A3.728,3.728,0,0,0,159.484,338.148Z"/><path class="cls-4" d="M150.111,332.737a1.028,1.028,0,0,0,0,1.948,3.728,3.728,0,0,0,3.374,0,1.028,1.028,0,0,0,0-1.948A3.728,3.728,0,0,0,150.111,332.737Z"/><ellipse class="cls-4" cx="142.425" cy="328.299" rx="2.386" ry="1.378"/><path class="cls-4" d="M131.365,321.913a1.029,1.029,0,0,0,0,1.949,3.728,3.728,0,0,0,3.374,0,1.029,1.029,0,0,0,0-1.949A3.735,3.735,0,0,0,131.365,321.913Z"/><path class="cls-4" d="M121.991,316.5a1.028,1.028,0,0,0,0,1.948,3.73,3.73,0,0,0,3.375,0,1.028,1.028,0,0,0,0-1.948A3.73,3.73,0,0,0,121.991,316.5Z"/><path class="cls-4" d="M112.618,311.091a1.028,1.028,0,0,0,0,1.948,3.73,3.73,0,0,0,3.375,0,1.028,1.028,0,0,0,0-1.948A3.724,3.724,0,0,0,112.618,311.091Z"/><path class="cls-4" d="M103.245,305.679a1.028,1.028,0,0,0,0,1.948,3.73,3.73,0,0,0,3.375,0,1.028,1.028,0,0,0,0-1.948A3.73,3.73,0,0,0,103.245,305.679Z"/><ellipse class="cls-4" cx="165.858" cy="352.651" rx="2.386" ry="1.378"/><path class="cls-4" d="M154.8,346.265a1.029,1.029,0,0,0,0,1.949,3.73,3.73,0,0,0,3.375,0,1.029,1.029,0,0,0,0-1.949A3.737,3.737,0,0,0,154.8,346.265Z"/><path class="cls-4" d="M145.424,340.854a1.028,1.028,0,0,0,0,1.948,3.73,3.73,0,0,0,3.375,0,1.028,1.028,0,0,0,0-1.948A3.73,3.73,0,0,0,145.424,340.854Z"/><path class="cls-4" d="M136.051,335.443a1.028,1.028,0,0,0,0,1.948,3.73,3.73,0,0,0,3.375,0,1.028,1.028,0,0,0,0-1.948A3.724,3.724,0,0,0,136.051,335.443Z"/><path class="cls-4" d="M126.678,330.031a1.028,1.028,0,0,0,0,1.948,3.73,3.73,0,0,0,3.375,0,1.028,1.028,0,0,0,0-1.948A3.73,3.73,0,0,0,126.678,330.031Z"/><path class="cls-4" d="M117.305,324.619a1.029,1.029,0,0,0,0,1.949,3.728,3.728,0,0,0,3.374,0,1.029,1.029,0,0,0,0-1.949A3.728,3.728,0,0,0,117.305,324.619Z"/><path class="cls-4" d="M107.932,319.208a1.028,1.028,0,0,0,0,1.948,3.73,3.73,0,0,0,3.375,0,1.028,1.028,0,0,0,0-1.948A3.73,3.73,0,0,0,107.932,319.208Z"/><path class="cls-4" d="M98.559,313.8a1.029,1.029,0,0,0,0,1.949,3.728,3.728,0,0,0,3.374,0,1.029,1.029,0,0,0,0-1.949A3.728,3.728,0,0,0,98.559,313.8Z"/><path class="cls-4" d="M159.484,359.794a1.029,1.029,0,0,0,0,1.949,3.728,3.728,0,0,0,3.374,0,1.029,1.029,0,0,0,0-1.949A3.728,3.728,0,0,0,159.484,359.794Z"/><path class="cls-4" d="M150.111,354.383a1.028,1.028,0,0,0,0,1.948,3.728,3.728,0,0,0,3.374,0,1.028,1.028,0,0,0,0-1.948A3.728,3.728,0,0,0,150.111,354.383Z"/><path class="cls-4" d="M140.738,348.971a1.029,1.029,0,0,0,0,1.949,3.728,3.728,0,0,0,3.374,0,1.029,1.029,0,0,0,0-1.949A3.728,3.728,0,0,0,140.738,348.971Z"/><ellipse class="cls-4" cx="133.052" cy="344.534" rx="2.386" ry="1.378"/><path class="cls-4" d="M121.991,338.148a1.029,1.029,0,0,0,0,1.949,3.73,3.73,0,0,0,3.375,0,1.029,1.029,0,0,0,0-1.949A3.73,3.73,0,0,0,121.991,338.148Z"/><path class="cls-4" d="M112.618,332.737a1.028,1.028,0,0,0,0,1.948,3.73,3.73,0,0,0,3.375,0,1.028,1.028,0,0,0,0-1.948A3.73,3.73,0,0,0,112.618,332.737Z"/><ellipse class="cls-4" cx="104.933" cy="328.299" rx="2.386" ry="1.378"/><path class="cls-4" d="M93.872,321.913a1.029,1.029,0,0,0,0,1.949,3.73,3.73,0,0,0,3.375,0,1.029,1.029,0,0,0,0-1.949A3.737,3.737,0,0,0,93.872,321.913Z"/><path class="cls-4" d="M84.5,316.5a1.028,1.028,0,0,0,0,1.948,3.73,3.73,0,0,0,3.375,0,1.028,1.028,0,0,0,0-1.948A3.73,3.73,0,0,0,84.5,316.5Z"/><path class="cls-4" d="M145.424,362.5a1.028,1.028,0,0,0,0,1.948,3.724,3.724,0,0,0,3.375,0,1.028,1.028,0,0,0,0-1.948A3.73,3.73,0,0,0,145.424,362.5Z"/><path class="cls-4" d="M136.051,357.089a1.028,1.028,0,0,0,0,1.948,3.73,3.73,0,0,0,3.375,0,1.028,1.028,0,0,0,0-1.948A3.73,3.73,0,0,0,136.051,357.089Z"/><ellipse class="cls-4" cx="128.365" cy="352.651" rx="2.386" ry="1.378"/><path class="cls-4" d="M117.305,346.265a1.029,1.029,0,0,0,0,1.949,3.728,3.728,0,0,0,3.374,0,1.029,1.029,0,0,0,0-1.949A3.735,3.735,0,0,0,117.305,346.265Z"/><path class="cls-4" d="M107.932,340.854a1.028,1.028,0,0,0,0,1.948,3.728,3.728,0,0,0,3.374,0,1.028,1.028,0,0,0,0-1.948A3.728,3.728,0,0,0,107.932,340.854Z"/><ellipse class="cls-4" cx="100.246" cy="336.417" rx="2.386" ry="1.378"/><path class="cls-4" d="M89.186,330.031a1.028,1.028,0,0,0,0,1.948,3.728,3.728,0,0,0,3.374,0,1.028,1.028,0,0,0,0-1.948A3.728,3.728,0,0,0,89.186,330.031Z"/><path class="cls-4" d="M79.813,324.619a1.029,1.029,0,0,0,0,1.949,3.728,3.728,0,0,0,3.374,0,1.029,1.029,0,0,0,0-1.949A3.728,3.728,0,0,0,79.813,324.619Z"/><path class="cls-4" d="M140.738,370.617a1.029,1.029,0,0,0,0,1.949,3.728,3.728,0,0,0,3.374,0,1.029,1.029,0,0,0,0-1.949A3.735,3.735,0,0,0,140.738,370.617Z"/><path class="cls-4" d="M131.365,365.206a1.028,1.028,0,0,0,0,1.948,3.728,3.728,0,0,0,3.374,0,1.028,1.028,0,0,0,0-1.948A3.728,3.728,0,0,0,131.365,365.206Z"/><ellipse class="cls-4" cx="123.679" cy="360.769" rx="2.386" ry="1.378"/><path class="cls-4" d="M112.618,354.383a1.028,1.028,0,0,0,0,1.948,3.73,3.73,0,0,0,3.375,0,1.028,1.028,0,0,0,0-1.948A3.73,3.73,0,0,0,112.618,354.383Z"/><path class="cls-4" d="M103.245,348.971a1.029,1.029,0,0,0,0,1.949,3.73,3.73,0,0,0,3.375,0,1.029,1.029,0,0,0,0-1.949A3.73,3.73,0,0,0,103.245,348.971Z"/><path class="cls-4" d="M93.872,343.56a1.028,1.028,0,0,0,0,1.948,3.73,3.73,0,0,0,3.375,0,1.028,1.028,0,0,0,0-1.948A3.73,3.73,0,0,0,93.872,343.56Z"/><path class="cls-4" d="M84.5,338.148a1.029,1.029,0,0,0,0,1.949,3.73,3.73,0,0,0,3.375,0,1.029,1.029,0,0,0,0-1.949A3.73,3.73,0,0,0,84.5,338.148Z"/><path class="cls-4" d="M75.126,332.737a1.028,1.028,0,0,0,0,1.948,3.73,3.73,0,0,0,3.375,0,1.028,1.028,0,0,0,0-1.948A3.73,3.73,0,0,0,75.126,332.737Z"/><ellipse class="cls-4" cx="67.44" cy="328.299" rx="2.386" ry="1.378"/><path class="cls-4" d="M126.678,373.323a1.029,1.029,0,0,0,0,1.949,3.73,3.73,0,0,0,3.375,0,1.029,1.029,0,0,0,0-1.949A3.73,3.73,0,0,0,126.678,373.323Z"/><ellipse class="cls-4" cx="118.992" cy="368.886" rx="2.386" ry="1.378"/><path class="cls-4" d="M107.932,362.5a1.028,1.028,0,0,0,0,1.948,3.722,3.722,0,0,0,3.374,0,1.028,1.028,0,0,0,0-1.948A3.728,3.728,0,0,0,107.932,362.5Z"/><path class="cls-4" d="M98.559,357.089a1.028,1.028,0,0,0,0,1.948,3.728,3.728,0,0,0,3.374,0,1.028,1.028,0,0,0,0-1.948A3.728,3.728,0,0,0,98.559,357.089Z"/><ellipse class="cls-4" cx="90.873" cy="352.651" rx="2.386" ry="1.378"/><path class="cls-4" d="M79.813,346.265a1.029,1.029,0,0,0,0,1.949,3.728,3.728,0,0,0,3.374,0,1.029,1.029,0,0,0,0-1.949A3.735,3.735,0,0,0,79.813,346.265Z"/><path class="cls-4" d="M70.44,340.854a1.028,1.028,0,0,0,0,1.948,3.728,3.728,0,0,0,3.374,0,1.028,1.028,0,0,0,0-1.948A3.728,3.728,0,0,0,70.44,340.854Z"/><ellipse class="cls-4" cx="62.754" cy="336.417" rx="2.386" ry="1.378"/><path class="cls-4" d="M121.991,381.441a1.028,1.028,0,0,0,0,1.948,3.73,3.73,0,0,0,3.375,0,1.028,1.028,0,0,0,0-1.948A3.73,3.73,0,0,0,121.991,381.441Z"/><ellipse class="cls-4" cx="114.306" cy="377.003" rx="2.386" ry="1.378"/><path class="cls-4" d="M103.245,370.617a1.029,1.029,0,0,0,0,1.949,3.73,3.73,0,0,0,3.375,0,1.029,1.029,0,0,0,0-1.949A3.737,3.737,0,0,0,103.245,370.617Z"/><path class="cls-4" d="M93.872,365.206a1.028,1.028,0,0,0,0,1.948,3.73,3.73,0,0,0,3.375,0,1.028,1.028,0,0,0,0-1.948A3.73,3.73,0,0,0,93.872,365.206Z"/><ellipse class="cls-4" cx="86.186" cy="360.769" rx="2.386" ry="1.378"/><path class="cls-4" d="M75.126,354.383a1.028,1.028,0,0,0,0,1.948,3.73,3.73,0,0,0,3.375,0,1.028,1.028,0,0,0,0-1.948A3.73,3.73,0,0,0,75.126,354.383Z"/><path class="cls-4" d="M65.753,348.971a1.029,1.029,0,0,0,0,1.949,3.73,3.73,0,0,0,3.375,0,1.029,1.029,0,0,0,0-1.949A3.73,3.73,0,0,0,65.753,348.971Z"/><ellipse class="cls-4" cx="58.067" cy="344.534" rx="2.386" ry="1.378"/><path class="cls-4" d="M47.007,338.148a1.029,1.029,0,0,0,0,1.949,3.728,3.728,0,0,0,3.374,0,1.029,1.029,0,0,0,0-1.949A3.728,3.728,0,0,0,47.007,338.148Z"/><polygon class="cls-4" points="169.486 258.655 25.463 341.808 21.8 339.693 169.486 254.425 263.05 308.445 259.387 310.56 169.486 258.655"/><polygon class="cls-1" points="169.486 254.425 169.486 258.655 259.387 310.56 263.05 308.445 169.486 254.425"/><path class="cls-4" d="M115.364,405.921V599.989L284.2,502.509V308.441Z"/><path class="cls-1" d="M139.165,566.6a15.963,15.963,0,0,1-7.24,12.5c-4,2.308-7.239.454-7.239-4.141a15.964,15.964,0,0,1,7.239-12.5C135.924,560.155,139.165,562.009,139.165,566.6Z"/><path class="cls-5" d="M137.194,567.742a11.615,11.615,0,0,1-5.269,9.1c-2.909,1.68-5.268.331-5.268-3.013a11.62,11.62,0,0,1,5.268-9.1C134.835,563.048,137.194,564.4,137.194,567.742Z"/><path class="cls-2" d="M131.926,564.728a8.479,8.479,0,0,0-1.347,1c.149-.105.294-.222.447-.311,2.314-1.335,4.19-.262,4.19,2.4a9.24,9.24,0,0,1-4.19,7.234c-2.314,1.336-4.19.263-4.19-2.4a6.158,6.158,0,0,1,.055-.654,8.549,8.549,0,0,0-.234,1.824c0,3.345,2.359,4.694,5.269,3.014a11.618,11.618,0,0,0,5.268-9.1C137.194,564.4,134.835,563.048,131.926,564.728Z"/><path class="cls-1" d="M280.279,485.14a15.964,15.964,0,0,1-7.239,12.5c-4,2.308-7.239.454-7.239-4.141A15.966,15.966,0,0,1,273.04,481C277.038,478.69,280.279,480.544,280.279,485.14Z"/><path class="cls-5" d="M278.308,486.278a11.62,11.62,0,0,1-5.268,9.1c-2.91,1.68-5.269.33-5.269-3.014a11.618,11.618,0,0,1,5.269-9.1C275.949,481.584,278.308,482.933,278.308,486.278Z"/><path class="cls-2" d="M273.04,483.264a8.471,8.471,0,0,0-1.347,1c.149-.1.294-.221.448-.31,2.313-1.336,4.189-.263,4.189,2.4a9.238,9.238,0,0,1-4.189,7.234c-2.314,1.336-4.19.263-4.19-2.4a6.4,6.4,0,0,1,.054-.654,8.533,8.533,0,0,0-.234,1.824c0,3.344,2.359,4.694,5.269,3.014a11.62,11.62,0,0,0,5.268-9.1C278.308,482.933,275.949,481.584,273.04,483.264Z"/><path class="cls-1" d="M139.165,411.346a15.963,15.963,0,0,1-7.24,12.5c-4,2.309-7.239.454-7.239-4.141a15.966,15.966,0,0,1,7.239-12.5C135.924,404.9,139.165,406.75,139.165,411.346Z"/><path class="cls-5" d="M137.194,412.484a11.618,11.618,0,0,1-5.269,9.1c-2.909,1.68-5.268.33-5.268-3.014a11.62,11.62,0,0,1,5.268-9.1C134.835,407.79,137.194,409.139,137.194,412.484Z"/><path class="cls-2" d="M131.926,409.47a8.411,8.411,0,0,0-1.347,1c.149-.1.294-.222.447-.31,2.314-1.336,4.19-.263,4.19,2.4a9.243,9.243,0,0,1-4.19,7.235c-2.314,1.335-4.19.262-4.19-2.4a6.136,6.136,0,0,1,.055-.654,8.533,8.533,0,0,0-.234,1.824c0,3.344,2.359,4.694,5.269,3.014a11.62,11.62,0,0,0,5.268-9.1C137.194,409.139,134.835,407.79,131.926,409.47Z"/><path class="cls-1" d="M280.279,329.881a15.966,15.966,0,0,1-7.239,12.5c-4,2.308-7.239.454-7.239-4.142a15.964,15.964,0,0,1,7.239-12.5C277.038,323.431,280.279,325.286,280.279,329.881Z"/><path class="cls-5" d="M278.308,331.019a11.62,11.62,0,0,1-5.268,9.1c-2.91,1.68-5.269.331-5.269-3.013a11.619,11.619,0,0,1,5.269-9.1C275.949,326.325,278.308,327.675,278.308,331.019Z"/><path class="cls-2" d="M273.04,328.005a8.479,8.479,0,0,0-1.347,1c.149-.1.294-.222.448-.311,2.313-1.335,4.189-.262,4.189,2.4a9.241,9.241,0,0,1-4.189,7.235c-2.314,1.336-4.19.263-4.19-2.4a6.427,6.427,0,0,1,.054-.654,8.549,8.549,0,0,0-.234,1.824c0,3.345,2.359,4.694,5.269,3.014a11.62,11.62,0,0,0,5.268-9.1C278.308,327.675,275.949,326.325,273.04,328.005Z"/><path class="cls-2" d="M8.3,483.8V520.87a5.225,5.225,0,0,0,2.369,4.091L36.6,539.932l40.408,23.329c1.308.755,2.369.148,2.369-1.355V524.839a5.228,5.228,0,0,0-2.369-4.091L36.6,497.419l-25.93-14.971C9.363,481.693,8.3,482.3,8.3,483.8Zm4.738,37.079v-31.62L34.232,501.5v31.62Z"/><path class="cls-4" d="M50,514.582l-7.323,4.19a1.045,1.045,0,0,0-.438.961V532.54a3.294,3.294,0,0,0,1.494,2.58l26.154,15.1c.825.476,1.494.094,1.494-.855V536.558a3.032,3.032,0,0,0-.438-1.467l-7.324-12.646a3.055,3.055,0,0,0-1.056-1.113l-11.506-6.643A1.06,1.06,0,0,0,50,514.582Z"/><path class="cls-5" d="M63.614,522.445a3.055,3.055,0,0,0-1.056-1.113l-11.506-6.643A1.058,1.058,0,0,0,50,514.582l-.6.344a1.069,1.069,0,0,0-.375.89v12.807a3.291,3.291,0,0,0,1.494,2.58l20.863,12.046v-6.691a3.032,3.032,0,0,0-.438-1.467Z"/><path class="cls-4" d="M35.08,500.028,13.889,487.793a1.7,1.7,0,0,0-2.544,1.469v31.621a1.7,1.7,0,0,0,.848,1.469l21.191,12.235a1.7,1.7,0,0,0,2.544-1.469V501.5A1.7,1.7,0,0,0,35.08,500.028Z"/><polygon class="cls-6" points="33.344 502.3 33.344 531.291 13.929 520.081 13.929 491.091 33.344 502.3"/><polygon class="cls-7" points="26.56 506.217 7.145 495.007 13.929 491.091 33.344 502.3 26.56 506.217"/><polygon class="cls-8" points="33.344 516.795 13.929 505.586 7.145 495.007 26.56 506.217 33.344 516.795"/><polygon class="cls-9" points="26.56 506.217 33.344 516.795 33.344 502.3 26.56 506.217"/><polygon class="cls-10" points="52.239 533.679 49.048 531.837 49.048 525.387 52.239 527.229 52.239 533.679"/><polygon class="cls-11" points="55.832 521.47 49.048 525.387 52.239 527.229 59.023 523.312 55.832 521.47"/><polygon class="cls-12" points="52.239 533.679 59.023 529.763 59.023 523.312 52.239 527.229 52.239 533.679"/><polygon class="cls-10" points="58.401 531.736 55.21 529.894 55.21 523.443 58.401 525.286 58.401 531.736"/><path class="cls-11" d="M65.185,527.819v-2.663l-1.571-2.711a3.055,3.055,0,0,0-1.056-1.113l-1.846-1.066-5.5,3.177,3.191,1.843Z"/><path class="cls-12" d="M65.185,525.156l-1.571-2.711c-.025-.044-.06-.076-.087-.119l-5.126,2.96v6.45l6.784-3.917Z"/><polygon class="cls-10" points="64.562 540.794 61.371 538.952 61.371 532.502 64.562 534.344 64.562 540.794"/><polygon class="cls-11" points="67.417 529.011 61.371 532.502 64.562 534.344 69.016 531.773 67.417 529.011"/><path class="cls-12" d="M71.347,536.374a3.1,3.1,0,0,0-.409-1.283l-1.922-3.318-4.454,2.571v6.45l6.785-3.917Z"/><path class="cls-4" d="M8.26,370.889c-.616-.356-1.115-.071-1.115.638V443.59a2.458,2.458,0,0,0,1.115,1.926c.616.356,1.116.07,1.116-.638V372.815A2.459,2.459,0,0,0,8.26,370.889Z"/><path class="cls-4" d="M11.779,372.92c-.616-.356-1.116-.07-1.116.638v72.063a2.461,2.461,0,0,0,1.116,1.927c.616.356,1.115.07,1.115-.638V374.846A2.46,2.46,0,0,0,11.779,372.92Z"/><path class="cls-4" d="M15.3,374.951c-.616-.356-1.115-.07-1.115.638v72.064a2.46,2.46,0,0,0,1.115,1.926c.616.356,1.116.07,1.116-.638V376.878A2.461,2.461,0,0,0,15.3,374.951Z"/><path class="cls-4" d="M18.815,376.982c-.616-.355-1.115-.07-1.115.639v72.063a2.458,2.458,0,0,0,1.115,1.926c.616.356,1.116.07,1.116-.638V378.909A2.463,2.463,0,0,0,18.815,376.982Z"/><path class="cls-4" d="M22.334,379.014c-.617-.356-1.116-.07-1.116.638v72.063a2.459,2.459,0,0,0,1.116,1.927c.616.355,1.115.07,1.115-.639V380.94A2.458,2.458,0,0,0,22.334,379.014Z"/><path class="cls-4" d="M25.852,381.045c-.616-.356-1.116-.07-1.116.638v72.064a2.461,2.461,0,0,0,1.116,1.926c.616.356,1.116.07,1.116-.638V382.971A2.461,2.461,0,0,0,25.852,381.045Z"/><path class="cls-4" d="M29.37,383.076c-.616-.356-1.115-.07-1.115.639v72.063A2.458,2.458,0,0,0,29.37,457.7c.616.356,1.116.07,1.116-.638V385A2.461,2.461,0,0,0,29.37,383.076Z"/><path class="cls-4" d="M32.888,385.108c-.616-.356-1.115-.07-1.115.638v72.063a2.457,2.457,0,0,0,1.115,1.926c.617.356,1.116.071,1.116-.638V387.034A2.457,2.457,0,0,0,32.888,385.108Z"/><path class="cls-4" d="M36.407,387.139c-.616-.356-1.116-.07-1.116.638v72.064a2.461,2.461,0,0,0,1.116,1.926c.616.356,1.115.07,1.115-.639V389.065A2.458,2.458,0,0,0,36.407,387.139Z"/><path class="cls-4" d="M39.925,389.17c-.616-.356-1.115-.07-1.115.638v72.064a2.46,2.46,0,0,0,1.115,1.926c.616.356,1.116.07,1.116-.638V391.1A2.461,2.461,0,0,0,39.925,389.17Z"/><path class="cls-4" d="M43.443,391.2c-.616-.355-1.115-.07-1.115.639V463.9a2.458,2.458,0,0,0,1.115,1.926c.616.356,1.116.07,1.116-.638V393.128A2.463,2.463,0,0,0,43.443,391.2Z"/></g><g id="arrow_event_critycal"><circle id="Encendido2" class="cls-13" cx="167.234" cy="189.518" r="32.665"/><path class="cls-14" d="M191.064,205.266a.274.274,0,0,1-.289.288h-5.869a.242.242,0,0,1-.176-.08.279.279,0,0,1-.08-.208v-26.3h-3.528a2.737,2.737,0,0,0-2.6,1.86l-8.66,24.536a.252.252,0,0,1-.257.192h-4.778a.289.289,0,0,1-.257-.192l-8.627-24.536a2.777,2.777,0,0,0-2.6-1.86h-3.528v26.3a.274.274,0,0,1-.289.288h-5.869a.245.245,0,0,1-.177-.08.283.283,0,0,1-.08-.208v-31.5a.283.283,0,0,1,.08-.208.245.245,0,0,1,.177-.08h11.8a6.272,6.272,0,0,1,.642.032,5.942,5.942,0,0,1,3.191,1.379,6.552,6.552,0,0,1,1.973,2.919l5.965,17.062,5.934-17.062a6.891,6.891,0,0,1,2-2.935,5.7,5.7,0,0,1,3.191-1.363,5.959,5.959,0,0,1,.61-.032h11.8a.274.274,0,0,1,.289.288Z"/></g></svg>