<svg xmlns="http://www.w3.org/2000/svg" xmlns:xlink="http://www.w3.org/1999/xlink" viewBox="0 0 497.843 600"><defs><style>.cls-1{isolation:isolate;}.cls-18,.cls-2{mix-blend-mode:multiply;}.cls-2{opacity:0.1;}.cls-3{fill:url(#linear-gradient);}.cls-4{fill:url(#linear-gradient-2);}.cls-5{fill:url(#linear-gradient-3);}.cls-6{fill:url(#linear-gradient-4);}.cls-7{fill:#adb4b8;}.cls-8{fill:url(#linear-gradient-5);}.cls-9{fill:url(#linear-gradient-6);}.cls-10{fill:url(#radial-gradient);}.cls-11{fill:url(#linear-gradient-7);}.cls-12{fill:#2e383b;}.cls-13{fill:url(#linear-gradient-8);}.cls-14{fill:url(#linear-gradient-9);}.cls-15{fill:#f7fafb;}.cls-16{fill:#c4c6c9;}.cls-17{fill:#d0d3d5;}.cls-18{opacity:0.2;}.cls-19{fill:url(#linear-gradient-10);}.cls-20{fill:url(#linear-gradient-11);}.cls-21{fill:url(#linear-gradient-12);}.cls-22{fill:url(#radial-gradient-2);}.cls-23{fill:url(#linear-gradient-13);}.cls-24{fill:url(#linear-gradient-14);}.cls-25{fill:url(#linear-gradient-15);}.cls-26{fill:url(#linear-gradient-16);}.cls-27{fill:url(#linear-gradient-17);}.cls-28{fill:url(#linear-gradient-18);}.cls-29{fill:url(#radial-gradient-3);}.cls-30{fill:url(#linear-gradient-19);}.cls-31{fill:url(#linear-gradient-20);}.cls-32{fill:url(#linear-gradient-21);}.cls-33{fill:url(#linear-gradient-22);}.cls-34{fill:url(#linear-gradient-23);}.cls-35{fill:url(#linear-gradient-24);}.cls-36{fill:url(#radial-gradient-4);}.cls-37{fill:url(#linear-gradient-25);}.cls-38{fill:url(#linear-gradient-26);}.cls-39{fill:url(#linear-gradient-27);}.cls-40{fill:url(#linear-gradient-28);}.cls-41{fill:url(#linear-gradient-29);}.cls-42{fill:url(#linear-gradient-30);}.cls-43{fill:url(#radial-gradient-5);}.cls-44{fill:url(#linear-gradient-31);}.cls-45{fill:url(#linear-gradient-32);}.cls-46{fill:url(#linear-gradient-33);}.cls-47{fill:url(#linear-gradient-34);}.cls-48{fill:url(#linear-gradient-35);}.cls-49{fill:url(#linear-gradient-36);}.cls-50{fill:url(#linear-gradient-37);}.cls-51{fill:url(#linear-gradient-38);}.cls-52{fill:url(#linear-gradient-39);}.cls-53{fill:url(#linear-gradient-40);}.cls-54{fill:url(#linear-gradient-41);}.cls-55{fill:url(#linear-gradient-42);}.cls-56{fill:url(#linear-gradient-43);}.cls-57{fill:url(#linear-gradient-44);}.cls-58{fill:url(#linear-gradient-45);}.cls-59{fill:url(#linear-gradient-46);}.cls-60{fill:url(#radial-gradient-6);}.cls-61{fill:url(#linear-gradient-47);}.cls-62{fill:url(#linear-gradient-48);}.cls-63{fill:url(#linear-gradient-49);}.cls-64{fill:url(#linear-gradient-50);}.cls-65{fill:url(#linear-gradient-51);}.cls-66{fill:url(#linear-gradient-52);}.cls-67{fill:url(#radial-gradient-7);}.cls-68{fill:url(#linear-gradient-53);}.cls-69{fill:url(#linear-gradient-54);}.cls-70{fill:url(#linear-gradient-55);}.cls-71{fill:url(#linear-gradient-56);}.cls-72{fill:url(#linear-gradient-57);}.cls-73{fill:url(#linear-gradient-58);}.cls-74{fill:url(#radial-gradient-8);}.cls-75{fill:url(#linear-gradient-59);}.cls-76{fill:url(#linear-gradient-60);}.cls-77{fill:url(#linear-gradient-61);}.cls-78{fill:url(#linear-gradient-62);}.cls-79{fill:url(#linear-gradient-63);}.cls-80{fill:url(#linear-gradient-64);}.cls-81{fill:url(#radial-gradient-9);}.cls-82{fill:url(#linear-gradient-65);}.cls-83{fill:url(#linear-gradient-66);}.cls-84{fill:url(#linear-gradient-67);}.cls-85{fill:url(#linear-gradient-68);}.cls-86{fill:url(#linear-gradient-69);}.cls-87{fill:url(#linear-gradient-70);}.cls-88{fill:url(#radial-gradient-10);}.cls-89{fill:url(#linear-gradient-71);}.cls-90{fill:url(#linear-gradient-72);}.cls-91{fill:url(#linear-gradient-73);}.cls-92{fill:url(#linear-gradient-74);}.cls-93{fill:url(#linear-gradient-75);}.cls-94{fill:#584a44;}.cls-95{fill:#090909;}.cls-96{fill:#362d2a;}.cls-97{fill:#0a0b0b;}.cls-98{fill:#82cdde;}.cls-99{fill:#383838;}</style><linearGradient id="linear-gradient" x1="26.913" y1="318.743" x2="23.762" y2="324.201" gradientUnits="userSpaceOnUse"><stop offset="0" stop-color="#fdfdfe"/><stop offset="0.187" stop-color="#f6f6f7"/><stop offset="0.467" stop-color="#e1e3e4"/><stop offset="0.805" stop-color="#c0c3c5"/><stop offset="1" stop-color="#a9aeb0"/></linearGradient><linearGradient id="linear-gradient-2" x1="237.248" y1="410.807" x2="230.428" y2="410.807" gradientUnits="userSpaceOnUse"><stop offset="0" stop-color="#dee1e3"/><stop offset="1" stop-color="#c9cfd3"/></linearGradient><linearGradient id="linear-gradient-3" x1="137.374" y1="396.752" x2="158.594" y2="361.557" gradientUnits="userSpaceOnUse"><stop offset="0" stop-color="#fdfdfe"/><stop offset="0.317" stop-color="#f6f7f8"/><stop offset="0.793" stop-color="#e1e5e8"/><stop offset="1" stop-color="#d6dcdf"/></linearGradient><linearGradient id="linear-gradient-4" x1="238.096" y1="398.388" x2="230.584" y2="398.388" xlink:href="#linear-gradient-2"/><linearGradient id="linear-gradient-5" x1="75.711" y1="289.322" x2="264.4" y2="534.781" xlink:href="#linear-gradient-3"/><linearGradient id="linear-gradient-6" x1="101.097" y1="344.062" x2="101.097" y2="365.509" gradientUnits="userSpaceOnUse"><stop offset="0" stop-color="#fdfdfe"/><stop offset="0.156" stop-color="#f6f7f8"/><stop offset="0.23" stop-color="#f0f2f4"/><stop offset="1" stop-color="#d6dcdf"/></linearGradient><radialGradient id="radial-gradient" cx="101.313" cy="341.775" r="28.607" gradientUnits="userSpaceOnUse"><stop offset="0.662" stop-color="#d8d9db"/><stop offset="0.888" stop-color="#b5babe"/><stop offset="1" stop-color="#5c5e5f"/></radialGradient><linearGradient id="linear-gradient-7" x1="-9099.236" y1="4439.62" x2="-9099.236" y2="4435.06" gradientTransform="translate(-9475.486 -2938.815) rotate(-135)" gradientUnits="userSpaceOnUse"><stop offset="0" stop-color="#fff"/><stop offset="0.218" stop-color="#f8f8f8"/><stop offset="0.546" stop-color="#e3e5e6"/><stop offset="0.941" stop-color="#c2c6c9"/><stop offset="1" stop-color="#bcc1c4"/></linearGradient><linearGradient id="linear-gradient-8" x1="106.122" y1="364.39" x2="106.122" y2="361.46" gradientTransform="matrix(1, 0, 0, 1, 0, 0)" xlink:href="#linear-gradient-7"/><linearGradient id="linear-gradient-9" x1="83.578" y1="351.207" x2="121.974" y2="351.207" gradientUnits="userSpaceOnUse"><stop offset="0" stop-color="#efeff0"/><stop offset="0.193" stop-color="#e8e8e9"/><stop offset="0.483" stop-color="#d3d5d7"/><stop offset="0.832" stop-color="#b2b5b9"/><stop offset="1" stop-color="#9fa4a8"/></linearGradient><linearGradient id="linear-gradient-10" x1="114.501" y1="348.713" x2="111.799" y2="353.393" gradientUnits="userSpaceOnUse"><stop offset="0" stop-color="#656d72"/><stop offset="0.031" stop-color="#899195"/><stop offset="0.067" stop-color="#aab1b4"/><stop offset="0.105" stop-color="#c5ccce"/><stop offset="0.146" stop-color="#dae0e2"/><stop offset="0.192" stop-color="#e9eff0"/><stop offset="0.247" stop-color="#f1f7f8"/><stop offset="0.332" stop-color="#f4fafb"/><stop offset="0.357" stop-color="#dfe4e5"/><stop offset="0.415" stop-color="#b6b9ba"/><stop offset="0.473" stop-color="#949696"/><stop offset="0.531" stop-color="#797a7b"/><stop offset="0.59" stop-color="#666767"/><stop offset="0.649" stop-color="#5b5b5b"/><stop offset="0.709" stop-color="#575757"/><stop offset="0.77" stop-color="#90989b"/><stop offset="0.848" stop-color="#8d9598"/><stop offset="0.905" stop-color="#858c8f"/><stop offset="0.955" stop-color="#787c81"/><stop offset="1" stop-color="#65666c"/></linearGradient><linearGradient id="linear-gradient-11" x1="113.918" y1="347.389" x2="113.836" y2="357.069" xlink:href="#linear-gradient-10"/><linearGradient id="linear-gradient-12" x1="133.113" y1="362.574" x2="133.113" y2="384.021" xlink:href="#linear-gradient-6"/><radialGradient id="radial-gradient-2" cx="133.33" cy="360.287" r="28.607" xlink:href="#radial-gradient"/><linearGradient id="linear-gradient-13" x1="-9134.965" y1="4449.169" x2="-9134.965" y2="4444.609" xlink:href="#linear-gradient-7"/><linearGradient id="linear-gradient-14" x1="138.139" y1="382.902" x2="138.139" y2="379.972" gradientTransform="matrix(1, 0, 0, 1, 0, 0)" xlink:href="#linear-gradient-7"/><linearGradient id="linear-gradient-15" x1="115.595" y1="369.719" x2="153.99" y2="369.719" xlink:href="#linear-gradient-9"/><linearGradient id="linear-gradient-16" x1="146.518" y1="367.225" x2="143.816" y2="371.905" xlink:href="#linear-gradient-10"/><linearGradient id="linear-gradient-17" x1="145.934" y1="365.901" x2="145.853" y2="375.581" xlink:href="#linear-gradient-10"/><linearGradient id="linear-gradient-18" x1="165.157" y1="381.059" x2="165.157" y2="402.506" xlink:href="#linear-gradient-6"/><radialGradient id="radial-gradient-3" cx="165.374" cy="378.772" r="28.607" xlink:href="#radial-gradient"/><linearGradient id="linear-gradient-19" x1="-9170.695" y1="4458.757" x2="-9170.695" y2="4454.197" xlink:href="#linear-gradient-7"/><linearGradient id="linear-gradient-20" x1="170.183" y1="401.388" x2="170.183" y2="398.457" gradientTransform="matrix(1, 0, 0, 1, 0, 0)" xlink:href="#linear-gradient-7"/><linearGradient id="linear-gradient-21" x1="147.639" y1="388.204" x2="186.034" y2="388.204" xlink:href="#linear-gradient-9"/><linearGradient id="linear-gradient-22" x1="178.562" y1="385.71" x2="175.86" y2="390.39" xlink:href="#linear-gradient-10"/><linearGradient id="linear-gradient-23" x1="177.978" y1="384.386" x2="177.897" y2="394.066" xlink:href="#linear-gradient-10"/><linearGradient id="linear-gradient-24" x1="197.174" y1="399.517" x2="197.174" y2="420.964" xlink:href="#linear-gradient-6"/><radialGradient id="radial-gradient-4" cx="197.391" cy="397.23" r="28.607" xlink:href="#radial-gradient"/><linearGradient id="linear-gradient-25" x1="-9206.386" y1="4468.345" x2="-9206.386" y2="4463.784" xlink:href="#linear-gradient-7"/><linearGradient id="linear-gradient-26" x1="202.2" y1="419.845" x2="202.2" y2="416.915" gradientTransform="matrix(1, 0, 0, 1, 0, 0)" xlink:href="#linear-gradient-7"/><linearGradient id="linear-gradient-27" x1="179.656" y1="406.662" x2="218.051" y2="406.662" xlink:href="#linear-gradient-9"/><linearGradient id="linear-gradient-28" x1="210.579" y1="404.168" x2="207.877" y2="408.848" xlink:href="#linear-gradient-10"/><linearGradient id="linear-gradient-29" x1="209.995" y1="402.844" x2="209.914" y2="412.524" xlink:href="#linear-gradient-10"/><linearGradient id="linear-gradient-30" x1="229.191" y1="418.029" x2="229.191" y2="439.477" xlink:href="#linear-gradient-6"/><radialGradient id="radial-gradient-5" cx="229.407" cy="415.742" r="28.607" xlink:href="#radial-gradient"/><linearGradient id="linear-gradient-31" x1="-9242.116" y1="4477.894" x2="-9242.116" y2="4473.333" xlink:href="#linear-gradient-7"/><linearGradient id="linear-gradient-32" x1="234.216" y1="438.358" x2="234.216" y2="435.427" gradientTransform="matrix(1, 0, 0, 1, 0, 0)" xlink:href="#linear-gradient-7"/><linearGradient id="linear-gradient-33" x1="211.672" y1="425.174" x2="250.068" y2="425.174" xlink:href="#linear-gradient-9"/><linearGradient id="linear-gradient-34" x1="242.595" y1="422.68" x2="239.893" y2="427.36" xlink:href="#linear-gradient-10"/><linearGradient id="linear-gradient-35" x1="242.012" y1="421.357" x2="241.93" y2="431.036" xlink:href="#linear-gradient-10"/><linearGradient id="linear-gradient-36" x1="438.814" y1="527.557" x2="431.993" y2="527.557" xlink:href="#linear-gradient-2"/><linearGradient id="linear-gradient-37" x1="338.939" y1="513.501" x2="360.159" y2="478.307" xlink:href="#linear-gradient-3"/><linearGradient id="linear-gradient-38" x1="439.661" y1="515.137" x2="432.149" y2="515.137" xlink:href="#linear-gradient-2"/><linearGradient id="linear-gradient-39" x1="277.276" y1="406.072" x2="465.966" y2="651.53" xlink:href="#linear-gradient-3"/><linearGradient id="linear-gradient-40" x1="457.302" y1="567.567" x2="450.823" y2="578.788" xlink:href="#linear-gradient"/><linearGradient id="linear-gradient-41" x1="458.016" y1="563.592" x2="451.265" y2="587.053" xlink:href="#linear-gradient-2"/><linearGradient id="linear-gradient-42" x1="462.214" y1="573.322" x2="458.184" y2="580.301" xlink:href="#linear-gradient"/><linearGradient id="linear-gradient-43" x1="467.336" y1="571.259" x2="460.339" y2="596.037" xlink:href="#linear-gradient-2"/><linearGradient id="linear-gradient-44" x1="481.415" y1="585.677" x2="478.264" y2="591.134" xlink:href="#linear-gradient"/><linearGradient id="linear-gradient-45" x1="496.449" y1="590.895" x2="491.202" y2="609.478" xlink:href="#linear-gradient-2"/><linearGradient id="linear-gradient-46" x1="266.665" y1="439.395" x2="266.665" y2="460.843" xlink:href="#linear-gradient-6"/><radialGradient id="radial-gradient-6" cx="266.882" cy="437.108" r="28.607" xlink:href="#radial-gradient"/><linearGradient id="linear-gradient-47" x1="-9283.723" y1="4489.284" x2="-9283.723" y2="4484.724" xlink:href="#linear-gradient-7"/><linearGradient id="linear-gradient-48" x1="271.691" y1="459.724" x2="271.691" y2="456.793" gradientTransform="matrix(1, 0, 0, 1, 0, 0)" xlink:href="#linear-gradient-7"/><linearGradient id="linear-gradient-49" x1="249.147" y1="446.54" x2="287.542" y2="446.54" xlink:href="#linear-gradient-9"/><linearGradient id="linear-gradient-50" x1="280.07" y1="444.046" x2="277.368" y2="448.726" xlink:href="#linear-gradient-10"/><linearGradient id="linear-gradient-51" x1="279.486" y1="442.723" x2="279.405" y2="452.402" xlink:href="#linear-gradient-10"/><linearGradient id="linear-gradient-52" x1="298.682" y1="457.907" x2="298.682" y2="479.355" xlink:href="#linear-gradient-6"/><radialGradient id="radial-gradient-7" cx="298.898" cy="455.62" r="28.606" xlink:href="#radial-gradient"/><linearGradient id="linear-gradient-53" x1="-9319.452" y1="4498.833" x2="-9319.452" y2="4494.273" xlink:href="#linear-gradient-7"/><linearGradient id="linear-gradient-54" x1="303.707" y1="478.236" x2="303.707" y2="475.305" gradientTransform="matrix(1, 0, 0, 1, 0, 0)" xlink:href="#linear-gradient-7"/><linearGradient id="linear-gradient-55" x1="281.163" y1="465.052" x2="319.559" y2="465.052" xlink:href="#linear-gradient-9"/><linearGradient id="linear-gradient-56" x1="312.087" y1="462.558" x2="309.384" y2="467.239" xlink:href="#linear-gradient-10"/><linearGradient id="linear-gradient-57" x1="311.503" y1="461.234" x2="311.421" y2="470.914" xlink:href="#linear-gradient-10"/><linearGradient id="linear-gradient-58" x1="330.726" y1="476.393" x2="330.726" y2="497.84" xlink:href="#linear-gradient-6"/><radialGradient id="radial-gradient-8" cx="330.942" cy="474.105" r="28.607" xlink:href="#radial-gradient"/><linearGradient id="linear-gradient-59" x1="-9355.182" y1="4508.421" x2="-9355.182" y2="4503.86" xlink:href="#linear-gradient-7"/><linearGradient id="linear-gradient-60" x1="335.751" y1="496.721" x2="335.751" y2="493.791" gradientTransform="matrix(1, 0, 0, 1, 0, 0)" xlink:href="#linear-gradient-7"/><linearGradient id="linear-gradient-61" x1="313.207" y1="483.537" x2="351.603" y2="483.537" xlink:href="#linear-gradient-9"/><linearGradient id="linear-gradient-62" x1="344.131" y1="481.043" x2="341.428" y2="485.724" xlink:href="#linear-gradient-10"/><linearGradient id="linear-gradient-63" x1="343.547" y1="479.72" x2="343.466" y2="489.4" xlink:href="#linear-gradient-10"/><linearGradient id="linear-gradient-64" x1="362.743" y1="494.851" x2="362.743" y2="516.298" xlink:href="#linear-gradient-6"/><radialGradient id="radial-gradient-9" cx="362.959" cy="492.563" r="28.607" xlink:href="#radial-gradient"/><linearGradient id="linear-gradient-65" x1="-9390.874" y1="4518.009" x2="-9390.874" y2="4513.448" xlink:href="#linear-gradient-7"/><linearGradient id="linear-gradient-66" x1="367.768" y1="515.179" x2="367.768" y2="512.248" gradientTransform="matrix(1, 0, 0, 1, 0, 0)" xlink:href="#linear-gradient-7"/><linearGradient id="linear-gradient-67" x1="345.224" y1="501.995" x2="383.62" y2="501.995" xlink:href="#linear-gradient-9"/><linearGradient id="linear-gradient-68" x1="376.147" y1="499.501" x2="373.445" y2="504.181" xlink:href="#linear-gradient-10"/><linearGradient id="linear-gradient-69" x1="375.564" y1="498.178" x2="375.482" y2="507.857" xlink:href="#linear-gradient-10"/><linearGradient id="linear-gradient-70" x1="394.759" y1="513.363" x2="394.759" y2="534.81" xlink:href="#linear-gradient-6"/><radialGradient id="radial-gradient-10" cx="394.976" cy="511.075" r="28.607" xlink:href="#radial-gradient"/><linearGradient id="linear-gradient-71" x1="-9426.603" y1="4527.558" x2="-9426.603" y2="4522.998" xlink:href="#linear-gradient-7"/><linearGradient id="linear-gradient-72" x1="399.785" y1="533.692" x2="399.785" y2="530.76" gradientTransform="matrix(1, 0, 0, 1, 0, 0)" xlink:href="#linear-gradient-7"/><linearGradient id="linear-gradient-73" x1="377.241" y1="520.508" x2="415.636" y2="520.508" xlink:href="#linear-gradient-9"/><linearGradient id="linear-gradient-74" x1="408.164" y1="518.014" x2="405.462" y2="522.693" xlink:href="#linear-gradient-10"/><linearGradient id="linear-gradient-75" x1="407.58" y1="516.69" x2="407.499" y2="526.369" xlink:href="#linear-gradient-10"/></defs><g class="cls-1"><g id="Capa_1" data-name="Capa 1"><path class="cls-2" d="M469.015,571.743l-407.74-236.8a5.629,5.629,0,0,0-5.071,0L50.745,338.1l-5.458-3.152a5.629,5.629,0,0,0-5.071,0l-12.93,6.322L7.828,330.036l-6.149,3.551,18.947,10.94L2,353.634C.6,354.439.6,355.757,2,356.562L409.738,593.356a5.12,5.12,0,0,0,2.419.6l21.768,0a5.276,5.276,0,0,0,2.727-.6l32.363-18.686C470.41,573.865,470.41,572.548,469.015,571.743Z"/><path class="cls-3" d="M41.737,327.507l-29.7-17.46a1.555,1.555,0,0,0-1.556.158,4.881,4.881,0,0,0-2.208,3.824,1.548,1.548,0,0,0,.654,1.434l29.7,17.461a1.557,1.557,0,0,0,1.554-.16,4.877,4.877,0,0,0,2.208-3.824A1.549,1.549,0,0,0,41.737,327.507Z"/><path class="cls-4" d="M268.6,447.226l-32.363,18.687a5.624,5.624,0,0,1-5.07,0L23.841,346.21a1.778,1.778,0,0,1-1.047-1.463h0V355.1a1.778,1.778,0,0,0,1.047,1.464l207.325,119.7a5.624,5.624,0,0,0,5.07,0L268.6,457.578a1.775,1.775,0,0,0,1.046-1.464V445.783h0A1.786,1.786,0,0,1,268.6,447.226Z"/><path class="cls-5" d="M236.236,451.274a5.624,5.624,0,0,1-5.07,0L26.376,333.035c-1.395-.8-1.395-2.122,0-2.927L56.2,312.886a5.623,5.623,0,0,1,5.071,0l204.79,118.238c1.395.805,1.395,2.122,0,2.927Z"/><path class="cls-6" d="M267.11,432.588h0a1.777,1.777,0,0,1-1.046,1.464l-29.828,17.222a5.624,5.624,0,0,1-5.07,0L26.376,333.035a1.863,1.863,0,0,1-1.034-1.314l-.012,0-2.536,11.559a1.78,1.78,0,0,0,1.047,1.464l207.325,119.7a5.624,5.624,0,0,0,5.07,0L268.6,445.764a1.775,1.775,0,0,0,1.046-1.464Z"/><path class="cls-7" d="M269.413,445.032a2.354,2.354,0,0,1-.814.732L236.236,464.45a5.624,5.624,0,0,1-5.07,0L23.841,344.746a2.353,2.353,0,0,1-.814-.732c-.48.738-.211,1.605.814,2.2l207.325,119.7a5.624,5.624,0,0,0,5.07,0L268.6,447.226C269.623,446.636,269.892,445.769,269.413,445.032Z"/><path class="cls-8" d="M236.236,448.775a5.63,5.63,0,0,1-5.07,0L28.911,332c-1.4-.805-1.4-2.123,0-2.927L56.2,313.315a5.626,5.626,0,0,1,5.071,0L263.528,430.089c1.395.806,1.395,2.123,0,2.927Z"/><path class="cls-9" d="M114,347.176c-7.124-4.112-18.675-4.113-25.8,0s-7.124,10.783,0,14.9,18.675,4.114,25.8,0S121.12,351.289,114,347.176Zm-.47,14.626c-6.866,3.964-18,3.963-24.861,0s-6.866-10.39,0-14.355,18-3.963,24.861,0S120.393,357.838,113.527,361.8Z"/><path class="cls-10" d="M113.527,354.075c-6.864-3.963-18-3.964-24.861,0a11.371,11.371,0,0,0-4.188,3.863,11.372,11.372,0,0,0,4.188,3.864c6.864,3.963,18,3.964,24.861,0a11.355,11.355,0,0,0,4.188-3.863A11.34,11.34,0,0,0,113.527,354.075Z"/><path class="cls-11" d="M98.456,356.289a1.308,1.308,0,0,1,0,2.477,4.747,4.747,0,0,1-4.29,0,1.308,1.308,0,0,1,0-2.477A4.747,4.747,0,0,1,98.456,356.289Z"/><path class="cls-12" d="M94.449,356.453a4.114,4.114,0,0,1,3.724,0,1.134,1.134,0,0,1,0,2.149,4.112,4.112,0,0,1-3.723,0A1.134,1.134,0,0,1,94.449,356.453Z"/><path class="cls-13" d="M108.273,361.921a4.749,4.749,0,0,0-4.291,0,1.308,1.308,0,0,0,0,2.477,3.149,3.149,0,0,0,.414.195,27.043,27.043,0,0,0,4.61-.909C109.334,363.081,109.1,362.4,108.273,361.921Z"/><path class="cls-12" d="M107.99,362.085a4.114,4.114,0,0,0-3.724,0,1.135,1.135,0,0,0,0,2.15,3.132,3.132,0,0,0,.7.281,27.242,27.242,0,0,0,3.517-.691C108.963,363.257,108.807,362.556,107.99,362.085Z"/><path class="cls-14" d="M88.666,354.075c6.865-3.964,18-3.963,24.861,0a11.34,11.34,0,0,1,4.188,3.864c2.121-3.555.726-7.655-4.188-10.492-6.864-3.963-18-3.963-24.861,0-4.915,2.838-6.309,6.937-4.188,10.491A11.371,11.371,0,0,1,88.666,354.075Z"/><path class="cls-15" d="M83.778,353.818l5.3-3.059-2.133-1.232A8.751,8.751,0,0,0,83.778,353.818Z"/><path class="cls-15" d="M90.668,347.378l2.133,1.231,5.3-3.059A25.5,25.5,0,0,0,90.668,347.378Z"/><path class="cls-15" d="M109.4,362.494l-3.187,1.84a24.943,24.943,0,0,0,4.358-1.165Z"/><polygon class="cls-16" points="92.801 354.265 90.668 353.034 90.668 347.378 92.801 348.609 92.801 354.265"/><polygon class="cls-17" points="92.801 354.265 98.098 351.207 98.098 345.55 92.801 348.609 92.801 354.265"/><path class="cls-16" d="M113.527,361.8c.359-.207.691-.423,1.012-.642l-1.413-.816v1.667C113.258,361.939,113.4,361.876,113.527,361.8Z"/><path class="cls-15" d="M114.539,361.16a10.575,10.575,0,0,0,3.176-3.221c-.036-.06-.078-.119-.116-.178l-4.473,2.583Z"/><path class="cls-17" d="M89.077,356.415v-5.656l-5.3,3.059v2.539a7.418,7.418,0,0,0,1.256,2.392Z"/><path class="cls-12" d="M114.474,354.671c-.3-.2-.613-.4-.947-.6s-.675-.362-1.022-.534l-.789.522c.446.236.888.478,1.32.727.192.111.374.226.562.339Z"/><path class="cls-18" d="M114.474,354.671c-.3-.2-.613-.4-.947-.6s-.675-.362-1.022-.534v-5.868c.447.236.888.477,1.32.727.193.111.374.226.562.339Z"/><path class="cls-19" d="M113.393,349.972a1.809,1.809,0,0,1,1.028-1.518l-1.838-1.076a1.806,1.806,0,0,0-1.027,1.518c-.123,1.571.718,3.347.59,4.934l1.837,1.076C114.112,353.319,113.27,351.543,113.393,349.972Z"/><path class="cls-20" d="M114.391,348.724l.03-.27a1.809,1.809,0,0,0-1.028,1.518c-.123,1.571.719,3.347.59,4.934l.184-.067c.039-1.528-.719-3.211-.6-4.707A1.812,1.812,0,0,1,114.391,348.724Z"/><path class="cls-21" d="M146.013,365.688c-7.123-4.112-18.675-4.113-25.8,0s-7.123,10.783,0,14.9,18.676,4.114,25.8,0S153.137,369.8,146.013,365.688Zm-.469,14.626c-6.866,3.964-18,3.963-24.862,0s-6.866-10.39,0-14.354,18-3.964,24.862,0S152.41,376.35,145.544,380.314Z"/><path class="cls-22" d="M145.544,372.587c-6.864-3.963-18-3.963-24.862,0a11.379,11.379,0,0,0-4.188,3.863,11.38,11.38,0,0,0,4.188,3.864c6.865,3.963,18,3.964,24.862,0a11.371,11.371,0,0,0,4.188-3.863A11.356,11.356,0,0,0,145.544,372.587Z"/><path class="cls-23" d="M130.473,374.8a1.308,1.308,0,0,1,0,2.477,4.747,4.747,0,0,1-4.29,0,1.308,1.308,0,0,1,0-2.477A4.752,4.752,0,0,1,130.473,374.8Z"/><path class="cls-12" d="M126.465,374.965a4.114,4.114,0,0,1,3.724,0,1.135,1.135,0,0,1,0,2.15,4.115,4.115,0,0,1-3.723,0A1.134,1.134,0,0,1,126.465,374.965Z"/><path class="cls-24" d="M140.29,380.433a4.755,4.755,0,0,0-4.291,0,1.309,1.309,0,0,0,0,2.478,3.345,3.345,0,0,0,.414.194,27.055,27.055,0,0,0,4.611-.909C141.351,381.594,141.115,380.91,140.29,380.433Z"/><path class="cls-12" d="M140.007,380.6a4.119,4.119,0,0,0-3.725,0,1.135,1.135,0,0,0,0,2.15,3.163,3.163,0,0,0,.7.282,27.243,27.243,0,0,0,3.517-.692C140.979,381.77,140.823,381.068,140.007,380.6Z"/><path class="cls-25" d="M120.682,372.587c6.866-3.963,18-3.963,24.862,0a11.356,11.356,0,0,1,4.188,3.864c2.121-3.555.726-7.655-4.188-10.492-6.864-3.963-18-3.963-24.862,0-4.915,2.837-6.309,6.936-4.188,10.49A11.379,11.379,0,0,1,120.682,372.587Z"/><path class="cls-15" d="M115.8,372.33l5.3-3.059-2.134-1.232A8.748,8.748,0,0,0,115.8,372.33Z"/><path class="cls-15" d="M122.684,365.89l2.133,1.231,5.3-3.059A25.549,25.549,0,0,0,122.684,365.89Z"/><path class="cls-15" d="M141.418,381.006l-3.187,1.84a25.03,25.03,0,0,0,4.358-1.164Z"/><polygon class="cls-16" points="124.817 372.777 122.684 371.546 122.684 365.89 124.817 367.121 124.817 372.777"/><polygon class="cls-17" points="124.817 372.777 130.115 369.719 130.115 364.062 124.817 367.121 124.817 372.777"/><path class="cls-16" d="M145.544,380.314c.358-.207.691-.422,1.012-.642l-1.414-.816v1.667C145.274,380.452,145.415,380.388,145.544,380.314Z"/><path class="cls-15" d="M146.556,379.672a10.586,10.586,0,0,0,3.176-3.221c-.036-.06-.078-.119-.116-.178l-4.474,2.583Z"/><path class="cls-17" d="M121.094,374.927v-5.656l-5.3,3.059v2.539a7.414,7.414,0,0,0,1.255,2.392Z"/><path class="cls-12" d="M146.49,373.183c-.3-.2-.613-.4-.946-.6s-.675-.362-1.023-.534l-.789.523q.671.354,1.32.726c.193.111.374.226.562.339Z"/><path class="cls-18" d="M146.49,373.183c-.3-.2-.613-.4-.946-.6s-.675-.362-1.023-.534v-5.868c.447.237.888.478,1.32.727.193.111.375.226.562.339Z"/><path class="cls-26" d="M145.41,368.484a1.807,1.807,0,0,1,1.028-1.518L144.6,365.89a1.807,1.807,0,0,0-1.028,1.518c-.123,1.571.719,3.347.59,4.934L146,373.419C146.128,371.831,145.287,370.055,145.41,368.484Z"/><path class="cls-27" d="M146.408,367.236l.03-.27a1.807,1.807,0,0,0-1.028,1.518c-.123,1.571.718,3.347.59,4.935l.184-.068c.039-1.528-.719-3.211-.6-4.707A1.806,1.806,0,0,1,146.408,367.236Z"/><path class="cls-28" d="M178.057,384.174c-7.123-4.113-18.675-4.114-25.8,0s-7.123,10.782,0,14.9,18.676,4.113,25.8,0S185.181,388.286,178.057,384.174Zm-.469,14.625c-6.866,3.964-18,3.963-24.862,0s-6.866-10.39,0-14.354,18-3.964,24.862,0S184.454,394.835,177.588,398.8Z"/><path class="cls-29" d="M177.588,391.072c-6.864-3.963-18-3.963-24.862,0a11.368,11.368,0,0,0-4.188,3.862,11.38,11.38,0,0,0,4.188,3.864c6.865,3.963,18,3.964,24.862,0a11.371,11.371,0,0,0,4.188-3.863A11.356,11.356,0,0,0,177.588,391.072Z"/><path class="cls-30" d="M162.517,393.286a1.308,1.308,0,0,1,0,2.477,4.747,4.747,0,0,1-4.29,0,1.308,1.308,0,0,1,0-2.477A4.752,4.752,0,0,1,162.517,393.286Z"/><path class="cls-12" d="M158.509,393.45a4.114,4.114,0,0,1,3.724,0,1.135,1.135,0,0,1,0,2.15,4.115,4.115,0,0,1-3.723,0A1.134,1.134,0,0,1,158.509,393.45Z"/><path class="cls-31" d="M172.334,398.919a4.749,4.749,0,0,0-4.291,0,1.308,1.308,0,0,0,0,2.477,3.268,3.268,0,0,0,.413.195,27.153,27.153,0,0,0,4.611-.91C173.4,400.079,173.159,399.4,172.334,398.919Z"/><path class="cls-12" d="M172.051,399.082a4.119,4.119,0,0,0-3.725,0,1.135,1.135,0,0,0,0,2.15,3.115,3.115,0,0,0,.7.282,27.243,27.243,0,0,0,3.517-.692C173.024,400.255,172.867,399.553,172.051,399.082Z"/><path class="cls-32" d="M152.726,391.073c6.866-3.964,18-3.964,24.862,0a11.356,11.356,0,0,1,4.188,3.864c2.121-3.555.726-7.655-4.188-10.492-6.864-3.963-18-3.963-24.862,0-4.915,2.837-6.309,6.936-4.188,10.49A11.368,11.368,0,0,1,152.726,391.073Z"/><path class="cls-15" d="M147.839,390.815l5.3-3.059-2.133-1.232A8.744,8.744,0,0,0,147.839,390.815Z"/><path class="cls-15" d="M154.728,384.375l2.134,1.231,5.3-3.059A25.549,25.549,0,0,0,154.728,384.375Z"/><path class="cls-15" d="M173.462,399.491l-3.187,1.84a25.03,25.03,0,0,0,4.358-1.164Z"/><polygon class="cls-16" points="156.862 391.262 154.728 390.031 154.728 384.375 156.862 385.606 156.862 391.262"/><polygon class="cls-17" points="156.862 391.262 162.159 388.204 162.159 382.547 156.862 385.606 156.862 391.262"/><path class="cls-16" d="M177.588,398.8c.358-.207.691-.422,1.012-.642l-1.414-.816v1.668C177.318,398.937,177.459,398.873,177.588,398.8Z"/><path class="cls-15" d="M178.6,398.157a10.586,10.586,0,0,0,3.176-3.221c-.036-.06-.078-.119-.116-.178l-4.474,2.583Z"/><path class="cls-17" d="M153.138,393.412v-5.656l-5.3,3.059v2.539a7.414,7.414,0,0,0,1.255,2.392Z"/><path class="cls-12" d="M178.534,391.669c-.3-.2-.613-.4-.946-.6s-.675-.362-1.023-.534l-.789.523q.671.354,1.32.726c.193.111.375.226.562.339Z"/><path class="cls-18" d="M178.534,391.669c-.3-.2-.613-.4-.946-.6s-.675-.362-1.023-.534v-5.867q.671.354,1.321.726c.192.111.374.226.561.339Z"/><path class="cls-33" d="M177.454,386.969a1.807,1.807,0,0,1,1.028-1.518l-1.838-1.076a1.807,1.807,0,0,0-1.028,1.518c-.123,1.571.719,3.347.59,4.934l1.838,1.077C178.173,390.317,177.331,388.54,177.454,386.969Z"/><path class="cls-34" d="M178.452,385.722l.03-.271a1.807,1.807,0,0,0-1.028,1.518c-.123,1.571.719,3.348.59,4.935l.184-.068c.039-1.528-.719-3.211-.6-4.707A1.8,1.8,0,0,1,178.452,385.722Z"/><path class="cls-35" d="M210.074,402.631c-7.123-4.112-18.675-4.113-25.8,0s-7.123,10.783,0,14.9,18.676,4.114,25.8,0S217.2,406.744,210.074,402.631Zm-.469,14.626c-6.866,3.964-18,3.963-24.862,0s-6.866-10.39,0-14.354,18-3.964,24.862,0S216.471,413.293,209.605,417.257Z"/><path class="cls-36" d="M209.605,409.53c-6.864-3.963-18-3.963-24.862,0a11.379,11.379,0,0,0-4.188,3.863,11.38,11.38,0,0,0,4.188,3.864c6.865,3.963,18,3.964,24.862,0a11.371,11.371,0,0,0,4.188-3.863A11.356,11.356,0,0,0,209.605,409.53Z"/><path class="cls-37" d="M194.534,411.744a1.308,1.308,0,0,1,0,2.477,4.747,4.747,0,0,1-4.29,0,1.308,1.308,0,0,1,0-2.477A4.749,4.749,0,0,1,194.534,411.744Z"/><path class="cls-12" d="M190.526,411.908a4.114,4.114,0,0,1,3.724,0,1.135,1.135,0,0,1,0,2.15,4.115,4.115,0,0,1-3.723,0A1.134,1.134,0,0,1,190.526,411.908Z"/><path class="cls-38" d="M204.351,417.376a4.755,4.755,0,0,0-4.291,0,1.309,1.309,0,0,0,0,2.478,3.345,3.345,0,0,0,.414.194,27.055,27.055,0,0,0,4.611-.909C205.412,418.537,205.176,417.853,204.351,417.376Z"/><path class="cls-12" d="M204.068,417.54a4.116,4.116,0,0,0-3.725,0,1.135,1.135,0,0,0,0,2.15,3.163,3.163,0,0,0,.7.282,27.243,27.243,0,0,0,3.517-.692C205.041,418.713,204.884,418.011,204.068,417.54Z"/><path class="cls-39" d="M184.743,409.53c6.866-3.963,18-3.963,24.862,0a11.356,11.356,0,0,1,4.188,3.864c2.121-3.555.726-7.655-4.188-10.492-6.864-3.963-18-3.963-24.862,0-4.915,2.837-6.309,6.936-4.188,10.49A11.379,11.379,0,0,1,184.743,409.53Z"/><path class="cls-15" d="M179.856,409.273l5.3-3.059-2.134-1.232A8.748,8.748,0,0,0,179.856,409.273Z"/><path class="cls-15" d="M186.745,402.833l2.133,1.231,5.3-3.059A25.549,25.549,0,0,0,186.745,402.833Z"/><path class="cls-15" d="M205.479,417.949l-3.187,1.84a25.03,25.03,0,0,0,4.358-1.164Z"/><polygon class="cls-16" points="188.878 409.72 186.745 408.489 186.745 402.833 188.878 404.064 188.878 409.72"/><polygon class="cls-17" points="188.878 409.72 194.176 406.662 194.176 401.005 188.878 404.064 188.878 409.72"/><path class="cls-16" d="M209.605,417.257c.358-.207.691-.422,1.012-.642L209.2,415.8v1.667C209.335,417.4,209.476,417.331,209.605,417.257Z"/><path class="cls-15" d="M210.617,416.615a10.586,10.586,0,0,0,3.176-3.221c-.036-.06-.078-.119-.116-.178L209.2,415.8Z"/><path class="cls-17" d="M185.155,411.87v-5.656l-5.3,3.059v2.539a7.414,7.414,0,0,0,1.255,2.392Z"/><path class="cls-12" d="M210.551,410.126c-.3-.2-.613-.4-.946-.6s-.675-.362-1.023-.534l-.789.523q.671.354,1.32.726c.193.111.374.226.562.339Z"/><path class="cls-18" d="M210.551,410.126c-.3-.2-.613-.4-.946-.6s-.675-.362-1.023-.534v-5.868c.447.237.888.478,1.321.727.192.111.374.226.561.339Z"/><path class="cls-40" d="M209.471,405.427a1.807,1.807,0,0,1,1.028-1.518l-1.838-1.076a1.807,1.807,0,0,0-1.028,1.518c-.123,1.571.719,3.347.59,4.934l1.838,1.077C210.189,408.774,209.348,407,209.471,405.427Z"/><path class="cls-41" d="M210.469,404.179l.03-.27a1.807,1.807,0,0,0-1.028,1.518c-.123,1.571.718,3.347.59,4.935l.184-.068c.039-1.528-.719-3.211-.6-4.707A1.806,1.806,0,0,1,210.469,404.179Z"/><path class="cls-42" d="M242.09,421.144c-7.123-4.113-18.675-4.114-25.8,0s-7.124,10.783,0,14.9,18.675,4.113,25.8,0S249.214,425.256,242.09,421.144Zm-.469,14.625c-6.866,3.964-18,3.963-24.861,0s-6.867-10.39,0-14.354,18-3.964,24.861,0S248.487,431.805,241.621,435.769Z"/><path class="cls-43" d="M241.621,428.042c-6.864-3.963-18-3.963-24.861,0a11.361,11.361,0,0,0-4.188,3.862,11.356,11.356,0,0,0,4.188,3.864c6.864,3.963,18,3.964,24.861,0a11.354,11.354,0,0,0,4.188-3.863A11.356,11.356,0,0,0,241.621,428.042Z"/><path class="cls-44" d="M226.55,430.257a1.308,1.308,0,0,1,0,2.477,4.753,4.753,0,0,1-4.29,0,1.308,1.308,0,0,1,0-2.477A4.747,4.747,0,0,1,226.55,430.257Z"/><path class="cls-12" d="M222.542,430.42a4.116,4.116,0,0,1,3.725,0,1.135,1.135,0,0,1,0,2.15,4.117,4.117,0,0,1-3.724,0A1.135,1.135,0,0,1,222.542,430.42Z"/><path class="cls-45" d="M236.367,435.888a4.755,4.755,0,0,0-4.291,0,1.309,1.309,0,0,0,0,2.478,3.335,3.335,0,0,0,.413.195,27.152,27.152,0,0,0,4.611-.909C237.428,437.049,237.193,436.366,236.367,435.888Z"/><path class="cls-12" d="M236.084,436.052a4.117,4.117,0,0,0-3.724,0,1.135,1.135,0,0,0,0,2.15,3.134,3.134,0,0,0,.7.282,27.243,27.243,0,0,0,3.517-.692C237.057,437.225,236.9,436.523,236.084,436.052Z"/><path class="cls-46" d="M216.76,428.043c6.865-3.964,18-3.964,24.861,0a11.356,11.356,0,0,1,4.188,3.864c2.121-3.555.726-7.654-4.188-10.492-6.864-3.963-18-3.963-24.861,0-4.915,2.837-6.309,6.936-4.188,10.49A11.361,11.361,0,0,1,216.76,428.043Z"/><path class="cls-15" d="M211.872,427.785l5.3-3.059-2.133-1.232A8.755,8.755,0,0,0,211.872,427.785Z"/><path class="cls-15" d="M218.762,421.345l2.133,1.231,5.3-3.058A25.5,25.5,0,0,0,218.762,421.345Z"/><path class="cls-15" d="M237.5,436.461l-3.188,1.84a24.976,24.976,0,0,0,4.359-1.164Z"/><polygon class="cls-16" points="220.895 428.233 218.762 427.001 218.762 421.345 220.895 422.576 220.895 428.233"/><polygon class="cls-17" points="220.895 428.233 226.192 425.174 226.192 419.518 220.895 422.576 220.895 428.233"/><path class="cls-16" d="M241.621,435.769c.358-.207.691-.422,1.012-.641l-1.414-.817v1.668C241.352,435.907,241.492,435.844,241.621,435.769Z"/><path class="cls-15" d="M242.633,435.128a10.588,10.588,0,0,0,3.176-3.222c-.036-.06-.078-.119-.116-.178l-4.474,2.583Z"/><path class="cls-17" d="M217.171,430.382v-5.656l-5.3,3.059v2.539a7.4,7.4,0,0,0,1.256,2.392Z"/><path class="cls-12" d="M242.567,428.639c-.3-.2-.612-.4-.946-.6s-.675-.362-1.022-.533l-.79.522c.447.236.889.477,1.321.726.192.112.374.227.561.34Z"/><path class="cls-18" d="M242.567,428.639c-.3-.2-.612-.4-.946-.6s-.675-.362-1.022-.533v-5.868q.671.354,1.32.726c.193.111.374.226.562.339Z"/><path class="cls-47" d="M241.487,423.94a1.809,1.809,0,0,1,1.028-1.519l-1.838-1.076a1.806,1.806,0,0,0-1.027,1.518c-.123,1.571.718,3.348.59,4.935l1.837,1.076C242.206,427.287,241.364,425.511,241.487,423.94Z"/><path class="cls-48" d="M242.485,422.692l.03-.271a1.809,1.809,0,0,0-1.028,1.519c-.123,1.571.719,3.347.59,4.934l.184-.068c.039-1.528-.719-3.21-.6-4.707A1.809,1.809,0,0,1,242.485,422.692Z"/><path class="cls-49" d="M470.165,563.976,437.8,582.663a5.622,5.622,0,0,1-5.069,0L225.406,462.96a1.778,1.778,0,0,1-1.046-1.464h0v10.352a1.78,1.78,0,0,0,1.046,1.464l207.326,119.7a5.622,5.622,0,0,0,5.069,0l32.364-18.687a1.778,1.778,0,0,0,1.046-1.463V562.533h0A1.785,1.785,0,0,1,470.165,563.976Z"/><path class="cls-50" d="M437.8,568.024a5.622,5.622,0,0,1-5.069,0L227.941,449.785c-1.394-.805-1.394-2.122,0-2.928l29.828-17.221a5.626,5.626,0,0,1,5.071,0L467.63,547.874c1.394.8,1.394,2.122,0,2.927Z"/><path class="cls-51" d="M468.675,549.338h0a1.777,1.777,0,0,1-1.045,1.463L437.8,568.024a5.622,5.622,0,0,1-5.069,0L227.941,449.785a1.864,1.864,0,0,1-1.033-1.314l-.013,0-2.535,11.558a1.78,1.78,0,0,0,1.046,1.464L432.732,581.2a5.622,5.622,0,0,0,5.069,0l32.364-18.686a1.78,1.78,0,0,0,1.046-1.464Z"/><path class="cls-7" d="M470.979,561.781a2.345,2.345,0,0,1-.814.733L437.8,581.2a5.622,5.622,0,0,1-5.069,0L225.406,461.5a2.347,2.347,0,0,1-.813-.731c-.481.738-.211,1.605.813,2.2l207.326,119.7a5.622,5.622,0,0,0,5.069,0l32.364-18.687C471.188,563.386,471.458,562.52,470.979,561.781Z"/><path class="cls-52" d="M437.8,565.524a5.622,5.622,0,0,1-5.069,0L230.477,448.75c-1.4-.806-1.4-2.123,0-2.928l27.292-15.758a5.623,5.623,0,0,1,5.071,0L465.093,546.839c1.395.8,1.395,2.122,0,2.927Z"/><path class="cls-53" d="M458.412,567.988l-2.076-1.147a3.326,3.326,0,0,0-3.327.336,10.437,10.437,0,0,0-4.721,8.178,3.307,3.307,0,0,0,1.4,3.066l2.076,1.148a3.326,3.326,0,0,0,3.322-.34,10.432,10.432,0,0,0,4.721-8.176A3.314,3.314,0,0,0,458.412,567.988Z"/><path class="cls-54" d="M459.806,571.053a10.432,10.432,0,0,1-4.721,8.176,2.877,2.877,0,0,1-4.721-2.725,10.435,10.435,0,0,1,4.721-8.178,2.877,2.877,0,0,1,4.721,2.727Z"/><path class="cls-55" d="M467.056,575.987l-9.584-5.539a2.076,2.076,0,0,0-2.074.211,6.509,6.509,0,0,0-2.945,5.1,2.063,2.063,0,0,0,.873,1.912l9.583,5.538a2.075,2.075,0,0,0,2.072-.212,6.508,6.508,0,0,0,2.945-5.1A2.063,2.063,0,0,0,467.056,575.987Z"/><path class="cls-56" d="M467.926,577.9a6.508,6.508,0,0,1-2.945,5.1,1.794,1.794,0,0,1-2.944-1.7,6.511,6.511,0,0,1,2.944-5.1,1.8,1.8,0,0,1,2.945,1.7Z"/><path class="cls-57" d="M496.239,594.441l-29.7-17.461a1.557,1.557,0,0,0-1.556.158,4.88,4.88,0,0,0-2.207,3.824,1.547,1.547,0,0,0,.654,1.434l29.7,17.462a1.561,1.561,0,0,0,1.555-.16,4.88,4.88,0,0,0,2.207-3.825A1.546,1.546,0,0,0,496.239,594.441Z"/><path class="cls-58" d="M496.891,595.873a4.88,4.88,0,0,1-2.207,3.825,1.345,1.345,0,0,1-2.208-1.275,4.88,4.88,0,0,1,2.208-3.824,1.345,1.345,0,0,1,2.207,1.274Z"/><path class="cls-59" d="M279.565,442.51c-7.123-4.113-18.675-4.114-25.8,0s-7.123,10.783,0,14.9,18.676,4.113,25.8,0S286.689,446.622,279.565,442.51Zm-.469,14.625c-6.866,3.964-18,3.963-24.862,0s-6.866-10.39,0-14.354,18-3.964,24.862,0S285.962,453.171,279.1,457.135Z"/><path class="cls-60" d="M279.1,449.408c-6.864-3.963-18-3.963-24.862,0a11.377,11.377,0,0,0-4.188,3.862,11.38,11.38,0,0,0,4.188,3.864c6.865,3.963,18,3.964,24.862,0a11.371,11.371,0,0,0,4.188-3.863A11.364,11.364,0,0,0,279.1,449.408Z"/><path class="cls-61" d="M264.025,451.623a1.308,1.308,0,0,1,0,2.476,4.744,4.744,0,0,1-4.29,0,1.308,1.308,0,0,1,0-2.476A4.749,4.749,0,0,1,264.025,451.623Z"/><path class="cls-12" d="M260.017,451.786a4.114,4.114,0,0,1,3.724,0,1.135,1.135,0,0,1,0,2.15,4.115,4.115,0,0,1-3.723,0A1.135,1.135,0,0,1,260.017,451.786Z"/><path class="cls-62" d="M273.842,457.255a4.749,4.749,0,0,0-4.291,0,1.308,1.308,0,0,0,0,2.477,3.349,3.349,0,0,0,.414.195,27.25,27.25,0,0,0,4.611-.909C274.9,458.415,274.667,457.731,273.842,457.255Z"/><path class="cls-12" d="M273.559,457.418a4.119,4.119,0,0,0-3.725,0,1.135,1.135,0,0,0,0,2.15,3.115,3.115,0,0,0,.7.282,27.075,27.075,0,0,0,3.517-.692C274.532,458.591,274.375,457.889,273.559,457.418Z"/><path class="cls-63" d="M254.234,449.409c6.866-3.964,18-3.964,24.862,0a11.364,11.364,0,0,1,4.188,3.864c2.121-3.555.726-7.654-4.188-10.492-6.864-3.963-18-3.963-24.862,0-4.915,2.837-6.309,6.936-4.188,10.49A11.377,11.377,0,0,1,254.234,449.409Z"/><path class="cls-15" d="M249.347,449.151l5.3-3.059-2.134-1.232A8.753,8.753,0,0,0,249.347,449.151Z"/><path class="cls-15" d="M256.236,442.711l2.133,1.231,5.3-3.058A25.516,25.516,0,0,0,256.236,442.711Z"/><path class="cls-15" d="M274.97,457.827l-3.187,1.84a25.03,25.03,0,0,0,4.358-1.164Z"/><polygon class="cls-16" points="258.369 449.599 256.236 448.367 256.236 442.711 258.369 443.942 258.369 449.599"/><polygon class="cls-17" points="258.369 449.599 263.667 446.54 263.667 440.884 258.369 443.942 258.369 449.599"/><path class="cls-16" d="M279.1,457.135c.358-.207.691-.422,1.012-.642l-1.414-.816v1.668C278.826,457.273,278.967,457.21,279.1,457.135Z"/><path class="cls-15" d="M280.108,456.493a10.586,10.586,0,0,0,3.176-3.221c-.036-.06-.078-.119-.116-.178l-4.474,2.583Z"/><path class="cls-17" d="M254.646,451.748v-5.656l-5.3,3.059v2.539a7.429,7.429,0,0,0,1.255,2.393Z"/><path class="cls-12" d="M280.042,450.005c-.3-.2-.613-.4-.946-.6s-.675-.362-1.023-.533l-.789.522q.671.354,1.32.726c.193.112.374.226.562.339Z"/><path class="cls-18" d="M280.042,450.005c-.3-.2-.613-.4-.946-.6s-.675-.362-1.023-.533v-5.868q.671.354,1.321.726c.192.111.374.226.561.339Z"/><path class="cls-64" d="M278.962,445.306a1.807,1.807,0,0,1,1.028-1.519l-1.838-1.076a1.807,1.807,0,0,0-1.028,1.518c-.123,1.571.719,3.348.59,4.935l1.838,1.076C279.68,448.653,278.839,446.877,278.962,445.306Z"/><path class="cls-65" d="M279.96,444.058l.03-.271a1.807,1.807,0,0,0-1.028,1.519c-.123,1.571.718,3.347.59,4.934l.184-.068c.039-1.528-.719-3.21-.6-4.707A1.8,1.8,0,0,1,279.96,444.058Z"/><path class="cls-66" d="M311.581,461.022c-7.123-4.113-18.675-4.114-25.8,0s-7.124,10.783,0,14.9,18.675,4.114,25.8,0S318.705,465.134,311.581,461.022Zm-.469,14.625c-6.866,3.964-18,3.963-24.861,0s-6.867-10.39,0-14.354,18-3.963,24.861,0S317.978,471.683,311.112,475.647Z"/><path class="cls-67" d="M311.112,467.92c-6.864-3.963-18-3.963-24.861,0a11.354,11.354,0,0,0-4.188,3.863,11.371,11.371,0,0,0,4.188,3.863c6.864,3.963,18,3.964,24.861,0a11.363,11.363,0,0,0,4.188-3.863A11.356,11.356,0,0,0,311.112,467.92Z"/><path class="cls-68" d="M296.041,470.135a1.308,1.308,0,0,1,0,2.476,4.747,4.747,0,0,1-4.29,0,1.308,1.308,0,0,1,0-2.477A4.747,4.747,0,0,1,296.041,470.135Z"/><path class="cls-12" d="M292.033,470.3a4.116,4.116,0,0,1,3.725,0,1.135,1.135,0,0,1,0,2.15,4.112,4.112,0,0,1-3.723,0A1.135,1.135,0,0,1,292.033,470.3Z"/><path class="cls-69" d="M305.858,475.767a4.749,4.749,0,0,0-4.291,0,1.308,1.308,0,0,0,0,2.477,3.268,3.268,0,0,0,.413.195,27.036,27.036,0,0,0,4.611-.91C306.919,476.927,306.684,476.243,305.858,475.767Z"/><path class="cls-12" d="M305.575,475.93a4.117,4.117,0,0,0-3.724,0,1.135,1.135,0,0,0,0,2.15,3.087,3.087,0,0,0,.7.282,27.242,27.242,0,0,0,3.517-.691C306.548,477.1,306.392,476.4,305.575,475.93Z"/><path class="cls-70" d="M286.251,467.921c6.865-3.964,18-3.964,24.861,0a11.356,11.356,0,0,1,4.188,3.864c2.121-3.555.726-7.654-4.188-10.492-6.864-3.962-18-3.963-24.861,0-4.915,2.838-6.309,6.936-4.188,10.491A11.354,11.354,0,0,1,286.251,467.921Z"/><path class="cls-15" d="M281.363,467.663l5.3-3.059-2.133-1.232A8.755,8.755,0,0,0,281.363,467.663Z"/><path class="cls-15" d="M288.253,461.223l2.133,1.231,5.3-3.058A25.5,25.5,0,0,0,288.253,461.223Z"/><path class="cls-15" d="M306.987,476.339l-3.188,1.84a24.976,24.976,0,0,0,4.359-1.164Z"/><polygon class="cls-16" points="290.386 468.111 288.253 466.879 288.253 461.223 290.386 462.454 290.386 468.111"/><polygon class="cls-17" points="290.386 468.111 295.683 465.052 295.683 459.396 290.386 462.454 290.386 468.111"/><path class="cls-16" d="M311.112,475.647c.358-.207.691-.422,1.012-.641l-1.414-.816v1.667C310.843,475.785,310.983,475.722,311.112,475.647Z"/><path class="cls-15" d="M312.124,475.006a10.588,10.588,0,0,0,3.176-3.222c-.036-.059-.078-.118-.116-.178l-4.474,2.584Z"/><path class="cls-17" d="M286.662,470.261V464.6l-5.3,3.059v2.54a7.418,7.418,0,0,0,1.256,2.392Z"/><path class="cls-12" d="M312.058,468.517c-.3-.2-.612-.4-.946-.6s-.675-.362-1.022-.534l-.79.523c.447.236.889.477,1.321.726.192.112.374.227.562.34Z"/><path class="cls-18" d="M312.058,468.517c-.3-.2-.612-.4-.946-.6s-.675-.362-1.022-.534v-5.867c.446.236.888.477,1.32.726.193.112.374.227.562.339Z"/><path class="cls-71" d="M310.978,463.818a1.809,1.809,0,0,1,1.028-1.519l-1.838-1.076a1.807,1.807,0,0,0-1.027,1.519c-.123,1.57.718,3.346.59,4.934l1.837,1.076C311.7,467.165,310.855,465.388,310.978,463.818Z"/><path class="cls-72" d="M311.976,462.57l.03-.271a1.809,1.809,0,0,0-1.028,1.519c-.123,1.57.719,3.347.59,4.934l.184-.067c.039-1.529-.719-3.211-.6-4.708A1.811,1.811,0,0,1,311.976,462.57Z"/><path class="cls-73" d="M343.626,479.507c-7.124-4.113-18.675-4.114-25.8,0s-7.124,10.783,0,14.9,18.675,4.114,25.8,0S350.749,483.619,343.626,479.507Zm-.469,14.625c-6.867,3.965-18,3.964-24.862,0s-6.866-10.39,0-14.353,18-3.965,24.862,0S350.022,490.168,343.157,494.132Z"/><path class="cls-74" d="M343.157,486.405c-6.865-3.963-18-3.963-24.862,0a11.371,11.371,0,0,0-4.188,3.863,11.362,11.362,0,0,0,4.188,3.863c6.864,3.964,18,3.965,24.862,0a11.351,11.351,0,0,0,4.187-3.863A11.361,11.361,0,0,0,343.157,486.405Z"/><path class="cls-75" d="M328.085,488.62a1.308,1.308,0,0,1,0,2.476,4.747,4.747,0,0,1-4.29,0,1.308,1.308,0,0,1,0-2.477A4.747,4.747,0,0,1,328.085,488.62Z"/><path class="cls-12" d="M324.078,488.783a4.114,4.114,0,0,1,3.724,0,1.135,1.135,0,0,1,0,2.15,4.112,4.112,0,0,1-3.723,0A1.135,1.135,0,0,1,324.078,488.783Z"/><path class="cls-76" d="M337.9,494.252a4.747,4.747,0,0,0-4.29,0,1.308,1.308,0,0,0,0,2.477,3.149,3.149,0,0,0,.414.195,27.141,27.141,0,0,0,4.61-.909C338.963,495.412,338.728,494.728,337.9,494.252Z"/><path class="cls-12" d="M337.619,494.416a4.111,4.111,0,0,0-3.724,0,1.134,1.134,0,0,0,0,2.149,3.087,3.087,0,0,0,.7.282,27.075,27.075,0,0,0,3.517-.692C338.592,495.589,338.436,494.887,337.619,494.416Z"/><path class="cls-77" d="M318.3,486.406c6.865-3.964,18-3.964,24.862,0a11.361,11.361,0,0,1,4.187,3.864c2.121-3.554.727-7.654-4.187-10.491-6.865-3.964-18-3.964-24.862,0-4.915,2.837-6.309,6.936-4.188,10.49A11.371,11.371,0,0,1,318.3,486.406Z"/><path class="cls-15" d="M313.407,486.148l5.3-3.058-2.133-1.233A8.755,8.755,0,0,0,313.407,486.148Z"/><path class="cls-15" d="M320.3,479.708l2.133,1.231,5.3-3.058A25.534,25.534,0,0,0,320.3,479.708Z"/><path class="cls-15" d="M339.031,494.824l-3.187,1.841A25.031,25.031,0,0,0,340.2,495.5Z"/><polygon class="cls-16" points="322.43 486.596 320.297 485.364 320.297 479.708 322.43 480.939 322.43 486.596"/><polygon class="cls-17" points="322.43 486.596 327.727 483.538 327.727 477.881 322.43 480.939 322.43 486.596"/><path class="cls-16" d="M343.157,494.132c.358-.207.69-.421,1.011-.641l-1.413-.816v1.667C342.887,494.27,343.027,494.207,343.157,494.132Z"/><path class="cls-15" d="M344.168,493.491a10.588,10.588,0,0,0,3.176-3.222c-.035-.059-.078-.118-.116-.177l-4.473,2.583Z"/><path class="cls-17" d="M318.706,488.746V483.09l-5.3,3.058v2.54a7.428,7.428,0,0,0,1.256,2.392Z"/><path class="cls-12" d="M344.1,487c-.3-.2-.613-.4-.946-.6s-.676-.362-1.023-.533l-.789.522c.446.236.888.477,1.32.726.193.112.374.227.562.34Z"/><path class="cls-18" d="M344.1,487c-.3-.2-.613-.4-.946-.6s-.676-.362-1.023-.533V480q.671.354,1.32.727c.193.111.374.226.562.339Z"/><path class="cls-78" d="M343.022,482.3a1.809,1.809,0,0,1,1.028-1.519l-1.838-1.076a1.807,1.807,0,0,0-1.027,1.519c-.123,1.57.718,3.347.59,4.934l1.837,1.076C343.741,485.65,342.9,483.874,343.022,482.3Z"/><path class="cls-79" d="M344.02,481.055l.03-.271a1.809,1.809,0,0,0-1.028,1.519c-.123,1.571.719,3.347.59,4.934l.185-.067c.038-1.528-.72-3.211-.6-4.708A1.811,1.811,0,0,1,344.02,481.055Z"/><path class="cls-80" d="M375.642,497.965c-7.123-4.113-18.675-4.113-25.8,0s-7.124,10.783,0,14.9,18.675,4.113,25.8,0S382.766,502.078,375.642,497.965Zm-.469,14.625c-6.866,3.965-18,3.964-24.861,0s-6.867-10.39,0-14.354,18-3.964,24.861,0S382.039,508.627,375.173,512.59Z"/><path class="cls-81" d="M375.173,504.864c-6.864-3.964-18-3.964-24.861,0a11.354,11.354,0,0,0-4.188,3.863,11.362,11.362,0,0,0,4.188,3.863c6.864,3.964,18,3.965,24.861,0a11.346,11.346,0,0,0,4.188-3.863A11.338,11.338,0,0,0,375.173,504.864Z"/><path class="cls-82" d="M360.1,507.078a1.308,1.308,0,0,1,0,2.477,4.747,4.747,0,0,1-4.29,0,1.308,1.308,0,0,1,0-2.477A4.747,4.747,0,0,1,360.1,507.078Z"/><path class="cls-12" d="M356.1,507.241a4.114,4.114,0,0,1,3.724,0,1.135,1.135,0,0,1,0,2.15,4.109,4.109,0,0,1-3.723,0A1.134,1.134,0,0,1,356.1,507.241Z"/><path class="cls-83" d="M369.919,512.71a4.749,4.749,0,0,0-4.291,0,1.308,1.308,0,0,0,0,2.477,3.149,3.149,0,0,0,.414.195,27.141,27.141,0,0,0,4.61-.909C370.98,513.87,370.745,513.187,369.919,512.71Z"/><path class="cls-12" d="M369.636,512.873a4.117,4.117,0,0,0-3.724,0,1.136,1.136,0,0,0,0,2.151,3.18,3.18,0,0,0,.7.281,27.075,27.075,0,0,0,3.517-.692C370.609,514.046,370.453,513.344,369.636,512.873Z"/><path class="cls-84" d="M350.312,504.864c6.865-3.964,18-3.964,24.861,0a11.338,11.338,0,0,1,4.188,3.863c2.121-3.555.726-7.655-4.188-10.492-6.864-3.963-18-3.963-24.861,0-4.915,2.837-6.309,6.936-4.188,10.491A11.354,11.354,0,0,1,350.312,504.864Z"/><path class="cls-15" d="M345.424,504.607l5.3-3.06-2.133-1.231A8.751,8.751,0,0,0,345.424,504.607Z"/><path class="cls-15" d="M352.314,498.167l2.133,1.23,5.3-3.058A25.471,25.471,0,0,0,352.314,498.167Z"/><path class="cls-15" d="M371.048,513.283l-3.187,1.839a24.965,24.965,0,0,0,4.358-1.164Z"/><polygon class="cls-16" points="354.447 505.053 352.314 503.823 352.314 498.167 354.447 499.397 354.447 505.053"/><polygon class="cls-17" points="354.447 505.053 359.744 501.995 359.744 496.339 354.447 499.397 354.447 505.053"/><path class="cls-16" d="M375.173,512.59c.359-.207.691-.422,1.012-.642l-1.413-.816V512.8C374.9,512.728,375.044,512.664,375.173,512.59Z"/><path class="cls-15" d="M376.185,511.948a10.564,10.564,0,0,0,3.176-3.221c-.036-.06-.078-.118-.116-.178l-4.473,2.583Z"/><path class="cls-17" d="M350.723,507.2v-5.657l-5.3,3.06v2.538a7.412,7.412,0,0,0,1.256,2.393Z"/><path class="cls-12" d="M376.12,505.46c-.3-.2-.613-.4-.947-.6s-.675-.362-1.022-.534l-.79.522c.447.236.889.477,1.321.726.192.112.374.227.562.34Z"/><path class="cls-18" d="M376.12,505.46c-.3-.2-.613-.4-.947-.6s-.675-.362-1.022-.534v-5.868q.671.354,1.32.726c.193.111.374.226.562.339Z"/><path class="cls-85" d="M375.039,500.761a1.807,1.807,0,0,1,1.028-1.518l-1.838-1.076a1.8,1.8,0,0,0-1.027,1.518c-.123,1.571.718,3.347.59,4.934l1.837,1.076C375.758,504.108,374.916,502.332,375.039,500.761Z"/><path class="cls-86" d="M376.037,499.513l.03-.27a1.807,1.807,0,0,0-1.028,1.518c-.123,1.571.719,3.347.59,4.934l.184-.068c.039-1.528-.719-3.21-.6-4.707A1.809,1.809,0,0,1,376.037,499.513Z"/><path class="cls-87" d="M407.659,516.477c-7.123-4.112-18.675-4.113-25.8,0s-7.123,10.783,0,14.9,18.676,4.114,25.8,0S414.783,520.59,407.659,516.477ZM407.19,531.1c-6.866,3.964-18,3.963-24.862,0s-6.866-10.391,0-14.355,18-3.964,24.862,0S414.056,527.139,407.19,531.1Z"/><path class="cls-88" d="M407.19,523.376c-6.864-3.963-18-3.964-24.862,0a11.37,11.37,0,0,0-4.188,3.863,11.38,11.38,0,0,0,4.188,3.864c6.865,3.963,18,3.964,24.862,0a11.371,11.371,0,0,0,4.188-3.863A11.356,11.356,0,0,0,407.19,523.376Z"/><path class="cls-89" d="M392.119,525.59a1.308,1.308,0,0,1,0,2.477,4.747,4.747,0,0,1-4.29,0,1.308,1.308,0,0,1,0-2.477A4.749,4.749,0,0,1,392.119,525.59Z"/><path class="cls-12" d="M388.111,525.753a4.117,4.117,0,0,1,3.724,0,1.135,1.135,0,0,1,0,2.151,4.115,4.115,0,0,1-3.723,0A1.135,1.135,0,0,1,388.111,525.753Z"/><path class="cls-90" d="M401.935,531.222a4.747,4.747,0,0,0-4.29,0,1.308,1.308,0,0,0,0,2.477,3.353,3.353,0,0,0,.414.2,27.153,27.153,0,0,0,4.611-.91C403,532.383,402.761,531.7,401.935,531.222Z"/><path class="cls-12" d="M401.653,531.385a4.122,4.122,0,0,0-3.725,0,1.136,1.136,0,0,0,0,2.151,3.113,3.113,0,0,0,.7.281,26.909,26.909,0,0,0,3.517-.692C402.625,532.558,402.469,531.857,401.653,531.385Z"/><path class="cls-91" d="M382.328,523.376c6.866-3.964,18-3.963,24.862,0a11.356,11.356,0,0,1,4.188,3.864c2.121-3.556.726-7.655-4.188-10.492-6.864-3.964-18-3.964-24.862,0-4.915,2.837-6.309,6.936-4.188,10.491A11.37,11.37,0,0,1,382.328,523.376Z"/><path class="cls-15" d="M377.441,523.119l5.3-3.059-2.134-1.232A8.748,8.748,0,0,0,377.441,523.119Z"/><path class="cls-15" d="M384.33,516.679l2.133,1.231,5.3-3.059A25.485,25.485,0,0,0,384.33,516.679Z"/><path class="cls-15" d="M403.064,531.795l-3.187,1.839a25.028,25.028,0,0,0,4.358-1.163Z"/><polygon class="cls-16" points="386.463 523.566 384.33 522.335 384.33 516.679 386.463 517.91 386.463 523.566"/><polygon class="cls-17" points="386.463 523.566 391.761 520.507 391.761 514.851 386.463 517.91 386.463 523.566"/><path class="cls-16" d="M407.19,531.1c.358-.207.691-.423,1.012-.642l-1.414-.817v1.669C406.92,531.24,407.061,531.178,407.19,531.1Z"/><path class="cls-15" d="M408.2,530.461a10.586,10.586,0,0,0,3.176-3.221c-.036-.061-.079-.119-.116-.179l-4.474,2.583Z"/><path class="cls-17" d="M382.74,525.716V520.06l-5.3,3.059v2.539a7.4,7.4,0,0,0,1.255,2.392Z"/><path class="cls-12" d="M408.136,523.972c-.3-.2-.613-.4-.946-.6s-.675-.362-1.023-.534l-.789.523q.671.354,1.32.726c.193.111.374.226.562.339Z"/><path class="cls-18" d="M408.136,523.972c-.3-.2-.613-.4-.946-.6s-.675-.362-1.023-.534v-5.868q.671.354,1.32.726c.193.112.375.227.562.34Z"/><path class="cls-92" d="M407.056,519.273a1.807,1.807,0,0,1,1.028-1.518l-1.838-1.076a1.807,1.807,0,0,0-1.028,1.518c-.123,1.571.719,3.347.59,4.934l1.838,1.076C407.774,522.62,406.933,520.844,407.056,519.273Z"/><path class="cls-93" d="M408.054,518.025l.03-.27a1.807,1.807,0,0,0-1.028,1.518c-.123,1.571.718,3.347.59,4.934l.184-.067c.039-1.529-.719-3.211-.6-4.708A1.806,1.806,0,0,1,408.054,518.025Z"/><path class="cls-94" d="M233.176,441.4v.962l29.956-6.047-9.8-6.607Z"/><path class="cls-95" d="M251.8,436.8l11.334-.486.006-.969L253.33,429.7l-.007.97Z"/><path class="cls-96" d="M233.175,442.358,242.983,448l20.148-11.684-9.808-5.637Z"/><polygon class="cls-97" points="258.647 435.278 260.426 436.301 242.408 446.745 235.258 442.635 237.023 441.61 244.391 440.104 258.647 435.278"/><polygon class="cls-98" points="253.274 432.19 258.647 435.278 242.404 444.703 237.023 441.61 253.274 432.19"/></g><g id="arrow_event_critycal"><circle id="Encendido2" class="cls-99" cx="294.806" cy="370.527" r="32.665"/></g></g></svg>