<svg xmlns="http://www.w3.org/2000/svg" viewBox="0 0 333.816 600"><defs><style>.cls-1{fill:#020303;opacity:0.3;}.cls-1,.cls-25{isolation:isolate;}.cls-2{fill:#f4efe9;}.cls-3{fill:#fff;}.cls-4{fill:#d1d1d1;}.cls-5{fill:#e0dcd7;}.cls-6{fill:#cc934c;}.cls-7{fill:#594b44;}.cls-8{fill:#e4bf62;}.cls-9{fill:#fdeb7a;}.cls-10{fill:#6a5952;}.cls-11{fill:#85706b;}.cls-12{fill:#403531;}.cls-13{fill:#d7d1c7;}.cls-14{fill:#a49d97;}.cls-15{fill:#090a0a;}.cls-16{fill:#e6e1dd;}.cls-17{fill:#8ccecd;}.cls-18{fill:#eb5e56;}.cls-19,.cls-25{fill:#18445d;}.cls-20{fill:#2a5e7a;}.cls-21{fill:#2c6380;}.cls-22{fill:#4590b8;}.cls-23{fill:#123242;}.cls-24{fill:#231c1c;}.cls-25{opacity:0.7;}.cls-26{fill:#383838;}</style></defs><g id="Capa_1" data-name="Capa 1"><polygon class="cls-1" points="207.423 519.232 212.865 516.092 146.255 477.639 0.918 561.552 67.533 600 203.104 521.724 328.579 594.171 332.899 591.679 207.423 519.232"/><polygon class="cls-2" points="144.909 384.957 67.533 598.107 0.918 559.656 0.918 333.461 110.617 345.377 144.909 384.957"/><polygon class="cls-3" points="0.918 333.461 146.255 249.547 212.865 288.002 144.909 384.957 67.533 371.911 0.918 333.461"/><path class="cls-4" d="M67.533,371.911v226.2l145.332-83.916V288Z"/><path class="cls-2" d="M81.653,380.391V573.722l114.389-66.07V314.329Z"/><path class="cls-5" d="M85.624,389.14v77.314L189.9,406.234v-77.3Z"/><polygon class="cls-3" points="191.841 327.809 191.841 407.371 85.624 468.704 85.624 466.454 189.897 406.233 189.897 328.936 191.841 327.809"/><path class="cls-5" d="M85.624,484.178v77.3L189.9,501.273V423.98Z"/><polygon class="cls-3" points="191.841 422.849 191.841 502.402 85.624 563.741 85.624 561.484 189.897 501.273 189.897 423.98 191.841 422.849"/><polygon class="cls-3" points="198.757 312.77 198.757 509.216 81.653 576.841 81.653 573.722 196.041 507.652 196.041 314.329 198.757 312.77"/><polygon class="cls-2" points="182.333 362.596 175.601 402.683 169.802 399.338 169.802 358.102 179.352 359.146 182.333 362.596"/><polygon class="cls-3" points="169.802 358.102 182.449 350.808 188.253 354.148 182.333 362.596 175.601 361.458 169.802 358.102"/><path class="cls-4" d="M175.6,361.458v41.225l12.653-7.3V354.148Z"/><path class="cls-6" d="M177.394,384.421v7.31l9.071-5.241v-7.3Z"/><polygon class="cls-7" points="181.929 362.444 177.07 365.245 177.07 362.738 181.929 359.936 181.929 362.444"/><path class="cls-8" d="M175.6,367.591V369.4l12.653-7.307v-1.8Z"/><polygon class="cls-8" points="185.738 390.089 181.46 395.103 176.655 392.332 176.655 388.361 184.565 389.225 185.738 390.089"/><polygon class="cls-9" points="176.655 388.361 187.138 382.313 191.936 385.083 187.148 389.336 181.46 391.136 176.655 388.361"/><path class="cls-6" d="M181.46,391.136V395.1l10.476-6.054v-3.966Z"/><polygon class="cls-2" points="169.285 370.123 162.554 410.217 156.754 406.877 156.754 365.647 166.304 366.678 169.285 370.123"/><polygon class="cls-3" points="156.754 365.647 169.407 358.334 175.207 361.685 169.285 370.123 162.554 368.991 156.754 365.647"/><polygon class="cls-4" points="162.554 368.991 162.554 410.217 175.207 402.921 175.207 361.685 162.554 368.991"/><polygon class="cls-6" points="164.345 391.958 164.345 399.265 173.415 394.029 173.415 386.723 164.345 391.958"/><polygon class="cls-7" points="168.88 369.976 164.023 372.785 164.023 370.277 168.88 367.469 168.88 369.976"/><polygon class="cls-8" points="162.554 375.123 162.554 376.929 175.207 369.63 175.207 367.823 162.554 375.123"/><polygon class="cls-8" points="172.682 397.626 168.416 402.636 163.608 399.866 163.608 395.899 171.519 396.757 172.682 397.626"/><polygon class="cls-9" points="163.608 395.899 174.085 389.84 178.888 392.617 174.096 396.868 168.416 398.665 163.608 395.899"/><polygon class="cls-6" points="168.416 398.665 168.416 402.636 178.888 396.579 178.888 392.617 168.416 398.665"/><polygon class="cls-2" points="156.237 377.662 149.503 417.754 143.701 414.404 143.701 373.174 153.256 374.212 156.237 377.662"/><polygon class="cls-3" points="143.701 373.174 156.353 365.873 162.152 369.223 156.237 377.662 149.503 376.524 143.701 373.174"/><polygon class="cls-4" points="149.503 376.524 149.503 417.754 162.152 410.448 162.152 369.223 149.503 376.524"/><polygon class="cls-6" points="151.294 399.491 151.294 406.802 160.368 401.567 160.368 394.256 151.294 399.491"/><polygon class="cls-7" points="155.827 377.503 150.972 380.312 150.972 377.804 155.827 374.996 155.827 377.503"/><polygon class="cls-8" points="149.503 382.661 149.503 384.468 162.152 377.156 162.152 375.354 149.503 382.661"/><polygon class="cls-8" points="159.63 405.159 155.363 410.164 150.556 407.398 150.556 403.426 158.466 404.295 159.63 405.159"/><polygon class="cls-9" points="150.556 403.426 161.036 397.379 165.84 400.155 161.042 404.394 155.363 406.207 150.556 403.426"/><polygon class="cls-6" points="155.363 406.207 155.363 410.164 165.84 404.116 165.84 400.155 155.363 406.207"/><polygon class="cls-2" points="143.187 385.19 136.452 425.286 130.657 421.942 130.657 380.707 140.202 381.739 143.187 385.19"/><polygon class="cls-3" points="130.657 380.707 143.302 373.406 149.105 376.756 143.187 385.19 136.452 384.057 130.657 380.707"/><polygon class="cls-4" points="136.452 384.057 136.452 425.286 149.105 417.98 149.105 376.756 136.452 384.057"/><polygon class="cls-6" points="138.243 407.029 138.243 414.337 147.314 409.1 147.314 401.787 138.243 407.029"/><polygon class="cls-7" points="142.778 385.047 137.923 387.85 137.923 385.341 142.778 382.534 142.778 385.047"/><polygon class="cls-8" points="136.452 390.194 136.452 392 149.105 384.689 149.105 382.888 136.452 390.194"/><polygon class="cls-8" points="146.584 412.698 142.315 417.701 137.508 414.93 137.508 410.97 145.418 411.823 146.584 412.698"/><polygon class="cls-9" points="137.508 410.97 147.989 404.91 152.793 407.688 147.998 411.939 142.315 413.741 137.508 410.97"/><polygon class="cls-6" points="142.315 413.741 142.315 417.701 152.793 411.65 152.793 407.688 142.315 413.741"/><polygon class="cls-2" points="130.139 392.728 123.404 432.82 117.604 429.475 117.604 388.24 127.152 389.282 130.139 392.728"/><polygon class="cls-3" points="117.604 388.24 130.254 380.944 136.056 384.29 130.139 392.728 123.404 391.589 117.604 388.24"/><polygon class="cls-4" points="123.404 391.589 123.404 432.82 136.056 425.521 136.056 384.29 123.404 391.589"/><polygon class="cls-6" points="125.195 414.568 125.195 421.869 134.265 416.632 134.265 409.327 125.195 414.568"/><polygon class="cls-7" points="129.73 392.58 124.871 395.387 124.871 392.88 129.73 390.072 129.73 392.58"/><polygon class="cls-8" points="123.404 397.726 123.404 399.533 136.056 392.228 136.056 390.425 123.404 397.726"/><polygon class="cls-8" points="133.534 420.231 129.267 425.234 124.458 422.464 124.458 418.496 132.367 419.356 133.534 420.231"/><polygon class="cls-9" points="124.458 418.496 134.935 412.45 139.742 415.221 134.949 419.471 129.267 421.272 124.458 418.496"/><polygon class="cls-6" points="129.267 421.272 129.267 425.234 139.742 419.187 139.742 415.221 129.267 421.272"/><polygon class="cls-2" points="104.037 407.793 97.303 447.891 91.508 444.545 91.508 403.311 101.053 404.342 104.037 407.793"/><polygon class="cls-3" points="91.508 403.311 117.204 388.477 123.004 391.816 104.037 407.793 97.303 406.661 91.508 403.311"/><path class="cls-4" d="M97.3,406.661v41.231l25.7-14.84V391.817Z"/><polygon class="cls-7" points="103.629 407.65 98.772 410.453 98.772 407.951 103.629 405.143 103.629 407.65"/><path class="cls-8" d="M97.3,412.8v1.8L123,399.759v-1.8Z"/><polygon class="cls-6" points="99.507 414.983 99.507 422.29 108.578 417.054 108.578 409.747 99.507 414.983"/><polygon class="cls-10" points="118.458 426.486 115.921 434.147 113.063 432.498 113.063 425.466 117.768 425.973 118.458 426.486"/><polygon class="cls-11" points="113.063 425.466 119.29 421.869 122.146 423.511 119.296 426.041 115.921 427.109 113.063 425.466"/><polygon class="cls-12" points="115.921 427.109 115.921 434.147 122.146 430.555 122.146 423.511 115.921 427.109"/><polygon class="cls-8" points="107.849 420.646 103.575 425.658 98.772 422.886 98.772 418.919 106.682 419.784 107.849 420.646"/><polygon class="cls-9" points="98.772 418.919 109.251 412.871 114.054 415.642 109.26 419.893 103.575 421.694 98.772 418.919"/><polygon class="cls-6" points="103.575 421.694 103.575 425.658 114.054 419.609 114.054 415.642 103.575 421.694"/><polygon class="cls-13" points="182.333 457.879 124.474 527.412 118.671 524.065 118.671 482.836 179.352 454.428 182.333 457.879"/><polygon class="cls-13" points="118.671 482.836 182.449 446.09 188.253 449.43 182.333 457.879 124.474 486.183 118.671 482.836"/><path class="cls-14" d="M124.474,486.183v41.229l63.78-36.749V449.429Z"/><path class="cls-4" d="M129,490.89v24.657l49.668-28.671V462.215Z"/><polygon class="cls-7" points="176.19 467.403 176.19 471.907 146.79 488.874 146.79 487.965 175.407 471.448 175.407 467.86 176.19 467.403"/><polygon class="cls-14" points="175.407 467.86 175.407 471.448 146.79 487.965 146.79 484.391 175.407 467.86"/><polygon class="cls-14" points="137.524 507.207 130.958 510.996 130.958 500.807 137.524 497.011 137.524 507.207"/><polygon class="cls-15" points="136.669 498.909 136.669 506.293 131.814 509.1 131.814 507.798 135.559 505.642 135.559 499.546 136.669 498.909"/><polygon class="cls-7" points="135.559 499.546 135.559 505.642 131.814 507.798 131.814 501.716 135.559 499.546"/><polygon class="cls-16" points="134.621 501.067 134.621 505.197 132.751 506.265 132.751 502.154 134.621 501.067"/><polygon class="cls-14" points="144.09 503.408 137.524 507.207 137.524 497.011 144.09 493.219 144.09 503.408"/><polygon class="cls-3" points="130.958 491.965 130.958 498.819 144.09 491.243 144.09 484.379 130.958 491.965"/><polygon class="cls-17" points="132.106 492.434 132.106 495.065 137.14 492.157 137.14 489.527 132.106 492.434"/><polygon class="cls-15" points="143.232 495.117 143.232 502.502 138.381 505.309 138.381 504.002 142.125 501.848 142.125 495.754 143.232 495.117"/><polygon class="cls-7" points="142.125 495.754 142.125 501.848 138.381 504.002 138.381 497.915 142.125 495.754"/><polygon class="cls-16" points="141.19 497.281 141.19 501.406 139.32 502.485 139.32 498.36 141.19 497.281"/><polygon class="cls-14" points="150.656 499.619 144.09 503.408 144.09 493.219 150.656 489.433 150.656 499.619"/><polygon class="cls-15" points="149.798 491.328 149.798 498.708 144.949 501.515 144.949 500.215 148.692 498.064 148.692 491.965 149.798 491.328"/><polygon class="cls-7" points="148.692 491.965 148.692 498.064 144.949 500.215 144.949 494.13 148.692 491.965"/><polygon class="cls-16" points="147.757 493.482 147.757 497.612 145.884 498.703 145.884 494.566 147.757 493.482"/><polygon class="cls-14" points="157.223 495.832 150.656 499.619 150.656 489.433 157.223 485.643 157.223 495.832"/><polygon class="cls-15" points="156.364 487.537 156.364 494.921 151.515 497.726 151.515 496.421 155.257 494.273 155.257 488.171 156.364 487.537"/><polygon class="cls-7" points="155.257 488.171 155.257 494.273 151.515 496.421 151.515 490.344 155.257 488.171"/><polygon class="cls-16" points="154.32 489.7 154.32 493.823 152.453 494.904 152.453 490.772 154.32 489.7"/><polygon class="cls-14" points="163.791 492.034 157.223 495.832 157.223 485.643 163.791 481.852 163.791 492.034"/><polygon class="cls-15" points="162.932 483.743 162.932 491.132 158.081 493.936 158.081 492.628 161.832 490.474 161.832 484.379 162.932 483.743"/><polygon class="cls-7" points="161.832 484.379 161.832 490.474 158.081 492.628 158.081 486.55 161.832 484.379"/><polygon class="cls-16" points="160.889 485.908 160.889 490.031 159.025 491.111 159.025 486.988 160.889 485.908"/><polygon class="cls-14" points="170.355 488.244 163.791 492.034 163.791 481.852 170.355 478.058 170.355 488.244"/><polygon class="cls-15" points="169.502 479.951 169.502 487.333 164.644 490.143 164.644 488.836 168.396 486.687 168.396 480.588 169.502 479.951"/><polygon class="cls-7" points="168.396 480.588 168.396 486.687 164.644 488.836 164.644 482.763 168.396 480.588"/><polygon class="cls-16" points="167.458 482.115 167.458 486.247 165.583 487.314 165.583 483.201 167.458 482.115"/><polygon class="cls-18" points="176.924 484.453 170.355 488.244 170.355 478.058 176.924 474.264 176.924 484.453"/><polygon class="cls-15" points="176.07 476.162 176.07 483.549 171.218 486.356 171.218 485.054 174.957 482.9 174.957 476.799 176.07 476.162"/><polygon class="cls-7" points="174.957 476.799 174.957 482.9 171.218 485.054 171.218 478.964 174.957 476.799"/><polygon class="cls-16" points="174.022 478.316 174.022 482.451 172.157 483.52 172.157 479.407 174.022 478.316"/><polygon class="cls-2" points="104.037 503.075 97.303 543.172 91.508 539.823 91.508 498.587 101.053 499.631 104.037 503.075"/><polygon class="cls-3" points="91.508 498.587 117.204 483.755 123.004 487.099 104.037 503.075 97.303 501.943 91.508 498.587"/><path class="cls-4" d="M97.3,501.943v41.229l25.7-14.84V487.1Z"/><polygon class="cls-7" points="103.629 502.921 98.772 505.73 98.772 503.219 103.629 500.424 103.629 502.921"/><polygon class="cls-7" points="116.401 495.553 111.54 498.353 111.54 495.849 116.401 493.039 116.401 495.553"/><path class="cls-8" d="M97.3,508.075v1.8L123,495.043v-1.8Z"/><polygon class="cls-6" points="99.507 528.148 99.507 535.454 108.578 530.214 108.578 522.908 99.507 528.148"/><polygon class="cls-6" points="111.54 521.164 111.54 528.477 120.615 523.234 120.615 515.928 111.54 521.164"/><polygon class="cls-8" points="119.885 526.832 115.613 531.835 110.807 529.068 110.807 525.102 118.718 525.97 119.885 526.832"/><polygon class="cls-9" points="110.807 525.102 121.287 519.055 126.091 521.822 121.294 526.072 115.613 527.88 110.807 525.102"/><polygon class="cls-6" points="115.613 527.88 115.613 531.835 126.091 525.791 126.091 521.822 115.613 527.88"/><polygon class="cls-8" points="107.849 533.816 103.575 538.82 98.772 536.048 98.772 532.084 106.682 532.948 107.849 533.816"/><polygon class="cls-9" points="98.772 532.084 109.251 526.037 114.054 528.806 109.26 533.052 103.575 534.855 98.772 532.084"/><polygon class="cls-6" points="103.575 534.855 103.575 538.82 114.054 532.773 114.054 528.806 103.575 534.855"/><polygon class="cls-19" points="202.976 350.538 202.976 350.855 202.224 351.287 201.961 350.823 202.976 350.538"/><polygon class="cls-20" points="202.224 350.97 202.224 351.287 201.145 351.287 200.379 350.538 202.224 350.97"/><polygon class="cls-21" points="201.145 350.97 201.145 351.287 200.379 350.855 200.379 350.538 201.145 350.97"/><polygon class="cls-22" points="200.379 349.928 200.379 350.538 201.145 350.97 202.224 350.97 202.976 350.538 202.976 349.928 202.224 349.495 201.145 349.495 200.379 349.928"/><polygon class="cls-19" points="203.236 341.605 203.236 350.649 202.324 351.176 202.015 341.921 203.236 341.605"/><polygon class="cls-20" points="202.324 342.121 202.324 351.176 201.022 351.176 200.139 341.605 202.324 342.121"/><polygon class="cls-21" points="201.022 342.121 201.022 351.176 200.139 350.649 200.139 341.605 201.022 342.121"/><polygon class="cls-23" points="200.139 340.841 200.139 341.605 201.022 342.121 202.324 342.121 203.236 341.605 203.236 340.841 202.324 340.335 201.022 340.335 200.139 340.841"/><polygon class="cls-19" points="203.236 332.223 203.236 341.268 202.324 341.81 202.015 332.55 203.236 332.223"/><polygon class="cls-20" points="202.324 332.739 202.324 341.81 201.022 341.81 200.139 332.223 202.324 332.739"/><polygon class="cls-21" points="201.022 332.739 201.022 341.81 200.139 341.268 200.139 332.223 201.022 332.739"/><polygon class="cls-22" points="200.139 331.475 200.139 332.223 201.022 332.739 202.324 332.739 203.236 332.223 203.236 331.475 202.324 330.954 201.022 330.954 200.139 331.475"/><polygon class="cls-19" points="202.976 331.828 202.976 332.113 202.224 332.56 201.961 332.091 202.976 331.828"/><polygon class="cls-20" points="202.224 332.238 202.224 332.56 201.145 332.56 200.379 331.828 202.224 332.238"/><polygon class="cls-21" points="201.145 332.238 201.145 332.56 200.379 332.113 200.379 331.828 201.145 332.238"/><polygon class="cls-22" points="200.379 331.195 200.379 331.828 201.145 332.238 202.224 332.238 202.976 331.828 202.976 331.195 202.224 330.754 201.145 330.754 200.379 331.195"/><polygon class="cls-19" points="202.976 493.165 202.976 493.477 202.224 493.908 201.961 493.449 202.976 493.165"/><polygon class="cls-20" points="202.224 493.598 202.224 493.908 201.145 493.908 200.379 493.165 202.224 493.598"/><polygon class="cls-21" points="201.145 493.598 201.145 493.908 200.379 493.477 200.379 493.165 201.145 493.598"/><polygon class="cls-22" points="200.379 492.547 200.379 493.165 201.145 493.598 202.224 493.598 202.976 493.165 202.976 492.547 202.224 492.119 201.145 492.119 200.379 492.547"/><polygon class="cls-19" points="203.236 484.223 203.236 493.271 202.324 493.797 202.015 484.543 203.236 484.223"/><polygon class="cls-20" points="202.324 484.737 202.324 493.797 201.022 493.797 200.139 484.223 202.324 484.737"/><polygon class="cls-21" points="201.022 484.737 201.022 493.797 200.139 493.271 200.139 484.223 201.022 484.737"/><polygon class="cls-23" points="200.139 483.468 200.139 484.223 201.022 484.737 202.324 484.737 203.236 484.223 203.236 483.468 202.324 482.957 201.022 482.957 200.139 483.468"/><polygon class="cls-19" points="203.236 474.846 203.236 483.894 202.324 484.427 202.015 475.17 203.236 474.846"/><polygon class="cls-20" points="202.324 475.36 202.324 484.427 201.022 484.427 200.139 474.846 202.324 475.36"/><polygon class="cls-21" points="201.022 475.36 201.022 484.427 200.139 483.894 200.139 474.846 201.022 475.36"/><polygon class="cls-22" points="200.139 474.098 200.139 474.846 201.022 475.36 202.324 475.36 203.236 474.846 203.236 474.098 202.324 473.575 201.022 473.575 200.139 474.098"/><polygon class="cls-19" points="202.976 474.439 202.976 474.728 202.224 475.182 201.961 474.711 202.976 474.439"/><polygon class="cls-20" points="202.224 474.86 202.224 475.182 201.145 475.182 200.379 474.439 202.224 474.86"/><polygon class="cls-21" points="201.145 474.86 201.145 475.182 200.379 474.728 200.379 474.439 201.145 474.86"/><polygon class="cls-22" points="200.379 473.824 200.379 474.439 201.145 474.86 202.224 474.86 202.976 474.439 202.976 473.824 202.224 473.376 201.145 473.376 200.379 473.824"/><path class="cls-24" d="M292.286,468.894,243,440.432l-4.1-7.152,25.948-33.435,5.638,3.25,25.938,63.383Z"/><polygon class="cls-8" points="293.592 464.473 269.207 404.964 269.207 404.964 266.104 403.169 266.104 403.169 241.725 434.557 243.934 438.375 291.375 465.753 293.592 464.473"/><polygon class="cls-24" points="272.684 417.455 262.296 423.871 264.92 433.279 259.047 445.212 269.414 438.777 266.821 429.395 272.684 417.455"/><path class="cls-19" d="M206.727,310.341l-4.313,2.5L328.58,385.679V582.052l4.319-2.492V383.188Z"/><path class="cls-25" d="M204.932,314.286l1.8,192.428L328.579,577.07V385.68Z"/><polygon class="cls-19" points="328.579 577.071 328.579 582.053 202.414 509.202 202.414 312.838 206.727 315.324 206.727 506.715 328.579 577.071"/></g><g id="arrow_event_critycal"><circle id="Encendido2" class="cls-26" cx="142.631" cy="195.909" r="32.665"/></g></svg>