<svg xmlns="http://www.w3.org/2000/svg" viewBox="0 0 256.509 600"><defs><style>.cls-1{fill:#79af2b;}.cls-2{fill:#9ec41a;}.cls-3{fill:#234156;}.cls-4{fill:#d1c5bb;}.cls-5{fill:#c5b5a9;}.cls-6,.cls-8{fill:#efe8e1;}.cls-6{opacity:0.3;}.cls-7{fill:#375b71;}.cls-9{fill:#e1d8cf;}.cls-10{fill:#2fbce7;}.cls-11{fill:#5cc4e6;opacity:0.5;}.cls-12{fill:#383838;}</style></defs><g id="Capa_1" data-name="Capa 1"><rect class="cls-1" x="1.343" y="506.907" width="254.152" height="19.468"/><ellipse class="cls-1" cx="128.43" cy="525.15" rx="127.088" ry="74.85"/><ellipse class="cls-2" cx="128.43" cy="509.488" rx="127.088" ry="74.85"/><path class="cls-3" d="M13.488,496.038H8.463V387.9c0-7.4,2.566-13.125,7.04-15.708,3.846-2.222,8.627-1.909,13.461.882l28.878,16.673L55.329,394.1,26.451,377.422c-2.273-1.314-5.587-2.529-8.435-.884-2.878,1.661-4.528,5.8-4.528,11.357Z"/><ellipse class="cls-3" cx="10.961" cy="495.888" rx="2.498" ry="1.682"/><path class="cls-4" d="M21.34,300.051V501.11c0,34.921,48.066,63.23,107.358,63.23s107.357-28.309,107.357-63.23V300.051Z"/><path class="cls-5" d="M64.208,300.051H21.34V501.11c0,20.665,16.837,39.012,42.868,50.55Z"/><path class="cls-6" d="M171.259,300.051V559.165c38.115-9.707,64.8-32.042,64.8-58.055V300.051Z"/><path class="cls-7" d="M128.7,556.707c-59.292,0-107.358-28.309-107.358-63.23v7.633c0,34.921,48.066,63.23,107.358,63.23s107.357-28.309,107.357-63.23v-7.633C236.055,528.4,187.989,556.707,128.7,556.707Z"/><path class="cls-7" d="M128.7,378.88c-59.292,0-107.358-28.31-107.358-63.23v7.633c0,34.92,48.066,63.23,107.358,63.23s107.357-28.31,107.357-63.23V315.65C236.055,350.57,187.989,378.88,128.7,378.88Z"/><ellipse class="cls-8" cx="128.697" cy="304.33" rx="107.358" ry="63.23"/><ellipse class="cls-4" cx="128.697" cy="302.954" rx="91.309" ry="53.778"/><path class="cls-9" d="M128.7,254.3c48.969,0,88.927,22.706,91.2,51.217.068-.85.11-1.7.11-2.562,0-29.7-40.881-53.777-91.308-53.777s-91.31,24.077-91.31,53.777c0,.859.042,1.712.11,2.562C39.769,277.005,79.727,254.3,128.7,254.3Z"/><ellipse class="cls-10" cx="128.697" cy="305.516" rx="91.199" ry="51.217"/><path class="cls-4" d="M128.7,262.916c46.387,0,84.676,20.361,90.572,46.734a32.525,32.525,0,0,0,.626-4.134c-2.271-28.511-42.229-51.217-91.2-51.217s-88.929,22.706-91.2,51.217a32.525,32.525,0,0,0,.626,4.134C44.021,283.277,82.309,262.916,128.7,262.916Z"/><path class="cls-10" d="M128.7,356.732c46.574,0,84.971-20.544,90.572-47.082-5.9-26.373-44.185-46.734-90.572-46.734S44.021,283.277,38.124,309.65C43.725,336.188,82.122,356.732,128.7,356.732Z"/><path class="cls-11" d="M156.94,353.827c-3.085-5.556-6.365-10.992-11.077-15.34-10.225-9.435-24.516-12.31-37.054-17.377-5.088-2.057-11.441-4.41-14.818-9.008-2.209-3.008-1.452-6.273.284-9.293,2.06-3.584,4.662-6.838,5.642-10.941a13,13,0,0,0-.853-8.166c-.954-2.394-2.09-4.776-2.025-7.417.135-5.518,4.129-8.961,8.917-11.612-4.369.663-8.655,1.449-12.747,2.467-2.581,2.1-5.366,3.974-7.841,6.184a20.606,20.606,0,0,0-4.456,5.822c-.523,1-1.313,2.538-.294,3.467.941.857,2.579,1.091,3.755,1.431a19.246,19.246,0,0,1,4.875,1.949c3.087,1.919,5.293,5.808,4.246,9.48-.989,3.466-4.489,5.449-7.689,6.508-6.887,2.278-16.7,2.148-21.216-4.355a80.158,80.158,0,0,1-7.238-13.042,9.663,9.663,0,0,1-.422-1.145c-9.92,7.411-16.61,16.393-18.8,26.211a35.827,35.827,0,0,0,3.592,9.647c2.749-3.05,5.509-6.139,9.065-8.178,5.156-2.955,11.6-5.477,17.475-3.218,5.206,2,8.787,6.4,13.292,9.477,7.889,5.391,17.3,8.407,26.12,11.869,9.075,3.56,18.723,7.294,26.235,13.688a29.1,29.1,0,0,1,9.017,13.135c4.856-.447,9.582-1.125,14.152-2Z"/><path class="cls-11" d="M184.416,335.621c-3.507-4.675-5.95-10.08-9.676-14.6-1.556-1.888-3.448-4.073-5.7-5.132a23.547,23.547,0,0,0-6.366-1.583c-4.485-.707-9.714-.993-13.475-3.831-2.883-2.177-4.553-6.577-2.023-9.643,2.377-2.882,6.819-3.649,10.3-4.147,9.4-1.347,19.3.248,28.083-3.95,5.282-2.526,9.722-6.491,14.819-9.3-11.287-8.415-26.708-14.816-44.507-18.08-.978,6.355-6.7,10.615-11.12,14.733-2.443,2.277-4.555,4.775-7.329,6.68a81.529,81.529,0,0,1-8.731,4.914c-5.842,3.031-12.062,6.484-13.664,13.409-.536,2.318-.007,4.214,2.244,5.219,2.4,1.068,5.235,1.207,7.8,1.49a180.07,180.07,0,0,1,19.609,3.462c6.906,1.552,14.107,3.653,19.9,7.877a21.6,21.6,0,0,1,5.761,5.89c1.069,1.717,1.983,3.532,2.893,5.336,2.2,4.363,4.337,8.76,6.634,13.074a100.305,100.305,0,0,0,11.354-5.362A27.072,27.072,0,0,1,184.416,335.621Z"/><path class="cls-7" d="M49.893,529.545c-1.268,2.2-3.362,3.279-4.767,2.468s-1.515-3.167-.247-5.363,3.362-3.281,4.768-2.469S51.161,527.349,49.893,529.545Zm-4.037-2.331c-1,1.731-.89,3.4-.166,3.821s2.226-.324,3.226-2.055.89-3.4.167-3.822S46.856,525.482,45.856,527.214Z"/><polygon class="cls-7" points="50.176 526.581 44.791 529.736 44.506 529.249 49.891 526.093 50.176 526.581"/><polygon class="cls-7" points="47.603 531.037 47.644 524.795 47.079 524.793 47.039 531.034 47.603 531.037"/><rect class="cls-7" x="49.213" y="526.226" width="1.128" height="6.191" transform="translate(-433.519 307.773) rotate(-60)"/><path class="cls-7" d="M52.736,530.382c-.159-.092-.414.052-.569.322s-.154.563,0,.655.414-.053.57-.323S52.9,530.474,52.736,530.382Z"/><path class="cls-7" d="M72.209,540.33c-1.268,2.2-3.362,3.279-4.768,2.468s-1.514-3.167-.246-5.363,3.362-3.281,4.768-2.469S73.476,538.134,72.209,540.33ZM68.172,538c-1,1.731-.89,3.4-.166,3.822s2.226-.324,3.225-2.055.891-3.4.168-3.823S69.172,536.267,68.172,538Z"/><polygon class="cls-7" points="72.492 537.366 67.107 540.522 66.822 540.034 72.207 536.878 72.492 537.366"/><polygon class="cls-7" points="69.919 541.822 69.959 535.581 69.395 535.578 69.354 541.819 69.919 541.822"/><rect class="cls-7" x="71.529" y="537.011" width="1.128" height="6.191" transform="translate(-431.701 332.492) rotate(-60)"/><path class="cls-7" d="M75.052,541.167c-.159-.092-.414.053-.57.322s-.153.563.006.655.414-.053.57-.322S75.211,541.259,75.052,541.167Z"/><path class="cls-3" d="M218.149,549.38a1.255,1.255,0,0,1-1.257-1.256V340.217a1.257,1.257,0,0,1,2.513,0V548.124A1.255,1.255,0,0,1,218.149,549.38Z"/><path class="cls-3" d="M218.147,341.474a1.253,1.253,0,0,1-.627-.168l-15.832-9.141a1.257,1.257,0,0,1,1.257-2.177l15.832,9.141a1.257,1.257,0,0,1-.63,2.345Z"/><path class="cls-3" d="M195.711,562.372a1.256,1.256,0,0,1-1.256-1.256V353.209a1.256,1.256,0,1,1,2.512,0V561.116A1.256,1.256,0,0,1,195.711,562.372Z"/><path class="cls-3" d="M195.71,354.465a1.25,1.25,0,0,1-.627-.168l-15.832-9.141a1.256,1.256,0,1,1,1.256-2.176l15.832,9.141a1.256,1.256,0,0,1-.629,2.344Z"/><rect class="cls-3" x="193.955" y="544.488" width="26.21" height="2.513" transform="translate(-245.099 176.606) rotate(-29.995)"/><rect class="cls-3" x="193.955" y="529.985" width="26.21" height="2.513" transform="translate(-237.849 174.664) rotate(-29.995)"/><rect class="cls-3" x="193.955" y="515.093" width="26.21" height="2.513" transform="translate(-230.404 172.669) rotate(-29.995)"/><rect class="cls-3" x="193.955" y="500.591" width="26.21" height="2.513" transform="translate(-223.154 170.727) rotate(-29.995)"/><rect class="cls-3" x="193.955" y="485.699" width="26.21" height="2.513" transform="translate(-215.709 168.733) rotate(-29.995)"/><rect class="cls-3" x="193.955" y="470.798" width="26.21" height="2.513" transform="translate(-208.26 166.737) rotate(-29.995)"/><rect class="cls-3" x="193.955" y="455.906" width="26.21" height="2.513" transform="translate(-200.815 164.742) rotate(-29.995)"/><rect class="cls-3" x="193.955" y="441.403" width="26.21" height="2.513" transform="translate(-193.565 162.8) rotate(-29.995)"/><rect class="cls-3" x="193.955" y="426.511" width="26.21" height="2.513" transform="translate(-186.12 160.806) rotate(-29.995)"/><rect class="cls-3" x="193.955" y="411.62" width="26.21" height="2.513" transform="translate(-178.675 158.811) rotate(-29.995)"/><rect class="cls-3" x="193.955" y="396.718" width="26.21" height="2.513" transform="translate(-171.226 156.815) rotate(-29.995)"/><rect class="cls-3" x="193.955" y="381.827" width="26.21" height="2.513" transform="translate(-163.781 154.821) rotate(-29.995)"/><rect class="cls-3" x="193.955" y="367.324" width="26.21" height="2.513" transform="translate(-156.531 152.879) rotate(-29.995)"/><rect class="cls-3" x="193.955" y="352.432" width="26.21" height="2.513" transform="translate(-149.086 150.884) rotate(-29.995)"/><path class="cls-3" d="M56.615,560.909H51.59V356.473c0-9.339,5.561-19.864,12.659-23.964,3.552-2.05,7.1-2.262,9.974-.6,3.3,1.907,5.2,6.062,5.2,11.4v4.929l-5.025-2.05v-2.879c0-3.442-1-6.076-2.685-7.047-1.617-.935-3.582-.187-4.949.6-5.5,3.175-10.147,12.157-10.147,19.611Z"/><path class="cls-3" d="M56.586,560.909c0,.929-1.119,1.682-2.5,1.682s-2.5-.753-2.5-1.682,1.118-1.681,2.5-1.681S56.586,559.981,56.586,560.909Z"/><path class="cls-3" d="M78.75,569.07H73.725V364.633c0-9.338,5.561-19.863,12.66-23.963,3.551-2.05,7.1-2.262,9.974-.6,3.3,1.906,5.2,6.062,5.2,11.4v2.9L96.532,353.3v-1.833c0-3.441-1-6.075-2.686-7.047-1.617-.934-3.582-.186-4.949.6-5.5,3.175-10.147,12.156-10.147,19.61Z"/><ellipse class="cls-3" cx="76.223" cy="569.07" rx="2.498" ry="1.682"/><ellipse class="cls-4" cx="129.273" cy="315.58" rx="107.373" ry="63.239"/><rect class="cls-4" x="21.9" y="305.368" width="214.734" height="10.211"/><ellipse class="cls-8" cx="129.273" cy="304.665" rx="107.373" ry="63.239"/><ellipse class="cls-4" cx="129.273" cy="303.597" rx="100.011" ry="58.473"/><path class="cls-4" d="M129.273,252c53.259,0,96.778,24.343,99.825,55.034.113-1.139.186-2.283.186-3.438,0-32.294-44.776-58.473-100.011-58.473S29.262,271.3,29.262,303.6c0,1.155.073,2.3.186,3.438C32.495,276.344,76.014,252,129.273,252Z"/><ellipse class="cls-9" cx="129.273" cy="307.035" rx="99.825" ry="55.034"/></g><g id="arrow_event_critycal"><circle id="Encendido2" class="cls-12" cx="128.255" cy="195.909" r="32.665"/></g></svg>