<svg xmlns="http://www.w3.org/2000/svg" viewBox="0 0 436.646 600"><defs><style>.cls-1{isolation:isolate;}.cls-2{fill:#40363f;}.cls-3{fill:#1d191d;}.cls-4{fill:#f49622;}.cls-5{fill:#fab83d;}.cls-6,.cls-9{fill:#010101;}.cls-6{mix-blend-mode:overlay;opacity:0.3;}.cls-7{fill:#d8dde0;}.cls-8{fill:#4d4f50;}.cls-10{fill:#383838;}</style></defs><g class="cls-1"><g id="Capa_1" data-name="Capa 1"><path class="cls-2" d="M247.83,329.06c41.447-23.931,108.643-23.931,150.09,0C418.642,341.024,429,356.707,429,372.39s-10.361,31.365-31.084,43.33c-41.447,23.931-108.643,23.931-150.09,0S206.385,352.99,247.83,329.06Z"/><path class="cls-3" d="M429,372.39c0,12.011-10.361,24.023-31.084,33.187-41.447,18.329-108.643,18.329-150.09,0-20.688-9.149-31.049-21.136-31.083-33.127,0,3.034,0,94.744,0,106.557,0,12.011,10.362,24.023,31.084,33.187,41.447,18.329,108.643,18.329,150.09,0C418.643,503.03,429,491.018,429,479.007Z"/><path class="cls-4" d="M247.83,329.06l-.007-27.512c-26.819,15.489-36.279,37.2-28.382,57.084C223.746,347.794,233.209,337.5,247.83,329.06Z"/><path class="cls-5" d="M51.692,500.8h0c68.135,39.341,178.6,39.341,246.737,0l130.825-75.538c4.528-2.615,6.795-6.041,6.8-9.467s-2.261-6.874-6.8-9.5l-31.335-18.093c-41.446,23.931-108.642,23.931-150.089,0s-41.445-62.73,0-86.661L215.359,282.8c-9.069-5.237-23.773-5.237-32.841,0L51.692,358.333C-16.443,397.674-16.443,461.458,51.692,500.8Z"/><path class="cls-4" d="M429.254,421.831,298.429,470c-68.135,25.087-178.6,25.087-246.737,0h0C17.625,457.456.591,441.016.591,424.576V530.889c0,16.44,17.034,32.88,51.1,45.423h0c38.83,14.3,91.411,20.446,142.068,18.447,6.235-.246,11.672-2.779,13.9-6.5,13.9-23.274,24.627-31.282,38.968-33.913,10.8-1.981,24.8,5.895,36.419,19.283,3,3.463,9.907,4.7,15.284,2.722l.1-.037,130.825-48.17c4.535-1.669,6.8-3.857,6.8-6.046v-106.3C436.049,417.979,433.782,420.163,429.254,421.831Z"/><path class="cls-6" d="M2.224,443.357c5,21.013,21.49,41.288,49.468,57.442h0c28.492,16.452,64.387,26.024,101.493,28.716l244.734-141.31c-41.446,23.931-108.642,23.931-150.089,0s-41.445-62.725-.007-86.657Z"/><path class="cls-6" d="M51.692,581.9c25.844,9.7,57.779,15.719,91.184,18.061,5.513.386,10.309-2.448,10.309-6.051V499.358h0c-37.106-1.75-73-7.971-101.493-18.665h0c-27.978-10.5-44.467-23.678-49.468-37.336h0v93.9c0,7.907,3.512,15.674,10.332,22.222,8.508,8.168,21.553,15.825,39.136,22.424Z"/><path class="cls-7" d="M247.83,388.205a112.569,112.569,0,0,0,12.565,6.214l21.555-12.472a7.32,7.32,0,0,0,3.195-5.7V361.52a12.658,12.658,0,0,0-18.987-10.962l-38.033,21.958A77.38,77.38,0,0,0,247.83,388.205Z"/><path class="cls-5" d="M285.145,361.52a12.658,12.658,0,0,0-18.987-10.962l-38.033,21.958a73.452,73.452,0,0,0,15.383,13.043l41.637-24.039Z"/><path class="cls-4" d="M243.508,385.559q2.081,1.35,4.322,2.646a112.569,112.569,0,0,0,12.565,6.214l21.555-12.472a7.32,7.32,0,0,0,3.195-5.7V361.52Z"/><path class="cls-8" d="M137.489,543.69a407.241,407.241,0,0,1-42.688-5.9c-1.579-.308-2.65-1.245-2.65-2.3V532.3c0-1.013,1.533-1.745,3.053-1.45a407.373,407.373,0,0,0,41.767,5.774c1.866.163,3.25,1.187,3.25,2.388v3.147C140.221,543.093,138.935,543.816,137.489,543.69Z"/><path class="cls-8" d="M4.736,495.326c3.384,5.059,8.416,10,15.1,14.7.672.474,1.911.169,1.911-.47v-3.1a4.628,4.628,0,0,0-2.219-3.662A58.274,58.274,0,0,1,4.951,488.626c-.289-.423-1.278-.288-1.278.173v3.137A6.044,6.044,0,0,0,4.736,495.326Z"/><path class="cls-8" d="M34.684,516.987a3.385,3.385,0,0,0,2.242,2.85q6.9,3.276,15.065,6.291c5.584,2.056,11.445,3.948,17.539,5.675,1.176.334,2.5-.21,2.5-1.031v-3.2c0-1.258-1.156-2.4-2.956-2.915-5.931-1.693-11.64-3.542-17.085-5.547q-7.956-2.928-14.7-6.12c-1.079-.509-2.6-.021-2.6.835Z"/><path class="cls-8" d="M137.489,561.236a406.974,406.974,0,0,1-42.688-5.9c-1.579-.308-2.65-1.244-2.65-2.3v-3.192c0-1.014,1.533-1.745,3.053-1.451a407.093,407.093,0,0,0,41.767,5.775c1.866.163,3.25,1.187,3.25,2.388v3.146C140.221,560.638,138.935,561.361,137.489,561.236Z"/><path class="cls-8" d="M4.736,512.872c3.384,5.059,8.416,10,15.1,14.705.672.473,1.911.169,1.911-.47V524a4.627,4.627,0,0,0-2.219-3.662A58.291,58.291,0,0,1,4.951,506.172c-.289-.423-1.278-.288-1.278.173v3.137A6.044,6.044,0,0,0,4.736,512.872Z"/><path class="cls-8" d="M34.684,534.533a3.385,3.385,0,0,0,2.242,2.85q6.9,3.274,15.065,6.291c5.584,2.056,11.445,3.948,17.539,5.676,1.176.333,2.5-.211,2.5-1.032v-3.2c0-1.257-1.156-2.4-2.956-2.914-5.931-1.693-11.64-3.542-17.085-5.547q-7.956-2.929-14.7-6.12c-1.079-.509-2.6-.021-2.6.834Z"/><path class="cls-8" d="M137.489,578.782a407.238,407.238,0,0,1-42.688-5.9c-1.579-.308-2.65-1.244-2.65-2.3V567.4c0-1.013,1.533-1.745,3.053-1.45a407.1,407.1,0,0,0,41.767,5.773c1.866.164,3.25,1.188,3.25,2.389v3.146C140.221,578.184,138.935,578.907,137.489,578.782Z"/><path class="cls-8" d="M4.736,530.418c3.384,5.059,8.416,10,15.1,14.705.672.473,1.911.169,1.911-.47v-3.1a4.627,4.627,0,0,0-2.219-3.662A58.291,58.291,0,0,1,4.951,523.718c-.289-.423-1.278-.288-1.278.173v3.137A6.047,6.047,0,0,0,4.736,530.418Z"/><path class="cls-8" d="M34.684,552.079a3.382,3.382,0,0,0,2.242,2.849q6.9,3.276,15.065,6.292c5.584,2.056,11.445,3.947,17.539,5.675,1.176.334,2.5-.21,2.5-1.031v-3.2c0-1.258-1.156-2.4-2.956-2.914-5.931-1.693-11.64-3.542-17.085-5.547q-7.956-2.929-14.7-6.12c-1.079-.51-2.6-.021-2.6.834Z"/><path class="cls-9" d="M140.221,539.015c0-1.2-1.384-2.225-3.25-2.388A407.373,407.373,0,0,1,95.2,530.853a3.588,3.588,0,0,0-.455-.059,1.074,1.074,0,0,0-.214.632v3.192c0,1.053,1.07,1.989,2.649,2.3a406.9,406.9,0,0,0,42.688,5.9l.118.008a1.1,1.1,0,0,0,.231-.659Z"/><path class="cls-9" d="M21.743,506.457a4.628,4.628,0,0,0-2.219-3.662A60.8,60.8,0,0,1,6.055,490.163v.9a6.043,6.043,0,0,0,1.064,3.39c3.3,4.939,8.179,9.765,14.624,14.37Z"/><path class="cls-9" d="M69.076,524.656c-5.931-1.693-11.64-3.542-17.085-5.547q-7.956-2.928-14.7-6.12a2.068,2.068,0,0,0-.218-.088v3.209a3.382,3.382,0,0,0,2.242,2.849q6.9,3.276,15.065,6.291c5.584,2.057,11.445,3.948,17.539,5.676l.1.026a.762.762,0,0,0,.021-.179v-3.2C72.032,526.313,70.876,525.17,69.076,524.656Z"/><path class="cls-9" d="M140.221,556.561c0-1.2-1.384-2.225-3.25-2.388A407.093,407.093,0,0,1,95.2,548.4a3.775,3.775,0,0,0-.455-.058,1.074,1.074,0,0,0-.214.632v3.192c0,1.052,1.07,1.989,2.649,2.3a407.165,407.165,0,0,0,42.688,5.9l.118.008a1.1,1.1,0,0,0,.231-.66Z"/><path class="cls-9" d="M21.743,524a4.627,4.627,0,0,0-2.219-3.662A60.781,60.781,0,0,1,6.055,507.709v.9A6.043,6.043,0,0,0,7.119,512c3.3,4.939,8.179,9.765,14.624,14.37Z"/><path class="cls-9" d="M69.076,542.2c-5.931-1.693-11.64-3.542-17.085-5.547q-7.956-2.929-14.7-6.12a1.873,1.873,0,0,0-.218-.088v3.209a3.382,3.382,0,0,0,2.242,2.849q6.9,3.276,15.065,6.292c5.584,2.055,11.445,3.947,17.539,5.675l.1.026a.764.764,0,0,0,.021-.18v-3.2C72.032,543.859,70.876,542.716,69.076,542.2Z"/><path class="cls-9" d="M140.221,574.107c0-1.2-1.384-2.225-3.25-2.389A407.1,407.1,0,0,1,95.2,565.945a3.588,3.588,0,0,0-.455-.059,1.074,1.074,0,0,0-.214.631v3.192c0,1.053,1.07,1.99,2.649,2.3a407.43,407.43,0,0,0,42.688,5.9l.118.008a1.1,1.1,0,0,0,.231-.66Z"/><path class="cls-9" d="M21.743,541.549a4.627,4.627,0,0,0-2.219-3.662A60.8,60.8,0,0,1,6.055,525.255v.895a6.043,6.043,0,0,0,1.064,3.391c3.3,4.939,8.179,9.764,14.624,14.37Z"/><path class="cls-9" d="M69.076,559.748c-5.931-1.693-11.64-3.542-17.085-5.547q-7.956-2.929-14.7-6.12a1.873,1.873,0,0,0-.218-.088V551.2a3.384,3.384,0,0,0,2.242,2.849q6.9,3.276,15.065,6.291c5.584,2.056,11.445,3.948,17.539,5.676l.1.025a.762.762,0,0,0,.021-.179v-3.2C72.032,561.4,70.876,560.261,69.076,559.748Z"/></g><g id="arrow_event_critycal"><circle id="Encendido2" class="cls-10" cx="218.323" cy="224.858" r="32.665"/></g></g></svg>