<svg xmlns="http://www.w3.org/2000/svg" xmlns:xlink="http://www.w3.org/1999/xlink" viewBox="0 0 329.326 600"><defs><style>.cls-1{isolation:isolate;}.cls-11,.cls-2,.cls-22{fill:#29548b;}.cls-3{fill:url(#Áåçûìÿííûé_ãðàäèåíò_163);}.cls-4{fill:#3c67b0;}.cls-5{fill:url(#Áåçûìÿííûé_ãðàäèåíò_163-2);}.cls-6{fill:#cec4b7;}.cls-7{fill:#dfd4ca;}.cls-16,.cls-8{fill:#f2e8df;}.cls-9{fill:#325e9d;}.cls-10{fill:url(#Áåçûìÿííûé_ãðàäèåíò_25);}.cls-11,.cls-16{opacity:0.6;}.cls-12,.cls-22{opacity:0.5;}.cls-13{fill:#1d416b;}.cls-14{fill:#919292;}.cls-15{fill:url(#Áåçûìÿííûé_ãðàäèåíò_179);}.cls-16,.cls-23{mix-blend-mode:screen;}.cls-17{fill:#2c5186;}.cls-18{fill:#ce4a4a;}.cls-19{fill:url(#Áåçûìÿííûé_ãðàäèåíò_25-2);}.cls-20{fill:url(#Áåçûìÿííûé_ãðàäèåíò_25-3);}.cls-21{fill:url(#Áåçûìÿííûé_ãðàäèåíò_19);}.cls-23{opacity:0.4;fill:url(#Áåçûìÿííûé_ãðàäèåíò_31);}.cls-24{fill:url(#Áåçûìÿííûé_ãðàäèåíò_153);}.cls-25{fill:url(#Áåçûìÿííûé_ãðàäèåíò_153-2);}.cls-26{fill:url(#Áåçûìÿííûé_ãðàäèåíò_163-3);}.cls-27{fill:url(#Áåçûìÿííûé_ãðàäèåíò_163-4);}.cls-28{fill:#363633;}.cls-29{fill:#d6a828;}.cls-30{fill:#43a2db;}</style><linearGradient id="Áåçûìÿííûé_ãðàäèåíò_163" x1="-764.586" y1="-14.182" x2="-716.885" y2="-14.182" gradientTransform="matrix(-0.5, 0.866, -0.866, -0.5, -206.211, 959.288)" gradientUnits="userSpaceOnUse"><stop offset="0" stop-color="#3b66af"/><stop offset="0.857" stop-color="#285792"/><stop offset="1" stop-color="#295894"/></linearGradient><linearGradient id="Áåçûìÿííûé_ãðàäèåíò_163-2" x1="-762.808" y1="-32.388" x2="-718.761" y2="-32.388" xlink:href="#Áåçûìÿííûé_ãðàäèåíò_163"/><linearGradient id="Áåçûìÿííûé_ãðàäèåíò_25" x1="-983.883" y1="313.093" x2="-1026.78" y2="387.393" gradientTransform="matrix(-1, 0, 0, 1, -760.381, 0)" gradientUnits="userSpaceOnUse"><stop offset="0" stop-color="#3c67b0"/><stop offset="1" stop-color="#325e9d"/></linearGradient><linearGradient id="Áåçûìÿííûé_ãðàäèåíò_179" x1="-924.515" y1="376.195" x2="-942.229" y2="406.877" gradientTransform="matrix(-1, 0, 0, 1, -760.381, 0)" gradientUnits="userSpaceOnUse"><stop offset="0" stop-color="#f2e8df"/><stop offset="0.632" stop-color="#d8cec2"/><stop offset="1" stop-color="#cec4b7"/></linearGradient><linearGradient id="Áåçûìÿííûé_ãðàäèåíò_25-2" x1="-871.598" y1="394.249" x2="-904.238" y2="450.783" xlink:href="#Áåçûìÿííûé_ãðàäèåíò_25"/><linearGradient id="Áåçûìÿííûé_ãðàäèåíò_25-3" x1="-832.632" y1="411.235" x2="-864.553" y2="466.525" xlink:href="#Áåçûìÿííûé_ãðàäèåíò_25"/><radialGradient id="Áåçûìÿííûé_ãðàäèåíò_19" cx="-816.738" cy="427.473" r="70.067" gradientTransform="matrix(-1, 0, 0, 1, -760.381, 0)" gradientUnits="userSpaceOnUse"><stop offset="0" stop-color="#3c67b0"/><stop offset="0.719" stop-color="#325e9d"/><stop offset="1" stop-color="#29548b"/></radialGradient><linearGradient id="Áåçûìÿííûé_ãðàäèåíò_31" x1="-824.686" y1="420.709" x2="-842.848" y2="441.929" gradientTransform="matrix(-1, 0, 0, 1, -760.381, 0)" gradientUnits="userSpaceOnUse"><stop offset="0" stop-color="#3c67b0"/><stop offset="0.268" stop-color="#315590"/><stop offset="0.854" stop-color="#14263e"/><stop offset="1" stop-color="#0d1a29"/></linearGradient><linearGradient id="Áåçûìÿííûé_ãðàäèåíò_153" x1="-1018.724" y1="313.404" x2="-974.679" y2="313.404" gradientTransform="matrix(-1, 0, 0, 1, -760.381, 0)" gradientUnits="userSpaceOnUse"><stop offset="0" stop-color="#29548b"/><stop offset="1" stop-color="#325e9d"/></linearGradient><linearGradient id="Áåçûìÿííûé_ãðàäèåíò_153-2" x1="-1020.503" y1="299.222" x2="-972.803" y2="299.222" xlink:href="#Áåçûìÿííûé_ãðàäèåíò_153"/><linearGradient id="Áåçûìÿííûé_ãðàäèåíò_163-3" x1="-762.809" y1="-123.114" x2="-718.763" y2="-123.114" xlink:href="#Áåçûìÿííûé_ãðàäèåíò_163"/><linearGradient id="Áåçûìÿííûé_ãðàäèåíò_163-4" x1="-764.588" y1="-137.295" x2="-716.887" y2="-137.295" xlink:href="#Áåçûìÿííûé_ãðàäèåíò_163"/></defs><g class="cls-1"><g id="Capa_1" data-name="Capa 1"><g id="_5" data-name="5"><g id="Axonometric_Cylinder" data-name="Axonometric Cylinder"><path id="Cylinder_face" data-name="Cylinder face" class="cls-2" d="M167.469,337.353c0-10.143,7.121-22.476,15.905-27.547s15.9-.96,15.9,9.182-7.12,22.476-15.9,27.548S167.469,347.5,167.469,337.353Z"/><path id="Cylinder_body" data-name="Cylinder body" class="cls-3" d="M172.232,347.709,170.14,346.5c-2.939-1.635-4.763-5.224-4.763-10.356,0-10.142,7.121-22.475,15.905-27.547,4.339-2.5,8.272-2.769,11.142-1.173l2.092,1.208c-2.869-1.6-6.8-1.332-11.142,1.173-8.784,5.071-15.9,17.4-15.9,27.547C167.469,342.486,169.293,346.073,172.232,347.709Z"/></g><g id="Axonometric_Cylinder-2" data-name="Axonometric Cylinder"><path id="Cylinder_face-2" data-name="Cylinder face" class="cls-4" d="M195.6,352.184c0-9.365,6.575-20.754,14.685-25.437s14.686-.886,14.686,8.479-6.575,20.754-14.686,25.437S195.6,361.55,195.6,352.184Z"/><path id="Cylinder_body-2" data-name="Cylinder body" class="cls-5" d="M199.992,361.746l-25.225-14.564c-2.715-1.51-4.4-4.823-4.4-9.562,0-9.366,6.575-20.754,14.686-25.436,4.007-2.314,7.639-2.558,10.288-1.084l25.226,14.564c-2.649-1.474-6.281-1.23-10.289,1.083-8.11,4.683-14.685,16.072-14.685,25.437C195.6,356.923,197.278,360.236,199.992,361.746Z"/></g><g id="Axonometric_Cube" data-name="Axonometric Cube"><polygon id="Cube_face_-_left" data-name="Cube face - left" class="cls-6" points="90.45 600 328.225 462.72 328.225 423.865 90.45 561.145 90.45 600"/><polygon id="Cube_face_-_right" data-name="Cube face - right" class="cls-7" points="1.101 548.414 90.45 600 90.45 561.145 1.101 509.559 1.101 548.414"/><polygon id="Cube_face_-_top" data-name="Cube face - top" class="cls-8" points="90.45 561.145 328.225 423.865 238.876 372.28 1.101 509.559 90.45 561.145"/></g><g id="Axonometric_Cube-2" data-name="Axonometric Cube"><polygon id="Cube_face_-_left-2" data-name="Cube face - left" class="cls-2" points="90.554 551.575 313.106 423.085 313.106 413.596 90.554 542.086 90.554 551.575"/><polygon id="Cube_face_-_right-2" data-name="Cube face - right" class="cls-9" points="17.782 509.559 90.554 551.575 90.554 542.086 17.782 500.07 17.782 509.559"/><polygon id="Cube_face_-_top-2" data-name="Cube face - top" class="cls-4" points="90.554 542.086 313.106 413.596 240.333 371.58 17.782 500.07 90.554 542.086"/></g><g class="cls-1"><polygon class="cls-2" points="227.624 409.78 285.619 376.077 285.526 412.093 227.53 445.796 227.624 409.78"/><path class="cls-10" d="M241.752,302.556c5.524-3.21,13.172-2.759,21.615,2.115,16.785,9.691,30.358,33.2,30.3,52.488-.026,9.081-3.086,15.564-8.051,18.918l-58,33.7c4.965-3.354,8.026-9.837,8.051-18.918.055-19.287-13.518-42.8-30.3-52.488-8.442-4.874-16.09-5.325-21.614-2.115Z"/><path class="cls-11" d="M235.675,390.862l58-33.7c-.026,9.081-3.086,15.564-8.051,18.918l-58,33.7C232.589,406.426,235.65,399.943,235.675,390.862Z"/><path class="cls-9" d="M205.371,338.374c-16.784-9.691-30.43-1.9-30.485,17.392-.025,9.08,2.988,19.071,7.9,28.128l-.094,36.016L227.53,445.8l.094-36.016c4.965-3.354,8.026-9.837,8.052-18.918C235.73,371.575,222.157,348.065,205.371,338.374Z"/></g><g class="cls-12"><path class="cls-13" d="M177.166,355.686a2.683,2.683,0,0,0,.58,2.846,2.854,2.854,0,0,0,.793.707c.55.318,1.089.3,1.391-.123.436-.617.187-1.887-.581-2.846a2.943,2.943,0,0,0-.789-.7C178.007,355.255,177.469,355.274,177.166,355.686Z"/><path class="cls-13" d="M185.08,380.682c-.854-.235-1.361.486-1.139,1.6a3.558,3.558,0,0,0,1.544,2.256,1.731,1.731,0,0,0,.41.176c.854.219,1.36-.486,1.125-1.6a3.529,3.529,0,0,0-1.531-2.249A1.721,1.721,0,0,0,185.08,380.682Z"/><path class="cls-13" d="M186.728,343.223a1.7,1.7,0,0,0,.405.172c.853.235,1.374-.478,1.139-1.6a3.526,3.526,0,0,0-1.525-2.236,1.729,1.729,0,0,0-.429-.18c-.854-.235-1.36.47-1.126,1.588A3.565,3.565,0,0,0,186.728,343.223Z"/><path class="cls-13" d="M203.491,400.6c-.556-.321-1.1-.3-1.392.113-.45.625-.187,1.9.581,2.846a2.849,2.849,0,0,0,.792.707c.55.318,1.09.3,1.392-.122.436-.618.173-1.9-.58-2.846A2.965,2.965,0,0,0,203.491,400.6Z"/><path class="cls-13" d="M203.862,342.3a2.684,2.684,0,0,0,.581,2.846,2.858,2.858,0,0,0,.795.71c.549.317,1.087.3,1.388-.109a2.683,2.683,0,0,0-.58-2.846,2.931,2.931,0,0,0-.8-.714C204.7,341.871,204.164,341.893,203.862,342.3Z"/><path class="cls-13" d="M221.579,403.059c-.853-.236-1.36.486-1.125,1.6a3.537,3.537,0,0,0,1.519,2.231,1.727,1.727,0,0,0,.421.177c.854.235,1.36-.487,1.14-1.6A3.561,3.561,0,0,0,222,403.236,1.658,1.658,0,0,0,221.579,403.059Z"/><path class="cls-13" d="M223.237,365.605a1.787,1.787,0,0,0,.409.175c.854.219,1.36-.486,1.139-1.6a3.6,3.6,0,0,0-1.545-2.257,1.7,1.7,0,0,0-.409-.175c-.854-.22-1.36.486-1.139,1.6A3.6,3.6,0,0,0,223.237,365.605Z"/><path class="cls-13" d="M230.175,387.214c-.552-.318-1.087-.3-1.379.115-.45.626-.187,1.9.58,2.847a2.891,2.891,0,0,0,.8.71c.549.316,1.087.3,1.388-.11.437-.633.174-1.911-.58-2.846A2.942,2.942,0,0,0,230.175,387.214Z"/></g><g id="Axonometric_Cylinder-3" data-name="Axonometric Cylinder"><path id="Cylinder_face-3" data-name="Cylinder face" class="cls-14" d="M147.338,420.81c0,7.988-5.608,11.226-12.526,7.233s-12.526-13.708-12.526-21.7,5.608-11.226,12.526-7.232S147.338,412.823,147.338,420.81Z"/><path id="Cylinder_body-3" data-name="Cylinder body" class="cls-15" d="M125.873,398.285l67.583-39.018c2.273-1.361,5.438-1.191,8.938.829,6.918,4,12.526,13.708,12.526,21.7,0,3.946-1.368,6.733-3.587,8.061L143.75,428.872c2.219-1.328,3.588-4.115,3.588-8.062,0-7.987-5.608-17.7-12.526-21.695C131.311,397.094,128.147,396.925,125.873,398.285Z"/></g><path class="cls-16" d="M201.961,359.872c.145.078.287.14.433.224a22.728,22.728,0,0,1,5.98,5.2L140.792,404.32a22.744,22.744,0,0,0-5.98-5.2c-.146-.084-.288-.147-.434-.225Z"/><g class="cls-1"><polygon class="cls-2" points="130.435 499.712 145.751 490.811 136.843 451.748 121.526 460.649 130.435 499.712"/><polygon class="cls-17" points="121.526 460.649 136.843 451.748 112.783 437.858 97.467 446.759 121.526 460.649"/><polygon class="cls-9" points="97.467 446.759 88.367 475.424 130.435 499.712 121.526 460.649 97.467 446.759"/></g><g class="cls-1"><polygon class="cls-2" points="87.599 524.443 102.915 515.543 94.006 476.48 78.69 485.381 87.599 524.443"/><polygon class="cls-17" points="78.69 485.381 94.006 476.48 69.947 462.59 54.631 471.491 78.69 485.381"/><polygon class="cls-9" points="54.631 471.491 45.53 500.155 87.599 524.443 78.69 485.381 54.631 471.491"/></g><g class="cls-1"><path class="cls-18" d="M159.827,424.394c-.077,4.036-.31,16.32-13.054,24.108,4.219-2.452,6.792-7.725,6.7-15.2,4.277-2.485,6.393-5.711,6.354-8.91Z"/><path class="cls-2" d="M123.2,450.9l30.278-17.6c4.277-2.485,6.393-5.711,6.354-8.91-.012.6-.027,1.4-.038,2-.067.8-.149,1.864-.251,2.659l-.34,1.952c-.223.905-.529,2.109-.8,3l-.681,1.852c-.452,1-1.091,2.314-1.61,3.279l-1.054,1.671a24.719,24.719,0,0,1-2.652,3.266l-1.439,1.39a26.971,26.971,0,0,1-4.188,3.038l-30.279,17.6C120.713,463.646,123.286,458.373,123.2,450.9Z"/><path class="cls-19" d="M114.235,392.506c.272-.157.55-.3.835-.435a25.471,25.471,0,0,1,14.06-2.966,29.839,29.839,0,0,1,15.235,5.779c5.617,3.928,15.195,14.564,15.462,29.51.039,3.2-2.077,6.425-6.354,8.91L123.2,450.9a43.663,43.663,0,0,0-3.974-16.775,55.3,55.3,0,0,0-8.887-13.975A40.337,40.337,0,0,0,99.9,411.477C93.66,408,88.038,407.73,83.957,410.1Z"/><path class="cls-9" d="M123.2,450.9c.18,14.7-9.958,20.893-22.644,13.823S77.436,440,77.256,425.3s9.958-20.893,22.643-13.823S123.015,436.2,123.2,450.9Z"/><path class="cls-13" d="M153.064,438.456c.034-.183.058-.377.088-.564-.036.223-.066.452-.108.67l-30.279,17.6a24.122,24.122,0,0,0,.341-2.565c10.092-5.865,20.184-11.73,30.289-17.714,5.576-3.33,6.092-6.925,6.34-8.653C159.41,430.239,159.273,434.848,153.064,438.456Zm-1.611,4.928c4.025-2.34,5.351-5.158,6.791-8.923a13.342,13.342,0,0,1-5.969,6.981L122,459.037a16.328,16.328,0,0,1-.866,2.022l30.279-17.6c.088-.171.166-.352.249-.529C151.592,443.083,151.527,443.238,151.453,443.384Zm-2.687,3.636a18.936,18.936,0,0,0,5.4-4.989,14.814,14.814,0,0,1-4.136,3.608L119.754,463.23a11.887,11.887,0,0,1-1.323,1.438C153.992,444,148.766,447.02,148.766,447.02Zm7.643-37.233c.369.81-2.129,2.93-7.272,5.938l-30.278,17.6q.68,1.473,1.265,2.973L150.4,418.7c-.19-.487-.194-.5-.006-.013C159.137,413.45,157.556,412.318,156.409,409.787Zm1.924,5.063c.575,1.951-1.66,4.721-6.627,7.621l-30.279,17.6q.454,1.51.8,3.021l30.28-17.6c-.06-.261-.129-.522-.193-.783.064.258.132.516.19.774C160.678,420.465,159.151,417.782,158.333,414.85Zm-12.705-5.571q-15.139,8.8-30.278,17.6.871,1.378,1.663,2.808l30.279-17.6c-.251-.455-.258-.466-.009-.019,5.22-3.046,7.552-4.51,7.8-4.9-.675-1.179-.4-.719-1.194-2.013-.2-.3-3.093,1.1-8.268,4.107ZM159.55,420.51c.368,2.872-1.758,6.055-6.371,8.743l-30.279,17.6q.193,1.489.262,2.954l30.28-17.6c-.032-.677-.037-.787,0,0C160.229,427.944,160.047,424.746,159.55,420.51Zm-28.539-26.148q-15.138,8.8-30.278,17.6,1.239.742,2.445,1.613l30.279-17.6c-.21-.151-.227-.163-.027-.019,4.549-2.643,8.384-2.9,10.8-1.168-2.473-1.67-5.963-4.677-13.249-.442Zm-10.524-3.4L90.21,408.554a15.734,15.734,0,0,1,2.167.188l30.279-17.6c-.19-.029-.376-.046-.563-.068.177.021.352.036.532.064a13.069,13.069,0,0,1,8.55-1.807c-3.1-.353-6.481-.839-10.718,1.623ZM141.334,403.4l-30.279,17.6q1.029,1.222,1.993,2.525l30.28-17.6c-.322-.434-.332-.447-.016-.02,5.237-2.976,8.233-4.044,8.907-3.177-.439-.564-1.022-1.319-1.477-1.869-1.02-1.2-4.357-.426-9.425,2.519Zm-15.813-11.563-30.278,17.6a23.584,23.584,0,0,1,2.392.915l30.279-17.6c-.207-.093-.227-.1-.03-.014,3.854-2.24,7.54-2.566,10.511-1.29-2.959-1.183-6.961-3.075-12.9.379Zm10.888,6.5-30.277,17.6q1.15,1.012,2.253,2.127l30.279-17.6c-.351-.355-.365-.369-.021-.021,4.935-2.868,8.5-3.381,10.034-1.849-2.086-2.03-4.31-4.916-12.29-.278Zm-15.222-8.566c.459-.115.911-.224,1.312-.313C122.059,389.536,121.622,389.645,121.187,389.769Zm-35.4,19.483a11.736,11.736,0,0,1,1.877-.5l30.279-17.6c-.166.03-.326.072-.489.108.153-.034.3-.074.458-.1a14.349,14.349,0,0,1,3.272-1.394,17.514,17.514,0,0,0-5.123,1.889Z"/></g><g class="cls-1"><path class="cls-20" d="M82.247,405.463c4.948-2.876,11.838-2.391,19.4,2.126,14.692,8.777,26.355,29.459,26.051,46.194-.148,8.123-3.087,13.822-7.754,16.534L81.1,492.888l-37.7-64.854Z"/><path class="cls-2" d="M72.332,477.573l54.654-31.761a40.956,40.956,0,0,1,.711,7.971c-.148,8.123-3.087,13.822-7.754,16.534L81.1,492.888Z"/><path class="cls-21" d="M31.306,450.635c-.18,15.7,9.256,32.514,22.945,40.885a30.681,30.681,0,0,0,13.054,4.4,23.409,23.409,0,0,0,13.8-3.027c4.667-2.712,7.606-8.411,7.754-16.534.3-16.735-11.359-37.417-26.051-46.194-7.561-4.518-14.451-5-19.4-2.126C32.083,434.927,31.519,446.339,31.306,450.635Z"/><path class="cls-22" d="M88.174,468.37a40.886,40.886,0,0,1,.719,8.016c-.147,8.122-3.087,13.822-7.754,16.534a23.412,23.412,0,0,1-13.8,3.027,30.663,30.663,0,0,1-13.054-4.395,49.12,49.12,0,0,1-17.94-20.17C47.5,487.508,76.476,477.624,88.174,468.37Z"/><path class="cls-23" d="M42.17,455.105c1.647-14.7,2.032-21.639,14.9-29.382,4.834-2.907,36.764-21.448,36.764-21.448a28.757,28.757,0,0,1,7.808,3.314,49.549,49.549,0,0,1,13.048,11.8c-2.42,1.435-33.869,16.436-40.7,22.643-5.265,4.786-14.732,15.921-17.245,21.765C51.108,463.413,46.4,459.146,42.17,455.105Z"/><path class="cls-9" d="M52.044,448.373c8.832,5.276,15.843,17.709,15.66,27.769S60.213,490.08,51.381,484.8s-15.843-17.71-15.66-27.77S43.212,443.1,52.044,448.373Z"/><path class="cls-13" d="M50.486,482.811a25.43,25.43,0,0,1-4.042-3.4L56.985,485.5a13.16,13.16,0,0,1-4.047-1.271Zm-1.075-15.372a6.092,6.092,0,0,1-.46-1.331l-11.781-6.8c.012.368.039.744.079,1.111ZM60.069,485.4a6.426,6.426,0,0,0,1.2-.388L42.176,473.984c.38.612.788,1.207,1.2,1.772ZM48.956,464.23a1.754,1.754,0,0,1,.466-.8L37.26,456.411c-.042.321-.07.665-.085,1.017ZM62.9,484.082a8.432,8.432,0,0,0,.726-.663L39.841,469.69c.231.509.475,1.01.719,1.5Zm1.752-1.936c.165-.265.3-.547.452-.82L38.379,465.9c.149.447.284.886.446,1.34Zm1.071-2.328c.1-.305.165-.626.248-.939L37.529,462.46c.081.407.148.807.242,1.222Zm-11.157-10.47a1.736,1.736,0,0,1-.466.8l12.162,7.022c.042-.32.07-.664.085-1.017Zm-.455-3.21a6.167,6.167,0,0,1,.461,1.331l11.78,6.8c-.012-.368-.039-.743-.078-1.111ZM37.8,453.76c-.1.305-.165.625-.248.938l28.438,16.419c-.081-.407-.148-.807-.242-1.222Zm1.071-2.329c-.164.265-.3.547-.452.82l26.721,15.428c-.149-.446-.284-.885-.446-1.339Zm1.752-1.936a8.136,8.136,0,0,0-.725.664l23.78,13.729c-.231-.509-.475-1.011-.719-1.5Zm2.828-1.314a6.363,6.363,0,0,0-1.2.388l19.1,11.024c-.381-.612-.789-1.207-1.2-1.772Zm7.13,1.17a13.215,13.215,0,0,0-4.047-1.271l10.541,6.087a25.393,25.393,0,0,0-4.042-3.4Z"/></g><g id="Axonometric_Cylinder-4" data-name="Axonometric Cylinder"><path id="Cylinder_face-4" data-name="Cylinder face" class="cls-4" d="M222.221,301.378c8.111,4.683,21.261,4.683,29.372,0s8.111-12.275,0-16.958-21.261-4.682-29.372,0S214.111,296.7,222.221,301.378Z"/><path id="Cylinder_body-4" data-name="Cylinder body" class="cls-24" d="M216.139,292.789v29.128c-.049,3.106,1.979,6.22,6.082,8.589,8.111,4.683,21.261,4.683,29.372,0,4.007-2.313,6.035-5.336,6.083-8.368V293.01c-.048,3.032-2.076,6.055-6.083,8.368-8.111,4.683-21.261,4.683-29.372,0C218.118,299.009,216.09,295.894,216.139,292.789Z"/></g><g id="Axonometric_Cylinder-5" data-name="Axonometric Cylinder"><path id="Cylinder_face-5" data-name="Cylinder face" class="cls-4" d="M221,300.763c8.784,5.072,23.025,5.072,31.809,0s8.783-13.293,0-18.364-23.025-5.071-31.809,0S212.219,295.693,221,300.763Z"/><ellipse id="Cylinder_face-6" data-name="Cylinder face" class="cls-13" cx="236.908" cy="291.581" rx="18.486" ry="10.673"/><path id="Cylinder_body-5" data-name="Cylinder body" class="cls-25" d="M214.416,291.462v2.415c-.053,3.363,2.142,6.736,6.587,9.3,8.784,5.072,23.025,5.072,31.809,0,4.339-2.5,6.534-5.779,6.587-9.062V291.7c-.053,3.283-2.248,6.558-6.587,9.062-8.784,5.072-23.025,5.072-31.809,0C216.558,298.2,214.363,294.825,214.416,291.462Z"/></g><g id="Axonometric_Cylinder-6" data-name="Axonometric Cylinder"><path id="Cylinder_face-7" data-name="Cylinder face" class="cls-4" d="M274.164,397.546c0-9.366,6.574-20.754,14.685-25.437s14.686-.886,14.686,8.479-6.575,20.754-14.686,25.437S274.164,406.912,274.164,397.546Z"/><path id="Cylinder_body-6" data-name="Cylinder body" class="cls-26" d="M278.561,407.108l-25.225-14.564c-2.715-1.51-4.4-4.823-4.4-9.562,0-9.366,6.575-20.754,14.686-25.437,4.006-2.313,7.638-2.557,10.288-1.083l25.226,14.564c-2.65-1.474-6.282-1.23-10.289,1.083-8.111,4.683-14.685,16.071-14.685,25.437C274.164,402.285,275.847,405.6,278.561,407.108Z"/></g><g id="Axonometric_Cylinder-7" data-name="Axonometric Cylinder"><path id="Cylinder_face-8" data-name="Cylinder face" class="cls-2" d="M274.086,398.908c0-10.142,7.121-22.475,15.9-27.547s15.9-.96,15.9,9.183-7.12,22.476-15.9,27.547S274.086,409.051,274.086,398.908Z"/><path id="Cylinder_face-9" data-name="Cylinder face" class="cls-13" d="M276.919,397.273c0-8.336,5.853-18.472,13.072-22.64s13.071-.79,13.071,7.547-5.852,18.471-13.071,22.64S276.919,405.609,276.919,397.273Z"/><path id="Cylinder_body-7" data-name="Cylinder body" class="cls-27" d="M278.849,409.264l-2.092-1.208C273.818,406.421,272,402.833,272,397.7c0-10.143,7.12-22.476,15.9-27.547,4.339-2.506,8.272-2.77,11.142-1.173l2.092,1.207c-2.87-1.6-6.8-1.332-11.142,1.173-8.784,5.072-15.9,17.405-15.9,27.547C274.086,404.041,275.91,407.629,278.849,409.264Z"/></g><path class="cls-28" d="M254.745,420.853a3.831,3.831,0,0,0,1.514-1.747,1.7,1.7,0,0,0,0-1.751l-9.071-10.474c-.316-.365-.882-.366-1.514,0a3.815,3.815,0,0,0-1.515,1.748l-9.071,20.949a1.7,1.7,0,0,0,0,1.751c.316.363.882.363,1.515,0Z"/><path class="cls-29" d="M255.468,418.436,246.4,407.962c-.192-.222-.672.055-.863.5l-9.071,20.948c-.192.444.047.721.431.5l18.142-10.474C255.42,419.211,255.66,418.657,255.468,418.436Z"/><path class="cls-28" d="M245.7,419.948c-.215.124-.394.062-.412-.142l-.5-5.8c-.172-1.82,3.064-3.908,2.871-1.658l-.5,6.37a.874.874,0,0,1-.412.617Zm-.682,2.959c0,.668.541.9,1.21.511a2.51,2.51,0,0,0,1.21-1.909c0-.668-.542-.9-1.21-.511A2.507,2.507,0,0,0,245.015,422.907Z"/></g></g><g id="arrow_event_critycal"><circle id="Encendido2" class="cls-30" cx="106.059" cy="312" r="32.665"/></g></g></svg>