<svg xmlns="http://www.w3.org/2000/svg" xmlns:xlink="http://www.w3.org/1999/xlink" viewBox="0 0 390.956 600"><defs><style>.cls-1,.cls-10,.cls-106,.cls-11,.cls-12,.cls-13,.cls-14,.cls-15,.cls-16,.cls-17,.cls-18,.cls-19,.cls-2,.cls-20,.cls-21,.cls-22,.cls-23,.cls-24,.cls-25,.cls-26,.cls-27,.cls-28,.cls-29,.cls-3,.cls-30,.cls-31,.cls-32,.cls-33,.cls-34,.cls-4,.cls-5,.cls-6,.cls-7,.cls-8,.cls-9{fill:none;}.cls-1{clip-rule:evenodd;}.cls-10,.cls-100,.cls-101,.cls-102,.cls-103,.cls-104,.cls-105,.cls-107,.cls-108,.cls-11,.cls-110,.cls-12,.cls-124,.cls-125,.cls-126,.cls-127,.cls-128,.cls-13,.cls-138,.cls-139,.cls-14,.cls-143,.cls-144,.cls-145,.cls-147,.cls-148,.cls-149,.cls-15,.cls-151,.cls-16,.cls-17,.cls-18,.cls-19,.cls-198,.cls-2,.cls-20,.cls-200,.cls-201,.cls-202,.cls-204,.cls-21,.cls-22,.cls-23,.cls-24,.cls-25,.cls-26,.cls-27,.cls-28,.cls-29,.cls-3,.cls-30,.cls-31,.cls-32,.cls-33,.cls-34,.cls-35,.cls-37,.cls-38,.cls-39,.cls-4,.cls-40,.cls-41,.cls-42,.cls-44,.cls-45,.cls-46,.cls-47,.cls-48,.cls-49,.cls-5,.cls-50,.cls-51,.cls-52,.cls-53,.cls-54,.cls-55,.cls-56,.cls-57,.cls-58,.cls-59,.cls-6,.cls-60,.cls-61,.cls-62,.cls-64,.cls-66,.cls-68,.cls-7,.cls-71,.cls-72,.cls-73,.cls-74,.cls-75,.cls-76,.cls-77,.cls-78,.cls-8,.cls-80,.cls-81,.cls-82,.cls-83,.cls-84,.cls-85,.cls-86,.cls-87,.cls-89,.cls-9,.cls-91,.cls-92,.cls-93,.cls-99{fill-rule:evenodd;}.cls-2{clip-path:url(#clip-path);}.cls-4{clip-path:url(#clip-path-2);}.cls-5{clip-path:url(#clip-path-3);}.cls-6{clip-path:url(#clip-path-4);}.cls-7{clip-path:url(#clip-path-5);}.cls-8{clip-path:url(#clip-path-6);}.cls-9{clip-path:url(#clip-path-7);}.cls-10{clip-path:url(#clip-path-8);}.cls-11{clip-path:url(#clip-path-9);}.cls-12{clip-path:url(#clip-path-10);}.cls-13{clip-path:url(#clip-path-13);}.cls-14{clip-path:url(#clip-path-14);}.cls-15{clip-path:url(#clip-path-15);}.cls-16{clip-path:url(#clip-path-16);}.cls-17{clip-path:url(#clip-path-17);}.cls-18{clip-path:url(#clip-path-18);}.cls-19{clip-path:url(#clip-path-19);}.cls-20{clip-path:url(#clip-path-20);}.cls-21{clip-path:url(#clip-path-21);}.cls-22{clip-path:url(#clip-path-22);}.cls-23{clip-path:url(#clip-path-23);}.cls-24{clip-path:url(#clip-path-24);}.cls-25{clip-path:url(#clip-path-25);}.cls-26{clip-path:url(#clip-path-27);}.cls-27{clip-path:url(#clip-path-31);}.cls-28{clip-path:url(#clip-path-34);}.cls-29{clip-path:url(#clip-path-37);}.cls-30{clip-path:url(#clip-path-39);}.cls-31{clip-path:url(#clip-path-40);}.cls-32{clip-path:url(#clip-path-41);}.cls-33{clip-path:url(#clip-path-43);}.cls-34{clip-path:url(#clip-path-44);}.cls-35{fill:#73777b;}.cls-36{clip-path:url(#clip-path-45);}.cls-37{fill:#a9aeb2;}.cls-38{fill:#d8d9db;}.cls-39{fill:#b2b8bd;}.cls-40{fill:#cacbce;}.cls-41{fill:#4e4d4d;}.cls-42{fill:#f1f2f4;}.cls-43{clip-path:url(#clip-path-46);}.cls-44{fill:#f8f7f8;}.cls-45{fill:#7f8a92;}.cls-46{fill:#fbfbfb;}.cls-47{fill:#7f8084;}.cls-48{fill:#9ea2a6;}.cls-49{fill:#dbdde0;}.cls-50{fill:#f0f0f0;}.cls-51{fill:#e5e5e4;}.cls-52{fill:#dbdee0;}.cls-53{fill:#5ca2bc;}.cls-54{fill:#4c8ba3;}.cls-55{fill:#c7c6c6;}.cls-56{fill:#747679;}.cls-57{fill:#4e5459;}.cls-58{fill:#818282;}.cls-59{fill:#88949c;}.cls-60{fill:#d7d7d5;}.cls-61{fill:#a5abaf;}.cls-62{fill:#eaeaea;}.cls-63{clip-path:url(#clip-path-56);}.cls-64{fill:#f2f2f2;}.cls-65{clip-path:url(#clip-path-57);}.cls-66{fill:#5e5e5e;}.cls-67{clip-path:url(#clip-path-58);}.cls-68{fill:#e0e0e0;}.cls-69{clip-path:url(#clip-path-59);}.cls-70{clip-path:url(#clip-path-60);}.cls-71{fill:#f3b012;}.cls-72{fill:#807f7e;}.cls-73{fill:#dedede;}.cls-74{fill:#b6b5b4;}.cls-75{fill:#868686;}.cls-76{fill:#909090;}.cls-77{fill:#757575;}.cls-78{fill:#585858;}.cls-79{clip-path:url(#clip-path-61);}.cls-80{fill:#848484;}.cls-81{fill:#535353;}.cls-82{fill:#686868;}.cls-83{fill:#8e8e8e;}.cls-84{fill:#c77e69;}.cls-85{fill:#a76815;}.cls-86{fill:#b0b0af;}.cls-87{fill:#c5c5c4;}.cls-88{clip-path:url(#clip-path-64);}.cls-89{fill:#626365;}.cls-90{clip-path:url(#clip-path-65);}.cls-91{fill:#aeadad;}.cls-92{fill:#b5b4b4;}.cls-93{fill:#6b7279;}.cls-94{clip-path:url(#clip-path-69);}.cls-95{clip-path:url(#clip-path-73);}.cls-96{clip-path:url(#clip-path-74);}.cls-97{clip-path:url(#clip-path-78);}.cls-98{clip-path:url(#clip-path-82);}.cls-99{fill:#434649;}.cls-100{fill:#cacccf;}.cls-101{fill:#efefef;}.cls-102{fill:#cdd1d4;}.cls-103{fill:#555c61;}.cls-104{fill:#9d9d9d;}.cls-105{fill:#6d6d6d;}.cls-106{stroke:#b3b2b2;stroke-linecap:round;stroke-linejoin:round;stroke-width:2.264px;}.cls-107{fill:#fab81f;}.cls-108{fill:#f8f7f7;}.cls-109{clip-path:url(#clip-path-94);}.cls-110{fill:#666b6f;}.cls-111{clip-path:url(#clip-path-97);}.cls-112{clip-path:url(#clip-path-100);}.cls-113{clip-path:url(#clip-path-103);}.cls-114{clip-path:url(#clip-path-104);}.cls-115{clip-path:url(#clip-path-107);}.cls-116{clip-path:url(#clip-path-108);}.cls-117{clip-path:url(#clip-path-109);}.cls-118{clip-path:url(#clip-path-110);}.cls-119{clip-path:url(#clip-path-111);}.cls-120{clip-path:url(#clip-path-112);}.cls-121{clip-path:url(#clip-path-113);}.cls-122{clip-path:url(#clip-path-114);}.cls-123{clip-path:url(#clip-path-115);}.cls-124{fill:#727272;}.cls-125{fill:#60605f;}.cls-126{fill:#5b5b5b;}.cls-127{fill:#494949;}.cls-128{fill:#393939;}.cls-129{clip-path:url(#clip-path-123);}.cls-130{clip-path:url(#clip-path-124);}.cls-131{clip-path:url(#clip-path-125);}.cls-132{clip-path:url(#clip-path-126);}.cls-133{clip-path:url(#clip-path-127);}.cls-134{clip-path:url(#clip-path-128);}.cls-135{clip-path:url(#clip-path-129);}.cls-136{clip-path:url(#clip-path-130);}.cls-137{clip-path:url(#clip-path-131);}.cls-138{fill:#636363;}.cls-139{fill:#d1d1d1;}.cls-140{clip-path:url(#clip-path-139);}.cls-141{clip-path:url(#clip-path-140);}.cls-142{clip-path:url(#clip-path-141);}.cls-143{fill:#696b6c;}.cls-144{fill:#838a8f;}.cls-145{fill:#54585d;}.cls-146{clip-path:url(#clip-path-143);}.cls-147{fill:#8c929a;}.cls-148{fill:#5d6469;}.cls-149{fill:#494c4e;}.cls-150{clip-path:url(#clip-path-144);}.cls-151{fill:#ccced1;}.cls-152{clip-path:url(#clip-path-145);}.cls-153{clip-path:url(#clip-path-146);}.cls-154{clip-path:url(#clip-path-147);}.cls-155{clip-path:url(#clip-path-148);}.cls-156{clip-path:url(#clip-path-149);}.cls-157{clip-path:url(#clip-path-150);}.cls-158{clip-path:url(#clip-path-151);}.cls-159{clip-path:url(#clip-path-152);}.cls-160{clip-path:url(#clip-path-153);}.cls-161{clip-path:url(#clip-path-154);}.cls-162{clip-path:url(#clip-path-155);}.cls-163{clip-path:url(#clip-path-156);}.cls-164{clip-path:url(#clip-path-157);}.cls-165{clip-path:url(#clip-path-158);}.cls-166{clip-path:url(#clip-path-159);}.cls-167{clip-path:url(#clip-path-160);}.cls-168{clip-path:url(#clip-path-161);}.cls-169{clip-path:url(#clip-path-162);}.cls-170{clip-path:url(#clip-path-163);}.cls-171{clip-path:url(#clip-path-164);}.cls-172{clip-path:url(#clip-path-165);}.cls-173{clip-path:url(#clip-path-166);}.cls-174{clip-path:url(#clip-path-167);}.cls-175{clip-path:url(#clip-path-168);}.cls-176{clip-path:url(#clip-path-169);}.cls-177{clip-path:url(#clip-path-170);}.cls-178{clip-path:url(#clip-path-171);}.cls-179{clip-path:url(#clip-path-172);}.cls-180{clip-path:url(#clip-path-173);}.cls-181{clip-path:url(#clip-path-174);}.cls-182{clip-path:url(#clip-path-175);}.cls-183{clip-path:url(#clip-path-176);}.cls-184{clip-path:url(#clip-path-177);}.cls-185{clip-path:url(#clip-path-178);}.cls-186{clip-path:url(#clip-path-179);}.cls-187{clip-path:url(#clip-path-180);}.cls-188{clip-path:url(#clip-path-181);}.cls-189{clip-path:url(#clip-path-182);}.cls-190{clip-path:url(#clip-path-183);}.cls-191{clip-path:url(#clip-path-184);}.cls-192{clip-path:url(#clip-path-185);}.cls-193{clip-path:url(#clip-path-186);}.cls-194{clip-path:url(#clip-path-187);}.cls-195{clip-path:url(#clip-path-188);}.cls-196{clip-path:url(#clip-path-189);}.cls-197{clip-path:url(#clip-path-190);}.cls-198{fill:#515151;}.cls-199{clip-path:url(#clip-path-191);}.cls-200{fill:#458178;}.cls-201{fill:#4c9288;}.cls-202{fill:#9ea3a6;}.cls-203{clip-path:url(#clip-path-193);}.cls-204{fill:#6e6d6e;}.cls-205{fill:#43a2db;}</style><clipPath id="clip-path"><path class="cls-1" d="M40.274,502.246a.185.185,0,0,0,.072-.166.579.579,0,0,0-.261-.453.186.186,0,0,0-.185-.018h0l-.236.137.16.092,0,0a.608.608,0,0,0,.21.362l-.16.092.16.093.236-.137Z"/></clipPath><clipPath id="clip-path-2"><polygon class="cls-1" points="131.973 471.092 11.404 401.482 11.404 522.292 131.973 591.903 131.973 471.092 131.973 471.092"/></clipPath><clipPath id="clip-path-3"><path class="cls-1" d="M39.817,501.933c-.072-.041-.13-.008-.13.075a.287.287,0,0,0,.13.226c.072.042.131.008.131-.075a.29.29,0,0,0-.131-.226Z"/></clipPath><clipPath id="clip-path-4"><path class="cls-1" d="M40.274,503.459a.187.187,0,0,0,.072-.167.578.578,0,0,0-.261-.452.181.181,0,0,0-.185-.018h0l-.236.136.16.093,0,0a.6.6,0,0,0,.21.362l-.16.093.16.092.236-.136Z"/></clipPath><clipPath id="clip-path-5"><path class="cls-1" d="M39.817,503.146c-.072-.042-.13-.008-.13.075a.286.286,0,0,0,.13.225c.072.042.131.008.131-.075a.287.287,0,0,0-.131-.225Z"/></clipPath><clipPath id="clip-path-6"><path class="cls-1" d="M62.364,515a.187.187,0,0,0,.073-.167.578.578,0,0,0-.261-.452.186.186,0,0,0-.185-.018h0l-.237.137.16.092,0,0a.6.6,0,0,0,.209.363l-.16.092.16.093.236-.137Z"/></clipPath><clipPath id="clip-path-7"><path class="cls-1" d="M111.923,465.976l-1.206-.7V566.785l1.206.7v-101.5Zm-34.287-19.8-1.207-.7V546.989l1.207.7V446.18Z"/></clipPath><clipPath id="clip-path-8"><path class="cls-1" d="M61.907,514.687c-.071-.042-.13-.008-.13.075a.292.292,0,0,0,.13.226c.072.041.131.008.131-.075a.289.289,0,0,0-.131-.226Z"/></clipPath><clipPath id="clip-path-9"><path class="cls-1" d="M62.364,516.212a.185.185,0,0,0,.073-.166.576.576,0,0,0-.261-.452.184.184,0,0,0-.185-.019h0l-.237.137.16.092,0,0a.6.6,0,0,0,.209.362l-.16.093.16.092.236-.137Z"/></clipPath><clipPath id="clip-path-10"><path class="cls-1" d="M61.907,515.9c-.071-.041-.13-.007-.13.076a.288.288,0,0,0,.13.225c.072.042.131.008.131-.075a.29.29,0,0,0-.131-.226Z"/></clipPath><clipPath id="clip-path-13"><polygon class="cls-1" points="272.756 264.413 19.064 410.882 23.951 413.703 277.643 267.234 272.756 264.413 272.756 264.413"/></clipPath><clipPath id="clip-path-14"><path class="cls-1" d="M100.519,490.313a4.836,4.836,0,0,0-2.018-3.855L85.2,478.776c-1.113-.643-2.017.04-2.017,1.525v9.566a4.836,4.836,0,0,0,2.017,3.855L98.5,501.4c1.113.643,2.018-.041,2.018-1.525v-9.566Z"/></clipPath><clipPath id="clip-path-15"><path class="cls-1" d="M100.408,516.849c-.3-.175-.551-.033-.551.319a1.221,1.221,0,0,0,.551.955c.3.175.552.033.552-.319a1.219,1.219,0,0,0-.552-.955Z"/></clipPath><clipPath id="clip-path-16"><path class="cls-1" d="M39.715,403.963l-6.5,3.752L129.4,463.25l6.5-3.752L39.715,403.963Zm13.652-7.882-6.5,3.753,96.189,55.534,6.5-3.752L53.367,396.081ZM67.018,388.2l-6.5,3.752,96.188,55.534,6.5-3.752L67.018,388.2Zm13.652-7.882-6.5,3.752L170.359,439.6l6.5-3.752L80.67,380.318Zm13.652-7.882-6.5,3.752,96.189,55.535,6.5-3.753L94.322,372.436Zm13.651-7.882-6.5,3.752,96.188,55.535,6.5-3.752-96.189-55.535Zm13.652-7.882-6.5,3.753,96.188,55.534,6.5-3.752-96.188-55.535Zm13.651-7.881-6.5,3.752,96.189,55.534,6.5-3.752-96.189-55.534Zm13.652-7.882-6.5,3.752L238.617,400.2l6.5-3.752-96.189-55.534Zm13.652-7.882-6.5,3.752,96.188,55.535,6.5-3.753L162.58,333.027Zm13.652-7.882-6.5,3.752,96.189,55.535,6.5-3.752-96.188-55.535Zm13.651-7.882-6.5,3.753,96.188,55.534,6.5-3.752-96.189-55.535Zm13.652-7.881-6.5,3.752,96.188,55.534,6.5-3.752-96.188-55.534Zm13.652-7.882-6.5,3.752,96.189,55.534,6.5-3.752L217.187,301.5Zm13.651-7.882-6.5,3.752,96.189,55.535,6.5-3.753-96.189-55.534Zm13.652-7.882-6.5,3.752,96.188,55.535,6.5-3.752L244.49,285.736Zm13.652-7.882-6.5,3.753,96.189,55.534,6.5-3.752-96.188-55.535Zm13.651-7.881-6.5,3.752,96.189,55.534,6.5-3.752-96.189-55.534Z"/></clipPath><clipPath id="clip-path-17"><path class="cls-1" d="M126.624,458.72a3.61,3.61,0,0,1,3.267,0,1,1,0,0,1,0,1.886,3.61,3.61,0,0,1-3.267,0,1,1,0,0,1,0-1.886Z"/></clipPath><clipPath id="clip-path-18"><path class="cls-1" d="M27.489,401.484a3.616,3.616,0,0,1,3.267,0,1,1,0,0,1,0,1.887,3.616,3.616,0,0,1-3.267,0,1,1,0,0,1,0-1.887Z"/></clipPath><clipPath id="clip-path-19"><path class="cls-1" d="M124.414,462.538a3.227,3.227,0,0,1,1.46,2.528c0,.93-.654,1.308-1.46.843a3.229,3.229,0,0,1-1.459-2.529c0-.93.654-1.308,1.459-.842Z"/></clipPath><clipPath id="clip-path-20"><path class="cls-1" d="M26.063,405.755a3.227,3.227,0,0,1,1.46,2.528c0,.93-.654,1.308-1.46.843A3.229,3.229,0,0,1,24.6,406.6c0-.93.654-1.308,1.459-.842Z"/></clipPath><clipPath id="clip-path-21"><path class="cls-1" d="M370.7,317.8a3.61,3.61,0,0,1,3.267,0,1,1,0,0,1,0,1.886,3.616,3.616,0,0,1-3.267,0,1,1,0,0,1,0-1.886Z"/></clipPath><clipPath id="clip-path-22"><path class="cls-1" d="M271.567,260.566a3.61,3.61,0,0,1,3.267,0,1,1,0,0,1,0,1.886,3.61,3.61,0,0,1-3.267,0,1,1,0,0,1,0-1.886Z"/></clipPath><clipPath id="clip-path-23"><path class="cls-1" d="M368.492,321.619a3.228,3.228,0,0,1,1.46,2.529c0,.93-.654,1.308-1.46.842a3.229,3.229,0,0,1-1.459-2.528c0-.93.654-1.308,1.459-.843Z"/></clipPath><clipPath id="clip-path-24"><path class="cls-1" d="M270.141,264.836a3.228,3.228,0,0,1,1.46,2.529c0,.93-.654,1.308-1.46.842a3.23,3.23,0,0,1-1.46-2.528c0-.93.655-1.308,1.46-.843Z"/></clipPath><clipPath id="clip-path-25"><path class="cls-1" d="M129.776,579.23c58.775-43.189,165.212-112.3,195.34-181.6,14.6-33.594,33.281-40.338,58.281-77.671l3.978,118.024-257.6,141.25Z"/></clipPath><clipPath id="clip-path-27"><polygon class="cls-1" points="372.643 334.053 134.003 471.832 134.003 571.061 372.643 433.282 372.643 334.053 372.643 334.053"/></clipPath><clipPath id="clip-path-31"><path class="cls-1" d="M168.123,451.414l-1.569.905V553.831l1.569-.906V451.414Zm32.977-19.04-1.568.906V534.791l1.568-.905V432.374Zm32.567-18.8-1.568.906V515.988l1.568-.905V413.571Zm30.57-17.649-1.568.9V498.339l1.568-.906V395.922Zm29.61-17.1-1.569.905V481.244l1.569-.906V378.827Zm28.378-16.385-1.568.906V464.86l1.568-.906V362.442Zm27.085-15.637-1.569.906V449.222l1.569-.9V346.805Z"/></clipPath><clipPath id="clip-path-34"><path class="cls-1" d="M218.272,515.747c.986-.569,1.787-.107,1.787,1.033a3.954,3.954,0,0,1-1.787,3.1c-.987.57-1.788.107-1.788-1.032a3.955,3.955,0,0,1,1.788-3.1Z"/></clipPath><clipPath id="clip-path-37"><path class="cls-1" d="M306.745,464.667c.987-.569,1.788-.107,1.788,1.032a3.954,3.954,0,0,1-1.788,3.1c-.987.57-1.788.107-1.788-1.032a3.954,3.954,0,0,1,1.788-3.1Z"/></clipPath><clipPath id="clip-path-39"><polygon class="cls-1" points="127.968 547.148 23.872 487.048 23.872 491.723 127.968 551.823 127.968 547.148 127.968 547.148"/></clipPath><clipPath id="clip-path-40"><polygon class="cls-1" points="69.739 528.274 29.498 505.04 29.498 513.223 69.739 536.456 69.739 528.274 69.739 528.274"/></clipPath><clipPath id="clip-path-41"><polygon class="cls-1" points="69.739 498.628 29.498 475.394 29.498 483.577 69.739 506.81 69.739 498.628 69.739 498.628"/></clipPath><clipPath id="clip-path-43"><polygon class="cls-1" points="69.739 483.569 29.498 460.336 29.498 468.519 69.739 491.752 69.739 483.569 69.739 483.569"/></clipPath><clipPath id="clip-path-44"><polygon class="cls-1" points="69.739 441.186 29.498 417.953 29.498 426.135 69.739 449.369 69.739 441.186 69.739 441.186"/></clipPath><clipPath id="clip-path-45"><polygon class="cls-1" points="271.63 374.833 0.477 526.071 0.477 531.383 119.326 600 390.478 443.45 390.478 438.138 271.63 374.833 271.63 374.833"/></clipPath><clipPath id="clip-path-46"><polygon class="cls-1" points="272.799 264.389 23.361 408.401 23.361 519.022 128.604 579.784 378.042 325.151 272.799 264.389 272.799 264.389"/></clipPath><clipPath id="clip-path-56"><path class="cls-1" d="M105.834,483.541a3.593,3.593,0,0,0-1.8-3.111L78.855,465.891a1.244,1.244,0,0,0-1.865,1.077V540.6a2.487,2.487,0,0,0,1.243,2.153l25.346,14.633a1.5,1.5,0,0,0,2.255-1.3V483.541Z"/></clipPath><clipPath id="clip-path-57"><path class="cls-1" d="M75.462,485.981h-.006v-3.5h2.222v3.5h-.006a.519.519,0,0,1-.32.52,1.739,1.739,0,0,1-1.571,0,.518.518,0,0,1-.319-.52Z"/></clipPath><clipPath id="clip-path-58"><path class="cls-1" d="M75.462,482.085h-.006v-3.5h2.222v3.5h-.006a.518.518,0,0,1-.32.519,1.739,1.739,0,0,1-1.571,0,.517.517,0,0,1-.319-.519Z"/></clipPath><clipPath id="clip-path-59"><path class="cls-1" d="M75.462,529.818h-.006v-3.5h2.222v3.5h-.006a.518.518,0,0,1-.32.519,1.733,1.733,0,0,1-1.571,0,.517.517,0,0,1-.319-.519Z"/></clipPath><clipPath id="clip-path-60"><path class="cls-1" d="M75.462,525.921h-.006v-3.5h2.222v3.5h-.006a.518.518,0,0,1-.32.519,1.733,1.733,0,0,1-1.571,0,.517.517,0,0,1-.319-.519Z"/></clipPath><clipPath id="clip-path-61"><path class="cls-1" d="M101.381,515.631c-1.283-.741-2.326-.139-2.326,1.343A5.146,5.146,0,0,0,101.381,521c1.284.741,2.326.139,2.326-1.343a5.144,5.144,0,0,0-2.326-4.029Z"/></clipPath><clipPath id="clip-path-64"><path class="cls-1" d="M131.907,462.88c.789-.455,1.43-.086,1.43.825a3.163,3.163,0,0,1-1.43,2.476c-.788.455-1.429.085-1.429-.825a3.164,3.164,0,0,1,1.429-2.476Z"/></clipPath><clipPath id="clip-path-65"><polygon class="cls-1" points="29.431 399.464 23.361 402.969 128.588 463.721 134.657 460.217 29.431 399.464 29.431 399.464"/></clipPath><clipPath id="clip-path-69"><polygon class="cls-1" points="128.604 463.731 23.361 402.969 23.361 408.401 128.604 469.163 128.604 463.731 128.604 463.731"/></clipPath><clipPath id="clip-path-73"><path class="cls-1" d="M375.985,321.962c.789-.456,1.43-.086,1.43.825a3.159,3.159,0,0,1-1.43,2.475c-.788.456-1.429.086-1.429-.825a3.161,3.161,0,0,1,1.429-2.475Z"/></clipPath><clipPath id="clip-path-74"><polygon class="cls-1" points="273.508 258.546 267.439 262.05 372.666 322.803 378.735 319.299 273.508 258.546 273.508 258.546"/></clipPath><clipPath id="clip-path-78"><polygon class="cls-1" points="372.682 322.812 267.439 262.05 267.439 267.483 372.682 328.245 372.682 322.812 372.682 322.812"/></clipPath><clipPath id="clip-path-82"><polygon class="cls-1" points="210.108 532.728 210.108 529.144 228.821 518.34 228.821 521.924 299.191 481.296 299.191 477.712 317.904 466.908 317.904 470.492 378.042 435.771 378.042 325.151 128.604 469.163 128.604 579.784 210.108 532.728 210.108 532.728"/></clipPath><clipPath id="clip-path-94"><polygon class="cls-1" points="67.77 530.416 27.528 507.182 27.528 515.365 67.77 538.599 67.77 530.416 67.77 530.416"/></clipPath><clipPath id="clip-path-97"><polygon class="cls-1" points="67.77 500.77 27.528 477.536 27.528 485.719 67.77 508.952 67.77 500.77 67.77 500.77"/></clipPath><clipPath id="clip-path-100"><polygon class="cls-1" points="67.77 485.711 27.528 462.478 27.528 470.661 67.77 493.894 67.77 485.711 67.77 485.711"/></clipPath><clipPath id="clip-path-103"><polygon class="cls-1" points="67.77 470.653 27.528 447.42 27.528 455.602 67.77 478.836 67.77 470.653 67.77 470.653"/></clipPath><clipPath id="clip-path-104"><polygon class="cls-1" points="67.77 443.328 27.528 420.095 27.528 428.278 67.77 451.511 67.77 443.328 67.77 443.328"/></clipPath><clipPath id="clip-path-107"><path class="cls-1" d="M37.643,497.758l-6.137-3.543a.4.4,0,0,0-.6.346v.523a.81.81,0,0,0,.4.7l7.61,4.393.622-.056,6.855,3.958V502.4l-8.013-4.626-.742-.014Z"/></clipPath><clipPath id="clip-path-108"><path class="cls-1" d="M45.433,530.189h-.005V522.8h2.221v7.387h-.006a.518.518,0,0,1-.319.52,1.739,1.739,0,0,1-1.571,0,.52.52,0,0,1-.32-.52Z"/></clipPath><clipPath id="clip-path-109"><path class="cls-1" d="M45.433,522.434h-.005v-7.387h2.221v7.387h-.006a.518.518,0,0,1-.319.52,1.739,1.739,0,0,1-1.571,0,.52.52,0,0,1-.32-.52Z"/></clipPath><clipPath id="clip-path-110"><path class="cls-1" d="M45.719,514.827h-.005V473.482H47.4v41.345h0a.393.393,0,0,1-.242.393,1.313,1.313,0,0,1-1.19,0,.391.391,0,0,1-.242-.393Z"/></clipPath><clipPath id="clip-path-111"><path class="cls-1" d="M45.433,487.727h-.005V480.34h2.221v7.387h-.006a.518.518,0,0,1-.319.52,1.739,1.739,0,0,1-1.571,0,.52.52,0,0,1-.32-.52Z"/></clipPath><clipPath id="clip-path-112"><path class="cls-1" d="M45.433,479.973h-.005v-7.388h2.221v7.388h-.006a.517.517,0,0,1-.319.519,1.739,1.739,0,0,1-1.571,0,.52.52,0,0,1-.32-.519Z"/></clipPath><clipPath id="clip-path-113"><path class="cls-1" d="M45.719,472.365h-.005V431.02H47.4v41.345h0a.393.393,0,0,1-.242.393,1.313,1.313,0,0,1-1.19,0,.391.391,0,0,1-.242-.393Z"/></clipPath><clipPath id="clip-path-114"><path class="cls-1" d="M45.433,438.891h-.005V431.5h2.221v7.387h-.006a.518.518,0,0,1-.319.52,1.739,1.739,0,0,1-1.571,0,.52.52,0,0,1-.32-.52Z"/></clipPath><clipPath id="clip-path-115"><path class="cls-1" d="M39.472,501.129v2.256a.271.271,0,0,0,.136.236l.9.517a.16.16,0,0,0,.239-.138v-3.113l-.209-.59a.8.8,0,0,1-.048-.275v-2.335a.645.645,0,0,0-.322-.559l-.515-.3a.288.288,0,0,0-.432.249V500.4a.677.677,0,0,0,.056.27l.2.455Z"/></clipPath><clipPath id="clip-path-123"><path class="cls-1" d="M59.733,510.512,53.6,506.969a.4.4,0,0,0-.6.346v.522a.806.806,0,0,0,.4.7l7.609,4.394.622-.056,6.855,3.958v-1.68l-8.013-4.626-.742-.014Z"/></clipPath><clipPath id="clip-path-124"><path class="cls-1" d="M67.524,542.943h-.006v-7.387h2.221v7.387h-.005a.518.518,0,0,1-.32.519,1.733,1.733,0,0,1-1.571,0,.516.516,0,0,1-.319-.519Z"/></clipPath><clipPath id="clip-path-125"><path class="cls-1" d="M67.524,535.188h-.006V527.8h2.221v7.387h-.005a.518.518,0,0,1-.32.519,1.733,1.733,0,0,1-1.571,0,.516.516,0,0,1-.319-.519Z"/></clipPath><clipPath id="clip-path-126"><path class="cls-1" d="M67.809,527.58h0V486.235h1.683V527.58h0a.393.393,0,0,1-.242.394,1.32,1.32,0,0,1-1.19,0,.393.393,0,0,1-.242-.394Z"/></clipPath><clipPath id="clip-path-127"><path class="cls-1" d="M67.524,500.481h-.006v-7.387h2.221v7.387h-.005a.518.518,0,0,1-.32.519,1.733,1.733,0,0,1-1.571,0,.516.516,0,0,1-.319-.519Z"/></clipPath><clipPath id="clip-path-128"><path class="cls-1" d="M67.524,492.726h-.006v-7.387h2.221v7.387h-.005a.518.518,0,0,1-.32.519,1.733,1.733,0,0,1-1.571,0,.516.516,0,0,1-.319-.519Z"/></clipPath><clipPath id="clip-path-129"><path class="cls-1" d="M67.809,485.118h0V443.773h1.683v41.345h0a.393.393,0,0,1-.242.394,1.32,1.32,0,0,1-1.19,0,.393.393,0,0,1-.242-.394Z"/></clipPath><clipPath id="clip-path-130"><path class="cls-1" d="M67.524,451.645h-.006v-7.387h2.221v7.387h-.005a.52.52,0,0,1-.32.519,1.733,1.733,0,0,1-1.571,0,.517.517,0,0,1-.319-.519Z"/></clipPath><clipPath id="clip-path-131"><path class="cls-1" d="M61.562,513.882v2.257a.273.273,0,0,0,.137.236l.894.517a.16.16,0,0,0,.239-.138v-3.113l-.209-.59a.828.828,0,0,1-.047-.275v-2.335a.644.644,0,0,0-.323-.559l-.515-.3a.288.288,0,0,0-.432.25v3.324a.677.677,0,0,0,.056.27l.2.454Z"/></clipPath><clipPath id="clip-path-139"><path class="cls-1" d="M122.83,575.22a3.228,3.228,0,0,1,1.46,2.529c0,.93-.654,1.308-1.46.842a3.229,3.229,0,0,1-1.459-2.528c0-.93.654-1.308,1.459-.843Z"/></clipPath><clipPath id="clip-path-140"><path class="cls-1" d="M131.907,573.749c.789-.455,1.43-.086,1.43.825a3.163,3.163,0,0,1-1.43,2.476c-.788.455-1.429.085-1.429-.826a3.163,3.163,0,0,1,1.429-2.475Z"/></clipPath><clipPath id="clip-path-141"><path class="cls-1" d="M23.6,517.932a3.227,3.227,0,0,1,1.46,2.528c0,.931-.654,1.308-1.46.843a3.227,3.227,0,0,1-1.46-2.528c0-.931.654-1.308,1.46-.843Z"/></clipPath><clipPath id="clip-path-143"><polygon class="cls-1" points="180.58 450.492 156.314 464.502 156.314 549.09 157.268 549.641 180.58 535.08 181.534 451.042 180.58 450.492 180.58 450.492"/></clipPath><clipPath id="clip-path-144"><polygon class="cls-1" points="180.169 453.997 159.203 466.102 159.203 468.607 180.169 456.502 180.169 453.997 180.169 453.997"/></clipPath><clipPath id="clip-path-145"><polygon class="cls-1" points="180.169 457.507 159.203 469.612 159.203 472.118 180.169 460.013 180.169 457.507 180.169 457.507"/></clipPath><clipPath id="clip-path-146"><polygon class="cls-1" points="180.169 461.018 159.203 473.123 159.203 475.628 180.169 463.523 180.169 461.018 180.169 461.018"/></clipPath><clipPath id="clip-path-147"><polygon class="cls-1" points="180.169 464.528 159.203 476.633 159.203 479.139 180.169 467.034 180.169 464.528 180.169 464.528"/></clipPath><clipPath id="clip-path-148"><polygon class="cls-1" points="180.169 468.039 159.203 480.144 159.203 482.649 180.169 470.544 180.169 468.039 180.169 468.039"/></clipPath><clipPath id="clip-path-149"><polygon class="cls-1" points="180.169 471.549 159.203 483.654 159.203 486.159 180.169 474.055 180.169 471.549 180.169 471.549"/></clipPath><clipPath id="clip-path-150"><polygon class="cls-1" points="180.169 475.06 159.203 487.165 159.203 489.67 180.169 477.565 180.169 475.06 180.169 475.06"/></clipPath><clipPath id="clip-path-151"><polygon class="cls-1" points="180.169 478.57 159.203 490.675 159.203 493.18 180.169 481.075 180.169 478.57 180.169 478.57"/></clipPath><clipPath id="clip-path-152"><polygon class="cls-1" points="180.169 482.08 159.203 494.185 159.203 496.691 180.169 484.586 180.169 482.08 180.169 482.08"/></clipPath><clipPath id="clip-path-153"><polygon class="cls-1" points="180.169 485.591 159.203 497.696 159.203 500.201 180.169 488.096 180.169 485.591 180.169 485.591"/></clipPath><clipPath id="clip-path-154"><polygon class="cls-1" points="180.169 489.101 159.203 501.206 159.203 503.712 180.169 491.607 180.169 489.101 180.169 489.101"/></clipPath><clipPath id="clip-path-155"><polygon class="cls-1" points="180.169 492.612 159.203 504.717 159.203 507.222 180.169 495.117 180.169 492.612 180.169 492.612"/></clipPath><clipPath id="clip-path-156"><polygon class="cls-1" points="180.169 496.122 159.203 508.227 159.203 510.733 180.169 498.628 180.169 496.122 180.169 496.122"/></clipPath><clipPath id="clip-path-157"><polygon class="cls-1" points="180.169 499.633 159.203 511.738 159.203 514.243 180.169 502.138 180.169 499.633 180.169 499.633"/></clipPath><clipPath id="clip-path-158"><polygon class="cls-1" points="180.169 503.143 159.203 515.248 159.203 517.754 180.169 505.649 180.169 503.143 180.169 503.143"/></clipPath><clipPath id="clip-path-159"><polygon class="cls-1" points="180.169 506.654 159.203 518.759 159.203 521.264 180.169 509.159 180.169 506.654 180.169 506.654"/></clipPath><clipPath id="clip-path-160"><polygon class="cls-1" points="180.169 510.164 159.203 522.269 159.203 524.774 180.169 512.67 180.169 510.164 180.169 510.164"/></clipPath><clipPath id="clip-path-161"><polygon class="cls-1" points="180.169 513.675 159.203 525.779 159.203 528.285 180.169 516.18 180.169 513.675 180.169 513.675"/></clipPath><clipPath id="clip-path-162"><polygon class="cls-1" points="180.169 517.185 159.203 529.29 159.203 531.795 180.169 519.69 180.169 517.185 180.169 517.185"/></clipPath><clipPath id="clip-path-163"><polygon class="cls-1" points="180.169 520.695 159.203 532.8 159.203 535.306 180.169 523.201 180.169 520.695 180.169 520.695"/></clipPath><clipPath id="clip-path-164"><polygon class="cls-1" points="180.169 524.206 159.203 536.311 159.203 538.816 180.169 526.711 180.169 524.206 180.169 524.206"/></clipPath><clipPath id="clip-path-165"><polygon class="cls-1" points="180.169 527.716 159.203 539.821 159.203 542.327 180.169 530.222 180.169 527.716 180.169 527.716"/></clipPath><clipPath id="clip-path-166"><polygon class="cls-1" points="180.169 531.227 159.203 543.332 159.203 545.837 180.169 533.732 180.169 531.227 180.169 531.227"/></clipPath><clipPath id="clip-path-167"><polygon class="cls-1" points="361.566 345.999 337.3 360.009 337.3 444.598 338.254 445.148 361.566 430.587 362.52 346.55 361.566 345.999 361.566 345.999"/></clipPath><clipPath id="clip-path-168"><polygon class="cls-1" points="361.155 349.505 340.189 361.609 340.189 364.115 361.155 352.01 361.155 349.505 361.155 349.505"/></clipPath><clipPath id="clip-path-169"><polygon class="cls-1" points="361.155 353.015 340.189 365.12 340.189 367.625 361.155 355.52 361.155 353.015 361.155 353.015"/></clipPath><clipPath id="clip-path-170"><polygon class="cls-1" points="361.155 356.525 340.189 368.63 340.189 371.136 361.155 359.031 361.155 356.525 361.155 356.525"/></clipPath><clipPath id="clip-path-171"><polygon class="cls-1" points="361.155 360.036 340.189 372.141 340.189 374.646 361.155 362.541 361.155 360.036 361.155 360.036"/></clipPath><clipPath id="clip-path-172"><polygon class="cls-1" points="361.155 363.546 340.189 375.651 340.189 378.157 361.155 366.052 361.155 363.546 361.155 363.546"/></clipPath><clipPath id="clip-path-173"><polygon class="cls-1" points="361.155 367.057 340.189 379.162 340.189 381.667 361.155 369.562 361.155 367.057 361.155 367.057"/></clipPath><clipPath id="clip-path-174"><polygon class="cls-1" points="361.155 370.567 340.189 382.672 340.189 385.178 361.155 373.073 361.155 370.567 361.155 370.567"/></clipPath><clipPath id="clip-path-175"><polygon class="cls-1" points="361.155 374.078 340.189 386.183 340.189 388.688 361.155 376.583 361.155 374.078 361.155 374.078"/></clipPath><clipPath id="clip-path-176"><polygon class="cls-1" points="361.155 377.588 340.189 389.693 340.189 392.198 361.155 380.094 361.155 377.588 361.155 377.588"/></clipPath><clipPath id="clip-path-177"><polygon class="cls-1" points="361.155 381.099 340.189 393.203 340.189 395.709 361.155 383.604 361.155 381.099 361.155 381.099"/></clipPath><clipPath id="clip-path-178"><polygon class="cls-1" points="361.155 384.609 340.189 396.714 340.189 399.219 361.155 387.114 361.155 384.609 361.155 384.609"/></clipPath><clipPath id="clip-path-179"><polygon class="cls-1" points="361.155 388.119 340.189 400.224 340.189 402.73 361.155 390.625 361.155 388.119 361.155 388.119"/></clipPath><clipPath id="clip-path-180"><polygon class="cls-1" points="361.155 391.63 340.189 403.735 340.189 406.24 361.155 394.135 361.155 391.63 361.155 391.63"/></clipPath><clipPath id="clip-path-181"><polygon class="cls-1" points="361.155 395.14 340.189 407.245 340.189 409.751 361.155 397.646 361.155 395.14 361.155 395.14"/></clipPath><clipPath id="clip-path-182"><polygon class="cls-1" points="361.155 398.651 340.189 410.756 340.189 413.261 361.155 401.156 361.155 398.651 361.155 398.651"/></clipPath><clipPath id="clip-path-183"><polygon class="cls-1" points="361.155 402.161 340.189 414.266 340.189 416.772 361.155 404.667 361.155 402.161 361.155 402.161"/></clipPath><clipPath id="clip-path-184"><polygon class="cls-1" points="361.155 405.672 340.189 417.777 340.189 420.282 361.155 408.177 361.155 405.672 361.155 405.672"/></clipPath><clipPath id="clip-path-185"><polygon class="cls-1" points="361.155 409.182 340.189 421.287 340.189 423.793 361.155 411.688 361.155 409.182 361.155 409.182"/></clipPath><clipPath id="clip-path-186"><polygon class="cls-1" points="361.155 412.693 340.189 424.798 340.189 427.303 361.155 415.198 361.155 412.693 361.155 412.693"/></clipPath><clipPath id="clip-path-187"><polygon class="cls-1" points="361.155 416.203 340.189 428.308 340.189 430.813 361.155 418.709 361.155 416.203 361.155 416.203"/></clipPath><clipPath id="clip-path-188"><polygon class="cls-1" points="361.155 419.714 340.189 431.818 340.189 434.324 361.155 422.219 361.155 419.714 361.155 419.714"/></clipPath><clipPath id="clip-path-189"><polygon class="cls-1" points="361.155 423.224 340.189 435.329 340.189 437.834 361.155 425.729 361.155 423.224 361.155 423.224"/></clipPath><clipPath id="clip-path-190"><polygon class="cls-1" points="361.155 426.734 340.189 438.839 340.189 441.345 361.155 429.24 361.155 426.734 361.155 426.734"/></clipPath><clipPath id="clip-path-191"><path class="cls-1" d="M99.979,490.624a4.835,4.835,0,0,0-2.018-3.855l-13.3-7.682c-1.114-.642-2.018.041-2.018,1.526v9.565a4.834,4.834,0,0,0,2.018,3.855l13.3,7.682c1.114.643,2.018-.04,2.018-1.525v-9.566Z"/></clipPath><clipPath id="clip-path-193"><polygon class="cls-1" points="73.669 550.303 64.605 550.193 64.605 553.3 98.809 573.048 107.873 567.815 107.873 564.707 73.669 550.303 73.669 550.303"/></clipPath></defs><g id="Capa_1" data-name="Capa 1"><polygon class="cls-35" points="271.63 374.833 0.477 526.071 0.477 531.383 119.326 600 390.478 443.45 390.478 438.138 271.63 374.833 271.63 374.833"/><g class="cls-36"><polygon class="cls-37" points="119.177 590.106 -4.524 518.687 -4.524 538.528 119.177 609.947 119.177 590.106 119.177 590.106"/></g><polygon class="cls-38" points="271.63 369.521 0.477 526.071 119.326 594.688 390.478 438.138 271.63 369.521 271.63 369.521"/><polygon class="cls-39" points="274.28 373.982 19.47 521.096 127.444 583.436 382.254 436.321 274.28 373.982 274.28 373.982"/><polygon class="cls-40" points="72.782 546.089 60.816 552.997 100.434 575.871 112.4 568.962 72.782 546.089 72.782 546.089"/><polygon class="cls-41" points="228.822 518.33 224.023 515.559 224.023 519.143 228.822 521.914 228.822 518.33 228.822 518.33"/><polygon class="cls-41" points="317.905 466.898 313.106 464.127 313.106 467.71 317.905 470.481 317.905 466.898 317.905 466.898"/><polygon class="cls-42" points="272.799 264.389 23.361 408.401 23.361 519.022 128.604 579.784 378.042 325.151 272.799 264.389 272.799 264.389"/><g class="cls-43"><path class="cls-44" d="M39.391,422.24s141.91-16.447,220.853-48.4,97.27-29.6,97.27-29.6L133.371,474.869,39.391,422.24Z"/><polygon class="cls-45" points="373.278 322.449 119.586 468.918 124.472 471.739 378.164 325.27 373.278 322.449 373.278 322.449"/><path class="cls-46" d="M17.374,414.294s101.412-61.477,192.314-77.241,169.72-22.068,169.72-22.068l-54.647-49.918L183.941,303.95,17.7,396.257l-.322,18.037Z"/><path class="cls-47" d="M39.715,403.963l-6.5,3.752L129.4,463.25l6.5-3.752L39.715,403.963Zm13.652-7.882-6.5,3.753,96.189,55.534,6.5-3.752L53.367,396.081ZM67.018,388.2l-6.5,3.752,96.188,55.534,6.5-3.752L67.018,388.2Zm13.652-7.882-6.5,3.752L170.359,439.6l6.5-3.752L80.67,380.318Zm13.652-7.882-6.5,3.752,96.189,55.535,6.5-3.753L94.322,372.436Zm13.651-7.882-6.5,3.752,96.188,55.535,6.5-3.752-96.189-55.535Zm13.652-7.882-6.5,3.753,96.188,55.534,6.5-3.752-96.188-55.535Zm13.651-7.881-6.5,3.752,96.189,55.534,6.5-3.752-96.189-55.534Zm13.652-7.882-6.5,3.752L238.617,400.2l6.5-3.752-96.189-55.534Zm13.652-7.882-6.5,3.752,96.188,55.535,6.5-3.753L162.58,333.027Zm13.652-7.882-6.5,3.752,96.189,55.535,6.5-3.752-96.188-55.535Zm13.651-7.882-6.5,3.753,96.188,55.534,6.5-3.752-96.189-55.535Zm13.652-7.881-6.5,3.752,96.188,55.534,6.5-3.752-96.188-55.534Zm13.652-7.882-6.5,3.752,96.189,55.534,6.5-3.752L217.187,301.5Zm13.651-7.882-6.5,3.752,96.189,55.535,6.5-3.753-96.189-55.534Zm13.652-7.882-6.5,3.752,96.188,55.535,6.5-3.752L244.49,285.736Zm13.652-7.882-6.5,3.753,96.189,55.534,6.5-3.752-96.188-55.535Zm13.651-7.881-6.5,3.752,96.189,55.534,6.5-3.752-96.189-55.534Z"/></g><g class="cls-43"><path class="cls-48" d="M137.33,459.509,39.752,403.173v3.392L137.33,462.9v-3.392Zm13.627-7.867L53.379,395.305V398.7l97.578,56.337v-3.392Zm13.589-7.846L66.968,387.46v3.392l97.578,56.336V443.8Zm13.743-7.935L80.712,379.525v3.392l97.577,56.336v-3.392Zm13.574-7.836L94.285,371.688v3.392l97.578,56.337v-3.392Zm13.711-7.916L108,363.772v3.392L205.574,423.5v-3.392Zm13.674-7.895L121.67,355.877v3.392l97.578,56.337v-3.392Zm13.6-7.85-97.577-56.337v3.393l97.577,56.336v-3.392Zm13.688-7.9-97.578-56.336v3.392l97.578,56.337v-3.393Zm13.648-7.88L162.6,332.245v3.392l97.577,56.337v-3.393Zm13.636-7.872-97.578-56.337v3.393L273.816,384.1v-3.392Zm13.635-7.872L189.874,316.5v3.392l97.577,56.337v-3.392Zm13.632-7.871L203.505,308.63v3.392l97.578,56.337v-3.393Zm13.7-7.912L217.21,300.717v3.392l97.578,56.337v-3.392Zm13.616-7.861-97.578-56.337v3.392L328.4,352.585v-3.392Zm13.684-7.9L244.51,284.956v3.392l97.578,56.336v-3.392Zm13.64-7.875L258.15,277.081v3.392l97.578,56.336v-3.392Zm13.426-7.751-97.578-56.337v3.392l97.578,56.337v-3.392Z"/><path class="cls-49" d="M39.715,406.552l-6.5,3.752L129.4,465.838l6.5-3.752L39.715,406.552Zm13.652-7.882-6.5,3.752,96.189,55.535,6.5-3.753L53.367,398.67Zm13.651-7.882-6.5,3.752,96.188,55.535,6.5-3.753L67.018,390.788Zm13.652-7.882-6.5,3.753,96.188,55.534,6.5-3.752L80.67,382.906Zm13.652-7.882-6.5,3.753,96.189,55.534,6.5-3.752L94.322,375.024Zm13.651-7.881-6.5,3.752,96.188,55.534,6.5-3.752-96.189-55.534Zm13.652-7.882-6.5,3.752,96.188,55.535,6.5-3.753-96.188-55.534Zm13.651-7.882-6.5,3.752,96.189,55.535,6.5-3.753-96.189-55.534Zm13.652-7.882-6.5,3.753,96.188,55.534,6.5-3.752L148.928,343.5Zm13.652-7.881-6.5,3.752L252.269,394.9l6.5-3.752L162.58,335.616Zm13.652-7.882-6.5,3.752,96.189,55.534,6.5-3.752-96.188-55.534Zm13.651-7.882-6.5,3.752,96.188,55.535,6.5-3.753-96.189-55.534Zm13.652-7.882-6.5,3.752,96.188,55.535,6.5-3.753L203.535,311.97Zm13.652-7.882-6.5,3.753,96.189,55.534,6.5-3.752-96.188-55.535Zm13.651-7.882-6.5,3.753,96.189,55.534,6.5-3.752-96.189-55.535Zm13.652-7.881-6.5,3.752,96.188,55.534,6.5-3.752L244.49,288.325Zm13.652-7.882-6.5,3.752,96.189,55.535,6.5-3.753-96.188-55.534Zm13.651-7.882-6.5,3.752,96.189,55.535,6.5-3.752-96.189-55.535Z"/></g><g class="cls-43"><polygon class="cls-50" points="131.973 471.092 11.404 401.482 11.404 522.292 131.973 591.903 131.973 471.092 131.973 471.092"/></g><g class="cls-43"><polygon class="cls-51" points="48.711 428.434 46.084 426.918 46.084 529.579 48.711 531.096 48.711 428.434 48.711 428.434"/><polygon class="cls-51" points="71.689 441.701 69.061 440.184 69.061 542.845 71.689 544.362 71.689 441.701 71.689 441.701"/><path class="cls-52" d="M23.9,411.938c15.2,13.472,13.559,33.213,27.754,53.1,21.908,30.691,63.08,51.039,78.123,114.192l8.67-134.714L23.9,411.938Z"/><polygon class="cls-53" points="127.968 547.148 23.872 487.048 23.872 491.723 127.968 551.823 127.968 547.148 127.968 547.148"/></g><g class="cls-43"><polygon class="cls-54" points="48.711 428.434 46.084 426.918 46.084 529.579 48.711 531.096 48.711 428.434 48.711 428.434"/><path class="cls-54" d="M46.233,502.189a.806.806,0,0,0-.336-.643l-13.774-7.952c-.185-.107-.336.007-.336.254v.9a.807.807,0,0,0,.336.643L45.9,503.341c.186.108.336-.006.336-.254v-.9Z"/><path class="cls-54" d="M68.26,514.907a.808.808,0,0,0-.336-.644L54.15,506.311c-.185-.107-.336.007-.336.255v.9a.811.811,0,0,0,.336.644l13.774,7.952c.186.107.336-.007.336-.255v-.9Z"/><polygon class="cls-54" points="71.689 441.701 69.061 440.184 69.061 542.845 71.689 544.362 71.689 441.701 71.689 441.701"/></g><g class="cls-43"><path class="cls-55" d="M111.923,465.976l-1.206-.7V566.785l1.206.7v-101.5Zm-34.287-19.8-1.207-.7V546.989l1.207.7V446.18Z"/></g><g class="cls-43"><path class="cls-45" d="M112.609,465.58l-1.206-.7V566.389l1.206.7V465.58Zm-34.287-19.8-1.206-.7v101.5l1.206.7v-101.5Z"/></g><g class="cls-43"><path class="cls-56" d="M131.238,575.132,23.1,512.7a.359.359,0,0,0-.359.622l108.137,62.433a.359.359,0,0,0,.359-.622Z"/><polygon class="cls-57" points="128.604 574.44 23.361 513.678 23.361 519.022 128.604 579.784 128.604 574.44 128.604 574.44"/><polygon class="cls-45" points="131.418 465.355 123.767 460.938 123.767 573.042 131.418 577.46 131.418 465.355 131.418 465.355"/><polygon class="cls-45" points="27.724 405.487 20.073 401.07 20.073 513.175 27.724 517.592 27.724 405.487 27.724 405.487"/></g><g class="cls-43"><path class="cls-58" d="M135.5,466.734,27.847,404.583a.311.311,0,0,0-.311.539l107.649,62.151a.311.311,0,1,0,.311-.539Z"/><path class="cls-58" d="M374.436,328.782,266.787,266.631a.311.311,0,0,0-.311.538L374.125,329.32a.311.311,0,1,0,.311-.538Z"/><path class="cls-56" d="M131.238,475.645,23.1,413.213a.359.359,0,0,0-.359.622l108.137,62.432a.359.359,0,0,0,.359-.622Z"/><polygon class="cls-45" points="272.756 264.413 19.064 410.882 23.951 413.703 277.643 267.234 272.756 264.413 272.756 264.413"/></g><g class="cls-43"><path class="cls-59" d="M17.374,414.294s101.412-61.477,192.314-77.241,169.72-22.068,169.72-22.068l-54.647-49.918L183.941,303.95,17.7,396.257l-.322,18.037Z"/></g><path class="cls-60" d="M107.011,482.915a3.639,3.639,0,0,0-1.8-3.165L80.033,465.211a1.219,1.219,0,0,0-1.244.018,1.307,1.307,0,0,0-.621,1.114v75.536a2.519,2.519,0,0,0,1.243,2.19L104.757,558.7a1.47,1.47,0,0,0,1.5-.023,1.575,1.575,0,0,0,.751-1.346V482.915Z"/><path class="cls-61" d="M106.424,483.2a3.594,3.594,0,0,0-1.8-3.112L79.445,465.55a1.244,1.244,0,0,0-1.865,1.077V540.26a2.487,2.487,0,0,0,1.243,2.153l25.346,14.634a1.5,1.5,0,0,0,2.255-1.3V483.2Z"/><path class="cls-62" d="M105.834,483.541a3.593,3.593,0,0,0-1.8-3.111L78.855,465.891a1.244,1.244,0,0,0-1.865,1.077V540.6a2.487,2.487,0,0,0,1.243,2.153l25.346,14.633a1.5,1.5,0,0,0,2.255-1.3V483.541Z"/><g class="cls-63"><path class="cls-64" d="M75.456,471.03a214.055,214.055,0,0,1,15.956,48.6c5.672,28.111,15.012,44.663,15.012,44.663l5.031-87.54L76.99,460.745,75.456,471.03Z"/></g><path class="cls-58" d="M75.462,485.981h-.006v-3.5h2.222v3.5h-.006a.519.519,0,0,1-.32.52,1.739,1.739,0,0,1-1.571,0,.518.518,0,0,1-.319-.52Z"/><g class="cls-65"><polygon class="cls-66" points="78.31 476.938 77.312 476.938 77.312 486.893 78.31 486.893 78.31 476.938 78.31 476.938"/></g><path class="cls-66" d="M75.781,481.976a1.733,1.733,0,0,1,1.571,0,.479.479,0,0,1,0,.907,1.739,1.739,0,0,1-1.571,0,.479.479,0,0,1,0-.907Z"/><path class="cls-58" d="M75.462,482.085h-.006v-3.5h2.222v3.5h-.006a.518.518,0,0,1-.32.519,1.739,1.739,0,0,1-1.571,0,.517.517,0,0,1-.319-.519Z"/><g class="cls-67"><polygon class="cls-66" points="78.31 476.938 77.312 476.938 77.312 486.893 78.31 486.893 78.31 476.938 78.31 476.938"/></g><path class="cls-68" d="M75.781,478.079a1.733,1.733,0,0,1,1.571,0,.479.479,0,0,1,0,.907,1.739,1.739,0,0,1-1.571,0,.479.479,0,0,1,0-.907Z"/><path class="cls-58" d="M75.462,529.818h-.006v-3.5h2.222v3.5h-.006a.518.518,0,0,1-.32.519,1.733,1.733,0,0,1-1.571,0,.517.517,0,0,1-.319-.519Z"/><g class="cls-69"><polygon class="cls-66" points="78.31 520.774 77.312 520.774 77.312 530.729 78.31 530.729 78.31 520.774 78.31 520.774"/></g><path class="cls-66" d="M75.781,525.812a1.739,1.739,0,0,1,1.571,0,.479.479,0,0,1,0,.907,1.733,1.733,0,0,1-1.571,0,.479.479,0,0,1,0-.907Z"/><path class="cls-58" d="M75.462,525.921h-.006v-3.5h2.222v3.5h-.006a.518.518,0,0,1-.32.519,1.733,1.733,0,0,1-1.571,0,.517.517,0,0,1-.319-.519Z"/><g class="cls-70"><polygon class="cls-66" points="78.31 520.774 77.312 520.774 77.312 530.729 78.31 530.729 78.31 520.774 78.31 520.774"/></g><path class="cls-68" d="M75.781,521.915a1.739,1.739,0,0,1,1.571,0,.479.479,0,0,1,0,.907,1.733,1.733,0,0,1-1.571,0,.479.479,0,0,1,0-.907Z"/><path class="cls-71" d="M93.75,502.1a.277.277,0,0,1,.108-.221.2.2,0,0,1,.217-.016l4.156,2.4a.426.426,0,0,1,.2.375v6.784a.231.231,0,0,1-.091.185.163.163,0,0,1-.18.013l-4.121-2.379a.617.617,0,0,1-.288-.543v-6.6Z"/><path class="cls-72" d="M96.35,504.157c.283.817.792,2.284,1.1,3.169a.429.429,0,0,1-.62.512l-1.876-1.083a.794.794,0,0,1-.291-1.084c.27-.467.65-1.126.917-1.587a.426.426,0,0,1,.772.073Zm-.262.091a.149.149,0,0,0-.27-.025L94.9,505.81a.514.514,0,0,0,.189.7l1.876,1.083a.151.151,0,0,0,.218-.18c-.306-.885-.814-2.352-1.1-3.169Z"/><polygon class="cls-72" points="96.542 507.067 96.172 505.293 95.807 505.554 95.364 503.745 95.441 506.163 95.943 505.859 96.542 507.067 96.542 507.067"/><polygon class="cls-72" points="94.289 506.819 97.577 508.718 97.577 509.768 94.289 507.87 94.289 506.819 94.289 506.819"/><polygon class="cls-73" points="94.627 508.308 97.239 509.816 97.239 510.387 94.627 508.88 94.627 508.308 94.627 508.308"/><polygon class="cls-74" points="99.748 507.158 103.721 509.452 103.721 514.097 99.748 511.803 99.748 507.158 99.748 507.158"/><polygon class="cls-75" points="100.25 508.744 102.255 509.902 102.255 510.471 100.25 509.314 100.25 508.744 100.25 508.744"/><polygon class="cls-75" points="100.25 510.209 101.632 511.007 101.632 511.413 100.25 510.615 100.25 510.209 100.25 510.209"/><polygon class="cls-75" points="100.25 509.518 102.829 511.007 102.829 511.413 100.25 509.924 100.25 509.518 100.25 509.518"/><polygon class="cls-75" points="100.25 510.841 102.829 512.33 102.829 512.737 100.25 511.248 100.25 510.841 100.25 510.841"/><path class="cls-76" d="M98.918,514.756c0-.942.574-1.376,1.281-.968l2.9,1.672a3.069,3.069,0,0,1,1.281,2.447v3.416c0,.943-.574,1.377-1.281.968l-2.9-1.671a3.071,3.071,0,0,1-1.281-2.448v-3.416Z"/><path class="cls-77" d="M98.675,514.9c0-.943.574-1.377,1.281-.968l2.9,1.671a3.07,3.07,0,0,1,1.281,2.448v3.415c0,.943-.574,1.377-1.281.969l-2.9-1.672a3.069,3.069,0,0,1-1.281-2.447V514.9Z"/><path class="cls-78" d="M101.381,515.631c-1.283-.741-2.326-.139-2.326,1.343A5.146,5.146,0,0,0,101.381,521c1.284.741,2.326.139,2.326-1.343a5.144,5.144,0,0,0-2.326-4.029Z"/><g class="cls-79"><path class="cls-41" d="M101.922,515.319c-1.283-.741-2.326-.139-2.326,1.343a5.147,5.147,0,0,0,2.326,4.029c1.284.741,2.326.139,2.326-1.343a5.143,5.143,0,0,0-2.326-4.029Z"/><path class="cls-66" d="M100.5,516.624c-.366-.211-.664-.039-.664.384a1.469,1.469,0,0,0,.664,1.151c.367.212.665.04.665-.383a1.471,1.471,0,0,0-.665-1.152Z"/><path class="cls-80" d="M100.408,516.849c-.3-.175-.551-.033-.551.319a1.221,1.221,0,0,0,.551.955c.3.175.552.033.552-.319a1.219,1.219,0,0,0-.552-.955Z"/></g><g class="cls-79"><path class="cls-81" d="M100.268,517.075c0-.028.017-.041.038-.029l.076.044a.089.089,0,0,1,.037.072v.795c0,.028-.016.04-.037.028l-.076-.043a.09.09,0,0,1-.038-.072v-.795Z"/></g><g class="cls-79"><polygon class="cls-82" points="102.594 516.046 103.787 516.735 102.957 517.214 101.763 516.525 102.594 516.046 102.594 516.046"/><path class="cls-83" d="M101.581,516.984c0-.431.262-.629.585-.443l1.17.676a1.4,1.4,0,0,1,.585,1.117V521.1c0,.431-.262.629-.585.443l-1.17-.676a1.4,1.4,0,0,1-.585-1.117v-2.769Z"/></g><path class="cls-84" d="M114.723,492.726A2.388,2.388,0,0,1,115.8,494.6c0,.688-.484.968-1.081.624a2.392,2.392,0,0,1-1.08-1.872c0-.689.484-.968,1.08-.624Z"/><polygon class="cls-72" points="119.954 495.91 116.074 493.67 116.074 494.548 119.954 496.789 119.954 495.91 119.954 495.91"/><polygon class="cls-72" points="118.604 496.254 116.074 494.793 116.074 495.672 118.604 497.133 118.604 496.254 118.604 496.254"/><path class="cls-71" d="M118.843,498.866a.561.561,0,0,0-.281-.487l-4.536-2.619a.255.255,0,0,0-.383.221v9.885a.591.591,0,0,0,.3.512l4.435,2.56a.314.314,0,0,0,.47-.271v-9.8Z"/><polygon class="cls-85" points="116.875 498.109 115.375 497.243 115.375 497.84 116.875 498.706 116.875 498.109 116.875 498.109"/><polygon class="cls-85" points="116.985 498.894 115.265 497.901 115.265 498.101 116.985 499.094 116.985 498.894 116.985 498.894"/><polygon class="cls-85" points="116.622 498.988 115.628 498.414 115.628 498.615 116.622 499.189 116.622 498.988 116.622 498.988"/><polygon class="cls-85" points="115.265 499.107 113.991 498.372 113.991 498.572 115.265 499.308 115.265 499.107 115.265 499.107"/><polygon class="cls-85" points="115.542 499.554 113.991 498.659 113.991 498.859 115.542 499.755 115.542 499.554 115.542 499.554"/><polygon class="cls-85" points="115.08 499.6 113.991 498.971 113.991 499.171 115.08 499.8 115.08 499.6 115.08 499.6"/><polygon class="cls-85" points="116.717 500.545 115.628 499.916 115.628 500.116 116.717 500.745 116.717 500.545 116.717 500.545"/><polygon class="cls-85" points="116.2 499.934 115.628 499.604 115.628 499.804 116.2 500.135 116.2 499.934 116.2 499.934"/><polygon class="cls-85" points="115.542 499.866 115.14 499.634 115.14 499.835 115.542 500.067 115.542 499.866 115.542 499.866"/><polygon class="cls-85" points="115.265 500.562 113.991 499.826 113.991 500.026 115.265 500.762 115.265 500.562 115.265 500.562"/><polygon class="cls-85" points="115.542 501.008 113.991 500.113 113.991 500.313 115.542 501.209 115.542 501.008 115.542 501.008"/><polygon class="cls-85" points="115.08 501.054 113.991 500.425 113.991 500.625 115.08 501.254 115.08 501.054 115.08 501.054"/><polygon class="cls-85" points="117.284 502.326 115.628 501.37 115.628 501.57 117.284 502.526 117.284 502.326 117.284 502.326"/><polygon class="cls-85" points="116.2 501.388 115.628 501.058 115.628 501.258 116.2 501.589 116.2 501.388 116.2 501.388"/><polygon class="cls-85" points="115.542 501.321 115.14 501.088 115.14 501.289 115.542 501.521 115.542 501.321 115.542 501.321"/><polygon class="cls-85" points="115.265 502.016 113.991 501.28 113.991 501.481 115.265 502.216 115.265 502.016 115.265 502.016"/><polygon class="cls-85" points="116.705 503.134 113.991 501.567 113.991 501.767 116.705 503.334 116.705 503.134 116.705 503.134"/><polygon class="cls-85" points="115.08 502.508 113.991 501.879 113.991 502.08 115.08 502.708 115.08 502.508 115.08 502.508"/><polygon class="cls-85" points="116.717 503.453 115.628 502.824 115.628 503.024 116.717 503.653 116.717 503.453 116.717 503.453"/><polygon class="cls-85" points="117.856 503.798 116.854 503.22 116.854 503.42 117.856 503.999 117.856 503.798 117.856 503.798"/><polygon class="cls-85" points="115.542 502.775 115.14 502.543 115.14 502.743 115.542 502.975 115.542 502.775 115.542 502.775"/><polygon class="cls-85" points="115.265 503.47 113.991 502.734 113.991 502.935 115.265 503.67 115.265 503.47 115.265 503.47"/><polygon class="cls-85" points="116.132 504.257 113.991 503.021 113.991 503.222 116.132 504.457 116.132 504.257 116.132 504.257"/><polygon class="cls-85" points="115.08 503.962 113.991 503.333 113.991 503.534 115.08 504.162 115.08 503.962 115.08 503.962"/><polygon class="cls-85" points="117.42 505.313 115.628 504.278 115.628 504.479 117.42 505.513 117.42 505.313 117.42 505.313"/><polygon class="cls-85" points="118.4 505.566 117.257 504.907 117.257 505.107 118.4 505.767 118.4 505.566 118.4 505.566"/><polygon class="cls-85" points="117.126 504.831 116.213 504.304 116.213 504.504 117.126 505.032 117.126 504.831 117.126 504.831"/><polygon class="cls-85" points="115.542 504.229 115.14 503.997 115.14 504.197 115.542 504.429 115.542 504.229 115.542 504.229"/><polygon class="cls-85" points="115.265 505.253 113.991 504.518 113.991 504.718 115.265 505.453 115.265 505.253 115.265 505.253"/><polygon class="cls-85" points="115.542 505.7 113.991 504.805 113.991 505.005 115.542 505.9 115.542 505.7 115.542 505.7"/><polygon class="cls-85" points="115.08 505.745 113.991 505.117 113.991 505.317 115.08 505.946 115.08 505.745 115.08 505.745"/><polygon class="cls-85" points="116.717 506.69 115.628 506.061 115.628 506.262 116.717 506.891 116.717 506.69 116.717 506.69"/><polygon class="cls-85" points="116.743 506.393 115.628 505.749 115.628 505.95 116.743 506.593 116.743 506.393 116.743 506.393"/><polygon class="cls-85" points="117.257 506.69 116.862 506.462 116.862 506.662 117.257 506.89 117.257 506.69 117.257 506.69"/><polygon class="cls-85" points="115.542 506.012 115.14 505.78 115.14 505.98 115.542 506.212 115.542 506.012 115.542 506.012"/><polygon class="cls-86" points="134.657 460.217 128.604 463.712 128.604 469.163 134.657 465.669 134.657 460.217 134.657 460.217"/><path class="cls-87" d="M131.907,462.88c.789-.455,1.43-.086,1.43.825a3.163,3.163,0,0,1-1.43,2.476c-.788.455-1.429.085-1.429-.825a3.164,3.164,0,0,1,1.429-2.476Z"/><g class="cls-88"><path class="cls-89" d="M131.505,462.648c.789-.455,1.429-.086,1.429.825a3.158,3.158,0,0,1-1.429,2.475c-.789.456-1.429.086-1.429-.825a3.16,3.16,0,0,1,1.429-2.475Z"/></g><polygon class="cls-46" points="29.431 399.464 23.361 402.969 128.588 463.721 134.657 460.217 29.431 399.464 29.431 399.464"/><g class="cls-90"><path class="cls-91" d="M29.3,412.381V406.5l6.639-3.834a.129.129,0,0,0,.048-.177.131.131,0,0,0-.178-.048l-6.7,3.871a.13.13,0,0,0-.065.113v5.955a.13.13,0,1,0,.26,0Z"/><path class="cls-91" d="M121.137,465.406v-5.881l6.64-3.833a.13.13,0,0,0-.13-.226l-6.705,3.871a.13.13,0,0,0-.065.113v5.956a.13.13,0,0,0,.26,0Z"/><path class="cls-92" d="M126.624,458.72a3.61,3.61,0,0,1,3.267,0,1,1,0,0,1,0,1.886,3.61,3.61,0,0,1-3.267,0,1,1,0,0,1,0-1.886Z"/></g><g class="cls-90"><path class="cls-89" d="M126.624,459.416a3.61,3.61,0,0,1,3.267,0,1,1,0,0,1,0,1.886,3.616,3.616,0,0,1-3.267,0,1,1,0,0,1,0-1.886Z"/></g><g class="cls-90"><path class="cls-92" d="M27.489,401.484a3.616,3.616,0,0,1,3.267,0,1,1,0,0,1,0,1.887,3.616,3.616,0,0,1-3.267,0,1,1,0,0,1,0-1.887Z"/></g><g class="cls-90"><path class="cls-89" d="M27.489,402.18a3.61,3.61,0,0,1,3.267,0,1,1,0,0,1,0,1.886,3.61,3.61,0,0,1-3.267,0,1,1,0,0,1,0-1.886Z"/></g><polygon class="cls-93" points="128.604 463.731 23.361 402.969 23.361 408.401 128.604 469.163 128.604 463.731 128.604 463.731"/><g class="cls-94"><path class="cls-91" d="M121.137,465.406v-5.881l6.64-3.833a.13.13,0,0,0-.13-.226l-6.705,3.871a.13.13,0,0,0-.065.113v5.956a.13.13,0,0,0,.26,0Z"/><path class="cls-91" d="M29.3,412.381V406.5l6.639-3.834a.129.129,0,0,0,.048-.177.131.131,0,0,0-.178-.048l-6.7,3.871a.13.13,0,0,0-.065.113v5.955a.13.13,0,1,0,.26,0Z"/><path class="cls-87" d="M124.414,462.538a3.227,3.227,0,0,1,1.46,2.528c0,.93-.654,1.308-1.46.843a3.229,3.229,0,0,1-1.459-2.529c0-.93.654-1.308,1.459-.842Z"/></g><g class="cls-94"><path class="cls-89" d="M124.819,462.3a3.228,3.228,0,0,1,1.46,2.529c0,.93-.654,1.308-1.46.842a3.227,3.227,0,0,1-1.46-2.528c0-.93.654-1.308,1.46-.843Z"/></g><g class="cls-94"><path class="cls-87" d="M26.063,405.755a3.227,3.227,0,0,1,1.46,2.528c0,.93-.654,1.308-1.46.843A3.229,3.229,0,0,1,24.6,406.6c0-.93.654-1.308,1.459-.842Z"/></g><g class="cls-94"><path class="cls-89" d="M26.468,405.521a3.229,3.229,0,0,1,1.459,2.529c0,.93-.654,1.308-1.459.842a3.227,3.227,0,0,1-1.46-2.528c0-.93.654-1.308,1.46-.843Z"/></g><polygon class="cls-86" points="378.735 319.299 372.682 322.793 372.682 328.245 378.735 324.75 378.735 319.299 378.735 319.299"/><path class="cls-87" d="M375.985,321.962c.789-.456,1.43-.086,1.43.825a3.159,3.159,0,0,1-1.43,2.475c-.788.456-1.429.086-1.429-.825a3.161,3.161,0,0,1,1.429-2.475Z"/><g class="cls-95"><path class="cls-89" d="M375.583,321.729c.789-.455,1.429-.085,1.429.826a3.16,3.16,0,0,1-1.429,2.475c-.789.455-1.429.086-1.429-.825a3.162,3.162,0,0,1,1.429-2.476Z"/></g><polygon class="cls-46" points="273.508 258.546 267.439 262.05 372.666 322.803 378.735 319.299 273.508 258.546 273.508 258.546"/><g class="cls-96"><path class="cls-42" d="M265.038,260.664c31.229,11.838,72.233,35.821,114.419,61.273l2.895-3.916L272.7,254.509l-7.658,6.155Z"/><path class="cls-91" d="M273.375,271.463v-5.881l6.639-3.833a.13.13,0,1,0-.13-.225l-6.7,3.87a.131.131,0,0,0-.065.113v5.956a.13.13,0,1,0,.26,0Z"/><path class="cls-91" d="M365.215,324.487v-5.881l6.639-3.833a.13.13,0,1,0-.13-.225l-6.7,3.871a.13.13,0,0,0-.065.112v5.956a.13.13,0,0,0,.26,0Z"/><path class="cls-92" d="M370.7,317.8a3.61,3.61,0,0,1,3.267,0,1,1,0,0,1,0,1.886,3.616,3.616,0,0,1-3.267,0,1,1,0,0,1,0-1.886Z"/></g><g class="cls-96"><path class="cls-89" d="M370.7,318.5a3.616,3.616,0,0,1,3.267,0,1,1,0,0,1,0,1.886,3.61,3.61,0,0,1-3.267,0,1,1,0,0,1,0-1.886Z"/></g><g class="cls-96"><path class="cls-92" d="M271.567,260.566a3.61,3.61,0,0,1,3.267,0,1,1,0,0,1,0,1.886,3.61,3.61,0,0,1-3.267,0,1,1,0,0,1,0-1.886Z"/></g><g class="cls-96"><path class="cls-89" d="M271.567,261.261a3.616,3.616,0,0,1,3.267,0,1,1,0,0,1,0,1.887,3.616,3.616,0,0,1-3.267,0,1,1,0,0,1,0-1.887Z"/></g><polygon class="cls-93" points="372.682 322.812 267.439 262.05 267.439 267.483 372.682 328.245 372.682 322.812 372.682 322.812"/><g class="cls-97"><path class="cls-91" d="M365.215,324.487v-5.881l6.639-3.833a.13.13,0,1,0-.13-.225l-6.7,3.871a.13.13,0,0,0-.065.112v5.956a.13.13,0,0,0,.26,0Z"/><path class="cls-91" d="M273.375,271.463v-5.881l6.639-3.833a.13.13,0,1,0-.13-.225l-6.7,3.87a.131.131,0,0,0-.065.113v5.956a.13.13,0,1,0,.26,0Z"/><path class="cls-87" d="M368.492,321.619a3.228,3.228,0,0,1,1.46,2.529c0,.93-.654,1.308-1.46.842a3.229,3.229,0,0,1-1.459-2.528c0-.93.654-1.308,1.459-.843Z"/></g><g class="cls-97"><path class="cls-89" d="M368.9,321.386a3.227,3.227,0,0,1,1.46,2.528c0,.93-.654,1.308-1.46.843a3.228,3.228,0,0,1-1.46-2.529c0-.93.654-1.307,1.46-.842Z"/></g><g class="cls-97"><path class="cls-87" d="M270.141,264.836a3.228,3.228,0,0,1,1.46,2.529c0,.93-.654,1.308-1.46.842a3.23,3.23,0,0,1-1.46-2.528c0-.93.655-1.308,1.46-.843Z"/></g><g class="cls-97"><path class="cls-89" d="M270.546,264.6a3.229,3.229,0,0,1,1.459,2.528c0,.93-.654,1.308-1.459.843a3.228,3.228,0,0,1-1.46-2.529c0-.93.654-1.308,1.46-.842Z"/></g><polygon class="cls-57" points="210.108 532.728 210.108 529.144 228.821 518.34 228.821 521.924 299.191 481.296 299.191 477.712 317.904 466.908 317.904 470.492 378.042 435.771 378.042 325.151 128.604 469.163 128.604 579.784 210.108 532.728 210.108 532.728"/><g class="cls-98"><path class="cls-99" d="M129.776,579.23c58.775-43.189,165.212-112.3,195.34-181.6,14.6-33.594,33.281-40.338,58.281-77.671l3.978,118.024-257.6,141.25Z"/></g><g class="cls-98"><polygon class="cls-100" points="362.132 345.077 336.635 359.798 336.635 447.003 362.132 432.282 362.132 345.077 362.132 345.077"/></g><g class="cls-98"><polygon class="cls-101" points="372.643 334.053 134.003 471.832 134.003 571.061 372.643 433.282 372.643 334.053 372.643 334.053"/></g><g class="cls-98"><polygon class="cls-102" points="180.981 449.665 155.484 464.386 155.484 551.59 180.981 536.869 180.981 449.665 180.981 449.665"/><polygon class="cls-102" points="362.132 345.077 336.635 359.798 336.635 447.003 362.132 432.282 362.132 345.077 362.132 345.077"/><path class="cls-52" d="M129.776,579.23c58.775-43.189,165.212-112.3,195.34-181.6,14.6-33.594,33.281-40.338,58.281-77.671l3.978,118.024-257.6,141.25Z"/></g><g class="cls-98"><polygon class="cls-100" points="362.132 345.077 336.635 359.798 336.635 447.003 362.132 432.282 362.132 345.077 362.132 345.077"/></g><g class="cls-98"><path class="cls-52" d="M129.776,509.473s60-63,113.6-95.733,74.46-51.958,74.46-51.958L128.6,460.788l1.172,48.685Z"/><path class="cls-53" d="M272.387,425.965c-2.051.625-4.3,2.667-5.769,5.485-2.105,4.032-1.835,8.137.605,9.16a3.409,3.409,0,0,0,2.042.142l1.848-6.241-3.377,3.382,4.651-11.928Zm-2.535,14.625a11.055,11.055,0,0,0,5.606-5.433c2.106-4.032,1.835-8.137-.6-9.16a3.382,3.382,0,0,0-1.978-.155l-1.508,5.081,3.386-1.426-4.9,11.093Z"/><path class="cls-61" d="M168.123,451.414l-1.569.905V553.831l1.569-.906V451.414Zm32.977-19.04-1.568.906V534.791l1.568-.905V432.374Zm32.567-18.8-1.568.906V515.988l1.568-.905V413.571Zm30.57-17.649-1.568.9V498.339l1.568-.906V395.922Zm29.61-17.1-1.569.905V481.244l1.569-.906V378.827Zm28.378-16.385-1.568.906V464.86l1.568-.906V362.442Zm27.085-15.637-1.569.906V449.222l1.569-.9V346.805Z"/></g><g class="cls-98"><path class="cls-103" d="M167.2,450.879l-1.568.906V553.3l1.568-.905V450.879Zm32.978-19.039-1.569.905V534.257l1.569-.906V431.84Zm32.567-18.8-1.568.906V515.454l1.568-.906V413.037Zm30.57-17.65-1.569.906V497.805l1.569-.906V395.387Zm29.61-17.1-1.569.906V480.709l1.569-.905V378.292ZM321.3,361.908l-1.569.906V464.325l1.569-.9V361.908Zm27.084-15.637-1.568.9V448.688l1.568-.906V346.271Z"/></g><g class="cls-98"><path class="cls-104" d="M218.272,515.747c.986-.569,1.787-.107,1.787,1.033a3.954,3.954,0,0,1-1.787,3.1c-.987.57-1.788.107-1.788-1.032a3.955,3.955,0,0,1,1.788-3.1Z"/></g><g class="cls-98"><polygon class="cls-105" points="218.4 517.866 216.072 519.21 216.072 521.545 218.4 520.202 218.4 517.866 218.4 517.866"/><polygon class="cls-105" points="220.727 514.186 218.4 515.53 218.4 517.866 220.727 516.522 220.727 514.186 220.727 514.186"/></g><g class="cls-98"><path class="cls-104" d="M306.745,464.667c.987-.569,1.788-.107,1.788,1.032a3.954,3.954,0,0,1-1.788,3.1c-.987.57-1.788.107-1.788-1.032a3.954,3.954,0,0,1,1.788-3.1Z"/></g><g class="cls-98"><polygon class="cls-105" points="306.873 466.786 304.546 468.129 304.546 470.465 306.873 469.122 306.873 466.786 306.873 466.786"/><polygon class="cls-105" points="309.201 463.106 306.873 464.45 306.873 466.786 309.201 465.442 309.201 463.106 309.201 463.106"/></g><g class="cls-98"><path class="cls-106" d="M133.84,465.83v114M372.826,327.851v114"/></g><path class="cls-107" d="M136.468,465.633l1.409,3.1-2.423,1.4v-3.912l1.014-.585Zm2.045-1.181,1.409,3.1,1.906-1.1-1.409-3.1-1.906,1.1Zm3.951-2.281,1.926-1.111v3.911l-.517.3-1.409-3.1Z"/><path class="cls-107" d="M363.472,334.572l1.409,3.1-2.423,1.4v-3.911l1.014-.586Zm2.045-1.181,1.409,3.1,1.906-1.1-1.409-3.1-1.906,1.1Zm3.951-2.281L371.394,330v3.911l-.517.3-1.409-3.1Z"/><path class="cls-107" d="M136.468,570.46l1.409,3.1-2.423,1.4v-3.912l1.014-.585Zm2.045-1.181,1.409,3.1,1.906-1.1-1.409-3.1-1.906,1.1ZM142.464,567l1.926-1.112V569.8l-.517.3-1.409-3.1Z"/><path class="cls-107" d="M363.472,439.4l1.409,3.1-2.423,1.4v-3.912l1.014-.585Zm2.045-1.181,1.409,3.1,1.906-1.1-1.409-3.1-1.906,1.1Zm3.951-2.281,1.926-1.112v3.912l-.517.3-1.409-3.1Z"/><polygon class="cls-108" points="67.77 530.416 27.528 507.182 27.528 515.365 67.77 538.599 67.77 530.416 67.77 530.416"/><g class="cls-109"><polygon class="cls-45" points="69.739 528.274 29.498 505.04 29.498 513.223 69.739 536.456 69.739 528.274 69.739 528.274"/></g><g class="cls-109"><polygon class="cls-110" points="69.739 528.28 29.498 505.047 29.498 509.767 69.739 533.001 69.739 528.28 69.739 528.28"/></g><g class="cls-109"><polygon class="cls-103" points="29.498 505.66 27.528 506.797 27.528 515.414 29.498 513.2 29.498 505.66 29.498 505.66"/></g><polygon class="cls-108" points="67.77 500.77 27.528 477.536 27.528 485.719 67.77 508.952 67.77 500.77 67.77 500.77"/><g class="cls-111"><polygon class="cls-45" points="69.739 498.628 29.498 475.394 29.498 483.577 69.739 506.81 69.739 498.628 69.739 498.628"/></g><g class="cls-111"><polygon class="cls-110" points="69.739 498.696 29.498 475.463 29.498 480.183 69.739 503.417 69.739 498.696 69.739 498.696"/></g><g class="cls-111"><polygon class="cls-103" points="29.498 476.014 27.528 477.151 27.528 485.768 29.498 483.554 29.498 476.014 29.498 476.014"/></g><polygon class="cls-108" points="67.77 485.711 27.528 462.478 27.528 470.661 67.77 493.894 67.77 485.711 67.77 485.711"/><g class="cls-112"><polygon class="cls-45" points="69.739 483.569 29.498 460.336 29.498 468.519 69.739 491.752 69.739 483.569 69.739 483.569"/></g><g class="cls-112"><polygon class="cls-110" points="69.739 483.654 29.498 460.42 29.498 465.141 69.739 488.374 69.739 483.654 69.739 483.654"/></g><g class="cls-112"><polygon class="cls-103" points="29.498 460.956 27.528 462.093 27.528 470.71 29.498 468.496 29.498 460.956 29.498 460.956"/></g><polygon class="cls-108" points="67.77 470.653 27.528 447.42 27.528 455.602 67.77 478.836 67.77 470.653 67.77 470.653"/><g class="cls-113"><polygon class="cls-45" points="69.739 468.511 29.498 445.277 29.498 453.46 69.739 476.694 69.739 468.511 69.739 468.511"/><polygon class="cls-110" points="69.739 468.511 29.498 445.277 29.498 449.998 69.739 473.231 69.739 468.511 69.739 468.511"/><polygon class="cls-103" points="29.498 445.898 27.528 447.035 27.528 455.652 29.498 453.438 29.498 445.898 29.498 445.898"/></g><polygon class="cls-108" points="67.77 443.328 27.528 420.095 27.528 428.278 67.77 451.511 67.77 443.328 67.77 443.328"/><g class="cls-114"><polygon class="cls-45" points="69.739 441.186 29.498 417.953 29.498 426.135 69.739 449.369 69.739 441.186 69.739 441.186"/></g><g class="cls-114"><polygon class="cls-110" points="69.739 441.835 29.498 418.602 29.498 423.323 69.739 446.556 69.739 441.835 69.739 441.835"/></g><g class="cls-114"><polygon class="cls-103" points="29.498 418.573 27.528 419.71 27.528 428.327 29.498 426.113 29.498 418.573 29.498 418.573"/></g><path class="cls-45" d="M37.783,497.677l-6.136-3.543a.4.4,0,0,0-.6.346V495a.806.806,0,0,0,.4.7l7.609,4.394.622-.056L46.538,504v-1.68l-8.012-4.626-.743-.014Z"/><path class="cls-56" d="M37.643,497.758l-6.137-3.543a.4.4,0,0,0-.6.346v.523a.81.81,0,0,0,.4.7l7.61,4.393.622-.056,6.855,3.958V502.4l-8.013-4.626-.742-.014Z"/><g class="cls-115"><polygon class="cls-103" points="37.726 497.392 39.124 500.646 40.905 501.159 40.803 498.234 38.653 497.484 37.726 497.392 37.726 497.392"/></g><path class="cls-49" d="M45.433,530.189h-.005V522.8h2.221v7.387h-.006a.518.518,0,0,1-.319.52,1.739,1.739,0,0,1-1.571,0,.52.52,0,0,1-.32-.52Z"/><g class="cls-116"><polygon class="cls-66" points="48.281 517.258 47.284 517.258 47.284 531.133 48.281 531.133 48.281 517.258 48.281 517.258"/></g><path class="cls-89" d="M45.753,522.295a1.739,1.739,0,0,1,1.571,0,.479.479,0,0,1,0,.908,1.739,1.739,0,0,1-1.571,0,.479.479,0,0,1,0-.908Z"/><path class="cls-49" d="M45.433,522.434h-.005v-7.387h2.221v7.387h-.006a.518.518,0,0,1-.319.52,1.739,1.739,0,0,1-1.571,0,.52.52,0,0,1-.32-.52Z"/><g class="cls-117"><polygon class="cls-66" points="48.281 509.503 47.284 509.503 47.284 523.378 48.281 523.378 48.281 509.503 48.281 509.503"/></g><path class="cls-66" d="M45.753,514.54a1.739,1.739,0,0,1,1.571,0,.479.479,0,0,1,0,.908,1.739,1.739,0,0,1-1.571,0,.479.479,0,0,1,0-.908Z"/><path class="cls-58" d="M45.719,514.827h-.005V473.482H47.4v41.345h0a.393.393,0,0,1-.242.393,1.313,1.313,0,0,1-1.19,0,.391.391,0,0,1-.242-.393Z"/><g class="cls-118"><polygon class="cls-66" points="47.876 472.863 46.786 472.863 46.786 518.469 47.876 518.469 47.876 472.863 47.876 472.863"/></g><path class="cls-68" d="M45.961,473.339a1.32,1.32,0,0,1,1.19,0,.364.364,0,0,1,0,.688,1.32,1.32,0,0,1-1.19,0,.363.363,0,0,1,0-.688Z"/><path class="cls-49" d="M45.433,487.727h-.005V480.34h2.221v7.387h-.006a.518.518,0,0,1-.319.52,1.739,1.739,0,0,1-1.571,0,.52.52,0,0,1-.32-.52Z"/><g class="cls-119"><polygon class="cls-66" points="48.281 474.796 47.284 474.796 47.284 488.671 48.281 488.671 48.281 474.796 48.281 474.796"/></g><path class="cls-89" d="M45.753,479.833a1.739,1.739,0,0,1,1.571,0,.479.479,0,0,1,0,.908,1.739,1.739,0,0,1-1.571,0,.479.479,0,0,1,0-.908Z"/><path class="cls-49" d="M45.433,479.973h-.005v-7.388h2.221v7.388h-.006a.517.517,0,0,1-.319.519,1.739,1.739,0,0,1-1.571,0,.52.52,0,0,1-.32-.519Z"/><g class="cls-120"><polygon class="cls-66" points="48.281 467.041 47.284 467.041 47.284 480.917 48.281 480.917 48.281 467.041 48.281 467.041"/></g><path class="cls-66" d="M45.753,472.078a1.739,1.739,0,0,1,1.571,0,.479.479,0,0,1,0,.908,1.739,1.739,0,0,1-1.571,0,.479.479,0,0,1,0-.908Z"/><path class="cls-58" d="M45.719,472.365h-.005V431.02H47.4v41.345h0a.393.393,0,0,1-.242.393,1.313,1.313,0,0,1-1.19,0,.391.391,0,0,1-.242-.393Z"/><g class="cls-121"><polygon class="cls-66" points="47.876 430.401 46.786 430.401 46.786 476.007 47.876 476.007 47.876 430.401 47.876 430.401"/></g><path class="cls-68" d="M45.961,430.877a1.32,1.32,0,0,1,1.19,0,.364.364,0,0,1,0,.688,1.32,1.32,0,0,1-1.19,0,.363.363,0,0,1,0-.688Z"/><path class="cls-49" d="M45.433,438.891h-.005V431.5h2.221v7.387h-.006a.518.518,0,0,1-.319.52,1.739,1.739,0,0,1-1.571,0,.52.52,0,0,1-.32-.52Z"/><g class="cls-122"><polygon class="cls-66" points="48.281 425.959 47.284 425.959 47.284 439.835 48.281 439.835 48.281 425.959 48.281 425.959"/></g><path class="cls-66" d="M45.753,431a1.739,1.739,0,0,1,1.571,0,.479.479,0,0,1,0,.907,1.733,1.733,0,0,1-1.571,0,.479.479,0,0,1,0-.907Z"/><path class="cls-89" d="M39.635,501.034v2.257a.273.273,0,0,0,.137.236l.894.516a.16.16,0,0,0,.239-.138v-3.112l-.209-.59a.832.832,0,0,1-.047-.275v-2.336a.644.644,0,0,0-.323-.558l-.515-.3a.288.288,0,0,0-.432.25v3.324a.661.661,0,0,0,.057.27l.2.454Z"/><path class="cls-61" d="M39.472,501.129v2.256a.271.271,0,0,0,.136.236l.9.517a.16.16,0,0,0,.239-.138v-3.113l-.209-.59a.8.8,0,0,1-.048-.275v-2.335a.645.645,0,0,0-.322-.559l-.515-.3a.288.288,0,0,0-.432.249V500.4a.677.677,0,0,0,.056.27l.2.455Z"/><g class="cls-123"><path class="cls-45" d="M40.085,501.574c-.169-.1-.307-.018-.307.178a.682.682,0,0,0,.307.532c.17.1.307.018.307-.178a.679.679,0,0,0-.307-.532Z"/><path class="cls-124" d="M40.274,502.246a.185.185,0,0,0,.072-.166.579.579,0,0,0-.261-.453.186.186,0,0,0-.185-.018h0l-.236.137.16.092,0,0a.608.608,0,0,0,.21.362l-.16.092.16.093.236-.137Z"/></g><g class="cls-123"><polygon class="cls-125" points="40.055 501.493 40.281 501.623 39.84 501.877 39.614 501.747 40.055 501.493 40.055 501.493"/><polygon class="cls-126" points="40.407 501.983 40.633 502.114 39.978 502.492 39.752 502.362 40.407 501.983 40.407 501.983"/></g><g class="cls-123"><path class="cls-93" d="M39.856,501.76c-.145-.083-.261-.016-.261.151a.575.575,0,0,0,.261.452c.144.083.261.016.261-.151a.578.578,0,0,0-.261-.452Z"/><path class="cls-103" d="M39.826,501.812c-.128-.074-.231-.014-.231.133a.511.511,0,0,0,.231.4c.127.073.231.013.231-.134a.513.513,0,0,0-.231-.4Z"/><path class="cls-127" d="M39.817,501.933c-.072-.041-.13-.008-.13.075a.287.287,0,0,0,.13.226c.072.042.131.008.131-.075a.29.29,0,0,0-.131-.226Z"/></g><g class="cls-123"><polygon class="cls-128" points="39.826 501.804 40.017 501.915 39.695 502.1 39.504 501.99 39.826 501.804 39.826 501.804"/></g><g class="cls-123"><path class="cls-45" d="M40.085,502.787c-.169-.1-.307-.019-.307.177a.68.68,0,0,0,.307.532c.17.1.307.018.307-.177a.676.676,0,0,0-.307-.532Z"/><path class="cls-124" d="M40.274,503.459a.187.187,0,0,0,.072-.167.578.578,0,0,0-.261-.452.181.181,0,0,0-.185-.018h0l-.236.136.16.093,0,0a.6.6,0,0,0,.21.362l-.16.093.16.092.236-.136Z"/></g><g class="cls-123"><polygon class="cls-125" points="40.055 502.705 40.281 502.836 39.84 503.09 39.614 502.959 40.055 502.705 40.055 502.705"/><polygon class="cls-126" points="40.407 503.196 40.633 503.326 39.978 503.705 39.752 503.574 40.407 503.196 40.407 503.196"/></g><g class="cls-123"><path class="cls-93" d="M39.856,502.972c-.145-.083-.261-.015-.261.151a.573.573,0,0,0,.261.452c.144.084.261.016.261-.15a.579.579,0,0,0-.261-.453Z"/><path class="cls-103" d="M39.826,503.024c-.128-.073-.231-.013-.231.134a.51.51,0,0,0,.231.4c.127.074.231.014.231-.133a.513.513,0,0,0-.231-.4Z"/><path class="cls-127" d="M39.817,503.146c-.072-.042-.13-.008-.13.075a.286.286,0,0,0,.13.225c.072.042.131.008.131-.075a.287.287,0,0,0-.131-.225Z"/></g><g class="cls-123"><polygon class="cls-128" points="39.826 503.017 40.017 503.127 39.695 503.313 39.504 503.203 39.826 503.017 39.826 503.017"/></g><path class="cls-45" d="M59.873,510.431l-6.136-3.543a.4.4,0,0,0-.6.346v.522a.805.805,0,0,0,.4.7l7.609,4.394.623-.056,6.855,3.958v-1.68l-8.013-4.626-.743-.014Z"/><path class="cls-56" d="M59.733,510.512,53.6,506.969a.4.4,0,0,0-.6.346v.522a.806.806,0,0,0,.4.7l7.609,4.394.622-.056,6.855,3.958v-1.68l-8.013-4.626-.742-.014Z"/><g class="cls-129"><polygon class="cls-103" points="59.817 510.146 61.214 513.4 62.995 513.913 62.893 510.988 60.743 510.238 59.817 510.146 59.817 510.146"/></g><path class="cls-49" d="M67.524,542.943h-.006v-7.387h2.221v7.387h-.005a.518.518,0,0,1-.32.519,1.733,1.733,0,0,1-1.571,0,.516.516,0,0,1-.319-.519Z"/><g class="cls-130"><polygon class="cls-66" points="70.371 530.011 69.374 530.011 69.374 543.887 70.371 543.887 70.371 530.011 70.371 530.011"/></g><path class="cls-89" d="M67.843,535.049a1.739,1.739,0,0,1,1.571,0,.479.479,0,0,1,0,.907,1.733,1.733,0,0,1-1.571,0,.479.479,0,0,1,0-.907Z"/><path class="cls-49" d="M67.524,535.188h-.006V527.8h2.221v7.387h-.005a.518.518,0,0,1-.32.519,1.733,1.733,0,0,1-1.571,0,.516.516,0,0,1-.319-.519Z"/><g class="cls-131"><polygon class="cls-66" points="70.371 522.256 69.374 522.256 69.374 536.132 70.371 536.132 70.371 522.256 70.371 522.256"/></g><path class="cls-66" d="M67.843,527.294a1.739,1.739,0,0,1,1.571,0,.479.479,0,0,1,0,.907,1.733,1.733,0,0,1-1.571,0,.479.479,0,0,1,0-.907Z"/><path class="cls-58" d="M67.809,527.58h0V486.235h1.683V527.58h0a.393.393,0,0,1-.242.394,1.32,1.32,0,0,1-1.19,0,.393.393,0,0,1-.242-.394Z"/><g class="cls-132"><polygon class="cls-66" points="69.966 485.617 68.876 485.617 68.876 531.223 69.966 531.223 69.966 485.617 69.966 485.617"/></g><path class="cls-68" d="M68.051,486.093a1.313,1.313,0,0,1,1.19,0,.362.362,0,0,1,0,.687,1.313,1.313,0,0,1-1.19,0,.362.362,0,0,1,0-.687Z"/><path class="cls-49" d="M67.524,500.481h-.006v-7.387h2.221v7.387h-.005a.518.518,0,0,1-.32.519,1.733,1.733,0,0,1-1.571,0,.516.516,0,0,1-.319-.519Z"/><g class="cls-133"><polygon class="cls-66" points="70.371 487.549 69.374 487.549 69.374 501.425 70.371 501.425 70.371 487.549 70.371 487.549"/></g><path class="cls-89" d="M67.843,492.587a1.739,1.739,0,0,1,1.571,0,.479.479,0,0,1,0,.907,1.733,1.733,0,0,1-1.571,0,.479.479,0,0,1,0-.907Z"/><path class="cls-49" d="M67.524,492.726h-.006v-7.387h2.221v7.387h-.005a.518.518,0,0,1-.32.519,1.733,1.733,0,0,1-1.571,0,.516.516,0,0,1-.319-.519Z"/><g class="cls-134"><polygon class="cls-66" points="70.371 479.794 69.374 479.794 69.374 493.67 70.371 493.67 70.371 479.794 70.371 479.794"/></g><path class="cls-66" d="M67.843,484.832a1.739,1.739,0,0,1,1.571,0,.479.479,0,0,1,0,.907,1.733,1.733,0,0,1-1.571,0,.479.479,0,0,1,0-.907Z"/><path class="cls-58" d="M67.809,485.118h0V443.773h1.683v41.345h0a.393.393,0,0,1-.242.394,1.32,1.32,0,0,1-1.19,0,.393.393,0,0,1-.242-.394Z"/><g class="cls-135"><polygon class="cls-66" points="69.966 443.155 68.876 443.155 68.876 488.761 69.966 488.761 69.966 443.155 69.966 443.155"/></g><path class="cls-68" d="M68.051,443.631a1.313,1.313,0,0,1,1.19,0,.362.362,0,0,1,0,.687,1.313,1.313,0,0,1-1.19,0,.362.362,0,0,1,0-.687Z"/><path class="cls-49" d="M67.524,451.645h-.006v-7.387h2.221v7.387h-.005a.52.52,0,0,1-.32.519,1.733,1.733,0,0,1-1.571,0,.517.517,0,0,1-.319-.519Z"/><g class="cls-136"><polygon class="cls-66" points="70.371 438.713 69.374 438.713 69.374 452.589 70.371 452.589 70.371 438.713 70.371 438.713"/></g><path class="cls-66" d="M67.843,443.751a1.739,1.739,0,0,1,1.571,0,.479.479,0,0,1,0,.907,1.733,1.733,0,0,1-1.571,0,.479.479,0,0,1,0-.907Z"/><path class="cls-89" d="M61.726,513.788v2.257a.274.274,0,0,0,.136.236l.894.516a.159.159,0,0,0,.239-.138v-3.112l-.209-.59a.838.838,0,0,1-.047-.276v-2.335a.647.647,0,0,0-.323-.559l-.515-.3a.29.29,0,0,0-.288,0,.287.287,0,0,0-.144.249v3.325a.673.673,0,0,0,.057.269l.2.455Z"/><path class="cls-61" d="M61.562,513.882v2.257a.273.273,0,0,0,.137.236l.894.517a.16.16,0,0,0,.239-.138v-3.113l-.209-.59a.828.828,0,0,1-.047-.275v-2.335a.644.644,0,0,0-.323-.559l-.515-.3a.288.288,0,0,0-.432.25v3.324a.677.677,0,0,0,.056.27l.2.454Z"/><g class="cls-137"><path class="cls-45" d="M62.176,514.328c-.17-.1-.308-.018-.308.177a.677.677,0,0,0,.308.532c.169.1.307.019.307-.177a.68.68,0,0,0-.307-.532Z"/><path class="cls-124" d="M62.364,515a.187.187,0,0,0,.073-.167.578.578,0,0,0-.261-.452.186.186,0,0,0-.185-.018h0l-.237.137.16.092,0,0a.6.6,0,0,0,.209.363l-.16.092.16.093.236-.137Z"/></g><g class="cls-137"><polygon class="cls-125" points="62.145 514.246 62.371 514.377 61.931 514.631 61.704 514.501 62.145 514.246 62.145 514.246"/><polygon class="cls-126" points="62.497 514.737 62.724 514.868 62.068 515.246 61.842 515.115 62.497 514.737 62.497 514.737"/></g><g class="cls-137"><path class="cls-93" d="M61.946,514.514c-.144-.083-.261-.016-.261.15a.578.578,0,0,0,.261.453c.144.083.261.015.261-.151a.578.578,0,0,0-.261-.452Z"/><path class="cls-103" d="M61.916,514.566c-.128-.074-.231-.014-.231.133a.509.509,0,0,0,.231.4c.127.074.231.014.231-.133a.511.511,0,0,0-.231-.4Z"/><path class="cls-127" d="M61.907,514.687c-.071-.042-.13-.008-.13.075a.292.292,0,0,0,.13.226c.072.041.131.008.131-.075a.289.289,0,0,0-.131-.226Z"/></g><g class="cls-137"><polygon class="cls-128" points="61.916 514.558 62.107 514.668 61.785 514.854 61.594 514.744 61.916 514.558 61.916 514.558"/></g><g class="cls-137"><path class="cls-45" d="M62.176,515.54c-.17-.1-.308-.018-.308.178a.68.68,0,0,0,.308.532c.169.1.307.018.307-.178a.682.682,0,0,0-.307-.532Z"/><path class="cls-124" d="M62.364,516.212a.185.185,0,0,0,.073-.166.576.576,0,0,0-.261-.452.184.184,0,0,0-.185-.019h0l-.237.137.16.092,0,0a.6.6,0,0,0,.209.362l-.16.093.16.092.236-.137Z"/></g><g class="cls-137"><polygon class="cls-125" points="62.145 515.459 62.371 515.589 61.931 515.844 61.704 515.713 62.145 515.459 62.145 515.459"/><polygon class="cls-126" points="62.497 515.95 62.724 516.08 62.068 516.458 61.842 516.328 62.497 515.95 62.497 515.95"/></g><g class="cls-137"><path class="cls-93" d="M61.946,515.726c-.144-.083-.261-.015-.261.151a.578.578,0,0,0,.261.452c.144.083.261.016.261-.151a.578.578,0,0,0-.261-.452Z"/><path class="cls-103" d="M61.916,515.778c-.128-.073-.231-.014-.231.134a.51.51,0,0,0,.231.4c.127.073.231.014.231-.134a.513.513,0,0,0-.231-.4Z"/><path class="cls-127" d="M61.907,515.9c-.071-.041-.13-.007-.13.076a.288.288,0,0,0,.13.225c.072.042.131.008.131-.075a.29.29,0,0,0-.131-.226Z"/></g><g class="cls-137"><polygon class="cls-128" points="61.916 515.771 62.107 515.881 61.785 516.067 61.594 515.956 61.916 515.771 61.916 515.771"/></g><polygon class="cls-81" points="27.537 417.807 25.02 417.797 25.038 419.25 121.391 474.88 123.89 473.437 123.89 471.994 27.537 417.807 27.537 417.807"/><polygon class="cls-138" points="27.519 416.354 25.02 417.797 121.391 473.437 123.89 471.994 27.519 416.354 27.519 416.354"/><polygon class="cls-73" points="122.629 570.986 119.926 572.546 126.011 576.059 128.713 574.499 122.629 570.986 122.629 570.986"/><polygon class="cls-139" points="133.52 571.723 126.032 576.046 126.032 581.281 133.52 576.958 133.52 571.723 133.52 571.723"/><polygon class="cls-108" points="126.032 576.072 119.926 572.546 119.926 577.755 126.032 581.281 126.032 576.072 126.032 576.072"/><path class="cls-87" d="M122.83,575.22a3.228,3.228,0,0,1,1.46,2.529c0,.93-.654,1.308-1.46.842a3.229,3.229,0,0,1-1.459-2.528c0-.93.654-1.308,1.459-.843Z"/><g class="cls-140"><path class="cls-89" d="M123.235,574.987a3.229,3.229,0,0,1,1.459,2.528c0,.93-.654,1.308-1.459.843a3.227,3.227,0,0,1-1.46-2.528c0-.931.654-1.309,1.46-.843Z"/></g><path class="cls-87" d="M131.907,573.749c.789-.455,1.43-.086,1.43.825a3.163,3.163,0,0,1-1.43,2.476c-.788.455-1.429.085-1.429-.826a3.163,3.163,0,0,1,1.429-2.475Z"/><g class="cls-141"><path class="cls-89" d="M131.505,573.517c.789-.456,1.429-.086,1.429.825a3.158,3.158,0,0,1-1.429,2.475c-.789.456-1.429.086-1.429-.825a3.158,3.158,0,0,1,1.429-2.475Z"/></g><polygon class="cls-73" points="23.332 513.657 20.63 515.217 26.714 518.73 29.416 517.17 23.332 513.657 23.332 513.657"/><polygon class="cls-139" points="29.498 517.123 26.736 518.717 26.736 523.952 29.498 522.357 29.498 517.123 29.498 517.123"/><polygon class="cls-108" points="26.736 518.743 20.63 515.217 20.63 520.426 26.736 523.952 26.736 518.743 26.736 518.743"/><path class="cls-87" d="M23.6,517.932a3.227,3.227,0,0,1,1.46,2.528c0,.931-.654,1.308-1.46.843a3.227,3.227,0,0,1-1.46-2.528c0-.931.654-1.308,1.46-.843Z"/><g class="cls-142"><path class="cls-89" d="M24.008,517.7a3.229,3.229,0,0,1,1.46,2.529c0,.93-.654,1.308-1.46.843a3.232,3.232,0,0,1-1.459-2.529c0-.93.654-1.308,1.459-.843Z"/></g><path class="cls-87" d="M23.6,517.932a3.227,3.227,0,0,1,1.46,2.528c0,.931-.654,1.308-1.46.843a3.227,3.227,0,0,1-1.46-2.528c0-.931.654-1.308,1.46-.843Z"/><g class="cls-142"><path class="cls-89" d="M24.008,517.7a3.229,3.229,0,0,1,1.46,2.529c0,.93-.654,1.308-1.46.843a3.232,3.232,0,0,1-1.459-2.529c0-.93.654-1.308,1.459-.843Z"/></g><path class="cls-143" d="M77.915,460.2,74.2,462.346a1.068,1.068,0,0,0,0,1.849l28.858,16.661a3.64,3.64,0,0,0,3.642,0l3.493-2.017v-.605L77.915,460.2Z"/><path class="cls-144" d="M77.915,459.6,74.2,461.741a1.068,1.068,0,0,0,0,1.849l28.858,16.661a3.645,3.645,0,0,0,3.642,0l3.493-2.017L77.915,459.6Z"/><polygon class="cls-145" points="180.58 450.492 156.314 464.502 156.314 549.09 157.268 549.641 180.58 535.08 181.534 451.042 180.58 450.492 180.58 450.492"/><g class="cls-146"><polygon class="cls-147" points="181.156 449.111 155.409 463.975 157.855 465.388 183.602 450.523 181.156 449.111 181.156 449.111"/></g><polygon class="cls-148" points="181.534 451.042 157.268 465.053 157.268 549.641 181.534 535.631 181.534 451.042 181.534 451.042"/><polygon class="cls-149" points="180.169 453.997 159.203 466.102 159.203 468.607 180.169 456.502 180.169 453.997 180.169 453.997"/><g class="cls-150"><polygon class="cls-151" points="179.296 454.132 158.33 466.237 159.203 467.968 180.169 455.863 179.296 454.132 179.296 454.132"/></g><polygon class="cls-149" points="180.169 457.507 159.203 469.612 159.203 472.118 180.169 460.013 180.169 457.507 180.169 457.507"/><g class="cls-152"><polygon class="cls-151" points="179.296 457.643 158.33 469.748 159.203 471.478 180.169 459.373 179.296 457.643 179.296 457.643"/></g><polygon class="cls-149" points="180.169 461.018 159.203 473.123 159.203 475.628 180.169 463.523 180.169 461.018 180.169 461.018"/><g class="cls-153"><polygon class="cls-151" points="179.296 461.153 158.33 473.258 159.203 474.989 180.169 462.884 179.296 461.153 179.296 461.153"/></g><polygon class="cls-149" points="180.169 464.528 159.203 476.633 159.203 479.139 180.169 467.034 180.169 464.528 180.169 464.528"/><g class="cls-154"><polygon class="cls-151" points="179.296 464.664 158.33 476.768 159.203 478.499 180.169 466.394 179.296 464.664 179.296 464.664"/></g><polygon class="cls-149" points="180.169 468.039 159.203 480.144 159.203 482.649 180.169 470.544 180.169 468.039 180.169 468.039"/><g class="cls-155"><polygon class="cls-151" points="179.296 468.174 158.33 480.279 159.203 482.01 180.169 469.905 179.296 468.174 179.296 468.174"/></g><polygon class="cls-149" points="180.169 471.549 159.203 483.654 159.203 486.159 180.169 474.055 180.169 471.549 180.169 471.549"/><g class="cls-156"><polygon class="cls-151" points="179.296 471.684 158.33 483.789 159.203 485.52 180.169 473.415 179.296 471.684 179.296 471.684"/></g><polygon class="cls-149" points="180.169 475.06 159.203 487.165 159.203 489.67 180.169 477.565 180.169 475.06 180.169 475.06"/><g class="cls-157"><polygon class="cls-151" points="179.296 475.195 158.33 487.3 159.203 489.031 180.169 476.926 179.296 475.195 179.296 475.195"/></g><polygon class="cls-149" points="180.169 478.57 159.203 490.675 159.203 493.18 180.169 481.075 180.169 478.57 180.169 478.57"/><g class="cls-158"><polygon class="cls-151" points="179.296 478.705 158.33 490.81 159.203 492.541 180.169 480.436 179.296 478.705 179.296 478.705"/></g><polygon class="cls-149" points="180.169 482.08 159.203 494.185 159.203 496.691 180.169 484.586 180.169 482.08 180.169 482.08"/><g class="cls-159"><polygon class="cls-151" points="179.296 482.216 158.33 494.321 159.203 496.051 180.169 483.947 179.296 482.216 179.296 482.216"/></g><polygon class="cls-149" points="180.169 485.591 159.203 497.696 159.203 500.201 180.169 488.096 180.169 485.591 180.169 485.591"/><g class="cls-160"><polygon class="cls-151" points="179.296 485.726 158.33 497.831 159.203 499.562 180.169 487.457 179.296 485.726 179.296 485.726"/></g><polygon class="cls-149" points="180.169 489.101 159.203 501.206 159.203 503.712 180.169 491.607 180.169 489.101 180.169 489.101"/><g class="cls-161"><polygon class="cls-151" points="179.296 489.237 158.33 501.342 159.203 503.072 180.169 490.967 179.296 489.237 179.296 489.237"/></g><polygon class="cls-149" points="180.169 492.612 159.203 504.717 159.203 507.222 180.169 495.117 180.169 492.612 180.169 492.612"/><g class="cls-162"><polygon class="cls-151" points="179.296 492.747 158.33 504.852 159.203 506.583 180.169 494.478 179.296 492.747 179.296 492.747"/></g><polygon class="cls-149" points="180.169 496.122 159.203 508.227 159.203 510.733 180.169 498.628 180.169 496.122 180.169 496.122"/><g class="cls-163"><polygon class="cls-151" points="179.296 496.258 158.33 508.363 159.203 510.093 180.169 497.988 179.296 496.258 179.296 496.258"/></g><polygon class="cls-149" points="180.169 499.633 159.203 511.738 159.203 514.243 180.169 502.138 180.169 499.633 180.169 499.633"/><g class="cls-164"><polygon class="cls-151" points="179.296 499.768 158.33 511.873 159.203 513.604 180.169 501.499 179.296 499.768 179.296 499.768"/></g><polygon class="cls-149" points="180.169 503.143 159.203 515.248 159.203 517.754 180.169 505.649 180.169 503.143 180.169 503.143"/><g class="cls-165"><polygon class="cls-151" points="179.296 503.279 158.33 515.384 159.203 517.114 180.169 505.009 179.296 503.279 179.296 503.279"/></g><polygon class="cls-149" points="180.169 506.654 159.203 518.759 159.203 521.264 180.169 509.159 180.169 506.654 180.169 506.654"/><g class="cls-166"><polygon class="cls-151" points="179.296 506.789 158.33 518.894 159.203 520.625 180.169 508.52 179.296 506.789 179.296 506.789"/></g><polygon class="cls-149" points="180.169 510.164 159.203 522.269 159.203 524.774 180.169 512.67 180.169 510.164 180.169 510.164"/><g class="cls-167"><polygon class="cls-151" points="179.296 510.299 158.33 522.404 159.203 524.135 180.169 512.03 179.296 510.299 179.296 510.299"/></g><polygon class="cls-149" points="180.169 513.675 159.203 525.779 159.203 528.285 180.169 516.18 180.169 513.675 180.169 513.675"/><g class="cls-168"><polygon class="cls-151" points="179.296 513.81 158.33 525.915 159.203 527.646 180.169 515.541 179.296 513.81 179.296 513.81"/></g><polygon class="cls-149" points="180.169 517.185 159.203 529.29 159.203 531.795 180.169 519.69 180.169 517.185 180.169 517.185"/><g class="cls-169"><polygon class="cls-151" points="179.296 517.32 158.33 529.425 159.203 531.156 180.169 519.051 179.296 517.32 179.296 517.32"/></g><polygon class="cls-149" points="180.169 520.695 159.203 532.8 159.203 535.306 180.169 523.201 180.169 520.695 180.169 520.695"/><g class="cls-170"><polygon class="cls-151" points="179.296 520.831 158.33 532.936 159.203 534.667 180.169 522.562 179.296 520.831 179.296 520.831"/></g><polygon class="cls-149" points="180.169 524.206 159.203 536.311 159.203 538.816 180.169 526.711 180.169 524.206 180.169 524.206"/><g class="cls-171"><polygon class="cls-151" points="179.296 524.341 158.33 536.446 159.203 538.177 180.169 526.072 179.296 524.341 179.296 524.341"/></g><polygon class="cls-149" points="180.169 527.716 159.203 539.821 159.203 542.327 180.169 530.222 180.169 527.716 180.169 527.716"/><g class="cls-172"><polygon class="cls-151" points="179.296 527.852 158.33 539.957 159.203 541.687 180.169 529.582 179.296 527.852 179.296 527.852"/></g><polygon class="cls-149" points="180.169 531.227 159.203 543.332 159.203 545.837 180.169 533.732 180.169 531.227 180.169 531.227"/><g class="cls-173"><polygon class="cls-151" points="179.296 531.362 158.33 543.467 159.203 545.198 180.169 533.093 179.296 531.362 179.296 531.362"/></g><polygon class="cls-41" points="361.566 345.999 337.3 360.009 337.3 444.598 338.254 445.148 361.566 430.587 362.52 346.55 361.566 345.999 361.566 345.999"/><g class="cls-174"><polygon class="cls-147" points="362.037 344.679 336.408 359.476 338.854 360.888 364.483 346.091 362.037 344.679 362.037 344.679"/></g><polygon class="cls-148" points="362.52 346.55 338.254 360.56 338.254 445.148 362.52 431.138 362.52 346.55 362.52 346.55"/><polygon class="cls-149" points="361.155 349.505 340.189 361.609 340.189 364.115 361.155 352.01 361.155 349.505 361.155 349.505"/><g class="cls-175"><polygon class="cls-151" points="360.283 349.64 339.316 361.745 340.189 363.475 361.155 351.371 360.283 349.64 360.283 349.64"/></g><polygon class="cls-149" points="361.155 353.015 340.189 365.12 340.189 367.625 361.155 355.52 361.155 353.015 361.155 353.015"/><g class="cls-176"><polygon class="cls-151" points="360.283 353.15 339.316 365.255 340.189 366.986 361.155 354.881 360.283 353.15 360.283 353.15"/></g><polygon class="cls-149" points="361.155 356.525 340.189 368.63 340.189 371.136 361.155 359.031 361.155 356.525 361.155 356.525"/><g class="cls-177"><polygon class="cls-151" points="360.283 356.661 339.316 368.766 340.189 370.496 361.155 358.391 360.283 356.661 360.283 356.661"/></g><polygon class="cls-149" points="361.155 360.036 340.189 372.141 340.189 374.646 361.155 362.541 361.155 360.036 361.155 360.036"/><g class="cls-178"><polygon class="cls-151" points="360.283 360.171 339.316 372.276 340.189 374.007 361.155 361.902 360.283 360.171 360.283 360.171"/></g><polygon class="cls-149" points="361.155 363.546 340.189 375.651 340.189 378.157 361.155 366.052 361.155 363.546 361.155 363.546"/><g class="cls-179"><polygon class="cls-151" points="360.283 363.682 339.316 375.787 340.189 377.517 361.155 365.412 360.283 363.682 360.283 363.682"/></g><polygon class="cls-149" points="361.155 367.057 340.189 379.162 340.189 381.667 361.155 369.562 361.155 367.057 361.155 367.057"/><g class="cls-180"><polygon class="cls-151" points="360.283 367.192 339.316 379.297 340.189 381.028 361.155 368.923 360.283 367.192 360.283 367.192"/></g><polygon class="cls-149" points="361.155 370.567 340.189 382.672 340.189 385.178 361.155 373.073 361.155 370.567 361.155 370.567"/><g class="cls-181"><polygon class="cls-151" points="360.283 370.703 339.316 382.807 340.189 384.538 361.155 372.433 360.283 370.703 360.283 370.703"/></g><polygon class="cls-149" points="361.155 374.078 340.189 386.183 340.189 388.688 361.155 376.583 361.155 374.078 361.155 374.078"/><g class="cls-182"><polygon class="cls-151" points="360.283 374.213 339.316 386.318 340.189 388.049 361.155 375.944 360.283 374.213 360.283 374.213"/></g><polygon class="cls-149" points="361.155 377.588 340.189 389.693 340.189 392.198 361.155 380.094 361.155 377.588 361.155 377.588"/><g class="cls-183"><polygon class="cls-151" points="360.283 377.723 339.316 389.828 340.189 391.559 361.155 379.454 360.283 377.723 360.283 377.723"/></g><polygon class="cls-149" points="361.155 381.099 340.189 393.203 340.189 395.709 361.155 383.604 361.155 381.099 361.155 381.099"/><g class="cls-184"><polygon class="cls-151" points="360.283 381.234 339.316 393.339 340.189 395.07 361.155 382.965 360.283 381.234 360.283 381.234"/></g><polygon class="cls-149" points="361.155 384.609 340.189 396.714 340.189 399.219 361.155 387.114 361.155 384.609 361.155 384.609"/><g class="cls-185"><polygon class="cls-151" points="360.283 384.744 339.316 396.849 340.189 398.58 361.155 386.475 360.283 384.744 360.283 384.744"/></g><polygon class="cls-149" points="361.155 388.119 340.189 400.224 340.189 402.73 361.155 390.625 361.155 388.119 361.155 388.119"/><g class="cls-186"><polygon class="cls-151" points="360.283 388.255 339.316 400.36 340.189 402.09 361.155 389.986 360.283 388.255 360.283 388.255"/></g><polygon class="cls-149" points="361.155 391.63 340.189 403.735 340.189 406.24 361.155 394.135 361.155 391.63 361.155 391.63"/><g class="cls-187"><polygon class="cls-151" points="360.283 391.765 339.316 403.87 340.189 405.601 361.155 393.496 360.283 391.765 360.283 391.765"/></g><polygon class="cls-149" points="361.155 395.14 340.189 407.245 340.189 409.751 361.155 397.646 361.155 395.14 361.155 395.14"/><g class="cls-188"><polygon class="cls-151" points="360.283 395.276 339.316 407.381 340.189 409.111 361.155 397.006 360.283 395.276 360.283 395.276"/></g><polygon class="cls-149" points="361.155 398.651 340.189 410.756 340.189 413.261 361.155 401.156 361.155 398.651 361.155 398.651"/><g class="cls-189"><polygon class="cls-151" points="360.283 398.786 339.316 410.891 340.189 412.622 361.155 400.517 360.283 398.786 360.283 398.786"/></g><polygon class="cls-149" points="361.155 402.161 340.189 414.266 340.189 416.772 361.155 404.667 361.155 402.161 361.155 402.161"/><g class="cls-190"><polygon class="cls-151" points="360.283 402.297 339.316 414.402 340.189 416.132 361.155 404.027 360.283 402.297 360.283 402.297"/></g><polygon class="cls-149" points="361.155 405.672 340.189 417.777 340.189 420.282 361.155 408.177 361.155 405.672 361.155 405.672"/><g class="cls-191"><polygon class="cls-151" points="360.283 405.807 339.316 417.912 340.189 419.643 361.155 407.538 360.283 405.807 360.283 405.807"/></g><polygon class="cls-149" points="361.155 409.182 340.189 421.287 340.189 423.793 361.155 411.688 361.155 409.182 361.155 409.182"/><g class="cls-192"><polygon class="cls-151" points="360.283 409.318 339.316 421.422 340.189 423.153 361.155 411.048 360.283 409.318 360.283 409.318"/></g><polygon class="cls-149" points="361.155 412.693 340.189 424.798 340.189 427.303 361.155 415.198 361.155 412.693 361.155 412.693"/><g class="cls-193"><polygon class="cls-151" points="360.283 412.828 339.316 424.933 340.189 426.664 361.155 414.559 360.283 412.828 360.283 412.828"/></g><polygon class="cls-149" points="361.155 416.203 340.189 428.308 340.189 430.813 361.155 418.709 361.155 416.203 361.155 416.203"/><g class="cls-194"><polygon class="cls-151" points="360.283 416.338 339.316 428.443 340.189 430.174 361.155 418.069 360.283 416.338 360.283 416.338"/></g><polygon class="cls-149" points="361.155 419.714 340.189 431.818 340.189 434.324 361.155 422.219 361.155 419.714 361.155 419.714"/><g class="cls-195"><polygon class="cls-151" points="360.283 419.849 339.316 431.954 340.189 433.685 361.155 421.58 360.283 419.849 360.283 419.849"/></g><polygon class="cls-149" points="361.155 423.224 340.189 435.329 340.189 437.834 361.155 425.729 361.155 423.224 361.155 423.224"/><g class="cls-196"><polygon class="cls-151" points="360.283 423.359 339.316 435.464 340.189 437.195 361.155 425.09 360.283 423.359 360.283 423.359"/></g><polygon class="cls-149" points="361.155 426.734 340.189 438.839 340.189 441.345 361.155 429.24 361.155 426.734 361.155 426.734"/><g class="cls-197"><polygon class="cls-151" points="360.283 426.87 339.316 438.975 340.189 440.705 361.155 428.601 360.283 426.87 360.283 426.87"/></g><path class="cls-107" d="M118.812,458.75l-1.409,3.1,2.423,1.4v-3.912l-1.014-.585Zm-2.046-1.181-1.408,3.1-1.906-1.1,1.409-3.1,1.905,1.1Zm-3.95-2.281-1.926-1.112v3.912l.517.3,1.409-3.1Z"/><path class="cls-107" d="M38.548,412.41l-1.409,3.1,2.423,1.4V413l-1.014-.585ZM36.5,411.229l-1.409,3.1-1.905-1.1,1.408-3.1,1.906,1.1Zm-3.951-2.281-1.925-1.112v3.912l.516.3,1.409-3.1Z"/><path class="cls-107" d="M118.812,569.5l-1.409,3.1,2.423,1.4v-3.912l-1.014-.586Zm-2.046-1.18-1.408,3.1-1.906-1.1,1.409-3.1,1.905,1.1Zm-3.95-2.281-1.926-1.112v3.912l.517.3,1.409-3.1Z"/><path class="cls-107" d="M38.548,523.162l-1.409,3.1,2.423,1.4v-3.912l-1.014-.586Zm-2.045-1.18-1.409,3.1-1.905-1.1,1.408-3.1,1.906,1.1ZM32.552,519.7l-1.925-1.112V522.5l.516.3,1.409-3.1Z"/><path class="cls-75" d="M100.716,490.5a5.112,5.112,0,0,0-2.133-4.076L84.515,478.3c-1.178-.68-2.134.043-2.134,1.613v10.114a5.111,5.111,0,0,0,2.134,4.076l14.068,8.122c1.178.68,2.133-.043,2.133-1.612V490.5Z"/><path class="cls-56" d="M100.476,490.637a5.113,5.113,0,0,0-2.133-4.076l-14.069-8.122c-1.177-.68-2.133.043-2.133,1.613v10.114a5.114,5.114,0,0,0,2.133,4.076l14.069,8.122c1.177.68,2.133-.043,2.133-1.613V490.637Z"/><path class="cls-198" d="M99.979,490.624a4.835,4.835,0,0,0-2.018-3.855l-13.3-7.682c-1.114-.642-2.018.041-2.018,1.526v9.565a4.834,4.834,0,0,0,2.018,3.855l13.3,7.682c1.114.643,2.018-.04,2.018-1.525v-9.566Z"/><g class="cls-199"><path class="cls-200" d="M100.519,490.313a4.836,4.836,0,0,0-2.018-3.855L85.2,478.776c-1.113-.643-2.017.04-2.017,1.525v9.566a4.836,4.836,0,0,0,2.017,3.855L98.5,501.4c1.113.643,2.018-.041,2.018-1.525v-9.566Z"/></g><g class="cls-199"><path class="cls-201" d="M78.343,478.554s17.812,16.292,22.374,26.284,3.476-21.5,3.476-21.5L80.3,473.775l-1.955,4.779Z"/></g><polygon class="cls-202" points="73.669 550.303 64.605 550.193 64.605 553.3 98.809 573.048 107.873 567.815 107.873 564.707 73.669 550.303 73.669 550.303"/><g class="cls-203"><polygon class="cls-204" points="109.686 558.93 98.744 565.247 98.744 574.709 109.686 568.392 109.686 558.93 109.686 558.93"/></g><polygon class="cls-62" points="73.669 544.96 64.605 550.193 98.809 569.941 107.873 564.707 73.669 544.96 73.669 544.96"/></g><g id="arrow_event_critycal"><circle id="Encendido2" class="cls-205" cx="141.12" cy="273.624" r="32.665"/></g></svg>